G04 #@! TF.GenerationSoftware,KiCad,Pcbnew,9.0.2*
G04 #@! TF.CreationDate,2025-08-20T20:18:49-04:00*
G04 #@! TF.ProjectId,Trackball,54726163-6b62-4616-9c6c-2e6b69636164,rev?*
G04 #@! TF.SameCoordinates,Original*
G04 #@! TF.FileFunction,Legend,Bot*
G04 #@! TF.FilePolarity,Positive*
%FSLAX46Y46*%
G04 Gerber Fmt 4.6, Leading zero omitted, Abs format (unit mm)*
G04 Created by KiCad (PCBNEW 9.0.2) date 2025-08-20 20:18:49*
%MOMM*%
%LPD*%
G01*
G04 APERTURE LIST*
%ADD10C,0.300000*%
%ADD11C,0.150000*%
%ADD12C,0.254000*%
%ADD13C,0.120000*%
%ADD14C,0.100000*%
G04 APERTURE END LIST*
D10*
X148791290Y-101895460D02*
X148530818Y-100418248D01*
X148530818Y-100418248D02*
X147968071Y-100517476D01*
X147968071Y-100517476D02*
X147839787Y-100612626D01*
X147839787Y-100612626D02*
X147781847Y-100695373D01*
X147781847Y-100695373D02*
X147736311Y-100848463D01*
X147736311Y-100848463D02*
X147773521Y-101059493D01*
X147773521Y-101059493D02*
X147868671Y-101187777D01*
X147868671Y-101187777D02*
X147951418Y-101245717D01*
X147951418Y-101245717D02*
X148104508Y-101291253D01*
X148104508Y-101291253D02*
X148667256Y-101192026D01*
X147314079Y-102155932D02*
X147140430Y-101171124D01*
X147190044Y-101452498D02*
X147094894Y-101324215D01*
X147094894Y-101324215D02*
X147012147Y-101266275D01*
X147012147Y-101266275D02*
X146859057Y-101220738D01*
X146859057Y-101220738D02*
X146718370Y-101245545D01*
X146188584Y-102354387D02*
X146316868Y-102259237D01*
X146316868Y-102259237D02*
X146374808Y-102176490D01*
X146374808Y-102176490D02*
X146420344Y-102023400D01*
X146420344Y-102023400D02*
X146345924Y-101601339D01*
X146345924Y-101601339D02*
X146250773Y-101473056D01*
X146250773Y-101473056D02*
X146168026Y-101415116D01*
X146168026Y-101415116D02*
X146014936Y-101369579D01*
X146014936Y-101369579D02*
X145803906Y-101406790D01*
X145803906Y-101406790D02*
X145675623Y-101501940D01*
X145675623Y-101501940D02*
X145617683Y-101584687D01*
X145617683Y-101584687D02*
X145572146Y-101737777D01*
X145572146Y-101737777D02*
X145646567Y-102159837D01*
X145646567Y-102159837D02*
X145741717Y-102288121D01*
X145741717Y-102288121D02*
X145824464Y-102346061D01*
X145824464Y-102346061D02*
X145977554Y-102391597D01*
X145977554Y-102391597D02*
X146188584Y-102354387D01*
X145063090Y-102552842D02*
X144802617Y-101075630D01*
X144802617Y-101075630D02*
X144496265Y-102217606D01*
X144496265Y-102217606D02*
X143817810Y-101249279D01*
X143817810Y-101249279D02*
X144078282Y-102726490D01*
X143374848Y-102850525D02*
X143201199Y-101865717D01*
X143114375Y-101373313D02*
X143197122Y-101431253D01*
X143197122Y-101431253D02*
X143139182Y-101514000D01*
X143139182Y-101514000D02*
X143056435Y-101456060D01*
X143056435Y-101456060D02*
X143114375Y-101373313D01*
X143114375Y-101373313D02*
X143139182Y-101514000D01*
X142025919Y-103015847D02*
X142179009Y-103061383D01*
X142179009Y-103061383D02*
X142460383Y-103011769D01*
X142460383Y-103011769D02*
X142588666Y-102916619D01*
X142588666Y-102916619D02*
X142646606Y-102833872D01*
X142646606Y-102833872D02*
X142692143Y-102680782D01*
X142692143Y-102680782D02*
X142617722Y-102258722D01*
X142617722Y-102258722D02*
X142522572Y-102130438D01*
X142522572Y-102130438D02*
X142439825Y-102072498D01*
X142439825Y-102072498D02*
X142286735Y-102026962D01*
X142286735Y-102026962D02*
X142005361Y-102076576D01*
X142005361Y-102076576D02*
X141877078Y-102171726D01*
X141405232Y-103197821D02*
X141231584Y-102213013D01*
X141281198Y-102494387D02*
X141186047Y-102366104D01*
X141186047Y-102366104D02*
X141103300Y-102308164D01*
X141103300Y-102308164D02*
X140950210Y-102262627D01*
X140950210Y-102262627D02*
X140809523Y-102287434D01*
X140279738Y-103396276D02*
X140408021Y-103301126D01*
X140408021Y-103301126D02*
X140465961Y-103218379D01*
X140465961Y-103218379D02*
X140511498Y-103065289D01*
X140511498Y-103065289D02*
X140437077Y-102643228D01*
X140437077Y-102643228D02*
X140341927Y-102514945D01*
X140341927Y-102514945D02*
X140259180Y-102457005D01*
X140259180Y-102457005D02*
X140106090Y-102411468D01*
X140106090Y-102411468D02*
X139895059Y-102448679D01*
X139895059Y-102448679D02*
X139766776Y-102543829D01*
X139766776Y-102543829D02*
X139708836Y-102626576D01*
X139708836Y-102626576D02*
X139663300Y-102779666D01*
X139663300Y-102779666D02*
X139737720Y-103201726D01*
X139737720Y-103201726D02*
X139832871Y-103330010D01*
X139832871Y-103330010D02*
X139915617Y-103387950D01*
X139915617Y-103387950D02*
X140068708Y-103433486D01*
X140068708Y-103433486D02*
X140279738Y-103396276D01*
X149210636Y-104273688D02*
X148950164Y-102796476D01*
X148577545Y-104385319D02*
X148441108Y-103611541D01*
X148441108Y-103611541D02*
X148486644Y-103458451D01*
X148486644Y-103458451D02*
X148614928Y-103363301D01*
X148614928Y-103363301D02*
X148825958Y-103326090D01*
X148825958Y-103326090D02*
X148979048Y-103371627D01*
X148979048Y-103371627D02*
X149061795Y-103429567D01*
X147298960Y-104538237D02*
X147452051Y-104583774D01*
X147452051Y-104583774D02*
X147733424Y-104534160D01*
X147733424Y-104534160D02*
X147861708Y-104439010D01*
X147861708Y-104439010D02*
X147907244Y-104285919D01*
X147907244Y-104285919D02*
X147808017Y-103723172D01*
X147808017Y-103723172D02*
X147712866Y-103594889D01*
X147712866Y-103594889D02*
X147559776Y-103549352D01*
X147559776Y-103549352D02*
X147278403Y-103598966D01*
X147278403Y-103598966D02*
X147150119Y-103694116D01*
X147150119Y-103694116D02*
X147104583Y-103847207D01*
X147104583Y-103847207D02*
X147129390Y-103987893D01*
X147129390Y-103987893D02*
X147857631Y-104004546D01*
X146607930Y-104732615D02*
X146434282Y-103747807D01*
X146483896Y-104029181D02*
X146388745Y-103900898D01*
X146388745Y-103900898D02*
X146305999Y-103842958D01*
X146305999Y-103842958D02*
X146152908Y-103797421D01*
X146152908Y-103797421D02*
X146012221Y-103822228D01*
X145118315Y-104922744D02*
X145271406Y-104968280D01*
X145271406Y-104968280D02*
X145552779Y-104918667D01*
X145552779Y-104918667D02*
X145681063Y-104823516D01*
X145681063Y-104823516D02*
X145726599Y-104670426D01*
X145726599Y-104670426D02*
X145627372Y-104107679D01*
X145627372Y-104107679D02*
X145532221Y-103979395D01*
X145532221Y-103979395D02*
X145379131Y-103933859D01*
X145379131Y-103933859D02*
X145097758Y-103983473D01*
X145097758Y-103983473D02*
X144969474Y-104078623D01*
X144969474Y-104078623D02*
X144923938Y-104231713D01*
X144923938Y-104231713D02*
X144948744Y-104372400D01*
X144948744Y-104372400D02*
X145676985Y-104389052D01*
X149667364Y-105629898D02*
X149104617Y-105729125D01*
X149629982Y-106651916D02*
X149406720Y-105385734D01*
X149406720Y-105385734D02*
X149311570Y-105257451D01*
X149311570Y-105257451D02*
X149158480Y-105211914D01*
X149158480Y-105211914D02*
X149017793Y-105236721D01*
X148152770Y-106912388D02*
X148016333Y-106138611D01*
X148016333Y-106138611D02*
X148061869Y-105985520D01*
X148061869Y-105985520D02*
X148190152Y-105890370D01*
X148190152Y-105890370D02*
X148471526Y-105840756D01*
X148471526Y-105840756D02*
X148624616Y-105886293D01*
X148140367Y-106842045D02*
X148293457Y-106887581D01*
X148293457Y-106887581D02*
X148645174Y-106825564D01*
X148645174Y-106825564D02*
X148773458Y-106730414D01*
X148773458Y-106730414D02*
X148818994Y-106577323D01*
X148818994Y-106577323D02*
X148794187Y-106436637D01*
X148794187Y-106436637D02*
X148699037Y-106308353D01*
X148699037Y-106308353D02*
X148545947Y-106262817D01*
X148545947Y-106262817D02*
X148194230Y-106324834D01*
X148194230Y-106324834D02*
X148041139Y-106279297D01*
X146803842Y-107077710D02*
X146956932Y-107123247D01*
X146956932Y-107123247D02*
X147238306Y-107073633D01*
X147238306Y-107073633D02*
X147366589Y-106978482D01*
X147366589Y-106978482D02*
X147424529Y-106895736D01*
X147424529Y-106895736D02*
X147470066Y-106742645D01*
X147470066Y-106742645D02*
X147395645Y-106320585D01*
X147395645Y-106320585D02*
X147300495Y-106192302D01*
X147300495Y-106192302D02*
X147217748Y-106134362D01*
X147217748Y-106134362D02*
X147064658Y-106088825D01*
X147064658Y-106088825D02*
X146783284Y-106138439D01*
X146783284Y-106138439D02*
X146655001Y-106233589D01*
X145608004Y-107288568D02*
X145761095Y-107334105D01*
X145761095Y-107334105D02*
X146042468Y-107284491D01*
X146042468Y-107284491D02*
X146170752Y-107189341D01*
X146170752Y-107189341D02*
X146216288Y-107036251D01*
X146216288Y-107036251D02*
X146117061Y-106473503D01*
X146117061Y-106473503D02*
X146021910Y-106345220D01*
X146021910Y-106345220D02*
X145868820Y-106299683D01*
X145868820Y-106299683D02*
X145587446Y-106349297D01*
X145587446Y-106349297D02*
X145459163Y-106444448D01*
X145459163Y-106444448D02*
X145413626Y-106597538D01*
X145413626Y-106597538D02*
X145438433Y-106738225D01*
X145438433Y-106738225D02*
X146166674Y-106754877D01*
X149416237Y-109141775D02*
X149155765Y-107664563D01*
X149403834Y-109071431D02*
X149556924Y-109116968D01*
X149556924Y-109116968D02*
X149838298Y-109067354D01*
X149838298Y-109067354D02*
X149966581Y-108972204D01*
X149966581Y-108972204D02*
X150024521Y-108889457D01*
X150024521Y-108889457D02*
X150070058Y-108736367D01*
X150070058Y-108736367D02*
X149995637Y-108314306D01*
X149995637Y-108314306D02*
X149900487Y-108186023D01*
X149900487Y-108186023D02*
X149817740Y-108128083D01*
X149817740Y-108128083D02*
X149664650Y-108082546D01*
X149664650Y-108082546D02*
X149383276Y-108132160D01*
X149383276Y-108132160D02*
X149254993Y-108227310D01*
X148501773Y-109303019D02*
X148630056Y-109207869D01*
X148630056Y-109207869D02*
X148687996Y-109125122D01*
X148687996Y-109125122D02*
X148733533Y-108972032D01*
X148733533Y-108972032D02*
X148659112Y-108549972D01*
X148659112Y-108549972D02*
X148563962Y-108421688D01*
X148563962Y-108421688D02*
X148481215Y-108363748D01*
X148481215Y-108363748D02*
X148328125Y-108318212D01*
X148328125Y-108318212D02*
X148117095Y-108355422D01*
X148117095Y-108355422D02*
X147988811Y-108450572D01*
X147988811Y-108450572D02*
X147930871Y-108533319D01*
X147930871Y-108533319D02*
X147885335Y-108686409D01*
X147885335Y-108686409D02*
X147959755Y-109108470D01*
X147959755Y-109108470D02*
X148054906Y-109236753D01*
X148054906Y-109236753D02*
X148137652Y-109294693D01*
X148137652Y-109294693D02*
X148290743Y-109340230D01*
X148290743Y-109340230D02*
X148501773Y-109303019D01*
X147343317Y-108491860D02*
X147235591Y-109526281D01*
X147235591Y-109526281D02*
X146830183Y-108872461D01*
X146830183Y-108872461D02*
X146672844Y-109625509D01*
X146672844Y-109625509D02*
X146217822Y-108690315D01*
X145655075Y-108789543D02*
X145828723Y-109774350D01*
X145679881Y-108930229D02*
X145597135Y-108872289D01*
X145597135Y-108872289D02*
X145444044Y-108826753D01*
X145444044Y-108826753D02*
X145233014Y-108863963D01*
X145233014Y-108863963D02*
X145104731Y-108959114D01*
X145104731Y-108959114D02*
X145059194Y-109112204D01*
X145059194Y-109112204D02*
X145195632Y-109885981D01*
D11*
X134511133Y-121463220D02*
X134511133Y-120701316D01*
X134130180Y-121082268D02*
X134892085Y-121082268D01*
X134653990Y-119891792D02*
X134606371Y-119748935D01*
X134606371Y-119748935D02*
X134558752Y-119701316D01*
X134558752Y-119701316D02*
X134463514Y-119653697D01*
X134463514Y-119653697D02*
X134320657Y-119653697D01*
X134320657Y-119653697D02*
X134225419Y-119701316D01*
X134225419Y-119701316D02*
X134177800Y-119748935D01*
X134177800Y-119748935D02*
X134130180Y-119844173D01*
X134130180Y-119844173D02*
X134130180Y-120225125D01*
X134130180Y-120225125D02*
X135130180Y-120225125D01*
X135130180Y-120225125D02*
X135130180Y-119891792D01*
X135130180Y-119891792D02*
X135082561Y-119796554D01*
X135082561Y-119796554D02*
X135034942Y-119748935D01*
X135034942Y-119748935D02*
X134939704Y-119701316D01*
X134939704Y-119701316D02*
X134844466Y-119701316D01*
X134844466Y-119701316D02*
X134749228Y-119748935D01*
X134749228Y-119748935D02*
X134701609Y-119796554D01*
X134701609Y-119796554D02*
X134653990Y-119891792D01*
X134653990Y-119891792D02*
X134653990Y-120225125D01*
X134130180Y-118796554D02*
X134653990Y-118796554D01*
X134653990Y-118796554D02*
X134749228Y-118844173D01*
X134749228Y-118844173D02*
X134796847Y-118939411D01*
X134796847Y-118939411D02*
X134796847Y-119129887D01*
X134796847Y-119129887D02*
X134749228Y-119225125D01*
X134177800Y-118796554D02*
X134130180Y-118891792D01*
X134130180Y-118891792D02*
X134130180Y-119129887D01*
X134130180Y-119129887D02*
X134177800Y-119225125D01*
X134177800Y-119225125D02*
X134273038Y-119272744D01*
X134273038Y-119272744D02*
X134368276Y-119272744D01*
X134368276Y-119272744D02*
X134463514Y-119225125D01*
X134463514Y-119225125D02*
X134511133Y-119129887D01*
X134511133Y-119129887D02*
X134511133Y-118891792D01*
X134511133Y-118891792D02*
X134558752Y-118796554D01*
X134796847Y-118463220D02*
X134796847Y-118082268D01*
X135130180Y-118320363D02*
X134273038Y-118320363D01*
X134273038Y-118320363D02*
X134177800Y-118272744D01*
X134177800Y-118272744D02*
X134130180Y-118177506D01*
X134130180Y-118177506D02*
X134130180Y-118082268D01*
X134796847Y-117891791D02*
X134796847Y-117510839D01*
X135130180Y-117748934D02*
X134273038Y-117748934D01*
X134273038Y-117748934D02*
X134177800Y-117701315D01*
X134177800Y-117701315D02*
X134130180Y-117606077D01*
X134130180Y-117606077D02*
X134130180Y-117510839D01*
X134177800Y-116796553D02*
X134130180Y-116891791D01*
X134130180Y-116891791D02*
X134130180Y-117082267D01*
X134130180Y-117082267D02*
X134177800Y-117177505D01*
X134177800Y-117177505D02*
X134273038Y-117225124D01*
X134273038Y-117225124D02*
X134653990Y-117225124D01*
X134653990Y-117225124D02*
X134749228Y-117177505D01*
X134749228Y-117177505D02*
X134796847Y-117082267D01*
X134796847Y-117082267D02*
X134796847Y-116891791D01*
X134796847Y-116891791D02*
X134749228Y-116796553D01*
X134749228Y-116796553D02*
X134653990Y-116748934D01*
X134653990Y-116748934D02*
X134558752Y-116748934D01*
X134558752Y-116748934D02*
X134463514Y-117225124D01*
X134130180Y-116320362D02*
X134796847Y-116320362D01*
X134606371Y-116320362D02*
X134701609Y-116272743D01*
X134701609Y-116272743D02*
X134749228Y-116225124D01*
X134749228Y-116225124D02*
X134796847Y-116129886D01*
X134796847Y-116129886D02*
X134796847Y-116034648D01*
X134796847Y-115796552D02*
X134130180Y-115558457D01*
X134796847Y-115320362D02*
X134130180Y-115558457D01*
X134130180Y-115558457D02*
X133892085Y-115653695D01*
X133892085Y-115653695D02*
X133844466Y-115701314D01*
X133844466Y-115701314D02*
X133796847Y-115796552D01*
X133749228Y-113891790D02*
X133796847Y-113939409D01*
X133796847Y-113939409D02*
X133939704Y-114034647D01*
X133939704Y-114034647D02*
X134034942Y-114082266D01*
X134034942Y-114082266D02*
X134177800Y-114129885D01*
X134177800Y-114129885D02*
X134415895Y-114177504D01*
X134415895Y-114177504D02*
X134606371Y-114177504D01*
X134606371Y-114177504D02*
X134844466Y-114129885D01*
X134844466Y-114129885D02*
X134987323Y-114082266D01*
X134987323Y-114082266D02*
X135082561Y-114034647D01*
X135082561Y-114034647D02*
X135225419Y-113939409D01*
X135225419Y-113939409D02*
X135273038Y-113891790D01*
X134130180Y-112939409D02*
X134606371Y-113272742D01*
X134130180Y-113510837D02*
X135130180Y-113510837D01*
X135130180Y-113510837D02*
X135130180Y-113129885D01*
X135130180Y-113129885D02*
X135082561Y-113034647D01*
X135082561Y-113034647D02*
X135034942Y-112987028D01*
X135034942Y-112987028D02*
X134939704Y-112939409D01*
X134939704Y-112939409D02*
X134796847Y-112939409D01*
X134796847Y-112939409D02*
X134701609Y-112987028D01*
X134701609Y-112987028D02*
X134653990Y-113034647D01*
X134653990Y-113034647D02*
X134606371Y-113129885D01*
X134606371Y-113129885D02*
X134606371Y-113510837D01*
X134177800Y-112129885D02*
X134130180Y-112225123D01*
X134130180Y-112225123D02*
X134130180Y-112415599D01*
X134130180Y-112415599D02*
X134177800Y-112510837D01*
X134177800Y-112510837D02*
X134273038Y-112558456D01*
X134273038Y-112558456D02*
X134653990Y-112558456D01*
X134653990Y-112558456D02*
X134749228Y-112510837D01*
X134749228Y-112510837D02*
X134796847Y-112415599D01*
X134796847Y-112415599D02*
X134796847Y-112225123D01*
X134796847Y-112225123D02*
X134749228Y-112129885D01*
X134749228Y-112129885D02*
X134653990Y-112082266D01*
X134653990Y-112082266D02*
X134558752Y-112082266D01*
X134558752Y-112082266D02*
X134463514Y-112558456D01*
X134130180Y-111225123D02*
X135130180Y-111225123D01*
X134177800Y-111225123D02*
X134130180Y-111320361D01*
X134130180Y-111320361D02*
X134130180Y-111510837D01*
X134130180Y-111510837D02*
X134177800Y-111606075D01*
X134177800Y-111606075D02*
X134225419Y-111653694D01*
X134225419Y-111653694D02*
X134320657Y-111701313D01*
X134320657Y-111701313D02*
X134606371Y-111701313D01*
X134606371Y-111701313D02*
X134701609Y-111653694D01*
X134701609Y-111653694D02*
X134749228Y-111606075D01*
X134749228Y-111606075D02*
X134796847Y-111510837D01*
X134796847Y-111510837D02*
X134796847Y-111320361D01*
X134796847Y-111320361D02*
X134749228Y-111225123D01*
X133749228Y-110844170D02*
X133796847Y-110796551D01*
X133796847Y-110796551D02*
X133939704Y-110701313D01*
X133939704Y-110701313D02*
X134034942Y-110653694D01*
X134034942Y-110653694D02*
X134177800Y-110606075D01*
X134177800Y-110606075D02*
X134415895Y-110558456D01*
X134415895Y-110558456D02*
X134606371Y-110558456D01*
X134606371Y-110558456D02*
X134844466Y-110606075D01*
X134844466Y-110606075D02*
X134987323Y-110653694D01*
X134987323Y-110653694D02*
X135082561Y-110701313D01*
X135082561Y-110701313D02*
X135225419Y-110796551D01*
X135225419Y-110796551D02*
X135273038Y-110844170D01*
D10*
X135197368Y-86829003D02*
X135197368Y-85829003D01*
X134554510Y-86829003D02*
X134554510Y-86043289D01*
X134554510Y-86043289D02*
X134625939Y-85900432D01*
X134625939Y-85900432D02*
X134768796Y-85829003D01*
X134768796Y-85829003D02*
X134983082Y-85829003D01*
X134983082Y-85829003D02*
X135125939Y-85900432D01*
X135125939Y-85900432D02*
X135197368Y-85971860D01*
X136983082Y-87400432D02*
X135697368Y-85471860D01*
X138125940Y-85829003D02*
X138125940Y-86614717D01*
X138125940Y-86614717D02*
X138054511Y-86757574D01*
X138054511Y-86757574D02*
X137911654Y-86829003D01*
X137911654Y-86829003D02*
X137625940Y-86829003D01*
X137625940Y-86829003D02*
X137483082Y-86757574D01*
X138125940Y-85900432D02*
X137983082Y-85829003D01*
X137983082Y-85829003D02*
X137625940Y-85829003D01*
X137625940Y-85829003D02*
X137483082Y-85900432D01*
X137483082Y-85900432D02*
X137411654Y-86043289D01*
X137411654Y-86043289D02*
X137411654Y-86186146D01*
X137411654Y-86186146D02*
X137483082Y-86329003D01*
X137483082Y-86329003D02*
X137625940Y-86400432D01*
X137625940Y-86400432D02*
X137983082Y-86400432D01*
X137983082Y-86400432D02*
X138125940Y-86471860D01*
X138840225Y-85829003D02*
X138840225Y-87329003D01*
X138983083Y-86400432D02*
X139411654Y-85829003D01*
X139411654Y-86829003D02*
X138840225Y-86257574D01*
X140697369Y-87329003D02*
X140411654Y-87329003D01*
X140411654Y-87329003D02*
X140268797Y-87257574D01*
X140268797Y-87257574D02*
X140197369Y-87186146D01*
X140197369Y-87186146D02*
X140054511Y-86971860D01*
X140054511Y-86971860D02*
X139983083Y-86686146D01*
X139983083Y-86686146D02*
X139983083Y-86114717D01*
X139983083Y-86114717D02*
X140054511Y-85971860D01*
X140054511Y-85971860D02*
X140125940Y-85900432D01*
X140125940Y-85900432D02*
X140268797Y-85829003D01*
X140268797Y-85829003D02*
X140554511Y-85829003D01*
X140554511Y-85829003D02*
X140697369Y-85900432D01*
X140697369Y-85900432D02*
X140768797Y-85971860D01*
X140768797Y-85971860D02*
X140840226Y-86114717D01*
X140840226Y-86114717D02*
X140840226Y-86471860D01*
X140840226Y-86471860D02*
X140768797Y-86614717D01*
X140768797Y-86614717D02*
X140697369Y-86686146D01*
X140697369Y-86686146D02*
X140554511Y-86757574D01*
X140554511Y-86757574D02*
X140268797Y-86757574D01*
X140268797Y-86757574D02*
X140125940Y-86686146D01*
X140125940Y-86686146D02*
X140054511Y-86614717D01*
X140054511Y-86614717D02*
X139983083Y-86471860D01*
X142125940Y-87329003D02*
X141840225Y-87329003D01*
X141840225Y-87329003D02*
X141697368Y-87257574D01*
X141697368Y-87257574D02*
X141625940Y-87186146D01*
X141625940Y-87186146D02*
X141483082Y-86971860D01*
X141483082Y-86971860D02*
X141411654Y-86686146D01*
X141411654Y-86686146D02*
X141411654Y-86114717D01*
X141411654Y-86114717D02*
X141483082Y-85971860D01*
X141483082Y-85971860D02*
X141554511Y-85900432D01*
X141554511Y-85900432D02*
X141697368Y-85829003D01*
X141697368Y-85829003D02*
X141983082Y-85829003D01*
X141983082Y-85829003D02*
X142125940Y-85900432D01*
X142125940Y-85900432D02*
X142197368Y-85971860D01*
X142197368Y-85971860D02*
X142268797Y-86114717D01*
X142268797Y-86114717D02*
X142268797Y-86471860D01*
X142268797Y-86471860D02*
X142197368Y-86614717D01*
X142197368Y-86614717D02*
X142125940Y-86686146D01*
X142125940Y-86686146D02*
X141983082Y-86757574D01*
X141983082Y-86757574D02*
X141697368Y-86757574D01*
X141697368Y-86757574D02*
X141554511Y-86686146D01*
X141554511Y-86686146D02*
X141483082Y-86614717D01*
X141483082Y-86614717D02*
X141411654Y-86471860D01*
X143554511Y-87329003D02*
X143268796Y-87329003D01*
X143268796Y-87329003D02*
X143125939Y-87257574D01*
X143125939Y-87257574D02*
X143054511Y-87186146D01*
X143054511Y-87186146D02*
X142911653Y-86971860D01*
X142911653Y-86971860D02*
X142840225Y-86686146D01*
X142840225Y-86686146D02*
X142840225Y-86114717D01*
X142840225Y-86114717D02*
X142911653Y-85971860D01*
X142911653Y-85971860D02*
X142983082Y-85900432D01*
X142983082Y-85900432D02*
X143125939Y-85829003D01*
X143125939Y-85829003D02*
X143411653Y-85829003D01*
X143411653Y-85829003D02*
X143554511Y-85900432D01*
X143554511Y-85900432D02*
X143625939Y-85971860D01*
X143625939Y-85971860D02*
X143697368Y-86114717D01*
X143697368Y-86114717D02*
X143697368Y-86471860D01*
X143697368Y-86471860D02*
X143625939Y-86614717D01*
X143625939Y-86614717D02*
X143554511Y-86686146D01*
X143554511Y-86686146D02*
X143411653Y-86757574D01*
X143411653Y-86757574D02*
X143125939Y-86757574D01*
X143125939Y-86757574D02*
X142983082Y-86686146D01*
X142983082Y-86686146D02*
X142911653Y-86614717D01*
X142911653Y-86614717D02*
X142840225Y-86471860D01*
X144983082Y-87329003D02*
X144697367Y-87329003D01*
X144697367Y-87329003D02*
X144554510Y-87257574D01*
X144554510Y-87257574D02*
X144483082Y-87186146D01*
X144483082Y-87186146D02*
X144340224Y-86971860D01*
X144340224Y-86971860D02*
X144268796Y-86686146D01*
X144268796Y-86686146D02*
X144268796Y-86114717D01*
X144268796Y-86114717D02*
X144340224Y-85971860D01*
X144340224Y-85971860D02*
X144411653Y-85900432D01*
X144411653Y-85900432D02*
X144554510Y-85829003D01*
X144554510Y-85829003D02*
X144840224Y-85829003D01*
X144840224Y-85829003D02*
X144983082Y-85900432D01*
X144983082Y-85900432D02*
X145054510Y-85971860D01*
X145054510Y-85971860D02*
X145125939Y-86114717D01*
X145125939Y-86114717D02*
X145125939Y-86471860D01*
X145125939Y-86471860D02*
X145054510Y-86614717D01*
X145054510Y-86614717D02*
X144983082Y-86686146D01*
X144983082Y-86686146D02*
X144840224Y-86757574D01*
X144840224Y-86757574D02*
X144554510Y-86757574D01*
X144554510Y-86757574D02*
X144411653Y-86686146D01*
X144411653Y-86686146D02*
X144340224Y-86614717D01*
X144340224Y-86614717D02*
X144268796Y-86471860D01*
X146411653Y-87329003D02*
X146125938Y-87329003D01*
X146125938Y-87329003D02*
X145983081Y-87257574D01*
X145983081Y-87257574D02*
X145911653Y-87186146D01*
X145911653Y-87186146D02*
X145768795Y-86971860D01*
X145768795Y-86971860D02*
X145697367Y-86686146D01*
X145697367Y-86686146D02*
X145697367Y-86114717D01*
X145697367Y-86114717D02*
X145768795Y-85971860D01*
X145768795Y-85971860D02*
X145840224Y-85900432D01*
X145840224Y-85900432D02*
X145983081Y-85829003D01*
X145983081Y-85829003D02*
X146268795Y-85829003D01*
X146268795Y-85829003D02*
X146411653Y-85900432D01*
X146411653Y-85900432D02*
X146483081Y-85971860D01*
X146483081Y-85971860D02*
X146554510Y-86114717D01*
X146554510Y-86114717D02*
X146554510Y-86471860D01*
X146554510Y-86471860D02*
X146483081Y-86614717D01*
X146483081Y-86614717D02*
X146411653Y-86686146D01*
X146411653Y-86686146D02*
X146268795Y-86757574D01*
X146268795Y-86757574D02*
X145983081Y-86757574D01*
X145983081Y-86757574D02*
X145840224Y-86686146D01*
X145840224Y-86686146D02*
X145768795Y-86614717D01*
X145768795Y-86614717D02*
X145697367Y-86471860D01*
X134340225Y-84914087D02*
X135197368Y-84914087D01*
X134768796Y-83414087D02*
X134768796Y-84914087D01*
X135697367Y-83414087D02*
X135697367Y-84914087D01*
X136340225Y-83414087D02*
X136340225Y-84199801D01*
X136340225Y-84199801D02*
X136268796Y-84342658D01*
X136268796Y-84342658D02*
X136125939Y-84414087D01*
X136125939Y-84414087D02*
X135911653Y-84414087D01*
X135911653Y-84414087D02*
X135768796Y-84342658D01*
X135768796Y-84342658D02*
X135697367Y-84271230D01*
X137697368Y-84414087D02*
X137697368Y-83414087D01*
X137054510Y-84414087D02*
X137054510Y-83628373D01*
X137054510Y-83628373D02*
X137125939Y-83485516D01*
X137125939Y-83485516D02*
X137268796Y-83414087D01*
X137268796Y-83414087D02*
X137483082Y-83414087D01*
X137483082Y-83414087D02*
X137625939Y-83485516D01*
X137625939Y-83485516D02*
X137697368Y-83556944D01*
X138411653Y-83414087D02*
X138411653Y-84414087D01*
X138411653Y-84271230D02*
X138483082Y-84342658D01*
X138483082Y-84342658D02*
X138625939Y-84414087D01*
X138625939Y-84414087D02*
X138840225Y-84414087D01*
X138840225Y-84414087D02*
X138983082Y-84342658D01*
X138983082Y-84342658D02*
X139054511Y-84199801D01*
X139054511Y-84199801D02*
X139054511Y-83414087D01*
X139054511Y-84199801D02*
X139125939Y-84342658D01*
X139125939Y-84342658D02*
X139268796Y-84414087D01*
X139268796Y-84414087D02*
X139483082Y-84414087D01*
X139483082Y-84414087D02*
X139625939Y-84342658D01*
X139625939Y-84342658D02*
X139697368Y-84199801D01*
X139697368Y-84199801D02*
X139697368Y-83414087D01*
X140411653Y-83414087D02*
X140411653Y-84914087D01*
X140411653Y-84342658D02*
X140554511Y-84414087D01*
X140554511Y-84414087D02*
X140840225Y-84414087D01*
X140840225Y-84414087D02*
X140983082Y-84342658D01*
X140983082Y-84342658D02*
X141054511Y-84271230D01*
X141054511Y-84271230D02*
X141125939Y-84128373D01*
X141125939Y-84128373D02*
X141125939Y-83699801D01*
X141125939Y-83699801D02*
X141054511Y-83556944D01*
X141054511Y-83556944D02*
X140983082Y-83485516D01*
X140983082Y-83485516D02*
X140840225Y-83414087D01*
X140840225Y-83414087D02*
X140554511Y-83414087D01*
X140554511Y-83414087D02*
X140411653Y-83485516D01*
X141697368Y-83485516D02*
X141840225Y-83414087D01*
X141840225Y-83414087D02*
X142125939Y-83414087D01*
X142125939Y-83414087D02*
X142268796Y-83485516D01*
X142268796Y-83485516D02*
X142340225Y-83628373D01*
X142340225Y-83628373D02*
X142340225Y-83699801D01*
X142340225Y-83699801D02*
X142268796Y-83842658D01*
X142268796Y-83842658D02*
X142125939Y-83914087D01*
X142125939Y-83914087D02*
X141911654Y-83914087D01*
X141911654Y-83914087D02*
X141768796Y-83985516D01*
X141768796Y-83985516D02*
X141697368Y-84128373D01*
X141697368Y-84128373D02*
X141697368Y-84199801D01*
X141697368Y-84199801D02*
X141768796Y-84342658D01*
X141768796Y-84342658D02*
X141911654Y-84414087D01*
X141911654Y-84414087D02*
X142125939Y-84414087D01*
X142125939Y-84414087D02*
X142268796Y-84342658D01*
X142983082Y-84914087D02*
X142983082Y-83699801D01*
X142983082Y-83699801D02*
X143054511Y-83556944D01*
X143054511Y-83556944D02*
X143125940Y-83485516D01*
X143125940Y-83485516D02*
X143268797Y-83414087D01*
X143268797Y-83414087D02*
X143554511Y-83414087D01*
X143554511Y-83414087D02*
X143697368Y-83485516D01*
X143697368Y-83485516D02*
X143768797Y-83556944D01*
X143768797Y-83556944D02*
X143840225Y-83699801D01*
X143840225Y-83699801D02*
X143840225Y-84914087D01*
X144554511Y-84414087D02*
X144554511Y-82914087D01*
X144554511Y-84342658D02*
X144697369Y-84414087D01*
X144697369Y-84414087D02*
X144983083Y-84414087D01*
X144983083Y-84414087D02*
X145125940Y-84342658D01*
X145125940Y-84342658D02*
X145197369Y-84271230D01*
X145197369Y-84271230D02*
X145268797Y-84128373D01*
X145268797Y-84128373D02*
X145268797Y-83699801D01*
X145268797Y-83699801D02*
X145197369Y-83556944D01*
X145197369Y-83556944D02*
X145125940Y-83485516D01*
X145125940Y-83485516D02*
X144983083Y-83414087D01*
X144983083Y-83414087D02*
X144697369Y-83414087D01*
X144697369Y-83414087D02*
X144554511Y-83485516D01*
X145911654Y-83556944D02*
X145983083Y-83485516D01*
X145983083Y-83485516D02*
X145911654Y-83414087D01*
X145911654Y-83414087D02*
X145840226Y-83485516D01*
X145840226Y-83485516D02*
X145911654Y-83556944D01*
X145911654Y-83556944D02*
X145911654Y-83414087D01*
X145911654Y-83985516D02*
X145840226Y-84842658D01*
X145840226Y-84842658D02*
X145911654Y-84914087D01*
X145911654Y-84914087D02*
X145983083Y-84842658D01*
X145983083Y-84842658D02*
X145911654Y-83985516D01*
X145911654Y-83985516D02*
X145911654Y-84914087D01*
X147554512Y-84914087D02*
X148411655Y-84914087D01*
X147983083Y-83414087D02*
X147983083Y-84914087D01*
X148911654Y-83414087D02*
X148911654Y-84414087D01*
X148911654Y-84128373D02*
X148983083Y-84271230D01*
X148983083Y-84271230D02*
X149054512Y-84342658D01*
X149054512Y-84342658D02*
X149197369Y-84414087D01*
X149197369Y-84414087D02*
X149340226Y-84414087D01*
X150483083Y-83414087D02*
X150483083Y-84199801D01*
X150483083Y-84199801D02*
X150411654Y-84342658D01*
X150411654Y-84342658D02*
X150268797Y-84414087D01*
X150268797Y-84414087D02*
X149983083Y-84414087D01*
X149983083Y-84414087D02*
X149840225Y-84342658D01*
X150483083Y-83485516D02*
X150340225Y-83414087D01*
X150340225Y-83414087D02*
X149983083Y-83414087D01*
X149983083Y-83414087D02*
X149840225Y-83485516D01*
X149840225Y-83485516D02*
X149768797Y-83628373D01*
X149768797Y-83628373D02*
X149768797Y-83771230D01*
X149768797Y-83771230D02*
X149840225Y-83914087D01*
X149840225Y-83914087D02*
X149983083Y-83985516D01*
X149983083Y-83985516D02*
X150340225Y-83985516D01*
X150340225Y-83985516D02*
X150483083Y-84056944D01*
X151840226Y-83485516D02*
X151697368Y-83414087D01*
X151697368Y-83414087D02*
X151411654Y-83414087D01*
X151411654Y-83414087D02*
X151268797Y-83485516D01*
X151268797Y-83485516D02*
X151197368Y-83556944D01*
X151197368Y-83556944D02*
X151125940Y-83699801D01*
X151125940Y-83699801D02*
X151125940Y-84128373D01*
X151125940Y-84128373D02*
X151197368Y-84271230D01*
X151197368Y-84271230D02*
X151268797Y-84342658D01*
X151268797Y-84342658D02*
X151411654Y-84414087D01*
X151411654Y-84414087D02*
X151697368Y-84414087D01*
X151697368Y-84414087D02*
X151840226Y-84342658D01*
X152483082Y-83414087D02*
X152483082Y-84914087D01*
X152625940Y-83985516D02*
X153054511Y-83414087D01*
X153054511Y-84414087D02*
X152483082Y-83842658D01*
X153697368Y-83414087D02*
X153697368Y-84914087D01*
X153697368Y-84342658D02*
X153840226Y-84414087D01*
X153840226Y-84414087D02*
X154125940Y-84414087D01*
X154125940Y-84414087D02*
X154268797Y-84342658D01*
X154268797Y-84342658D02*
X154340226Y-84271230D01*
X154340226Y-84271230D02*
X154411654Y-84128373D01*
X154411654Y-84128373D02*
X154411654Y-83699801D01*
X154411654Y-83699801D02*
X154340226Y-83556944D01*
X154340226Y-83556944D02*
X154268797Y-83485516D01*
X154268797Y-83485516D02*
X154125940Y-83414087D01*
X154125940Y-83414087D02*
X153840226Y-83414087D01*
X153840226Y-83414087D02*
X153697368Y-83485516D01*
X155697369Y-83414087D02*
X155697369Y-84199801D01*
X155697369Y-84199801D02*
X155625940Y-84342658D01*
X155625940Y-84342658D02*
X155483083Y-84414087D01*
X155483083Y-84414087D02*
X155197369Y-84414087D01*
X155197369Y-84414087D02*
X155054511Y-84342658D01*
X155697369Y-83485516D02*
X155554511Y-83414087D01*
X155554511Y-83414087D02*
X155197369Y-83414087D01*
X155197369Y-83414087D02*
X155054511Y-83485516D01*
X155054511Y-83485516D02*
X154983083Y-83628373D01*
X154983083Y-83628373D02*
X154983083Y-83771230D01*
X154983083Y-83771230D02*
X155054511Y-83914087D01*
X155054511Y-83914087D02*
X155197369Y-83985516D01*
X155197369Y-83985516D02*
X155554511Y-83985516D01*
X155554511Y-83985516D02*
X155697369Y-84056944D01*
X156625940Y-83414087D02*
X156483083Y-83485516D01*
X156483083Y-83485516D02*
X156411654Y-83628373D01*
X156411654Y-83628373D02*
X156411654Y-84914087D01*
X157411654Y-83414087D02*
X157268797Y-83485516D01*
X157268797Y-83485516D02*
X157197368Y-83628373D01*
X157197368Y-83628373D02*
X157197368Y-84914087D01*
X134483082Y-82356314D02*
X134554510Y-82427742D01*
X134554510Y-82427742D02*
X134697368Y-82499171D01*
X134697368Y-82499171D02*
X135054510Y-82499171D01*
X135054510Y-82499171D02*
X135197368Y-82427742D01*
X135197368Y-82427742D02*
X135268796Y-82356314D01*
X135268796Y-82356314D02*
X135340225Y-82213457D01*
X135340225Y-82213457D02*
X135340225Y-82070600D01*
X135340225Y-82070600D02*
X135268796Y-81856314D01*
X135268796Y-81856314D02*
X134411653Y-80999171D01*
X134411653Y-80999171D02*
X135340225Y-80999171D01*
X136268796Y-82499171D02*
X136411653Y-82499171D01*
X136411653Y-82499171D02*
X136554510Y-82427742D01*
X136554510Y-82427742D02*
X136625939Y-82356314D01*
X136625939Y-82356314D02*
X136697367Y-82213457D01*
X136697367Y-82213457D02*
X136768796Y-81927742D01*
X136768796Y-81927742D02*
X136768796Y-81570600D01*
X136768796Y-81570600D02*
X136697367Y-81284885D01*
X136697367Y-81284885D02*
X136625939Y-81142028D01*
X136625939Y-81142028D02*
X136554510Y-81070600D01*
X136554510Y-81070600D02*
X136411653Y-80999171D01*
X136411653Y-80999171D02*
X136268796Y-80999171D01*
X136268796Y-80999171D02*
X136125939Y-81070600D01*
X136125939Y-81070600D02*
X136054510Y-81142028D01*
X136054510Y-81142028D02*
X135983081Y-81284885D01*
X135983081Y-81284885D02*
X135911653Y-81570600D01*
X135911653Y-81570600D02*
X135911653Y-81927742D01*
X135911653Y-81927742D02*
X135983081Y-82213457D01*
X135983081Y-82213457D02*
X136054510Y-82356314D01*
X136054510Y-82356314D02*
X136125939Y-82427742D01*
X136125939Y-82427742D02*
X136268796Y-82499171D01*
X137340224Y-82356314D02*
X137411652Y-82427742D01*
X137411652Y-82427742D02*
X137554510Y-82499171D01*
X137554510Y-82499171D02*
X137911652Y-82499171D01*
X137911652Y-82499171D02*
X138054510Y-82427742D01*
X138054510Y-82427742D02*
X138125938Y-82356314D01*
X138125938Y-82356314D02*
X138197367Y-82213457D01*
X138197367Y-82213457D02*
X138197367Y-82070600D01*
X138197367Y-82070600D02*
X138125938Y-81856314D01*
X138125938Y-81856314D02*
X137268795Y-80999171D01*
X137268795Y-80999171D02*
X138197367Y-80999171D01*
X139554509Y-82499171D02*
X138840223Y-82499171D01*
X138840223Y-82499171D02*
X138768795Y-81784885D01*
X138768795Y-81784885D02*
X138840223Y-81856314D01*
X138840223Y-81856314D02*
X138983081Y-81927742D01*
X138983081Y-81927742D02*
X139340223Y-81927742D01*
X139340223Y-81927742D02*
X139483081Y-81856314D01*
X139483081Y-81856314D02*
X139554509Y-81784885D01*
X139554509Y-81784885D02*
X139625938Y-81642028D01*
X139625938Y-81642028D02*
X139625938Y-81284885D01*
X139625938Y-81284885D02*
X139554509Y-81142028D01*
X139554509Y-81142028D02*
X139483081Y-81070600D01*
X139483081Y-81070600D02*
X139340223Y-80999171D01*
X139340223Y-80999171D02*
X138983081Y-80999171D01*
X138983081Y-80999171D02*
X138840223Y-81070600D01*
X138840223Y-81070600D02*
X138768795Y-81142028D01*
X140268794Y-81570600D02*
X141411652Y-81570600D01*
X142411652Y-82499171D02*
X142554509Y-82499171D01*
X142554509Y-82499171D02*
X142697366Y-82427742D01*
X142697366Y-82427742D02*
X142768795Y-82356314D01*
X142768795Y-82356314D02*
X142840223Y-82213457D01*
X142840223Y-82213457D02*
X142911652Y-81927742D01*
X142911652Y-81927742D02*
X142911652Y-81570600D01*
X142911652Y-81570600D02*
X142840223Y-81284885D01*
X142840223Y-81284885D02*
X142768795Y-81142028D01*
X142768795Y-81142028D02*
X142697366Y-81070600D01*
X142697366Y-81070600D02*
X142554509Y-80999171D01*
X142554509Y-80999171D02*
X142411652Y-80999171D01*
X142411652Y-80999171D02*
X142268795Y-81070600D01*
X142268795Y-81070600D02*
X142197366Y-81142028D01*
X142197366Y-81142028D02*
X142125937Y-81284885D01*
X142125937Y-81284885D02*
X142054509Y-81570600D01*
X142054509Y-81570600D02*
X142054509Y-81927742D01*
X142054509Y-81927742D02*
X142125937Y-82213457D01*
X142125937Y-82213457D02*
X142197366Y-82356314D01*
X142197366Y-82356314D02*
X142268795Y-82427742D01*
X142268795Y-82427742D02*
X142411652Y-82499171D01*
X143768794Y-81856314D02*
X143625937Y-81927742D01*
X143625937Y-81927742D02*
X143554508Y-81999171D01*
X143554508Y-81999171D02*
X143483080Y-82142028D01*
X143483080Y-82142028D02*
X143483080Y-82213457D01*
X143483080Y-82213457D02*
X143554508Y-82356314D01*
X143554508Y-82356314D02*
X143625937Y-82427742D01*
X143625937Y-82427742D02*
X143768794Y-82499171D01*
X143768794Y-82499171D02*
X144054508Y-82499171D01*
X144054508Y-82499171D02*
X144197366Y-82427742D01*
X144197366Y-82427742D02*
X144268794Y-82356314D01*
X144268794Y-82356314D02*
X144340223Y-82213457D01*
X144340223Y-82213457D02*
X144340223Y-82142028D01*
X144340223Y-82142028D02*
X144268794Y-81999171D01*
X144268794Y-81999171D02*
X144197366Y-81927742D01*
X144197366Y-81927742D02*
X144054508Y-81856314D01*
X144054508Y-81856314D02*
X143768794Y-81856314D01*
X143768794Y-81856314D02*
X143625937Y-81784885D01*
X143625937Y-81784885D02*
X143554508Y-81713457D01*
X143554508Y-81713457D02*
X143483080Y-81570600D01*
X143483080Y-81570600D02*
X143483080Y-81284885D01*
X143483080Y-81284885D02*
X143554508Y-81142028D01*
X143554508Y-81142028D02*
X143625937Y-81070600D01*
X143625937Y-81070600D02*
X143768794Y-80999171D01*
X143768794Y-80999171D02*
X144054508Y-80999171D01*
X144054508Y-80999171D02*
X144197366Y-81070600D01*
X144197366Y-81070600D02*
X144268794Y-81142028D01*
X144268794Y-81142028D02*
X144340223Y-81284885D01*
X144340223Y-81284885D02*
X144340223Y-81570600D01*
X144340223Y-81570600D02*
X144268794Y-81713457D01*
X144268794Y-81713457D02*
X144197366Y-81784885D01*
X144197366Y-81784885D02*
X144054508Y-81856314D01*
X144983079Y-81570600D02*
X146125937Y-81570600D01*
X146768794Y-82356314D02*
X146840222Y-82427742D01*
X146840222Y-82427742D02*
X146983080Y-82499171D01*
X146983080Y-82499171D02*
X147340222Y-82499171D01*
X147340222Y-82499171D02*
X147483080Y-82427742D01*
X147483080Y-82427742D02*
X147554508Y-82356314D01*
X147554508Y-82356314D02*
X147625937Y-82213457D01*
X147625937Y-82213457D02*
X147625937Y-82070600D01*
X147625937Y-82070600D02*
X147554508Y-81856314D01*
X147554508Y-81856314D02*
X146697365Y-80999171D01*
X146697365Y-80999171D02*
X147625937Y-80999171D01*
X148554508Y-82499171D02*
X148697365Y-82499171D01*
X148697365Y-82499171D02*
X148840222Y-82427742D01*
X148840222Y-82427742D02*
X148911651Y-82356314D01*
X148911651Y-82356314D02*
X148983079Y-82213457D01*
X148983079Y-82213457D02*
X149054508Y-81927742D01*
X149054508Y-81927742D02*
X149054508Y-81570600D01*
X149054508Y-81570600D02*
X148983079Y-81284885D01*
X148983079Y-81284885D02*
X148911651Y-81142028D01*
X148911651Y-81142028D02*
X148840222Y-81070600D01*
X148840222Y-81070600D02*
X148697365Y-80999171D01*
X148697365Y-80999171D02*
X148554508Y-80999171D01*
X148554508Y-80999171D02*
X148411651Y-81070600D01*
X148411651Y-81070600D02*
X148340222Y-81142028D01*
X148340222Y-81142028D02*
X148268793Y-81284885D01*
X148268793Y-81284885D02*
X148197365Y-81570600D01*
X148197365Y-81570600D02*
X148197365Y-81927742D01*
X148197365Y-81927742D02*
X148268793Y-82213457D01*
X148268793Y-82213457D02*
X148340222Y-82356314D01*
X148340222Y-82356314D02*
X148411651Y-82427742D01*
X148411651Y-82427742D02*
X148554508Y-82499171D01*
D11*
X121032713Y-137836819D02*
X121032713Y-136836819D01*
X121032713Y-136836819D02*
X120699380Y-137551104D01*
X120699380Y-137551104D02*
X120366047Y-136836819D01*
X120366047Y-136836819D02*
X120366047Y-137836819D01*
X119985094Y-136836819D02*
X119318428Y-137836819D01*
X119318428Y-136836819D02*
X119985094Y-137836819D01*
X118508904Y-137170152D02*
X118508904Y-137836819D01*
X118746999Y-136789200D02*
X118985094Y-137503485D01*
X118985094Y-137503485D02*
X118366047Y-137503485D01*
X121032713Y-70399819D02*
X121032713Y-69399819D01*
X121032713Y-69399819D02*
X120699380Y-70114104D01*
X120699380Y-70114104D02*
X120366047Y-69399819D01*
X120366047Y-69399819D02*
X120366047Y-70399819D01*
X119985094Y-69399819D02*
X119318428Y-70399819D01*
X119318428Y-69399819D02*
X119985094Y-70399819D01*
X118461285Y-69399819D02*
X118937475Y-69399819D01*
X118937475Y-69399819D02*
X118985094Y-69876009D01*
X118985094Y-69876009D02*
X118937475Y-69828390D01*
X118937475Y-69828390D02*
X118842237Y-69780771D01*
X118842237Y-69780771D02*
X118604142Y-69780771D01*
X118604142Y-69780771D02*
X118508904Y-69828390D01*
X118508904Y-69828390D02*
X118461285Y-69876009D01*
X118461285Y-69876009D02*
X118413666Y-69971247D01*
X118413666Y-69971247D02*
X118413666Y-70209342D01*
X118413666Y-70209342D02*
X118461285Y-70304580D01*
X118461285Y-70304580D02*
X118508904Y-70352200D01*
X118508904Y-70352200D02*
X118604142Y-70399819D01*
X118604142Y-70399819D02*
X118842237Y-70399819D01*
X118842237Y-70399819D02*
X118937475Y-70352200D01*
X118937475Y-70352200D02*
X118985094Y-70304580D01*
X106156819Y-125650666D02*
X106871104Y-125650666D01*
X106871104Y-125650666D02*
X107013961Y-125603047D01*
X107013961Y-125603047D02*
X107109200Y-125507809D01*
X107109200Y-125507809D02*
X107156819Y-125364952D01*
X107156819Y-125364952D02*
X107156819Y-125269714D01*
X106156819Y-126031619D02*
X106156819Y-126650666D01*
X106156819Y-126650666D02*
X106537771Y-126317333D01*
X106537771Y-126317333D02*
X106537771Y-126460190D01*
X106537771Y-126460190D02*
X106585390Y-126555428D01*
X106585390Y-126555428D02*
X106633009Y-126603047D01*
X106633009Y-126603047D02*
X106728247Y-126650666D01*
X106728247Y-126650666D02*
X106966342Y-126650666D01*
X106966342Y-126650666D02*
X107061580Y-126603047D01*
X107061580Y-126603047D02*
X107109200Y-126555428D01*
X107109200Y-126555428D02*
X107156819Y-126460190D01*
X107156819Y-126460190D02*
X107156819Y-126174476D01*
X107156819Y-126174476D02*
X107109200Y-126079238D01*
X107109200Y-126079238D02*
X107061580Y-126031619D01*
X106156819Y-76882666D02*
X106871104Y-76882666D01*
X106871104Y-76882666D02*
X107013961Y-76835047D01*
X107013961Y-76835047D02*
X107109200Y-76739809D01*
X107109200Y-76739809D02*
X107156819Y-76596952D01*
X107156819Y-76596952D02*
X107156819Y-76501714D01*
X106252057Y-77311238D02*
X106204438Y-77358857D01*
X106204438Y-77358857D02*
X106156819Y-77454095D01*
X106156819Y-77454095D02*
X106156819Y-77692190D01*
X106156819Y-77692190D02*
X106204438Y-77787428D01*
X106204438Y-77787428D02*
X106252057Y-77835047D01*
X106252057Y-77835047D02*
X106347295Y-77882666D01*
X106347295Y-77882666D02*
X106442533Y-77882666D01*
X106442533Y-77882666D02*
X106585390Y-77835047D01*
X106585390Y-77835047D02*
X107156819Y-77263619D01*
X107156819Y-77263619D02*
X107156819Y-77882666D01*
X157552819Y-125650666D02*
X158267104Y-125650666D01*
X158267104Y-125650666D02*
X158409961Y-125603047D01*
X158409961Y-125603047D02*
X158505200Y-125507809D01*
X158505200Y-125507809D02*
X158552819Y-125364952D01*
X158552819Y-125364952D02*
X158552819Y-125269714D01*
X157552819Y-126603047D02*
X157552819Y-126126857D01*
X157552819Y-126126857D02*
X158029009Y-126079238D01*
X158029009Y-126079238D02*
X157981390Y-126126857D01*
X157981390Y-126126857D02*
X157933771Y-126222095D01*
X157933771Y-126222095D02*
X157933771Y-126460190D01*
X157933771Y-126460190D02*
X157981390Y-126555428D01*
X157981390Y-126555428D02*
X158029009Y-126603047D01*
X158029009Y-126603047D02*
X158124247Y-126650666D01*
X158124247Y-126650666D02*
X158362342Y-126650666D01*
X158362342Y-126650666D02*
X158457580Y-126603047D01*
X158457580Y-126603047D02*
X158505200Y-126555428D01*
X158505200Y-126555428D02*
X158552819Y-126460190D01*
X158552819Y-126460190D02*
X158552819Y-126222095D01*
X158552819Y-126222095D02*
X158505200Y-126126857D01*
X158505200Y-126126857D02*
X158457580Y-126079238D01*
X157552819Y-76882666D02*
X158267104Y-76882666D01*
X158267104Y-76882666D02*
X158409961Y-76835047D01*
X158409961Y-76835047D02*
X158505200Y-76739809D01*
X158505200Y-76739809D02*
X158552819Y-76596952D01*
X158552819Y-76596952D02*
X158552819Y-76501714D01*
X157886152Y-77787428D02*
X158552819Y-77787428D01*
X157505200Y-77549333D02*
X158219485Y-77311238D01*
X158219485Y-77311238D02*
X158219485Y-77930285D01*
X132733333Y-93594819D02*
X132733333Y-94309104D01*
X132733333Y-94309104D02*
X132780952Y-94451961D01*
X132780952Y-94451961D02*
X132876190Y-94547200D01*
X132876190Y-94547200D02*
X133019047Y-94594819D01*
X133019047Y-94594819D02*
X133114285Y-94594819D01*
X131828571Y-93594819D02*
X132019047Y-93594819D01*
X132019047Y-93594819D02*
X132114285Y-93642438D01*
X132114285Y-93642438D02*
X132161904Y-93690057D01*
X132161904Y-93690057D02*
X132257142Y-93832914D01*
X132257142Y-93832914D02*
X132304761Y-94023390D01*
X132304761Y-94023390D02*
X132304761Y-94404342D01*
X132304761Y-94404342D02*
X132257142Y-94499580D01*
X132257142Y-94499580D02*
X132209523Y-94547200D01*
X132209523Y-94547200D02*
X132114285Y-94594819D01*
X132114285Y-94594819D02*
X131923809Y-94594819D01*
X131923809Y-94594819D02*
X131828571Y-94547200D01*
X131828571Y-94547200D02*
X131780952Y-94499580D01*
X131780952Y-94499580D02*
X131733333Y-94404342D01*
X131733333Y-94404342D02*
X131733333Y-94166247D01*
X131733333Y-94166247D02*
X131780952Y-94071009D01*
X131780952Y-94071009D02*
X131828571Y-94023390D01*
X131828571Y-94023390D02*
X131923809Y-93975771D01*
X131923809Y-93975771D02*
X132114285Y-93975771D01*
X132114285Y-93975771D02*
X132209523Y-94023390D01*
X132209523Y-94023390D02*
X132257142Y-94071009D01*
X132257142Y-94071009D02*
X132304761Y-94166247D01*
D12*
X157577209Y-92632329D02*
X157471836Y-92472735D01*
X157471836Y-92472735D02*
X157393575Y-92180657D01*
X157393575Y-92180657D02*
X157420685Y-92048174D01*
X157420685Y-92048174D02*
X157463448Y-91974106D01*
X157463448Y-91974106D02*
X157564627Y-91884386D01*
X157564627Y-91884386D02*
X157681458Y-91853081D01*
X157681458Y-91853081D02*
X157813941Y-91880192D01*
X157813941Y-91880192D02*
X157888009Y-91922955D01*
X157888009Y-91922955D02*
X157977730Y-92024133D01*
X157977730Y-92024133D02*
X158098755Y-92242143D01*
X158098755Y-92242143D02*
X158188475Y-92343322D01*
X158188475Y-92343322D02*
X158262543Y-92386085D01*
X158262543Y-92386085D02*
X158395026Y-92413195D01*
X158395026Y-92413195D02*
X158511857Y-92381891D01*
X158511857Y-92381891D02*
X158613036Y-92292170D01*
X158613036Y-92292170D02*
X158655799Y-92218102D01*
X158655799Y-92218102D02*
X158682910Y-92085619D01*
X158682910Y-92085619D02*
X158604648Y-91793541D01*
X158604648Y-91793541D02*
X158499275Y-91633947D01*
X158448124Y-91209386D02*
X157143136Y-91246009D01*
X157143136Y-91246009D02*
X157956759Y-90777561D01*
X157956759Y-90777561D02*
X157017917Y-90778685D01*
X157017917Y-90778685D02*
X158166381Y-90157907D01*
X156642260Y-89376712D02*
X156830088Y-90077698D01*
X156736174Y-89727205D02*
X157962900Y-89398505D01*
X157962900Y-89398505D02*
X157818958Y-89562293D01*
X157818958Y-89562293D02*
X157733432Y-89710429D01*
X157733432Y-89710429D02*
X157706321Y-89842912D01*
D11*
X116608908Y-119114624D02*
X116673956Y-119132054D01*
X116673956Y-119132054D02*
X116821484Y-119101865D01*
X116821484Y-119101865D02*
X116903963Y-119054246D01*
X116903963Y-119054246D02*
X117003871Y-118941578D01*
X117003871Y-118941578D02*
X117038730Y-118811480D01*
X117038730Y-118811480D02*
X117032351Y-118705192D01*
X117032351Y-118705192D02*
X116978352Y-118516425D01*
X116978352Y-118516425D02*
X116906923Y-118392707D01*
X116906923Y-118392707D02*
X116770446Y-118251560D01*
X116770446Y-118251560D02*
X116681588Y-118192891D01*
X116681588Y-118192891D02*
X116551490Y-118158031D01*
X116551490Y-118158031D02*
X116403963Y-118188220D01*
X116403963Y-118188220D02*
X116321484Y-118235839D01*
X116321484Y-118235839D02*
X116221576Y-118348507D01*
X116221576Y-118348507D02*
X116204146Y-118413556D01*
X115831741Y-119673293D02*
X116326612Y-119387579D01*
X116079176Y-119530436D02*
X115579176Y-118664411D01*
X115579176Y-118664411D02*
X115733084Y-118740510D01*
X115733084Y-118740510D02*
X115863181Y-118775369D01*
X115863181Y-118775369D02*
X115969469Y-118768989D01*
X115049445Y-119080223D02*
X114984396Y-119062793D01*
X114984396Y-119062793D02*
X114878108Y-119069173D01*
X114878108Y-119069173D02*
X114671912Y-119188220D01*
X114671912Y-119188220D02*
X114613243Y-119277079D01*
X114613243Y-119277079D02*
X114595813Y-119342127D01*
X114595813Y-119342127D02*
X114602193Y-119448416D01*
X114602193Y-119448416D02*
X114649812Y-119530894D01*
X114649812Y-119530894D02*
X114762479Y-119630803D01*
X114762479Y-119630803D02*
X115543065Y-119839960D01*
X115543065Y-119839960D02*
X115006954Y-120149484D01*
X136533333Y-117334820D02*
X136533333Y-118049105D01*
X136533333Y-118049105D02*
X136580952Y-118191962D01*
X136580952Y-118191962D02*
X136676190Y-118287201D01*
X136676190Y-118287201D02*
X136819047Y-118334820D01*
X136819047Y-118334820D02*
X136914285Y-118334820D01*
X135533333Y-118334820D02*
X136104761Y-118334820D01*
X135819047Y-118334820D02*
X135819047Y-117334820D01*
X135819047Y-117334820D02*
X135914285Y-117477677D01*
X135914285Y-117477677D02*
X136009523Y-117572915D01*
X136009523Y-117572915D02*
X136104761Y-117620534D01*
X116214553Y-84793187D02*
X116231982Y-84858236D01*
X116231982Y-84858236D02*
X116331891Y-84970904D01*
X116331891Y-84970904D02*
X116414369Y-85018523D01*
X116414369Y-85018523D02*
X116561897Y-85048712D01*
X116561897Y-85048712D02*
X116691995Y-85013853D01*
X116691995Y-85013853D02*
X116780853Y-84955184D01*
X116780853Y-84955184D02*
X116917330Y-84814036D01*
X116917330Y-84814036D02*
X116988759Y-84690318D01*
X116988759Y-84690318D02*
X117042758Y-84501551D01*
X117042758Y-84501551D02*
X117049137Y-84395263D01*
X117049137Y-84395263D02*
X117014278Y-84265166D01*
X117014278Y-84265166D02*
X116914369Y-84152498D01*
X116914369Y-84152498D02*
X116831891Y-84104879D01*
X116831891Y-84104879D02*
X116684363Y-84074689D01*
X116684363Y-84074689D02*
X116619315Y-84092119D01*
X115342148Y-84399475D02*
X115837019Y-84685190D01*
X115589583Y-84542333D02*
X116089583Y-83676307D01*
X116089583Y-83676307D02*
X116100633Y-83847644D01*
X116100633Y-83847644D02*
X116135493Y-83977742D01*
X116135493Y-83977742D02*
X116194162Y-84066600D01*
X114517361Y-83923285D02*
X115012233Y-84208999D01*
X114764797Y-84066142D02*
X115264797Y-83200117D01*
X115264797Y-83200117D02*
X115275847Y-83371454D01*
X115275847Y-83371454D02*
X115310707Y-83501551D01*
X115310707Y-83501551D02*
X115369376Y-83590410D01*
X112747000Y-127682000D02*
X113247000Y-127182000D01*
X112747000Y-131182000D02*
X113247000Y-131682000D01*
X113247000Y-127182000D02*
X116247000Y-127182000D01*
X113247000Y-131682000D02*
X115747000Y-131682000D01*
X116247000Y-127182000D02*
X116747000Y-127682000D01*
X116747000Y-128682000D02*
X116747000Y-127682000D01*
X117247000Y-133182000D02*
X117247000Y-133882000D01*
X117247000Y-133882000D02*
X121747000Y-133882000D01*
X121747000Y-129182000D02*
X117247000Y-129182000D01*
X121747000Y-129782000D02*
X121747000Y-129182000D01*
X121747000Y-133882000D02*
X121747000Y-133382000D01*
X115747000Y-131682000D02*
G75*
G02*
X117247000Y-133182000I-1J-1500001D01*
G01*
X117247000Y-129182000D02*
G75*
G02*
X116747000Y-128682000I1J500001D01*
G01*
X112747000Y-60245000D02*
X113247000Y-59745000D01*
X112747000Y-63745000D02*
X113247000Y-64245000D01*
X113247000Y-59745000D02*
X116247000Y-59745000D01*
X113247000Y-64245000D02*
X115747000Y-64245000D01*
X116247000Y-59745000D02*
X116747000Y-60245000D01*
X116747000Y-61245000D02*
X116747000Y-60245000D01*
X117247000Y-65745000D02*
X117247000Y-66445000D01*
X117247000Y-66445000D02*
X121747000Y-66445000D01*
X121747000Y-61745000D02*
X117247000Y-61745000D01*
X121747000Y-62345000D02*
X121747000Y-61745000D01*
X121747000Y-66445000D02*
X121747000Y-65945000D01*
X115747000Y-64245000D02*
G75*
G02*
X117247000Y-65745000I-1J-1500001D01*
G01*
X117247000Y-61745000D02*
G75*
G02*
X116747000Y-61245000I1J500001D01*
G01*
X134208661Y-94395261D02*
X139211484Y-93513128D01*
X138770418Y-91011718D02*
X146274652Y-89688517D01*
X139211484Y-93513128D02*
X138770418Y-91011718D01*
X139501458Y-124412203D02*
X134208661Y-94395261D01*
X146274652Y-89688517D02*
X146715719Y-92189929D01*
X146715719Y-92189929D02*
X151718542Y-91307797D01*
X151718542Y-91307797D02*
X157011339Y-121324739D01*
X157011339Y-121324739D02*
X139501458Y-124412203D01*
D13*
X107652000Y-124604000D02*
X107652000Y-125984000D01*
X109032000Y-124604000D02*
X107652000Y-124604000D01*
X110302000Y-124604000D02*
X110302000Y-127364000D01*
X110302000Y-124604000D02*
X118032000Y-124604000D01*
X110302000Y-127364000D02*
X118032000Y-127364000D01*
X118032000Y-124604000D02*
X118032000Y-127364000D01*
X107652000Y-75836000D02*
X107652000Y-77216000D01*
X109032000Y-75836000D02*
X107652000Y-75836000D01*
X110302000Y-75836000D02*
X110302000Y-78596000D01*
X110302000Y-75836000D02*
X118032000Y-75836000D01*
X110302000Y-78596000D02*
X118032000Y-78596000D01*
X118032000Y-75836000D02*
X118032000Y-78596000D01*
X146768000Y-127364000D02*
X146768000Y-124604000D01*
X154498000Y-124604000D02*
X146768000Y-124604000D01*
X154498000Y-127364000D02*
X146768000Y-127364000D01*
X154498000Y-127364000D02*
X154498000Y-124604000D01*
X155768000Y-127364000D02*
X157148000Y-127364000D01*
X157148000Y-127364000D02*
X157148000Y-125984000D01*
X146768000Y-78596000D02*
X146768000Y-75836000D01*
X154498000Y-75836000D02*
X146768000Y-75836000D01*
X154498000Y-78596000D02*
X146768000Y-78596000D01*
X154498000Y-78596000D02*
X154498000Y-75836000D01*
X155768000Y-78596000D02*
X157148000Y-78596000D01*
X157148000Y-78596000D02*
X157148000Y-77216000D01*
X131020000Y-97790000D02*
X131020000Y-108060000D01*
X133780000Y-95140000D02*
X132400000Y-95140000D01*
X133780000Y-96520000D02*
X133780000Y-95140000D01*
X133780000Y-97790000D02*
X131020000Y-97790000D01*
X133780000Y-97790000D02*
X133780000Y-108060000D01*
X133780000Y-108060000D02*
X131020000Y-108060000D01*
D14*
X154445614Y-87266683D02*
X155556428Y-86969041D01*
X156671457Y-95573644D02*
X154445614Y-87266683D01*
X157782272Y-95276004D02*
X156671457Y-95573644D01*
X158599094Y-86153762D02*
X157488280Y-86451403D01*
X159714124Y-94758365D02*
X160824938Y-94460722D01*
X160824938Y-94460722D02*
X158599094Y-86153762D01*
D13*
X113876425Y-117090043D02*
X115108349Y-116378791D01*
X114786425Y-118666209D02*
X116018349Y-117954957D01*
X134820000Y-121530001D02*
X134820000Y-124180000D01*
X137580000Y-118880000D02*
X136200000Y-118880000D01*
X137580000Y-120260000D02*
X137580000Y-118880000D01*
X137580000Y-121530000D02*
X134820000Y-121530001D01*
X137580000Y-121530000D02*
X137580000Y-124180000D01*
X137580000Y-124180000D02*
X134820000Y-124180000D01*
X115073575Y-86906209D02*
X113841651Y-86194957D01*
X115983575Y-85330043D02*
X114751651Y-84618791D01*
M02*
