G04 #@! TF.GenerationSoftware,KiCad,Pcbnew,9.0.2*
G04 #@! TF.CreationDate,2025-10-01T13:15:07-04:00*
G04 #@! TF.ProjectId,Trackball,54726163-6b62-4616-9c6c-2e6b69636164,rev?*
G04 #@! TF.SameCoordinates,Original*
G04 #@! TF.FileFunction,Copper,L2,Bot*
G04 #@! TF.FilePolarity,Positive*
%FSLAX46Y46*%
G04 Gerber Fmt 4.6, Leading zero omitted, Abs format (unit mm)*
G04 Created by KiCad (PCBNEW 9.0.2) date 2025-10-01 13:15:07*
%MOMM*%
%LPD*%
G01*
G04 APERTURE LIST*
G04 Aperture macros list*
%AMRotRect*
0 Rectangle, with rotation*
0 The origin of the aperture is its center*
0 $1 length*
0 $2 width*
0 $3 Rotation angle, in degrees counterclockwise*
0 Add horizontal line*
21,1,$1,$2,0,0,$3*%
G04 Aperture macros list end*
G04 #@! TA.AperFunction,SMDPad,CuDef*
%ADD10R,2.600000X2.600000*%
G04 #@! TD*
G04 #@! TA.AperFunction,ComponentPad*
%ADD11R,1.700000X1.700000*%
G04 #@! TD*
G04 #@! TA.AperFunction,ComponentPad*
%ADD12C,1.700000*%
G04 #@! TD*
G04 #@! TA.AperFunction,ComponentPad*
%ADD13C,7.000000*%
G04 #@! TD*
G04 #@! TA.AperFunction,ComponentPad*
%ADD14R,1.600000X1.600000*%
G04 #@! TD*
G04 #@! TA.AperFunction,ComponentPad*
%ADD15C,1.600000*%
G04 #@! TD*
G04 #@! TA.AperFunction,ComponentPad*
%ADD16C,5.000000*%
G04 #@! TD*
G04 #@! TA.AperFunction,ComponentPad*
%ADD17RotRect,1.700000X1.700000X315.000000*%
G04 #@! TD*
G04 #@! TA.AperFunction,ComponentPad*
%ADD18C,1.300000*%
G04 #@! TD*
G04 #@! TA.AperFunction,ComponentPad*
%ADD19C,1.200000*%
G04 #@! TD*
G04 #@! TA.AperFunction,ComponentPad*
%ADD20C,1.500000*%
G04 #@! TD*
G04 #@! TA.AperFunction,ComponentPad*
%ADD21RotRect,1.700000X1.700000X225.000000*%
G04 #@! TD*
G04 #@! TA.AperFunction,ViaPad*
%ADD22C,0.800000*%
G04 #@! TD*
G04 #@! TA.AperFunction,Conductor*
%ADD23C,0.500000*%
G04 #@! TD*
G04 #@! TA.AperFunction,Conductor*
%ADD24C,0.250000*%
G04 #@! TD*
G04 APERTURE END LIST*
D10*
X111472000Y-131432000D03*
X123022000Y-133632000D03*
D11*
X120208000Y-77216000D03*
D12*
X122748000Y-77216000D03*
X125288000Y-77216000D03*
X127828000Y-77216000D03*
D11*
X120208000Y-125984000D03*
D12*
X122748000Y-125984000D03*
X125288000Y-125984000D03*
X127828000Y-125984000D03*
D11*
X155901000Y-97790000D03*
D12*
X155901000Y-100330000D03*
X155901000Y-102870000D03*
X155901000Y-105410000D03*
D13*
X121400000Y-83600000D03*
D11*
X130400000Y-121600000D03*
D12*
X130400000Y-119060000D03*
X130400000Y-116520000D03*
D14*
X163660000Y-93960000D03*
D15*
X161120000Y-93960000D03*
X158580000Y-93960000D03*
X156040000Y-93960000D03*
X153500000Y-93960000D03*
X150960000Y-93960000D03*
X148420000Y-93960000D03*
X145880000Y-93960000D03*
X143340000Y-93960000D03*
X140800000Y-93960000D03*
X138260000Y-93960000D03*
X135720000Y-93960000D03*
X135720000Y-109200000D03*
X138260000Y-109200000D03*
X140800000Y-109200000D03*
X143340000Y-109200000D03*
X145880000Y-109200000D03*
X148420000Y-109200000D03*
X150960000Y-109200000D03*
X153500000Y-109200000D03*
X156040000Y-109200000D03*
X158580000Y-109200000D03*
X161120000Y-109200000D03*
X163660000Y-109200000D03*
D16*
X114660000Y-86160000D03*
D11*
X130400000Y-81600000D03*
D12*
X130400000Y-84140000D03*
X130400000Y-86680000D03*
D13*
X140400000Y-88600000D03*
D16*
X114640000Y-117020000D03*
D13*
X140400000Y-114600000D03*
D10*
X111525000Y-59900000D03*
X123075000Y-62100000D03*
D13*
X121400000Y-119600000D03*
D11*
X155768000Y-125984000D03*
D12*
X153228000Y-125984000D03*
X150688000Y-125984000D03*
X148148000Y-125984000D03*
D11*
X155768000Y-77216000D03*
D12*
X153228000Y-77216000D03*
X150688000Y-77216000D03*
X148148000Y-77216000D03*
D17*
X109773949Y-127786051D03*
D12*
X111570000Y-125990000D03*
X113366051Y-124193949D03*
X115162103Y-122397897D03*
D18*
X159900000Y-103600000D03*
X159900000Y-101600000D03*
D19*
X159900000Y-99600000D03*
D20*
X159900000Y-105600000D03*
X159900000Y-97600000D03*
D21*
X109780000Y-75420000D03*
D12*
X111576051Y-77216051D03*
X113372102Y-79012102D03*
X115168154Y-80808154D03*
D18*
X161400000Y-88350000D03*
X161400000Y-86350000D03*
D19*
X161400000Y-84350000D03*
D20*
X161400000Y-90350000D03*
X161400000Y-82350000D03*
D11*
X132650000Y-100350000D03*
D12*
X132650000Y-97810000D03*
D18*
X161400000Y-119350000D03*
X161400000Y-117350000D03*
D19*
X161400000Y-115350000D03*
D20*
X161400000Y-121350000D03*
X161400000Y-113350000D03*
D22*
X142400000Y-126600000D03*
X137400000Y-126600000D03*
X146400000Y-95850000D03*
X145400000Y-111600000D03*
X149400000Y-111350000D03*
X122400000Y-136600000D03*
X142400000Y-76600000D03*
X131400000Y-113350000D03*
X143650000Y-95850000D03*
X167400000Y-81600000D03*
X156150000Y-111600000D03*
X136150000Y-99100000D03*
X167400000Y-86600000D03*
X117400000Y-141600000D03*
X122400000Y-141600000D03*
X131400000Y-89850000D03*
X169900000Y-94100000D03*
X167400000Y-116600000D03*
X131400000Y-93850000D03*
X137400000Y-76600000D03*
X167400000Y-91600000D03*
X169900000Y-99100000D03*
X139900000Y-95850000D03*
X167400000Y-121600000D03*
X132400000Y-126600000D03*
X169824666Y-111600000D03*
X131400000Y-102350000D03*
X132400000Y-76600000D03*
X139900000Y-101600000D03*
X133198008Y-83600000D03*
X169900000Y-104100000D03*
X146400000Y-101600000D03*
X143650000Y-101600000D03*
X169900000Y-109100000D03*
X112400000Y-141600000D03*
X150900000Y-103600000D03*
X122400000Y-71600000D03*
X137871303Y-105625000D03*
X153900000Y-105600000D03*
X151150000Y-101600000D03*
X133745170Y-104144966D03*
X165150000Y-79850000D03*
X133150000Y-103279935D03*
X122650000Y-131350000D03*
X145900000Y-125350000D03*
X147425000Y-124100000D03*
X135900000Y-85350000D03*
X135405504Y-82770496D03*
X136690222Y-105699630D03*
X136150000Y-106600000D03*
X149650000Y-104600000D03*
X134125000Y-105157070D03*
X133400000Y-118600000D03*
X158650000Y-123850000D03*
X133976992Y-92523008D03*
X149650000Y-97350000D03*
X149650000Y-90100000D03*
X138650000Y-97350000D03*
X145128706Y-91096294D03*
X144589493Y-113385509D03*
X154150000Y-118100000D03*
X153400000Y-85850000D03*
D23*
X153900000Y-107060000D02*
X156040000Y-109200000D01*
X137650000Y-98600000D02*
X137650000Y-105403697D01*
X137650000Y-105403697D02*
X137871303Y-105625000D01*
X153900000Y-105600000D02*
X153900000Y-107060000D01*
X132650000Y-87100000D02*
X132650000Y-93600000D01*
X132650000Y-93600000D02*
X137650000Y-98600000D01*
X130400000Y-86680000D02*
X132230000Y-86680000D01*
X132230000Y-86680000D02*
X132650000Y-87100000D01*
D24*
X133350000Y-104540136D02*
X133745170Y-104144966D01*
X133350000Y-116110000D02*
X133350000Y-104540136D01*
X151150000Y-101600000D02*
X150960000Y-101410000D01*
X130400000Y-119060000D02*
X133350000Y-116110000D01*
X150960000Y-101410000D02*
X150960000Y-93960000D01*
X165150000Y-89930000D02*
X161120000Y-93960000D01*
X165150000Y-79850000D02*
X165150000Y-89930000D01*
X133150000Y-103346167D02*
X133150000Y-103279935D01*
X132900000Y-103596167D02*
X133150000Y-103346167D01*
X132900000Y-114020000D02*
X132900000Y-103596167D01*
X130400000Y-116520000D02*
X132900000Y-114020000D01*
X142150000Y-105946396D02*
X142150000Y-109850000D01*
X142650000Y-94650000D02*
X142650000Y-105446396D01*
X146650000Y-114350000D02*
X146650000Y-124600000D01*
X146650000Y-124600000D02*
X145900000Y-125350000D01*
X142650000Y-105446396D02*
X142150000Y-105946396D01*
X123022000Y-131722000D02*
X122650000Y-131350000D01*
X123022000Y-133632000D02*
X123022000Y-131722000D01*
X143340000Y-93960000D02*
X142650000Y-94650000D01*
X142150000Y-109850000D02*
X146650000Y-114350000D01*
X144650000Y-109737810D02*
X147150000Y-112237810D01*
X147150000Y-112237810D02*
X147150000Y-123825000D01*
X145880000Y-93960000D02*
X144650000Y-95190000D01*
X147150000Y-123825000D02*
X147425000Y-124100000D01*
X144650000Y-95190000D02*
X144650000Y-109737810D01*
X135150000Y-90100000D02*
X135150000Y-86100000D01*
X137565218Y-92515218D02*
X135150000Y-90100000D01*
X138565218Y-92515218D02*
X137565218Y-92515218D01*
X140800000Y-93960000D02*
X139940000Y-93100000D01*
X139150000Y-93100000D02*
X138565218Y-92515218D01*
X139940000Y-93100000D02*
X139150000Y-93100000D01*
X135150000Y-86100000D02*
X135900000Y-85350000D01*
X138260000Y-93960000D02*
X138010000Y-93960000D01*
X134700000Y-83476000D02*
X135405504Y-82770496D01*
X138010000Y-93960000D02*
X134700000Y-90650000D01*
X134700000Y-90650000D02*
X134700000Y-83476000D01*
X131150000Y-79100000D02*
X134250000Y-82200000D01*
X134150000Y-91600000D02*
X135720000Y-93170000D01*
X135720000Y-93170000D02*
X135720000Y-93960000D01*
X117900000Y-79100000D02*
X131150000Y-79100000D01*
X134150000Y-89572792D02*
X134150000Y-91600000D01*
X111650000Y-60025000D02*
X111525000Y-59900000D01*
X134250000Y-82200000D02*
X134250000Y-89472792D01*
X111525000Y-72725000D02*
X117900000Y-79100000D01*
X111525000Y-59900000D02*
X111525000Y-72725000D01*
X134250000Y-89472792D02*
X134150000Y-89572792D01*
D23*
X136690222Y-101850222D02*
X136690222Y-105699630D01*
X132650000Y-97810000D02*
X136690222Y-101850222D01*
X132650000Y-100350000D02*
X135650000Y-103350000D01*
X135650000Y-103350000D02*
X135650000Y-106100000D01*
X135650000Y-106100000D02*
X136150000Y-106600000D01*
D24*
X133900000Y-105382070D02*
X134125000Y-105157070D01*
X133900000Y-118100000D02*
X133900000Y-105382070D01*
X149650000Y-104600000D02*
X148650000Y-103600000D01*
X148650000Y-94190000D02*
X148420000Y-93960000D01*
X148650000Y-103600000D02*
X148650000Y-94190000D01*
X133400000Y-118600000D02*
X133900000Y-118100000D01*
X158580000Y-109200000D02*
X158580000Y-123780000D01*
X158580000Y-123780000D02*
X158650000Y-123850000D01*
X132190000Y-84140000D02*
X133700000Y-85650000D01*
X133700000Y-85650000D02*
X133700000Y-92246016D01*
X130400000Y-84140000D02*
X132190000Y-84140000D01*
X133700000Y-92246016D02*
X133976992Y-92523008D01*
X135720000Y-109200000D02*
X138650000Y-106270000D01*
X149650000Y-90100000D02*
X149650000Y-97350000D01*
X138650000Y-106270000D02*
X138650000Y-97350000D01*
X142150000Y-105310000D02*
X142150000Y-93557595D01*
X142150000Y-93557595D02*
X144611301Y-91096294D01*
X144611301Y-91096294D02*
X145128706Y-91096294D01*
X138260000Y-109200000D02*
X142150000Y-105310000D01*
X140800000Y-109200000D02*
X144589493Y-112989493D01*
X144589493Y-112989493D02*
X144589493Y-113385509D01*
X152150000Y-110390000D02*
X150960000Y-109200000D01*
X152150000Y-116100000D02*
X154150000Y-118100000D01*
X152150000Y-116100000D02*
X152150000Y-110390000D01*
X153400000Y-85850000D02*
X152150000Y-87100000D01*
X152150000Y-87100000D02*
X152150000Y-107350000D01*
X153150000Y-108850000D02*
X153500000Y-109200000D01*
X152150000Y-107350000D02*
X153150000Y-108350000D01*
X153150000Y-108350000D02*
X153150000Y-108850000D01*
G04 #@! TA.AperFunction,Conductor*
G36*
X109761416Y-58145502D02*
G01*
X109807909Y-58199158D01*
X109818013Y-58269432D01*
X109794163Y-58327009D01*
X109774112Y-58353792D01*
X109774110Y-58353797D01*
X109723011Y-58490795D01*
X109723009Y-58490803D01*
X109716500Y-58551350D01*
X109716500Y-61248649D01*
X109723009Y-61309196D01*
X109723011Y-61309204D01*
X109774110Y-61446202D01*
X109774112Y-61446207D01*
X109861738Y-61563261D01*
X109978792Y-61650887D01*
X109978794Y-61650888D01*
X109978796Y-61650889D01*
X110037875Y-61672924D01*
X110115795Y-61701988D01*
X110115803Y-61701990D01*
X110176350Y-61708499D01*
X110176355Y-61708499D01*
X110176362Y-61708500D01*
X110765500Y-61708500D01*
X110833621Y-61728502D01*
X110880114Y-61782158D01*
X110891500Y-61834500D01*
X110891500Y-72662606D01*
X110891500Y-72787394D01*
X110915845Y-72909785D01*
X110963600Y-73025075D01*
X111032929Y-73128833D01*
X117407929Y-79503833D01*
X117496167Y-79592071D01*
X117599925Y-79661400D01*
X117715215Y-79709155D01*
X117837606Y-79733500D01*
X130835406Y-79733500D01*
X130903527Y-79753502D01*
X130924501Y-79770405D01*
X131180501Y-80026405D01*
X131214527Y-80088717D01*
X131209462Y-80159532D01*
X131166915Y-80216368D01*
X131100395Y-80241179D01*
X131091406Y-80241500D01*
X129501350Y-80241500D01*
X129440803Y-80248009D01*
X129440795Y-80248011D01*
X129303797Y-80299110D01*
X129303792Y-80299112D01*
X129186738Y-80386738D01*
X129099112Y-80503792D01*
X129099110Y-80503797D01*
X129048011Y-80640795D01*
X129048009Y-80640803D01*
X129041500Y-80701350D01*
X129041500Y-82498649D01*
X129048009Y-82559196D01*
X129048011Y-82559204D01*
X129099110Y-82696202D01*
X129099112Y-82696207D01*
X129186738Y-82813261D01*
X129303791Y-82900886D01*
X129303792Y-82900886D01*
X129303796Y-82900889D01*
X129421711Y-82944869D01*
X129478543Y-82987414D01*
X129503354Y-83053934D01*
X129488263Y-83123308D01*
X129466771Y-83152018D01*
X129363794Y-83254995D01*
X129238108Y-83427987D01*
X129141029Y-83618515D01*
X129141026Y-83618521D01*
X129074952Y-83821878D01*
X129074951Y-83821883D01*
X129074951Y-83821884D01*
X129041500Y-84033084D01*
X129041500Y-84246916D01*
X129074537Y-84455501D01*
X129074952Y-84458121D01*
X129141026Y-84661478D01*
X129141028Y-84661483D01*
X129214546Y-84805769D01*
X129238108Y-84852012D01*
X129269182Y-84894781D01*
X129363794Y-85025004D01*
X129363796Y-85025006D01*
X129363798Y-85025009D01*
X129514990Y-85176201D01*
X129514993Y-85176203D01*
X129514996Y-85176206D01*
X129687991Y-85301894D01*
X129687996Y-85301896D01*
X129689088Y-85302566D01*
X129689418Y-85302931D01*
X129691996Y-85304804D01*
X129691602Y-85305345D01*
X129736721Y-85355213D01*
X129748328Y-85425255D01*
X129720226Y-85490453D01*
X129691870Y-85515023D01*
X129691996Y-85515196D01*
X129689982Y-85516658D01*
X129689088Y-85517434D01*
X129687987Y-85518108D01*
X129514993Y-85643796D01*
X129514990Y-85643798D01*
X129363798Y-85794990D01*
X129363796Y-85794993D01*
X129238108Y-85967987D01*
X129141029Y-86158515D01*
X129141026Y-86158521D01*
X129074952Y-86361878D01*
X129074951Y-86361883D01*
X129074951Y-86361884D01*
X129041500Y-86573084D01*
X129041500Y-86786916D01*
X129068469Y-86957189D01*
X129074952Y-86998121D01*
X129109586Y-87104714D01*
X129141028Y-87201483D01*
X129238106Y-87392009D01*
X129363794Y-87565004D01*
X129363796Y-87565006D01*
X129363798Y-87565009D01*
X129514990Y-87716201D01*
X129514993Y-87716203D01*
X129514996Y-87716206D01*
X129687991Y-87841894D01*
X129878517Y-87938972D01*
X130081878Y-88005047D01*
X130081879Y-88005047D01*
X130081884Y-88005049D01*
X130293084Y-88038500D01*
X130293087Y-88038500D01*
X130506913Y-88038500D01*
X130506916Y-88038500D01*
X130718116Y-88005049D01*
X130921483Y-87938972D01*
X131112009Y-87841894D01*
X131285004Y-87716206D01*
X131436206Y-87565004D01*
X131490380Y-87490438D01*
X131494783Y-87487043D01*
X131497092Y-87481988D01*
X131522589Y-87465601D01*
X131546602Y-87447085D01*
X131553383Y-87445811D01*
X131556818Y-87443604D01*
X131592316Y-87438500D01*
X131765500Y-87438500D01*
X131833621Y-87458502D01*
X131880114Y-87512158D01*
X131891500Y-87564500D01*
X131891500Y-93674706D01*
X131902777Y-93731400D01*
X131920649Y-93821247D01*
X131977826Y-93959284D01*
X132060834Y-94083515D01*
X132060838Y-94083519D01*
X136854595Y-98877276D01*
X136888621Y-98939588D01*
X136891500Y-98966371D01*
X136891500Y-100674629D01*
X136871498Y-100742750D01*
X136817842Y-100789243D01*
X136747568Y-100799347D01*
X136682988Y-100769853D01*
X136676405Y-100763724D01*
X134029435Y-98116754D01*
X133995409Y-98054442D01*
X133994081Y-98007949D01*
X134008500Y-97916916D01*
X134008500Y-97703084D01*
X133975049Y-97491884D01*
X133908972Y-97288517D01*
X133811894Y-97097991D01*
X133686206Y-96924996D01*
X133686203Y-96924993D01*
X133686201Y-96924990D01*
X133535009Y-96773798D01*
X133535006Y-96773796D01*
X133535004Y-96773794D01*
X133362009Y-96648106D01*
X133171483Y-96551028D01*
X133171480Y-96551027D01*
X133171478Y-96551026D01*
X132968120Y-96484952D01*
X132968123Y-96484952D01*
X132914216Y-96476414D01*
X132756916Y-96451500D01*
X132543084Y-96451500D01*
X132331884Y-96484951D01*
X132331878Y-96484952D01*
X132128521Y-96551026D01*
X132128515Y-96551029D01*
X131937987Y-96648108D01*
X131764993Y-96773796D01*
X131764990Y-96773798D01*
X131613798Y-96924990D01*
X131613796Y-96924993D01*
X131488108Y-97097987D01*
X131391029Y-97288515D01*
X131391026Y-97288521D01*
X131324952Y-97491878D01*
X131324951Y-97491883D01*
X131324951Y-97491884D01*
X131291500Y-97703084D01*
X131291500Y-97916916D01*
X131324951Y-98128116D01*
X131324952Y-98128121D01*
X131391026Y-98331478D01*
X131391028Y-98331483D01*
X131488106Y-98522009D01*
X131613794Y-98695004D01*
X131613796Y-98695006D01*
X131613798Y-98695009D01*
X131716770Y-98797981D01*
X131750796Y-98860293D01*
X131745731Y-98931108D01*
X131703184Y-98987944D01*
X131671708Y-99005131D01*
X131553797Y-99049110D01*
X131553792Y-99049112D01*
X131436738Y-99136738D01*
X131349112Y-99253792D01*
X131349110Y-99253797D01*
X131298011Y-99390795D01*
X131298009Y-99390803D01*
X131291500Y-99451350D01*
X131291500Y-101248649D01*
X131298009Y-101309196D01*
X131298011Y-101309204D01*
X131349110Y-101446202D01*
X131349112Y-101446207D01*
X131436738Y-101563261D01*
X131553792Y-101650887D01*
X131553794Y-101650888D01*
X131553796Y-101650889D01*
X131606796Y-101670657D01*
X131690795Y-101701988D01*
X131690803Y-101701990D01*
X131751350Y-101708499D01*
X131751355Y-101708499D01*
X131751362Y-101708500D01*
X132883629Y-101708500D01*
X132951750Y-101728502D01*
X132972724Y-101745405D01*
X133394255Y-102166936D01*
X133428281Y-102229248D01*
X133423216Y-102300063D01*
X133380669Y-102356899D01*
X133314149Y-102381710D01*
X133280578Y-102379610D01*
X133239481Y-102371435D01*
X133239479Y-102371435D01*
X133060521Y-102371435D01*
X133060518Y-102371435D01*
X132929771Y-102397442D01*
X132885000Y-102406348D01*
X132884999Y-102406348D01*
X132884996Y-102406349D01*
X132719662Y-102474834D01*
X132570869Y-102574254D01*
X132570862Y-102574259D01*
X132444324Y-102700797D01*
X132444319Y-102700804D01*
X132344899Y-102849597D01*
X132276414Y-103014931D01*
X132241500Y-103190453D01*
X132241500Y-103369416D01*
X132245852Y-103391292D01*
X132265457Y-103489855D01*
X132265459Y-103527449D01*
X132267107Y-103527612D01*
X132266500Y-103533776D01*
X132266500Y-113705405D01*
X132246498Y-113773526D01*
X132229595Y-113794500D01*
X130856513Y-115167581D01*
X130794201Y-115201607D01*
X130728481Y-115198319D01*
X130718116Y-115194951D01*
X130506916Y-115161500D01*
X130293084Y-115161500D01*
X130081884Y-115194951D01*
X130081878Y-115194952D01*
X129878521Y-115261026D01*
X129878515Y-115261029D01*
X129687987Y-115358108D01*
X129514993Y-115483796D01*
X129514990Y-115483798D01*
X129363798Y-115634990D01*
X129363796Y-115634993D01*
X129238108Y-115807987D01*
X129141029Y-115998515D01*
X129141026Y-115998521D01*
X129074952Y-116201878D01*
X129074952Y-116201881D01*
X129074951Y-116201884D01*
X129041500Y-116413084D01*
X129041500Y-116626916D01*
X129059856Y-116742810D01*
X129074952Y-116838121D01*
X129141026Y-117041478D01*
X129141028Y-117041483D01*
X129238106Y-117232009D01*
X129363794Y-117405004D01*
X129363796Y-117405006D01*
X129363798Y-117405009D01*
X129514990Y-117556201D01*
X129514993Y-117556203D01*
X129514996Y-117556206D01*
X129687991Y-117681894D01*
X129687996Y-117681896D01*
X129689088Y-117682566D01*
X129689418Y-117682931D01*
X129691996Y-117684804D01*
X129691602Y-117685345D01*
X129736721Y-117735213D01*
X129748328Y-117805255D01*
X129720226Y-117870453D01*
X129691870Y-117895023D01*
X129691996Y-117895196D01*
X129689982Y-117896658D01*
X129689088Y-117897434D01*
X129687987Y-117898108D01*
X129514993Y-118023796D01*
X129514990Y-118023798D01*
X129363798Y-118174990D01*
X129363796Y-118174993D01*
X129238108Y-118347987D01*
X129141029Y-118538515D01*
X129141026Y-118538521D01*
X129074952Y-118741878D01*
X129074952Y-118741881D01*
X129074951Y-118741884D01*
X129041500Y-118953084D01*
X129041500Y-119166916D01*
X129070498Y-119349999D01*
X129074952Y-119378121D01*
X129141026Y-119581478D01*
X129141028Y-119581483D01*
X129238106Y-119772009D01*
X129363794Y-119945004D01*
X129363796Y-119945006D01*
X129363798Y-119945009D01*
X129467159Y-120048370D01*
X129501185Y-120110682D01*
X129496120Y-120181497D01*
X129453573Y-120238333D01*
X129422097Y-120255521D01*
X129304033Y-120299556D01*
X129187095Y-120387095D01*
X129099555Y-120504034D01*
X129099555Y-120504035D01*
X129048505Y-120640906D01*
X129042000Y-120701402D01*
X129042000Y-121346000D01*
X129969297Y-121346000D01*
X129934075Y-121407007D01*
X129900000Y-121534174D01*
X129900000Y-121665826D01*
X129934075Y-121792993D01*
X129969297Y-121854000D01*
X129042000Y-121854000D01*
X129042000Y-122498597D01*
X129048505Y-122559093D01*
X129099555Y-122695964D01*
X129099555Y-122695965D01*
X129187095Y-122812904D01*
X129304034Y-122900444D01*
X129440906Y-122951494D01*
X129501402Y-122957999D01*
X129501415Y-122958000D01*
X130146000Y-122958000D01*
X130146000Y-122030702D01*
X130207007Y-122065925D01*
X130334174Y-122100000D01*
X130465826Y-122100000D01*
X130592993Y-122065925D01*
X130654000Y-122030702D01*
X130654000Y-122958000D01*
X131298585Y-122958000D01*
X131298597Y-122957999D01*
X131359093Y-122951494D01*
X131495964Y-122900444D01*
X131495965Y-122900444D01*
X131612904Y-122812904D01*
X131700444Y-122695965D01*
X131700444Y-122695964D01*
X131751494Y-122559093D01*
X131757999Y-122498597D01*
X131758000Y-122498585D01*
X131758000Y-121854000D01*
X130830703Y-121854000D01*
X130865925Y-121792993D01*
X130900000Y-121665826D01*
X130900000Y-121534174D01*
X130865925Y-121407007D01*
X130830703Y-121346000D01*
X131758000Y-121346000D01*
X131758000Y-120701414D01*
X131757999Y-120701402D01*
X131751494Y-120640906D01*
X131700444Y-120504035D01*
X131700444Y-120504034D01*
X131612904Y-120387095D01*
X131495965Y-120299555D01*
X131377903Y-120255521D01*
X131321067Y-120212974D01*
X131296256Y-120146454D01*
X131311347Y-120077080D01*
X131332837Y-120048372D01*
X131436206Y-119945004D01*
X131561894Y-119772009D01*
X131658972Y-119581483D01*
X131725049Y-119378116D01*
X131758500Y-119166916D01*
X131758500Y-118953084D01*
X131725049Y-118741884D01*
X131721679Y-118731515D01*
X131719652Y-118660549D01*
X131752416Y-118603486D01*
X133051406Y-117304496D01*
X133113717Y-117270472D01*
X133184533Y-117275537D01*
X133241368Y-117318084D01*
X133266179Y-117384604D01*
X133266500Y-117393593D01*
X133266500Y-117596850D01*
X133246498Y-117664971D01*
X133192842Y-117711464D01*
X133165084Y-117720428D01*
X133135005Y-117726411D01*
X133134997Y-117726414D01*
X133113755Y-117735213D01*
X133008113Y-117778972D01*
X132969662Y-117794899D01*
X132820869Y-117894319D01*
X132820862Y-117894324D01*
X132694324Y-118020862D01*
X132694319Y-118020869D01*
X132599756Y-118162394D01*
X132594898Y-118169664D01*
X132580716Y-118203902D01*
X132526414Y-118334996D01*
X132491500Y-118510518D01*
X132491500Y-118689481D01*
X132526414Y-118865003D01*
X132543183Y-118905486D01*
X132594898Y-119030336D01*
X132694322Y-119179135D01*
X132820865Y-119305678D01*
X132969664Y-119405102D01*
X133135000Y-119473587D01*
X133310521Y-119508500D01*
X133310522Y-119508500D01*
X133489478Y-119508500D01*
X133489479Y-119508500D01*
X133665000Y-119473587D01*
X133830336Y-119405102D01*
X133979135Y-119305678D01*
X134105678Y-119179135D01*
X134205102Y-119030336D01*
X134273587Y-118865000D01*
X134308500Y-118689479D01*
X134308500Y-118639595D01*
X134328502Y-118571474D01*
X134345405Y-118550499D01*
X134392072Y-118503833D01*
X134461401Y-118400075D01*
X134509155Y-118284785D01*
X134533500Y-118162394D01*
X134533500Y-118037606D01*
X134533500Y-110168189D01*
X134553502Y-110100068D01*
X134607158Y-110053575D01*
X134677432Y-110043471D01*
X134742012Y-110072965D01*
X134748595Y-110079094D01*
X134867564Y-110198063D01*
X134867567Y-110198065D01*
X134867570Y-110198068D01*
X135034197Y-110319129D01*
X135217710Y-110412634D01*
X135413592Y-110476280D01*
X135617019Y-110508500D01*
X135617022Y-110508500D01*
X135822978Y-110508500D01*
X135822981Y-110508500D01*
X136026408Y-110476280D01*
X136222290Y-110412634D01*
X136405803Y-110319129D01*
X136572430Y-110198068D01*
X136718068Y-110052430D01*
X136839129Y-109885803D01*
X136877734Y-109810034D01*
X136926481Y-109758422D01*
X136995396Y-109741356D01*
X137062598Y-109764257D01*
X137102264Y-109810034D01*
X137140871Y-109885803D01*
X137261932Y-110052430D01*
X137261934Y-110052432D01*
X137261936Y-110052435D01*
X137407564Y-110198063D01*
X137407567Y-110198065D01*
X137407570Y-110198068D01*
X137574197Y-110319129D01*
X137757710Y-110412634D01*
X137953592Y-110476280D01*
X138157019Y-110508500D01*
X138157022Y-110508500D01*
X138362978Y-110508500D01*
X138362981Y-110508500D01*
X138566408Y-110476280D01*
X138762290Y-110412634D01*
X138945803Y-110319129D01*
X139112430Y-110198068D01*
X139258068Y-110052430D01*
X139379129Y-109885803D01*
X139417734Y-109810034D01*
X139466481Y-109758422D01*
X139535396Y-109741356D01*
X139602598Y-109764257D01*
X139642264Y-109810034D01*
X139680871Y-109885803D01*
X139801932Y-110052430D01*
X139801934Y-110052432D01*
X139801936Y-110052435D01*
X139947564Y-110198063D01*
X139947567Y-110198065D01*
X139947570Y-110198068D01*
X140114197Y-110319129D01*
X140297710Y-110412634D01*
X140493592Y-110476280D01*
X140697019Y-110508500D01*
X140697022Y-110508500D01*
X140902978Y-110508500D01*
X140902981Y-110508500D01*
X141106408Y-110476280D01*
X141106411Y-110476278D01*
X141106853Y-110476209D01*
X141177264Y-110485309D01*
X141215659Y-110511563D01*
X143688211Y-112984115D01*
X143722237Y-113046427D01*
X143717369Y-113114477D01*
X143717705Y-113114579D01*
X143717256Y-113116056D01*
X143717172Y-113117242D01*
X143715973Y-113120288D01*
X143715906Y-113120508D01*
X143680993Y-113296027D01*
X143680993Y-113296030D01*
X143680993Y-113474988D01*
X143715906Y-113650509D01*
X143784391Y-113815845D01*
X143883815Y-113964644D01*
X144010358Y-114091187D01*
X144159157Y-114190611D01*
X144324493Y-114259096D01*
X144500014Y-114294009D01*
X144500015Y-114294009D01*
X144678971Y-114294009D01*
X144678972Y-114294009D01*
X144854493Y-114259096D01*
X145019829Y-114190611D01*
X145168628Y-114091187D01*
X145242863Y-114016951D01*
X145305171Y-113982929D01*
X145375987Y-113987993D01*
X145421050Y-114016954D01*
X145979595Y-114575499D01*
X146013621Y-114637811D01*
X146016500Y-114664594D01*
X146016500Y-124285406D01*
X146007716Y-124315321D01*
X146001088Y-124345791D01*
X145997273Y-124350886D01*
X145996498Y-124353527D01*
X145979595Y-124374501D01*
X145949501Y-124404595D01*
X145887189Y-124438621D01*
X145860406Y-124441500D01*
X145810518Y-124441500D01*
X145679771Y-124467507D01*
X145635000Y-124476413D01*
X145634999Y-124476413D01*
X145634996Y-124476414D01*
X145469662Y-124544899D01*
X145320869Y-124644319D01*
X145320862Y-124644324D01*
X145194324Y-124770862D01*
X145194319Y-124770869D01*
X145094899Y-124919662D01*
X145026414Y-125084996D01*
X144991500Y-125260518D01*
X144991500Y-125439481D01*
X145007134Y-125518075D01*
X145026413Y-125615000D01*
X145094898Y-125780336D01*
X145194322Y-125929135D01*
X145320865Y-126055678D01*
X145469664Y-126155102D01*
X145635000Y-126223587D01*
X145810521Y-126258500D01*
X145810522Y-126258500D01*
X145989478Y-126258500D01*
X145989479Y-126258500D01*
X146165000Y-126223587D01*
X146330336Y-126155102D01*
X146479135Y-126055678D01*
X146574905Y-125959908D01*
X146637217Y-125925882D01*
X146708032Y-125930947D01*
X146764868Y-125973494D01*
X146789679Y-126040014D01*
X146790000Y-126049003D01*
X146790000Y-126090873D01*
X146823440Y-126302003D01*
X146889490Y-126505286D01*
X146889493Y-126505292D01*
X146986535Y-126695748D01*
X146986536Y-126695750D01*
X147024620Y-126748167D01*
X147024621Y-126748168D01*
X147663841Y-126108947D01*
X147682075Y-126176993D01*
X147747901Y-126291007D01*
X147840993Y-126384099D01*
X147955007Y-126449925D01*
X148023051Y-126468157D01*
X147383831Y-127107378D01*
X147436249Y-127145463D01*
X147436251Y-127145464D01*
X147626707Y-127242506D01*
X147626713Y-127242509D01*
X147829996Y-127308559D01*
X148041126Y-127342000D01*
X148254874Y-127342000D01*
X148466003Y-127308559D01*
X148669286Y-127242509D01*
X148669292Y-127242506D01*
X148859750Y-127145463D01*
X148912167Y-127107378D01*
X148912167Y-127107376D01*
X148272948Y-126468157D01*
X148340993Y-126449925D01*
X148455007Y-126384099D01*
X148548099Y-126291007D01*
X148613925Y-126176993D01*
X148632157Y-126108948D01*
X149271376Y-126748167D01*
X149271378Y-126748167D01*
X149309463Y-126695750D01*
X149310562Y-126693958D01*
X149311158Y-126693418D01*
X149312377Y-126691741D01*
X149312729Y-126691996D01*
X149363206Y-126646322D01*
X149433246Y-126634710D01*
X149498446Y-126662808D01*
X149523559Y-126691788D01*
X149523624Y-126691742D01*
X149524165Y-126692487D01*
X149525433Y-126693950D01*
X149526535Y-126695749D01*
X149564620Y-126748167D01*
X149564621Y-126748168D01*
X150203841Y-126108947D01*
X150222075Y-126176993D01*
X150287901Y-126291007D01*
X150380993Y-126384099D01*
X150495007Y-126449925D01*
X150563051Y-126468157D01*
X149923831Y-127107378D01*
X149976249Y-127145463D01*
X149976251Y-127145464D01*
X150166707Y-127242506D01*
X150166713Y-127242509D01*
X150369996Y-127308559D01*
X150581126Y-127342000D01*
X150794874Y-127342000D01*
X151006003Y-127308559D01*
X151209286Y-127242509D01*
X151209292Y-127242506D01*
X151399750Y-127145463D01*
X151452167Y-127107378D01*
X151452167Y-127107376D01*
X150812948Y-126468157D01*
X150880993Y-126449925D01*
X150995007Y-126384099D01*
X151088099Y-126291007D01*
X151153925Y-126176993D01*
X151172157Y-126108948D01*
X151811376Y-126748167D01*
X151811378Y-126748167D01*
X151849463Y-126695750D01*
X151850562Y-126693958D01*
X151851158Y-126693418D01*
X151852377Y-126691741D01*
X151852729Y-126691996D01*
X151903206Y-126646322D01*
X151973246Y-126634710D01*
X152038446Y-126662808D01*
X152063559Y-126691788D01*
X152063624Y-126691742D01*
X152064165Y-126692487D01*
X152065433Y-126693950D01*
X152066535Y-126695749D01*
X152104620Y-126748167D01*
X152104621Y-126748168D01*
X152743841Y-126108947D01*
X152762075Y-126176993D01*
X152827901Y-126291007D01*
X152920993Y-126384099D01*
X153035007Y-126449925D01*
X153103051Y-126468157D01*
X152463831Y-127107378D01*
X152516249Y-127145463D01*
X152516251Y-127145464D01*
X152706707Y-127242506D01*
X152706713Y-127242509D01*
X152909996Y-127308559D01*
X153121126Y-127342000D01*
X153334874Y-127342000D01*
X153546003Y-127308559D01*
X153749286Y-127242509D01*
X153749292Y-127242506D01*
X153939750Y-127145463D01*
X153992167Y-127107378D01*
X153992167Y-127107376D01*
X153352948Y-126468157D01*
X153420993Y-126449925D01*
X153535007Y-126384099D01*
X153628099Y-126291007D01*
X153693925Y-126176993D01*
X153712157Y-126108948D01*
X154381794Y-126778585D01*
X154415820Y-126840897D01*
X154412030Y-126901471D01*
X154416505Y-126943093D01*
X154467555Y-127079964D01*
X154467555Y-127079965D01*
X154555095Y-127196904D01*
X154672034Y-127284444D01*
X154808906Y-127335494D01*
X154869402Y-127341999D01*
X154869415Y-127342000D01*
X155514000Y-127342000D01*
X155514000Y-126414702D01*
X155575007Y-126449925D01*
X155702174Y-126484000D01*
X155833826Y-126484000D01*
X155960993Y-126449925D01*
X156022000Y-126414702D01*
X156022000Y-127342000D01*
X156666585Y-127342000D01*
X156666597Y-127341999D01*
X156727093Y-127335494D01*
X156863964Y-127284444D01*
X156863965Y-127284444D01*
X156980904Y-127196904D01*
X157068444Y-127079965D01*
X157068444Y-127079964D01*
X157119494Y-126943093D01*
X157125999Y-126882597D01*
X157126000Y-126882585D01*
X157126000Y-126238000D01*
X156198703Y-126238000D01*
X156233925Y-126176993D01*
X156268000Y-126049826D01*
X156268000Y-125918174D01*
X156233925Y-125791007D01*
X156198703Y-125730000D01*
X157126000Y-125730000D01*
X157126000Y-125085414D01*
X157125999Y-125085402D01*
X157119494Y-125024906D01*
X157068444Y-124888035D01*
X157068444Y-124888034D01*
X156980904Y-124771095D01*
X156863965Y-124683555D01*
X156727093Y-124632505D01*
X156666597Y-124626000D01*
X156022000Y-124626000D01*
X156022000Y-125553297D01*
X155960993Y-125518075D01*
X155833826Y-125484000D01*
X155702174Y-125484000D01*
X155575007Y-125518075D01*
X155514000Y-125553297D01*
X155514000Y-124626000D01*
X154869402Y-124626000D01*
X154808906Y-124632505D01*
X154672035Y-124683555D01*
X154672034Y-124683555D01*
X154555095Y-124771095D01*
X154467555Y-124888034D01*
X154467555Y-124888035D01*
X154416505Y-125024905D01*
X154411981Y-125066978D01*
X154415319Y-125129301D01*
X154381794Y-125189414D01*
X153712157Y-125859051D01*
X153693925Y-125791007D01*
X153628099Y-125676993D01*
X153535007Y-125583901D01*
X153420993Y-125518075D01*
X153352947Y-125499841D01*
X153992168Y-124860621D01*
X153992167Y-124860620D01*
X153939750Y-124822536D01*
X153939748Y-124822535D01*
X153749292Y-124725493D01*
X153749286Y-124725490D01*
X153546003Y-124659440D01*
X153334874Y-124626000D01*
X153121126Y-124626000D01*
X152909996Y-124659440D01*
X152706713Y-124725490D01*
X152706707Y-124725493D01*
X152516253Y-124822534D01*
X152463831Y-124860621D01*
X152463831Y-124860622D01*
X153103051Y-125499842D01*
X153035007Y-125518075D01*
X152920993Y-125583901D01*
X152827901Y-125676993D01*
X152762075Y-125791007D01*
X152743842Y-125859051D01*
X152104622Y-125219831D01*
X152104621Y-125219831D01*
X152066522Y-125272269D01*
X152065422Y-125274065D01*
X152064827Y-125274603D01*
X152063624Y-125276259D01*
X152063275Y-125276006D01*
X152012768Y-125321689D01*
X151942725Y-125333286D01*
X151877531Y-125305174D01*
X151852440Y-125276211D01*
X151852376Y-125276258D01*
X151851830Y-125275506D01*
X151850563Y-125274044D01*
X151849462Y-125272248D01*
X151811378Y-125219831D01*
X151172157Y-125859051D01*
X151153925Y-125791007D01*
X151088099Y-125676993D01*
X150995007Y-125583901D01*
X150880993Y-125518075D01*
X150812947Y-125499841D01*
X151452168Y-124860621D01*
X151452167Y-124860620D01*
X151399750Y-124822536D01*
X151399748Y-124822535D01*
X151209292Y-124725493D01*
X151209286Y-124725490D01*
X151006003Y-124659440D01*
X150794874Y-124626000D01*
X150581126Y-124626000D01*
X150369996Y-124659440D01*
X150166713Y-124725490D01*
X150166707Y-124725493D01*
X149976253Y-124822534D01*
X149923831Y-124860621D01*
X149923831Y-124860622D01*
X150563051Y-125499842D01*
X150495007Y-125518075D01*
X150380993Y-125583901D01*
X150287901Y-125676993D01*
X150222075Y-125791007D01*
X150203842Y-125859051D01*
X149564622Y-125219831D01*
X149564621Y-125219831D01*
X149526522Y-125272269D01*
X149525422Y-125274065D01*
X149524827Y-125274603D01*
X149523624Y-125276259D01*
X149523275Y-125276006D01*
X149472768Y-125321689D01*
X149402725Y-125333286D01*
X149337531Y-125305174D01*
X149312440Y-125276211D01*
X149312376Y-125276258D01*
X149311830Y-125275506D01*
X149310563Y-125274044D01*
X149309462Y-125272248D01*
X149271378Y-125219831D01*
X148632157Y-125859051D01*
X148613925Y-125791007D01*
X148548099Y-125676993D01*
X148455007Y-125583901D01*
X148340993Y-125518075D01*
X148272947Y-125499841D01*
X148912168Y-124860621D01*
X148912167Y-124860620D01*
X148859750Y-124822536D01*
X148859748Y-124822535D01*
X148669292Y-124725493D01*
X148669286Y-124725490D01*
X148466004Y-124659440D01*
X148352303Y-124641431D01*
X148288150Y-124611018D01*
X148250624Y-124550749D01*
X148251638Y-124479760D01*
X148255607Y-124468763D01*
X148290123Y-124385432D01*
X148298587Y-124365000D01*
X148333500Y-124189479D01*
X148333500Y-124010521D01*
X148298587Y-123835000D01*
X148230102Y-123669664D01*
X148130678Y-123520865D01*
X148004135Y-123394322D01*
X147876359Y-123308945D01*
X147855335Y-123294897D01*
X147850100Y-123292099D01*
X147799453Y-123242345D01*
X147783500Y-123180979D01*
X147783500Y-112175417D01*
X147783499Y-112175413D01*
X147759155Y-112053025D01*
X147711400Y-111937735D01*
X147642071Y-111833977D01*
X147553833Y-111745739D01*
X146397890Y-110589796D01*
X146363864Y-110527484D01*
X146368929Y-110456669D01*
X146411476Y-110399833D01*
X146429774Y-110388439D01*
X146565803Y-110319129D01*
X146732430Y-110198068D01*
X146878068Y-110052430D01*
X146999129Y-109885803D01*
X147037734Y-109810034D01*
X147086481Y-109758422D01*
X147155396Y-109741356D01*
X147222598Y-109764257D01*
X147262264Y-109810034D01*
X147300871Y-109885803D01*
X147421932Y-110052430D01*
X147421934Y-110052432D01*
X147421936Y-110052435D01*
X147567564Y-110198063D01*
X147567567Y-110198065D01*
X147567570Y-110198068D01*
X147734197Y-110319129D01*
X147917710Y-110412634D01*
X148113592Y-110476280D01*
X148317019Y-110508500D01*
X148317022Y-110508500D01*
X148522978Y-110508500D01*
X148522981Y-110508500D01*
X148726408Y-110476280D01*
X148922290Y-110412634D01*
X149105803Y-110319129D01*
X149272430Y-110198068D01*
X149418068Y-110052430D01*
X149539129Y-109885803D01*
X149577734Y-109810034D01*
X149626481Y-109758422D01*
X149695396Y-109741356D01*
X149762598Y-109764257D01*
X149802264Y-109810034D01*
X149840871Y-109885803D01*
X149961932Y-110052430D01*
X149961934Y-110052432D01*
X149961936Y-110052435D01*
X150107564Y-110198063D01*
X150107567Y-110198065D01*
X150107570Y-110198068D01*
X150274197Y-110319129D01*
X150457710Y-110412634D01*
X150653592Y-110476280D01*
X150857019Y-110508500D01*
X150857022Y-110508500D01*
X151062978Y-110508500D01*
X151062981Y-110508500D01*
X151266408Y-110476280D01*
X151266411Y-110476278D01*
X151266853Y-110476209D01*
X151272366Y-110476921D01*
X151277575Y-110474979D01*
X151307201Y-110481423D01*
X151337264Y-110485309D01*
X151342956Y-110489201D01*
X151346949Y-110490070D01*
X151375659Y-110511563D01*
X151479595Y-110615499D01*
X151513621Y-110677811D01*
X151516500Y-110704594D01*
X151516500Y-116162396D01*
X151524354Y-116201878D01*
X151540845Y-116284785D01*
X151588600Y-116400075D01*
X151657929Y-116503833D01*
X151657931Y-116503835D01*
X153204595Y-118050499D01*
X153238621Y-118112811D01*
X153241500Y-118139594D01*
X153241500Y-118189479D01*
X153276413Y-118365000D01*
X153344898Y-118530336D01*
X153444322Y-118679135D01*
X153570865Y-118805678D01*
X153719664Y-118905102D01*
X153885000Y-118973587D01*
X154060521Y-119008500D01*
X154060522Y-119008500D01*
X154239478Y-119008500D01*
X154239479Y-119008500D01*
X154415000Y-118973587D01*
X154580336Y-118905102D01*
X154729135Y-118805678D01*
X154855678Y-118679135D01*
X154955102Y-118530336D01*
X155023587Y-118365000D01*
X155058500Y-118189479D01*
X155058500Y-118010521D01*
X155023587Y-117835000D01*
X154955102Y-117669664D01*
X154855678Y-117520865D01*
X154729135Y-117394322D01*
X154580336Y-117294898D01*
X154428510Y-117232009D01*
X154415003Y-117226414D01*
X154415001Y-117226413D01*
X154415000Y-117226413D01*
X154326645Y-117208838D01*
X154239481Y-117191500D01*
X154239479Y-117191500D01*
X154189594Y-117191500D01*
X154121473Y-117171498D01*
X154100499Y-117154595D01*
X152820405Y-115874501D01*
X152786379Y-115812189D01*
X152783500Y-115785406D01*
X152783500Y-110509101D01*
X152803502Y-110440980D01*
X152857158Y-110394487D01*
X152927432Y-110384383D01*
X152966701Y-110396834D01*
X152997710Y-110412634D01*
X153193592Y-110476280D01*
X153397019Y-110508500D01*
X153397022Y-110508500D01*
X153602978Y-110508500D01*
X153602981Y-110508500D01*
X153806408Y-110476280D01*
X154002290Y-110412634D01*
X154185803Y-110319129D01*
X154352430Y-110198068D01*
X154498068Y-110052430D01*
X154619129Y-109885803D01*
X154657734Y-109810034D01*
X154706481Y-109758422D01*
X154775396Y-109741356D01*
X154842598Y-109764257D01*
X154882264Y-109810034D01*
X154920871Y-109885803D01*
X155041932Y-110052430D01*
X155041934Y-110052432D01*
X155041936Y-110052435D01*
X155187564Y-110198063D01*
X155187567Y-110198065D01*
X155187570Y-110198068D01*
X155354197Y-110319129D01*
X155537710Y-110412634D01*
X155733592Y-110476280D01*
X155937019Y-110508500D01*
X155937022Y-110508500D01*
X156142978Y-110508500D01*
X156142981Y-110508500D01*
X156346408Y-110476280D01*
X156542290Y-110412634D01*
X156725803Y-110319129D01*
X156892430Y-110198068D01*
X157038068Y-110052430D01*
X157159129Y-109885803D01*
X157197734Y-109810034D01*
X157246481Y-109758422D01*
X157315396Y-109741356D01*
X157382598Y-109764257D01*
X157422264Y-109810034D01*
X157460871Y-109885803D01*
X157581932Y-110052430D01*
X157581934Y-110052432D01*
X157581936Y-110052435D01*
X157727564Y-110198063D01*
X157727567Y-110198065D01*
X157727570Y-110198068D01*
X157894197Y-110319129D01*
X157894204Y-110319133D01*
X157894560Y-110319391D01*
X157937915Y-110375613D01*
X157946500Y-110421328D01*
X157946500Y-123229383D01*
X157926498Y-123297504D01*
X157925266Y-123299384D01*
X157844898Y-123419663D01*
X157776414Y-123584996D01*
X157741500Y-123760518D01*
X157741500Y-123760521D01*
X157741500Y-123939479D01*
X157776413Y-124115000D01*
X157844898Y-124280336D01*
X157944322Y-124429135D01*
X158070865Y-124555678D01*
X158219664Y-124655102D01*
X158385000Y-124723587D01*
X158560521Y-124758500D01*
X158560522Y-124758500D01*
X158739478Y-124758500D01*
X158739479Y-124758500D01*
X158915000Y-124723587D01*
X159080336Y-124655102D01*
X159229135Y-124555678D01*
X159355678Y-124429135D01*
X159455102Y-124280336D01*
X159523587Y-124115000D01*
X159558500Y-123939479D01*
X159558500Y-123760521D01*
X159523587Y-123585000D01*
X159455102Y-123419664D01*
X159355678Y-123270865D01*
X159250404Y-123165591D01*
X159216379Y-123103279D01*
X159213500Y-123076496D01*
X159213500Y-113250954D01*
X160141500Y-113250954D01*
X160141500Y-113449046D01*
X160172488Y-113644700D01*
X160233702Y-113833097D01*
X160312626Y-113987993D01*
X160323636Y-114009601D01*
X160440071Y-114169860D01*
X160580135Y-114309924D01*
X160580138Y-114309926D01*
X160580142Y-114309930D01*
X160617745Y-114337250D01*
X160630072Y-114346206D01*
X160673425Y-114402429D01*
X160679500Y-114473165D01*
X160646368Y-114535957D01*
X160645106Y-114537237D01*
X160554483Y-114627860D01*
X160451928Y-114769015D01*
X160372713Y-114924482D01*
X160372710Y-114924488D01*
X160344630Y-115010912D01*
X160318795Y-115090426D01*
X160291500Y-115262759D01*
X160291500Y-115437241D01*
X160318795Y-115609574D01*
X160372712Y-115775516D01*
X160451926Y-115930981D01*
X160554483Y-116072139D01*
X160554485Y-116072141D01*
X160554487Y-116072144D01*
X160677855Y-116195512D01*
X160677858Y-116195514D01*
X160677861Y-116195517D01*
X160707653Y-116217162D01*
X160751007Y-116273384D01*
X160757082Y-116344120D01*
X160723951Y-116406912D01*
X160707654Y-116421033D01*
X160645288Y-116466345D01*
X160645282Y-116466350D01*
X160516350Y-116595282D01*
X160516348Y-116595285D01*
X160409164Y-116742810D01*
X160326374Y-116905293D01*
X160270027Y-117078711D01*
X160270026Y-117078716D01*
X160270026Y-117078717D01*
X160241500Y-117258824D01*
X160241500Y-117441176D01*
X160267852Y-117607558D01*
X160270027Y-117621288D01*
X160326374Y-117794706D01*
X160326375Y-117794709D01*
X160326376Y-117794710D01*
X160409162Y-117957186D01*
X160516346Y-118104712D01*
X160516348Y-118104714D01*
X160516350Y-118104717D01*
X160645282Y-118233649D01*
X160645285Y-118233651D01*
X160645288Y-118233654D01*
X160723541Y-118290508D01*
X160724828Y-118291443D01*
X160768182Y-118347665D01*
X160770137Y-118360928D01*
X161359209Y-118950000D01*
X161347339Y-118950000D01*
X161245606Y-118977259D01*
X161154394Y-119029920D01*
X161079920Y-119104394D01*
X161027259Y-119195606D01*
X161000000Y-119297339D01*
X161000000Y-119309209D01*
X160419804Y-118729013D01*
X160419803Y-118729014D01*
X160409591Y-118743072D01*
X160326840Y-118905480D01*
X160326837Y-118905486D01*
X160270515Y-119078828D01*
X160242000Y-119258866D01*
X160242000Y-119441133D01*
X160270515Y-119621171D01*
X160326837Y-119794513D01*
X160326840Y-119794519D01*
X160409588Y-119956923D01*
X160419803Y-119970984D01*
X161000000Y-119390788D01*
X161000000Y-119402661D01*
X161027259Y-119504394D01*
X161079920Y-119595606D01*
X161154394Y-119670080D01*
X161245606Y-119722741D01*
X161347339Y-119750000D01*
X161359210Y-119750000D01*
X160948556Y-120160652D01*
X160916665Y-120183822D01*
X160740401Y-120273634D01*
X160580139Y-120390071D01*
X160440071Y-120530139D01*
X160323636Y-120690398D01*
X160323634Y-120690402D01*
X160233702Y-120866903D01*
X160172488Y-121055300D01*
X160141500Y-121250954D01*
X160141500Y-121449046D01*
X160172488Y-121644700D01*
X160233702Y-121833097D01*
X160318794Y-122000099D01*
X160323636Y-122009601D01*
X160440071Y-122169860D01*
X160580139Y-122309928D01*
X160580142Y-122309930D01*
X160740402Y-122426366D01*
X160916903Y-122516298D01*
X161105300Y-122577512D01*
X161300954Y-122608500D01*
X161300957Y-122608500D01*
X161499043Y-122608500D01*
X161499046Y-122608500D01*
X161694700Y-122577512D01*
X161883097Y-122516298D01*
X162059598Y-122426366D01*
X162219858Y-122309930D01*
X162359930Y-122169858D01*
X162476366Y-122009598D01*
X162566298Y-121833097D01*
X162627512Y-121644700D01*
X162658500Y-121449046D01*
X162658500Y-121250954D01*
X162627512Y-121055300D01*
X162566298Y-120866903D01*
X162476366Y-120690402D01*
X162359930Y-120530142D01*
X162359928Y-120530139D01*
X162219860Y-120390071D01*
X162059601Y-120273636D01*
X162059600Y-120273635D01*
X162059598Y-120273634D01*
X161883330Y-120183821D01*
X161851439Y-120160650D01*
X161440790Y-119750000D01*
X161452661Y-119750000D01*
X161554394Y-119722741D01*
X161645606Y-119670080D01*
X161720080Y-119595606D01*
X161772741Y-119504394D01*
X161800000Y-119402661D01*
X161800000Y-119390791D01*
X162380193Y-119970984D01*
X162380195Y-119970984D01*
X162390408Y-119956928D01*
X162473159Y-119794519D01*
X162473162Y-119794513D01*
X162529484Y-119621171D01*
X162558000Y-119441133D01*
X162558000Y-119258866D01*
X162529484Y-119078828D01*
X162473162Y-118905486D01*
X162473159Y-118905480D01*
X162390412Y-118743078D01*
X162380194Y-118729014D01*
X161800000Y-119309208D01*
X161800000Y-119297339D01*
X161772741Y-119195606D01*
X161720080Y-119104394D01*
X161645606Y-119029920D01*
X161554394Y-118977259D01*
X161452661Y-118950000D01*
X161440790Y-118950000D01*
X162033216Y-118357572D01*
X162038211Y-118333791D01*
X162075165Y-118291447D01*
X162154712Y-118233654D01*
X162283654Y-118104712D01*
X162390838Y-117957186D01*
X162473624Y-117794710D01*
X162529974Y-117621283D01*
X162558500Y-117441176D01*
X162558500Y-117258824D01*
X162529974Y-117078717D01*
X162473624Y-116905290D01*
X162390838Y-116742814D01*
X162283654Y-116595288D01*
X162283651Y-116595285D01*
X162283649Y-116595282D01*
X162154718Y-116466351D01*
X162154714Y-116466348D01*
X162154712Y-116466346D01*
X162092344Y-116421033D01*
X162048992Y-116364811D01*
X162042917Y-116294075D01*
X162076049Y-116231283D01*
X162092339Y-116217167D01*
X162122139Y-116195517D01*
X162245517Y-116072139D01*
X162348074Y-115930981D01*
X162427288Y-115775516D01*
X162481205Y-115609574D01*
X162508500Y-115437241D01*
X162508500Y-115262759D01*
X162481205Y-115090426D01*
X162427288Y-114924484D01*
X162348074Y-114769019D01*
X162245517Y-114627861D01*
X162245514Y-114627858D01*
X162245512Y-114627855D01*
X162154894Y-114537237D01*
X162120868Y-114474925D01*
X162125933Y-114404110D01*
X162168480Y-114347274D01*
X162169928Y-114346206D01*
X162219858Y-114309930D01*
X162359930Y-114169858D01*
X162476366Y-114009598D01*
X162566298Y-113833097D01*
X162627512Y-113644700D01*
X162658500Y-113449046D01*
X162658500Y-113250954D01*
X162627512Y-113055300D01*
X162566298Y-112866903D01*
X162476366Y-112690402D01*
X162359930Y-112530142D01*
X162359928Y-112530139D01*
X162219860Y-112390071D01*
X162059601Y-112273636D01*
X162059600Y-112273635D01*
X162059598Y-112273634D01*
X161883097Y-112183702D01*
X161694700Y-112122488D01*
X161499046Y-112091500D01*
X161300954Y-112091500D01*
X161105300Y-112122488D01*
X161105297Y-112122488D01*
X161105296Y-112122489D01*
X160916903Y-112183702D01*
X160916901Y-112183703D01*
X160740398Y-112273636D01*
X160580139Y-112390071D01*
X160440071Y-112530139D01*
X160323636Y-112690398D01*
X160323634Y-112690402D01*
X160233702Y-112866903D01*
X160172488Y-113055300D01*
X160141500Y-113250954D01*
X159213500Y-113250954D01*
X159213500Y-110421328D01*
X159233502Y-110353207D01*
X159265440Y-110319391D01*
X159265795Y-110319133D01*
X159265803Y-110319129D01*
X159432430Y-110198068D01*
X159443392Y-110187106D01*
X159480033Y-110150466D01*
X159578063Y-110052435D01*
X159578068Y-110052430D01*
X159699129Y-109885803D01*
X159738014Y-109809486D01*
X159786759Y-109757874D01*
X159855674Y-109740807D01*
X159922876Y-109763707D01*
X159962545Y-109809487D01*
X160001294Y-109885535D01*
X160001298Y-109885541D01*
X160032416Y-109928372D01*
X160595016Y-109365771D01*
X160607482Y-109412292D01*
X160679890Y-109537708D01*
X160782292Y-109640110D01*
X160907708Y-109712518D01*
X160954226Y-109724982D01*
X160391626Y-110287582D01*
X160391626Y-110287583D01*
X160434454Y-110318699D01*
X160617900Y-110412170D01*
X160617906Y-110412173D01*
X160813705Y-110475791D01*
X160813701Y-110475791D01*
X161017061Y-110508000D01*
X161222939Y-110508000D01*
X161426296Y-110475791D01*
X161622093Y-110412173D01*
X161622099Y-110412170D01*
X161805541Y-110318701D01*
X161848372Y-110287582D01*
X161848372Y-110287581D01*
X161285773Y-109724982D01*
X161332292Y-109712518D01*
X161457708Y-109640110D01*
X161560110Y-109537708D01*
X161632518Y-109412292D01*
X161644982Y-109365773D01*
X162207581Y-109928372D01*
X162207582Y-109928372D01*
X162238701Y-109885541D01*
X162277453Y-109809488D01*
X162326201Y-109757873D01*
X162395116Y-109740807D01*
X162462318Y-109763708D01*
X162501985Y-109809486D01*
X162540871Y-109885803D01*
X162661932Y-110052430D01*
X162661934Y-110052432D01*
X162661936Y-110052435D01*
X162807564Y-110198063D01*
X162807567Y-110198065D01*
X162807570Y-110198068D01*
X162974197Y-110319129D01*
X163157710Y-110412634D01*
X163353592Y-110476280D01*
X163557019Y-110508500D01*
X163557022Y-110508500D01*
X163762978Y-110508500D01*
X163762981Y-110508500D01*
X163966408Y-110476280D01*
X164162290Y-110412634D01*
X164345803Y-110319129D01*
X164512430Y-110198068D01*
X164658068Y-110052430D01*
X164779129Y-109885803D01*
X164872634Y-109702290D01*
X164936280Y-109506408D01*
X164968500Y-109302981D01*
X164968500Y-109097019D01*
X164936280Y-108893592D01*
X164872634Y-108697710D01*
X164779129Y-108514197D01*
X164658068Y-108347570D01*
X164658065Y-108347567D01*
X164658063Y-108347564D01*
X164512435Y-108201936D01*
X164512432Y-108201934D01*
X164512430Y-108201932D01*
X164346391Y-108081298D01*
X164345806Y-108080873D01*
X164345805Y-108080872D01*
X164345803Y-108080871D01*
X164162290Y-107987366D01*
X164162287Y-107987365D01*
X164162285Y-107987364D01*
X163966412Y-107923721D01*
X163966410Y-107923720D01*
X163966408Y-107923720D01*
X163762981Y-107891500D01*
X163557019Y-107891500D01*
X163353592Y-107923720D01*
X163353590Y-107923720D01*
X163353587Y-107923721D01*
X163157714Y-107987364D01*
X163157708Y-107987367D01*
X162974193Y-108080873D01*
X162807567Y-108201934D01*
X162807564Y-108201936D01*
X162661936Y-108347564D01*
X162661934Y-108347567D01*
X162540872Y-108514193D01*
X162501987Y-108590511D01*
X162453238Y-108642126D01*
X162384323Y-108659192D01*
X162317122Y-108636291D01*
X162277453Y-108590511D01*
X162238699Y-108514454D01*
X162207583Y-108471626D01*
X162207582Y-108471626D01*
X161644982Y-109034226D01*
X161632518Y-108987708D01*
X161560110Y-108862292D01*
X161457708Y-108759890D01*
X161332292Y-108687482D01*
X161285772Y-108675016D01*
X161848372Y-108112416D01*
X161805541Y-108081298D01*
X161805540Y-108081297D01*
X161622099Y-107987829D01*
X161622093Y-107987826D01*
X161426294Y-107924208D01*
X161426298Y-107924208D01*
X161222939Y-107892000D01*
X161017061Y-107892000D01*
X160813703Y-107924208D01*
X160617906Y-107987826D01*
X160617900Y-107987829D01*
X160434452Y-108081301D01*
X160391625Y-108112416D01*
X160954226Y-108675017D01*
X160907708Y-108687482D01*
X160782292Y-108759890D01*
X160679890Y-108862292D01*
X160607482Y-108987708D01*
X160595017Y-109034226D01*
X160032416Y-108471625D01*
X160001301Y-108514453D01*
X160001299Y-108514456D01*
X159962546Y-108590512D01*
X159913798Y-108642127D01*
X159844883Y-108659192D01*
X159777681Y-108636291D01*
X159738013Y-108590511D01*
X159699127Y-108514193D01*
X159635588Y-108426741D01*
X159578068Y-108347570D01*
X159578065Y-108347567D01*
X159578063Y-108347564D01*
X159432435Y-108201936D01*
X159432432Y-108201934D01*
X159432430Y-108201932D01*
X159266391Y-108081298D01*
X159265806Y-108080873D01*
X159265805Y-108080872D01*
X159265803Y-108080871D01*
X159082290Y-107987366D01*
X159082287Y-107987365D01*
X159082285Y-107987364D01*
X158886412Y-107923721D01*
X158886410Y-107923720D01*
X158886408Y-107923720D01*
X158682981Y-107891500D01*
X158477019Y-107891500D01*
X158273592Y-107923720D01*
X158273590Y-107923720D01*
X158273587Y-107923721D01*
X158077714Y-107987364D01*
X158077708Y-107987367D01*
X157894193Y-108080873D01*
X157727567Y-108201934D01*
X157727564Y-108201936D01*
X157581936Y-108347564D01*
X157581934Y-108347567D01*
X157460873Y-108514193D01*
X157422267Y-108589962D01*
X157373518Y-108641577D01*
X157304603Y-108658643D01*
X157237402Y-108635742D01*
X157197733Y-108589962D01*
X157159129Y-108514197D01*
X157038068Y-108347570D01*
X157038065Y-108347567D01*
X157038063Y-108347564D01*
X156892435Y-108201936D01*
X156892432Y-108201934D01*
X156892430Y-108201932D01*
X156726391Y-108081298D01*
X156725806Y-108080873D01*
X156725805Y-108080872D01*
X156725803Y-108080871D01*
X156542290Y-107987366D01*
X156542287Y-107987365D01*
X156542285Y-107987364D01*
X156346412Y-107923721D01*
X156346410Y-107923720D01*
X156346408Y-107923720D01*
X156142981Y-107891500D01*
X155937019Y-107891500D01*
X155937018Y-107891500D01*
X155885748Y-107899619D01*
X155815338Y-107890518D01*
X155776946Y-107864265D01*
X154695405Y-106782724D01*
X154680460Y-106755355D01*
X154663604Y-106729127D01*
X154662698Y-106722828D01*
X154661379Y-106720412D01*
X154658500Y-106693629D01*
X154658500Y-106301099D01*
X154678502Y-106232978D01*
X154732158Y-106186485D01*
X154772419Y-106179369D01*
X155416841Y-105534947D01*
X155435075Y-105602993D01*
X155500901Y-105717007D01*
X155593993Y-105810099D01*
X155708007Y-105875925D01*
X155776051Y-105894157D01*
X155136831Y-106533378D01*
X155189249Y-106571463D01*
X155189251Y-106571464D01*
X155379707Y-106668506D01*
X155379713Y-106668509D01*
X155582996Y-106734559D01*
X155794126Y-106768000D01*
X156007874Y-106768000D01*
X156219003Y-106734559D01*
X156422286Y-106668509D01*
X156422292Y-106668506D01*
X156612750Y-106571463D01*
X156665167Y-106533378D01*
X156665167Y-106533376D01*
X156025948Y-105894157D01*
X156093993Y-105875925D01*
X156208007Y-105810099D01*
X156301099Y-105717007D01*
X156366925Y-105602993D01*
X156385157Y-105534948D01*
X157024376Y-106174167D01*
X157024378Y-106174167D01*
X157062463Y-106121750D01*
X157159506Y-105931292D01*
X157159509Y-105931286D01*
X157225559Y-105728003D01*
X157259000Y-105516873D01*
X157259000Y-105303126D01*
X157225559Y-105091996D01*
X157159509Y-104888713D01*
X157159506Y-104888707D01*
X157062464Y-104698251D01*
X157062463Y-104698249D01*
X157024378Y-104645831D01*
X156385157Y-105285051D01*
X156366925Y-105217007D01*
X156301099Y-105102993D01*
X156208007Y-105009901D01*
X156093993Y-104944075D01*
X156025947Y-104925841D01*
X156665168Y-104286621D01*
X156665167Y-104286620D01*
X156612749Y-104248535D01*
X156610950Y-104247433D01*
X156610409Y-104246835D01*
X156608742Y-104245624D01*
X156608996Y-104245273D01*
X156563318Y-104194786D01*
X156551711Y-104124745D01*
X156579814Y-104059547D01*
X156608788Y-104034442D01*
X156608741Y-104034377D01*
X156609498Y-104033826D01*
X156610958Y-104032562D01*
X156612750Y-104031463D01*
X156665167Y-103993378D01*
X156665167Y-103993376D01*
X156025948Y-103354157D01*
X156093993Y-103335925D01*
X156208007Y-103270099D01*
X156301099Y-103177007D01*
X156366925Y-103062993D01*
X156385157Y-102994948D01*
X157024376Y-103634167D01*
X157024378Y-103634167D01*
X157062463Y-103581750D01*
X157159506Y-103391292D01*
X157159509Y-103391286D01*
X157225559Y-103188003D01*
X157259000Y-102976873D01*
X157259000Y-102763126D01*
X157225559Y-102551996D01*
X157159509Y-102348713D01*
X157159506Y-102348707D01*
X157062464Y-102158251D01*
X157062463Y-102158249D01*
X157024378Y-102105831D01*
X156385157Y-102745051D01*
X156366925Y-102677007D01*
X156301099Y-102562993D01*
X156208007Y-102469901D01*
X156093993Y-102404075D01*
X156025947Y-102385841D01*
X156665168Y-101746621D01*
X156665167Y-101746620D01*
X156612749Y-101708535D01*
X156610950Y-101707433D01*
X156610409Y-101706835D01*
X156608742Y-101705624D01*
X156608996Y-101705273D01*
X156563318Y-101654786D01*
X156551711Y-101584745D01*
X156579814Y-101519547D01*
X156594231Y-101504810D01*
X156659766Y-101447975D01*
X156025948Y-100814157D01*
X156093993Y-100795925D01*
X156208007Y-100730099D01*
X156301099Y-100637007D01*
X156366925Y-100522993D01*
X156385157Y-100454948D01*
X157024376Y-101094167D01*
X157024378Y-101094167D01*
X157062463Y-101041750D01*
X157159506Y-100851292D01*
X157159509Y-100851286D01*
X157225559Y-100648003D01*
X157259000Y-100436873D01*
X157259000Y-100223126D01*
X157225559Y-100011996D01*
X157159509Y-99808713D01*
X157159506Y-99808707D01*
X157062464Y-99618251D01*
X157062463Y-99618249D01*
X157024378Y-99565831D01*
X156385157Y-100205051D01*
X156366925Y-100137007D01*
X156301099Y-100022993D01*
X156208007Y-99929901D01*
X156093993Y-99864075D01*
X156025947Y-99845841D01*
X156695583Y-99176205D01*
X156757896Y-99142180D01*
X156818470Y-99145969D01*
X156860087Y-99141496D01*
X156860094Y-99141494D01*
X156996964Y-99090444D01*
X156996965Y-99090444D01*
X157113904Y-99002904D01*
X157201444Y-98885965D01*
X157201444Y-98885964D01*
X157252494Y-98749093D01*
X157258999Y-98688597D01*
X157259000Y-98688585D01*
X157259000Y-98044000D01*
X156331703Y-98044000D01*
X156366925Y-97982993D01*
X156401000Y-97855826D01*
X156401000Y-97724174D01*
X156366925Y-97597007D01*
X156331703Y-97536000D01*
X157259000Y-97536000D01*
X157259000Y-97500954D01*
X158641500Y-97500954D01*
X158641500Y-97699046D01*
X158672488Y-97894700D01*
X158733702Y-98083097D01*
X158823075Y-98258500D01*
X158823636Y-98259601D01*
X158940071Y-98419860D01*
X159080135Y-98559924D01*
X159080138Y-98559926D01*
X159080142Y-98559930D01*
X159130072Y-98596206D01*
X159173425Y-98652429D01*
X159179500Y-98723165D01*
X159146368Y-98785957D01*
X159145106Y-98787237D01*
X159054483Y-98877860D01*
X158951928Y-99019015D01*
X158872713Y-99174482D01*
X158872710Y-99174488D01*
X158846942Y-99253796D01*
X158818795Y-99340426D01*
X158791500Y-99512759D01*
X158791500Y-99687241D01*
X158818795Y-99859574D01*
X158818796Y-99859577D01*
X158854930Y-99970790D01*
X158872712Y-100025516D01*
X158951926Y-100180981D01*
X159054483Y-100322139D01*
X159054485Y-100322141D01*
X159054487Y-100322144D01*
X159177858Y-100445515D01*
X159229431Y-100482985D01*
X159272785Y-100539208D01*
X159280981Y-100594810D01*
X159279013Y-100619804D01*
X159859209Y-101200000D01*
X159847339Y-101200000D01*
X159745606Y-101227259D01*
X159654394Y-101279920D01*
X159579920Y-101354394D01*
X159527259Y-101445606D01*
X159500000Y-101547339D01*
X159500000Y-101559209D01*
X158919804Y-100979013D01*
X158919803Y-100979014D01*
X158909591Y-100993072D01*
X158826840Y-101155480D01*
X158826837Y-101155486D01*
X158770515Y-101328828D01*
X158742000Y-101508866D01*
X158742000Y-101691133D01*
X158770515Y-101871171D01*
X158826837Y-102044513D01*
X158826840Y-102044519D01*
X158909588Y-102206923D01*
X158919803Y-102220984D01*
X159500000Y-101640788D01*
X159500000Y-101652661D01*
X159527259Y-101754394D01*
X159579920Y-101845606D01*
X159654394Y-101920080D01*
X159745606Y-101972741D01*
X159847339Y-102000000D01*
X159859210Y-102000000D01*
X159266780Y-102592428D01*
X159261784Y-102616213D01*
X159224830Y-102658554D01*
X159145288Y-102716345D01*
X159145282Y-102716350D01*
X159016350Y-102845282D01*
X159016348Y-102845285D01*
X158909164Y-102992810D01*
X158826374Y-103155293D01*
X158770027Y-103328711D01*
X158770026Y-103328716D01*
X158770026Y-103328717D01*
X158741500Y-103508824D01*
X158741500Y-103691176D01*
X158757928Y-103794898D01*
X158770027Y-103871288D01*
X158826374Y-104044706D01*
X158826375Y-104044709D01*
X158826376Y-104044710D01*
X158909162Y-104207186D01*
X159016346Y-104354712D01*
X159016348Y-104354714D01*
X159016350Y-104354717D01*
X159104151Y-104442518D01*
X159138177Y-104504830D01*
X159133112Y-104575645D01*
X159090565Y-104632481D01*
X159089119Y-104633547D01*
X159080144Y-104640067D01*
X159080136Y-104640074D01*
X158940071Y-104780139D01*
X158823636Y-104940398D01*
X158733703Y-105116901D01*
X158733702Y-105116903D01*
X158713482Y-105179135D01*
X158672488Y-105305300D01*
X158641500Y-105500954D01*
X158641500Y-105699046D01*
X158672488Y-105894700D01*
X158733702Y-106083097D01*
X158823634Y-106259598D01*
X158823636Y-106259601D01*
X158940071Y-106419860D01*
X159080139Y-106559928D01*
X159130773Y-106596716D01*
X159240402Y-106676366D01*
X159416903Y-106766298D01*
X159605300Y-106827512D01*
X159800954Y-106858500D01*
X159800957Y-106858500D01*
X159999043Y-106858500D01*
X159999046Y-106858500D01*
X160194700Y-106827512D01*
X160383097Y-106766298D01*
X160559598Y-106676366D01*
X160719858Y-106559930D01*
X160859930Y-106419858D01*
X160976366Y-106259598D01*
X161066298Y-106083097D01*
X161127512Y-105894700D01*
X161158500Y-105699046D01*
X161158500Y-105500954D01*
X161127512Y-105305300D01*
X161066298Y-105116903D01*
X160976366Y-104940402D01*
X160859930Y-104780142D01*
X160859928Y-104780139D01*
X160719863Y-104640074D01*
X160719859Y-104640071D01*
X160719858Y-104640070D01*
X160710881Y-104633548D01*
X160667529Y-104577328D01*
X160661452Y-104506592D01*
X160694583Y-104443800D01*
X160695777Y-104442588D01*
X160783654Y-104354712D01*
X160890838Y-104207186D01*
X160973624Y-104044710D01*
X161029974Y-103871283D01*
X161058500Y-103691176D01*
X161058500Y-103508824D01*
X161029974Y-103328717D01*
X160973624Y-103155290D01*
X160890838Y-102992814D01*
X160783654Y-102845288D01*
X160783651Y-102845285D01*
X160783649Y-102845282D01*
X160654718Y-102716351D01*
X160654714Y-102716348D01*
X160654712Y-102716346D01*
X160575167Y-102658553D01*
X160531815Y-102602331D01*
X160529859Y-102589068D01*
X159940791Y-102000000D01*
X159952661Y-102000000D01*
X160054394Y-101972741D01*
X160145606Y-101920080D01*
X160220080Y-101845606D01*
X160272741Y-101754394D01*
X160300000Y-101652661D01*
X160300000Y-101640791D01*
X160880193Y-102220984D01*
X160880195Y-102220984D01*
X160890408Y-102206928D01*
X160973159Y-102044519D01*
X160973162Y-102044513D01*
X161029484Y-101871171D01*
X161058000Y-101691133D01*
X161058000Y-101508866D01*
X161029484Y-101328828D01*
X160973162Y-101155486D01*
X160973159Y-101155480D01*
X160890412Y-100993078D01*
X160880194Y-100979014D01*
X160300000Y-101559208D01*
X160300000Y-101547339D01*
X160272741Y-101445606D01*
X160220080Y-101354394D01*
X160145606Y-101279920D01*
X160054394Y-101227259D01*
X159952661Y-101200000D01*
X159940790Y-101200000D01*
X160520985Y-100619803D01*
X160519018Y-100594809D01*
X160533612Y-100525329D01*
X160570567Y-100482986D01*
X160622139Y-100445517D01*
X160745517Y-100322139D01*
X160848074Y-100180981D01*
X160927288Y-100025516D01*
X160981205Y-99859574D01*
X161008500Y-99687241D01*
X161008500Y-99512759D01*
X160981205Y-99340426D01*
X160927288Y-99174484D01*
X160848074Y-99019019D01*
X160745517Y-98877861D01*
X160745514Y-98877858D01*
X160745512Y-98877855D01*
X160654894Y-98787237D01*
X160620868Y-98724925D01*
X160625933Y-98654110D01*
X160668480Y-98597274D01*
X160669928Y-98596206D01*
X160719858Y-98559930D01*
X160859930Y-98419858D01*
X160976366Y-98259598D01*
X161066298Y-98083097D01*
X161127512Y-97894700D01*
X161158500Y-97699046D01*
X161158500Y-97500954D01*
X161127512Y-97305300D01*
X161066298Y-97116903D01*
X160976366Y-96940402D01*
X160859930Y-96780142D01*
X160859928Y-96780139D01*
X160719860Y-96640071D01*
X160559601Y-96523636D01*
X160559600Y-96523635D01*
X160559598Y-96523634D01*
X160383097Y-96433702D01*
X160194700Y-96372488D01*
X159999046Y-96341500D01*
X159800954Y-96341500D01*
X159605300Y-96372488D01*
X159605297Y-96372488D01*
X159605296Y-96372489D01*
X159416903Y-96433702D01*
X159416901Y-96433703D01*
X159240398Y-96523636D01*
X159080139Y-96640071D01*
X158940071Y-96780139D01*
X158823636Y-96940398D01*
X158733703Y-97116901D01*
X158733702Y-97116903D01*
X158687038Y-97260521D01*
X158672488Y-97305300D01*
X158641500Y-97500954D01*
X157259000Y-97500954D01*
X157259000Y-96891414D01*
X157258999Y-96891402D01*
X157252494Y-96830906D01*
X157201444Y-96694035D01*
X157201444Y-96694034D01*
X157113904Y-96577095D01*
X156996965Y-96489555D01*
X156860093Y-96438505D01*
X156799597Y-96432000D01*
X156155000Y-96432000D01*
X156155000Y-97359297D01*
X156093993Y-97324075D01*
X155966826Y-97290000D01*
X155835174Y-97290000D01*
X155708007Y-97324075D01*
X155647000Y-97359297D01*
X155647000Y-96432000D01*
X155002402Y-96432000D01*
X154941906Y-96438505D01*
X154805035Y-96489555D01*
X154805034Y-96489555D01*
X154688095Y-96577095D01*
X154600555Y-96694034D01*
X154600555Y-96694035D01*
X154549505Y-96830906D01*
X154543000Y-96891402D01*
X154543000Y-97536000D01*
X155470297Y-97536000D01*
X155435075Y-97597007D01*
X155401000Y-97724174D01*
X155401000Y-97855826D01*
X155435075Y-97982993D01*
X155470297Y-98044000D01*
X154543000Y-98044000D01*
X154543000Y-98688597D01*
X154549505Y-98749093D01*
X154600555Y-98885964D01*
X154600555Y-98885965D01*
X154688095Y-99002904D01*
X154805034Y-99090444D01*
X154941909Y-99141495D01*
X154983980Y-99146018D01*
X155046286Y-99142674D01*
X155106413Y-99176204D01*
X155776051Y-99845842D01*
X155708007Y-99864075D01*
X155593993Y-99929901D01*
X155500901Y-100022993D01*
X155435075Y-100137007D01*
X155416842Y-100205051D01*
X154777622Y-99565831D01*
X154777621Y-99565831D01*
X154739534Y-99618253D01*
X154642493Y-99808707D01*
X154642490Y-99808713D01*
X154576440Y-100011996D01*
X154543000Y-100223126D01*
X154543000Y-100436873D01*
X154576440Y-100648003D01*
X154642490Y-100851286D01*
X154642493Y-100851292D01*
X154739535Y-101041748D01*
X154739536Y-101041750D01*
X154777620Y-101094167D01*
X154777621Y-101094168D01*
X155416841Y-100454947D01*
X155435075Y-100522993D01*
X155500901Y-100637007D01*
X155593993Y-100730099D01*
X155708007Y-100795925D01*
X155776051Y-100814157D01*
X155165799Y-101424409D01*
X155232826Y-101534456D01*
X155234453Y-101540539D01*
X155238678Y-101545208D01*
X155243521Y-101574426D01*
X155251178Y-101603039D01*
X155249258Y-101609035D01*
X155250289Y-101615249D01*
X155238563Y-101642454D01*
X155229538Y-101670657D01*
X155224681Y-101674663D01*
X155222189Y-101680448D01*
X155193212Y-101705560D01*
X155193259Y-101705624D01*
X155192520Y-101706160D01*
X155191065Y-101707422D01*
X155189269Y-101708522D01*
X155136831Y-101746621D01*
X155136831Y-101746622D01*
X155776051Y-102385842D01*
X155708007Y-102404075D01*
X155593993Y-102469901D01*
X155500901Y-102562993D01*
X155435075Y-102677007D01*
X155416842Y-102745051D01*
X154777622Y-102105831D01*
X154777621Y-102105831D01*
X154739534Y-102158253D01*
X154642493Y-102348707D01*
X154642490Y-102348713D01*
X154576440Y-102551996D01*
X154543000Y-102763126D01*
X154543000Y-102976873D01*
X154576440Y-103188003D01*
X154642490Y-103391286D01*
X154642493Y-103391292D01*
X154739535Y-103581748D01*
X154739536Y-103581750D01*
X154777620Y-103634167D01*
X154777621Y-103634168D01*
X155416841Y-102994947D01*
X155435075Y-103062993D01*
X155500901Y-103177007D01*
X155593993Y-103270099D01*
X155708007Y-103335925D01*
X155776051Y-103354157D01*
X155165799Y-103964409D01*
X155232826Y-104074456D01*
X155234453Y-104080539D01*
X155238678Y-104085208D01*
X155243521Y-104114426D01*
X155251178Y-104143039D01*
X155249258Y-104149035D01*
X155250289Y-104155249D01*
X155238563Y-104182454D01*
X155229538Y-104210657D01*
X155224681Y-104214663D01*
X155222189Y-104220448D01*
X155193212Y-104245560D01*
X155193259Y-104245624D01*
X155192520Y-104246160D01*
X155191065Y-104247422D01*
X155189269Y-104248522D01*
X155136831Y-104286621D01*
X155136831Y-104286622D01*
X155776051Y-104925842D01*
X155708007Y-104944075D01*
X155593993Y-105009901D01*
X155500901Y-105102993D01*
X155435075Y-105217007D01*
X155416842Y-105285051D01*
X154777622Y-104645831D01*
X154777621Y-104645831D01*
X154739534Y-104698253D01*
X154663241Y-104847987D01*
X154614493Y-104899602D01*
X154545578Y-104916668D01*
X154480973Y-104895549D01*
X154330340Y-104794900D01*
X154330339Y-104794899D01*
X154165003Y-104726414D01*
X154165001Y-104726413D01*
X154165000Y-104726413D01*
X154076645Y-104708838D01*
X153989481Y-104691500D01*
X153989479Y-104691500D01*
X153810521Y-104691500D01*
X153810518Y-104691500D01*
X153679771Y-104717507D01*
X153635000Y-104726413D01*
X153634999Y-104726413D01*
X153634996Y-104726414D01*
X153469662Y-104794899D01*
X153320869Y-104894319D01*
X153320862Y-104894324D01*
X153194324Y-105020862D01*
X153194319Y-105020869D01*
X153094897Y-105169664D01*
X153094895Y-105169668D01*
X153025908Y-105336216D01*
X152981360Y-105391497D01*
X152913996Y-105413917D01*
X152845205Y-105396358D01*
X152796827Y-105344396D01*
X152783500Y-105287997D01*
X152783500Y-95269101D01*
X152803502Y-95200980D01*
X152857158Y-95154487D01*
X152927432Y-95144383D01*
X152966701Y-95156834D01*
X152997710Y-95172634D01*
X153193592Y-95236280D01*
X153397019Y-95268500D01*
X153397022Y-95268500D01*
X153602978Y-95268500D01*
X153602981Y-95268500D01*
X153806408Y-95236280D01*
X154002290Y-95172634D01*
X154185803Y-95079129D01*
X154352430Y-94958068D01*
X154352435Y-94958063D01*
X154400033Y-94910466D01*
X154498063Y-94812435D01*
X154498068Y-94812430D01*
X154619129Y-94645803D01*
X154658014Y-94569486D01*
X154706759Y-94517874D01*
X154775674Y-94500807D01*
X154842876Y-94523707D01*
X154882545Y-94569487D01*
X154921294Y-94645535D01*
X154921298Y-94645541D01*
X154952416Y-94688372D01*
X155515016Y-94125771D01*
X155527482Y-94172292D01*
X155599890Y-94297708D01*
X155702292Y-94400110D01*
X155827708Y-94472518D01*
X155874226Y-94484982D01*
X155311626Y-95047582D01*
X155311626Y-95047583D01*
X155354454Y-95078699D01*
X155537900Y-95172170D01*
X155537906Y-95172173D01*
X155733705Y-95235791D01*
X155733701Y-95235791D01*
X155937061Y-95268000D01*
X156142939Y-95268000D01*
X156346296Y-95235791D01*
X156542093Y-95172173D01*
X156542099Y-95172170D01*
X156725541Y-95078701D01*
X156768372Y-95047582D01*
X156768372Y-95047581D01*
X156205773Y-94484982D01*
X156252292Y-94472518D01*
X156377708Y-94400110D01*
X156480110Y-94297708D01*
X156552518Y-94172292D01*
X156564982Y-94125773D01*
X157127581Y-94688372D01*
X157127582Y-94688372D01*
X157158701Y-94645541D01*
X157197733Y-94568938D01*
X157246481Y-94517323D01*
X157315396Y-94500257D01*
X157382598Y-94523158D01*
X157422267Y-94568938D01*
X157461297Y-94645540D01*
X157461298Y-94645541D01*
X157492416Y-94688372D01*
X158055016Y-94125771D01*
X158067482Y-94172292D01*
X158139890Y-94297708D01*
X158242292Y-94400110D01*
X158367708Y-94472518D01*
X158414226Y-94484982D01*
X157851626Y-95047582D01*
X157851626Y-95047583D01*
X157894454Y-95078699D01*
X158077900Y-95172170D01*
X158077906Y-95172173D01*
X158273705Y-95235791D01*
X158273701Y-95235791D01*
X158477061Y-95268000D01*
X158682939Y-95268000D01*
X158886296Y-95235791D01*
X159082093Y-95172173D01*
X159082099Y-95172170D01*
X159265541Y-95078701D01*
X159308372Y-95047582D01*
X159308372Y-95047581D01*
X158745773Y-94484982D01*
X158792292Y-94472518D01*
X158917708Y-94400110D01*
X159020110Y-94297708D01*
X159092518Y-94172292D01*
X159104982Y-94125773D01*
X159667581Y-94688372D01*
X159667582Y-94688372D01*
X159698701Y-94645541D01*
X159737453Y-94569488D01*
X159786201Y-94517873D01*
X159855116Y-94500807D01*
X159922318Y-94523708D01*
X159961985Y-94569486D01*
X160000871Y-94645803D01*
X160121932Y-94812430D01*
X160121934Y-94812432D01*
X160121936Y-94812435D01*
X160267564Y-94958063D01*
X160267567Y-94958065D01*
X160267570Y-94958068D01*
X160434197Y-95079129D01*
X160617710Y-95172634D01*
X160813592Y-95236280D01*
X161017019Y-95268500D01*
X161017022Y-95268500D01*
X161222978Y-95268500D01*
X161222981Y-95268500D01*
X161426408Y-95236280D01*
X161622290Y-95172634D01*
X161805803Y-95079129D01*
X161972430Y-94958068D01*
X162118068Y-94812430D01*
X162129512Y-94796677D01*
X162185732Y-94753323D01*
X162256468Y-94747246D01*
X162319261Y-94780376D01*
X162354174Y-94842195D01*
X162356727Y-94857265D01*
X162358010Y-94869197D01*
X162358011Y-94869204D01*
X162409110Y-95006202D01*
X162409112Y-95006207D01*
X162496738Y-95123261D01*
X162613792Y-95210887D01*
X162613794Y-95210888D01*
X162613796Y-95210889D01*
X162672875Y-95232924D01*
X162750795Y-95261988D01*
X162750803Y-95261990D01*
X162811350Y-95268499D01*
X162811355Y-95268499D01*
X162811362Y-95268500D01*
X162811368Y-95268500D01*
X164508632Y-95268500D01*
X164508638Y-95268500D01*
X164508645Y-95268499D01*
X164508649Y-95268499D01*
X164569196Y-95261990D01*
X164569199Y-95261989D01*
X164569201Y-95261989D01*
X164706204Y-95210889D01*
X164757923Y-95172173D01*
X164823261Y-95123261D01*
X164910887Y-95006207D01*
X164910887Y-95006206D01*
X164910889Y-95006204D01*
X164961989Y-94869201D01*
X164961989Y-94869199D01*
X164961990Y-94869196D01*
X164968499Y-94808649D01*
X164968500Y-94808632D01*
X164968500Y-93111367D01*
X164968499Y-93111350D01*
X164961990Y-93050803D01*
X164961988Y-93050795D01*
X164910889Y-92913797D01*
X164910887Y-92913792D01*
X164823261Y-92796738D01*
X164706207Y-92709112D01*
X164706202Y-92709110D01*
X164569204Y-92658011D01*
X164569196Y-92658009D01*
X164508649Y-92651500D01*
X164508638Y-92651500D01*
X163628594Y-92651500D01*
X163560473Y-92631498D01*
X163513980Y-92577842D01*
X163503876Y-92507568D01*
X163533370Y-92442988D01*
X163539499Y-92436405D01*
X164549539Y-91426366D01*
X165642072Y-90333833D01*
X165711401Y-90230075D01*
X165759155Y-90114784D01*
X165759156Y-90114779D01*
X165764365Y-90088598D01*
X165783499Y-89992399D01*
X165783500Y-89992392D01*
X165783500Y-80553503D01*
X165803502Y-80485382D01*
X165820405Y-80464408D01*
X165837123Y-80447690D01*
X165855678Y-80429135D01*
X165955102Y-80280336D01*
X166023587Y-80115000D01*
X166058500Y-79939479D01*
X166058500Y-79760521D01*
X166023587Y-79585000D01*
X165955102Y-79419664D01*
X165855678Y-79270865D01*
X165729135Y-79144322D01*
X165580336Y-79044898D01*
X165463429Y-78996473D01*
X165415003Y-78976414D01*
X165415001Y-78976413D01*
X165415000Y-78976413D01*
X165326645Y-78958838D01*
X165239481Y-78941500D01*
X165239479Y-78941500D01*
X165060521Y-78941500D01*
X165060518Y-78941500D01*
X164929771Y-78967507D01*
X164885000Y-78976413D01*
X164884999Y-78976413D01*
X164884996Y-78976414D01*
X164719662Y-79044899D01*
X164570869Y-79144319D01*
X164570862Y-79144324D01*
X164444324Y-79270862D01*
X164444319Y-79270869D01*
X164344899Y-79419662D01*
X164276414Y-79584996D01*
X164241500Y-79760518D01*
X164241500Y-79760521D01*
X164241500Y-79939479D01*
X164276413Y-80115000D01*
X164344898Y-80280336D01*
X164444322Y-80429135D01*
X164444324Y-80429137D01*
X164479595Y-80464408D01*
X164513621Y-80526720D01*
X164516500Y-80553503D01*
X164516500Y-89615405D01*
X164496498Y-89683526D01*
X164479595Y-89704500D01*
X161535658Y-92648436D01*
X161473346Y-92682462D01*
X161426853Y-92683790D01*
X161303850Y-92664308D01*
X161222981Y-92651500D01*
X161017019Y-92651500D01*
X160813592Y-92683720D01*
X160813590Y-92683720D01*
X160813587Y-92683721D01*
X160617714Y-92747364D01*
X160617708Y-92747367D01*
X160434193Y-92840873D01*
X160267567Y-92961934D01*
X160267564Y-92961936D01*
X160121936Y-93107564D01*
X160121934Y-93107567D01*
X160000872Y-93274193D01*
X159961987Y-93350511D01*
X159913238Y-93402126D01*
X159844323Y-93419192D01*
X159777122Y-93396291D01*
X159737453Y-93350511D01*
X159698699Y-93274454D01*
X159667583Y-93231626D01*
X159667582Y-93231626D01*
X159104982Y-93794226D01*
X159092518Y-93747708D01*
X159020110Y-93622292D01*
X158917708Y-93519890D01*
X158792292Y-93447482D01*
X158745772Y-93435016D01*
X159308372Y-92872416D01*
X159265541Y-92841298D01*
X159265540Y-92841297D01*
X159082099Y-92747829D01*
X159082093Y-92747826D01*
X158886294Y-92684208D01*
X158886298Y-92684208D01*
X158682939Y-92652000D01*
X158477061Y-92652000D01*
X158273703Y-92684208D01*
X158077906Y-92747826D01*
X158077900Y-92747829D01*
X157894452Y-92841301D01*
X157851625Y-92872416D01*
X158414226Y-93435017D01*
X158367708Y-93447482D01*
X158242292Y-93519890D01*
X158139890Y-93622292D01*
X158067482Y-93747708D01*
X158055017Y-93794226D01*
X157492416Y-93231625D01*
X157461301Y-93274453D01*
X157461299Y-93274455D01*
X157422266Y-93351062D01*
X157373518Y-93402677D01*
X157304603Y-93419742D01*
X157237401Y-93396841D01*
X157197733Y-93351061D01*
X157158699Y-93274454D01*
X157127583Y-93231626D01*
X157127582Y-93231626D01*
X156564982Y-93794226D01*
X156552518Y-93747708D01*
X156480110Y-93622292D01*
X156377708Y-93519890D01*
X156252292Y-93447482D01*
X156205772Y-93435016D01*
X156768372Y-92872416D01*
X156725541Y-92841298D01*
X156725540Y-92841297D01*
X156542099Y-92747829D01*
X156542093Y-92747826D01*
X156346294Y-92684208D01*
X156346298Y-92684208D01*
X156142939Y-92652000D01*
X155937061Y-92652000D01*
X155733703Y-92684208D01*
X155537906Y-92747826D01*
X155537900Y-92747829D01*
X155354452Y-92841301D01*
X155311625Y-92872416D01*
X155874226Y-93435017D01*
X155827708Y-93447482D01*
X155702292Y-93519890D01*
X155599890Y-93622292D01*
X155527482Y-93747708D01*
X155515017Y-93794226D01*
X154952416Y-93231625D01*
X154921301Y-93274453D01*
X154921299Y-93274456D01*
X154882546Y-93350512D01*
X154833798Y-93402127D01*
X154764883Y-93419192D01*
X154697681Y-93396291D01*
X154658013Y-93350511D01*
X154619127Y-93274193D01*
X154555588Y-93186741D01*
X154498068Y-93107570D01*
X154498065Y-93107567D01*
X154498063Y-93107564D01*
X154352435Y-92961936D01*
X154352432Y-92961934D01*
X154352430Y-92961932D01*
X154186391Y-92841298D01*
X154185806Y-92840873D01*
X154185805Y-92840872D01*
X154185803Y-92840871D01*
X154002290Y-92747366D01*
X154002287Y-92747365D01*
X154002285Y-92747364D01*
X153806412Y-92683721D01*
X153806410Y-92683720D01*
X153806408Y-92683720D01*
X153602981Y-92651500D01*
X153397019Y-92651500D01*
X153193592Y-92683720D01*
X153193590Y-92683720D01*
X153193587Y-92683721D01*
X152997714Y-92747364D01*
X152997702Y-92747369D01*
X152966702Y-92763165D01*
X152896925Y-92776269D01*
X152831141Y-92749568D01*
X152790235Y-92691540D01*
X152783500Y-92650898D01*
X152783500Y-87414594D01*
X152803502Y-87346473D01*
X152820405Y-87325499D01*
X153350499Y-86795405D01*
X153412811Y-86761379D01*
X153439594Y-86758500D01*
X153489478Y-86758500D01*
X153489479Y-86758500D01*
X153665000Y-86723587D01*
X153830336Y-86655102D01*
X153979135Y-86555678D01*
X154105678Y-86429135D01*
X154205102Y-86280336D01*
X154273587Y-86115000D01*
X154308500Y-85939479D01*
X154308500Y-85760521D01*
X154273587Y-85585000D01*
X154205102Y-85419664D01*
X154105678Y-85270865D01*
X153979135Y-85144322D01*
X153830336Y-85044898D01*
X153713429Y-84996473D01*
X153665003Y-84976414D01*
X153665001Y-84976413D01*
X153665000Y-84976413D01*
X153576645Y-84958838D01*
X153489481Y-84941500D01*
X153489479Y-84941500D01*
X153310521Y-84941500D01*
X153310518Y-84941500D01*
X153179771Y-84967507D01*
X153135000Y-84976413D01*
X153134999Y-84976413D01*
X153134996Y-84976414D01*
X152969662Y-85044899D01*
X152820869Y-85144319D01*
X152820862Y-85144324D01*
X152694324Y-85270862D01*
X152694319Y-85270869D01*
X152603419Y-85406912D01*
X152594898Y-85419664D01*
X152580716Y-85453902D01*
X152526414Y-85584996D01*
X152526413Y-85584999D01*
X152526413Y-85585000D01*
X152524508Y-85594579D01*
X152491500Y-85760518D01*
X152491500Y-85810406D01*
X152471498Y-85878527D01*
X152454595Y-85899501D01*
X151657931Y-86696164D01*
X151657926Y-86696171D01*
X151592085Y-86794710D01*
X151588600Y-86799925D01*
X151540845Y-86915215D01*
X151532496Y-86957189D01*
X151516500Y-87037603D01*
X151516500Y-92591555D01*
X151496498Y-92659676D01*
X151442842Y-92706169D01*
X151372568Y-92716273D01*
X151351565Y-92711388D01*
X151266414Y-92683721D01*
X151258465Y-92682462D01*
X151062981Y-92651500D01*
X150857019Y-92651500D01*
X150653592Y-92683720D01*
X150653590Y-92683720D01*
X150653587Y-92683721D01*
X150457716Y-92747364D01*
X150457710Y-92747366D01*
X150453002Y-92748896D01*
X150452680Y-92747906D01*
X150387121Y-92754951D01*
X150323636Y-92723168D01*
X150287412Y-92662108D01*
X150283500Y-92630954D01*
X150283500Y-90803503D01*
X150303502Y-90735382D01*
X150320405Y-90714408D01*
X150355678Y-90679135D01*
X150455102Y-90530336D01*
X150523587Y-90365000D01*
X150558500Y-90189479D01*
X150558500Y-90010521D01*
X150523587Y-89835000D01*
X150455102Y-89669664D01*
X150355678Y-89520865D01*
X150229135Y-89394322D01*
X150080336Y-89294898D01*
X149963429Y-89246473D01*
X149915003Y-89226414D01*
X149915001Y-89226413D01*
X149915000Y-89226413D01*
X149826645Y-89208838D01*
X149739481Y-89191500D01*
X149739479Y-89191500D01*
X149560521Y-89191500D01*
X149560518Y-89191500D01*
X149429771Y-89217507D01*
X149385000Y-89226413D01*
X149384999Y-89226413D01*
X149384996Y-89226414D01*
X149219662Y-89294899D01*
X149070869Y-89394319D01*
X149070862Y-89394324D01*
X148944324Y-89520862D01*
X148944319Y-89520869D01*
X148844899Y-89669662D01*
X148776414Y-89834996D01*
X148741500Y-90010518D01*
X148741500Y-90189481D01*
X148749575Y-90230075D01*
X148770213Y-90333832D01*
X148776414Y-90365003D01*
X148787024Y-90390617D01*
X148844898Y-90530336D01*
X148944322Y-90679135D01*
X148944324Y-90679137D01*
X148979595Y-90714408D01*
X149013621Y-90776720D01*
X149016500Y-90803503D01*
X149016500Y-92604552D01*
X148996498Y-92672673D01*
X148942842Y-92719166D01*
X148872568Y-92729270D01*
X148851564Y-92724385D01*
X148726412Y-92683721D01*
X148726410Y-92683720D01*
X148726408Y-92683720D01*
X148522981Y-92651500D01*
X148317019Y-92651500D01*
X148113592Y-92683720D01*
X148113590Y-92683720D01*
X148113587Y-92683721D01*
X147917714Y-92747364D01*
X147917708Y-92747367D01*
X147734193Y-92840873D01*
X147567567Y-92961934D01*
X147567564Y-92961936D01*
X147421936Y-93107564D01*
X147421934Y-93107567D01*
X147300873Y-93274193D01*
X147262267Y-93349962D01*
X147213518Y-93401577D01*
X147144603Y-93418643D01*
X147077402Y-93395742D01*
X147037733Y-93349962D01*
X147026599Y-93328110D01*
X146999129Y-93274197D01*
X146878068Y-93107570D01*
X146878065Y-93107567D01*
X146878063Y-93107564D01*
X146732435Y-92961936D01*
X146732432Y-92961934D01*
X146732430Y-92961932D01*
X146566391Y-92841298D01*
X146565806Y-92840873D01*
X146565805Y-92840872D01*
X146565803Y-92840871D01*
X146382290Y-92747366D01*
X146382287Y-92747365D01*
X146382285Y-92747364D01*
X146186412Y-92683721D01*
X146186410Y-92683720D01*
X146186408Y-92683720D01*
X145982981Y-92651500D01*
X145777019Y-92651500D01*
X145573592Y-92683720D01*
X145573590Y-92683720D01*
X145573587Y-92683721D01*
X145377714Y-92747364D01*
X145377708Y-92747367D01*
X145194193Y-92840873D01*
X145027567Y-92961934D01*
X145027564Y-92961936D01*
X144881936Y-93107564D01*
X144881934Y-93107567D01*
X144760873Y-93274193D01*
X144722267Y-93349962D01*
X144673518Y-93401577D01*
X144604603Y-93418643D01*
X144537402Y-93395742D01*
X144497733Y-93349962D01*
X144486599Y-93328110D01*
X144459129Y-93274197D01*
X144338068Y-93107570D01*
X144338065Y-93107567D01*
X144338063Y-93107564D01*
X144192435Y-92961936D01*
X144192432Y-92961934D01*
X144192430Y-92961932D01*
X144126171Y-92913792D01*
X144025806Y-92840872D01*
X144014693Y-92835210D01*
X144005979Y-92830770D01*
X143954365Y-92782022D01*
X143937299Y-92713107D01*
X143960200Y-92645906D01*
X143974082Y-92629415D01*
X144641478Y-91962019D01*
X144703788Y-91927995D01*
X144774603Y-91933060D01*
X144778790Y-91934708D01*
X144863698Y-91969878D01*
X144863699Y-91969878D01*
X144863706Y-91969881D01*
X145039227Y-92004794D01*
X145039228Y-92004794D01*
X145218184Y-92004794D01*
X145218185Y-92004794D01*
X145393706Y-91969881D01*
X145559042Y-91901396D01*
X145707841Y-91801972D01*
X145834384Y-91675429D01*
X145933808Y-91526630D01*
X146002293Y-91361294D01*
X146037206Y-91185773D01*
X146037206Y-91006815D01*
X146002293Y-90831294D01*
X145933808Y-90665958D01*
X145834384Y-90517159D01*
X145707841Y-90390616D01*
X145559042Y-90291192D01*
X145421269Y-90234124D01*
X145393709Y-90222708D01*
X145393707Y-90222707D01*
X145393706Y-90222707D01*
X145305351Y-90205132D01*
X145218187Y-90187794D01*
X145218185Y-90187794D01*
X145039227Y-90187794D01*
X145039224Y-90187794D01*
X144908477Y-90213801D01*
X144863706Y-90222707D01*
X144863705Y-90222707D01*
X144863702Y-90222708D01*
X144698368Y-90291193D01*
X144623464Y-90341242D01*
X144549576Y-90390613D01*
X144549570Y-90390617D01*
X144549568Y-90390618D01*
X144486661Y-90453525D01*
X144431865Y-90483445D01*
X144432441Y-90485342D01*
X144426516Y-90487139D01*
X144311225Y-90534894D01*
X144207472Y-90604220D01*
X144207465Y-90604225D01*
X141840189Y-92971500D01*
X141777877Y-93005526D01*
X141707061Y-93000461D01*
X141661999Y-92971500D01*
X141652435Y-92961936D01*
X141652432Y-92961934D01*
X141652430Y-92961932D01*
X141486391Y-92841298D01*
X141485806Y-92840873D01*
X141485805Y-92840872D01*
X141485803Y-92840871D01*
X141302290Y-92747366D01*
X141302287Y-92747365D01*
X141302285Y-92747364D01*
X141106412Y-92683721D01*
X141106410Y-92683720D01*
X141106408Y-92683720D01*
X140902981Y-92651500D01*
X140697019Y-92651500D01*
X140493592Y-92683720D01*
X140493588Y-92683721D01*
X140493147Y-92683791D01*
X140422736Y-92674691D01*
X140384341Y-92648437D01*
X140343835Y-92607931D01*
X140343833Y-92607929D01*
X140240075Y-92538600D01*
X140124785Y-92490845D01*
X140051086Y-92476185D01*
X140002396Y-92466500D01*
X140002394Y-92466500D01*
X139464596Y-92466500D01*
X139396475Y-92446498D01*
X139375501Y-92429596D01*
X139344268Y-92398363D01*
X138969051Y-92023147D01*
X138865293Y-91953818D01*
X138750003Y-91906063D01*
X138676304Y-91891403D01*
X138627614Y-91881718D01*
X138627612Y-91881718D01*
X137879812Y-91881718D01*
X137811691Y-91861716D01*
X137790717Y-91844813D01*
X135820405Y-89874501D01*
X135786379Y-89812189D01*
X135783500Y-89785406D01*
X135783500Y-86414594D01*
X135792283Y-86384678D01*
X135798912Y-86354209D01*
X135802726Y-86349113D01*
X135803502Y-86346473D01*
X135820405Y-86325499D01*
X135850499Y-86295405D01*
X135912811Y-86261379D01*
X135939594Y-86258500D01*
X135989478Y-86258500D01*
X135989479Y-86258500D01*
X136165000Y-86223587D01*
X136330336Y-86155102D01*
X136479135Y-86055678D01*
X136605678Y-85929135D01*
X136705102Y-85780336D01*
X136773587Y-85615000D01*
X136808500Y-85439479D01*
X136808500Y-85260521D01*
X136773587Y-85085000D01*
X136705102Y-84919664D01*
X136605678Y-84770865D01*
X136479135Y-84644322D01*
X136330336Y-84544898D01*
X136200515Y-84491124D01*
X136165003Y-84476414D01*
X136165001Y-84476413D01*
X136165000Y-84476413D01*
X136073014Y-84458116D01*
X135989481Y-84441500D01*
X135989479Y-84441500D01*
X135810521Y-84441500D01*
X135810518Y-84441500D01*
X135679771Y-84467507D01*
X135635000Y-84476413D01*
X135634999Y-84476413D01*
X135634996Y-84476414D01*
X135507719Y-84529135D01*
X135437129Y-84536724D01*
X135373642Y-84504945D01*
X135337414Y-84443887D01*
X135333500Y-84412726D01*
X135333500Y-83804996D01*
X135353502Y-83736875D01*
X135407158Y-83690382D01*
X135459500Y-83678996D01*
X135494982Y-83678996D01*
X135494983Y-83678996D01*
X135670504Y-83644083D01*
X135835840Y-83575598D01*
X135984639Y-83476174D01*
X136111182Y-83349631D01*
X136210606Y-83200832D01*
X136279091Y-83035496D01*
X136314004Y-82859975D01*
X136314004Y-82681017D01*
X136279091Y-82505496D01*
X136210606Y-82340160D01*
X136151001Y-82250954D01*
X160141500Y-82250954D01*
X160141500Y-82449046D01*
X160172488Y-82644700D01*
X160233702Y-82833097D01*
X160299410Y-82962055D01*
X160323636Y-83009601D01*
X160440071Y-83169860D01*
X160580135Y-83309924D01*
X160580138Y-83309926D01*
X160580142Y-83309930D01*
X160630072Y-83346206D01*
X160673425Y-83402429D01*
X160679500Y-83473165D01*
X160646368Y-83535957D01*
X160645106Y-83537237D01*
X160554483Y-83627860D01*
X160451928Y-83769015D01*
X160372713Y-83924482D01*
X160372710Y-83924488D01*
X160337426Y-84033084D01*
X160318795Y-84090426D01*
X160291500Y-84262759D01*
X160291500Y-84437241D01*
X160318795Y-84609574D01*
X160318796Y-84609577D01*
X160371200Y-84770865D01*
X160372712Y-84775516D01*
X160451926Y-84930981D01*
X160554483Y-85072139D01*
X160554485Y-85072141D01*
X160554487Y-85072144D01*
X160677855Y-85195512D01*
X160677858Y-85195514D01*
X160677861Y-85195517D01*
X160707653Y-85217162D01*
X160751007Y-85273384D01*
X160757082Y-85344120D01*
X160723951Y-85406912D01*
X160707654Y-85421033D01*
X160645288Y-85466345D01*
X160645282Y-85466350D01*
X160516350Y-85595282D01*
X160516348Y-85595285D01*
X160409164Y-85742810D01*
X160326374Y-85905293D01*
X160270027Y-86078711D01*
X160270026Y-86078716D01*
X160270026Y-86078717D01*
X160241500Y-86258824D01*
X160241500Y-86441176D01*
X160259636Y-86555680D01*
X160270027Y-86621288D01*
X160326374Y-86794706D01*
X160326375Y-86794709D01*
X160326376Y-86794710D01*
X160409162Y-86957186D01*
X160516346Y-87104712D01*
X160516348Y-87104714D01*
X160516350Y-87104717D01*
X160645282Y-87233649D01*
X160645285Y-87233651D01*
X160645288Y-87233654D01*
X160724828Y-87291443D01*
X160768182Y-87347665D01*
X160770137Y-87360928D01*
X161359209Y-87950000D01*
X161347339Y-87950000D01*
X161245606Y-87977259D01*
X161154394Y-88029920D01*
X161079920Y-88104394D01*
X161027259Y-88195606D01*
X161000000Y-88297339D01*
X161000000Y-88309209D01*
X160419804Y-87729013D01*
X160419803Y-87729014D01*
X160409591Y-87743072D01*
X160326840Y-87905480D01*
X160326837Y-87905486D01*
X160270515Y-88078828D01*
X160242000Y-88258866D01*
X160242000Y-88441133D01*
X160270515Y-88621171D01*
X160326837Y-88794513D01*
X160326840Y-88794519D01*
X160409588Y-88956923D01*
X160419803Y-88970984D01*
X161000000Y-88390788D01*
X161000000Y-88402661D01*
X161027259Y-88504394D01*
X161079920Y-88595606D01*
X161154394Y-88670080D01*
X161245606Y-88722741D01*
X161347339Y-88750000D01*
X161359210Y-88750000D01*
X160948556Y-89160652D01*
X160916665Y-89183822D01*
X160740401Y-89273634D01*
X160580139Y-89390071D01*
X160440071Y-89530139D01*
X160323636Y-89690398D01*
X160233703Y-89866901D01*
X160233702Y-89866903D01*
X160187038Y-90010521D01*
X160172488Y-90055300D01*
X160141500Y-90250954D01*
X160141500Y-90449046D01*
X160172488Y-90644700D01*
X160233702Y-90833097D01*
X160323634Y-91009598D01*
X160323636Y-91009601D01*
X160440071Y-91169860D01*
X160580139Y-91309928D01*
X160580142Y-91309930D01*
X160740402Y-91426366D01*
X160916903Y-91516298D01*
X161105300Y-91577512D01*
X161300954Y-91608500D01*
X161300957Y-91608500D01*
X161499043Y-91608500D01*
X161499046Y-91608500D01*
X161694700Y-91577512D01*
X161883097Y-91516298D01*
X162059598Y-91426366D01*
X162219858Y-91309930D01*
X162359930Y-91169858D01*
X162476366Y-91009598D01*
X162566298Y-90833097D01*
X162627512Y-90644700D01*
X162658500Y-90449046D01*
X162658500Y-90250954D01*
X162627512Y-90055300D01*
X162566298Y-89866903D01*
X162476366Y-89690402D01*
X162359930Y-89530142D01*
X162359928Y-89530139D01*
X162219860Y-89390071D01*
X162059601Y-89273636D01*
X162059600Y-89273635D01*
X162059598Y-89273634D01*
X161883330Y-89183821D01*
X161851439Y-89160650D01*
X161440790Y-88750000D01*
X161452661Y-88750000D01*
X161554394Y-88722741D01*
X161645606Y-88670080D01*
X161720080Y-88595606D01*
X161772741Y-88504394D01*
X161800000Y-88402661D01*
X161800000Y-88390791D01*
X162380193Y-88970984D01*
X162380195Y-88970984D01*
X162390408Y-88956928D01*
X162473159Y-88794519D01*
X162473162Y-88794513D01*
X162529484Y-88621171D01*
X162558000Y-88441133D01*
X162558000Y-88258866D01*
X162529484Y-88078828D01*
X162473162Y-87905486D01*
X162473159Y-87905480D01*
X162390412Y-87743078D01*
X162380194Y-87729014D01*
X161800000Y-88309208D01*
X161800000Y-88297339D01*
X161772741Y-88195606D01*
X161720080Y-88104394D01*
X161645606Y-88029920D01*
X161554394Y-87977259D01*
X161452661Y-87950000D01*
X161440790Y-87950000D01*
X162033216Y-87357572D01*
X162038211Y-87333791D01*
X162075165Y-87291447D01*
X162154712Y-87233654D01*
X162283654Y-87104712D01*
X162390838Y-86957186D01*
X162473624Y-86794710D01*
X162529974Y-86621283D01*
X162558500Y-86441176D01*
X162558500Y-86258824D01*
X162529974Y-86078717D01*
X162478891Y-85921500D01*
X162473625Y-85905293D01*
X162473624Y-85905292D01*
X162473624Y-85905290D01*
X162390838Y-85742814D01*
X162283654Y-85595288D01*
X162283651Y-85595285D01*
X162283649Y-85595282D01*
X162154718Y-85466351D01*
X162154714Y-85466348D01*
X162154712Y-85466346D01*
X162092344Y-85421033D01*
X162048992Y-85364811D01*
X162042917Y-85294075D01*
X162076049Y-85231283D01*
X162092339Y-85217167D01*
X162122139Y-85195517D01*
X162245517Y-85072139D01*
X162348074Y-84930981D01*
X162427288Y-84775516D01*
X162481205Y-84609574D01*
X162508500Y-84437241D01*
X162508500Y-84262759D01*
X162481205Y-84090426D01*
X162427288Y-83924484D01*
X162348074Y-83769019D01*
X162245517Y-83627861D01*
X162245514Y-83627858D01*
X162245512Y-83627855D01*
X162154894Y-83537237D01*
X162120868Y-83474925D01*
X162125933Y-83404110D01*
X162168480Y-83347274D01*
X162169928Y-83346206D01*
X162219858Y-83309930D01*
X162359930Y-83169858D01*
X162476366Y-83009598D01*
X162566298Y-82833097D01*
X162627512Y-82644700D01*
X162658500Y-82449046D01*
X162658500Y-82250954D01*
X162627512Y-82055300D01*
X162566298Y-81866903D01*
X162476366Y-81690402D01*
X162359930Y-81530142D01*
X162359928Y-81530139D01*
X162219860Y-81390071D01*
X162059601Y-81273636D01*
X162059600Y-81273635D01*
X162059598Y-81273634D01*
X161883097Y-81183702D01*
X161694700Y-81122488D01*
X161499046Y-81091500D01*
X161300954Y-81091500D01*
X161105300Y-81122488D01*
X161105297Y-81122488D01*
X161105296Y-81122489D01*
X160916903Y-81183702D01*
X160916901Y-81183703D01*
X160740398Y-81273636D01*
X160580139Y-81390071D01*
X160440071Y-81530139D01*
X160323636Y-81690398D01*
X160233703Y-81866901D01*
X160233702Y-81866903D01*
X160199204Y-81973078D01*
X160172488Y-82055300D01*
X160141500Y-82250954D01*
X136151001Y-82250954D01*
X136111182Y-82191361D01*
X135984639Y-82064818D01*
X135835840Y-81965394D01*
X135689451Y-81904757D01*
X135670507Y-81896910D01*
X135670505Y-81896909D01*
X135670504Y-81896909D01*
X135582149Y-81879334D01*
X135494985Y-81861996D01*
X135494983Y-81861996D01*
X135316025Y-81861996D01*
X135316022Y-81861996D01*
X135185275Y-81888003D01*
X135140504Y-81896909D01*
X135140503Y-81896909D01*
X135140500Y-81896910D01*
X134974939Y-81965489D01*
X134904349Y-81973078D01*
X134840862Y-81941299D01*
X134815495Y-81904757D01*
X134814319Y-81905386D01*
X134811400Y-81899925D01*
X134789334Y-81866901D01*
X134742071Y-81796167D01*
X134653833Y-81707929D01*
X131553833Y-78607929D01*
X131450075Y-78538600D01*
X131334785Y-78490845D01*
X131252643Y-78474506D01*
X131212396Y-78466500D01*
X131212394Y-78466500D01*
X128718469Y-78466500D01*
X128704911Y-78462519D01*
X128690809Y-78463427D01*
X128671518Y-78452714D01*
X128650348Y-78446498D01*
X128641093Y-78435818D01*
X128628741Y-78428958D01*
X128618305Y-78409519D01*
X128603855Y-78392842D01*
X128601156Y-78377573D01*
X128595161Y-78366405D01*
X128593507Y-78340716D01*
X127952948Y-77700157D01*
X128020993Y-77681925D01*
X128135007Y-77616099D01*
X128228099Y-77523007D01*
X128293925Y-77408993D01*
X128312157Y-77340948D01*
X128951376Y-77980167D01*
X128951378Y-77980167D01*
X128989463Y-77927750D01*
X129086506Y-77737292D01*
X129086509Y-77737286D01*
X129152559Y-77534003D01*
X129186000Y-77322873D01*
X129186000Y-77109126D01*
X146790000Y-77109126D01*
X146790000Y-77322873D01*
X146823440Y-77534003D01*
X146889490Y-77737286D01*
X146889493Y-77737292D01*
X146986535Y-77927748D01*
X146986536Y-77927750D01*
X147024620Y-77980167D01*
X147024621Y-77980168D01*
X147663841Y-77340947D01*
X147682075Y-77408993D01*
X147747901Y-77523007D01*
X147840993Y-77616099D01*
X147955007Y-77681925D01*
X148023051Y-77700157D01*
X147383831Y-78339378D01*
X147436249Y-78377463D01*
X147436251Y-78377464D01*
X147626707Y-78474506D01*
X147626713Y-78474509D01*
X147829996Y-78540559D01*
X148041126Y-78574000D01*
X148254874Y-78574000D01*
X148466003Y-78540559D01*
X148669286Y-78474509D01*
X148669292Y-78474506D01*
X148859750Y-78377463D01*
X148912167Y-78339378D01*
X148912167Y-78339376D01*
X148272948Y-77700157D01*
X148340993Y-77681925D01*
X148455007Y-77616099D01*
X148548099Y-77523007D01*
X148613925Y-77408993D01*
X148632157Y-77340948D01*
X149271376Y-77980167D01*
X149271378Y-77980167D01*
X149309463Y-77927750D01*
X149310562Y-77925958D01*
X149311158Y-77925418D01*
X149312377Y-77923741D01*
X149312729Y-77923996D01*
X149363206Y-77878322D01*
X149433246Y-77866710D01*
X149498446Y-77894808D01*
X149523559Y-77923788D01*
X149523624Y-77923742D01*
X149524165Y-77924487D01*
X149525433Y-77925950D01*
X149526535Y-77927749D01*
X149564620Y-77980167D01*
X149564621Y-77980168D01*
X150203841Y-77340947D01*
X150222075Y-77408993D01*
X150287901Y-77523007D01*
X150380993Y-77616099D01*
X150495007Y-77681925D01*
X150563051Y-77700157D01*
X149923831Y-78339378D01*
X149976249Y-78377463D01*
X149976251Y-78377464D01*
X150166707Y-78474506D01*
X150166713Y-78474509D01*
X150369996Y-78540559D01*
X150581126Y-78574000D01*
X150794874Y-78574000D01*
X151006003Y-78540559D01*
X151209286Y-78474509D01*
X151209292Y-78474506D01*
X151399750Y-78377463D01*
X151452167Y-78339378D01*
X151452167Y-78339376D01*
X150812948Y-77700157D01*
X150880993Y-77681925D01*
X150995007Y-77616099D01*
X151088099Y-77523007D01*
X151153925Y-77408993D01*
X151172157Y-77340948D01*
X151811376Y-77980167D01*
X151811378Y-77980167D01*
X151849463Y-77927750D01*
X151850562Y-77925958D01*
X151851158Y-77925418D01*
X151852377Y-77923741D01*
X151852729Y-77923996D01*
X151903206Y-77878322D01*
X151973246Y-77866710D01*
X152038446Y-77894808D01*
X152063559Y-77923788D01*
X152063624Y-77923742D01*
X152064165Y-77924487D01*
X152065433Y-77925950D01*
X152066535Y-77927749D01*
X152104620Y-77980167D01*
X152104621Y-77980168D01*
X152743841Y-77340947D01*
X152762075Y-77408993D01*
X152827901Y-77523007D01*
X152920993Y-77616099D01*
X153035007Y-77681925D01*
X153103051Y-77700157D01*
X152463831Y-78339378D01*
X152516249Y-78377463D01*
X152516251Y-78377464D01*
X152706707Y-78474506D01*
X152706713Y-78474509D01*
X152909996Y-78540559D01*
X153121126Y-78574000D01*
X153334874Y-78574000D01*
X153546003Y-78540559D01*
X153749286Y-78474509D01*
X153749292Y-78474506D01*
X153939750Y-78377463D01*
X153992167Y-78339378D01*
X153992167Y-78339376D01*
X153352948Y-77700157D01*
X153420993Y-77681925D01*
X153535007Y-77616099D01*
X153628099Y-77523007D01*
X153693925Y-77408993D01*
X153712157Y-77340948D01*
X154381794Y-78010585D01*
X154415820Y-78072897D01*
X154412030Y-78133471D01*
X154416505Y-78175093D01*
X154467555Y-78311964D01*
X154467555Y-78311965D01*
X154555095Y-78428904D01*
X154672034Y-78516444D01*
X154808906Y-78567494D01*
X154869402Y-78573999D01*
X154869415Y-78574000D01*
X155514000Y-78574000D01*
X155514000Y-77646702D01*
X155575007Y-77681925D01*
X155702174Y-77716000D01*
X155833826Y-77716000D01*
X155960993Y-77681925D01*
X156022000Y-77646702D01*
X156022000Y-78574000D01*
X156666585Y-78574000D01*
X156666597Y-78573999D01*
X156727093Y-78567494D01*
X156863964Y-78516444D01*
X156863965Y-78516444D01*
X156980904Y-78428904D01*
X157068444Y-78311965D01*
X157068444Y-78311964D01*
X157119494Y-78175093D01*
X157125999Y-78114597D01*
X157126000Y-78114585D01*
X157126000Y-77470000D01*
X156198703Y-77470000D01*
X156233925Y-77408993D01*
X156268000Y-77281826D01*
X156268000Y-77150174D01*
X156233925Y-77023007D01*
X156198703Y-76962000D01*
X157126000Y-76962000D01*
X157126000Y-76317414D01*
X157125999Y-76317402D01*
X157119494Y-76256906D01*
X157068444Y-76120035D01*
X157068444Y-76120034D01*
X156980904Y-76003095D01*
X156863965Y-75915555D01*
X156727093Y-75864505D01*
X156666597Y-75858000D01*
X156022000Y-75858000D01*
X156022000Y-76785297D01*
X155960993Y-76750075D01*
X155833826Y-76716000D01*
X155702174Y-76716000D01*
X155575007Y-76750075D01*
X155514000Y-76785297D01*
X155514000Y-75858000D01*
X154869402Y-75858000D01*
X154808906Y-75864505D01*
X154672035Y-75915555D01*
X154672034Y-75915555D01*
X154555095Y-76003095D01*
X154467555Y-76120034D01*
X154467555Y-76120035D01*
X154416505Y-76256905D01*
X154411981Y-76298978D01*
X154415319Y-76361301D01*
X154381794Y-76421414D01*
X153712157Y-77091051D01*
X153693925Y-77023007D01*
X153628099Y-76908993D01*
X153535007Y-76815901D01*
X153420993Y-76750075D01*
X153352947Y-76731841D01*
X153992168Y-76092621D01*
X153992167Y-76092620D01*
X153939750Y-76054536D01*
X153939748Y-76054535D01*
X153749292Y-75957493D01*
X153749286Y-75957490D01*
X153546003Y-75891440D01*
X153334874Y-75858000D01*
X153121126Y-75858000D01*
X152909996Y-75891440D01*
X152706713Y-75957490D01*
X152706707Y-75957493D01*
X152516253Y-76054534D01*
X152463831Y-76092621D01*
X152463831Y-76092622D01*
X153103051Y-76731842D01*
X153035007Y-76750075D01*
X152920993Y-76815901D01*
X152827901Y-76908993D01*
X152762075Y-77023007D01*
X152743842Y-77091051D01*
X152104622Y-76451831D01*
X152104621Y-76451831D01*
X152066522Y-76504269D01*
X152065422Y-76506065D01*
X152064827Y-76506603D01*
X152063624Y-76508259D01*
X152063275Y-76508006D01*
X152012768Y-76553689D01*
X151942725Y-76565286D01*
X151877531Y-76537174D01*
X151852440Y-76508211D01*
X151852376Y-76508258D01*
X151851830Y-76507506D01*
X151850563Y-76506044D01*
X151849462Y-76504248D01*
X151811378Y-76451831D01*
X151172157Y-77091051D01*
X151153925Y-77023007D01*
X151088099Y-76908993D01*
X150995007Y-76815901D01*
X150880993Y-76750075D01*
X150812947Y-76731841D01*
X151452168Y-76092621D01*
X151452167Y-76092620D01*
X151399750Y-76054536D01*
X151399748Y-76054535D01*
X151209292Y-75957493D01*
X151209286Y-75957490D01*
X151006003Y-75891440D01*
X150794874Y-75858000D01*
X150581126Y-75858000D01*
X150369996Y-75891440D01*
X150166713Y-75957490D01*
X150166707Y-75957493D01*
X149976253Y-76054534D01*
X149923831Y-76092621D01*
X149923831Y-76092622D01*
X150563051Y-76731842D01*
X150495007Y-76750075D01*
X150380993Y-76815901D01*
X150287901Y-76908993D01*
X150222075Y-77023007D01*
X150203842Y-77091051D01*
X149564622Y-76451831D01*
X149564621Y-76451831D01*
X149526522Y-76504269D01*
X149525422Y-76506065D01*
X149524827Y-76506603D01*
X149523624Y-76508259D01*
X149523275Y-76508006D01*
X149472768Y-76553689D01*
X149402725Y-76565286D01*
X149337531Y-76537174D01*
X149312440Y-76508211D01*
X149312376Y-76508258D01*
X149311830Y-76507506D01*
X149310563Y-76506044D01*
X149309462Y-76504248D01*
X149271378Y-76451831D01*
X148632157Y-77091051D01*
X148613925Y-77023007D01*
X148548099Y-76908993D01*
X148455007Y-76815901D01*
X148340993Y-76750075D01*
X148272947Y-76731841D01*
X148912168Y-76092621D01*
X148912167Y-76092620D01*
X148859750Y-76054536D01*
X148859748Y-76054535D01*
X148669292Y-75957493D01*
X148669286Y-75957490D01*
X148466003Y-75891440D01*
X148254874Y-75858000D01*
X148041126Y-75858000D01*
X147829996Y-75891440D01*
X147626713Y-75957490D01*
X147626707Y-75957493D01*
X147436253Y-76054534D01*
X147383831Y-76092621D01*
X147383831Y-76092622D01*
X148023051Y-76731842D01*
X147955007Y-76750075D01*
X147840993Y-76815901D01*
X147747901Y-76908993D01*
X147682075Y-77023007D01*
X147663842Y-77091051D01*
X147024622Y-76451831D01*
X147024621Y-76451831D01*
X146986534Y-76504253D01*
X146889493Y-76694707D01*
X146889490Y-76694713D01*
X146823440Y-76897996D01*
X146790000Y-77109126D01*
X129186000Y-77109126D01*
X129152559Y-76897996D01*
X129086509Y-76694713D01*
X129086506Y-76694707D01*
X128989464Y-76504251D01*
X128989463Y-76504249D01*
X128951378Y-76451831D01*
X128312157Y-77091051D01*
X128293925Y-77023007D01*
X128228099Y-76908993D01*
X128135007Y-76815901D01*
X128020993Y-76750075D01*
X127952947Y-76731841D01*
X128592168Y-76092621D01*
X128592167Y-76092620D01*
X128539750Y-76054536D01*
X128539748Y-76054535D01*
X128349292Y-75957493D01*
X128349286Y-75957490D01*
X128146003Y-75891440D01*
X127934874Y-75858000D01*
X127721126Y-75858000D01*
X127509996Y-75891440D01*
X127306713Y-75957490D01*
X127306707Y-75957493D01*
X127116253Y-76054534D01*
X127063831Y-76092621D01*
X127063831Y-76092622D01*
X127703051Y-76731842D01*
X127635007Y-76750075D01*
X127520993Y-76815901D01*
X127427901Y-76908993D01*
X127362075Y-77023007D01*
X127343842Y-77091051D01*
X126704622Y-76451831D01*
X126704621Y-76451831D01*
X126666522Y-76504269D01*
X126665422Y-76506065D01*
X126664827Y-76506603D01*
X126663624Y-76508259D01*
X126663275Y-76508006D01*
X126612768Y-76553689D01*
X126542725Y-76565286D01*
X126477531Y-76537174D01*
X126452440Y-76508211D01*
X126452376Y-76508258D01*
X126451830Y-76507506D01*
X126450563Y-76506044D01*
X126449462Y-76504248D01*
X126411378Y-76451831D01*
X125772157Y-77091051D01*
X125753925Y-77023007D01*
X125688099Y-76908993D01*
X125595007Y-76815901D01*
X125480993Y-76750075D01*
X125412947Y-76731841D01*
X126052168Y-76092621D01*
X126052167Y-76092620D01*
X125999750Y-76054536D01*
X125999748Y-76054535D01*
X125809292Y-75957493D01*
X125809286Y-75957490D01*
X125606003Y-75891440D01*
X125394874Y-75858000D01*
X125181126Y-75858000D01*
X124969996Y-75891440D01*
X124766713Y-75957490D01*
X124766707Y-75957493D01*
X124576253Y-76054534D01*
X124523831Y-76092621D01*
X124523831Y-76092622D01*
X125163051Y-76731842D01*
X125095007Y-76750075D01*
X124980993Y-76815901D01*
X124887901Y-76908993D01*
X124822075Y-77023007D01*
X124803842Y-77091051D01*
X124164622Y-76451831D01*
X124164621Y-76451831D01*
X124126522Y-76504269D01*
X124125422Y-76506065D01*
X124124827Y-76506603D01*
X124123624Y-76508259D01*
X124123275Y-76508006D01*
X124072768Y-76553689D01*
X124002725Y-76565286D01*
X123937531Y-76537174D01*
X123912440Y-76508211D01*
X123912376Y-76508258D01*
X123911830Y-76507506D01*
X123910563Y-76506044D01*
X123909462Y-76504248D01*
X123871378Y-76451831D01*
X123232157Y-77091051D01*
X123213925Y-77023007D01*
X123148099Y-76908993D01*
X123055007Y-76815901D01*
X122940993Y-76750075D01*
X122872947Y-76731841D01*
X123512168Y-76092621D01*
X123512167Y-76092620D01*
X123459750Y-76054536D01*
X123459748Y-76054535D01*
X123269292Y-75957493D01*
X123269286Y-75957490D01*
X123066003Y-75891440D01*
X122854874Y-75858000D01*
X122641126Y-75858000D01*
X122429996Y-75891440D01*
X122226713Y-75957490D01*
X122226707Y-75957493D01*
X122036253Y-76054534D01*
X121983831Y-76092621D01*
X121983831Y-76092622D01*
X122623051Y-76731842D01*
X122555007Y-76750075D01*
X122440993Y-76815901D01*
X122347901Y-76908993D01*
X122282075Y-77023007D01*
X122263842Y-77091051D01*
X121594204Y-76421413D01*
X121560178Y-76359101D01*
X121559092Y-76353501D01*
X121528400Y-76173541D01*
X121508443Y-76120033D01*
X121420904Y-76003095D01*
X121303965Y-75915555D01*
X121167093Y-75864505D01*
X121106597Y-75858000D01*
X120462000Y-75858000D01*
X120462000Y-76785297D01*
X120400993Y-76750075D01*
X120273826Y-76716000D01*
X120142174Y-76716000D01*
X120015007Y-76750075D01*
X119954000Y-76785297D01*
X119954000Y-75858000D01*
X119309402Y-75858000D01*
X119248906Y-75864505D01*
X119112035Y-75915555D01*
X119112034Y-75915555D01*
X118995095Y-76003095D01*
X118907555Y-76120034D01*
X118907555Y-76120035D01*
X118856505Y-76256906D01*
X118850000Y-76317402D01*
X118850000Y-76962000D01*
X119777297Y-76962000D01*
X119742075Y-77023007D01*
X119708000Y-77150174D01*
X119708000Y-77281826D01*
X119742075Y-77408993D01*
X119777297Y-77470000D01*
X118850000Y-77470000D01*
X118850000Y-78114597D01*
X118856505Y-78175092D01*
X118901776Y-78296467D01*
X118906841Y-78367283D01*
X118872816Y-78429595D01*
X118810504Y-78463620D01*
X118783720Y-78466500D01*
X118214594Y-78466500D01*
X118146473Y-78446498D01*
X118125499Y-78429595D01*
X112195405Y-72499501D01*
X112161379Y-72437189D01*
X112158500Y-72410406D01*
X112158500Y-65721204D01*
X112835000Y-65721204D01*
X112835000Y-65978795D01*
X112868620Y-66234167D01*
X112868621Y-66234173D01*
X112868622Y-66234175D01*
X112935290Y-66482984D01*
X113033864Y-66720962D01*
X113033865Y-66720963D01*
X113033870Y-66720974D01*
X113162659Y-66944043D01*
X113319460Y-67148388D01*
X113319479Y-67148409D01*
X113501590Y-67330520D01*
X113501600Y-67330529D01*
X113501606Y-67330535D01*
X113501609Y-67330537D01*
X113501611Y-67330539D01*
X113705956Y-67487340D01*
X113929025Y-67616129D01*
X113929029Y-67616130D01*
X113929038Y-67616136D01*
X114167016Y-67714710D01*
X114415825Y-67781378D01*
X114415831Y-67781378D01*
X114415832Y-67781379D01*
X114445134Y-67785236D01*
X114671207Y-67815000D01*
X114671214Y-67815000D01*
X114928786Y-67815000D01*
X114928793Y-67815000D01*
X115184175Y-67781378D01*
X115432984Y-67714710D01*
X115670962Y-67616136D01*
X115894038Y-67487343D01*
X115894038Y-67487342D01*
X115894043Y-67487340D01*
X116012717Y-67396277D01*
X116098394Y-67330535D01*
X116280535Y-67148394D01*
X116404336Y-66987054D01*
X116437340Y-66944043D01*
X116479680Y-66870709D01*
X116566136Y-66720962D01*
X116664710Y-66482984D01*
X116731378Y-66234175D01*
X116765000Y-65978793D01*
X116765000Y-65763318D01*
X119198600Y-65763318D01*
X119198600Y-65936682D01*
X119225720Y-66107912D01*
X119225721Y-66107917D01*
X119266742Y-66234167D01*
X119279292Y-66272791D01*
X119279293Y-66272792D01*
X119358000Y-66427263D01*
X119459900Y-66567516D01*
X119582483Y-66690099D01*
X119603162Y-66705123D01*
X119722740Y-66792002D01*
X119877209Y-66870708D01*
X120042082Y-66924278D01*
X120042083Y-66924278D01*
X120042088Y-66924280D01*
X120213318Y-66951400D01*
X120213321Y-66951400D01*
X120386679Y-66951400D01*
X120386682Y-66951400D01*
X120557912Y-66924280D01*
X120722791Y-66870708D01*
X120877260Y-66792002D01*
X121017514Y-66690101D01*
X121140101Y-66567514D01*
X121242002Y-66427260D01*
X121320708Y-66272791D01*
X121374280Y-66107912D01*
X121401400Y-65936682D01*
X121401400Y-65763318D01*
X121374280Y-65592088D01*
X121320708Y-65427209D01*
X121242002Y-65272740D01*
X121140101Y-65132486D01*
X121140099Y-65132483D01*
X121017516Y-65009900D01*
X120877263Y-64908000D01*
X120877262Y-64907999D01*
X120877260Y-64907998D01*
X120722791Y-64829292D01*
X120722788Y-64829291D01*
X120722786Y-64829290D01*
X120557915Y-64775721D01*
X120557919Y-64775721D01*
X120526041Y-64770672D01*
X120386682Y-64748600D01*
X120213318Y-64748600D01*
X120042088Y-64775720D01*
X120042082Y-64775721D01*
X119877213Y-64829290D01*
X119877207Y-64829293D01*
X119722736Y-64908000D01*
X119582483Y-65009900D01*
X119459900Y-65132483D01*
X119358000Y-65272736D01*
X119279293Y-65427207D01*
X119279290Y-65427213D01*
X119225721Y-65592082D01*
X119225720Y-65592087D01*
X119225720Y-65592088D01*
X119198600Y-65763318D01*
X116765000Y-65763318D01*
X116765000Y-65721207D01*
X116731378Y-65465825D01*
X116664710Y-65217016D01*
X116566136Y-64979038D01*
X116566130Y-64979029D01*
X116566129Y-64979025D01*
X116437340Y-64755956D01*
X116280539Y-64551611D01*
X116280537Y-64551609D01*
X116280535Y-64551606D01*
X116280529Y-64551600D01*
X116280520Y-64551590D01*
X116098409Y-64369479D01*
X116098388Y-64369460D01*
X115894043Y-64212659D01*
X115670974Y-64083870D01*
X115670966Y-64083866D01*
X115670962Y-64083864D01*
X115432984Y-63985290D01*
X115184175Y-63918622D01*
X115184173Y-63918621D01*
X115184167Y-63918620D01*
X114928795Y-63885000D01*
X114928793Y-63885000D01*
X114671207Y-63885000D01*
X114671204Y-63885000D01*
X114415832Y-63918620D01*
X114167016Y-63985290D01*
X113929036Y-64083865D01*
X113929025Y-64083870D01*
X113705956Y-64212659D01*
X113501611Y-64369460D01*
X113501590Y-64369479D01*
X113319479Y-64551590D01*
X113319460Y-64551611D01*
X113162659Y-64755956D01*
X113033870Y-64979025D01*
X113033865Y-64979036D01*
X112935290Y-65217016D01*
X112868620Y-65465832D01*
X112835000Y-65721204D01*
X112158500Y-65721204D01*
X112158500Y-61985263D01*
X118049500Y-61985263D01*
X118049500Y-62214736D01*
X118079450Y-62442231D01*
X118079452Y-62442238D01*
X118138842Y-62663887D01*
X118226656Y-62875888D01*
X118226657Y-62875889D01*
X118226662Y-62875900D01*
X118341386Y-63074608D01*
X118341391Y-63074615D01*
X118481073Y-63256652D01*
X118481092Y-63256673D01*
X118643326Y-63418907D01*
X118643347Y-63418926D01*
X118825384Y-63558608D01*
X118825391Y-63558613D01*
X119024099Y-63673337D01*
X119024103Y-63673338D01*
X119024112Y-63673344D01*
X119236113Y-63761158D01*
X119457762Y-63820548D01*
X119457766Y-63820548D01*
X119457768Y-63820549D01*
X119516398Y-63828267D01*
X119685266Y-63850500D01*
X119685273Y-63850500D01*
X119914727Y-63850500D01*
X119914734Y-63850500D01*
X120120345Y-63823430D01*
X120142231Y-63820549D01*
X120142231Y-63820548D01*
X120142238Y-63820548D01*
X120363887Y-63761158D01*
X120575888Y-63673344D01*
X120774612Y-63558611D01*
X120956661Y-63418919D01*
X120971798Y-63403782D01*
X121051905Y-63323676D01*
X121114217Y-63289650D01*
X121185032Y-63294715D01*
X121241868Y-63337262D01*
X121266679Y-63403782D01*
X121267000Y-63412771D01*
X121267000Y-63448597D01*
X121273505Y-63509093D01*
X121324555Y-63645964D01*
X121324555Y-63645965D01*
X121412095Y-63762904D01*
X121529034Y-63850444D01*
X121665906Y-63901494D01*
X121726402Y-63907999D01*
X121726415Y-63908000D01*
X122821000Y-63908000D01*
X122821000Y-60292000D01*
X121726402Y-60292000D01*
X121665906Y-60298505D01*
X121529035Y-60349555D01*
X121529034Y-60349555D01*
X121412095Y-60437095D01*
X121324555Y-60554034D01*
X121324555Y-60554035D01*
X121273505Y-60690906D01*
X121267000Y-60751402D01*
X121267000Y-60787229D01*
X121246998Y-60855350D01*
X121193342Y-60901843D01*
X121123068Y-60911947D01*
X121058488Y-60882453D01*
X121051905Y-60876324D01*
X120956673Y-60781092D01*
X120956652Y-60781073D01*
X120774615Y-60641391D01*
X120774608Y-60641386D01*
X120575900Y-60526662D01*
X120575892Y-60526658D01*
X120575888Y-60526656D01*
X120363887Y-60438842D01*
X120142238Y-60379452D01*
X120142231Y-60379450D01*
X119914736Y-60349500D01*
X119914734Y-60349500D01*
X119685266Y-60349500D01*
X119685263Y-60349500D01*
X119457768Y-60379450D01*
X119236113Y-60438842D01*
X119024110Y-60526657D01*
X119024099Y-60526662D01*
X118825391Y-60641386D01*
X118825384Y-60641391D01*
X118643347Y-60781073D01*
X118643326Y-60781092D01*
X118481092Y-60943326D01*
X118481073Y-60943347D01*
X118341391Y-61125384D01*
X118341386Y-61125391D01*
X118226662Y-61324099D01*
X118226657Y-61324110D01*
X118226656Y-61324112D01*
X118176084Y-61446204D01*
X118138842Y-61536113D01*
X118079450Y-61757768D01*
X118049500Y-61985263D01*
X112158500Y-61985263D01*
X112158500Y-61834500D01*
X112178502Y-61766379D01*
X112232158Y-61719886D01*
X112284500Y-61708500D01*
X112873632Y-61708500D01*
X112873638Y-61708500D01*
X112873645Y-61708499D01*
X112873649Y-61708499D01*
X112934196Y-61701990D01*
X112934199Y-61701989D01*
X112934201Y-61701989D01*
X113071204Y-61650889D01*
X113111734Y-61620549D01*
X113188261Y-61563261D01*
X113275887Y-61446207D01*
X113275887Y-61446206D01*
X113275889Y-61446204D01*
X113326989Y-61309201D01*
X113333500Y-61248638D01*
X113333500Y-61213271D01*
X113353502Y-61145150D01*
X113407158Y-61098657D01*
X113477432Y-61088553D01*
X113542012Y-61118047D01*
X113548595Y-61124176D01*
X113643326Y-61218907D01*
X113643347Y-61218926D01*
X113825384Y-61358608D01*
X113825391Y-61358613D01*
X114024099Y-61473337D01*
X114024103Y-61473338D01*
X114024112Y-61473344D01*
X114236113Y-61561158D01*
X114457762Y-61620548D01*
X114457766Y-61620548D01*
X114457768Y-61620549D01*
X114516398Y-61628267D01*
X114685266Y-61650500D01*
X114685273Y-61650500D01*
X114914727Y-61650500D01*
X114914734Y-61650500D01*
X115120345Y-61623430D01*
X115142231Y-61620549D01*
X115142231Y-61620548D01*
X115142238Y-61620548D01*
X115363887Y-61561158D01*
X115575888Y-61473344D01*
X115774612Y-61358611D01*
X115956661Y-61218919D01*
X116118919Y-61056661D01*
X116258611Y-60874612D01*
X116373344Y-60675888D01*
X116461158Y-60463887D01*
X116520548Y-60242238D01*
X116550500Y-60014734D01*
X116550500Y-59785266D01*
X116520548Y-59557762D01*
X116461158Y-59336113D01*
X116373344Y-59124112D01*
X116373338Y-59124103D01*
X116373337Y-59124099D01*
X116258613Y-58925391D01*
X116258608Y-58925384D01*
X116118926Y-58743347D01*
X116118907Y-58743326D01*
X115956673Y-58581092D01*
X115956652Y-58581073D01*
X115774615Y-58441391D01*
X115774608Y-58441386D01*
X115634715Y-58360619D01*
X115585722Y-58309236D01*
X115572286Y-58239523D01*
X115598672Y-58173612D01*
X115656505Y-58132430D01*
X115697715Y-58125500D01*
X121666715Y-58125500D01*
X121670878Y-58125500D01*
X121679118Y-58125770D01*
X121707134Y-58127606D01*
X121924492Y-58141852D01*
X121940810Y-58144000D01*
X122177945Y-58191169D01*
X122193850Y-58195430D01*
X122422799Y-58273149D01*
X122438005Y-58279448D01*
X122654851Y-58386384D01*
X122669108Y-58394615D01*
X122870135Y-58528937D01*
X122883204Y-58538966D01*
X123064972Y-58698372D01*
X123076627Y-58710027D01*
X123236033Y-58891795D01*
X123246063Y-58904867D01*
X123291106Y-58972278D01*
X123380379Y-59105883D01*
X123388620Y-59120157D01*
X123495547Y-59336984D01*
X123501854Y-59352210D01*
X123579566Y-59581141D01*
X123583832Y-59597062D01*
X123630997Y-59834177D01*
X123633148Y-59850517D01*
X123649230Y-60095880D01*
X123649500Y-60104121D01*
X123649500Y-60166000D01*
X123629498Y-60234121D01*
X123575842Y-60280614D01*
X123523500Y-60292000D01*
X123329000Y-60292000D01*
X123329000Y-63908000D01*
X123523500Y-63908000D01*
X123591621Y-63928002D01*
X123638114Y-63981658D01*
X123649500Y-64034000D01*
X123649500Y-64902940D01*
X123686082Y-65507721D01*
X123759110Y-66109159D01*
X123759111Y-66109166D01*
X123865571Y-66690099D01*
X123868325Y-66705123D01*
X123977585Y-67148409D01*
X124013322Y-67293399D01*
X124193571Y-67871840D01*
X124408418Y-68438345D01*
X124657079Y-68990846D01*
X124657080Y-68990848D01*
X124938643Y-69527321D01*
X124938648Y-69527332D01*
X125252071Y-70045797D01*
X125252089Y-70045825D01*
X125596255Y-70544436D01*
X125596264Y-70544447D01*
X125969920Y-71021383D01*
X125969924Y-71021388D01*
X125969926Y-71021390D01*
X125969927Y-71021391D01*
X126371684Y-71474882D01*
X126371705Y-71474904D01*
X126800095Y-71903294D01*
X126800117Y-71903315D01*
X127236581Y-72289988D01*
X127253617Y-72305080D01*
X127454671Y-72462596D01*
X127730563Y-72678744D01*
X128229174Y-73022910D01*
X128229202Y-73022928D01*
X128747667Y-73336351D01*
X128747675Y-73336354D01*
X128747679Y-73336357D01*
X129284157Y-73617922D01*
X129836656Y-73866582D01*
X130403161Y-74081429D01*
X130981605Y-74261679D01*
X131569877Y-74406675D01*
X132165830Y-74515888D01*
X132400152Y-74544339D01*
X132767278Y-74588917D01*
X132767283Y-74588917D01*
X132767289Y-74588918D01*
X133279471Y-74619899D01*
X133372060Y-74625500D01*
X133372061Y-74625500D01*
X133664438Y-74625500D01*
X165399485Y-74625500D01*
X165404839Y-74625500D01*
X165410693Y-74625635D01*
X165770935Y-74642393D01*
X165782575Y-74643478D01*
X166136802Y-74693201D01*
X166148310Y-74695365D01*
X166496399Y-74777765D01*
X166507630Y-74780982D01*
X166846566Y-74895343D01*
X166857454Y-74899590D01*
X167184296Y-75044922D01*
X167194763Y-75050172D01*
X167506702Y-75225221D01*
X167516628Y-75231414D01*
X167810965Y-75434669D01*
X167820277Y-75441760D01*
X168094469Y-75671463D01*
X168103078Y-75679384D01*
X168354769Y-75933561D01*
X168362600Y-75942242D01*
X168375121Y-75957490D01*
X168589600Y-76218683D01*
X168596603Y-76228070D01*
X168796950Y-76524385D01*
X168803052Y-76534381D01*
X168975020Y-76848014D01*
X168980167Y-76858532D01*
X169123205Y-77188926D01*
X169125397Y-77194332D01*
X169126725Y-77197838D01*
X169126725Y-77197840D01*
X169126726Y-77197840D01*
X169243201Y-77505346D01*
X169245091Y-77510334D01*
X169246793Y-77515120D01*
X169302385Y-77681925D01*
X169764312Y-79067955D01*
X169765167Y-79070616D01*
X170248556Y-80635991D01*
X170249351Y-80638671D01*
X170691341Y-82191365D01*
X170697887Y-82214359D01*
X170698618Y-82217043D01*
X170773854Y-82505496D01*
X171112077Y-83802253D01*
X171112753Y-83804966D01*
X171490956Y-85399009D01*
X171491571Y-85401736D01*
X171834315Y-87003759D01*
X171834869Y-87006498D01*
X172141982Y-88615695D01*
X172142476Y-88618447D01*
X172413825Y-90234124D01*
X172414257Y-90236886D01*
X172649689Y-91858127D01*
X172650060Y-91860897D01*
X172849468Y-93486964D01*
X172849778Y-93489742D01*
X173013073Y-95119915D01*
X173013320Y-95122700D01*
X173140402Y-96755993D01*
X173140588Y-96758782D01*
X173231408Y-98394537D01*
X173231532Y-98397330D01*
X173286042Y-100034692D01*
X173286104Y-100037486D01*
X173304277Y-101675655D01*
X173304277Y-101678451D01*
X173286104Y-103316620D01*
X173286042Y-103319414D01*
X173231532Y-104956776D01*
X173231408Y-104959569D01*
X173140588Y-106595324D01*
X173140402Y-106598113D01*
X173013319Y-108231406D01*
X173013072Y-108234191D01*
X172849777Y-109864363D01*
X172849467Y-109867141D01*
X172650059Y-111493208D01*
X172649688Y-111495978D01*
X172414256Y-113117220D01*
X172413824Y-113119982D01*
X172142475Y-114735658D01*
X172141981Y-114738410D01*
X171834868Y-116347608D01*
X171834314Y-116350347D01*
X171491570Y-117952370D01*
X171490955Y-117955097D01*
X171112752Y-119549140D01*
X171112076Y-119551853D01*
X170698620Y-121137049D01*
X170697885Y-121139746D01*
X170249349Y-122715435D01*
X170248554Y-122718115D01*
X169765164Y-124283489D01*
X169764309Y-124286150D01*
X169246454Y-125839990D01*
X169245332Y-125843211D01*
X169204512Y-125955467D01*
X169202358Y-125960984D01*
X169061800Y-126297393D01*
X169056727Y-126308091D01*
X168886616Y-126627190D01*
X168880562Y-126637365D01*
X168681238Y-126939105D01*
X168674255Y-126948666D01*
X168447498Y-127230355D01*
X168439648Y-127239219D01*
X168187456Y-127498375D01*
X168178809Y-127506463D01*
X167903395Y-127740811D01*
X167894028Y-127748052D01*
X167597828Y-127955518D01*
X167587822Y-127961847D01*
X167273471Y-128140586D01*
X167262914Y-128145948D01*
X166933174Y-128294391D01*
X166922162Y-128298739D01*
X166579932Y-128415582D01*
X166568559Y-128418877D01*
X166216881Y-128503077D01*
X166205250Y-128505290D01*
X165847214Y-128556111D01*
X165835427Y-128557222D01*
X165527084Y-128571724D01*
X165471029Y-128574361D01*
X165465114Y-128574500D01*
X133372060Y-128574500D01*
X132767278Y-128611082D01*
X132165840Y-128684110D01*
X132165833Y-128684111D01*
X131569885Y-128793323D01*
X130981600Y-128938322D01*
X130403159Y-129118571D01*
X129836654Y-129333418D01*
X129284153Y-129582079D01*
X129284151Y-129582080D01*
X128747678Y-129863643D01*
X128747667Y-129863648D01*
X128229202Y-130177071D01*
X128229174Y-130177089D01*
X127730563Y-130521255D01*
X127253609Y-130894926D01*
X127253608Y-130894927D01*
X126800117Y-131296684D01*
X126800095Y-131296705D01*
X126371705Y-131725095D01*
X126371684Y-131725117D01*
X125969927Y-132178608D01*
X125969926Y-132178609D01*
X125596255Y-132655563D01*
X125252089Y-133154174D01*
X125252080Y-133154188D01*
X125064328Y-133464769D01*
X125011970Y-133512717D01*
X124942000Y-133524747D01*
X124876633Y-133497038D01*
X124836624Y-133438388D01*
X124830500Y-133399584D01*
X124830500Y-132283367D01*
X124830499Y-132283350D01*
X124823990Y-132222803D01*
X124823988Y-132222795D01*
X124772889Y-132085797D01*
X124772887Y-132085792D01*
X124685261Y-131968738D01*
X124568207Y-131881112D01*
X124568202Y-131881110D01*
X124431204Y-131830011D01*
X124431196Y-131830009D01*
X124370649Y-131823500D01*
X124370638Y-131823500D01*
X123781500Y-131823500D01*
X123713379Y-131803498D01*
X123666886Y-131749842D01*
X123655500Y-131697500D01*
X123655500Y-131659607D01*
X123655499Y-131659603D01*
X123653446Y-131649281D01*
X123631155Y-131537215D01*
X123583400Y-131421925D01*
X123579730Y-131416433D01*
X123558520Y-131348680D01*
X123558500Y-131346437D01*
X123558500Y-131260522D01*
X123558499Y-131260518D01*
X123523587Y-131085000D01*
X123455102Y-130919664D01*
X123355678Y-130770865D01*
X123229135Y-130644322D01*
X123080336Y-130544898D01*
X122963429Y-130496473D01*
X122915003Y-130476414D01*
X122915001Y-130476413D01*
X122915000Y-130476413D01*
X122819334Y-130457384D01*
X122739481Y-130441500D01*
X122739479Y-130441500D01*
X122560521Y-130441500D01*
X122560518Y-130441500D01*
X122429771Y-130467507D01*
X122385000Y-130476413D01*
X122384999Y-130476413D01*
X122384996Y-130476414D01*
X122219662Y-130544899D01*
X122070869Y-130644319D01*
X122070862Y-130644324D01*
X121944324Y-130770862D01*
X121944319Y-130770869D01*
X121844899Y-130919662D01*
X121776414Y-131084996D01*
X121741500Y-131260518D01*
X121741500Y-131260521D01*
X121741500Y-131439479D01*
X121776413Y-131615000D01*
X121776414Y-131615002D01*
X121776415Y-131615007D01*
X121790612Y-131649281D01*
X121798202Y-131719870D01*
X121766424Y-131783358D01*
X121705366Y-131819586D01*
X121676720Y-131823183D01*
X121676728Y-131823320D01*
X121674825Y-131823421D01*
X121674204Y-131823500D01*
X121673350Y-131823500D01*
X121612803Y-131830009D01*
X121612795Y-131830011D01*
X121475797Y-131881110D01*
X121475792Y-131881112D01*
X121358738Y-131968738D01*
X121271112Y-132085792D01*
X121271110Y-132085797D01*
X121220011Y-132222795D01*
X121220009Y-132222803D01*
X121213500Y-132283350D01*
X121213500Y-132318729D01*
X121193498Y-132386850D01*
X121139842Y-132433343D01*
X121069568Y-132443447D01*
X121004988Y-132413953D01*
X120998405Y-132407824D01*
X120903673Y-132313092D01*
X120903652Y-132313073D01*
X120721615Y-132173391D01*
X120721608Y-132173386D01*
X120522900Y-132058662D01*
X120522892Y-132058658D01*
X120522888Y-132058656D01*
X120310887Y-131970842D01*
X120089238Y-131911452D01*
X120089231Y-131911450D01*
X119861736Y-131881500D01*
X119861734Y-131881500D01*
X119632266Y-131881500D01*
X119632263Y-131881500D01*
X119404768Y-131911450D01*
X119183113Y-131970842D01*
X118971110Y-132058657D01*
X118971099Y-132058662D01*
X118772391Y-132173386D01*
X118772384Y-132173391D01*
X118590347Y-132313073D01*
X118590326Y-132313092D01*
X118428092Y-132475326D01*
X118428073Y-132475347D01*
X118288391Y-132657384D01*
X118288386Y-132657391D01*
X118173662Y-132856099D01*
X118173657Y-132856110D01*
X118085842Y-133068113D01*
X118026450Y-133289768D01*
X117996500Y-133517263D01*
X117996500Y-133746736D01*
X118026450Y-133974231D01*
X118026452Y-133974238D01*
X118085842Y-134195887D01*
X118173656Y-134407888D01*
X118173657Y-134407889D01*
X118173662Y-134407900D01*
X118288386Y-134606608D01*
X118288391Y-134606615D01*
X118428073Y-134788652D01*
X118428092Y-134788673D01*
X118590326Y-134950907D01*
X118590347Y-134950926D01*
X118772384Y-135090608D01*
X118772391Y-135090613D01*
X118971099Y-135205337D01*
X118971103Y-135205338D01*
X118971112Y-135205344D01*
X119183113Y-135293158D01*
X119404762Y-135352548D01*
X119404766Y-135352548D01*
X119404768Y-135352549D01*
X119463398Y-135360267D01*
X119632266Y-135382500D01*
X119632273Y-135382500D01*
X119861727Y-135382500D01*
X119861734Y-135382500D01*
X120067345Y-135355430D01*
X120089231Y-135352549D01*
X120089231Y-135352548D01*
X120089238Y-135352548D01*
X120310887Y-135293158D01*
X120522888Y-135205344D01*
X120721612Y-135090611D01*
X120903661Y-134950919D01*
X120918298Y-134936282D01*
X120998405Y-134856176D01*
X121060717Y-134822150D01*
X121131532Y-134827215D01*
X121188368Y-134869762D01*
X121213179Y-134936282D01*
X121213500Y-134945271D01*
X121213500Y-134980649D01*
X121220009Y-135041196D01*
X121220011Y-135041204D01*
X121271110Y-135178202D01*
X121271112Y-135178207D01*
X121358738Y-135295261D01*
X121475792Y-135382887D01*
X121475794Y-135382888D01*
X121475796Y-135382889D01*
X121534875Y-135404924D01*
X121612795Y-135433988D01*
X121612803Y-135433990D01*
X121673350Y-135440499D01*
X121673355Y-135440499D01*
X121673362Y-135440500D01*
X123987326Y-135440500D01*
X124055447Y-135460502D01*
X124101940Y-135514158D01*
X124112044Y-135584432D01*
X124107621Y-135603985D01*
X124013322Y-135906600D01*
X123868323Y-136494885D01*
X123759111Y-137090833D01*
X123759110Y-137090840D01*
X123686082Y-137692278D01*
X123649500Y-138297059D01*
X123649500Y-143095878D01*
X123649230Y-143104118D01*
X123649230Y-143104119D01*
X123633148Y-143349482D01*
X123630997Y-143365822D01*
X123583832Y-143602937D01*
X123579566Y-143618858D01*
X123501854Y-143847789D01*
X123495547Y-143863015D01*
X123388620Y-144079842D01*
X123380379Y-144094116D01*
X123246066Y-144295129D01*
X123236033Y-144308204D01*
X123076627Y-144489972D01*
X123064972Y-144501627D01*
X122883204Y-144661033D01*
X122870129Y-144671066D01*
X122669116Y-144805379D01*
X122654842Y-144813620D01*
X122438015Y-144920547D01*
X122422789Y-144926854D01*
X122193858Y-145004566D01*
X122177937Y-145008832D01*
X121940822Y-145055997D01*
X121924482Y-145058148D01*
X121679119Y-145074230D01*
X121670878Y-145074500D01*
X108904122Y-145074500D01*
X108895881Y-145074230D01*
X108650517Y-145058148D01*
X108634177Y-145055997D01*
X108397062Y-145008832D01*
X108381141Y-145004566D01*
X108152210Y-144926854D01*
X108136984Y-144920547D01*
X107920153Y-144813618D01*
X107905887Y-144805381D01*
X107704867Y-144671063D01*
X107691795Y-144661033D01*
X107510027Y-144501627D01*
X107498372Y-144489972D01*
X107338966Y-144308204D01*
X107328937Y-144295135D01*
X107194615Y-144094108D01*
X107186384Y-144079851D01*
X107079448Y-143863005D01*
X107073149Y-143847799D01*
X106995430Y-143618850D01*
X106991169Y-143602945D01*
X106944000Y-143365810D01*
X106941852Y-143349492D01*
X106925770Y-143104118D01*
X106925500Y-143095878D01*
X106925500Y-137295318D01*
X108145600Y-137295318D01*
X108145600Y-137468682D01*
X108172720Y-137639912D01*
X108172721Y-137639917D01*
X108189738Y-137692289D01*
X108226292Y-137804791D01*
X108226293Y-137804792D01*
X108305000Y-137959263D01*
X108406900Y-138099516D01*
X108529483Y-138222099D01*
X108529486Y-138222101D01*
X108669740Y-138324002D01*
X108824209Y-138402708D01*
X108989082Y-138456278D01*
X108989083Y-138456278D01*
X108989088Y-138456280D01*
X109160318Y-138483400D01*
X109160321Y-138483400D01*
X109333679Y-138483400D01*
X109333682Y-138483400D01*
X109504912Y-138456280D01*
X109669791Y-138402708D01*
X109824260Y-138324002D01*
X109964514Y-138222101D01*
X110087101Y-138099514D01*
X110189002Y-137959260D01*
X110267708Y-137804791D01*
X110321280Y-137639912D01*
X110348400Y-137468682D01*
X110348400Y-137295318D01*
X110341730Y-137253204D01*
X112782000Y-137253204D01*
X112782000Y-137510795D01*
X112815620Y-137766167D01*
X112815621Y-137766173D01*
X112815622Y-137766175D01*
X112882290Y-138014984D01*
X112980864Y-138252962D01*
X112980865Y-138252963D01*
X112980870Y-138252974D01*
X113109659Y-138476043D01*
X113266460Y-138680388D01*
X113266479Y-138680409D01*
X113448590Y-138862520D01*
X113448600Y-138862529D01*
X113448606Y-138862535D01*
X113448609Y-138862537D01*
X113448611Y-138862539D01*
X113652956Y-139019340D01*
X113876025Y-139148129D01*
X113876029Y-139148130D01*
X113876038Y-139148136D01*
X114114016Y-139246710D01*
X114362825Y-139313378D01*
X114362831Y-139313378D01*
X114362832Y-139313379D01*
X114392134Y-139317236D01*
X114618207Y-139347000D01*
X114618214Y-139347000D01*
X114875786Y-139347000D01*
X114875793Y-139347000D01*
X115131175Y-139313378D01*
X115379984Y-139246710D01*
X115617962Y-139148136D01*
X115841038Y-139019343D01*
X115841038Y-139019342D01*
X115841043Y-139019340D01*
X115959717Y-138928277D01*
X116045394Y-138862535D01*
X116227535Y-138680394D01*
X116297328Y-138589438D01*
X116384340Y-138476043D01*
X116426680Y-138402709D01*
X116513136Y-138252962D01*
X116611710Y-138014984D01*
X116678378Y-137766175D01*
X116712000Y-137510793D01*
X116712000Y-137295318D01*
X119145600Y-137295318D01*
X119145600Y-137468682D01*
X119172720Y-137639912D01*
X119172721Y-137639917D01*
X119189738Y-137692289D01*
X119226292Y-137804791D01*
X119226293Y-137804792D01*
X119305000Y-137959263D01*
X119406900Y-138099516D01*
X119529483Y-138222099D01*
X119529486Y-138222101D01*
X119669740Y-138324002D01*
X119824209Y-138402708D01*
X119989082Y-138456278D01*
X119989083Y-138456278D01*
X119989088Y-138456280D01*
X120160318Y-138483400D01*
X120160321Y-138483400D01*
X120333679Y-138483400D01*
X120333682Y-138483400D01*
X120504912Y-138456280D01*
X120669791Y-138402708D01*
X120824260Y-138324002D01*
X120964514Y-138222101D01*
X121087101Y-138099514D01*
X121189002Y-137959260D01*
X121267708Y-137804791D01*
X121321280Y-137639912D01*
X121348400Y-137468682D01*
X121348400Y-137295318D01*
X121321280Y-137124088D01*
X121267708Y-136959209D01*
X121189002Y-136804740D01*
X121087101Y-136664486D01*
X121087099Y-136664483D01*
X120964516Y-136541900D01*
X120824263Y-136440000D01*
X120824262Y-136439999D01*
X120824260Y-136439998D01*
X120669791Y-136361292D01*
X120669788Y-136361291D01*
X120669786Y-136361290D01*
X120504915Y-136307721D01*
X120504919Y-136307721D01*
X120473041Y-136302672D01*
X120333682Y-136280600D01*
X120160318Y-136280600D01*
X119989088Y-136307720D01*
X119989082Y-136307721D01*
X119824213Y-136361290D01*
X119824207Y-136361293D01*
X119669736Y-136440000D01*
X119529483Y-136541900D01*
X119406900Y-136664483D01*
X119305000Y-136804736D01*
X119226293Y-136959207D01*
X119226290Y-136959213D01*
X119172721Y-137124082D01*
X119172720Y-137124087D01*
X119172720Y-137124088D01*
X119145600Y-137295318D01*
X116712000Y-137295318D01*
X116712000Y-137253207D01*
X116678378Y-136997825D01*
X116611710Y-136749016D01*
X116513136Y-136511038D01*
X116513130Y-136511029D01*
X116513129Y-136511025D01*
X116384340Y-136287956D01*
X116227539Y-136083611D01*
X116227537Y-136083609D01*
X116227535Y-136083606D01*
X116227529Y-136083600D01*
X116227520Y-136083590D01*
X116045409Y-135901479D01*
X116045388Y-135901460D01*
X115841043Y-135744659D01*
X115617974Y-135615870D01*
X115617966Y-135615866D01*
X115617962Y-135615864D01*
X115379984Y-135517290D01*
X115131175Y-135450622D01*
X115131173Y-135450621D01*
X115131167Y-135450620D01*
X114875795Y-135417000D01*
X114875793Y-135417000D01*
X114618207Y-135417000D01*
X114618204Y-135417000D01*
X114362832Y-135450620D01*
X114362825Y-135450622D01*
X114114016Y-135517290D01*
X113904717Y-135603985D01*
X113876036Y-135615865D01*
X113876025Y-135615870D01*
X113652956Y-135744659D01*
X113448611Y-135901460D01*
X113448590Y-135901479D01*
X113266479Y-136083590D01*
X113266460Y-136083611D01*
X113109659Y-136287956D01*
X112980870Y-136511025D01*
X112980865Y-136511036D01*
X112882290Y-136749016D01*
X112815620Y-136997832D01*
X112782000Y-137253204D01*
X110341730Y-137253204D01*
X110321280Y-137124088D01*
X110267708Y-136959209D01*
X110189002Y-136804740D01*
X110087101Y-136664486D01*
X110087099Y-136664483D01*
X109964516Y-136541900D01*
X109824263Y-136440000D01*
X109824262Y-136439999D01*
X109824260Y-136439998D01*
X109669791Y-136361292D01*
X109669788Y-136361291D01*
X109669786Y-136361290D01*
X109504915Y-136307721D01*
X109504919Y-136307721D01*
X109473041Y-136302672D01*
X109333682Y-136280600D01*
X109160318Y-136280600D01*
X108989088Y-136307720D01*
X108989082Y-136307721D01*
X108824213Y-136361290D01*
X108824207Y-136361293D01*
X108669736Y-136440000D01*
X108529483Y-136541900D01*
X108406900Y-136664483D01*
X108305000Y-136804736D01*
X108226293Y-136959207D01*
X108226290Y-136959213D01*
X108172721Y-137124082D01*
X108172720Y-137124087D01*
X108172720Y-137124088D01*
X108145600Y-137295318D01*
X106925500Y-137295318D01*
X106925500Y-134788652D01*
X106925500Y-132780597D01*
X109664000Y-132780597D01*
X109670505Y-132841093D01*
X109721555Y-132977964D01*
X109721555Y-132977965D01*
X109809095Y-133094904D01*
X109926034Y-133182444D01*
X110062906Y-133233494D01*
X110123402Y-133239999D01*
X110123415Y-133240000D01*
X111218000Y-133240000D01*
X111726000Y-133240000D01*
X112820585Y-133240000D01*
X112820597Y-133239999D01*
X112881093Y-133233494D01*
X113017964Y-133182444D01*
X113017965Y-133182444D01*
X113134904Y-133094904D01*
X113222444Y-132977965D01*
X113222444Y-132977964D01*
X113273494Y-132841093D01*
X113279999Y-132780597D01*
X113280000Y-132780585D01*
X113280000Y-132744771D01*
X113300002Y-132676650D01*
X113353658Y-132630157D01*
X113423932Y-132620053D01*
X113488512Y-132649547D01*
X113495095Y-132655676D01*
X113590326Y-132750907D01*
X113590347Y-132750926D01*
X113772384Y-132890608D01*
X113772391Y-132890613D01*
X113971099Y-133005337D01*
X113971103Y-133005338D01*
X113971112Y-133005344D01*
X114183113Y-133093158D01*
X114404762Y-133152548D01*
X114404766Y-133152548D01*
X114404768Y-133152549D01*
X114463398Y-133160267D01*
X114632266Y-133182500D01*
X114632273Y-133182500D01*
X114861727Y-133182500D01*
X114861734Y-133182500D01*
X115076888Y-133154174D01*
X115089231Y-133152549D01*
X115089231Y-133152548D01*
X115089238Y-133152548D01*
X115310887Y-133093158D01*
X115522888Y-133005344D01*
X115721612Y-132890611D01*
X115903661Y-132750919D01*
X116065919Y-132588661D01*
X116205611Y-132406612D01*
X116320344Y-132207888D01*
X116408158Y-131995887D01*
X116467548Y-131774238D01*
X116497500Y-131546734D01*
X116497500Y-131317266D01*
X116467548Y-131089762D01*
X116408158Y-130868113D01*
X116320344Y-130656112D01*
X116320338Y-130656103D01*
X116320337Y-130656099D01*
X116205613Y-130457391D01*
X116205608Y-130457384D01*
X116065926Y-130275347D01*
X116065907Y-130275326D01*
X115903673Y-130113092D01*
X115903652Y-130113073D01*
X115721615Y-129973391D01*
X115721608Y-129973386D01*
X115522900Y-129858662D01*
X115522892Y-129858658D01*
X115522888Y-129858656D01*
X115310887Y-129770842D01*
X115089238Y-129711452D01*
X115089231Y-129711450D01*
X114861736Y-129681500D01*
X114861734Y-129681500D01*
X114632266Y-129681500D01*
X114632263Y-129681500D01*
X114404768Y-129711450D01*
X114183113Y-129770842D01*
X113971110Y-129858657D01*
X113971099Y-129858662D01*
X113772391Y-129973386D01*
X113772384Y-129973391D01*
X113590347Y-130113073D01*
X113590326Y-130113092D01*
X113495095Y-130208324D01*
X113432783Y-130242350D01*
X113361968Y-130237285D01*
X113305132Y-130194738D01*
X113280321Y-130128218D01*
X113280000Y-130119229D01*
X113280000Y-130083414D01*
X113279999Y-130083402D01*
X113273494Y-130022906D01*
X113222444Y-129886035D01*
X113222444Y-129886034D01*
X113134904Y-129769095D01*
X113017965Y-129681555D01*
X112881093Y-129630505D01*
X112820597Y-129624000D01*
X111726000Y-129624000D01*
X111726000Y-133240000D01*
X111218000Y-133240000D01*
X111218000Y-131686000D01*
X109664000Y-131686000D01*
X109664000Y-132780597D01*
X106925500Y-132780597D01*
X106925500Y-127786051D01*
X108058139Y-127786051D01*
X108078948Y-127930785D01*
X108139691Y-128063794D01*
X108177911Y-128111223D01*
X108177916Y-128111228D01*
X108177925Y-128111238D01*
X109448761Y-129382074D01*
X109448770Y-129382082D01*
X109448777Y-129382089D01*
X109496206Y-129420309D01*
X109629215Y-129481052D01*
X109773949Y-129501861D01*
X109773950Y-129501860D01*
X109773952Y-129501861D01*
X109782960Y-129501861D01*
X109782960Y-129504103D01*
X109840926Y-129512434D01*
X109894584Y-129558923D01*
X109914591Y-129627043D01*
X109894594Y-129695165D01*
X109864101Y-129727918D01*
X109809096Y-129769094D01*
X109721555Y-129886034D01*
X109721555Y-129886035D01*
X109670505Y-130022906D01*
X109664000Y-130083402D01*
X109664000Y-131178000D01*
X111218000Y-131178000D01*
X111218000Y-129624000D01*
X110156090Y-129624000D01*
X110087969Y-129603998D01*
X110041476Y-129550342D01*
X110031372Y-129480068D01*
X110060866Y-129415488D01*
X110077031Y-129399890D01*
X110079405Y-129397976D01*
X110099121Y-129382089D01*
X111369987Y-128111223D01*
X111408207Y-128063794D01*
X111468950Y-127930785D01*
X111489759Y-127786051D01*
X111468950Y-127641317D01*
X111416670Y-127526841D01*
X111406568Y-127456568D01*
X111436061Y-127391987D01*
X111495787Y-127353604D01*
X111531285Y-127348500D01*
X111676913Y-127348500D01*
X111676916Y-127348500D01*
X111888116Y-127315049D01*
X112091483Y-127248972D01*
X112282009Y-127151894D01*
X112455004Y-127026206D01*
X112606206Y-126875004D01*
X112731894Y-126702009D01*
X112828972Y-126511483D01*
X112895049Y-126308116D01*
X112928500Y-126096916D01*
X112928500Y-125883084D01*
X112895049Y-125671884D01*
X112895044Y-125671869D01*
X112894747Y-125670628D01*
X112894771Y-125670136D01*
X112894274Y-125666995D01*
X112894934Y-125666890D01*
X112898295Y-125599720D01*
X112939614Y-125541987D01*
X113005588Y-125515757D01*
X113043012Y-125518433D01*
X113043046Y-125518223D01*
X113045499Y-125518611D01*
X113046679Y-125518696D01*
X113047920Y-125518993D01*
X113047935Y-125518998D01*
X113259135Y-125552449D01*
X113259138Y-125552449D01*
X113472964Y-125552449D01*
X113472967Y-125552449D01*
X113684167Y-125518998D01*
X113887534Y-125452921D01*
X114078060Y-125355843D01*
X114251055Y-125230155D01*
X114395808Y-125085402D01*
X118850000Y-125085402D01*
X118850000Y-125730000D01*
X119777297Y-125730000D01*
X119742075Y-125791007D01*
X119708000Y-125918174D01*
X119708000Y-126049826D01*
X119742075Y-126176993D01*
X119777297Y-126238000D01*
X118850000Y-126238000D01*
X118850000Y-126882597D01*
X118856505Y-126943093D01*
X118907555Y-127079964D01*
X118907555Y-127079965D01*
X118995095Y-127196904D01*
X119112034Y-127284444D01*
X119248906Y-127335494D01*
X119309402Y-127341999D01*
X119309415Y-127342000D01*
X119954000Y-127342000D01*
X119954000Y-126414702D01*
X120015007Y-126449925D01*
X120142174Y-126484000D01*
X120273826Y-126484000D01*
X120400993Y-126449925D01*
X120462000Y-126414702D01*
X120462000Y-127342000D01*
X121106585Y-127342000D01*
X121106597Y-127341999D01*
X121167093Y-127335494D01*
X121303964Y-127284444D01*
X121303965Y-127284444D01*
X121420904Y-127196904D01*
X121508444Y-127079965D01*
X121528400Y-127026459D01*
X121559093Y-126846496D01*
X121560896Y-126842804D01*
X121560677Y-126838705D01*
X121578637Y-126806498D01*
X121590263Y-126782707D01*
X121592744Y-126781202D01*
X121594205Y-126778583D01*
X122263841Y-126108947D01*
X122282075Y-126176993D01*
X122347901Y-126291007D01*
X122440993Y-126384099D01*
X122555007Y-126449925D01*
X122623051Y-126468157D01*
X121983831Y-127107378D01*
X122036249Y-127145463D01*
X122036251Y-127145464D01*
X122226707Y-127242506D01*
X122226713Y-127242509D01*
X122429996Y-127308559D01*
X122641126Y-127342000D01*
X122854874Y-127342000D01*
X123066003Y-127308559D01*
X123269286Y-127242509D01*
X123269292Y-127242506D01*
X123459750Y-127145463D01*
X123512167Y-127107378D01*
X123512167Y-127107376D01*
X122872948Y-126468157D01*
X122940993Y-126449925D01*
X123055007Y-126384099D01*
X123148099Y-126291007D01*
X123213925Y-126176993D01*
X123232157Y-126108948D01*
X123871376Y-126748167D01*
X123871378Y-126748167D01*
X123909463Y-126695750D01*
X123910562Y-126693958D01*
X123911158Y-126693418D01*
X123912377Y-126691741D01*
X123912729Y-126691996D01*
X123963206Y-126646322D01*
X124033246Y-126634710D01*
X124098446Y-126662808D01*
X124123559Y-126691788D01*
X124123624Y-126691742D01*
X124124165Y-126692487D01*
X124125433Y-126693950D01*
X124126535Y-126695749D01*
X124164620Y-126748167D01*
X124164621Y-126748168D01*
X124803841Y-126108947D01*
X124822075Y-126176993D01*
X124887901Y-126291007D01*
X124980993Y-126384099D01*
X125095007Y-126449925D01*
X125163051Y-126468157D01*
X124523831Y-127107378D01*
X124576249Y-127145463D01*
X124576251Y-127145464D01*
X124766707Y-127242506D01*
X124766713Y-127242509D01*
X124969996Y-127308559D01*
X125181126Y-127342000D01*
X125394874Y-127342000D01*
X125606003Y-127308559D01*
X125809286Y-127242509D01*
X125809292Y-127242506D01*
X125999750Y-127145463D01*
X126052167Y-127107378D01*
X126052167Y-127107376D01*
X125412948Y-126468157D01*
X125480993Y-126449925D01*
X125595007Y-126384099D01*
X125688099Y-126291007D01*
X125753925Y-126176993D01*
X125772157Y-126108948D01*
X126411376Y-126748167D01*
X126411378Y-126748167D01*
X126449463Y-126695750D01*
X126450562Y-126693958D01*
X126451158Y-126693418D01*
X126452377Y-126691741D01*
X126452729Y-126691996D01*
X126503206Y-126646322D01*
X126573246Y-126634710D01*
X126638446Y-126662808D01*
X126663559Y-126691788D01*
X126663624Y-126691742D01*
X126664165Y-126692487D01*
X126665433Y-126693950D01*
X126666535Y-126695749D01*
X126704620Y-126748167D01*
X126704621Y-126748168D01*
X127343841Y-126108947D01*
X127362075Y-126176993D01*
X127427901Y-126291007D01*
X127520993Y-126384099D01*
X127635007Y-126449925D01*
X127703051Y-126468157D01*
X127063831Y-127107378D01*
X127116249Y-127145463D01*
X127116251Y-127145464D01*
X127306707Y-127242506D01*
X127306713Y-127242509D01*
X127509996Y-127308559D01*
X127721126Y-127342000D01*
X127934874Y-127342000D01*
X128146003Y-127308559D01*
X128349286Y-127242509D01*
X128349292Y-127242506D01*
X128539750Y-127145463D01*
X128592167Y-127107378D01*
X128592167Y-127107376D01*
X127952948Y-126468157D01*
X128020993Y-126449925D01*
X128135007Y-126384099D01*
X128228099Y-126291007D01*
X128293925Y-126176993D01*
X128312157Y-126108948D01*
X128951376Y-126748167D01*
X128951378Y-126748167D01*
X128989463Y-126695750D01*
X129086506Y-126505292D01*
X129086509Y-126505286D01*
X129152559Y-126302003D01*
X129186000Y-126090873D01*
X129186000Y-125877126D01*
X129152559Y-125665996D01*
X129086509Y-125462713D01*
X129086506Y-125462707D01*
X128989464Y-125272251D01*
X128989463Y-125272249D01*
X128951378Y-125219831D01*
X128312157Y-125859051D01*
X128293925Y-125791007D01*
X128228099Y-125676993D01*
X128135007Y-125583901D01*
X128020993Y-125518075D01*
X127952947Y-125499841D01*
X128592168Y-124860621D01*
X128592167Y-124860620D01*
X128539750Y-124822536D01*
X128539748Y-124822535D01*
X128349292Y-124725493D01*
X128349286Y-124725490D01*
X128146003Y-124659440D01*
X127934874Y-124626000D01*
X127721126Y-124626000D01*
X127509996Y-124659440D01*
X127306713Y-124725490D01*
X127306707Y-124725493D01*
X127116253Y-124822534D01*
X127063831Y-124860621D01*
X127063831Y-124860622D01*
X127703051Y-125499842D01*
X127635007Y-125518075D01*
X127520993Y-125583901D01*
X127427901Y-125676993D01*
X127362075Y-125791007D01*
X127343842Y-125859051D01*
X126704622Y-125219831D01*
X126704621Y-125219831D01*
X126666522Y-125272269D01*
X126665422Y-125274065D01*
X126664827Y-125274603D01*
X126663624Y-125276259D01*
X126663275Y-125276006D01*
X126612768Y-125321689D01*
X126542725Y-125333286D01*
X126477531Y-125305174D01*
X126452440Y-125276211D01*
X126452376Y-125276258D01*
X126451830Y-125275506D01*
X126450563Y-125274044D01*
X126449462Y-125272248D01*
X126411378Y-125219831D01*
X125772157Y-125859051D01*
X125753925Y-125791007D01*
X125688099Y-125676993D01*
X125595007Y-125583901D01*
X125480993Y-125518075D01*
X125412947Y-125499841D01*
X126052168Y-124860621D01*
X126052167Y-124860620D01*
X125999750Y-124822536D01*
X125999748Y-124822535D01*
X125809292Y-124725493D01*
X125809286Y-124725490D01*
X125606003Y-124659440D01*
X125394874Y-124626000D01*
X125181126Y-124626000D01*
X124969996Y-124659440D01*
X124766713Y-124725490D01*
X124766707Y-124725493D01*
X124576253Y-124822534D01*
X124523831Y-124860621D01*
X124523831Y-124860622D01*
X125163051Y-125499842D01*
X125095007Y-125518075D01*
X124980993Y-125583901D01*
X124887901Y-125676993D01*
X124822075Y-125791007D01*
X124803842Y-125859051D01*
X124164622Y-125219831D01*
X124164621Y-125219831D01*
X124126522Y-125272269D01*
X124125422Y-125274065D01*
X124124827Y-125274603D01*
X124123624Y-125276259D01*
X124123275Y-125276006D01*
X124072768Y-125321689D01*
X124002725Y-125333286D01*
X123937531Y-125305174D01*
X123912440Y-125276211D01*
X123912376Y-125276258D01*
X123911830Y-125275506D01*
X123910563Y-125274044D01*
X123909462Y-125272248D01*
X123871378Y-125219831D01*
X123232157Y-125859051D01*
X123213925Y-125791007D01*
X123148099Y-125676993D01*
X123055007Y-125583901D01*
X122940993Y-125518075D01*
X122872947Y-125499841D01*
X123512168Y-124860621D01*
X123512167Y-124860620D01*
X123459750Y-124822536D01*
X123459748Y-124822535D01*
X123269292Y-124725493D01*
X123269286Y-124725490D01*
X123066003Y-124659440D01*
X122854874Y-124626000D01*
X122641126Y-124626000D01*
X122429996Y-124659440D01*
X122226713Y-124725490D01*
X122226707Y-124725493D01*
X122036253Y-124822534D01*
X121983831Y-124860621D01*
X121983831Y-124860622D01*
X122623051Y-125499842D01*
X122555007Y-125518075D01*
X122440993Y-125583901D01*
X122347901Y-125676993D01*
X122282075Y-125791007D01*
X122263842Y-125859051D01*
X121594204Y-125189413D01*
X121560178Y-125127101D01*
X121559092Y-125121501D01*
X121528400Y-124941541D01*
X121508443Y-124888033D01*
X121420904Y-124771095D01*
X121303965Y-124683555D01*
X121167093Y-124632505D01*
X121106597Y-124626000D01*
X120462000Y-124626000D01*
X120462000Y-125553297D01*
X120400993Y-125518075D01*
X120273826Y-125484000D01*
X120142174Y-125484000D01*
X120015007Y-125518075D01*
X119954000Y-125553297D01*
X119954000Y-124626000D01*
X119309402Y-124626000D01*
X119248906Y-124632505D01*
X119112035Y-124683555D01*
X119112034Y-124683555D01*
X118995095Y-124771095D01*
X118907555Y-124888034D01*
X118907555Y-124888035D01*
X118856505Y-125024906D01*
X118850000Y-125085402D01*
X114395808Y-125085402D01*
X114402257Y-125078953D01*
X114527945Y-124905958D01*
X114625023Y-124715432D01*
X114691100Y-124512065D01*
X114724551Y-124300865D01*
X114724551Y-124087033D01*
X114691100Y-123875833D01*
X114691096Y-123875823D01*
X114690797Y-123874572D01*
X114690821Y-123874079D01*
X114690325Y-123870944D01*
X114690983Y-123870839D01*
X114694347Y-123803664D01*
X114735669Y-123745932D01*
X114801644Y-123719705D01*
X114839064Y-123722381D01*
X114839098Y-123722171D01*
X114841544Y-123722558D01*
X114842726Y-123722643D01*
X114843977Y-123722942D01*
X114843987Y-123722946D01*
X115055187Y-123756397D01*
X115055190Y-123756397D01*
X115269016Y-123756397D01*
X115269019Y-123756397D01*
X115480219Y-123722946D01*
X115683586Y-123656869D01*
X115874112Y-123559791D01*
X116047107Y-123434103D01*
X116198309Y-123282901D01*
X116323997Y-123109906D01*
X116421075Y-122919380D01*
X116487152Y-122716013D01*
X116520603Y-122504813D01*
X116520603Y-122290981D01*
X116487152Y-122079781D01*
X116421075Y-121876414D01*
X116323997Y-121685888D01*
X116198309Y-121512893D01*
X116198306Y-121512890D01*
X116198304Y-121512887D01*
X116047112Y-121361695D01*
X116047109Y-121361693D01*
X116047107Y-121361691D01*
X115916884Y-121267079D01*
X115874115Y-121236005D01*
X115874114Y-121236004D01*
X115874112Y-121236003D01*
X115683586Y-121138925D01*
X115683583Y-121138924D01*
X115683581Y-121138923D01*
X115480223Y-121072849D01*
X115480226Y-121072849D01*
X115440904Y-121066621D01*
X115269019Y-121039397D01*
X115055187Y-121039397D01*
X114843987Y-121072848D01*
X114843981Y-121072849D01*
X114640624Y-121138923D01*
X114640618Y-121138926D01*
X114450090Y-121236005D01*
X114277096Y-121361693D01*
X114277093Y-121361695D01*
X114125901Y-121512887D01*
X114125899Y-121512890D01*
X114000211Y-121685884D01*
X113903132Y-121876412D01*
X113903129Y-121876418D01*
X113837055Y-122079775D01*
X113837054Y-122079780D01*
X113837054Y-122079781D01*
X113803603Y-122290981D01*
X113803603Y-122504813D01*
X113837054Y-122716013D01*
X113837057Y-122716031D01*
X113837359Y-122717288D01*
X113837334Y-122717779D01*
X113837829Y-122720902D01*
X113837172Y-122721005D01*
X113833801Y-122788195D01*
X113792472Y-122845922D01*
X113726494Y-122872141D01*
X113689089Y-122869465D01*
X113689056Y-122869675D01*
X113686620Y-122869289D01*
X113685442Y-122869205D01*
X113684185Y-122868903D01*
X113684167Y-122868900D01*
X113472967Y-122835449D01*
X113259135Y-122835449D01*
X113047935Y-122868900D01*
X113047929Y-122868901D01*
X112844572Y-122934975D01*
X112844566Y-122934978D01*
X112654038Y-123032057D01*
X112481044Y-123157745D01*
X112481041Y-123157747D01*
X112329849Y-123308939D01*
X112329847Y-123308942D01*
X112204159Y-123481936D01*
X112107080Y-123672464D01*
X112107077Y-123672470D01*
X112041003Y-123875827D01*
X112041002Y-123875832D01*
X112041002Y-123875833D01*
X112007551Y-124087033D01*
X112007551Y-124300865D01*
X112029370Y-124438621D01*
X112041004Y-124512079D01*
X112041306Y-124513334D01*
X112041281Y-124513824D01*
X112041777Y-124516954D01*
X112041119Y-124517058D01*
X112037751Y-124584242D01*
X111996424Y-124641970D01*
X111930447Y-124668192D01*
X111893038Y-124665516D01*
X111893005Y-124665726D01*
X111890563Y-124665339D01*
X111889385Y-124665255D01*
X111888130Y-124664953D01*
X111821827Y-124654451D01*
X111676916Y-124631500D01*
X111463084Y-124631500D01*
X111251884Y-124664951D01*
X111251878Y-124664952D01*
X111048521Y-124731026D01*
X111048515Y-124731029D01*
X110857987Y-124828108D01*
X110684993Y-124953796D01*
X110684990Y-124953798D01*
X110533798Y-125104990D01*
X110533796Y-125104993D01*
X110408108Y-125277987D01*
X110311029Y-125468515D01*
X110311026Y-125468521D01*
X110244952Y-125671878D01*
X110244952Y-125671881D01*
X110244951Y-125671884D01*
X110214181Y-125866162D01*
X110211500Y-125883087D01*
X110211500Y-126028715D01*
X110191498Y-126096836D01*
X110137842Y-126143329D01*
X110067568Y-126153433D01*
X110033158Y-126143329D01*
X109918683Y-126091050D01*
X109773949Y-126070241D01*
X109629214Y-126091050D01*
X109496205Y-126151793D01*
X109448780Y-126190010D01*
X109448761Y-126190027D01*
X108177925Y-127460863D01*
X108177908Y-127460882D01*
X108139691Y-127508307D01*
X108131227Y-127526842D01*
X108078948Y-127641317D01*
X108058139Y-127786051D01*
X106925500Y-127786051D01*
X106925500Y-126146730D01*
X106925556Y-126143056D01*
X106943601Y-125546154D01*
X106944058Y-125538614D01*
X106997951Y-124945819D01*
X106998862Y-124938314D01*
X107088468Y-124349846D01*
X107089828Y-124342428D01*
X107214819Y-123760440D01*
X107216627Y-123753110D01*
X107376543Y-123179745D01*
X107378797Y-123172515D01*
X107573045Y-122609893D01*
X107575731Y-122602810D01*
X107803627Y-122052911D01*
X107806731Y-122046019D01*
X108067418Y-121510909D01*
X108070930Y-121504221D01*
X108363483Y-120985804D01*
X108367382Y-120979359D01*
X108690711Y-120479570D01*
X108695006Y-120473353D01*
X109047917Y-119994033D01*
X109052594Y-119988066D01*
X109433822Y-119530933D01*
X109438828Y-119525286D01*
X109846979Y-119092009D01*
X109852345Y-119086648D01*
X109860659Y-119078828D01*
X110285919Y-118678822D01*
X110291569Y-118673821D01*
X110748970Y-118292945D01*
X110754961Y-118288256D01*
X110829236Y-118233654D01*
X111234534Y-117935706D01*
X111240766Y-117931408D01*
X111742222Y-117607526D01*
X111745351Y-117605572D01*
X115079415Y-115592270D01*
X115083631Y-115589835D01*
X115415046Y-115406977D01*
X115423719Y-115402621D01*
X115766064Y-115247013D01*
X115775086Y-115243327D01*
X116128418Y-115114726D01*
X116137690Y-115111752D01*
X116499951Y-115010910D01*
X116509444Y-115008660D01*
X116878412Y-114936193D01*
X116888029Y-114934688D01*
X117261514Y-114891027D01*
X117271246Y-114890271D01*
X117649219Y-114875594D01*
X117654108Y-114875499D01*
X129366650Y-114875499D01*
X129366654Y-114875500D01*
X129391715Y-114875500D01*
X129489718Y-114875500D01*
X129489720Y-114875500D01*
X129666433Y-114844340D01*
X129666438Y-114844338D01*
X129666439Y-114844338D01*
X129666440Y-114844338D01*
X129835043Y-114782972D01*
X129835045Y-114782970D01*
X129835050Y-114782969D01*
X129990449Y-114693249D01*
X130127908Y-114577908D01*
X130243249Y-114440449D01*
X130332969Y-114285050D01*
X130332972Y-114285043D01*
X130394338Y-114116440D01*
X130394338Y-114116439D01*
X130394338Y-114116438D01*
X130394340Y-114116433D01*
X130425500Y-113939720D01*
X130425500Y-113850000D01*
X130425500Y-113841715D01*
X130425500Y-89339438D01*
X130425500Y-89260280D01*
X130394340Y-89083567D01*
X130394338Y-89083562D01*
X130394338Y-89083560D01*
X130394338Y-89083559D01*
X130332972Y-88914956D01*
X130332966Y-88914945D01*
X130243251Y-88759553D01*
X130243249Y-88759551D01*
X130168174Y-88670080D01*
X130127908Y-88622092D01*
X129990449Y-88506751D01*
X129990448Y-88506750D01*
X129990446Y-88506748D01*
X129835054Y-88417033D01*
X129835043Y-88417027D01*
X129666439Y-88355661D01*
X129607521Y-88345272D01*
X129489720Y-88324500D01*
X129489718Y-88324500D01*
X117654282Y-88324500D01*
X117649397Y-88324405D01*
X117624180Y-88323426D01*
X117271246Y-88309728D01*
X117261505Y-88308971D01*
X116888045Y-88265319D01*
X116878391Y-88263809D01*
X116509445Y-88191350D01*
X116499938Y-88189097D01*
X116137711Y-88088266D01*
X116128407Y-88085283D01*
X115775077Y-87956686D01*
X115766031Y-87952990D01*
X115521610Y-87841891D01*
X115423743Y-87797406D01*
X115415015Y-87793023D01*
X115083993Y-87610381D01*
X115079731Y-87607920D01*
X115008661Y-87565004D01*
X111745602Y-85594577D01*
X111742375Y-85592562D01*
X111240789Y-85268597D01*
X111234520Y-85264274D01*
X110754965Y-84911737D01*
X110748969Y-84907043D01*
X110391732Y-84609574D01*
X110291593Y-84526189D01*
X110285899Y-84521149D01*
X110253978Y-84491124D01*
X110011196Y-84262759D01*
X109852350Y-84113346D01*
X109846964Y-84107964D01*
X109830443Y-84090426D01*
X109438848Y-83674724D01*
X109433813Y-83669044D01*
X109052611Y-83211941D01*
X109047913Y-83205948D01*
X108793180Y-82859973D01*
X108695023Y-82726657D01*
X108690701Y-82720400D01*
X108675047Y-82696202D01*
X108367398Y-82220651D01*
X108363481Y-82214176D01*
X108070943Y-81695788D01*
X108067417Y-81689072D01*
X107806743Y-81153989D01*
X107803628Y-81147073D01*
X107575743Y-80597197D01*
X107573045Y-80590084D01*
X107566929Y-80572370D01*
X107378807Y-80027492D01*
X107376544Y-80020232D01*
X107354022Y-79939481D01*
X107216636Y-79446894D01*
X107214825Y-79439549D01*
X107089836Y-78857576D01*
X107088474Y-78850146D01*
X106998870Y-78261688D01*
X106997957Y-78254175D01*
X106944065Y-77661386D01*
X106943608Y-77653842D01*
X106931697Y-77259827D01*
X106925559Y-77056764D01*
X106925501Y-77052961D01*
X106925500Y-77021745D01*
X106925500Y-75420000D01*
X108064190Y-75420000D01*
X108084999Y-75564734D01*
X108145742Y-75697743D01*
X108183962Y-75745172D01*
X108183967Y-75745177D01*
X108183976Y-75745187D01*
X109454812Y-77016023D01*
X109454821Y-77016031D01*
X109454828Y-77016038D01*
X109502257Y-77054258D01*
X109635266Y-77115001D01*
X109780000Y-77135810D01*
X109924734Y-77115001D01*
X110039210Y-77062721D01*
X110109482Y-77052617D01*
X110174063Y-77082110D01*
X110212447Y-77141836D01*
X110217551Y-77177335D01*
X110217551Y-77322967D01*
X110250976Y-77534003D01*
X110251003Y-77534172D01*
X110310082Y-77716000D01*
X110317079Y-77737534D01*
X110414157Y-77928060D01*
X110539845Y-78101055D01*
X110539847Y-78101057D01*
X110539849Y-78101060D01*
X110691041Y-78252252D01*
X110691044Y-78252254D01*
X110691047Y-78252257D01*
X110864042Y-78377945D01*
X111054568Y-78475023D01*
X111257929Y-78541098D01*
X111257930Y-78541098D01*
X111257935Y-78541100D01*
X111469135Y-78574551D01*
X111469138Y-78574551D01*
X111682964Y-78574551D01*
X111682967Y-78574551D01*
X111894167Y-78541100D01*
X111894187Y-78541093D01*
X111895417Y-78540799D01*
X111895908Y-78540823D01*
X111899056Y-78540325D01*
X111899160Y-78540986D01*
X111966325Y-78544344D01*
X112024060Y-78585662D01*
X112050292Y-78651635D01*
X112047618Y-78689063D01*
X112047828Y-78689097D01*
X112047442Y-78691533D01*
X112047358Y-78692711D01*
X112047056Y-78693967D01*
X112047053Y-78693986D01*
X112013602Y-78905186D01*
X112013602Y-79119018D01*
X112037653Y-79270869D01*
X112047054Y-79330223D01*
X112096980Y-79483880D01*
X112113130Y-79533585D01*
X112210208Y-79724111D01*
X112335896Y-79897106D01*
X112335898Y-79897108D01*
X112335900Y-79897111D01*
X112487092Y-80048303D01*
X112487095Y-80048305D01*
X112487098Y-80048308D01*
X112660093Y-80173996D01*
X112850619Y-80271074D01*
X113053980Y-80337149D01*
X113053981Y-80337149D01*
X113053986Y-80337151D01*
X113265186Y-80370602D01*
X113265189Y-80370602D01*
X113479015Y-80370602D01*
X113479018Y-80370602D01*
X113690218Y-80337151D01*
X113690235Y-80337145D01*
X113691474Y-80336849D01*
X113691965Y-80336873D01*
X113695107Y-80336376D01*
X113695211Y-80337036D01*
X113762382Y-80340397D01*
X113820115Y-80381716D01*
X113846345Y-80447690D01*
X113843671Y-80485115D01*
X113843880Y-80485149D01*
X113843495Y-80487577D01*
X113843411Y-80488758D01*
X113843108Y-80490017D01*
X113840926Y-80503796D01*
X113809654Y-80701238D01*
X113809654Y-80915070D01*
X113837598Y-81091500D01*
X113843106Y-81126275D01*
X113890986Y-81273636D01*
X113909182Y-81329637D01*
X114006260Y-81520163D01*
X114131948Y-81693158D01*
X114131950Y-81693160D01*
X114131952Y-81693163D01*
X114283144Y-81844355D01*
X114283147Y-81844357D01*
X114283150Y-81844360D01*
X114456145Y-81970048D01*
X114646671Y-82067126D01*
X114850032Y-82133201D01*
X114850033Y-82133201D01*
X114850038Y-82133203D01*
X115061238Y-82166654D01*
X115061241Y-82166654D01*
X115275067Y-82166654D01*
X115275070Y-82166654D01*
X115486270Y-82133203D01*
X115689637Y-82067126D01*
X115880163Y-81970048D01*
X116053158Y-81844360D01*
X116204360Y-81693158D01*
X116330048Y-81520163D01*
X116427126Y-81329637D01*
X116493203Y-81126270D01*
X116526654Y-80915070D01*
X116526654Y-80701238D01*
X116493203Y-80490038D01*
X116427126Y-80286671D01*
X116330048Y-80096145D01*
X116204360Y-79923150D01*
X116204357Y-79923147D01*
X116204355Y-79923144D01*
X116053163Y-79771952D01*
X116053160Y-79771950D01*
X116053158Y-79771948D01*
X115922935Y-79677336D01*
X115880166Y-79646262D01*
X115880165Y-79646261D01*
X115880163Y-79646260D01*
X115689637Y-79549182D01*
X115689634Y-79549181D01*
X115689632Y-79549180D01*
X115486274Y-79483106D01*
X115486277Y-79483106D01*
X115446955Y-79476878D01*
X115275070Y-79449654D01*
X115061238Y-79449654D01*
X114935981Y-79469492D01*
X114850017Y-79483108D01*
X114848758Y-79483411D01*
X114848266Y-79483386D01*
X114845149Y-79483880D01*
X114845045Y-79483224D01*
X114777850Y-79479850D01*
X114720125Y-79438519D01*
X114693908Y-79372541D01*
X114696586Y-79335140D01*
X114696376Y-79335107D01*
X114696764Y-79332654D01*
X114696849Y-79331474D01*
X114697145Y-79330235D01*
X114697151Y-79330218D01*
X114730602Y-79119018D01*
X114730602Y-78905186D01*
X114697151Y-78693986D01*
X114631074Y-78490619D01*
X114533996Y-78300093D01*
X114408308Y-78127098D01*
X114408305Y-78127095D01*
X114408303Y-78127092D01*
X114257111Y-77975900D01*
X114257108Y-77975898D01*
X114257106Y-77975896D01*
X114084111Y-77850208D01*
X113893585Y-77753130D01*
X113893582Y-77753129D01*
X113893580Y-77753128D01*
X113690222Y-77687054D01*
X113690225Y-77687054D01*
X113650903Y-77680826D01*
X113479018Y-77653602D01*
X113265186Y-77653602D01*
X113086363Y-77681925D01*
X113053967Y-77687056D01*
X113052711Y-77687358D01*
X113052219Y-77687333D01*
X113049097Y-77687828D01*
X113048993Y-77687171D01*
X112981804Y-77683800D01*
X112924077Y-77642471D01*
X112897858Y-77576493D01*
X112900536Y-77539089D01*
X112900325Y-77539056D01*
X112900714Y-77536596D01*
X112900799Y-77535417D01*
X112901093Y-77534187D01*
X112901100Y-77534167D01*
X112934551Y-77322967D01*
X112934551Y-77109135D01*
X112901100Y-76897935D01*
X112835023Y-76694568D01*
X112737945Y-76504042D01*
X112612257Y-76331047D01*
X112612254Y-76331044D01*
X112612252Y-76331041D01*
X112461060Y-76179849D01*
X112461057Y-76179847D01*
X112461055Y-76179845D01*
X112288582Y-76054536D01*
X112288063Y-76054159D01*
X112288062Y-76054158D01*
X112288060Y-76054157D01*
X112097534Y-75957079D01*
X112097531Y-75957078D01*
X112097529Y-75957077D01*
X111894171Y-75891003D01*
X111894174Y-75891003D01*
X111854852Y-75884775D01*
X111682967Y-75857551D01*
X111537336Y-75857551D01*
X111469215Y-75837549D01*
X111422722Y-75783893D01*
X111412618Y-75713619D01*
X111422722Y-75679209D01*
X111424541Y-75675226D01*
X111475001Y-75564734D01*
X111495810Y-75420000D01*
X111475001Y-75275266D01*
X111414258Y-75142257D01*
X111376038Y-75094828D01*
X111376031Y-75094821D01*
X111376023Y-75094812D01*
X110105187Y-73823976D01*
X110105177Y-73823967D01*
X110105172Y-73823962D01*
X110057743Y-73785742D01*
X109924734Y-73724999D01*
X109780000Y-73704190D01*
X109635265Y-73724999D01*
X109502256Y-73785742D01*
X109454831Y-73823959D01*
X109454812Y-73823976D01*
X108183976Y-75094812D01*
X108183959Y-75094831D01*
X108145742Y-75142256D01*
X108106545Y-75228087D01*
X108084999Y-75275266D01*
X108064190Y-75420000D01*
X106925500Y-75420000D01*
X106925500Y-65763318D01*
X108198600Y-65763318D01*
X108198600Y-65936682D01*
X108225720Y-66107912D01*
X108225721Y-66107917D01*
X108266742Y-66234167D01*
X108279292Y-66272791D01*
X108279293Y-66272792D01*
X108358000Y-66427263D01*
X108459900Y-66567516D01*
X108582483Y-66690099D01*
X108603162Y-66705123D01*
X108722740Y-66792002D01*
X108877209Y-66870708D01*
X109042082Y-66924278D01*
X109042083Y-66924278D01*
X109042088Y-66924280D01*
X109213318Y-66951400D01*
X109213321Y-66951400D01*
X109386679Y-66951400D01*
X109386682Y-66951400D01*
X109557912Y-66924280D01*
X109722791Y-66870708D01*
X109877260Y-66792002D01*
X110017514Y-66690101D01*
X110140101Y-66567514D01*
X110242002Y-66427260D01*
X110320708Y-66272791D01*
X110374280Y-66107912D01*
X110401400Y-65936682D01*
X110401400Y-65763318D01*
X110374280Y-65592088D01*
X110320708Y-65427209D01*
X110242002Y-65272740D01*
X110140101Y-65132486D01*
X110140099Y-65132483D01*
X110017516Y-65009900D01*
X109877263Y-64908000D01*
X109877262Y-64907999D01*
X109877260Y-64907998D01*
X109722791Y-64829292D01*
X109722788Y-64829291D01*
X109722786Y-64829290D01*
X109557915Y-64775721D01*
X109557919Y-64775721D01*
X109526041Y-64770672D01*
X109386682Y-64748600D01*
X109213318Y-64748600D01*
X109042088Y-64775720D01*
X109042082Y-64775721D01*
X108877213Y-64829290D01*
X108877207Y-64829293D01*
X108722736Y-64908000D01*
X108582483Y-65009900D01*
X108459900Y-65132483D01*
X108358000Y-65272736D01*
X108279293Y-65427207D01*
X108279290Y-65427213D01*
X108225721Y-65592082D01*
X108225720Y-65592087D01*
X108225720Y-65592088D01*
X108198600Y-65763318D01*
X106925500Y-65763318D01*
X106925500Y-60104120D01*
X106925770Y-60095880D01*
X106931088Y-60014736D01*
X106941852Y-59850504D01*
X106944000Y-59834191D01*
X106991170Y-59597050D01*
X106995429Y-59581153D01*
X107073151Y-59352194D01*
X107079445Y-59336999D01*
X107186387Y-59120141D01*
X107194611Y-59105898D01*
X107328942Y-58904857D01*
X107338962Y-58891799D01*
X107498378Y-58710020D01*
X107510020Y-58698378D01*
X107691799Y-58538962D01*
X107704857Y-58528942D01*
X107905898Y-58394611D01*
X107920141Y-58386387D01*
X108136999Y-58279445D01*
X108152194Y-58273151D01*
X108381153Y-58195429D01*
X108397050Y-58191170D01*
X108634191Y-58144000D01*
X108650505Y-58141852D01*
X108869931Y-58127470D01*
X108895882Y-58125770D01*
X108904122Y-58125500D01*
X108908285Y-58125500D01*
X109693295Y-58125500D01*
X109761416Y-58145502D01*
G37*
G04 #@! TD.AperFunction*
G04 #@! TA.AperFunction,Conductor*
G36*
X144254084Y-110244316D02*
G01*
X144281222Y-110264936D01*
X146479595Y-112463309D01*
X146513621Y-112525621D01*
X146516500Y-112552404D01*
X146516500Y-113016406D01*
X146496498Y-113084527D01*
X146442842Y-113131020D01*
X146372568Y-113141124D01*
X146307988Y-113111630D01*
X146301405Y-113105501D01*
X143810067Y-110614163D01*
X143776041Y-110551851D01*
X143781106Y-110481036D01*
X143823653Y-110424200D01*
X143841960Y-110412801D01*
X143842283Y-110412636D01*
X143842290Y-110412634D01*
X144025803Y-110319129D01*
X144118070Y-110252093D01*
X144184933Y-110228237D01*
X144254084Y-110244316D01*
G37*
G04 #@! TD.AperFunction*
G04 #@! TA.AperFunction,Conductor*
G36*
X147167505Y-94505482D02*
G01*
X147180288Y-94504935D01*
X147200474Y-94516717D01*
X147222598Y-94524257D01*
X147232020Y-94535131D01*
X147241604Y-94540725D01*
X147262263Y-94570032D01*
X147300871Y-94645803D01*
X147421932Y-94812430D01*
X147421934Y-94812432D01*
X147421936Y-94812435D01*
X147567564Y-94958063D01*
X147567567Y-94958065D01*
X147567570Y-94958068D01*
X147734197Y-95079129D01*
X147917710Y-95172634D01*
X147929431Y-95176442D01*
X147988039Y-95216514D01*
X148015678Y-95281909D01*
X148016500Y-95296277D01*
X148016500Y-103662396D01*
X148026185Y-103711086D01*
X148040845Y-103784785D01*
X148088600Y-103900075D01*
X148157929Y-104003833D01*
X148157931Y-104003835D01*
X148704595Y-104550499D01*
X148738621Y-104612811D01*
X148741500Y-104639594D01*
X148741500Y-104689481D01*
X148776414Y-104865003D01*
X148789067Y-104895549D01*
X148844898Y-105030336D01*
X148944322Y-105179135D01*
X149070865Y-105305678D01*
X149219664Y-105405102D01*
X149385000Y-105473587D01*
X149560521Y-105508500D01*
X149560522Y-105508500D01*
X149739478Y-105508500D01*
X149739479Y-105508500D01*
X149915000Y-105473587D01*
X150080336Y-105405102D01*
X150229135Y-105305678D01*
X150355678Y-105179135D01*
X150455102Y-105030336D01*
X150523587Y-104865000D01*
X150558500Y-104689479D01*
X150558500Y-104510521D01*
X150523587Y-104335000D01*
X150455102Y-104169664D01*
X150355678Y-104020865D01*
X150229135Y-103894322D01*
X150080336Y-103794898D01*
X149963429Y-103746473D01*
X149915003Y-103726414D01*
X149915001Y-103726413D01*
X149915000Y-103726413D01*
X149826645Y-103708838D01*
X149739481Y-103691500D01*
X149739479Y-103691500D01*
X149689595Y-103691500D01*
X149621474Y-103671498D01*
X149600500Y-103654595D01*
X149320405Y-103374500D01*
X149286379Y-103312188D01*
X149283500Y-103285405D01*
X149283500Y-98356928D01*
X149303502Y-98288807D01*
X149357158Y-98242314D01*
X149427432Y-98232210D01*
X149434048Y-98233343D01*
X149560521Y-98258500D01*
X149560522Y-98258500D01*
X149739478Y-98258500D01*
X149739479Y-98258500D01*
X149915000Y-98223587D01*
X150080336Y-98155102D01*
X150130501Y-98121582D01*
X150198250Y-98100369D01*
X150266717Y-98119151D01*
X150314161Y-98171968D01*
X150326500Y-98226349D01*
X150326500Y-101189016D01*
X150316909Y-101237234D01*
X150276415Y-101334994D01*
X150276413Y-101334999D01*
X150241500Y-101510518D01*
X150241500Y-101689481D01*
X150244711Y-101705624D01*
X150276413Y-101865000D01*
X150344898Y-102030336D01*
X150444322Y-102179135D01*
X150570865Y-102305678D01*
X150719664Y-102405102D01*
X150885000Y-102473587D01*
X151060521Y-102508500D01*
X151060522Y-102508500D01*
X151239478Y-102508500D01*
X151239479Y-102508500D01*
X151365921Y-102483349D01*
X151436632Y-102489677D01*
X151492699Y-102533231D01*
X151516319Y-102600183D01*
X151516500Y-102606928D01*
X151516500Y-107412396D01*
X151517901Y-107419439D01*
X151540845Y-107534785D01*
X151588600Y-107650075D01*
X151657929Y-107753833D01*
X151657931Y-107753835D01*
X151774779Y-107870683D01*
X151808805Y-107932995D01*
X151803740Y-108003810D01*
X151761193Y-108060646D01*
X151694673Y-108085457D01*
X151628481Y-108072045D01*
X151606109Y-108060646D01*
X151462290Y-107987366D01*
X151462287Y-107987365D01*
X151462285Y-107987364D01*
X151266412Y-107923721D01*
X151266410Y-107923720D01*
X151266408Y-107923720D01*
X151062981Y-107891500D01*
X150857019Y-107891500D01*
X150653592Y-107923720D01*
X150653590Y-107923720D01*
X150653587Y-107923721D01*
X150457714Y-107987364D01*
X150457708Y-107987367D01*
X150274193Y-108080873D01*
X150107567Y-108201934D01*
X150107564Y-108201936D01*
X149961936Y-108347564D01*
X149961934Y-108347567D01*
X149840873Y-108514193D01*
X149802267Y-108589962D01*
X149753518Y-108641577D01*
X149684603Y-108658643D01*
X149617402Y-108635742D01*
X149577733Y-108589962D01*
X149539129Y-108514197D01*
X149418068Y-108347570D01*
X149418065Y-108347567D01*
X149418063Y-108347564D01*
X149272435Y-108201936D01*
X149272432Y-108201934D01*
X149272430Y-108201932D01*
X149106391Y-108081298D01*
X149105806Y-108080873D01*
X149105805Y-108080872D01*
X149105803Y-108080871D01*
X148922290Y-107987366D01*
X148922287Y-107987365D01*
X148922285Y-107987364D01*
X148726412Y-107923721D01*
X148726410Y-107923720D01*
X148726408Y-107923720D01*
X148522981Y-107891500D01*
X148317019Y-107891500D01*
X148113592Y-107923720D01*
X148113590Y-107923720D01*
X148113587Y-107923721D01*
X147917714Y-107987364D01*
X147917708Y-107987367D01*
X147734193Y-108080873D01*
X147567567Y-108201934D01*
X147567564Y-108201936D01*
X147421936Y-108347564D01*
X147421934Y-108347567D01*
X147300873Y-108514193D01*
X147262267Y-108589962D01*
X147213518Y-108641577D01*
X147144603Y-108658643D01*
X147077402Y-108635742D01*
X147037733Y-108589962D01*
X146999129Y-108514197D01*
X146878068Y-108347570D01*
X146878065Y-108347567D01*
X146878063Y-108347564D01*
X146732435Y-108201936D01*
X146732432Y-108201934D01*
X146732430Y-108201932D01*
X146566391Y-108081298D01*
X146565806Y-108080873D01*
X146565805Y-108080872D01*
X146565803Y-108080871D01*
X146382290Y-107987366D01*
X146382287Y-107987365D01*
X146382285Y-107987364D01*
X146186412Y-107923721D01*
X146186410Y-107923720D01*
X146186408Y-107923720D01*
X145982981Y-107891500D01*
X145777019Y-107891500D01*
X145573592Y-107923720D01*
X145573590Y-107923720D01*
X145573587Y-107923721D01*
X145448436Y-107964385D01*
X145377468Y-107966412D01*
X145316670Y-107929750D01*
X145285345Y-107866037D01*
X145283500Y-107844552D01*
X145283500Y-95504594D01*
X145292283Y-95474678D01*
X145298912Y-95444209D01*
X145302726Y-95439113D01*
X145303502Y-95436473D01*
X145320405Y-95415499D01*
X145464341Y-95271563D01*
X145526653Y-95237537D01*
X145573147Y-95236209D01*
X145573588Y-95236278D01*
X145573592Y-95236280D01*
X145777019Y-95268500D01*
X145777022Y-95268500D01*
X145982978Y-95268500D01*
X145982981Y-95268500D01*
X146186408Y-95236280D01*
X146382290Y-95172634D01*
X146565803Y-95079129D01*
X146732430Y-94958068D01*
X146878068Y-94812430D01*
X146999129Y-94645803D01*
X147037734Y-94570034D01*
X147046517Y-94560735D01*
X147051329Y-94548881D01*
X147070432Y-94535414D01*
X147086481Y-94518422D01*
X147098899Y-94515346D01*
X147109357Y-94507975D01*
X147132709Y-94506974D01*
X147155396Y-94501356D01*
X147167505Y-94505482D01*
G37*
G04 #@! TD.AperFunction*
G04 #@! TA.AperFunction,Conductor*
G36*
X143976347Y-95196815D02*
G01*
X144012582Y-95257868D01*
X144016500Y-95289045D01*
X144016500Y-107870954D01*
X143996498Y-107939075D01*
X143942842Y-107985568D01*
X143872568Y-107995672D01*
X143847069Y-107988677D01*
X143846998Y-107988896D01*
X143842295Y-107987368D01*
X143842292Y-107987367D01*
X143842290Y-107987366D01*
X143693666Y-107939075D01*
X143646412Y-107923721D01*
X143646410Y-107923720D01*
X143646408Y-107923720D01*
X143442981Y-107891500D01*
X143237019Y-107891500D01*
X143077586Y-107916752D01*
X143033585Y-107923721D01*
X142948435Y-107951388D01*
X142877468Y-107953415D01*
X142816670Y-107916752D01*
X142785345Y-107853040D01*
X142783500Y-107831555D01*
X142783500Y-106260991D01*
X142803502Y-106192870D01*
X142820405Y-106171895D01*
X142961964Y-106030336D01*
X143142072Y-105850229D01*
X143211401Y-105746471D01*
X143259155Y-105631181D01*
X143283500Y-105508790D01*
X143283500Y-105384002D01*
X143283500Y-95394500D01*
X143303502Y-95326379D01*
X143357158Y-95279886D01*
X143409500Y-95268500D01*
X143442978Y-95268500D01*
X143442981Y-95268500D01*
X143646408Y-95236280D01*
X143842290Y-95172634D01*
X143842291Y-95172633D01*
X143846998Y-95171104D01*
X143847320Y-95172097D01*
X143912855Y-95165044D01*
X143976347Y-95196815D01*
G37*
G04 #@! TD.AperFunction*
G04 #@! TA.AperFunction,Conductor*
G36*
X139602598Y-94524257D02*
G01*
X139642264Y-94570034D01*
X139680871Y-94645803D01*
X139801932Y-94812430D01*
X139801934Y-94812432D01*
X139801936Y-94812435D01*
X139947564Y-94958063D01*
X139947567Y-94958065D01*
X139947570Y-94958068D01*
X140114197Y-95079129D01*
X140297710Y-95172634D01*
X140493592Y-95236280D01*
X140697019Y-95268500D01*
X140697022Y-95268500D01*
X140902978Y-95268500D01*
X140902981Y-95268500D01*
X141106408Y-95236280D01*
X141302290Y-95172634D01*
X141333297Y-95156834D01*
X141403072Y-95143730D01*
X141468857Y-95170429D01*
X141509764Y-95228456D01*
X141516500Y-95269101D01*
X141516500Y-104995405D01*
X141496498Y-105063526D01*
X141479595Y-105084500D01*
X138675658Y-107888436D01*
X138613346Y-107922462D01*
X138566853Y-107923790D01*
X138429325Y-107902008D01*
X138362981Y-107891500D01*
X138228594Y-107891500D01*
X138160473Y-107871498D01*
X138113980Y-107817842D01*
X138103876Y-107747568D01*
X138133370Y-107682988D01*
X138139499Y-107676404D01*
X138177020Y-107638883D01*
X139142072Y-106673833D01*
X139211401Y-106570075D01*
X139259155Y-106454784D01*
X139268997Y-106405308D01*
X139283500Y-106332394D01*
X139283500Y-98053503D01*
X139303502Y-97985382D01*
X139320405Y-97964408D01*
X139326500Y-97958313D01*
X139355678Y-97929135D01*
X139455102Y-97780336D01*
X139523587Y-97615000D01*
X139558500Y-97439479D01*
X139558500Y-97260521D01*
X139523587Y-97085000D01*
X139455102Y-96919664D01*
X139355678Y-96770865D01*
X139229135Y-96644322D01*
X139080336Y-96544898D01*
X138963429Y-96496473D01*
X138915003Y-96476414D01*
X138915001Y-96476413D01*
X138915000Y-96476413D01*
X138826645Y-96458838D01*
X138739481Y-96441500D01*
X138739479Y-96441500D01*
X138560521Y-96441500D01*
X138560518Y-96441500D01*
X138429771Y-96467507D01*
X138385000Y-96476413D01*
X138384999Y-96476413D01*
X138384996Y-96476414D01*
X138219662Y-96544899D01*
X138070869Y-96644319D01*
X138070862Y-96644324D01*
X137944324Y-96770862D01*
X137944319Y-96770869D01*
X137942364Y-96773796D01*
X137844898Y-96919664D01*
X137836310Y-96940398D01*
X137776414Y-97084996D01*
X137741500Y-97260518D01*
X137741500Y-97314629D01*
X137721498Y-97382750D01*
X137667842Y-97429243D01*
X137597568Y-97439347D01*
X137532988Y-97409853D01*
X137526405Y-97403724D01*
X135606276Y-95483595D01*
X135572250Y-95421283D01*
X135577315Y-95350468D01*
X135619862Y-95293632D01*
X135686382Y-95268821D01*
X135695371Y-95268500D01*
X135822978Y-95268500D01*
X135822981Y-95268500D01*
X136026408Y-95236280D01*
X136222290Y-95172634D01*
X136405803Y-95079129D01*
X136572430Y-94958068D01*
X136718068Y-94812430D01*
X136839129Y-94645803D01*
X136877734Y-94570034D01*
X136926481Y-94518422D01*
X136995396Y-94501356D01*
X137062598Y-94524257D01*
X137102264Y-94570034D01*
X137140871Y-94645803D01*
X137261932Y-94812430D01*
X137261934Y-94812432D01*
X137261936Y-94812435D01*
X137407564Y-94958063D01*
X137407567Y-94958065D01*
X137407570Y-94958068D01*
X137574197Y-95079129D01*
X137757710Y-95172634D01*
X137953592Y-95236280D01*
X138157019Y-95268500D01*
X138157022Y-95268500D01*
X138362978Y-95268500D01*
X138362981Y-95268500D01*
X138566408Y-95236280D01*
X138762290Y-95172634D01*
X138945803Y-95079129D01*
X139112430Y-94958068D01*
X139258068Y-94812430D01*
X139379129Y-94645803D01*
X139417734Y-94570034D01*
X139466481Y-94518422D01*
X139535396Y-94501356D01*
X139602598Y-94524257D01*
G37*
G04 #@! TD.AperFunction*
G04 #@! TA.AperFunction,Conductor*
G36*
X131967012Y-80813370D02*
G01*
X131973595Y-80819499D01*
X133579595Y-82425499D01*
X133613621Y-82487811D01*
X133616500Y-82514594D01*
X133616500Y-84366406D01*
X133596498Y-84434527D01*
X133542842Y-84481020D01*
X133472568Y-84491124D01*
X133407988Y-84461630D01*
X133401405Y-84455501D01*
X132593835Y-83647931D01*
X132593833Y-83647929D01*
X132490075Y-83578600D01*
X132374785Y-83530845D01*
X132301086Y-83516185D01*
X132252396Y-83506500D01*
X132252394Y-83506500D01*
X131679109Y-83506500D01*
X131610988Y-83486498D01*
X131566844Y-83437706D01*
X131566830Y-83437678D01*
X131561894Y-83427991D01*
X131560713Y-83426366D01*
X131531164Y-83385695D01*
X131436206Y-83254996D01*
X131436203Y-83254993D01*
X131436201Y-83254990D01*
X131333229Y-83152018D01*
X131299203Y-83089706D01*
X131304268Y-83018891D01*
X131346815Y-82962055D01*
X131378284Y-82944871D01*
X131496204Y-82900889D01*
X131613261Y-82813261D01*
X131700887Y-82696207D01*
X131700887Y-82696206D01*
X131700889Y-82696204D01*
X131751989Y-82559201D01*
X131758500Y-82498638D01*
X131758500Y-80908594D01*
X131778502Y-80840473D01*
X131832158Y-80793980D01*
X131902432Y-80783876D01*
X131967012Y-80813370D01*
G37*
G04 #@! TD.AperFunction*
G04 #@! TA.AperFunction,Conductor*
G36*
X122282075Y-77408993D02*
G01*
X122347901Y-77523007D01*
X122440993Y-77616099D01*
X122555007Y-77681925D01*
X122623051Y-77700157D01*
X121980627Y-78342581D01*
X121980235Y-78344444D01*
X121982247Y-78358432D01*
X121973080Y-78378503D01*
X121968544Y-78400096D01*
X121958622Y-78410159D01*
X121952753Y-78423012D01*
X121934192Y-78434940D01*
X121918701Y-78450654D01*
X121903692Y-78454541D01*
X121893027Y-78461396D01*
X121857529Y-78466500D01*
X121632280Y-78466500D01*
X121564159Y-78446498D01*
X121517666Y-78392842D01*
X121507562Y-78322568D01*
X121514224Y-78296467D01*
X121559495Y-78175091D01*
X121559496Y-78175087D01*
X121564017Y-78133019D01*
X121560677Y-78070705D01*
X121594205Y-78010583D01*
X122263841Y-77340947D01*
X122282075Y-77408993D01*
G37*
G04 #@! TD.AperFunction*
G04 #@! TA.AperFunction,Conductor*
G36*
X124822075Y-77408993D02*
G01*
X124887901Y-77523007D01*
X124980993Y-77616099D01*
X125095007Y-77681925D01*
X125163051Y-77700157D01*
X124520627Y-78342581D01*
X124508544Y-78400096D01*
X124458701Y-78450654D01*
X124397529Y-78466500D01*
X123638469Y-78466500D01*
X123570348Y-78446498D01*
X123523855Y-78392842D01*
X123514885Y-78342094D01*
X122872948Y-77700157D01*
X122940993Y-77681925D01*
X123055007Y-77616099D01*
X123148099Y-77523007D01*
X123213925Y-77408993D01*
X123232157Y-77340948D01*
X123871376Y-77980167D01*
X123871378Y-77980167D01*
X123909463Y-77927750D01*
X123910562Y-77925958D01*
X123911158Y-77925418D01*
X123912377Y-77923741D01*
X123912729Y-77923996D01*
X123963206Y-77878322D01*
X124033246Y-77866710D01*
X124098446Y-77894808D01*
X124123559Y-77923788D01*
X124123624Y-77923742D01*
X124124165Y-77924487D01*
X124125433Y-77925950D01*
X124126535Y-77927749D01*
X124164620Y-77980167D01*
X124164621Y-77980168D01*
X124803841Y-77340947D01*
X124822075Y-77408993D01*
G37*
G04 #@! TD.AperFunction*
G04 #@! TA.AperFunction,Conductor*
G36*
X127362075Y-77408993D02*
G01*
X127427901Y-77523007D01*
X127520993Y-77616099D01*
X127635007Y-77681925D01*
X127703051Y-77700157D01*
X127060627Y-78342581D01*
X127048544Y-78400096D01*
X126998701Y-78450654D01*
X126937529Y-78466500D01*
X126178469Y-78466500D01*
X126110348Y-78446498D01*
X126063855Y-78392842D01*
X126054885Y-78342094D01*
X125412948Y-77700157D01*
X125480993Y-77681925D01*
X125595007Y-77616099D01*
X125688099Y-77523007D01*
X125753925Y-77408993D01*
X125772157Y-77340948D01*
X126411376Y-77980167D01*
X126411378Y-77980167D01*
X126449463Y-77927750D01*
X126450562Y-77925958D01*
X126451158Y-77925418D01*
X126452377Y-77923741D01*
X126452729Y-77923996D01*
X126503206Y-77878322D01*
X126573246Y-77866710D01*
X126638446Y-77894808D01*
X126663559Y-77923788D01*
X126663624Y-77923742D01*
X126664165Y-77924487D01*
X126665433Y-77925950D01*
X126666535Y-77927749D01*
X126704620Y-77980167D01*
X126704621Y-77980168D01*
X127343841Y-77340947D01*
X127362075Y-77408993D01*
G37*
G04 #@! TD.AperFunction*
M02*
