G04 #@! TF.GenerationSoftware,KiCad,Pcbnew,9.0.2*
G04 #@! TF.CreationDate,2025-10-01T13:15:07-04:00*
G04 #@! TF.ProjectId,Trackball,54726163-6b62-4616-9c6c-2e6b69636164,rev?*
G04 #@! TF.SameCoordinates,Original*
G04 #@! TF.FileFunction,Legend,Bot*
G04 #@! TF.FilePolarity,Positive*
%FSLAX46Y46*%
G04 Gerber Fmt 4.6, Leading zero omitted, Abs format (unit mm)*
G04 Created by KiCad (PCBNEW 9.0.2) date 2025-10-01 13:15:07*
%MOMM*%
%LPD*%
G01*
G04 APERTURE LIST*
%ADD10C,0.300000*%
%ADD11C,0.150000*%
%ADD12C,0.254000*%
%ADD13C,0.120000*%
%ADD14C,0.100000*%
G04 APERTURE END LIST*
D10*
X150343919Y-106457142D02*
X151843919Y-106457142D01*
X151843919Y-106457142D02*
X151843919Y-105885713D01*
X151843919Y-105885713D02*
X151772490Y-105742856D01*
X151772490Y-105742856D02*
X151701062Y-105671427D01*
X151701062Y-105671427D02*
X151558205Y-105599999D01*
X151558205Y-105599999D02*
X151343919Y-105599999D01*
X151343919Y-105599999D02*
X151201062Y-105671427D01*
X151201062Y-105671427D02*
X151129633Y-105742856D01*
X151129633Y-105742856D02*
X151058205Y-105885713D01*
X151058205Y-105885713D02*
X151058205Y-106457142D01*
X150343919Y-104957142D02*
X151343919Y-104957142D01*
X151058205Y-104957142D02*
X151201062Y-104885713D01*
X151201062Y-104885713D02*
X151272490Y-104814285D01*
X151272490Y-104814285D02*
X151343919Y-104671427D01*
X151343919Y-104671427D02*
X151343919Y-104528570D01*
X150343919Y-103814285D02*
X150415348Y-103957142D01*
X150415348Y-103957142D02*
X150486776Y-104028571D01*
X150486776Y-104028571D02*
X150629633Y-104099999D01*
X150629633Y-104099999D02*
X151058205Y-104099999D01*
X151058205Y-104099999D02*
X151201062Y-104028571D01*
X151201062Y-104028571D02*
X151272490Y-103957142D01*
X151272490Y-103957142D02*
X151343919Y-103814285D01*
X151343919Y-103814285D02*
X151343919Y-103599999D01*
X151343919Y-103599999D02*
X151272490Y-103457142D01*
X151272490Y-103457142D02*
X151201062Y-103385714D01*
X151201062Y-103385714D02*
X151058205Y-103314285D01*
X151058205Y-103314285D02*
X150629633Y-103314285D01*
X150629633Y-103314285D02*
X150486776Y-103385714D01*
X150486776Y-103385714D02*
X150415348Y-103457142D01*
X150415348Y-103457142D02*
X150343919Y-103599999D01*
X150343919Y-103599999D02*
X150343919Y-103814285D01*
X150343919Y-102671428D02*
X151843919Y-102671428D01*
X151843919Y-102671428D02*
X150772490Y-102171428D01*
X150772490Y-102171428D02*
X151843919Y-101671428D01*
X151843919Y-101671428D02*
X150343919Y-101671428D01*
X150343919Y-100957142D02*
X151343919Y-100957142D01*
X151843919Y-100957142D02*
X151772490Y-101028570D01*
X151772490Y-101028570D02*
X151701062Y-100957142D01*
X151701062Y-100957142D02*
X151772490Y-100885713D01*
X151772490Y-100885713D02*
X151843919Y-100957142D01*
X151843919Y-100957142D02*
X151701062Y-100957142D01*
X150415348Y-99599999D02*
X150343919Y-99742856D01*
X150343919Y-99742856D02*
X150343919Y-100028570D01*
X150343919Y-100028570D02*
X150415348Y-100171427D01*
X150415348Y-100171427D02*
X150486776Y-100242856D01*
X150486776Y-100242856D02*
X150629633Y-100314284D01*
X150629633Y-100314284D02*
X151058205Y-100314284D01*
X151058205Y-100314284D02*
X151201062Y-100242856D01*
X151201062Y-100242856D02*
X151272490Y-100171427D01*
X151272490Y-100171427D02*
X151343919Y-100028570D01*
X151343919Y-100028570D02*
X151343919Y-99742856D01*
X151343919Y-99742856D02*
X151272490Y-99599999D01*
X150343919Y-98957142D02*
X151343919Y-98957142D01*
X151058205Y-98957142D02*
X151201062Y-98885713D01*
X151201062Y-98885713D02*
X151272490Y-98814285D01*
X151272490Y-98814285D02*
X151343919Y-98671427D01*
X151343919Y-98671427D02*
X151343919Y-98528570D01*
X150343919Y-97814285D02*
X150415348Y-97957142D01*
X150415348Y-97957142D02*
X150486776Y-98028571D01*
X150486776Y-98028571D02*
X150629633Y-98099999D01*
X150629633Y-98099999D02*
X151058205Y-98099999D01*
X151058205Y-98099999D02*
X151201062Y-98028571D01*
X151201062Y-98028571D02*
X151272490Y-97957142D01*
X151272490Y-97957142D02*
X151343919Y-97814285D01*
X151343919Y-97814285D02*
X151343919Y-97599999D01*
X151343919Y-97599999D02*
X151272490Y-97457142D01*
X151272490Y-97457142D02*
X151201062Y-97385714D01*
X151201062Y-97385714D02*
X151058205Y-97314285D01*
X151058205Y-97314285D02*
X150629633Y-97314285D01*
X150629633Y-97314285D02*
X150486776Y-97385714D01*
X150486776Y-97385714D02*
X150415348Y-97457142D01*
X150415348Y-97457142D02*
X150343919Y-97599999D01*
X150343919Y-97599999D02*
X150343919Y-97814285D01*
X147929003Y-103421428D02*
X149429003Y-103421428D01*
X147929003Y-102778571D02*
X148714717Y-102778571D01*
X148714717Y-102778571D02*
X148857574Y-102849999D01*
X148857574Y-102849999D02*
X148929003Y-102992856D01*
X148929003Y-102992856D02*
X148929003Y-103207142D01*
X148929003Y-103207142D02*
X148857574Y-103349999D01*
X148857574Y-103349999D02*
X148786146Y-103421428D01*
X148000432Y-101492856D02*
X147929003Y-101635713D01*
X147929003Y-101635713D02*
X147929003Y-101921428D01*
X147929003Y-101921428D02*
X148000432Y-102064285D01*
X148000432Y-102064285D02*
X148143289Y-102135713D01*
X148143289Y-102135713D02*
X148714717Y-102135713D01*
X148714717Y-102135713D02*
X148857574Y-102064285D01*
X148857574Y-102064285D02*
X148929003Y-101921428D01*
X148929003Y-101921428D02*
X148929003Y-101635713D01*
X148929003Y-101635713D02*
X148857574Y-101492856D01*
X148857574Y-101492856D02*
X148714717Y-101421428D01*
X148714717Y-101421428D02*
X148571860Y-101421428D01*
X148571860Y-101421428D02*
X148429003Y-102135713D01*
X147929003Y-100778571D02*
X148929003Y-100778571D01*
X148643289Y-100778571D02*
X148786146Y-100707142D01*
X148786146Y-100707142D02*
X148857574Y-100635714D01*
X148857574Y-100635714D02*
X148929003Y-100492856D01*
X148929003Y-100492856D02*
X148929003Y-100349999D01*
X148000432Y-99278571D02*
X147929003Y-99421428D01*
X147929003Y-99421428D02*
X147929003Y-99707143D01*
X147929003Y-99707143D02*
X148000432Y-99850000D01*
X148000432Y-99850000D02*
X148143289Y-99921428D01*
X148143289Y-99921428D02*
X148714717Y-99921428D01*
X148714717Y-99921428D02*
X148857574Y-99850000D01*
X148857574Y-99850000D02*
X148929003Y-99707143D01*
X148929003Y-99707143D02*
X148929003Y-99421428D01*
X148929003Y-99421428D02*
X148857574Y-99278571D01*
X148857574Y-99278571D02*
X148714717Y-99207143D01*
X148714717Y-99207143D02*
X148571860Y-99207143D01*
X148571860Y-99207143D02*
X148429003Y-99921428D01*
X146299801Y-103778571D02*
X146299801Y-104278571D01*
X145514087Y-104278571D02*
X147014087Y-104278571D01*
X147014087Y-104278571D02*
X147014087Y-103564285D01*
X145942658Y-103064285D02*
X145942658Y-102350000D01*
X145514087Y-103207142D02*
X147014087Y-102707142D01*
X147014087Y-102707142D02*
X145514087Y-102207142D01*
X145656944Y-100850000D02*
X145585516Y-100921428D01*
X145585516Y-100921428D02*
X145514087Y-101135714D01*
X145514087Y-101135714D02*
X145514087Y-101278571D01*
X145514087Y-101278571D02*
X145585516Y-101492857D01*
X145585516Y-101492857D02*
X145728373Y-101635714D01*
X145728373Y-101635714D02*
X145871230Y-101707143D01*
X145871230Y-101707143D02*
X146156944Y-101778571D01*
X146156944Y-101778571D02*
X146371230Y-101778571D01*
X146371230Y-101778571D02*
X146656944Y-101707143D01*
X146656944Y-101707143D02*
X146799801Y-101635714D01*
X146799801Y-101635714D02*
X146942658Y-101492857D01*
X146942658Y-101492857D02*
X147014087Y-101278571D01*
X147014087Y-101278571D02*
X147014087Y-101135714D01*
X147014087Y-101135714D02*
X146942658Y-100921428D01*
X146942658Y-100921428D02*
X146871230Y-100850000D01*
X146299801Y-100207143D02*
X146299801Y-99707143D01*
X145514087Y-99492857D02*
X145514087Y-100207143D01*
X145514087Y-100207143D02*
X147014087Y-100207143D01*
X147014087Y-100207143D02*
X147014087Y-99492857D01*
X143099171Y-104171429D02*
X144599171Y-104171429D01*
X144599171Y-104171429D02*
X144599171Y-103814286D01*
X144599171Y-103814286D02*
X144527742Y-103600000D01*
X144527742Y-103600000D02*
X144384885Y-103457143D01*
X144384885Y-103457143D02*
X144242028Y-103385714D01*
X144242028Y-103385714D02*
X143956314Y-103314286D01*
X143956314Y-103314286D02*
X143742028Y-103314286D01*
X143742028Y-103314286D02*
X143456314Y-103385714D01*
X143456314Y-103385714D02*
X143313457Y-103457143D01*
X143313457Y-103457143D02*
X143170600Y-103600000D01*
X143170600Y-103600000D02*
X143099171Y-103814286D01*
X143099171Y-103814286D02*
X143099171Y-104171429D01*
X144599171Y-102385714D02*
X144599171Y-102100000D01*
X144599171Y-102100000D02*
X144527742Y-101957143D01*
X144527742Y-101957143D02*
X144384885Y-101814286D01*
X144384885Y-101814286D02*
X144099171Y-101742857D01*
X144099171Y-101742857D02*
X143599171Y-101742857D01*
X143599171Y-101742857D02*
X143313457Y-101814286D01*
X143313457Y-101814286D02*
X143170600Y-101957143D01*
X143170600Y-101957143D02*
X143099171Y-102100000D01*
X143099171Y-102100000D02*
X143099171Y-102385714D01*
X143099171Y-102385714D02*
X143170600Y-102528572D01*
X143170600Y-102528572D02*
X143313457Y-102671429D01*
X143313457Y-102671429D02*
X143599171Y-102742857D01*
X143599171Y-102742857D02*
X144099171Y-102742857D01*
X144099171Y-102742857D02*
X144384885Y-102671429D01*
X144384885Y-102671429D02*
X144527742Y-102528572D01*
X144527742Y-102528572D02*
X144599171Y-102385714D01*
X144599171Y-101242857D02*
X143099171Y-100885714D01*
X143099171Y-100885714D02*
X144170600Y-100600000D01*
X144170600Y-100600000D02*
X143099171Y-100314285D01*
X143099171Y-100314285D02*
X144599171Y-99957143D01*
X143099171Y-99385714D02*
X144599171Y-99385714D01*
X144599171Y-99385714D02*
X143099171Y-98528571D01*
X143099171Y-98528571D02*
X144599171Y-98528571D01*
X166685912Y-84492856D02*
X165185912Y-84492856D01*
X165900198Y-84492856D02*
X165900198Y-85349999D01*
X166685912Y-85349999D02*
X165185912Y-85349999D01*
X166257341Y-85992857D02*
X166257341Y-86707143D01*
X166685912Y-85850000D02*
X165185912Y-86350000D01*
X165185912Y-86350000D02*
X166685912Y-86850000D01*
X166685912Y-87349999D02*
X165185912Y-87349999D01*
X165185912Y-87349999D02*
X166685912Y-88207142D01*
X166685912Y-88207142D02*
X165185912Y-88207142D01*
X166685912Y-88921428D02*
X165185912Y-88921428D01*
X165185912Y-88921428D02*
X165185912Y-89278571D01*
X165185912Y-89278571D02*
X165257341Y-89492857D01*
X165257341Y-89492857D02*
X165400198Y-89635714D01*
X165400198Y-89635714D02*
X165543055Y-89707143D01*
X165543055Y-89707143D02*
X165828769Y-89778571D01*
X165828769Y-89778571D02*
X166043055Y-89778571D01*
X166043055Y-89778571D02*
X166328769Y-89707143D01*
X166328769Y-89707143D02*
X166471626Y-89635714D01*
X166471626Y-89635714D02*
X166614484Y-89492857D01*
X166614484Y-89492857D02*
X166685912Y-89278571D01*
X166685912Y-89278571D02*
X166685912Y-88921428D01*
X169100828Y-81528571D02*
X169100828Y-80814285D01*
X169100828Y-80814285D02*
X167600828Y-80814285D01*
X168315114Y-82028571D02*
X168315114Y-82528571D01*
X169100828Y-82742857D02*
X169100828Y-82028571D01*
X169100828Y-82028571D02*
X167600828Y-82028571D01*
X167600828Y-82028571D02*
X167600828Y-82742857D01*
X168315114Y-83885714D02*
X168315114Y-83385714D01*
X169100828Y-83385714D02*
X167600828Y-83385714D01*
X167600828Y-83385714D02*
X167600828Y-84100000D01*
X167600828Y-84457143D02*
X167600828Y-85314286D01*
X169100828Y-84885714D02*
X167600828Y-84885714D01*
X168529400Y-85814285D02*
X168529400Y-86957143D01*
X169100828Y-88528571D02*
X168386542Y-88028571D01*
X169100828Y-87671428D02*
X167600828Y-87671428D01*
X167600828Y-87671428D02*
X167600828Y-88242857D01*
X167600828Y-88242857D02*
X167672257Y-88385714D01*
X167672257Y-88385714D02*
X167743685Y-88457143D01*
X167743685Y-88457143D02*
X167886542Y-88528571D01*
X167886542Y-88528571D02*
X168100828Y-88528571D01*
X168100828Y-88528571D02*
X168243685Y-88457143D01*
X168243685Y-88457143D02*
X168315114Y-88385714D01*
X168315114Y-88385714D02*
X168386542Y-88242857D01*
X168386542Y-88242857D02*
X168386542Y-87671428D01*
X169100828Y-89171428D02*
X167600828Y-89171428D01*
X167672257Y-90671429D02*
X167600828Y-90528572D01*
X167600828Y-90528572D02*
X167600828Y-90314286D01*
X167600828Y-90314286D02*
X167672257Y-90100000D01*
X167672257Y-90100000D02*
X167815114Y-89957143D01*
X167815114Y-89957143D02*
X167957971Y-89885714D01*
X167957971Y-89885714D02*
X168243685Y-89814286D01*
X168243685Y-89814286D02*
X168457971Y-89814286D01*
X168457971Y-89814286D02*
X168743685Y-89885714D01*
X168743685Y-89885714D02*
X168886542Y-89957143D01*
X168886542Y-89957143D02*
X169029400Y-90100000D01*
X169029400Y-90100000D02*
X169100828Y-90314286D01*
X169100828Y-90314286D02*
X169100828Y-90457143D01*
X169100828Y-90457143D02*
X169029400Y-90671429D01*
X169029400Y-90671429D02*
X168957971Y-90742857D01*
X168957971Y-90742857D02*
X168457971Y-90742857D01*
X168457971Y-90742857D02*
X168457971Y-90457143D01*
X169100828Y-91385714D02*
X167600828Y-91385714D01*
X168315114Y-91385714D02*
X168315114Y-92242857D01*
X169100828Y-92242857D02*
X167600828Y-92242857D01*
X167600828Y-92742858D02*
X167600828Y-93600001D01*
X169100828Y-93171429D02*
X167600828Y-93171429D01*
D11*
X133521077Y-109013220D02*
X133521077Y-108251316D01*
X133140124Y-108632268D02*
X133902029Y-108632268D01*
X133663934Y-107441792D02*
X133616315Y-107298935D01*
X133616315Y-107298935D02*
X133568696Y-107251316D01*
X133568696Y-107251316D02*
X133473458Y-107203697D01*
X133473458Y-107203697D02*
X133330601Y-107203697D01*
X133330601Y-107203697D02*
X133235363Y-107251316D01*
X133235363Y-107251316D02*
X133187744Y-107298935D01*
X133187744Y-107298935D02*
X133140124Y-107394173D01*
X133140124Y-107394173D02*
X133140124Y-107775125D01*
X133140124Y-107775125D02*
X134140124Y-107775125D01*
X134140124Y-107775125D02*
X134140124Y-107441792D01*
X134140124Y-107441792D02*
X134092505Y-107346554D01*
X134092505Y-107346554D02*
X134044886Y-107298935D01*
X134044886Y-107298935D02*
X133949648Y-107251316D01*
X133949648Y-107251316D02*
X133854410Y-107251316D01*
X133854410Y-107251316D02*
X133759172Y-107298935D01*
X133759172Y-107298935D02*
X133711553Y-107346554D01*
X133711553Y-107346554D02*
X133663934Y-107441792D01*
X133663934Y-107441792D02*
X133663934Y-107775125D01*
X133140124Y-106346554D02*
X133663934Y-106346554D01*
X133663934Y-106346554D02*
X133759172Y-106394173D01*
X133759172Y-106394173D02*
X133806791Y-106489411D01*
X133806791Y-106489411D02*
X133806791Y-106679887D01*
X133806791Y-106679887D02*
X133759172Y-106775125D01*
X133187744Y-106346554D02*
X133140124Y-106441792D01*
X133140124Y-106441792D02*
X133140124Y-106679887D01*
X133140124Y-106679887D02*
X133187744Y-106775125D01*
X133187744Y-106775125D02*
X133282982Y-106822744D01*
X133282982Y-106822744D02*
X133378220Y-106822744D01*
X133378220Y-106822744D02*
X133473458Y-106775125D01*
X133473458Y-106775125D02*
X133521077Y-106679887D01*
X133521077Y-106679887D02*
X133521077Y-106441792D01*
X133521077Y-106441792D02*
X133568696Y-106346554D01*
X133806791Y-106013220D02*
X133806791Y-105632268D01*
X134140124Y-105870363D02*
X133282982Y-105870363D01*
X133282982Y-105870363D02*
X133187744Y-105822744D01*
X133187744Y-105822744D02*
X133140124Y-105727506D01*
X133140124Y-105727506D02*
X133140124Y-105632268D01*
X133806791Y-105441791D02*
X133806791Y-105060839D01*
X134140124Y-105298934D02*
X133282982Y-105298934D01*
X133282982Y-105298934D02*
X133187744Y-105251315D01*
X133187744Y-105251315D02*
X133140124Y-105156077D01*
X133140124Y-105156077D02*
X133140124Y-105060839D01*
X133187744Y-104346553D02*
X133140124Y-104441791D01*
X133140124Y-104441791D02*
X133140124Y-104632267D01*
X133140124Y-104632267D02*
X133187744Y-104727505D01*
X133187744Y-104727505D02*
X133282982Y-104775124D01*
X133282982Y-104775124D02*
X133663934Y-104775124D01*
X133663934Y-104775124D02*
X133759172Y-104727505D01*
X133759172Y-104727505D02*
X133806791Y-104632267D01*
X133806791Y-104632267D02*
X133806791Y-104441791D01*
X133806791Y-104441791D02*
X133759172Y-104346553D01*
X133759172Y-104346553D02*
X133663934Y-104298934D01*
X133663934Y-104298934D02*
X133568696Y-104298934D01*
X133568696Y-104298934D02*
X133473458Y-104775124D01*
X133140124Y-103870362D02*
X133806791Y-103870362D01*
X133616315Y-103870362D02*
X133711553Y-103822743D01*
X133711553Y-103822743D02*
X133759172Y-103775124D01*
X133759172Y-103775124D02*
X133806791Y-103679886D01*
X133806791Y-103679886D02*
X133806791Y-103584648D01*
X133806791Y-103346552D02*
X133140124Y-103108457D01*
X133806791Y-102870362D02*
X133140124Y-103108457D01*
X133140124Y-103108457D02*
X132902029Y-103203695D01*
X132902029Y-103203695D02*
X132854410Y-103251314D01*
X132854410Y-103251314D02*
X132806791Y-103346552D01*
X131149228Y-107965601D02*
X131196847Y-108013220D01*
X131196847Y-108013220D02*
X131339704Y-108108458D01*
X131339704Y-108108458D02*
X131434942Y-108156077D01*
X131434942Y-108156077D02*
X131577800Y-108203696D01*
X131577800Y-108203696D02*
X131815895Y-108251315D01*
X131815895Y-108251315D02*
X132006371Y-108251315D01*
X132006371Y-108251315D02*
X132244466Y-108203696D01*
X132244466Y-108203696D02*
X132387323Y-108156077D01*
X132387323Y-108156077D02*
X132482561Y-108108458D01*
X132482561Y-108108458D02*
X132625419Y-108013220D01*
X132625419Y-108013220D02*
X132673038Y-107965601D01*
X131530180Y-107013220D02*
X132006371Y-107346553D01*
X131530180Y-107584648D02*
X132530180Y-107584648D01*
X132530180Y-107584648D02*
X132530180Y-107203696D01*
X132530180Y-107203696D02*
X132482561Y-107108458D01*
X132482561Y-107108458D02*
X132434942Y-107060839D01*
X132434942Y-107060839D02*
X132339704Y-107013220D01*
X132339704Y-107013220D02*
X132196847Y-107013220D01*
X132196847Y-107013220D02*
X132101609Y-107060839D01*
X132101609Y-107060839D02*
X132053990Y-107108458D01*
X132053990Y-107108458D02*
X132006371Y-107203696D01*
X132006371Y-107203696D02*
X132006371Y-107584648D01*
X131577800Y-106203696D02*
X131530180Y-106298934D01*
X131530180Y-106298934D02*
X131530180Y-106489410D01*
X131530180Y-106489410D02*
X131577800Y-106584648D01*
X131577800Y-106584648D02*
X131673038Y-106632267D01*
X131673038Y-106632267D02*
X132053990Y-106632267D01*
X132053990Y-106632267D02*
X132149228Y-106584648D01*
X132149228Y-106584648D02*
X132196847Y-106489410D01*
X132196847Y-106489410D02*
X132196847Y-106298934D01*
X132196847Y-106298934D02*
X132149228Y-106203696D01*
X132149228Y-106203696D02*
X132053990Y-106156077D01*
X132053990Y-106156077D02*
X131958752Y-106156077D01*
X131958752Y-106156077D02*
X131863514Y-106632267D01*
X131530180Y-105298934D02*
X132530180Y-105298934D01*
X131577800Y-105298934D02*
X131530180Y-105394172D01*
X131530180Y-105394172D02*
X131530180Y-105584648D01*
X131530180Y-105584648D02*
X131577800Y-105679886D01*
X131577800Y-105679886D02*
X131625419Y-105727505D01*
X131625419Y-105727505D02*
X131720657Y-105775124D01*
X131720657Y-105775124D02*
X132006371Y-105775124D01*
X132006371Y-105775124D02*
X132101609Y-105727505D01*
X132101609Y-105727505D02*
X132149228Y-105679886D01*
X132149228Y-105679886D02*
X132196847Y-105584648D01*
X132196847Y-105584648D02*
X132196847Y-105394172D01*
X132196847Y-105394172D02*
X132149228Y-105298934D01*
X131149228Y-104917981D02*
X131196847Y-104870362D01*
X131196847Y-104870362D02*
X131339704Y-104775124D01*
X131339704Y-104775124D02*
X131434942Y-104727505D01*
X131434942Y-104727505D02*
X131577800Y-104679886D01*
X131577800Y-104679886D02*
X131815895Y-104632267D01*
X131815895Y-104632267D02*
X132006371Y-104632267D01*
X132006371Y-104632267D02*
X132244466Y-104679886D01*
X132244466Y-104679886D02*
X132387323Y-104727505D01*
X132387323Y-104727505D02*
X132482561Y-104775124D01*
X132482561Y-104775124D02*
X132625419Y-104870362D01*
X132625419Y-104870362D02*
X132673038Y-104917981D01*
D10*
X143681203Y-126389828D02*
X144181203Y-125675542D01*
X144538346Y-126389828D02*
X144538346Y-124889828D01*
X144538346Y-124889828D02*
X143966917Y-124889828D01*
X143966917Y-124889828D02*
X143824060Y-124961257D01*
X143824060Y-124961257D02*
X143752631Y-125032685D01*
X143752631Y-125032685D02*
X143681203Y-125175542D01*
X143681203Y-125175542D02*
X143681203Y-125389828D01*
X143681203Y-125389828D02*
X143752631Y-125532685D01*
X143752631Y-125532685D02*
X143824060Y-125604114D01*
X143824060Y-125604114D02*
X143966917Y-125675542D01*
X143966917Y-125675542D02*
X144538346Y-125675542D01*
X143038346Y-125604114D02*
X142538346Y-125604114D01*
X142324060Y-126389828D02*
X143038346Y-126389828D01*
X143038346Y-126389828D02*
X143038346Y-124889828D01*
X143038346Y-124889828D02*
X142324060Y-124889828D01*
X141752631Y-126318400D02*
X141538346Y-126389828D01*
X141538346Y-126389828D02*
X141181203Y-126389828D01*
X141181203Y-126389828D02*
X141038346Y-126318400D01*
X141038346Y-126318400D02*
X140966917Y-126246971D01*
X140966917Y-126246971D02*
X140895488Y-126104114D01*
X140895488Y-126104114D02*
X140895488Y-125961257D01*
X140895488Y-125961257D02*
X140966917Y-125818400D01*
X140966917Y-125818400D02*
X141038346Y-125746971D01*
X141038346Y-125746971D02*
X141181203Y-125675542D01*
X141181203Y-125675542D02*
X141466917Y-125604114D01*
X141466917Y-125604114D02*
X141609774Y-125532685D01*
X141609774Y-125532685D02*
X141681203Y-125461257D01*
X141681203Y-125461257D02*
X141752631Y-125318400D01*
X141752631Y-125318400D02*
X141752631Y-125175542D01*
X141752631Y-125175542D02*
X141681203Y-125032685D01*
X141681203Y-125032685D02*
X141609774Y-124961257D01*
X141609774Y-124961257D02*
X141466917Y-124889828D01*
X141466917Y-124889828D02*
X141109774Y-124889828D01*
X141109774Y-124889828D02*
X140895488Y-124961257D01*
X140252632Y-125604114D02*
X139752632Y-125604114D01*
X139538346Y-126389828D02*
X140252632Y-126389828D01*
X140252632Y-126389828D02*
X140252632Y-124889828D01*
X140252632Y-124889828D02*
X139538346Y-124889828D01*
X139109774Y-124889828D02*
X138252632Y-124889828D01*
X138681203Y-126389828D02*
X138681203Y-124889828D01*
D11*
X128510839Y-82172200D02*
X128367982Y-82219819D01*
X128367982Y-82219819D02*
X128129887Y-82219819D01*
X128129887Y-82219819D02*
X128034649Y-82172200D01*
X128034649Y-82172200D02*
X127987030Y-82124580D01*
X127987030Y-82124580D02*
X127939411Y-82029342D01*
X127939411Y-82029342D02*
X127939411Y-81934104D01*
X127939411Y-81934104D02*
X127987030Y-81838866D01*
X127987030Y-81838866D02*
X128034649Y-81791247D01*
X128034649Y-81791247D02*
X128129887Y-81743628D01*
X128129887Y-81743628D02*
X128320363Y-81696009D01*
X128320363Y-81696009D02*
X128415601Y-81648390D01*
X128415601Y-81648390D02*
X128463220Y-81600771D01*
X128463220Y-81600771D02*
X128510839Y-81505533D01*
X128510839Y-81505533D02*
X128510839Y-81410295D01*
X128510839Y-81410295D02*
X128463220Y-81315057D01*
X128463220Y-81315057D02*
X128415601Y-81267438D01*
X128415601Y-81267438D02*
X128320363Y-81219819D01*
X128320363Y-81219819D02*
X128082268Y-81219819D01*
X128082268Y-81219819D02*
X127939411Y-81267438D01*
X126939411Y-82124580D02*
X126987030Y-82172200D01*
X126987030Y-82172200D02*
X127129887Y-82219819D01*
X127129887Y-82219819D02*
X127225125Y-82219819D01*
X127225125Y-82219819D02*
X127367982Y-82172200D01*
X127367982Y-82172200D02*
X127463220Y-82076961D01*
X127463220Y-82076961D02*
X127510839Y-81981723D01*
X127510839Y-81981723D02*
X127558458Y-81791247D01*
X127558458Y-81791247D02*
X127558458Y-81648390D01*
X127558458Y-81648390D02*
X127510839Y-81457914D01*
X127510839Y-81457914D02*
X127463220Y-81362676D01*
X127463220Y-81362676D02*
X127367982Y-81267438D01*
X127367982Y-81267438D02*
X127225125Y-81219819D01*
X127225125Y-81219819D02*
X127129887Y-81219819D01*
X127129887Y-81219819D02*
X126987030Y-81267438D01*
X126987030Y-81267438D02*
X126939411Y-81315057D01*
X126034649Y-82219819D02*
X126510839Y-82219819D01*
X126510839Y-82219819D02*
X126510839Y-81219819D01*
X125701315Y-82219819D02*
X125701315Y-81219819D01*
X125129887Y-82219819D02*
X125558458Y-81648390D01*
X125129887Y-81219819D02*
X125701315Y-81791247D01*
D10*
X166543055Y-111528570D02*
X166614484Y-111457142D01*
X166614484Y-111457142D02*
X166685912Y-111242856D01*
X166685912Y-111242856D02*
X166685912Y-111099999D01*
X166685912Y-111099999D02*
X166614484Y-110885713D01*
X166614484Y-110885713D02*
X166471626Y-110742856D01*
X166471626Y-110742856D02*
X166328769Y-110671427D01*
X166328769Y-110671427D02*
X166043055Y-110599999D01*
X166043055Y-110599999D02*
X165828769Y-110599999D01*
X165828769Y-110599999D02*
X165543055Y-110671427D01*
X165543055Y-110671427D02*
X165400198Y-110742856D01*
X165400198Y-110742856D02*
X165257341Y-110885713D01*
X165257341Y-110885713D02*
X165185912Y-111099999D01*
X165185912Y-111099999D02*
X165185912Y-111242856D01*
X165185912Y-111242856D02*
X165257341Y-111457142D01*
X165257341Y-111457142D02*
X165328769Y-111528570D01*
X165185912Y-112457142D02*
X165185912Y-112742856D01*
X165185912Y-112742856D02*
X165257341Y-112885713D01*
X165257341Y-112885713D02*
X165400198Y-113028570D01*
X165400198Y-113028570D02*
X165685912Y-113099999D01*
X165685912Y-113099999D02*
X166185912Y-113099999D01*
X166185912Y-113099999D02*
X166471626Y-113028570D01*
X166471626Y-113028570D02*
X166614484Y-112885713D01*
X166614484Y-112885713D02*
X166685912Y-112742856D01*
X166685912Y-112742856D02*
X166685912Y-112457142D01*
X166685912Y-112457142D02*
X166614484Y-112314285D01*
X166614484Y-112314285D02*
X166471626Y-112171427D01*
X166471626Y-112171427D02*
X166185912Y-112099999D01*
X166185912Y-112099999D02*
X165685912Y-112099999D01*
X165685912Y-112099999D02*
X165400198Y-112171427D01*
X165400198Y-112171427D02*
X165257341Y-112314285D01*
X165257341Y-112314285D02*
X165185912Y-112457142D01*
X166685912Y-113742856D02*
X165185912Y-113742856D01*
X165185912Y-113742856D02*
X166685912Y-114599999D01*
X166685912Y-114599999D02*
X165185912Y-114599999D01*
X165185912Y-115100000D02*
X165185912Y-115957143D01*
X166685912Y-115528571D02*
X165185912Y-115528571D01*
X166685912Y-117314285D02*
X165971626Y-116814285D01*
X166685912Y-116457142D02*
X165185912Y-116457142D01*
X165185912Y-116457142D02*
X165185912Y-117028571D01*
X165185912Y-117028571D02*
X165257341Y-117171428D01*
X165257341Y-117171428D02*
X165328769Y-117242857D01*
X165328769Y-117242857D02*
X165471626Y-117314285D01*
X165471626Y-117314285D02*
X165685912Y-117314285D01*
X165685912Y-117314285D02*
X165828769Y-117242857D01*
X165828769Y-117242857D02*
X165900198Y-117171428D01*
X165900198Y-117171428D02*
X165971626Y-117028571D01*
X165971626Y-117028571D02*
X165971626Y-116457142D01*
X165185912Y-118242857D02*
X165185912Y-118528571D01*
X165185912Y-118528571D02*
X165257341Y-118671428D01*
X165257341Y-118671428D02*
X165400198Y-118814285D01*
X165400198Y-118814285D02*
X165685912Y-118885714D01*
X165685912Y-118885714D02*
X166185912Y-118885714D01*
X166185912Y-118885714D02*
X166471626Y-118814285D01*
X166471626Y-118814285D02*
X166614484Y-118671428D01*
X166614484Y-118671428D02*
X166685912Y-118528571D01*
X166685912Y-118528571D02*
X166685912Y-118242857D01*
X166685912Y-118242857D02*
X166614484Y-118100000D01*
X166614484Y-118100000D02*
X166471626Y-117957142D01*
X166471626Y-117957142D02*
X166185912Y-117885714D01*
X166185912Y-117885714D02*
X165685912Y-117885714D01*
X165685912Y-117885714D02*
X165400198Y-117957142D01*
X165400198Y-117957142D02*
X165257341Y-118100000D01*
X165257341Y-118100000D02*
X165185912Y-118242857D01*
X166685912Y-120242857D02*
X166685912Y-119528571D01*
X166685912Y-119528571D02*
X165185912Y-119528571D01*
X167600828Y-106849999D02*
X167600828Y-107707142D01*
X169100828Y-107278570D02*
X167600828Y-107278570D01*
X169100828Y-108207141D02*
X167600828Y-108207141D01*
X168315114Y-108207141D02*
X168315114Y-109064284D01*
X169100828Y-109064284D02*
X167600828Y-109064284D01*
X167600828Y-109778570D02*
X168815114Y-109778570D01*
X168815114Y-109778570D02*
X168957971Y-109849999D01*
X168957971Y-109849999D02*
X169029400Y-109921428D01*
X169029400Y-109921428D02*
X169100828Y-110064285D01*
X169100828Y-110064285D02*
X169100828Y-110349999D01*
X169100828Y-110349999D02*
X169029400Y-110492856D01*
X169029400Y-110492856D02*
X168957971Y-110564285D01*
X168957971Y-110564285D02*
X168815114Y-110635713D01*
X168815114Y-110635713D02*
X167600828Y-110635713D01*
X169100828Y-111349999D02*
X167600828Y-111349999D01*
X167600828Y-111349999D02*
X168672257Y-111849999D01*
X168672257Y-111849999D02*
X167600828Y-112349999D01*
X167600828Y-112349999D02*
X169100828Y-112349999D01*
X168315114Y-113564285D02*
X168386542Y-113778571D01*
X168386542Y-113778571D02*
X168457971Y-113850000D01*
X168457971Y-113850000D02*
X168600828Y-113921428D01*
X168600828Y-113921428D02*
X168815114Y-113921428D01*
X168815114Y-113921428D02*
X168957971Y-113850000D01*
X168957971Y-113850000D02*
X169029400Y-113778571D01*
X169029400Y-113778571D02*
X169100828Y-113635714D01*
X169100828Y-113635714D02*
X169100828Y-113064285D01*
X169100828Y-113064285D02*
X167600828Y-113064285D01*
X167600828Y-113064285D02*
X167600828Y-113564285D01*
X167600828Y-113564285D02*
X167672257Y-113707143D01*
X167672257Y-113707143D02*
X167743685Y-113778571D01*
X167743685Y-113778571D02*
X167886542Y-113850000D01*
X167886542Y-113850000D02*
X168029400Y-113850000D01*
X168029400Y-113850000D02*
X168172257Y-113778571D01*
X168172257Y-113778571D02*
X168243685Y-113707143D01*
X168243685Y-113707143D02*
X168315114Y-113564285D01*
X168315114Y-113564285D02*
X168315114Y-113064285D01*
X168529400Y-114564285D02*
X168529400Y-115707143D01*
X168315114Y-116921428D02*
X168315114Y-116421428D01*
X169100828Y-116421428D02*
X167600828Y-116421428D01*
X167600828Y-116421428D02*
X167600828Y-117135714D01*
X169100828Y-117707142D02*
X167600828Y-117707142D01*
X169100828Y-118421428D02*
X167600828Y-118421428D01*
X167600828Y-118421428D02*
X169100828Y-119278571D01*
X169100828Y-119278571D02*
X167600828Y-119278571D01*
X167672257Y-120778572D02*
X167600828Y-120635715D01*
X167600828Y-120635715D02*
X167600828Y-120421429D01*
X167600828Y-120421429D02*
X167672257Y-120207143D01*
X167672257Y-120207143D02*
X167815114Y-120064286D01*
X167815114Y-120064286D02*
X167957971Y-119992857D01*
X167957971Y-119992857D02*
X168243685Y-119921429D01*
X168243685Y-119921429D02*
X168457971Y-119921429D01*
X168457971Y-119921429D02*
X168743685Y-119992857D01*
X168743685Y-119992857D02*
X168886542Y-120064286D01*
X168886542Y-120064286D02*
X169029400Y-120207143D01*
X169029400Y-120207143D02*
X169100828Y-120421429D01*
X169100828Y-120421429D02*
X169100828Y-120564286D01*
X169100828Y-120564286D02*
X169029400Y-120778572D01*
X169029400Y-120778572D02*
X168957971Y-120850000D01*
X168957971Y-120850000D02*
X168457971Y-120850000D01*
X168457971Y-120850000D02*
X168457971Y-120564286D01*
X168315114Y-121492857D02*
X168315114Y-121992857D01*
X169100828Y-122207143D02*
X169100828Y-121492857D01*
X169100828Y-121492857D02*
X167600828Y-121492857D01*
X167600828Y-121492857D02*
X167600828Y-122207143D01*
X169100828Y-123707143D02*
X168386542Y-123207143D01*
X169100828Y-122850000D02*
X167600828Y-122850000D01*
X167600828Y-122850000D02*
X167600828Y-123421429D01*
X167600828Y-123421429D02*
X167672257Y-123564286D01*
X167672257Y-123564286D02*
X167743685Y-123635715D01*
X167743685Y-123635715D02*
X167886542Y-123707143D01*
X167886542Y-123707143D02*
X168100828Y-123707143D01*
X168100828Y-123707143D02*
X168243685Y-123635715D01*
X168243685Y-123635715D02*
X168315114Y-123564286D01*
X168315114Y-123564286D02*
X168386542Y-123421429D01*
X168386542Y-123421429D02*
X168386542Y-122850000D01*
D11*
X127639411Y-121367438D02*
X127734649Y-121319819D01*
X127734649Y-121319819D02*
X127877506Y-121319819D01*
X127877506Y-121319819D02*
X128020363Y-121367438D01*
X128020363Y-121367438D02*
X128115601Y-121462676D01*
X128115601Y-121462676D02*
X128163220Y-121557914D01*
X128163220Y-121557914D02*
X128210839Y-121748390D01*
X128210839Y-121748390D02*
X128210839Y-121891247D01*
X128210839Y-121891247D02*
X128163220Y-122081723D01*
X128163220Y-122081723D02*
X128115601Y-122176961D01*
X128115601Y-122176961D02*
X128020363Y-122272200D01*
X128020363Y-122272200D02*
X127877506Y-122319819D01*
X127877506Y-122319819D02*
X127782268Y-122319819D01*
X127782268Y-122319819D02*
X127639411Y-122272200D01*
X127639411Y-122272200D02*
X127591792Y-122224580D01*
X127591792Y-122224580D02*
X127591792Y-121891247D01*
X127591792Y-121891247D02*
X127782268Y-121891247D01*
X127163220Y-122319819D02*
X127163220Y-121319819D01*
X127163220Y-121319819D02*
X126591792Y-122319819D01*
X126591792Y-122319819D02*
X126591792Y-121319819D01*
X126115601Y-122319819D02*
X126115601Y-121319819D01*
X126115601Y-121319819D02*
X125877506Y-121319819D01*
X125877506Y-121319819D02*
X125734649Y-121367438D01*
X125734649Y-121367438D02*
X125639411Y-121462676D01*
X125639411Y-121462676D02*
X125591792Y-121557914D01*
X125591792Y-121557914D02*
X125544173Y-121748390D01*
X125544173Y-121748390D02*
X125544173Y-121891247D01*
X125544173Y-121891247D02*
X125591792Y-122081723D01*
X125591792Y-122081723D02*
X125639411Y-122176961D01*
X125639411Y-122176961D02*
X125734649Y-122272200D01*
X125734649Y-122272200D02*
X125877506Y-122319819D01*
X125877506Y-122319819D02*
X126115601Y-122319819D01*
D10*
X166802633Y-122474912D02*
X165802633Y-122474912D01*
X165802633Y-122474912D02*
X166802633Y-123974912D01*
X166802633Y-123974912D02*
X165802633Y-123974912D01*
X165231205Y-123974912D02*
X165231205Y-122474912D01*
X165231205Y-122474912D02*
X164731205Y-123546341D01*
X164731205Y-123546341D02*
X164231205Y-122474912D01*
X164231205Y-122474912D02*
X164231205Y-123974912D01*
X163516919Y-123974912D02*
X163516919Y-122474912D01*
X162659776Y-123974912D02*
X163302633Y-123117769D01*
X162659776Y-122474912D02*
X163516919Y-123332055D01*
X162016919Y-123832055D02*
X161945490Y-123903484D01*
X161945490Y-123903484D02*
X162016919Y-123974912D01*
X162016919Y-123974912D02*
X162088347Y-123903484D01*
X162088347Y-123903484D02*
X162016919Y-123832055D01*
X162016919Y-123832055D02*
X162016919Y-123974912D01*
X161374061Y-123903484D02*
X161159776Y-123974912D01*
X161159776Y-123974912D02*
X160802633Y-123974912D01*
X160802633Y-123974912D02*
X160659776Y-123903484D01*
X160659776Y-123903484D02*
X160588347Y-123832055D01*
X160588347Y-123832055D02*
X160516918Y-123689198D01*
X160516918Y-123689198D02*
X160516918Y-123546341D01*
X160516918Y-123546341D02*
X160588347Y-123403484D01*
X160588347Y-123403484D02*
X160659776Y-123332055D01*
X160659776Y-123332055D02*
X160802633Y-123260626D01*
X160802633Y-123260626D02*
X161088347Y-123189198D01*
X161088347Y-123189198D02*
X161231204Y-123117769D01*
X161231204Y-123117769D02*
X161302633Y-123046341D01*
X161302633Y-123046341D02*
X161374061Y-122903484D01*
X161374061Y-122903484D02*
X161374061Y-122760626D01*
X161374061Y-122760626D02*
X161302633Y-122617769D01*
X161302633Y-122617769D02*
X161231204Y-122546341D01*
X161231204Y-122546341D02*
X161088347Y-122474912D01*
X161088347Y-122474912D02*
X160731204Y-122474912D01*
X160731204Y-122474912D02*
X160516918Y-122546341D01*
X160088347Y-122474912D02*
X159231205Y-122474912D01*
X159659776Y-123974912D02*
X159659776Y-122474912D01*
X158731205Y-122474912D02*
X158731205Y-123689198D01*
X158731205Y-123689198D02*
X158659776Y-123832055D01*
X158659776Y-123832055D02*
X158588348Y-123903484D01*
X158588348Y-123903484D02*
X158445490Y-123974912D01*
X158445490Y-123974912D02*
X158159776Y-123974912D01*
X158159776Y-123974912D02*
X158016919Y-123903484D01*
X158016919Y-123903484D02*
X157945490Y-123832055D01*
X157945490Y-123832055D02*
X157874062Y-123689198D01*
X157874062Y-123689198D02*
X157874062Y-122474912D01*
X157159776Y-123974912D02*
X157159776Y-122474912D01*
X157159776Y-122474912D02*
X156802633Y-122474912D01*
X156802633Y-122474912D02*
X156588347Y-122546341D01*
X156588347Y-122546341D02*
X156445490Y-122689198D01*
X156445490Y-122689198D02*
X156374061Y-122832055D01*
X156374061Y-122832055D02*
X156302633Y-123117769D01*
X156302633Y-123117769D02*
X156302633Y-123332055D01*
X156302633Y-123332055D02*
X156374061Y-123617769D01*
X156374061Y-123617769D02*
X156445490Y-123760626D01*
X156445490Y-123760626D02*
X156588347Y-123903484D01*
X156588347Y-123903484D02*
X156802633Y-123974912D01*
X156802633Y-123974912D02*
X157159776Y-123974912D01*
X155659776Y-123974912D02*
X155659776Y-122474912D01*
X154659775Y-122474912D02*
X154374061Y-122474912D01*
X154374061Y-122474912D02*
X154231204Y-122546341D01*
X154231204Y-122546341D02*
X154088347Y-122689198D01*
X154088347Y-122689198D02*
X154016918Y-122974912D01*
X154016918Y-122974912D02*
X154016918Y-123474912D01*
X154016918Y-123474912D02*
X154088347Y-123760626D01*
X154088347Y-123760626D02*
X154231204Y-123903484D01*
X154231204Y-123903484D02*
X154374061Y-123974912D01*
X154374061Y-123974912D02*
X154659775Y-123974912D01*
X154659775Y-123974912D02*
X154802633Y-123903484D01*
X154802633Y-123903484D02*
X154945490Y-123760626D01*
X154945490Y-123760626D02*
X155016918Y-123474912D01*
X155016918Y-123474912D02*
X155016918Y-122974912D01*
X155016918Y-122974912D02*
X154945490Y-122689198D01*
X154945490Y-122689198D02*
X154802633Y-122546341D01*
X154802633Y-122546341D02*
X154659775Y-122474912D01*
X166659776Y-124889828D02*
X166659776Y-126104114D01*
X166659776Y-126104114D02*
X166588347Y-126246971D01*
X166588347Y-126246971D02*
X166516919Y-126318400D01*
X166516919Y-126318400D02*
X166374061Y-126389828D01*
X166374061Y-126389828D02*
X166088347Y-126389828D01*
X166088347Y-126389828D02*
X165945490Y-126318400D01*
X165945490Y-126318400D02*
X165874061Y-126246971D01*
X165874061Y-126246971D02*
X165802633Y-126104114D01*
X165802633Y-126104114D02*
X165802633Y-124889828D01*
X165088347Y-126389828D02*
X165088347Y-124889828D01*
X165088347Y-124889828D02*
X164231204Y-126389828D01*
X164231204Y-126389828D02*
X164231204Y-124889828D01*
X162802632Y-126389828D02*
X163516918Y-126389828D01*
X163516918Y-126389828D02*
X163516918Y-124889828D01*
X162016917Y-124889828D02*
X161731203Y-124889828D01*
X161731203Y-124889828D02*
X161588346Y-124961257D01*
X161588346Y-124961257D02*
X161445489Y-125104114D01*
X161445489Y-125104114D02*
X161374060Y-125389828D01*
X161374060Y-125389828D02*
X161374060Y-125889828D01*
X161374060Y-125889828D02*
X161445489Y-126175542D01*
X161445489Y-126175542D02*
X161588346Y-126318400D01*
X161588346Y-126318400D02*
X161731203Y-126389828D01*
X161731203Y-126389828D02*
X162016917Y-126389828D01*
X162016917Y-126389828D02*
X162159775Y-126318400D01*
X162159775Y-126318400D02*
X162302632Y-126175542D01*
X162302632Y-126175542D02*
X162374060Y-125889828D01*
X162374060Y-125889828D02*
X162374060Y-125389828D01*
X162374060Y-125389828D02*
X162302632Y-125104114D01*
X162302632Y-125104114D02*
X162159775Y-124961257D01*
X162159775Y-124961257D02*
X162016917Y-124889828D01*
X159874060Y-126246971D02*
X159945488Y-126318400D01*
X159945488Y-126318400D02*
X160159774Y-126389828D01*
X160159774Y-126389828D02*
X160302631Y-126389828D01*
X160302631Y-126389828D02*
X160516917Y-126318400D01*
X160516917Y-126318400D02*
X160659774Y-126175542D01*
X160659774Y-126175542D02*
X160731203Y-126032685D01*
X160731203Y-126032685D02*
X160802631Y-125746971D01*
X160802631Y-125746971D02*
X160802631Y-125532685D01*
X160802631Y-125532685D02*
X160731203Y-125246971D01*
X160731203Y-125246971D02*
X160659774Y-125104114D01*
X160659774Y-125104114D02*
X160516917Y-124961257D01*
X160516917Y-124961257D02*
X160302631Y-124889828D01*
X160302631Y-124889828D02*
X160159774Y-124889828D01*
X160159774Y-124889828D02*
X159945488Y-124961257D01*
X159945488Y-124961257D02*
X159874060Y-125032685D01*
X159231203Y-126389828D02*
X159231203Y-124889828D01*
X158374060Y-126389828D02*
X159016917Y-125532685D01*
X158374060Y-124889828D02*
X159231203Y-125746971D01*
X157702632Y-115485912D02*
X157702632Y-116485912D01*
X158345489Y-115485912D02*
X158345489Y-116271626D01*
X158345489Y-116271626D02*
X158274060Y-116414484D01*
X158274060Y-116414484D02*
X158131203Y-116485912D01*
X158131203Y-116485912D02*
X157916917Y-116485912D01*
X157916917Y-116485912D02*
X157774060Y-116414484D01*
X157774060Y-116414484D02*
X157702632Y-116343055D01*
X155916917Y-114914484D02*
X157202631Y-116843055D01*
X154774060Y-116485912D02*
X154774060Y-115700198D01*
X154774060Y-115700198D02*
X154845488Y-115557341D01*
X154845488Y-115557341D02*
X154988345Y-115485912D01*
X154988345Y-115485912D02*
X155274060Y-115485912D01*
X155274060Y-115485912D02*
X155416917Y-115557341D01*
X154774060Y-116414484D02*
X154916917Y-116485912D01*
X154916917Y-116485912D02*
X155274060Y-116485912D01*
X155274060Y-116485912D02*
X155416917Y-116414484D01*
X155416917Y-116414484D02*
X155488345Y-116271626D01*
X155488345Y-116271626D02*
X155488345Y-116128769D01*
X155488345Y-116128769D02*
X155416917Y-115985912D01*
X155416917Y-115985912D02*
X155274060Y-115914484D01*
X155274060Y-115914484D02*
X154916917Y-115914484D01*
X154916917Y-115914484D02*
X154774060Y-115843055D01*
X154059774Y-116485912D02*
X154059774Y-114985912D01*
X153916917Y-115914484D02*
X153488345Y-116485912D01*
X153488345Y-115485912D02*
X154059774Y-116057341D01*
X152202631Y-114985912D02*
X152488345Y-114985912D01*
X152488345Y-114985912D02*
X152631202Y-115057341D01*
X152631202Y-115057341D02*
X152702631Y-115128769D01*
X152702631Y-115128769D02*
X152845488Y-115343055D01*
X152845488Y-115343055D02*
X152916916Y-115628769D01*
X152916916Y-115628769D02*
X152916916Y-116200198D01*
X152916916Y-116200198D02*
X152845488Y-116343055D01*
X152845488Y-116343055D02*
X152774059Y-116414484D01*
X152774059Y-116414484D02*
X152631202Y-116485912D01*
X152631202Y-116485912D02*
X152345488Y-116485912D01*
X152345488Y-116485912D02*
X152202631Y-116414484D01*
X152202631Y-116414484D02*
X152131202Y-116343055D01*
X152131202Y-116343055D02*
X152059773Y-116200198D01*
X152059773Y-116200198D02*
X152059773Y-115843055D01*
X152059773Y-115843055D02*
X152131202Y-115700198D01*
X152131202Y-115700198D02*
X152202631Y-115628769D01*
X152202631Y-115628769D02*
X152345488Y-115557341D01*
X152345488Y-115557341D02*
X152631202Y-115557341D01*
X152631202Y-115557341D02*
X152774059Y-115628769D01*
X152774059Y-115628769D02*
X152845488Y-115700198D01*
X152845488Y-115700198D02*
X152916916Y-115843055D01*
X150774060Y-114985912D02*
X151059774Y-114985912D01*
X151059774Y-114985912D02*
X151202631Y-115057341D01*
X151202631Y-115057341D02*
X151274060Y-115128769D01*
X151274060Y-115128769D02*
X151416917Y-115343055D01*
X151416917Y-115343055D02*
X151488345Y-115628769D01*
X151488345Y-115628769D02*
X151488345Y-116200198D01*
X151488345Y-116200198D02*
X151416917Y-116343055D01*
X151416917Y-116343055D02*
X151345488Y-116414484D01*
X151345488Y-116414484D02*
X151202631Y-116485912D01*
X151202631Y-116485912D02*
X150916917Y-116485912D01*
X150916917Y-116485912D02*
X150774060Y-116414484D01*
X150774060Y-116414484D02*
X150702631Y-116343055D01*
X150702631Y-116343055D02*
X150631202Y-116200198D01*
X150631202Y-116200198D02*
X150631202Y-115843055D01*
X150631202Y-115843055D02*
X150702631Y-115700198D01*
X150702631Y-115700198D02*
X150774060Y-115628769D01*
X150774060Y-115628769D02*
X150916917Y-115557341D01*
X150916917Y-115557341D02*
X151202631Y-115557341D01*
X151202631Y-115557341D02*
X151345488Y-115628769D01*
X151345488Y-115628769D02*
X151416917Y-115700198D01*
X151416917Y-115700198D02*
X151488345Y-115843055D01*
X149345489Y-114985912D02*
X149631203Y-114985912D01*
X149631203Y-114985912D02*
X149774060Y-115057341D01*
X149774060Y-115057341D02*
X149845489Y-115128769D01*
X149845489Y-115128769D02*
X149988346Y-115343055D01*
X149988346Y-115343055D02*
X150059774Y-115628769D01*
X150059774Y-115628769D02*
X150059774Y-116200198D01*
X150059774Y-116200198D02*
X149988346Y-116343055D01*
X149988346Y-116343055D02*
X149916917Y-116414484D01*
X149916917Y-116414484D02*
X149774060Y-116485912D01*
X149774060Y-116485912D02*
X149488346Y-116485912D01*
X149488346Y-116485912D02*
X149345489Y-116414484D01*
X149345489Y-116414484D02*
X149274060Y-116343055D01*
X149274060Y-116343055D02*
X149202631Y-116200198D01*
X149202631Y-116200198D02*
X149202631Y-115843055D01*
X149202631Y-115843055D02*
X149274060Y-115700198D01*
X149274060Y-115700198D02*
X149345489Y-115628769D01*
X149345489Y-115628769D02*
X149488346Y-115557341D01*
X149488346Y-115557341D02*
X149774060Y-115557341D01*
X149774060Y-115557341D02*
X149916917Y-115628769D01*
X149916917Y-115628769D02*
X149988346Y-115700198D01*
X149988346Y-115700198D02*
X150059774Y-115843055D01*
X147916918Y-114985912D02*
X148202632Y-114985912D01*
X148202632Y-114985912D02*
X148345489Y-115057341D01*
X148345489Y-115057341D02*
X148416918Y-115128769D01*
X148416918Y-115128769D02*
X148559775Y-115343055D01*
X148559775Y-115343055D02*
X148631203Y-115628769D01*
X148631203Y-115628769D02*
X148631203Y-116200198D01*
X148631203Y-116200198D02*
X148559775Y-116343055D01*
X148559775Y-116343055D02*
X148488346Y-116414484D01*
X148488346Y-116414484D02*
X148345489Y-116485912D01*
X148345489Y-116485912D02*
X148059775Y-116485912D01*
X148059775Y-116485912D02*
X147916918Y-116414484D01*
X147916918Y-116414484D02*
X147845489Y-116343055D01*
X147845489Y-116343055D02*
X147774060Y-116200198D01*
X147774060Y-116200198D02*
X147774060Y-115843055D01*
X147774060Y-115843055D02*
X147845489Y-115700198D01*
X147845489Y-115700198D02*
X147916918Y-115628769D01*
X147916918Y-115628769D02*
X148059775Y-115557341D01*
X148059775Y-115557341D02*
X148345489Y-115557341D01*
X148345489Y-115557341D02*
X148488346Y-115628769D01*
X148488346Y-115628769D02*
X148559775Y-115700198D01*
X148559775Y-115700198D02*
X148631203Y-115843055D01*
X146488347Y-114985912D02*
X146774061Y-114985912D01*
X146774061Y-114985912D02*
X146916918Y-115057341D01*
X146916918Y-115057341D02*
X146988347Y-115128769D01*
X146988347Y-115128769D02*
X147131204Y-115343055D01*
X147131204Y-115343055D02*
X147202632Y-115628769D01*
X147202632Y-115628769D02*
X147202632Y-116200198D01*
X147202632Y-116200198D02*
X147131204Y-116343055D01*
X147131204Y-116343055D02*
X147059775Y-116414484D01*
X147059775Y-116414484D02*
X146916918Y-116485912D01*
X146916918Y-116485912D02*
X146631204Y-116485912D01*
X146631204Y-116485912D02*
X146488347Y-116414484D01*
X146488347Y-116414484D02*
X146416918Y-116343055D01*
X146416918Y-116343055D02*
X146345489Y-116200198D01*
X146345489Y-116200198D02*
X146345489Y-115843055D01*
X146345489Y-115843055D02*
X146416918Y-115700198D01*
X146416918Y-115700198D02*
X146488347Y-115628769D01*
X146488347Y-115628769D02*
X146631204Y-115557341D01*
X146631204Y-115557341D02*
X146916918Y-115557341D01*
X146916918Y-115557341D02*
X147059775Y-115628769D01*
X147059775Y-115628769D02*
X147131204Y-115700198D01*
X147131204Y-115700198D02*
X147202632Y-115843055D01*
X158416917Y-117543685D02*
X158345489Y-117472257D01*
X158345489Y-117472257D02*
X158202632Y-117400828D01*
X158202632Y-117400828D02*
X157845489Y-117400828D01*
X157845489Y-117400828D02*
X157702632Y-117472257D01*
X157702632Y-117472257D02*
X157631203Y-117543685D01*
X157631203Y-117543685D02*
X157559774Y-117686542D01*
X157559774Y-117686542D02*
X157559774Y-117829400D01*
X157559774Y-117829400D02*
X157631203Y-118043685D01*
X157631203Y-118043685D02*
X158488346Y-118900828D01*
X158488346Y-118900828D02*
X157559774Y-118900828D01*
X156631203Y-117400828D02*
X156488346Y-117400828D01*
X156488346Y-117400828D02*
X156345489Y-117472257D01*
X156345489Y-117472257D02*
X156274061Y-117543685D01*
X156274061Y-117543685D02*
X156202632Y-117686542D01*
X156202632Y-117686542D02*
X156131203Y-117972257D01*
X156131203Y-117972257D02*
X156131203Y-118329400D01*
X156131203Y-118329400D02*
X156202632Y-118615114D01*
X156202632Y-118615114D02*
X156274061Y-118757971D01*
X156274061Y-118757971D02*
X156345489Y-118829400D01*
X156345489Y-118829400D02*
X156488346Y-118900828D01*
X156488346Y-118900828D02*
X156631203Y-118900828D01*
X156631203Y-118900828D02*
X156774061Y-118829400D01*
X156774061Y-118829400D02*
X156845489Y-118757971D01*
X156845489Y-118757971D02*
X156916918Y-118615114D01*
X156916918Y-118615114D02*
X156988346Y-118329400D01*
X156988346Y-118329400D02*
X156988346Y-117972257D01*
X156988346Y-117972257D02*
X156916918Y-117686542D01*
X156916918Y-117686542D02*
X156845489Y-117543685D01*
X156845489Y-117543685D02*
X156774061Y-117472257D01*
X156774061Y-117472257D02*
X156631203Y-117400828D01*
X155559775Y-117543685D02*
X155488347Y-117472257D01*
X155488347Y-117472257D02*
X155345490Y-117400828D01*
X155345490Y-117400828D02*
X154988347Y-117400828D01*
X154988347Y-117400828D02*
X154845490Y-117472257D01*
X154845490Y-117472257D02*
X154774061Y-117543685D01*
X154774061Y-117543685D02*
X154702632Y-117686542D01*
X154702632Y-117686542D02*
X154702632Y-117829400D01*
X154702632Y-117829400D02*
X154774061Y-118043685D01*
X154774061Y-118043685D02*
X155631204Y-118900828D01*
X155631204Y-118900828D02*
X154702632Y-118900828D01*
X153345490Y-117400828D02*
X154059776Y-117400828D01*
X154059776Y-117400828D02*
X154131204Y-118115114D01*
X154131204Y-118115114D02*
X154059776Y-118043685D01*
X154059776Y-118043685D02*
X153916919Y-117972257D01*
X153916919Y-117972257D02*
X153559776Y-117972257D01*
X153559776Y-117972257D02*
X153416919Y-118043685D01*
X153416919Y-118043685D02*
X153345490Y-118115114D01*
X153345490Y-118115114D02*
X153274061Y-118257971D01*
X153274061Y-118257971D02*
X153274061Y-118615114D01*
X153274061Y-118615114D02*
X153345490Y-118757971D01*
X153345490Y-118757971D02*
X153416919Y-118829400D01*
X153416919Y-118829400D02*
X153559776Y-118900828D01*
X153559776Y-118900828D02*
X153916919Y-118900828D01*
X153916919Y-118900828D02*
X154059776Y-118829400D01*
X154059776Y-118829400D02*
X154131204Y-118757971D01*
X152631205Y-118329400D02*
X151488348Y-118329400D01*
X149988347Y-118900828D02*
X150845490Y-118900828D01*
X150416919Y-118900828D02*
X150416919Y-117400828D01*
X150416919Y-117400828D02*
X150559776Y-117615114D01*
X150559776Y-117615114D02*
X150702633Y-117757971D01*
X150702633Y-117757971D02*
X150845490Y-117829400D01*
X149059776Y-117400828D02*
X148916919Y-117400828D01*
X148916919Y-117400828D02*
X148774062Y-117472257D01*
X148774062Y-117472257D02*
X148702634Y-117543685D01*
X148702634Y-117543685D02*
X148631205Y-117686542D01*
X148631205Y-117686542D02*
X148559776Y-117972257D01*
X148559776Y-117972257D02*
X148559776Y-118329400D01*
X148559776Y-118329400D02*
X148631205Y-118615114D01*
X148631205Y-118615114D02*
X148702634Y-118757971D01*
X148702634Y-118757971D02*
X148774062Y-118829400D01*
X148774062Y-118829400D02*
X148916919Y-118900828D01*
X148916919Y-118900828D02*
X149059776Y-118900828D01*
X149059776Y-118900828D02*
X149202634Y-118829400D01*
X149202634Y-118829400D02*
X149274062Y-118757971D01*
X149274062Y-118757971D02*
X149345491Y-118615114D01*
X149345491Y-118615114D02*
X149416919Y-118329400D01*
X149416919Y-118329400D02*
X149416919Y-117972257D01*
X149416919Y-117972257D02*
X149345491Y-117686542D01*
X149345491Y-117686542D02*
X149274062Y-117543685D01*
X149274062Y-117543685D02*
X149202634Y-117472257D01*
X149202634Y-117472257D02*
X149059776Y-117400828D01*
X147916920Y-118329400D02*
X146774063Y-118329400D01*
X145774062Y-117400828D02*
X145631205Y-117400828D01*
X145631205Y-117400828D02*
X145488348Y-117472257D01*
X145488348Y-117472257D02*
X145416920Y-117543685D01*
X145416920Y-117543685D02*
X145345491Y-117686542D01*
X145345491Y-117686542D02*
X145274062Y-117972257D01*
X145274062Y-117972257D02*
X145274062Y-118329400D01*
X145274062Y-118329400D02*
X145345491Y-118615114D01*
X145345491Y-118615114D02*
X145416920Y-118757971D01*
X145416920Y-118757971D02*
X145488348Y-118829400D01*
X145488348Y-118829400D02*
X145631205Y-118900828D01*
X145631205Y-118900828D02*
X145774062Y-118900828D01*
X145774062Y-118900828D02*
X145916920Y-118829400D01*
X145916920Y-118829400D02*
X145988348Y-118757971D01*
X145988348Y-118757971D02*
X146059777Y-118615114D01*
X146059777Y-118615114D02*
X146131205Y-118329400D01*
X146131205Y-118329400D02*
X146131205Y-117972257D01*
X146131205Y-117972257D02*
X146059777Y-117686542D01*
X146059777Y-117686542D02*
X145988348Y-117543685D01*
X145988348Y-117543685D02*
X145916920Y-117472257D01*
X145916920Y-117472257D02*
X145774062Y-117400828D01*
X143845491Y-118900828D02*
X144702634Y-118900828D01*
X144274063Y-118900828D02*
X144274063Y-117400828D01*
X144274063Y-117400828D02*
X144416920Y-117615114D01*
X144416920Y-117615114D02*
X144559777Y-117757971D01*
X144559777Y-117757971D02*
X144702634Y-117829400D01*
D11*
X128558458Y-85719819D02*
X127939411Y-85719819D01*
X127939411Y-85719819D02*
X128272744Y-86100771D01*
X128272744Y-86100771D02*
X128129887Y-86100771D01*
X128129887Y-86100771D02*
X128034649Y-86148390D01*
X128034649Y-86148390D02*
X127987030Y-86196009D01*
X127987030Y-86196009D02*
X127939411Y-86291247D01*
X127939411Y-86291247D02*
X127939411Y-86529342D01*
X127939411Y-86529342D02*
X127987030Y-86624580D01*
X127987030Y-86624580D02*
X128034649Y-86672200D01*
X128034649Y-86672200D02*
X128129887Y-86719819D01*
X128129887Y-86719819D02*
X128415601Y-86719819D01*
X128415601Y-86719819D02*
X128510839Y-86672200D01*
X128510839Y-86672200D02*
X128558458Y-86624580D01*
X127510839Y-86624580D02*
X127463220Y-86672200D01*
X127463220Y-86672200D02*
X127510839Y-86719819D01*
X127510839Y-86719819D02*
X127558458Y-86672200D01*
X127558458Y-86672200D02*
X127510839Y-86624580D01*
X127510839Y-86624580D02*
X127510839Y-86719819D01*
X127129887Y-85719819D02*
X126510840Y-85719819D01*
X126510840Y-85719819D02*
X126844173Y-86100771D01*
X126844173Y-86100771D02*
X126701316Y-86100771D01*
X126701316Y-86100771D02*
X126606078Y-86148390D01*
X126606078Y-86148390D02*
X126558459Y-86196009D01*
X126558459Y-86196009D02*
X126510840Y-86291247D01*
X126510840Y-86291247D02*
X126510840Y-86529342D01*
X126510840Y-86529342D02*
X126558459Y-86624580D01*
X126558459Y-86624580D02*
X126606078Y-86672200D01*
X126606078Y-86672200D02*
X126701316Y-86719819D01*
X126701316Y-86719819D02*
X126987030Y-86719819D01*
X126987030Y-86719819D02*
X127082268Y-86672200D01*
X127082268Y-86672200D02*
X127129887Y-86624580D01*
X126225125Y-85719819D02*
X125891792Y-86719819D01*
X125891792Y-86719819D02*
X125558459Y-85719819D01*
X128163220Y-117319819D02*
X128163220Y-116319819D01*
X128163220Y-116319819D02*
X127829887Y-117034104D01*
X127829887Y-117034104D02*
X127496554Y-116319819D01*
X127496554Y-116319819D02*
X127496554Y-117319819D01*
X126829887Y-116319819D02*
X126639411Y-116319819D01*
X126639411Y-116319819D02*
X126544173Y-116367438D01*
X126544173Y-116367438D02*
X126448935Y-116462676D01*
X126448935Y-116462676D02*
X126401316Y-116653152D01*
X126401316Y-116653152D02*
X126401316Y-116986485D01*
X126401316Y-116986485D02*
X126448935Y-117176961D01*
X126448935Y-117176961D02*
X126544173Y-117272200D01*
X126544173Y-117272200D02*
X126639411Y-117319819D01*
X126639411Y-117319819D02*
X126829887Y-117319819D01*
X126829887Y-117319819D02*
X126925125Y-117272200D01*
X126925125Y-117272200D02*
X127020363Y-117176961D01*
X127020363Y-117176961D02*
X127067982Y-116986485D01*
X127067982Y-116986485D02*
X127067982Y-116653152D01*
X127067982Y-116653152D02*
X127020363Y-116462676D01*
X127020363Y-116462676D02*
X126925125Y-116367438D01*
X126925125Y-116367438D02*
X126829887Y-116319819D01*
X126115601Y-116319819D02*
X125544173Y-116319819D01*
X125829887Y-117319819D02*
X125829887Y-116319819D01*
D10*
X161985714Y-79228801D02*
X162200000Y-79157373D01*
X162200000Y-79157373D02*
X162271429Y-79085944D01*
X162271429Y-79085944D02*
X162342857Y-78943087D01*
X162342857Y-78943087D02*
X162342857Y-78728801D01*
X162342857Y-78728801D02*
X162271429Y-78585944D01*
X162271429Y-78585944D02*
X162200000Y-78514516D01*
X162200000Y-78514516D02*
X162057143Y-78443087D01*
X162057143Y-78443087D02*
X161485714Y-78443087D01*
X161485714Y-78443087D02*
X161485714Y-79943087D01*
X161485714Y-79943087D02*
X161985714Y-79943087D01*
X161985714Y-79943087D02*
X162128572Y-79871658D01*
X162128572Y-79871658D02*
X162200000Y-79800230D01*
X162200000Y-79800230D02*
X162271429Y-79657373D01*
X162271429Y-79657373D02*
X162271429Y-79514516D01*
X162271429Y-79514516D02*
X162200000Y-79371658D01*
X162200000Y-79371658D02*
X162128572Y-79300230D01*
X162128572Y-79300230D02*
X161985714Y-79228801D01*
X161985714Y-79228801D02*
X161485714Y-79228801D01*
X162771429Y-79943087D02*
X163628572Y-79943087D01*
X163200000Y-78443087D02*
X163200000Y-79943087D01*
X158735714Y-76099600D02*
X158950000Y-76028171D01*
X158950000Y-76028171D02*
X159307142Y-76028171D01*
X159307142Y-76028171D02*
X159450000Y-76099600D01*
X159450000Y-76099600D02*
X159521428Y-76171028D01*
X159521428Y-76171028D02*
X159592857Y-76313885D01*
X159592857Y-76313885D02*
X159592857Y-76456742D01*
X159592857Y-76456742D02*
X159521428Y-76599600D01*
X159521428Y-76599600D02*
X159450000Y-76671028D01*
X159450000Y-76671028D02*
X159307142Y-76742457D01*
X159307142Y-76742457D02*
X159021428Y-76813885D01*
X159021428Y-76813885D02*
X158878571Y-76885314D01*
X158878571Y-76885314D02*
X158807142Y-76956742D01*
X158807142Y-76956742D02*
X158735714Y-77099600D01*
X158735714Y-77099600D02*
X158735714Y-77242457D01*
X158735714Y-77242457D02*
X158807142Y-77385314D01*
X158807142Y-77385314D02*
X158878571Y-77456742D01*
X158878571Y-77456742D02*
X159021428Y-77528171D01*
X159021428Y-77528171D02*
X159378571Y-77528171D01*
X159378571Y-77528171D02*
X159592857Y-77456742D01*
X160235713Y-76813885D02*
X160735713Y-76813885D01*
X160949999Y-76028171D02*
X160235713Y-76028171D01*
X160235713Y-76028171D02*
X160235713Y-77528171D01*
X160235713Y-77528171D02*
X160949999Y-77528171D01*
X162307142Y-76028171D02*
X161592856Y-76028171D01*
X161592856Y-76028171D02*
X161592856Y-77528171D01*
X162807142Y-76813885D02*
X163307142Y-76813885D01*
X163521428Y-76028171D02*
X162807142Y-76028171D01*
X162807142Y-76028171D02*
X162807142Y-77528171D01*
X162807142Y-77528171D02*
X163521428Y-77528171D01*
X165021428Y-76171028D02*
X164950000Y-76099600D01*
X164950000Y-76099600D02*
X164735714Y-76028171D01*
X164735714Y-76028171D02*
X164592857Y-76028171D01*
X164592857Y-76028171D02*
X164378571Y-76099600D01*
X164378571Y-76099600D02*
X164235714Y-76242457D01*
X164235714Y-76242457D02*
X164164285Y-76385314D01*
X164164285Y-76385314D02*
X164092857Y-76671028D01*
X164092857Y-76671028D02*
X164092857Y-76885314D01*
X164092857Y-76885314D02*
X164164285Y-77171028D01*
X164164285Y-77171028D02*
X164235714Y-77313885D01*
X164235714Y-77313885D02*
X164378571Y-77456742D01*
X164378571Y-77456742D02*
X164592857Y-77528171D01*
X164592857Y-77528171D02*
X164735714Y-77528171D01*
X164735714Y-77528171D02*
X164950000Y-77456742D01*
X164950000Y-77456742D02*
X165021428Y-77385314D01*
X165450000Y-77528171D02*
X166307143Y-77528171D01*
X165878571Y-76028171D02*
X165878571Y-77528171D01*
D11*
X128510839Y-84172200D02*
X128367982Y-84219819D01*
X128367982Y-84219819D02*
X128129887Y-84219819D01*
X128129887Y-84219819D02*
X128034649Y-84172200D01*
X128034649Y-84172200D02*
X127987030Y-84124580D01*
X127987030Y-84124580D02*
X127939411Y-84029342D01*
X127939411Y-84029342D02*
X127939411Y-83934104D01*
X127939411Y-83934104D02*
X127987030Y-83838866D01*
X127987030Y-83838866D02*
X128034649Y-83791247D01*
X128034649Y-83791247D02*
X128129887Y-83743628D01*
X128129887Y-83743628D02*
X128320363Y-83696009D01*
X128320363Y-83696009D02*
X128415601Y-83648390D01*
X128415601Y-83648390D02*
X128463220Y-83600771D01*
X128463220Y-83600771D02*
X128510839Y-83505533D01*
X128510839Y-83505533D02*
X128510839Y-83410295D01*
X128510839Y-83410295D02*
X128463220Y-83315057D01*
X128463220Y-83315057D02*
X128415601Y-83267438D01*
X128415601Y-83267438D02*
X128320363Y-83219819D01*
X128320363Y-83219819D02*
X128082268Y-83219819D01*
X128082268Y-83219819D02*
X127939411Y-83267438D01*
X127510839Y-84219819D02*
X127510839Y-83219819D01*
X127510839Y-83219819D02*
X127272744Y-83219819D01*
X127272744Y-83219819D02*
X127129887Y-83267438D01*
X127129887Y-83267438D02*
X127034649Y-83362676D01*
X127034649Y-83362676D02*
X126987030Y-83457914D01*
X126987030Y-83457914D02*
X126939411Y-83648390D01*
X126939411Y-83648390D02*
X126939411Y-83791247D01*
X126939411Y-83791247D02*
X126987030Y-83981723D01*
X126987030Y-83981723D02*
X127034649Y-84076961D01*
X127034649Y-84076961D02*
X127129887Y-84172200D01*
X127129887Y-84172200D02*
X127272744Y-84219819D01*
X127272744Y-84219819D02*
X127510839Y-84219819D01*
X126510839Y-84219819D02*
X126510839Y-83219819D01*
X125844173Y-83219819D02*
X125653697Y-83219819D01*
X125653697Y-83219819D02*
X125558459Y-83267438D01*
X125558459Y-83267438D02*
X125463221Y-83362676D01*
X125463221Y-83362676D02*
X125415602Y-83553152D01*
X125415602Y-83553152D02*
X125415602Y-83886485D01*
X125415602Y-83886485D02*
X125463221Y-84076961D01*
X125463221Y-84076961D02*
X125558459Y-84172200D01*
X125558459Y-84172200D02*
X125653697Y-84219819D01*
X125653697Y-84219819D02*
X125844173Y-84219819D01*
X125844173Y-84219819D02*
X125939411Y-84172200D01*
X125939411Y-84172200D02*
X126034649Y-84076961D01*
X126034649Y-84076961D02*
X126082268Y-83886485D01*
X126082268Y-83886485D02*
X126082268Y-83553152D01*
X126082268Y-83553152D02*
X126034649Y-83362676D01*
X126034649Y-83362676D02*
X125939411Y-83267438D01*
X125939411Y-83267438D02*
X125844173Y-83219819D01*
D10*
X140935714Y-79228801D02*
X141150000Y-79157373D01*
X141150000Y-79157373D02*
X141221429Y-79085944D01*
X141221429Y-79085944D02*
X141292857Y-78943087D01*
X141292857Y-78943087D02*
X141292857Y-78728801D01*
X141292857Y-78728801D02*
X141221429Y-78585944D01*
X141221429Y-78585944D02*
X141150000Y-78514516D01*
X141150000Y-78514516D02*
X141007143Y-78443087D01*
X141007143Y-78443087D02*
X140435714Y-78443087D01*
X140435714Y-78443087D02*
X140435714Y-79943087D01*
X140435714Y-79943087D02*
X140935714Y-79943087D01*
X140935714Y-79943087D02*
X141078572Y-79871658D01*
X141078572Y-79871658D02*
X141150000Y-79800230D01*
X141150000Y-79800230D02*
X141221429Y-79657373D01*
X141221429Y-79657373D02*
X141221429Y-79514516D01*
X141221429Y-79514516D02*
X141150000Y-79371658D01*
X141150000Y-79371658D02*
X141078572Y-79300230D01*
X141078572Y-79300230D02*
X140935714Y-79228801D01*
X140935714Y-79228801D02*
X140435714Y-79228801D01*
X141721429Y-79943087D02*
X142578572Y-79943087D01*
X142150000Y-78443087D02*
X142150000Y-79943087D01*
X139185714Y-76171028D02*
X139114286Y-76099600D01*
X139114286Y-76099600D02*
X138900000Y-76028171D01*
X138900000Y-76028171D02*
X138757143Y-76028171D01*
X138757143Y-76028171D02*
X138542857Y-76099600D01*
X138542857Y-76099600D02*
X138400000Y-76242457D01*
X138400000Y-76242457D02*
X138328571Y-76385314D01*
X138328571Y-76385314D02*
X138257143Y-76671028D01*
X138257143Y-76671028D02*
X138257143Y-76885314D01*
X138257143Y-76885314D02*
X138328571Y-77171028D01*
X138328571Y-77171028D02*
X138400000Y-77313885D01*
X138400000Y-77313885D02*
X138542857Y-77456742D01*
X138542857Y-77456742D02*
X138757143Y-77528171D01*
X138757143Y-77528171D02*
X138900000Y-77528171D01*
X138900000Y-77528171D02*
X139114286Y-77456742D01*
X139114286Y-77456742D02*
X139185714Y-77385314D01*
X140542857Y-76028171D02*
X139828571Y-76028171D01*
X139828571Y-76028171D02*
X139828571Y-77528171D01*
X141042857Y-76813885D02*
X141542857Y-76813885D01*
X141757143Y-76028171D02*
X141042857Y-76028171D01*
X141042857Y-76028171D02*
X141042857Y-77528171D01*
X141042857Y-77528171D02*
X141757143Y-77528171D01*
X142328572Y-76456742D02*
X143042858Y-76456742D01*
X142185715Y-76028171D02*
X142685715Y-77528171D01*
X142685715Y-77528171D02*
X143185715Y-76028171D01*
X144542857Y-76028171D02*
X144042857Y-76742457D01*
X143685714Y-76028171D02*
X143685714Y-77528171D01*
X143685714Y-77528171D02*
X144257143Y-77528171D01*
X144257143Y-77528171D02*
X144400000Y-77456742D01*
X144400000Y-77456742D02*
X144471429Y-77385314D01*
X144471429Y-77385314D02*
X144542857Y-77242457D01*
X144542857Y-77242457D02*
X144542857Y-77028171D01*
X144542857Y-77028171D02*
X144471429Y-76885314D01*
X144471429Y-76885314D02*
X144400000Y-76813885D01*
X144400000Y-76813885D02*
X144257143Y-76742457D01*
X144257143Y-76742457D02*
X143685714Y-76742457D01*
G36*
X171409854Y-103914014D02*
G01*
X171506121Y-104010281D01*
X171550828Y-104099694D01*
X171550828Y-104314589D01*
X171506121Y-104404001D01*
X171409854Y-104500268D01*
X171182363Y-104557142D01*
X170719292Y-104557142D01*
X170491801Y-104500268D01*
X170395535Y-104404002D01*
X170350828Y-104314588D01*
X170350828Y-104099695D01*
X170395535Y-104010281D01*
X170491802Y-103914014D01*
X170719292Y-103857142D01*
X171182364Y-103857142D01*
X171409854Y-103914014D01*
G37*
G36*
X168421626Y-102993161D02*
G01*
X168376919Y-103082574D01*
X168339914Y-103119579D01*
X168250502Y-103164285D01*
X168107036Y-103164285D01*
X168017623Y-103119579D01*
X167980619Y-103082575D01*
X167935912Y-102993160D01*
X167935912Y-102607142D01*
X168421626Y-102607142D01*
X168421626Y-102993161D01*
G37*
G36*
X168707341Y-97963315D02*
G01*
X168260252Y-97814286D01*
X168707341Y-97665256D01*
X168707341Y-97963315D01*
G37*
G36*
X169135912Y-96564590D02*
G01*
X169091205Y-96654003D01*
X169054200Y-96691008D01*
X168964788Y-96735714D01*
X168821322Y-96735714D01*
X168731908Y-96691007D01*
X168702731Y-96661830D01*
X168650198Y-96504228D01*
X168650198Y-96178571D01*
X169135912Y-96178571D01*
X169135912Y-96564590D01*
G37*
G36*
X168350198Y-96493161D02*
G01*
X168305491Y-96582575D01*
X168268487Y-96619578D01*
X168179074Y-96664286D01*
X168107036Y-96664286D01*
X168017623Y-96619579D01*
X167980619Y-96582575D01*
X167935912Y-96493161D01*
X167935912Y-96178571D01*
X168350198Y-96178571D01*
X168350198Y-96493161D01*
G37*
G36*
X171409854Y-95628300D02*
G01*
X171506121Y-95724567D01*
X171550828Y-95813980D01*
X171550828Y-96028875D01*
X171506121Y-96118287D01*
X171409854Y-96214554D01*
X171182363Y-96271428D01*
X170719292Y-96271428D01*
X170491801Y-96214554D01*
X170395535Y-96118288D01*
X170350828Y-96028874D01*
X170350828Y-95813981D01*
X170395535Y-95724567D01*
X170491802Y-95628300D01*
X170719292Y-95571428D01*
X171182364Y-95571428D01*
X171409854Y-95628300D01*
G37*
G36*
X172017495Y-106523809D02*
G01*
X167469245Y-106523809D01*
X167469245Y-105360476D01*
X170051194Y-105360476D01*
X170053710Y-105369700D01*
X170053710Y-105379263D01*
X170061345Y-105397695D01*
X170066594Y-105416940D01*
X170072448Y-105424499D01*
X170076108Y-105433335D01*
X170090215Y-105447442D01*
X170102429Y-105463214D01*
X170114692Y-105471919D01*
X170117492Y-105474719D01*
X170120239Y-105475857D01*
X170126407Y-105480235D01*
X171135993Y-106057142D01*
X170200828Y-106057142D01*
X170171564Y-106060024D01*
X170117492Y-106082422D01*
X170076108Y-106123806D01*
X170053710Y-106177878D01*
X170053710Y-106236406D01*
X170076108Y-106290478D01*
X170117492Y-106331862D01*
X170171564Y-106354260D01*
X170200828Y-106357142D01*
X171700828Y-106357142D01*
X171708354Y-106356400D01*
X171711306Y-106356776D01*
X171715127Y-106355733D01*
X171730092Y-106354260D01*
X171748524Y-106346624D01*
X171767769Y-106341376D01*
X171775328Y-106335521D01*
X171784164Y-106331862D01*
X171798271Y-106317754D01*
X171814043Y-106305541D01*
X171818787Y-106297238D01*
X171825548Y-106290478D01*
X171833182Y-106272047D01*
X171843081Y-106254725D01*
X171844286Y-106245239D01*
X171847946Y-106236406D01*
X171847946Y-106216456D01*
X171850462Y-106196665D01*
X171847946Y-106187439D01*
X171847946Y-106177878D01*
X171840312Y-106159449D01*
X171835063Y-106140201D01*
X171829206Y-106132639D01*
X171825548Y-106123806D01*
X171811442Y-106109700D01*
X171799227Y-106093927D01*
X171786963Y-106085221D01*
X171784164Y-106082422D01*
X171781416Y-106081283D01*
X171775249Y-106076906D01*
X170765662Y-105499999D01*
X171700828Y-105499999D01*
X171730092Y-105497117D01*
X171784164Y-105474719D01*
X171825548Y-105433335D01*
X171847946Y-105379263D01*
X171847946Y-105320735D01*
X171825548Y-105266663D01*
X171784164Y-105225279D01*
X171730092Y-105202881D01*
X171700828Y-105199999D01*
X170200828Y-105199999D01*
X170193302Y-105200740D01*
X170190351Y-105200365D01*
X170186530Y-105201407D01*
X170171564Y-105202881D01*
X170153131Y-105210516D01*
X170133887Y-105215765D01*
X170126327Y-105221619D01*
X170117492Y-105225279D01*
X170103384Y-105239386D01*
X170087613Y-105251600D01*
X170082868Y-105259902D01*
X170076108Y-105266663D01*
X170068473Y-105285093D01*
X170058575Y-105302416D01*
X170057369Y-105311901D01*
X170053710Y-105320735D01*
X170053710Y-105340684D01*
X170051194Y-105360476D01*
X167469245Y-105360476D01*
X167469245Y-103746205D01*
X167635949Y-103746205D01*
X167648646Y-103803337D01*
X167682239Y-103851264D01*
X167705381Y-103869406D01*
X168292231Y-104242857D01*
X167705381Y-104616308D01*
X167682239Y-104634450D01*
X167648646Y-104682377D01*
X167635949Y-104739509D01*
X167646083Y-104797152D01*
X167677505Y-104846530D01*
X167725432Y-104880123D01*
X167782564Y-104892820D01*
X167840207Y-104882686D01*
X167866443Y-104869406D01*
X168615305Y-104392857D01*
X169285912Y-104392857D01*
X169315176Y-104389975D01*
X169369248Y-104367577D01*
X169410632Y-104326193D01*
X169433030Y-104272121D01*
X169433030Y-104213593D01*
X169410632Y-104159521D01*
X169369248Y-104118137D01*
X169315176Y-104095739D01*
X169285912Y-104092857D01*
X168615305Y-104092857D01*
X168570406Y-104064285D01*
X170050828Y-104064285D01*
X170050828Y-104349999D01*
X170053710Y-104379263D01*
X170055773Y-104384243D01*
X170056155Y-104389618D01*
X170066664Y-104417081D01*
X170138093Y-104559938D01*
X170146020Y-104572531D01*
X170147536Y-104576191D01*
X170150917Y-104580310D01*
X170153758Y-104584824D01*
X170156751Y-104587420D01*
X170166191Y-104598922D01*
X170309048Y-104741779D01*
X170331778Y-104760434D01*
X170342081Y-104764701D01*
X170351042Y-104771341D01*
X170378733Y-104781234D01*
X170664447Y-104852663D01*
X170669519Y-104853413D01*
X170671564Y-104854260D01*
X170682583Y-104855345D01*
X170693536Y-104856965D01*
X170695724Y-104856639D01*
X170700828Y-104857142D01*
X171200828Y-104857142D01*
X171205931Y-104856639D01*
X171208119Y-104856965D01*
X171219070Y-104855345D01*
X171230092Y-104854260D01*
X171232136Y-104853413D01*
X171237209Y-104852663D01*
X171522922Y-104781234D01*
X171550613Y-104771341D01*
X171559573Y-104764701D01*
X171569877Y-104760434D01*
X171592608Y-104741779D01*
X171735466Y-104598922D01*
X171744909Y-104587415D01*
X171747899Y-104584823D01*
X171750735Y-104580317D01*
X171754121Y-104576192D01*
X171755638Y-104572528D01*
X171763564Y-104559938D01*
X171834992Y-104417080D01*
X171845502Y-104389617D01*
X171845883Y-104384241D01*
X171847946Y-104379263D01*
X171850828Y-104349999D01*
X171850828Y-104064285D01*
X171847946Y-104035021D01*
X171845883Y-104030042D01*
X171845502Y-104024667D01*
X171834992Y-103997204D01*
X171763564Y-103854346D01*
X171755637Y-103841754D01*
X171754121Y-103838093D01*
X171750737Y-103833970D01*
X171747899Y-103829461D01*
X171744907Y-103826866D01*
X171735466Y-103815362D01*
X171592608Y-103672504D01*
X171569877Y-103653849D01*
X171559573Y-103649581D01*
X171550613Y-103642942D01*
X171522922Y-103633049D01*
X171237208Y-103561621D01*
X171232136Y-103560871D01*
X171230092Y-103560024D01*
X171219069Y-103558938D01*
X171208119Y-103557319D01*
X171205931Y-103557644D01*
X171200828Y-103557142D01*
X170700828Y-103557142D01*
X170695724Y-103557644D01*
X170693537Y-103557319D01*
X170682586Y-103558938D01*
X170671564Y-103560024D01*
X170669519Y-103560871D01*
X170664448Y-103561621D01*
X170378734Y-103633049D01*
X170351043Y-103642942D01*
X170342083Y-103649580D01*
X170331778Y-103653849D01*
X170309048Y-103672504D01*
X170166191Y-103815362D01*
X170156751Y-103826863D01*
X170153758Y-103829460D01*
X170150917Y-103833973D01*
X170147536Y-103838093D01*
X170146020Y-103841752D01*
X170138093Y-103854346D01*
X170066664Y-103997203D01*
X170056155Y-104024666D01*
X170055773Y-104030040D01*
X170053710Y-104035021D01*
X170050828Y-104064285D01*
X168570406Y-104064285D01*
X167866443Y-103616308D01*
X167840207Y-103603028D01*
X167782564Y-103592894D01*
X167725432Y-103605591D01*
X167677505Y-103639184D01*
X167646083Y-103688562D01*
X167635949Y-103746205D01*
X167469245Y-103746205D01*
X167469245Y-102457142D01*
X167635912Y-102457142D01*
X167635912Y-103028571D01*
X167638794Y-103057835D01*
X167640857Y-103062815D01*
X167641239Y-103068190D01*
X167651748Y-103095653D01*
X167723177Y-103238510D01*
X167731105Y-103251105D01*
X167732620Y-103254762D01*
X167735999Y-103258879D01*
X167738842Y-103263396D01*
X167741836Y-103265993D01*
X167751274Y-103277493D01*
X167822702Y-103348922D01*
X167834207Y-103358364D01*
X167836802Y-103361356D01*
X167841312Y-103364195D01*
X167845433Y-103367577D01*
X167849092Y-103369092D01*
X167861687Y-103377021D01*
X168004545Y-103448449D01*
X168032008Y-103458959D01*
X168037383Y-103459340D01*
X168042362Y-103461403D01*
X168071626Y-103464285D01*
X168285912Y-103464285D01*
X168315176Y-103461403D01*
X168320154Y-103459340D01*
X168325530Y-103458959D01*
X168352994Y-103448449D01*
X168495851Y-103377021D01*
X168508444Y-103369093D01*
X168512104Y-103367578D01*
X168516223Y-103364196D01*
X168520737Y-103361356D01*
X168523333Y-103358362D01*
X168534835Y-103348923D01*
X168606264Y-103277494D01*
X168615705Y-103265989D01*
X168618697Y-103263395D01*
X168621535Y-103258885D01*
X168624919Y-103254763D01*
X168626435Y-103251101D01*
X168634362Y-103238510D01*
X168705790Y-103095652D01*
X168707104Y-103092217D01*
X169199893Y-103437170D01*
X169225519Y-103451591D01*
X169282661Y-103464250D01*
X169340297Y-103454079D01*
X169389654Y-103422626D01*
X169423218Y-103374678D01*
X169435877Y-103317536D01*
X169425706Y-103259900D01*
X169394253Y-103210543D01*
X169371931Y-103191400D01*
X168721626Y-102736186D01*
X168721626Y-102607142D01*
X169285912Y-102607142D01*
X169315176Y-102604260D01*
X169369248Y-102581862D01*
X169410632Y-102540478D01*
X169433030Y-102486406D01*
X169433030Y-102427878D01*
X169410632Y-102373806D01*
X169369248Y-102332422D01*
X169315176Y-102310024D01*
X169285912Y-102307142D01*
X167785912Y-102307142D01*
X167756648Y-102310024D01*
X167702576Y-102332422D01*
X167661192Y-102373806D01*
X167638794Y-102427878D01*
X167635912Y-102457142D01*
X167469245Y-102457142D01*
X167469245Y-101099999D01*
X167635912Y-101099999D01*
X167635912Y-101814285D01*
X167638794Y-101843549D01*
X167661192Y-101897621D01*
X167702576Y-101939005D01*
X167756648Y-101961403D01*
X167815176Y-101961403D01*
X167869248Y-101939005D01*
X167910632Y-101897621D01*
X167933030Y-101843549D01*
X167935912Y-101814285D01*
X167935912Y-101249999D01*
X168350198Y-101249999D01*
X168350198Y-101599999D01*
X168353080Y-101629263D01*
X168375478Y-101683335D01*
X168416862Y-101724719D01*
X168470934Y-101747117D01*
X168529462Y-101747117D01*
X168583534Y-101724719D01*
X168624918Y-101683335D01*
X168647316Y-101629263D01*
X168650198Y-101599999D01*
X168650198Y-101249999D01*
X169135912Y-101249999D01*
X169135912Y-101814285D01*
X169138794Y-101843549D01*
X169161192Y-101897621D01*
X169202576Y-101939005D01*
X169256648Y-101961403D01*
X169315176Y-101961403D01*
X169369248Y-101939005D01*
X169410632Y-101897621D01*
X169433030Y-101843549D01*
X169435912Y-101814285D01*
X169435912Y-101099999D01*
X169433030Y-101070735D01*
X169410632Y-101016663D01*
X169369248Y-100975279D01*
X169315176Y-100952881D01*
X169285912Y-100949999D01*
X167785912Y-100949999D01*
X167756648Y-100952881D01*
X167702576Y-100975279D01*
X167661192Y-101016663D01*
X167638794Y-101070735D01*
X167635912Y-101099999D01*
X167469245Y-101099999D01*
X167469245Y-100778570D01*
X170979400Y-100778570D01*
X170979400Y-101921428D01*
X170982282Y-101950692D01*
X171004680Y-102004764D01*
X171046064Y-102046148D01*
X171100136Y-102068546D01*
X171158664Y-102068546D01*
X171212736Y-102046148D01*
X171254120Y-102004764D01*
X171276518Y-101950692D01*
X171279400Y-101921428D01*
X171279400Y-100778570D01*
X171276518Y-100749306D01*
X171254120Y-100695234D01*
X171212736Y-100653850D01*
X171158664Y-100631452D01*
X171100136Y-100631452D01*
X171046064Y-100653850D01*
X171004680Y-100695234D01*
X170982282Y-100749306D01*
X170979400Y-100778570D01*
X167469245Y-100778570D01*
X167469245Y-98600000D01*
X167635912Y-98600000D01*
X167635912Y-99457143D01*
X167638794Y-99486407D01*
X167661192Y-99540479D01*
X167702576Y-99581863D01*
X167746361Y-99600000D01*
X167702576Y-99618137D01*
X167661192Y-99659521D01*
X167638794Y-99713593D01*
X167635912Y-99742857D01*
X167635912Y-100600000D01*
X167638794Y-100629264D01*
X167661192Y-100683336D01*
X167702576Y-100724720D01*
X167756648Y-100747118D01*
X167815176Y-100747118D01*
X167869248Y-100724720D01*
X167910632Y-100683336D01*
X167933030Y-100629264D01*
X167935912Y-100600000D01*
X167935912Y-100321428D01*
X169285912Y-100321428D01*
X169315176Y-100318546D01*
X169369248Y-100296148D01*
X169410632Y-100254764D01*
X169433030Y-100200692D01*
X169433030Y-100142164D01*
X169410632Y-100088092D01*
X169369248Y-100046708D01*
X169315176Y-100024310D01*
X169285912Y-100021428D01*
X167935912Y-100021428D01*
X167935912Y-99742857D01*
X167933030Y-99713593D01*
X167910632Y-99659521D01*
X167869248Y-99618137D01*
X167825462Y-99600000D01*
X167869248Y-99581863D01*
X167910632Y-99540479D01*
X167933030Y-99486407D01*
X167935912Y-99457143D01*
X167935912Y-99178571D01*
X169285912Y-99178571D01*
X169315176Y-99175689D01*
X169369248Y-99153291D01*
X169410632Y-99111907D01*
X169433030Y-99057835D01*
X169433030Y-98999307D01*
X169410632Y-98945235D01*
X169369248Y-98903851D01*
X169315176Y-98881453D01*
X169285912Y-98878571D01*
X167935912Y-98878571D01*
X167935912Y-98600000D01*
X167933030Y-98570736D01*
X167910632Y-98516664D01*
X167869248Y-98475280D01*
X167815176Y-98452882D01*
X167756648Y-98452882D01*
X167702576Y-98475280D01*
X167661192Y-98516664D01*
X167638794Y-98570736D01*
X167635912Y-98600000D01*
X167469245Y-98600000D01*
X167469245Y-97795525D01*
X167637090Y-97795525D01*
X167638423Y-97814286D01*
X167637090Y-97833047D01*
X167640479Y-97843214D01*
X167641239Y-97853906D01*
X167649650Y-97870729D01*
X167655598Y-97888571D01*
X167662620Y-97896667D01*
X167667413Y-97906253D01*
X167681621Y-97918576D01*
X167693945Y-97932785D01*
X167703530Y-97937577D01*
X167711627Y-97944600D01*
X167738478Y-97956588D01*
X169238478Y-98456589D01*
X169267152Y-98463109D01*
X169325532Y-98458959D01*
X169377879Y-98432785D01*
X169416226Y-98388571D01*
X169429084Y-98349999D01*
X170050828Y-98349999D01*
X170050828Y-99064285D01*
X170053710Y-99093549D01*
X170076108Y-99147621D01*
X170117492Y-99189005D01*
X170171564Y-99211403D01*
X170230092Y-99211403D01*
X170284164Y-99189005D01*
X170325548Y-99147621D01*
X170347946Y-99093549D01*
X170350828Y-99064285D01*
X170350828Y-98499999D01*
X170765114Y-98499999D01*
X170765114Y-98849999D01*
X170767996Y-98879263D01*
X170790394Y-98933335D01*
X170831778Y-98974719D01*
X170885850Y-98997117D01*
X170944378Y-98997117D01*
X170998450Y-98974719D01*
X171039834Y-98933335D01*
X171062232Y-98879263D01*
X171065114Y-98849999D01*
X171065114Y-98499999D01*
X171700828Y-98499999D01*
X171730092Y-98497117D01*
X171784164Y-98474719D01*
X171825548Y-98433335D01*
X171847946Y-98379263D01*
X171847946Y-98320735D01*
X171825548Y-98266663D01*
X171784164Y-98225279D01*
X171730092Y-98202881D01*
X171700828Y-98199999D01*
X170200828Y-98199999D01*
X170171564Y-98202881D01*
X170117492Y-98225279D01*
X170076108Y-98266663D01*
X170053710Y-98320735D01*
X170050828Y-98349999D01*
X169429084Y-98349999D01*
X169434735Y-98333047D01*
X169430585Y-98274667D01*
X169404412Y-98222319D01*
X169360197Y-98183972D01*
X169333346Y-98171984D01*
X169007341Y-98063315D01*
X169007341Y-97565256D01*
X169333346Y-97456588D01*
X169360197Y-97444600D01*
X169404412Y-97406253D01*
X169430585Y-97353905D01*
X169434735Y-97295525D01*
X169416226Y-97240001D01*
X169377879Y-97195787D01*
X169325532Y-97169613D01*
X169267152Y-97165463D01*
X169238478Y-97171983D01*
X167738478Y-97671984D01*
X167711627Y-97683972D01*
X167703530Y-97690994D01*
X167693945Y-97695787D01*
X167681621Y-97709995D01*
X167667413Y-97722319D01*
X167662620Y-97731904D01*
X167655598Y-97740001D01*
X167649650Y-97757842D01*
X167641239Y-97774666D01*
X167640479Y-97785357D01*
X167637090Y-97795525D01*
X167469245Y-97795525D01*
X167469245Y-97064285D01*
X170050828Y-97064285D01*
X170050828Y-97778571D01*
X170053710Y-97807835D01*
X170076108Y-97861907D01*
X170117492Y-97903291D01*
X170171564Y-97925689D01*
X170230092Y-97925689D01*
X170284164Y-97903291D01*
X170325548Y-97861907D01*
X170347946Y-97807835D01*
X170350828Y-97778571D01*
X170350828Y-97214285D01*
X170765114Y-97214285D01*
X170765114Y-97564285D01*
X170767996Y-97593549D01*
X170790394Y-97647621D01*
X170831778Y-97689005D01*
X170885850Y-97711403D01*
X170944378Y-97711403D01*
X170998450Y-97689005D01*
X171039834Y-97647621D01*
X171062232Y-97593549D01*
X171065114Y-97564285D01*
X171065114Y-97214285D01*
X171700828Y-97214285D01*
X171730092Y-97211403D01*
X171784164Y-97189005D01*
X171825548Y-97147621D01*
X171847946Y-97093549D01*
X171847946Y-97035021D01*
X171825548Y-96980949D01*
X171784164Y-96939565D01*
X171730092Y-96917167D01*
X171700828Y-96914285D01*
X170200828Y-96914285D01*
X170171564Y-96917167D01*
X170117492Y-96939565D01*
X170076108Y-96980949D01*
X170053710Y-97035021D01*
X170050828Y-97064285D01*
X167469245Y-97064285D01*
X167469245Y-96028571D01*
X167635912Y-96028571D01*
X167635912Y-96528571D01*
X167638794Y-96557835D01*
X167640855Y-96562812D01*
X167641238Y-96568190D01*
X167651748Y-96595653D01*
X167723177Y-96738511D01*
X167731104Y-96751104D01*
X167732620Y-96754764D01*
X167736001Y-96758883D01*
X167738842Y-96763397D01*
X167741835Y-96765993D01*
X167751275Y-96777495D01*
X167822703Y-96848923D01*
X167834205Y-96858363D01*
X167836801Y-96861356D01*
X167841310Y-96864194D01*
X167845433Y-96867578D01*
X167849095Y-96869094D01*
X167861687Y-96877021D01*
X168004543Y-96948450D01*
X168032007Y-96958959D01*
X168037381Y-96959340D01*
X168042362Y-96961404D01*
X168071626Y-96964286D01*
X168214484Y-96964286D01*
X168243748Y-96961404D01*
X168248728Y-96959340D01*
X168254103Y-96958959D01*
X168281566Y-96948450D01*
X168424423Y-96877021D01*
X168437016Y-96869093D01*
X168440676Y-96867578D01*
X168444795Y-96864196D01*
X168449309Y-96861356D01*
X168451905Y-96858362D01*
X168463407Y-96848923D01*
X168464589Y-96847740D01*
X168465560Y-96848923D01*
X168536989Y-96920352D01*
X168548493Y-96929793D01*
X168551088Y-96932785D01*
X168555597Y-96935623D01*
X168559720Y-96939007D01*
X168563381Y-96940523D01*
X168575973Y-96948450D01*
X168718831Y-97019878D01*
X168746294Y-97030388D01*
X168751669Y-97030769D01*
X168756648Y-97032832D01*
X168785912Y-97035714D01*
X169000198Y-97035714D01*
X169029462Y-97032832D01*
X169034440Y-97030769D01*
X169039816Y-97030388D01*
X169067280Y-97019878D01*
X169210137Y-96948450D01*
X169222730Y-96940522D01*
X169226390Y-96939007D01*
X169230509Y-96935625D01*
X169235023Y-96932785D01*
X169237619Y-96929791D01*
X169249121Y-96920352D01*
X169320550Y-96848923D01*
X169329991Y-96837418D01*
X169332983Y-96834824D01*
X169335821Y-96830314D01*
X169339205Y-96826192D01*
X169340721Y-96822530D01*
X169348648Y-96809939D01*
X169420076Y-96667081D01*
X169430586Y-96639618D01*
X169430967Y-96634242D01*
X169433030Y-96629264D01*
X169435912Y-96600000D01*
X169435912Y-96028571D01*
X169433030Y-95999307D01*
X169410632Y-95945235D01*
X169369248Y-95903851D01*
X169315176Y-95881453D01*
X169285912Y-95878571D01*
X167785912Y-95878571D01*
X167756648Y-95881453D01*
X167702576Y-95903851D01*
X167661192Y-95945235D01*
X167638794Y-95999307D01*
X167635912Y-96028571D01*
X167469245Y-96028571D01*
X167469245Y-95778571D01*
X170050828Y-95778571D01*
X170050828Y-96064285D01*
X170053710Y-96093549D01*
X170055773Y-96098529D01*
X170056155Y-96103904D01*
X170066664Y-96131367D01*
X170138093Y-96274224D01*
X170146020Y-96286817D01*
X170147536Y-96290477D01*
X170150917Y-96294596D01*
X170153758Y-96299110D01*
X170156751Y-96301706D01*
X170166191Y-96313208D01*
X170309048Y-96456065D01*
X170331778Y-96474720D01*
X170342081Y-96478987D01*
X170351042Y-96485627D01*
X170378733Y-96495520D01*
X170664447Y-96566949D01*
X170669519Y-96567699D01*
X170671564Y-96568546D01*
X170682583Y-96569631D01*
X170693536Y-96571251D01*
X170695724Y-96570925D01*
X170700828Y-96571428D01*
X171200828Y-96571428D01*
X171205931Y-96570925D01*
X171208119Y-96571251D01*
X171219070Y-96569631D01*
X171230092Y-96568546D01*
X171232136Y-96567699D01*
X171237209Y-96566949D01*
X171522922Y-96495520D01*
X171550613Y-96485627D01*
X171559573Y-96478987D01*
X171569877Y-96474720D01*
X171592608Y-96456065D01*
X171735466Y-96313208D01*
X171744909Y-96301701D01*
X171747899Y-96299109D01*
X171750735Y-96294603D01*
X171754121Y-96290478D01*
X171755638Y-96286814D01*
X171763564Y-96274224D01*
X171834992Y-96131366D01*
X171845502Y-96103903D01*
X171845883Y-96098527D01*
X171847946Y-96093549D01*
X171850828Y-96064285D01*
X171850828Y-95778571D01*
X171847946Y-95749307D01*
X171845883Y-95744328D01*
X171845502Y-95738953D01*
X171834992Y-95711490D01*
X171763564Y-95568632D01*
X171755637Y-95556040D01*
X171754121Y-95552379D01*
X171750737Y-95548256D01*
X171747899Y-95543747D01*
X171744907Y-95541152D01*
X171735466Y-95529648D01*
X171592608Y-95386790D01*
X171569877Y-95368135D01*
X171559573Y-95363867D01*
X171550613Y-95357228D01*
X171522922Y-95347335D01*
X171237208Y-95275907D01*
X171232136Y-95275157D01*
X171230092Y-95274310D01*
X171219069Y-95273224D01*
X171208119Y-95271605D01*
X171205931Y-95271930D01*
X171200828Y-95271428D01*
X170700828Y-95271428D01*
X170695724Y-95271930D01*
X170693537Y-95271605D01*
X170682586Y-95273224D01*
X170671564Y-95274310D01*
X170669519Y-95275157D01*
X170664448Y-95275907D01*
X170378734Y-95347335D01*
X170351043Y-95357228D01*
X170342083Y-95363866D01*
X170331778Y-95368135D01*
X170309048Y-95386790D01*
X170166191Y-95529648D01*
X170156751Y-95541149D01*
X170153758Y-95543746D01*
X170150917Y-95548259D01*
X170147536Y-95552379D01*
X170146020Y-95556038D01*
X170138093Y-95568632D01*
X170066664Y-95711489D01*
X170056155Y-95738952D01*
X170055773Y-95744326D01*
X170053710Y-95749307D01*
X170050828Y-95778571D01*
X167469245Y-95778571D01*
X167469245Y-95104761D01*
X172017495Y-95104761D01*
X172017495Y-106523809D01*
G37*
D11*
X128163220Y-119819819D02*
X128163220Y-118819819D01*
X128163220Y-118819819D02*
X127591792Y-119819819D01*
X127591792Y-119819819D02*
X127591792Y-118819819D01*
X126544173Y-119724580D02*
X126591792Y-119772200D01*
X126591792Y-119772200D02*
X126734649Y-119819819D01*
X126734649Y-119819819D02*
X126829887Y-119819819D01*
X126829887Y-119819819D02*
X126972744Y-119772200D01*
X126972744Y-119772200D02*
X127067982Y-119676961D01*
X127067982Y-119676961D02*
X127115601Y-119581723D01*
X127115601Y-119581723D02*
X127163220Y-119391247D01*
X127163220Y-119391247D02*
X127163220Y-119248390D01*
X127163220Y-119248390D02*
X127115601Y-119057914D01*
X127115601Y-119057914D02*
X127067982Y-118962676D01*
X127067982Y-118962676D02*
X126972744Y-118867438D01*
X126972744Y-118867438D02*
X126829887Y-118819819D01*
X126829887Y-118819819D02*
X126734649Y-118819819D01*
X126734649Y-118819819D02*
X126591792Y-118867438D01*
X126591792Y-118867438D02*
X126544173Y-118915057D01*
X126163220Y-119772200D02*
X126020363Y-119819819D01*
X126020363Y-119819819D02*
X125782268Y-119819819D01*
X125782268Y-119819819D02*
X125687030Y-119772200D01*
X125687030Y-119772200D02*
X125639411Y-119724580D01*
X125639411Y-119724580D02*
X125591792Y-119629342D01*
X125591792Y-119629342D02*
X125591792Y-119534104D01*
X125591792Y-119534104D02*
X125639411Y-119438866D01*
X125639411Y-119438866D02*
X125687030Y-119391247D01*
X125687030Y-119391247D02*
X125782268Y-119343628D01*
X125782268Y-119343628D02*
X125972744Y-119296009D01*
X125972744Y-119296009D02*
X126067982Y-119248390D01*
X126067982Y-119248390D02*
X126115601Y-119200771D01*
X126115601Y-119200771D02*
X126163220Y-119105533D01*
X126163220Y-119105533D02*
X126163220Y-119010295D01*
X126163220Y-119010295D02*
X126115601Y-118915057D01*
X126115601Y-118915057D02*
X126067982Y-118867438D01*
X126067982Y-118867438D02*
X125972744Y-118819819D01*
X125972744Y-118819819D02*
X125734649Y-118819819D01*
X125734649Y-118819819D02*
X125591792Y-118867438D01*
D10*
X144990225Y-88129003D02*
X145847368Y-88129003D01*
X145418796Y-86629003D02*
X145418796Y-88129003D01*
X146347367Y-86629003D02*
X146347367Y-88129003D01*
X146990225Y-86629003D02*
X146990225Y-87414717D01*
X146990225Y-87414717D02*
X146918796Y-87557574D01*
X146918796Y-87557574D02*
X146775939Y-87629003D01*
X146775939Y-87629003D02*
X146561653Y-87629003D01*
X146561653Y-87629003D02*
X146418796Y-87557574D01*
X146418796Y-87557574D02*
X146347367Y-87486146D01*
X148347368Y-87629003D02*
X148347368Y-86629003D01*
X147704510Y-87629003D02*
X147704510Y-86843289D01*
X147704510Y-86843289D02*
X147775939Y-86700432D01*
X147775939Y-86700432D02*
X147918796Y-86629003D01*
X147918796Y-86629003D02*
X148133082Y-86629003D01*
X148133082Y-86629003D02*
X148275939Y-86700432D01*
X148275939Y-86700432D02*
X148347368Y-86771860D01*
X149061653Y-86629003D02*
X149061653Y-87629003D01*
X149061653Y-87486146D02*
X149133082Y-87557574D01*
X149133082Y-87557574D02*
X149275939Y-87629003D01*
X149275939Y-87629003D02*
X149490225Y-87629003D01*
X149490225Y-87629003D02*
X149633082Y-87557574D01*
X149633082Y-87557574D02*
X149704511Y-87414717D01*
X149704511Y-87414717D02*
X149704511Y-86629003D01*
X149704511Y-87414717D02*
X149775939Y-87557574D01*
X149775939Y-87557574D02*
X149918796Y-87629003D01*
X149918796Y-87629003D02*
X150133082Y-87629003D01*
X150133082Y-87629003D02*
X150275939Y-87557574D01*
X150275939Y-87557574D02*
X150347368Y-87414717D01*
X150347368Y-87414717D02*
X150347368Y-86629003D01*
X151061653Y-86629003D02*
X151061653Y-88129003D01*
X151061653Y-87557574D02*
X151204511Y-87629003D01*
X151204511Y-87629003D02*
X151490225Y-87629003D01*
X151490225Y-87629003D02*
X151633082Y-87557574D01*
X151633082Y-87557574D02*
X151704511Y-87486146D01*
X151704511Y-87486146D02*
X151775939Y-87343289D01*
X151775939Y-87343289D02*
X151775939Y-86914717D01*
X151775939Y-86914717D02*
X151704511Y-86771860D01*
X151704511Y-86771860D02*
X151633082Y-86700432D01*
X151633082Y-86700432D02*
X151490225Y-86629003D01*
X151490225Y-86629003D02*
X151204511Y-86629003D01*
X151204511Y-86629003D02*
X151061653Y-86700432D01*
X152347368Y-86700432D02*
X152490225Y-86629003D01*
X152490225Y-86629003D02*
X152775939Y-86629003D01*
X152775939Y-86629003D02*
X152918796Y-86700432D01*
X152918796Y-86700432D02*
X152990225Y-86843289D01*
X152990225Y-86843289D02*
X152990225Y-86914717D01*
X152990225Y-86914717D02*
X152918796Y-87057574D01*
X152918796Y-87057574D02*
X152775939Y-87129003D01*
X152775939Y-87129003D02*
X152561654Y-87129003D01*
X152561654Y-87129003D02*
X152418796Y-87200432D01*
X152418796Y-87200432D02*
X152347368Y-87343289D01*
X152347368Y-87343289D02*
X152347368Y-87414717D01*
X152347368Y-87414717D02*
X152418796Y-87557574D01*
X152418796Y-87557574D02*
X152561654Y-87629003D01*
X152561654Y-87629003D02*
X152775939Y-87629003D01*
X152775939Y-87629003D02*
X152918796Y-87557574D01*
X153633082Y-88129003D02*
X153633082Y-86914717D01*
X153633082Y-86914717D02*
X153704511Y-86771860D01*
X153704511Y-86771860D02*
X153775940Y-86700432D01*
X153775940Y-86700432D02*
X153918797Y-86629003D01*
X153918797Y-86629003D02*
X154204511Y-86629003D01*
X154204511Y-86629003D02*
X154347368Y-86700432D01*
X154347368Y-86700432D02*
X154418797Y-86771860D01*
X154418797Y-86771860D02*
X154490225Y-86914717D01*
X154490225Y-86914717D02*
X154490225Y-88129003D01*
X155204511Y-87629003D02*
X155204511Y-86129003D01*
X155204511Y-87557574D02*
X155347369Y-87629003D01*
X155347369Y-87629003D02*
X155633083Y-87629003D01*
X155633083Y-87629003D02*
X155775940Y-87557574D01*
X155775940Y-87557574D02*
X155847369Y-87486146D01*
X155847369Y-87486146D02*
X155918797Y-87343289D01*
X155918797Y-87343289D02*
X155918797Y-86914717D01*
X155918797Y-86914717D02*
X155847369Y-86771860D01*
X155847369Y-86771860D02*
X155775940Y-86700432D01*
X155775940Y-86700432D02*
X155633083Y-86629003D01*
X155633083Y-86629003D02*
X155347369Y-86629003D01*
X155347369Y-86629003D02*
X155204511Y-86700432D01*
X156561654Y-86771860D02*
X156633083Y-86700432D01*
X156633083Y-86700432D02*
X156561654Y-86629003D01*
X156561654Y-86629003D02*
X156490226Y-86700432D01*
X156490226Y-86700432D02*
X156561654Y-86771860D01*
X156561654Y-86771860D02*
X156561654Y-86629003D01*
X156561654Y-87200432D02*
X156490226Y-88057574D01*
X156490226Y-88057574D02*
X156561654Y-88129003D01*
X156561654Y-88129003D02*
X156633083Y-88057574D01*
X156633083Y-88057574D02*
X156561654Y-87200432D01*
X156561654Y-87200432D02*
X156561654Y-88129003D01*
X144990225Y-85714087D02*
X145847368Y-85714087D01*
X145418796Y-84214087D02*
X145418796Y-85714087D01*
X146347367Y-84214087D02*
X146347367Y-85214087D01*
X146347367Y-84928373D02*
X146418796Y-85071230D01*
X146418796Y-85071230D02*
X146490225Y-85142658D01*
X146490225Y-85142658D02*
X146633082Y-85214087D01*
X146633082Y-85214087D02*
X146775939Y-85214087D01*
X147918796Y-84214087D02*
X147918796Y-84999801D01*
X147918796Y-84999801D02*
X147847367Y-85142658D01*
X147847367Y-85142658D02*
X147704510Y-85214087D01*
X147704510Y-85214087D02*
X147418796Y-85214087D01*
X147418796Y-85214087D02*
X147275938Y-85142658D01*
X147918796Y-84285516D02*
X147775938Y-84214087D01*
X147775938Y-84214087D02*
X147418796Y-84214087D01*
X147418796Y-84214087D02*
X147275938Y-84285516D01*
X147275938Y-84285516D02*
X147204510Y-84428373D01*
X147204510Y-84428373D02*
X147204510Y-84571230D01*
X147204510Y-84571230D02*
X147275938Y-84714087D01*
X147275938Y-84714087D02*
X147418796Y-84785516D01*
X147418796Y-84785516D02*
X147775938Y-84785516D01*
X147775938Y-84785516D02*
X147918796Y-84856944D01*
X149275939Y-84285516D02*
X149133081Y-84214087D01*
X149133081Y-84214087D02*
X148847367Y-84214087D01*
X148847367Y-84214087D02*
X148704510Y-84285516D01*
X148704510Y-84285516D02*
X148633081Y-84356944D01*
X148633081Y-84356944D02*
X148561653Y-84499801D01*
X148561653Y-84499801D02*
X148561653Y-84928373D01*
X148561653Y-84928373D02*
X148633081Y-85071230D01*
X148633081Y-85071230D02*
X148704510Y-85142658D01*
X148704510Y-85142658D02*
X148847367Y-85214087D01*
X148847367Y-85214087D02*
X149133081Y-85214087D01*
X149133081Y-85214087D02*
X149275939Y-85142658D01*
X149918795Y-84214087D02*
X149918795Y-85714087D01*
X150061653Y-84785516D02*
X150490224Y-84214087D01*
X150490224Y-85214087D02*
X149918795Y-84642658D01*
X151133081Y-84214087D02*
X151133081Y-85714087D01*
X151133081Y-85142658D02*
X151275939Y-85214087D01*
X151275939Y-85214087D02*
X151561653Y-85214087D01*
X151561653Y-85214087D02*
X151704510Y-85142658D01*
X151704510Y-85142658D02*
X151775939Y-85071230D01*
X151775939Y-85071230D02*
X151847367Y-84928373D01*
X151847367Y-84928373D02*
X151847367Y-84499801D01*
X151847367Y-84499801D02*
X151775939Y-84356944D01*
X151775939Y-84356944D02*
X151704510Y-84285516D01*
X151704510Y-84285516D02*
X151561653Y-84214087D01*
X151561653Y-84214087D02*
X151275939Y-84214087D01*
X151275939Y-84214087D02*
X151133081Y-84285516D01*
X153133082Y-84214087D02*
X153133082Y-84999801D01*
X153133082Y-84999801D02*
X153061653Y-85142658D01*
X153061653Y-85142658D02*
X152918796Y-85214087D01*
X152918796Y-85214087D02*
X152633082Y-85214087D01*
X152633082Y-85214087D02*
X152490224Y-85142658D01*
X153133082Y-84285516D02*
X152990224Y-84214087D01*
X152990224Y-84214087D02*
X152633082Y-84214087D01*
X152633082Y-84214087D02*
X152490224Y-84285516D01*
X152490224Y-84285516D02*
X152418796Y-84428373D01*
X152418796Y-84428373D02*
X152418796Y-84571230D01*
X152418796Y-84571230D02*
X152490224Y-84714087D01*
X152490224Y-84714087D02*
X152633082Y-84785516D01*
X152633082Y-84785516D02*
X152990224Y-84785516D01*
X152990224Y-84785516D02*
X153133082Y-84856944D01*
X154061653Y-84214087D02*
X153918796Y-84285516D01*
X153918796Y-84285516D02*
X153847367Y-84428373D01*
X153847367Y-84428373D02*
X153847367Y-85714087D01*
X154847367Y-84214087D02*
X154704510Y-84285516D01*
X154704510Y-84285516D02*
X154633081Y-84428373D01*
X154633081Y-84428373D02*
X154633081Y-85714087D01*
X156418795Y-85214087D02*
X156775938Y-84214087D01*
X156775938Y-84214087D02*
X157133081Y-85214087D01*
X157561652Y-85714087D02*
X158490224Y-85714087D01*
X158490224Y-85714087D02*
X157990224Y-85142658D01*
X157990224Y-85142658D02*
X158204509Y-85142658D01*
X158204509Y-85142658D02*
X158347367Y-85071230D01*
X158347367Y-85071230D02*
X158418795Y-84999801D01*
X158418795Y-84999801D02*
X158490224Y-84856944D01*
X158490224Y-84856944D02*
X158490224Y-84499801D01*
X158490224Y-84499801D02*
X158418795Y-84356944D01*
X158418795Y-84356944D02*
X158347367Y-84285516D01*
X158347367Y-84285516D02*
X158204509Y-84214087D01*
X158204509Y-84214087D02*
X157775938Y-84214087D01*
X157775938Y-84214087D02*
X157633081Y-84285516D01*
X157633081Y-84285516D02*
X157561652Y-84356944D01*
X145204510Y-81799171D02*
X145204510Y-82799171D01*
X145204510Y-82513457D02*
X145275939Y-82656314D01*
X145275939Y-82656314D02*
X145347368Y-82727742D01*
X145347368Y-82727742D02*
X145490225Y-82799171D01*
X145490225Y-82799171D02*
X145633082Y-82799171D01*
X146704510Y-81870600D02*
X146561653Y-81799171D01*
X146561653Y-81799171D02*
X146275939Y-81799171D01*
X146275939Y-81799171D02*
X146133081Y-81870600D01*
X146133081Y-81870600D02*
X146061653Y-82013457D01*
X146061653Y-82013457D02*
X146061653Y-82584885D01*
X146061653Y-82584885D02*
X146133081Y-82727742D01*
X146133081Y-82727742D02*
X146275939Y-82799171D01*
X146275939Y-82799171D02*
X146561653Y-82799171D01*
X146561653Y-82799171D02*
X146704510Y-82727742D01*
X146704510Y-82727742D02*
X146775939Y-82584885D01*
X146775939Y-82584885D02*
X146775939Y-82442028D01*
X146775939Y-82442028D02*
X146061653Y-82299171D01*
X147275938Y-82799171D02*
X147633081Y-81799171D01*
X147633081Y-81799171D02*
X147990224Y-82799171D01*
X148561652Y-81942028D02*
X148633081Y-81870600D01*
X148633081Y-81870600D02*
X148561652Y-81799171D01*
X148561652Y-81799171D02*
X148490224Y-81870600D01*
X148490224Y-81870600D02*
X148561652Y-81942028D01*
X148561652Y-81942028D02*
X148561652Y-81799171D01*
X149133081Y-83299171D02*
X150061653Y-83299171D01*
X150061653Y-83299171D02*
X149561653Y-82727742D01*
X149561653Y-82727742D02*
X149775938Y-82727742D01*
X149775938Y-82727742D02*
X149918796Y-82656314D01*
X149918796Y-82656314D02*
X149990224Y-82584885D01*
X149990224Y-82584885D02*
X150061653Y-82442028D01*
X150061653Y-82442028D02*
X150061653Y-82084885D01*
X150061653Y-82084885D02*
X149990224Y-81942028D01*
X149990224Y-81942028D02*
X149918796Y-81870600D01*
X149918796Y-81870600D02*
X149775938Y-81799171D01*
X149775938Y-81799171D02*
X149347367Y-81799171D01*
X149347367Y-81799171D02*
X149204510Y-81870600D01*
X149204510Y-81870600D02*
X149133081Y-81942028D01*
D11*
X118935713Y-132804819D02*
X118935713Y-131804819D01*
X118935713Y-131804819D02*
X118602380Y-132519104D01*
X118602380Y-132519104D02*
X118269047Y-131804819D01*
X118269047Y-131804819D02*
X118269047Y-132804819D01*
X117888094Y-131804819D02*
X117221428Y-132804819D01*
X117221428Y-131804819D02*
X117888094Y-132804819D01*
X116411904Y-132138152D02*
X116411904Y-132804819D01*
X116649999Y-131757200D02*
X116888094Y-132471485D01*
X116888094Y-132471485D02*
X116269047Y-132471485D01*
X118435713Y-61054819D02*
X118435713Y-60054819D01*
X118435713Y-60054819D02*
X118102380Y-60769104D01*
X118102380Y-60769104D02*
X117769047Y-60054819D01*
X117769047Y-60054819D02*
X117769047Y-61054819D01*
X117388094Y-60054819D02*
X116721428Y-61054819D01*
X116721428Y-60054819D02*
X117388094Y-61054819D01*
X115816666Y-61054819D02*
X116388094Y-61054819D01*
X116102380Y-61054819D02*
X116102380Y-60054819D01*
X116102380Y-60054819D02*
X116197618Y-60197676D01*
X116197618Y-60197676D02*
X116292856Y-60292914D01*
X116292856Y-60292914D02*
X116388094Y-60340533D01*
X153854819Y-125766666D02*
X154569104Y-125766666D01*
X154569104Y-125766666D02*
X154711961Y-125719047D01*
X154711961Y-125719047D02*
X154807200Y-125623809D01*
X154807200Y-125623809D02*
X154854819Y-125480952D01*
X154854819Y-125480952D02*
X154854819Y-125385714D01*
X153854819Y-126719047D02*
X153854819Y-126242857D01*
X153854819Y-126242857D02*
X154331009Y-126195238D01*
X154331009Y-126195238D02*
X154283390Y-126242857D01*
X154283390Y-126242857D02*
X154235771Y-126338095D01*
X154235771Y-126338095D02*
X154235771Y-126576190D01*
X154235771Y-126576190D02*
X154283390Y-126671428D01*
X154283390Y-126671428D02*
X154331009Y-126719047D01*
X154331009Y-126719047D02*
X154426247Y-126766666D01*
X154426247Y-126766666D02*
X154664342Y-126766666D01*
X154664342Y-126766666D02*
X154759580Y-126719047D01*
X154759580Y-126719047D02*
X154807200Y-126671428D01*
X154807200Y-126671428D02*
X154854819Y-126576190D01*
X154854819Y-126576190D02*
X154854819Y-126338095D01*
X154854819Y-126338095D02*
X154807200Y-126242857D01*
X154807200Y-126242857D02*
X154759580Y-126195238D01*
X154104819Y-77016666D02*
X154819104Y-77016666D01*
X154819104Y-77016666D02*
X154961961Y-76969047D01*
X154961961Y-76969047D02*
X155057200Y-76873809D01*
X155057200Y-76873809D02*
X155104819Y-76730952D01*
X155104819Y-76730952D02*
X155104819Y-76635714D01*
X154438152Y-77921428D02*
X155104819Y-77921428D01*
X154057200Y-77683333D02*
X154771485Y-77445238D01*
X154771485Y-77445238D02*
X154771485Y-78064285D01*
X111444498Y-126750954D02*
X110939422Y-127256030D01*
X110939422Y-127256030D02*
X110872078Y-127390717D01*
X110872078Y-127390717D02*
X110872078Y-127525404D01*
X110872078Y-127525404D02*
X110939422Y-127660091D01*
X110939422Y-127660091D02*
X111006765Y-127727435D01*
X111175124Y-126481580D02*
X110737391Y-126043847D01*
X110737391Y-126043847D02*
X110703719Y-126548923D01*
X110703719Y-126548923D02*
X110602704Y-126447908D01*
X110602704Y-126447908D02*
X110501689Y-126414236D01*
X110501689Y-126414236D02*
X110434345Y-126414236D01*
X110434345Y-126414236D02*
X110333330Y-126447908D01*
X110333330Y-126447908D02*
X110164971Y-126616267D01*
X110164971Y-126616267D02*
X110131300Y-126717282D01*
X110131300Y-126717282D02*
X110131300Y-126784625D01*
X110131300Y-126784625D02*
X110164971Y-126885641D01*
X110164971Y-126885641D02*
X110367002Y-127087671D01*
X110367002Y-127087671D02*
X110468017Y-127121343D01*
X110468017Y-127121343D02*
X110535361Y-127121343D01*
D12*
X160413842Y-99906666D02*
X160474318Y-100088095D01*
X160474318Y-100088095D02*
X160474318Y-100390476D01*
X160474318Y-100390476D02*
X160413842Y-100511428D01*
X160413842Y-100511428D02*
X160353365Y-100571904D01*
X160353365Y-100571904D02*
X160232413Y-100632381D01*
X160232413Y-100632381D02*
X160111461Y-100632381D01*
X160111461Y-100632381D02*
X159990508Y-100571904D01*
X159990508Y-100571904D02*
X159930032Y-100511428D01*
X159930032Y-100511428D02*
X159869556Y-100390476D01*
X159869556Y-100390476D02*
X159809080Y-100148571D01*
X159809080Y-100148571D02*
X159748603Y-100027619D01*
X159748603Y-100027619D02*
X159688127Y-99967142D01*
X159688127Y-99967142D02*
X159567175Y-99906666D01*
X159567175Y-99906666D02*
X159446222Y-99906666D01*
X159446222Y-99906666D02*
X159325270Y-99967142D01*
X159325270Y-99967142D02*
X159264794Y-100027619D01*
X159264794Y-100027619D02*
X159204318Y-100148571D01*
X159204318Y-100148571D02*
X159204318Y-100450952D01*
X159204318Y-100450952D02*
X159264794Y-100632381D01*
X159204318Y-101055714D02*
X160474318Y-101358095D01*
X160474318Y-101358095D02*
X159567175Y-101600000D01*
X159567175Y-101600000D02*
X160474318Y-101841905D01*
X160474318Y-101841905D02*
X159204318Y-102144286D01*
X160474318Y-103293334D02*
X160474318Y-102567619D01*
X160474318Y-102930476D02*
X159204318Y-102930476D01*
X159204318Y-102930476D02*
X159385746Y-102809524D01*
X159385746Y-102809524D02*
X159506699Y-102688572D01*
X159506699Y-102688572D02*
X159567175Y-102567619D01*
D11*
X110774300Y-75942895D02*
X111279376Y-76447971D01*
X111279376Y-76447971D02*
X111414063Y-76515315D01*
X111414063Y-76515315D02*
X111548750Y-76515315D01*
X111548750Y-76515315D02*
X111683437Y-76447971D01*
X111683437Y-76447971D02*
X111750781Y-76380628D01*
X110538597Y-76313284D02*
X110471254Y-76313284D01*
X110471254Y-76313284D02*
X110370239Y-76346956D01*
X110370239Y-76346956D02*
X110201880Y-76515315D01*
X110201880Y-76515315D02*
X110168208Y-76616330D01*
X110168208Y-76616330D02*
X110168208Y-76683674D01*
X110168208Y-76683674D02*
X110201880Y-76784689D01*
X110201880Y-76784689D02*
X110269223Y-76852032D01*
X110269223Y-76852032D02*
X110403910Y-76919376D01*
X110403910Y-76919376D02*
X111212032Y-76919376D01*
X111212032Y-76919376D02*
X110774300Y-77357109D01*
D12*
X161913842Y-84656666D02*
X161974318Y-84838095D01*
X161974318Y-84838095D02*
X161974318Y-85140476D01*
X161974318Y-85140476D02*
X161913842Y-85261428D01*
X161913842Y-85261428D02*
X161853365Y-85321904D01*
X161853365Y-85321904D02*
X161732413Y-85382381D01*
X161732413Y-85382381D02*
X161611461Y-85382381D01*
X161611461Y-85382381D02*
X161490508Y-85321904D01*
X161490508Y-85321904D02*
X161430032Y-85261428D01*
X161430032Y-85261428D02*
X161369556Y-85140476D01*
X161369556Y-85140476D02*
X161309080Y-84898571D01*
X161309080Y-84898571D02*
X161248603Y-84777619D01*
X161248603Y-84777619D02*
X161188127Y-84717142D01*
X161188127Y-84717142D02*
X161067175Y-84656666D01*
X161067175Y-84656666D02*
X160946222Y-84656666D01*
X160946222Y-84656666D02*
X160825270Y-84717142D01*
X160825270Y-84717142D02*
X160764794Y-84777619D01*
X160764794Y-84777619D02*
X160704318Y-84898571D01*
X160704318Y-84898571D02*
X160704318Y-85200952D01*
X160704318Y-85200952D02*
X160764794Y-85382381D01*
X160704318Y-85805714D02*
X161974318Y-86108095D01*
X161974318Y-86108095D02*
X161067175Y-86350000D01*
X161067175Y-86350000D02*
X161974318Y-86591905D01*
X161974318Y-86591905D02*
X160704318Y-86894286D01*
X160704318Y-87257143D02*
X160704318Y-88043334D01*
X160704318Y-88043334D02*
X161188127Y-87620000D01*
X161188127Y-87620000D02*
X161188127Y-87801429D01*
X161188127Y-87801429D02*
X161248603Y-87922381D01*
X161248603Y-87922381D02*
X161309080Y-87982857D01*
X161309080Y-87982857D02*
X161430032Y-88043334D01*
X161430032Y-88043334D02*
X161732413Y-88043334D01*
X161732413Y-88043334D02*
X161853365Y-87982857D01*
X161853365Y-87982857D02*
X161913842Y-87922381D01*
X161913842Y-87922381D02*
X161974318Y-87801429D01*
X161974318Y-87801429D02*
X161974318Y-87438572D01*
X161974318Y-87438572D02*
X161913842Y-87317619D01*
X161913842Y-87317619D02*
X161853365Y-87257143D01*
D11*
X132983333Y-98814870D02*
X132983333Y-99529155D01*
X132983333Y-99529155D02*
X133030952Y-99672012D01*
X133030952Y-99672012D02*
X133126190Y-99767251D01*
X133126190Y-99767251D02*
X133269047Y-99814870D01*
X133269047Y-99814870D02*
X133364285Y-99814870D01*
X131983333Y-99814870D02*
X132554761Y-99814870D01*
X132269047Y-99814870D02*
X132269047Y-98814870D01*
X132269047Y-98814870D02*
X132364285Y-98957727D01*
X132364285Y-98957727D02*
X132459523Y-99052965D01*
X132459523Y-99052965D02*
X132554761Y-99100584D01*
D12*
X161913842Y-115656666D02*
X161974318Y-115838095D01*
X161974318Y-115838095D02*
X161974318Y-116140476D01*
X161974318Y-116140476D02*
X161913842Y-116261428D01*
X161913842Y-116261428D02*
X161853365Y-116321904D01*
X161853365Y-116321904D02*
X161732413Y-116382381D01*
X161732413Y-116382381D02*
X161611461Y-116382381D01*
X161611461Y-116382381D02*
X161490508Y-116321904D01*
X161490508Y-116321904D02*
X161430032Y-116261428D01*
X161430032Y-116261428D02*
X161369556Y-116140476D01*
X161369556Y-116140476D02*
X161309080Y-115898571D01*
X161309080Y-115898571D02*
X161248603Y-115777619D01*
X161248603Y-115777619D02*
X161188127Y-115717142D01*
X161188127Y-115717142D02*
X161067175Y-115656666D01*
X161067175Y-115656666D02*
X160946222Y-115656666D01*
X160946222Y-115656666D02*
X160825270Y-115717142D01*
X160825270Y-115717142D02*
X160764794Y-115777619D01*
X160764794Y-115777619D02*
X160704318Y-115898571D01*
X160704318Y-115898571D02*
X160704318Y-116200952D01*
X160704318Y-116200952D02*
X160764794Y-116382381D01*
X160704318Y-116805714D02*
X161974318Y-117108095D01*
X161974318Y-117108095D02*
X161067175Y-117350000D01*
X161067175Y-117350000D02*
X161974318Y-117591905D01*
X161974318Y-117591905D02*
X160704318Y-117894286D01*
X160825270Y-118317619D02*
X160764794Y-118378095D01*
X160764794Y-118378095D02*
X160704318Y-118499048D01*
X160704318Y-118499048D02*
X160704318Y-118801429D01*
X160704318Y-118801429D02*
X160764794Y-118922381D01*
X160764794Y-118922381D02*
X160825270Y-118982857D01*
X160825270Y-118982857D02*
X160946222Y-119043334D01*
X160946222Y-119043334D02*
X161067175Y-119043334D01*
X161067175Y-119043334D02*
X161248603Y-118982857D01*
X161248603Y-118982857D02*
X161974318Y-118257143D01*
X161974318Y-118257143D02*
X161974318Y-119043334D01*
D11*
X112747000Y-129682000D02*
X113247000Y-129182000D01*
X112747000Y-133182000D02*
X113247000Y-133682000D01*
X113247000Y-129182000D02*
X116247000Y-129182000D01*
X113247000Y-133682000D02*
X115747000Y-133682000D01*
X116247000Y-129182000D02*
X116747000Y-129682000D01*
X116747000Y-130682000D02*
X116747000Y-129682000D01*
X117247000Y-135182000D02*
X117247000Y-135882000D01*
X117247000Y-135882000D02*
X121747000Y-135882000D01*
X121747000Y-131182000D02*
X117247000Y-131182000D01*
X121747000Y-131782000D02*
X121747000Y-131182000D01*
X121747000Y-135882000D02*
X121747000Y-135382000D01*
X115747000Y-133682000D02*
G75*
G02*
X117247000Y-135182000I-1J-1500001D01*
G01*
X117247000Y-131182000D02*
G75*
G02*
X116747000Y-130682000I1J500001D01*
G01*
X134450000Y-92690000D02*
X164930000Y-92690000D01*
X134450000Y-110470000D02*
X134450000Y-92690000D01*
X164930000Y-110470000D02*
X134450000Y-110470000D01*
X112800000Y-58150000D02*
X113300000Y-57650000D01*
X112800000Y-61650000D02*
X113300000Y-62150000D01*
X113300000Y-57650000D02*
X116300000Y-57650000D01*
X113300000Y-62150000D02*
X115800000Y-62150000D01*
X116300000Y-57650000D02*
X116800000Y-58150000D01*
X116800000Y-59150000D02*
X116800000Y-58150000D01*
X117300000Y-63650000D02*
X117300000Y-64350000D01*
X117300000Y-64350000D02*
X121800000Y-64350000D01*
X121800000Y-59650000D02*
X117300000Y-59650000D01*
X121800000Y-60250000D02*
X121800000Y-59650000D01*
X121800000Y-64350000D02*
X121800000Y-63850000D01*
X115800000Y-62150000D02*
G75*
G02*
X117300000Y-63650000I-1J-1500001D01*
G01*
X117300000Y-59650000D02*
G75*
G02*
X116800000Y-59150000I1J500001D01*
G01*
D13*
X146768000Y-127364000D02*
X146768000Y-124604000D01*
X154498000Y-124604000D02*
X146768000Y-124604000D01*
X154498000Y-127364000D02*
X146768000Y-127364000D01*
X154498000Y-127364000D02*
X154498000Y-124604000D01*
X155768000Y-127364000D02*
X157148000Y-127364000D01*
X157148000Y-127364000D02*
X157148000Y-125984000D01*
X146768000Y-78596000D02*
X146768000Y-75836000D01*
X154498000Y-75836000D02*
X146768000Y-75836000D01*
X154498000Y-78596000D02*
X146768000Y-78596000D01*
X154498000Y-78596000D02*
X154498000Y-75836000D01*
X155768000Y-78596000D02*
X157148000Y-78596000D01*
X157148000Y-78596000D02*
X157148000Y-77216000D01*
X107822334Y-127786051D02*
X108798142Y-128761858D01*
X108798142Y-126810244D02*
X107822334Y-127786051D01*
X109696167Y-125912218D02*
X111647782Y-127863833D01*
X109696167Y-125912218D02*
X115162103Y-120446283D01*
X111647782Y-127863833D02*
X117113717Y-122397897D01*
X115162103Y-120446283D02*
X117113717Y-122397897D01*
D14*
X157750000Y-97300000D02*
X158900000Y-97300000D01*
X157750000Y-105900000D02*
X157750000Y-97300000D01*
X158900000Y-105900000D02*
X157750000Y-105900000D01*
X160900000Y-105900000D02*
X162050000Y-105900000D01*
X162050000Y-97300000D02*
X160900000Y-97300000D01*
X162050000Y-105900000D02*
X162050000Y-97300000D01*
D13*
X109702218Y-77293833D02*
X115168154Y-82759768D01*
X109780000Y-73468385D02*
X108804193Y-74444193D01*
X110755807Y-74444193D02*
X109780000Y-73468385D01*
X111653833Y-75342218D02*
X109702218Y-77293833D01*
X111653833Y-75342218D02*
X117119768Y-80808154D01*
X117119768Y-80808154D02*
X115168154Y-82759768D01*
D14*
X159250000Y-82050000D02*
X160400000Y-82050000D01*
X159250000Y-90650000D02*
X159250000Y-82050000D01*
X160400000Y-90650000D02*
X159250000Y-90650000D01*
X162400000Y-90650000D02*
X163550000Y-90650000D01*
X163550000Y-82050000D02*
X162400000Y-82050000D01*
X163550000Y-90650000D02*
X163550000Y-82050000D01*
D13*
X131270000Y-96430000D02*
X134030000Y-96430000D01*
X131270000Y-99080000D02*
X131270000Y-96430000D01*
X131270000Y-99080000D02*
X134030000Y-99079999D01*
X131270000Y-101730000D02*
X132650000Y-101729999D01*
X131270001Y-100350000D02*
X131270000Y-101730000D01*
X134030000Y-99079999D02*
X134030000Y-96430000D01*
D14*
X159250000Y-113050000D02*
X160400000Y-113050000D01*
X159250000Y-121650000D02*
X159250000Y-113050000D01*
X160400000Y-121650000D02*
X159250000Y-121650000D01*
X162400000Y-121650000D02*
X163550000Y-121650000D01*
X163550000Y-113050000D02*
X162400000Y-113050000D01*
X163550000Y-121650000D02*
X163550000Y-113050000D01*
M02*
