G04 #@! TF.GenerationSoftware,KiCad,Pcbnew,9.0.2*
G04 #@! TF.CreationDate,2025-10-01T13:15:07-04:00*
G04 #@! TF.ProjectId,Trackball,54726163-6b62-4616-9c6c-2e6b69636164,rev?*
G04 #@! TF.SameCoordinates,Original*
G04 #@! TF.FileFunction,Copper,L1,Top*
G04 #@! TF.FilePolarity,Positive*
%FSLAX46Y46*%
G04 Gerber Fmt 4.6, Leading zero omitted, Abs format (unit mm)*
G04 Created by KiCad (PCBNEW 9.0.2) date 2025-10-01 13:15:07*
%MOMM*%
%LPD*%
G01*
G04 APERTURE LIST*
G04 Aperture macros list*
%AMRotRect*
0 Rectangle, with rotation*
0 The origin of the aperture is its center*
0 $1 length*
0 $2 width*
0 $3 Rotation angle, in degrees counterclockwise*
0 Add horizontal line*
21,1,$1,$2,0,0,$3*%
G04 Aperture macros list end*
G04 #@! TA.AperFunction,ComponentPad*
%ADD10R,1.700000X1.700000*%
G04 #@! TD*
G04 #@! TA.AperFunction,ComponentPad*
%ADD11C,1.700000*%
G04 #@! TD*
G04 #@! TA.AperFunction,ComponentPad*
%ADD12C,7.000000*%
G04 #@! TD*
G04 #@! TA.AperFunction,SMDPad,CuDef*
%ADD13R,1.000000X2.800000*%
G04 #@! TD*
G04 #@! TA.AperFunction,ComponentPad*
%ADD14R,1.600000X1.600000*%
G04 #@! TD*
G04 #@! TA.AperFunction,ComponentPad*
%ADD15C,1.600000*%
G04 #@! TD*
G04 #@! TA.AperFunction,ComponentPad*
%ADD16C,5.000000*%
G04 #@! TD*
G04 #@! TA.AperFunction,ComponentPad*
%ADD17RotRect,1.700000X1.700000X315.000000*%
G04 #@! TD*
G04 #@! TA.AperFunction,ComponentPad*
%ADD18C,1.300000*%
G04 #@! TD*
G04 #@! TA.AperFunction,ComponentPad*
%ADD19C,1.200000*%
G04 #@! TD*
G04 #@! TA.AperFunction,ComponentPad*
%ADD20C,1.500000*%
G04 #@! TD*
G04 #@! TA.AperFunction,ComponentPad*
%ADD21RotRect,1.700000X1.700000X225.000000*%
G04 #@! TD*
G04 #@! TA.AperFunction,ViaPad*
%ADD22C,0.800000*%
G04 #@! TD*
G04 #@! TA.AperFunction,Conductor*
%ADD23C,0.500000*%
G04 #@! TD*
G04 #@! TA.AperFunction,Conductor*
%ADD24C,0.250000*%
G04 #@! TD*
G04 APERTURE END LIST*
D10*
X120208000Y-77216000D03*
D11*
X122748000Y-77216000D03*
X125288000Y-77216000D03*
X127828000Y-77216000D03*
D10*
X120208000Y-125984000D03*
D11*
X122748000Y-125984000D03*
X125288000Y-125984000D03*
X127828000Y-125984000D03*
D10*
X155901000Y-97790000D03*
D11*
X155901000Y-100330000D03*
X155901000Y-102870000D03*
X155901000Y-105410000D03*
D12*
X121400000Y-83600000D03*
D13*
X152400000Y-88025000D03*
X152400000Y-82225000D03*
X156400000Y-88025000D03*
X156400000Y-82225000D03*
D10*
X130400000Y-121600000D03*
D11*
X130400000Y-119060000D03*
X130400000Y-116520000D03*
D14*
X163660000Y-93960000D03*
D15*
X161120000Y-93960000D03*
X158580000Y-93960000D03*
X156040000Y-93960000D03*
X153500000Y-93960000D03*
X150960000Y-93960000D03*
X148420000Y-93960000D03*
X145880000Y-93960000D03*
X143340000Y-93960000D03*
X140800000Y-93960000D03*
X138260000Y-93960000D03*
X135720000Y-93960000D03*
X135720000Y-109200000D03*
X138260000Y-109200000D03*
X140800000Y-109200000D03*
X143340000Y-109200000D03*
X145880000Y-109200000D03*
X148420000Y-109200000D03*
X150960000Y-109200000D03*
X153500000Y-109200000D03*
X156040000Y-109200000D03*
X158580000Y-109200000D03*
X161120000Y-109200000D03*
X163660000Y-109200000D03*
D16*
X114660000Y-86160000D03*
D13*
X149650000Y-115675000D03*
X149650000Y-121475000D03*
X145650000Y-115675000D03*
X145650000Y-121475000D03*
D10*
X130400000Y-81600000D03*
D11*
X130400000Y-84140000D03*
X130400000Y-86680000D03*
D12*
X140400000Y-88600000D03*
D13*
X149650000Y-82225000D03*
X149650000Y-88025000D03*
X145650000Y-82225000D03*
X145650000Y-88025000D03*
D16*
X114640000Y-117020000D03*
D12*
X140400000Y-114600000D03*
D13*
X152400000Y-121475000D03*
X152400000Y-115675000D03*
X156400000Y-121475000D03*
X156400000Y-115675000D03*
D12*
X121400000Y-119600000D03*
D10*
X155768000Y-125984000D03*
D11*
X153228000Y-125984000D03*
X150688000Y-125984000D03*
X148148000Y-125984000D03*
D10*
X155768000Y-77216000D03*
D11*
X153228000Y-77216000D03*
X150688000Y-77216000D03*
X148148000Y-77216000D03*
D17*
X109773949Y-127786051D03*
D11*
X111570000Y-125990000D03*
X113366051Y-124193949D03*
X115162103Y-122397897D03*
D18*
X159900000Y-103600000D03*
X159900000Y-101600000D03*
D19*
X159900000Y-99600000D03*
D20*
X159900000Y-105600000D03*
X159900000Y-97600000D03*
D21*
X109780000Y-75420000D03*
D11*
X111576051Y-77216051D03*
X113372102Y-79012102D03*
X115168154Y-80808154D03*
D18*
X161400000Y-88350000D03*
X161400000Y-86350000D03*
D19*
X161400000Y-84350000D03*
D20*
X161400000Y-90350000D03*
X161400000Y-82350000D03*
D10*
X132650000Y-100350000D03*
D11*
X132650000Y-97810000D03*
D18*
X161400000Y-119350000D03*
X161400000Y-117350000D03*
D19*
X161400000Y-115350000D03*
D20*
X161400000Y-121350000D03*
X161400000Y-113350000D03*
D22*
X142400000Y-126600000D03*
X137400000Y-126600000D03*
X146400000Y-95850000D03*
X145400000Y-111600000D03*
X149400000Y-111350000D03*
X122400000Y-136600000D03*
X142400000Y-76600000D03*
X131400000Y-113350000D03*
X143650000Y-95850000D03*
X167400000Y-81600000D03*
X156150000Y-111600000D03*
X136150000Y-99100000D03*
X167400000Y-86600000D03*
X117400000Y-141600000D03*
X122400000Y-141600000D03*
X131400000Y-89850000D03*
X169900000Y-94100000D03*
X167400000Y-116600000D03*
X131400000Y-93850000D03*
X137400000Y-76600000D03*
X167400000Y-91600000D03*
X169900000Y-99100000D03*
X139900000Y-95850000D03*
X167400000Y-121600000D03*
X132400000Y-126600000D03*
X169824666Y-111600000D03*
X131400000Y-102350000D03*
X132400000Y-76600000D03*
X139900000Y-101600000D03*
X133198008Y-83600000D03*
X169900000Y-104100000D03*
X146400000Y-101600000D03*
X143650000Y-101600000D03*
X169900000Y-109100000D03*
X112400000Y-141600000D03*
X150900000Y-103600000D03*
X122400000Y-71600000D03*
X137871303Y-105625000D03*
X153900000Y-105600000D03*
X151150000Y-101600000D03*
X133745170Y-104144966D03*
X165150000Y-79850000D03*
X133150000Y-103279935D03*
X122650000Y-131350000D03*
X145900000Y-125350000D03*
X147425000Y-124100000D03*
X135900000Y-85350000D03*
X135405504Y-82770496D03*
X136690222Y-105699630D03*
X136150000Y-106600000D03*
X149650000Y-104600000D03*
X134125000Y-105157070D03*
X133400000Y-118600000D03*
X158650000Y-123850000D03*
X133976992Y-92523008D03*
X149650000Y-97350000D03*
X149650000Y-90100000D03*
X138650000Y-97350000D03*
X145128706Y-91096294D03*
X144589493Y-113385509D03*
X154150000Y-118100000D03*
X153400000Y-85850000D03*
D23*
X137896303Y-105600000D02*
X137871303Y-105625000D01*
X153900000Y-105600000D02*
X137896303Y-105600000D01*
D24*
X133790136Y-104100000D02*
X133745170Y-104144966D01*
X148650000Y-104100000D02*
X133790136Y-104100000D01*
X151150000Y-101600000D02*
X148650000Y-104100000D01*
X144650000Y-79850000D02*
X165150000Y-79850000D01*
X142900000Y-81600000D02*
X144650000Y-79850000D01*
X130400000Y-81600000D02*
X142900000Y-81600000D01*
X152173008Y-100576992D02*
X150923008Y-100576992D01*
X148150000Y-103350000D02*
X133220065Y-103350000D01*
X163660000Y-93960000D02*
X161770000Y-95850000D01*
X153650000Y-95850000D02*
X152900000Y-96600000D01*
X152900000Y-99850000D02*
X152173008Y-100576992D01*
X130480000Y-116520000D02*
X130650000Y-116350000D01*
X133220065Y-103350000D02*
X133150000Y-103279935D01*
X161770000Y-95850000D02*
X153650000Y-95850000D01*
X150923008Y-100576992D02*
X148150000Y-103350000D01*
X152900000Y-96600000D02*
X152900000Y-99850000D01*
X130400000Y-116520000D02*
X130480000Y-116520000D01*
X122650000Y-131350000D02*
X125650000Y-128350000D01*
X129400000Y-128350000D02*
X132400000Y-125350000D01*
X132400000Y-125350000D02*
X145900000Y-125350000D01*
X125650000Y-128350000D02*
X129400000Y-128350000D01*
X114900000Y-126100000D02*
X116650000Y-124350000D01*
X147175000Y-124350000D02*
X147425000Y-124100000D01*
X116650000Y-124350000D02*
X147175000Y-124350000D01*
X111900000Y-126100000D02*
X114900000Y-126100000D01*
X123900000Y-79350000D02*
X129900000Y-85350000D01*
X113710000Y-79350000D02*
X123900000Y-79350000D01*
X113372102Y-79012102D02*
X113710000Y-79350000D01*
X129900000Y-85350000D02*
X135900000Y-85350000D01*
X115562102Y-78850000D02*
X124036396Y-78850000D01*
X124036396Y-78850000D02*
X127962396Y-82776000D01*
X127962396Y-82776000D02*
X135400000Y-82776000D01*
X135400000Y-82776000D02*
X135405504Y-82770496D01*
X113928153Y-77216051D02*
X115562102Y-78850000D01*
X111576051Y-77216051D02*
X113928153Y-77216051D01*
D23*
X158150000Y-104350000D02*
X158150000Y-106100000D01*
X158150000Y-106100000D02*
X157449000Y-106801000D01*
X159900000Y-103600000D02*
X158900000Y-103600000D01*
X137791592Y-106801000D02*
X136690222Y-105699630D01*
X157449000Y-106801000D02*
X137791592Y-106801000D01*
X158900000Y-103600000D02*
X158150000Y-104350000D01*
X163660000Y-109200000D02*
X162161000Y-107701000D01*
X162161000Y-107701000D02*
X137251000Y-107701000D01*
X137251000Y-107701000D02*
X136150000Y-106600000D01*
D24*
X116169655Y-124193949D02*
X116463604Y-123900000D01*
X127764000Y-120236000D02*
X132014000Y-120236000D01*
X133400000Y-118850000D02*
X133400000Y-118600000D01*
X132014000Y-120236000D02*
X133400000Y-118850000D01*
X124100000Y-123900000D02*
X127764000Y-120236000D01*
X113366051Y-124193949D02*
X116169655Y-124193949D01*
X149400000Y-104850000D02*
X134432070Y-104850000D01*
X116463604Y-123900000D02*
X124100000Y-123900000D01*
X134432070Y-104850000D02*
X134125000Y-105157070D01*
X149650000Y-104600000D02*
X149400000Y-104850000D01*
X149400000Y-115675000D02*
X149400000Y-121475000D01*
X149400000Y-121475000D02*
X149400000Y-122375000D01*
X150875000Y-123850000D02*
X158650000Y-123850000D01*
X149400000Y-115100000D02*
X149400000Y-115675000D01*
X149400000Y-122375000D02*
X150875000Y-123850000D01*
X145320396Y-92384000D02*
X144336396Y-91400000D01*
X151924000Y-92384000D02*
X145320396Y-92384000D01*
X134053984Y-92600000D02*
X133976992Y-92523008D01*
X143671199Y-91400000D02*
X142471199Y-92600000D01*
X142471199Y-92600000D02*
X134053984Y-92600000D01*
X153500000Y-93960000D02*
X151924000Y-92384000D01*
X144336396Y-91400000D02*
X143671199Y-91400000D01*
X149400000Y-82225000D02*
X149400000Y-88025000D01*
X149650000Y-97350000D02*
X138650000Y-97350000D01*
X149400000Y-88025000D02*
X149400000Y-88925000D01*
X149400000Y-88025000D02*
X149400000Y-89850000D01*
X149400000Y-89850000D02*
X149650000Y-90100000D01*
X152400000Y-88025000D02*
X152400000Y-88925000D01*
X152400000Y-82225000D02*
X152400000Y-88025000D01*
X145857412Y-91825000D02*
X145128706Y-91096294D01*
X152400000Y-88925000D02*
X149500000Y-91825000D01*
X149500000Y-91825000D02*
X145857412Y-91825000D01*
X152400000Y-121475000D02*
X152400000Y-115675000D01*
X150575000Y-113850000D02*
X145150000Y-113850000D01*
X144685509Y-113385509D02*
X144589493Y-113385509D01*
X145150000Y-113850000D02*
X144685509Y-113385509D01*
X152400000Y-115675000D02*
X150575000Y-113850000D01*
X160650000Y-118100000D02*
X161400000Y-117350000D01*
X154150000Y-118100000D02*
X160650000Y-118100000D01*
X160900000Y-85850000D02*
X153400000Y-85850000D01*
X161400000Y-86350000D02*
X160900000Y-85850000D01*
G04 #@! TA.AperFunction,Conductor*
G36*
X152725606Y-124503502D02*
G01*
X152772099Y-124557158D01*
X152782203Y-124627432D01*
X152752709Y-124692012D01*
X152710657Y-124722337D01*
X152711120Y-124723245D01*
X152516253Y-124822534D01*
X152463831Y-124860621D01*
X152463831Y-124860622D01*
X153103051Y-125499842D01*
X153035007Y-125518075D01*
X152920993Y-125583901D01*
X152827901Y-125676993D01*
X152762075Y-125791007D01*
X152743842Y-125859051D01*
X152104622Y-125219831D01*
X152104621Y-125219831D01*
X152066522Y-125272269D01*
X152065422Y-125274065D01*
X152064827Y-125274603D01*
X152063624Y-125276259D01*
X152063275Y-125276006D01*
X152012768Y-125321689D01*
X151942725Y-125333286D01*
X151877531Y-125305174D01*
X151852440Y-125276211D01*
X151852376Y-125276258D01*
X151851830Y-125275506D01*
X151850563Y-125274044D01*
X151849462Y-125272248D01*
X151811378Y-125219831D01*
X151172157Y-125859051D01*
X151153925Y-125791007D01*
X151088099Y-125676993D01*
X150995007Y-125583901D01*
X150880993Y-125518075D01*
X150812947Y-125499841D01*
X151452168Y-124860621D01*
X151452167Y-124860620D01*
X151399750Y-124822536D01*
X151399748Y-124822535D01*
X151204880Y-124723245D01*
X151205494Y-124722039D01*
X151155015Y-124681359D01*
X151132595Y-124613995D01*
X151150155Y-124545204D01*
X151202118Y-124496826D01*
X151258515Y-124483500D01*
X152657485Y-124483500D01*
X152725606Y-124503502D01*
G37*
G04 #@! TD.AperFunction*
G04 #@! TA.AperFunction,Conductor*
G36*
X154628830Y-124503502D02*
G01*
X154675323Y-124557158D01*
X154685427Y-124627432D01*
X154655933Y-124692012D01*
X154636218Y-124710368D01*
X154555095Y-124771095D01*
X154467555Y-124888034D01*
X154467555Y-124888035D01*
X154416505Y-125024905D01*
X154411981Y-125066978D01*
X154415319Y-125129301D01*
X154381794Y-125189414D01*
X153712157Y-125859051D01*
X153693925Y-125791007D01*
X153628099Y-125676993D01*
X153535007Y-125583901D01*
X153420993Y-125518075D01*
X153352947Y-125499841D01*
X153992168Y-124860621D01*
X153992167Y-124860620D01*
X153939750Y-124822536D01*
X153939748Y-124822535D01*
X153744880Y-124723245D01*
X153745494Y-124722039D01*
X153695015Y-124681359D01*
X153672595Y-124613995D01*
X153690155Y-124545204D01*
X153742118Y-124496826D01*
X153798515Y-124483500D01*
X154560709Y-124483500D01*
X154628830Y-124503502D01*
G37*
G04 #@! TD.AperFunction*
G04 #@! TA.AperFunction,Conductor*
G36*
X154574565Y-96503502D02*
G01*
X154621058Y-96557158D01*
X154631162Y-96627432D01*
X154607313Y-96685008D01*
X154600555Y-96694034D01*
X154600555Y-96694035D01*
X154549505Y-96830906D01*
X154543000Y-96891402D01*
X154543000Y-97536000D01*
X155470297Y-97536000D01*
X155435075Y-97597007D01*
X155401000Y-97724174D01*
X155401000Y-97855826D01*
X155435075Y-97982993D01*
X155470297Y-98044000D01*
X154543000Y-98044000D01*
X154543000Y-98688597D01*
X154549505Y-98749093D01*
X154600555Y-98885964D01*
X154600555Y-98885965D01*
X154688095Y-99002904D01*
X154805034Y-99090444D01*
X154941909Y-99141495D01*
X154983980Y-99146018D01*
X155046286Y-99142674D01*
X155106413Y-99176204D01*
X155776051Y-99845842D01*
X155708007Y-99864075D01*
X155593993Y-99929901D01*
X155500901Y-100022993D01*
X155435075Y-100137007D01*
X155416842Y-100205051D01*
X154777622Y-99565831D01*
X154777621Y-99565831D01*
X154739534Y-99618253D01*
X154642493Y-99808707D01*
X154642490Y-99808713D01*
X154576440Y-100011996D01*
X154543000Y-100223126D01*
X154543000Y-100436873D01*
X154576440Y-100648003D01*
X154642490Y-100851286D01*
X154642493Y-100851292D01*
X154739535Y-101041748D01*
X154739536Y-101041750D01*
X154777620Y-101094167D01*
X154777621Y-101094168D01*
X155416841Y-100454947D01*
X155435075Y-100522993D01*
X155500901Y-100637007D01*
X155593993Y-100730099D01*
X155708007Y-100795925D01*
X155776051Y-100814157D01*
X155136831Y-101453378D01*
X155189248Y-101491462D01*
X155191044Y-101492563D01*
X155191583Y-101493159D01*
X155193258Y-101494376D01*
X155193002Y-101494727D01*
X155238678Y-101545208D01*
X155250289Y-101615249D01*
X155222189Y-101680448D01*
X155193212Y-101705560D01*
X155193259Y-101705624D01*
X155192520Y-101706160D01*
X155191065Y-101707422D01*
X155189269Y-101708522D01*
X155136831Y-101746621D01*
X155136831Y-101746622D01*
X155776051Y-102385842D01*
X155708007Y-102404075D01*
X155593993Y-102469901D01*
X155500901Y-102562993D01*
X155435075Y-102677007D01*
X155416842Y-102745051D01*
X154777622Y-102105831D01*
X154777621Y-102105831D01*
X154739534Y-102158253D01*
X154642493Y-102348707D01*
X154642490Y-102348713D01*
X154576440Y-102551996D01*
X154543000Y-102763126D01*
X154543000Y-102976873D01*
X154576440Y-103188003D01*
X154642490Y-103391286D01*
X154642493Y-103391292D01*
X154739535Y-103581748D01*
X154739536Y-103581750D01*
X154777620Y-103634167D01*
X154777621Y-103634168D01*
X155416841Y-102994947D01*
X155435075Y-103062993D01*
X155500901Y-103177007D01*
X155593993Y-103270099D01*
X155708007Y-103335925D01*
X155776051Y-103354157D01*
X155165799Y-103964409D01*
X155232826Y-104074456D01*
X155234453Y-104080539D01*
X155238678Y-104085208D01*
X155243521Y-104114426D01*
X155251178Y-104143039D01*
X155249258Y-104149035D01*
X155250289Y-104155249D01*
X155238563Y-104182454D01*
X155229538Y-104210657D01*
X155224681Y-104214663D01*
X155222189Y-104220448D01*
X155193212Y-104245560D01*
X155193259Y-104245624D01*
X155192520Y-104246160D01*
X155191065Y-104247422D01*
X155189269Y-104248522D01*
X155136831Y-104286621D01*
X155136831Y-104286622D01*
X155776051Y-104925842D01*
X155708007Y-104944075D01*
X155593993Y-105009901D01*
X155500901Y-105102993D01*
X155435075Y-105217007D01*
X155416841Y-105285052D01*
X154777621Y-104645831D01*
X154739534Y-104698253D01*
X154663241Y-104847987D01*
X154614493Y-104899602D01*
X154545578Y-104916668D01*
X154480973Y-104895549D01*
X154330340Y-104794900D01*
X154330339Y-104794899D01*
X154165003Y-104726414D01*
X154165001Y-104726413D01*
X154165000Y-104726413D01*
X154076645Y-104708838D01*
X153989481Y-104691500D01*
X153989479Y-104691500D01*
X153810521Y-104691500D01*
X153810518Y-104691500D01*
X153679771Y-104717507D01*
X153635000Y-104726413D01*
X153634999Y-104726413D01*
X153634996Y-104726414D01*
X153469662Y-104794899D01*
X153431700Y-104820265D01*
X153363947Y-104841480D01*
X153361698Y-104841500D01*
X150681793Y-104841500D01*
X150613672Y-104821498D01*
X150567179Y-104767842D01*
X150557075Y-104697568D01*
X150558214Y-104690919D01*
X150558499Y-104689484D01*
X150558500Y-104689477D01*
X150558500Y-104510522D01*
X150558499Y-104510518D01*
X150557718Y-104506592D01*
X150523587Y-104335000D01*
X150455102Y-104169664D01*
X150355678Y-104020865D01*
X150229135Y-103894322D01*
X150080336Y-103794898D01*
X150080335Y-103794897D01*
X150075189Y-103791459D01*
X150075908Y-103790382D01*
X150030062Y-103745336D01*
X150014360Y-103676098D01*
X150038584Y-103609362D01*
X150051005Y-103594897D01*
X151100499Y-102545405D01*
X151162811Y-102511379D01*
X151189594Y-102508500D01*
X151239478Y-102508500D01*
X151239479Y-102508500D01*
X151415000Y-102473587D01*
X151580336Y-102405102D01*
X151729135Y-102305678D01*
X151855678Y-102179135D01*
X151955102Y-102030336D01*
X152023587Y-101865000D01*
X152058500Y-101689479D01*
X152058500Y-101510521D01*
X152028773Y-101361072D01*
X152035101Y-101290360D01*
X152078655Y-101234292D01*
X152145608Y-101210673D01*
X152152352Y-101210492D01*
X152235401Y-101210492D01*
X152235402Y-101210492D01*
X152357793Y-101186147D01*
X152473083Y-101138392D01*
X152576841Y-101069063D01*
X153392071Y-100253833D01*
X153461400Y-100150075D01*
X153509155Y-100034785D01*
X153533500Y-99912394D01*
X153533500Y-99787606D01*
X153533500Y-96914594D01*
X153553502Y-96846473D01*
X153570405Y-96825499D01*
X153875499Y-96520405D01*
X153937811Y-96486379D01*
X153964594Y-96483500D01*
X154506444Y-96483500D01*
X154574565Y-96503502D01*
G37*
G04 #@! TD.AperFunction*
G04 #@! TA.AperFunction,Conductor*
G36*
X159000642Y-96503502D02*
G01*
X159047135Y-96557158D01*
X159057239Y-96627432D01*
X159027745Y-96692012D01*
X159021616Y-96698595D01*
X158940074Y-96780136D01*
X158940071Y-96780139D01*
X158823636Y-96940398D01*
X158733703Y-97116901D01*
X158733702Y-97116903D01*
X158676398Y-97293267D01*
X158672488Y-97305300D01*
X158641500Y-97500954D01*
X158641500Y-97699046D01*
X158672488Y-97894700D01*
X158733702Y-98083097D01*
X158823075Y-98258500D01*
X158823636Y-98259601D01*
X158940071Y-98419860D01*
X159080135Y-98559924D01*
X159080138Y-98559926D01*
X159080142Y-98559930D01*
X159130072Y-98596206D01*
X159173425Y-98652429D01*
X159179500Y-98723165D01*
X159146368Y-98785957D01*
X159145106Y-98787237D01*
X159054483Y-98877860D01*
X158951928Y-99019015D01*
X158872713Y-99174482D01*
X158872710Y-99174488D01*
X158846942Y-99253796D01*
X158818795Y-99340426D01*
X158791500Y-99512759D01*
X158791500Y-99687241D01*
X158818795Y-99859574D01*
X158818796Y-99859577D01*
X158858515Y-99981823D01*
X158872712Y-100025516D01*
X158951926Y-100180981D01*
X159054483Y-100322139D01*
X159054485Y-100322141D01*
X159054487Y-100322144D01*
X159177858Y-100445515D01*
X159229431Y-100482985D01*
X159272785Y-100539208D01*
X159280981Y-100594810D01*
X159279013Y-100619804D01*
X159859209Y-101200000D01*
X159847339Y-101200000D01*
X159745606Y-101227259D01*
X159654394Y-101279920D01*
X159579920Y-101354394D01*
X159527259Y-101445606D01*
X159500000Y-101547339D01*
X159500000Y-101559209D01*
X158919804Y-100979013D01*
X158919803Y-100979014D01*
X158909591Y-100993072D01*
X158826840Y-101155480D01*
X158826837Y-101155486D01*
X158770515Y-101328828D01*
X158742000Y-101508866D01*
X158742000Y-101691133D01*
X158770515Y-101871171D01*
X158826837Y-102044513D01*
X158826840Y-102044519D01*
X158909588Y-102206923D01*
X158919803Y-102220984D01*
X159500000Y-101640788D01*
X159500000Y-101652661D01*
X159527259Y-101754394D01*
X159579920Y-101845606D01*
X159654394Y-101920080D01*
X159745606Y-101972741D01*
X159847339Y-102000000D01*
X159859210Y-102000000D01*
X159266780Y-102592428D01*
X159261784Y-102616213D01*
X159257883Y-102621095D01*
X159256864Y-102624587D01*
X159245301Y-102636847D01*
X159233418Y-102651724D01*
X159229265Y-102655332D01*
X159145288Y-102716346D01*
X159053915Y-102807718D01*
X159050594Y-102810605D01*
X159022171Y-102823634D01*
X158994728Y-102838620D01*
X158987875Y-102839356D01*
X158986056Y-102840191D01*
X158983500Y-102839827D01*
X158967944Y-102841500D01*
X158825288Y-102841500D01*
X158752024Y-102856073D01*
X158752024Y-102856074D01*
X158715388Y-102863361D01*
X158678752Y-102870649D01*
X158678748Y-102870650D01*
X158621601Y-102894321D01*
X158621602Y-102894322D01*
X158540714Y-102927827D01*
X158416488Y-103010832D01*
X158416481Y-103010837D01*
X157560838Y-103866480D01*
X157560833Y-103866486D01*
X157481236Y-103985613D01*
X157477826Y-103990716D01*
X157420649Y-104128753D01*
X157412511Y-104169664D01*
X157412511Y-104169665D01*
X157391500Y-104275288D01*
X157391500Y-104819191D01*
X157371498Y-104887312D01*
X157317842Y-104933805D01*
X157247568Y-104943909D01*
X157182988Y-104914415D01*
X157153233Y-104876394D01*
X157062464Y-104698251D01*
X157062463Y-104698249D01*
X157024378Y-104645831D01*
X157024377Y-104645830D01*
X156385157Y-105285050D01*
X156366925Y-105217007D01*
X156301099Y-105102993D01*
X156208007Y-105009901D01*
X156093993Y-104944075D01*
X156025947Y-104925841D01*
X156665168Y-104286621D01*
X156665167Y-104286620D01*
X156612749Y-104248535D01*
X156610950Y-104247433D01*
X156610409Y-104246835D01*
X156608742Y-104245624D01*
X156608996Y-104245273D01*
X156563318Y-104194786D01*
X156551711Y-104124745D01*
X156579814Y-104059547D01*
X156608788Y-104034442D01*
X156608741Y-104034377D01*
X156609498Y-104033826D01*
X156610958Y-104032562D01*
X156612750Y-104031463D01*
X156665167Y-103993378D01*
X156665167Y-103993376D01*
X156025948Y-103354157D01*
X156093993Y-103335925D01*
X156208007Y-103270099D01*
X156301099Y-103177007D01*
X156366925Y-103062993D01*
X156385157Y-102994948D01*
X157024376Y-103634167D01*
X157024378Y-103634167D01*
X157062463Y-103581750D01*
X157159506Y-103391292D01*
X157159509Y-103391286D01*
X157225559Y-103188003D01*
X157259000Y-102976873D01*
X157259000Y-102763126D01*
X157225559Y-102551996D01*
X157159509Y-102348713D01*
X157159506Y-102348707D01*
X157062464Y-102158251D01*
X157062463Y-102158249D01*
X157024378Y-102105831D01*
X156385157Y-102745051D01*
X156366925Y-102677007D01*
X156301099Y-102562993D01*
X156208007Y-102469901D01*
X156093993Y-102404075D01*
X156025947Y-102385841D01*
X156665168Y-101746621D01*
X156665167Y-101746620D01*
X156612749Y-101708535D01*
X156610950Y-101707433D01*
X156610409Y-101706835D01*
X156608742Y-101705624D01*
X156608996Y-101705273D01*
X156563318Y-101654786D01*
X156551711Y-101584745D01*
X156579814Y-101519547D01*
X156594231Y-101504810D01*
X156659766Y-101447975D01*
X156025948Y-100814157D01*
X156093993Y-100795925D01*
X156208007Y-100730099D01*
X156301099Y-100637007D01*
X156366925Y-100522993D01*
X156385157Y-100454948D01*
X157024376Y-101094167D01*
X157024378Y-101094167D01*
X157062463Y-101041750D01*
X157159506Y-100851292D01*
X157159509Y-100851286D01*
X157225559Y-100648003D01*
X157259000Y-100436873D01*
X157259000Y-100223126D01*
X157225559Y-100011996D01*
X157159509Y-99808713D01*
X157159506Y-99808707D01*
X157062464Y-99618251D01*
X157062463Y-99618249D01*
X157024378Y-99565831D01*
X156385157Y-100205051D01*
X156366925Y-100137007D01*
X156301099Y-100022993D01*
X156208007Y-99929901D01*
X156093993Y-99864075D01*
X156025947Y-99845841D01*
X156695583Y-99176205D01*
X156757896Y-99142180D01*
X156818470Y-99145969D01*
X156860087Y-99141496D01*
X156860094Y-99141494D01*
X156996964Y-99090444D01*
X156996965Y-99090444D01*
X157113904Y-99002904D01*
X157201444Y-98885965D01*
X157201444Y-98885964D01*
X157252494Y-98749093D01*
X157258999Y-98688597D01*
X157259000Y-98688585D01*
X157259000Y-98044000D01*
X156331703Y-98044000D01*
X156366925Y-97982993D01*
X156401000Y-97855826D01*
X156401000Y-97724174D01*
X156366925Y-97597007D01*
X156331703Y-97536000D01*
X157259000Y-97536000D01*
X157259000Y-96891414D01*
X157258999Y-96891402D01*
X157252494Y-96830906D01*
X157201444Y-96694035D01*
X157201444Y-96694034D01*
X157194687Y-96685008D01*
X157169877Y-96618487D01*
X157184969Y-96549113D01*
X157235172Y-96498912D01*
X157295556Y-96483500D01*
X158932521Y-96483500D01*
X159000642Y-96503502D01*
G37*
G04 #@! TD.AperFunction*
G04 #@! TA.AperFunction,Conductor*
G36*
X155527482Y-94172292D02*
G01*
X155599890Y-94297708D01*
X155702292Y-94400110D01*
X155827708Y-94472518D01*
X155874226Y-94484982D01*
X155311626Y-95047582D01*
X155314226Y-95080614D01*
X155299630Y-95150094D01*
X155249787Y-95200654D01*
X155188614Y-95216500D01*
X154384517Y-95216500D01*
X154316396Y-95196498D01*
X154269903Y-95142842D01*
X154259799Y-95072568D01*
X154289293Y-95007988D01*
X154310456Y-94988564D01*
X154323822Y-94978852D01*
X154352430Y-94958068D01*
X154498068Y-94812430D01*
X154619129Y-94645803D01*
X154658014Y-94569486D01*
X154706759Y-94517874D01*
X154775674Y-94500807D01*
X154842876Y-94523707D01*
X154882545Y-94569487D01*
X154921294Y-94645535D01*
X154921298Y-94645541D01*
X154952416Y-94688372D01*
X155515016Y-94125771D01*
X155527482Y-94172292D01*
G37*
G04 #@! TD.AperFunction*
G04 #@! TA.AperFunction,Conductor*
G36*
X158067482Y-94172292D02*
G01*
X158139890Y-94297708D01*
X158242292Y-94400110D01*
X158367708Y-94472518D01*
X158414226Y-94484982D01*
X157851626Y-95047582D01*
X157854226Y-95080614D01*
X157839630Y-95150094D01*
X157789787Y-95200654D01*
X157728614Y-95216500D01*
X156891385Y-95216500D01*
X156823264Y-95196498D01*
X156776771Y-95142842D01*
X156765773Y-95080614D01*
X156768372Y-95047581D01*
X156205773Y-94484982D01*
X156252292Y-94472518D01*
X156377708Y-94400110D01*
X156480110Y-94297708D01*
X156552518Y-94172292D01*
X156564982Y-94125773D01*
X157127581Y-94688372D01*
X157127582Y-94688372D01*
X157158701Y-94645541D01*
X157197733Y-94568938D01*
X157246481Y-94517323D01*
X157315396Y-94500257D01*
X157382598Y-94523158D01*
X157422267Y-94568938D01*
X157461297Y-94645540D01*
X157461298Y-94645541D01*
X157492416Y-94688372D01*
X158055016Y-94125771D01*
X158067482Y-94172292D01*
G37*
G04 #@! TD.AperFunction*
G04 #@! TA.AperFunction,Conductor*
G36*
X159667581Y-94688372D02*
G01*
X159667582Y-94688372D01*
X159698701Y-94645541D01*
X159737453Y-94569488D01*
X159786201Y-94517873D01*
X159855116Y-94500807D01*
X159922318Y-94523708D01*
X159961985Y-94569486D01*
X160000871Y-94645803D01*
X160121932Y-94812430D01*
X160121934Y-94812432D01*
X160121936Y-94812435D01*
X160267567Y-94958066D01*
X160309544Y-94988564D01*
X160352898Y-95044787D01*
X160358973Y-95115523D01*
X160325841Y-95178315D01*
X160264021Y-95213226D01*
X160235483Y-95216500D01*
X159431385Y-95216500D01*
X159363264Y-95196498D01*
X159316771Y-95142842D01*
X159305773Y-95080614D01*
X159308372Y-95047581D01*
X158745773Y-94484982D01*
X158792292Y-94472518D01*
X158917708Y-94400110D01*
X159020110Y-94297708D01*
X159092518Y-94172292D01*
X159104982Y-94125773D01*
X159667581Y-94688372D01*
G37*
G04 #@! TD.AperFunction*
G04 #@! TA.AperFunction,Conductor*
G36*
X113970406Y-58145502D02*
G01*
X114016899Y-58199158D01*
X114027003Y-58269432D01*
X113997509Y-58334012D01*
X113965285Y-58360619D01*
X113825391Y-58441386D01*
X113825384Y-58441391D01*
X113643347Y-58581073D01*
X113643326Y-58581092D01*
X113481092Y-58743326D01*
X113481073Y-58743347D01*
X113341391Y-58925384D01*
X113341386Y-58925391D01*
X113226662Y-59124099D01*
X113226657Y-59124110D01*
X113138842Y-59336113D01*
X113079450Y-59557768D01*
X113049500Y-59785263D01*
X113049500Y-60014736D01*
X113079450Y-60242231D01*
X113079452Y-60242238D01*
X113138842Y-60463887D01*
X113226656Y-60675888D01*
X113226657Y-60675889D01*
X113226662Y-60675900D01*
X113341386Y-60874608D01*
X113341391Y-60874615D01*
X113481073Y-61056652D01*
X113481092Y-61056673D01*
X113643326Y-61218907D01*
X113643347Y-61218926D01*
X113825384Y-61358608D01*
X113825391Y-61358613D01*
X114024099Y-61473337D01*
X114024103Y-61473338D01*
X114024112Y-61473344D01*
X114236113Y-61561158D01*
X114457762Y-61620548D01*
X114457766Y-61620548D01*
X114457768Y-61620549D01*
X114516398Y-61628267D01*
X114685266Y-61650500D01*
X114685273Y-61650500D01*
X114914727Y-61650500D01*
X114914734Y-61650500D01*
X115120345Y-61623430D01*
X115142231Y-61620549D01*
X115142231Y-61620548D01*
X115142238Y-61620548D01*
X115363887Y-61561158D01*
X115575888Y-61473344D01*
X115774612Y-61358611D01*
X115956661Y-61218919D01*
X116118919Y-61056661D01*
X116258611Y-60874612D01*
X116373344Y-60675888D01*
X116461158Y-60463887D01*
X116520548Y-60242238D01*
X116550500Y-60014734D01*
X116550500Y-59785266D01*
X116520548Y-59557762D01*
X116461158Y-59336113D01*
X116373344Y-59124112D01*
X116373338Y-59124103D01*
X116373337Y-59124099D01*
X116258613Y-58925391D01*
X116258608Y-58925384D01*
X116118926Y-58743347D01*
X116118907Y-58743326D01*
X115956673Y-58581092D01*
X115956652Y-58581073D01*
X115774615Y-58441391D01*
X115774608Y-58441386D01*
X115634715Y-58360619D01*
X115585722Y-58309236D01*
X115572286Y-58239523D01*
X115598672Y-58173612D01*
X115656505Y-58132430D01*
X115697715Y-58125500D01*
X121666715Y-58125500D01*
X121670878Y-58125500D01*
X121679118Y-58125770D01*
X121707134Y-58127606D01*
X121924492Y-58141852D01*
X121940810Y-58144000D01*
X122177945Y-58191169D01*
X122193850Y-58195430D01*
X122422799Y-58273149D01*
X122438005Y-58279448D01*
X122654851Y-58386384D01*
X122669108Y-58394615D01*
X122870135Y-58528937D01*
X122883204Y-58538966D01*
X123064972Y-58698372D01*
X123076627Y-58710027D01*
X123236033Y-58891795D01*
X123246063Y-58904867D01*
X123291106Y-58972278D01*
X123380379Y-59105883D01*
X123388620Y-59120157D01*
X123495547Y-59336984D01*
X123501854Y-59352210D01*
X123579566Y-59581141D01*
X123583832Y-59597062D01*
X123630997Y-59834177D01*
X123633148Y-59850517D01*
X123649230Y-60095880D01*
X123649500Y-60104121D01*
X123649500Y-64902940D01*
X123686082Y-65507721D01*
X123759110Y-66109159D01*
X123759111Y-66109166D01*
X123865571Y-66690099D01*
X123868325Y-66705123D01*
X123977585Y-67148409D01*
X124013322Y-67293399D01*
X124193571Y-67871840D01*
X124408418Y-68438345D01*
X124657079Y-68990846D01*
X124657080Y-68990848D01*
X124938643Y-69527321D01*
X124938648Y-69527332D01*
X125252071Y-70045797D01*
X125252089Y-70045825D01*
X125596255Y-70544436D01*
X125596264Y-70544447D01*
X125969920Y-71021383D01*
X125969924Y-71021388D01*
X125969926Y-71021390D01*
X125969927Y-71021391D01*
X126371684Y-71474882D01*
X126371705Y-71474904D01*
X126800095Y-71903294D01*
X126800117Y-71903315D01*
X127236581Y-72289988D01*
X127253617Y-72305080D01*
X127642654Y-72609872D01*
X127730563Y-72678744D01*
X128229174Y-73022910D01*
X128229202Y-73022928D01*
X128747667Y-73336351D01*
X128747675Y-73336354D01*
X128747679Y-73336357D01*
X129284157Y-73617922D01*
X129836656Y-73866582D01*
X130403161Y-74081429D01*
X130981605Y-74261679D01*
X131569877Y-74406675D01*
X132165830Y-74515888D01*
X132400152Y-74544339D01*
X132767278Y-74588917D01*
X132767283Y-74588917D01*
X132767289Y-74588918D01*
X133279471Y-74619899D01*
X133372060Y-74625500D01*
X133372061Y-74625500D01*
X133664438Y-74625500D01*
X165399485Y-74625500D01*
X165404839Y-74625500D01*
X165410693Y-74625635D01*
X165770935Y-74642393D01*
X165782575Y-74643478D01*
X166136802Y-74693201D01*
X166148310Y-74695365D01*
X166496399Y-74777765D01*
X166507630Y-74780982D01*
X166846566Y-74895343D01*
X166857454Y-74899590D01*
X167184296Y-75044922D01*
X167194763Y-75050172D01*
X167506702Y-75225221D01*
X167516628Y-75231414D01*
X167810965Y-75434669D01*
X167820277Y-75441760D01*
X168094469Y-75671463D01*
X168103078Y-75679384D01*
X168354769Y-75933561D01*
X168362600Y-75942242D01*
X168375121Y-75957490D01*
X168589600Y-76218683D01*
X168596603Y-76228070D01*
X168796950Y-76524385D01*
X168803052Y-76534381D01*
X168975020Y-76848014D01*
X168980167Y-76858532D01*
X169123205Y-77188926D01*
X169125397Y-77194332D01*
X169126725Y-77197838D01*
X169126725Y-77197840D01*
X169126726Y-77197840D01*
X169243201Y-77505346D01*
X169245091Y-77510334D01*
X169246793Y-77515120D01*
X169302385Y-77681925D01*
X169764312Y-79067955D01*
X169765167Y-79070616D01*
X170248556Y-80635991D01*
X170249351Y-80638671D01*
X170696405Y-82209155D01*
X170697887Y-82214359D01*
X170698622Y-82217056D01*
X171112077Y-83802253D01*
X171112753Y-83804966D01*
X171490956Y-85399009D01*
X171491571Y-85401736D01*
X171834315Y-87003759D01*
X171834869Y-87006498D01*
X172141982Y-88615695D01*
X172142476Y-88618447D01*
X172413825Y-90234124D01*
X172414257Y-90236886D01*
X172649689Y-91858127D01*
X172650060Y-91860897D01*
X172849468Y-93486964D01*
X172849778Y-93489742D01*
X173013073Y-95119915D01*
X173013320Y-95122700D01*
X173140402Y-96755993D01*
X173140588Y-96758782D01*
X173231408Y-98394537D01*
X173231532Y-98397330D01*
X173286042Y-100034692D01*
X173286104Y-100037486D01*
X173304277Y-101675655D01*
X173304277Y-101678451D01*
X173286104Y-103316620D01*
X173286042Y-103319414D01*
X173231532Y-104956776D01*
X173231408Y-104959569D01*
X173140588Y-106595324D01*
X173140402Y-106598113D01*
X173013319Y-108231406D01*
X173013072Y-108234191D01*
X172849777Y-109864363D01*
X172849467Y-109867141D01*
X172650059Y-111493208D01*
X172649688Y-111495978D01*
X172414256Y-113117220D01*
X172413824Y-113119982D01*
X172142475Y-114735658D01*
X172141981Y-114738410D01*
X171834868Y-116347608D01*
X171834314Y-116350347D01*
X171491570Y-117952370D01*
X171490955Y-117955097D01*
X171112752Y-119549140D01*
X171112076Y-119551853D01*
X170698620Y-121137049D01*
X170697885Y-121139746D01*
X170249349Y-122715435D01*
X170248554Y-122718115D01*
X169765164Y-124283489D01*
X169764309Y-124286150D01*
X169246454Y-125839990D01*
X169245332Y-125843211D01*
X169204512Y-125955467D01*
X169202358Y-125960984D01*
X169061800Y-126297393D01*
X169056727Y-126308091D01*
X168886616Y-126627190D01*
X168880562Y-126637365D01*
X168681238Y-126939105D01*
X168674255Y-126948666D01*
X168447498Y-127230355D01*
X168439648Y-127239219D01*
X168187456Y-127498375D01*
X168178809Y-127506463D01*
X167903395Y-127740811D01*
X167894028Y-127748052D01*
X167597828Y-127955518D01*
X167587822Y-127961847D01*
X167273471Y-128140586D01*
X167262914Y-128145948D01*
X166933174Y-128294391D01*
X166922162Y-128298739D01*
X166579932Y-128415582D01*
X166568559Y-128418877D01*
X166216881Y-128503077D01*
X166205250Y-128505290D01*
X165847214Y-128556111D01*
X165835427Y-128557222D01*
X165527084Y-128571724D01*
X165471029Y-128574361D01*
X165465114Y-128574500D01*
X133372060Y-128574500D01*
X132767278Y-128611082D01*
X132165840Y-128684110D01*
X132165833Y-128684111D01*
X131569885Y-128793323D01*
X130981600Y-128938322D01*
X130403159Y-129118571D01*
X129836654Y-129333418D01*
X129284153Y-129582079D01*
X129284151Y-129582080D01*
X128747678Y-129863643D01*
X128747667Y-129863648D01*
X128229202Y-130177071D01*
X128229174Y-130177089D01*
X127730563Y-130521255D01*
X127253609Y-130894926D01*
X127253608Y-130894927D01*
X126800117Y-131296684D01*
X126800095Y-131296705D01*
X126371705Y-131725095D01*
X126371684Y-131725117D01*
X125969927Y-132178608D01*
X125969926Y-132178609D01*
X125596255Y-132655563D01*
X125252089Y-133154174D01*
X125252071Y-133154202D01*
X124938648Y-133672667D01*
X124938643Y-133672678D01*
X124657080Y-134209151D01*
X124657079Y-134209153D01*
X124408418Y-134761654D01*
X124193571Y-135328159D01*
X124013322Y-135906600D01*
X123868323Y-136494885D01*
X123759111Y-137090833D01*
X123759110Y-137090840D01*
X123686082Y-137692278D01*
X123649500Y-138297059D01*
X123649500Y-143095878D01*
X123649230Y-143104118D01*
X123649230Y-143104119D01*
X123633148Y-143349482D01*
X123630997Y-143365822D01*
X123583832Y-143602937D01*
X123579566Y-143618858D01*
X123501854Y-143847789D01*
X123495547Y-143863015D01*
X123388620Y-144079842D01*
X123380379Y-144094116D01*
X123246066Y-144295129D01*
X123236033Y-144308204D01*
X123076627Y-144489972D01*
X123064972Y-144501627D01*
X122883204Y-144661033D01*
X122870129Y-144671066D01*
X122669116Y-144805379D01*
X122654842Y-144813620D01*
X122438015Y-144920547D01*
X122422789Y-144926854D01*
X122193858Y-145004566D01*
X122177937Y-145008832D01*
X121940822Y-145055997D01*
X121924482Y-145058148D01*
X121679119Y-145074230D01*
X121670878Y-145074500D01*
X108904122Y-145074500D01*
X108895881Y-145074230D01*
X108650517Y-145058148D01*
X108634177Y-145055997D01*
X108397062Y-145008832D01*
X108381141Y-145004566D01*
X108152210Y-144926854D01*
X108136984Y-144920547D01*
X107920153Y-144813618D01*
X107905887Y-144805381D01*
X107704867Y-144671063D01*
X107691795Y-144661033D01*
X107510027Y-144501627D01*
X107498372Y-144489972D01*
X107338966Y-144308204D01*
X107328937Y-144295135D01*
X107194615Y-144094108D01*
X107186384Y-144079851D01*
X107079448Y-143863005D01*
X107073149Y-143847799D01*
X106995430Y-143618850D01*
X106991169Y-143602945D01*
X106944000Y-143365810D01*
X106941852Y-143349492D01*
X106925770Y-143104118D01*
X106925500Y-143095878D01*
X106925500Y-137295318D01*
X108145600Y-137295318D01*
X108145600Y-137468682D01*
X108172720Y-137639912D01*
X108172721Y-137639917D01*
X108189738Y-137692289D01*
X108226292Y-137804791D01*
X108226293Y-137804792D01*
X108305000Y-137959263D01*
X108406900Y-138099516D01*
X108529483Y-138222099D01*
X108529486Y-138222101D01*
X108669740Y-138324002D01*
X108824209Y-138402708D01*
X108989082Y-138456278D01*
X108989083Y-138456278D01*
X108989088Y-138456280D01*
X109160318Y-138483400D01*
X109160321Y-138483400D01*
X109333679Y-138483400D01*
X109333682Y-138483400D01*
X109504912Y-138456280D01*
X109669791Y-138402708D01*
X109824260Y-138324002D01*
X109964514Y-138222101D01*
X110087101Y-138099514D01*
X110189002Y-137959260D01*
X110267708Y-137804791D01*
X110321280Y-137639912D01*
X110348400Y-137468682D01*
X110348400Y-137295318D01*
X110341730Y-137253204D01*
X112782000Y-137253204D01*
X112782000Y-137510795D01*
X112815620Y-137766167D01*
X112815621Y-137766173D01*
X112815622Y-137766175D01*
X112882290Y-138014984D01*
X112980864Y-138252962D01*
X112980865Y-138252963D01*
X112980870Y-138252974D01*
X113109659Y-138476043D01*
X113266460Y-138680388D01*
X113266479Y-138680409D01*
X113448590Y-138862520D01*
X113448600Y-138862529D01*
X113448606Y-138862535D01*
X113448609Y-138862537D01*
X113448611Y-138862539D01*
X113652956Y-139019340D01*
X113876025Y-139148129D01*
X113876029Y-139148130D01*
X113876038Y-139148136D01*
X114114016Y-139246710D01*
X114362825Y-139313378D01*
X114362831Y-139313378D01*
X114362832Y-139313379D01*
X114392134Y-139317236D01*
X114618207Y-139347000D01*
X114618214Y-139347000D01*
X114875786Y-139347000D01*
X114875793Y-139347000D01*
X115131175Y-139313378D01*
X115379984Y-139246710D01*
X115617962Y-139148136D01*
X115841038Y-139019343D01*
X115841038Y-139019342D01*
X115841043Y-139019340D01*
X115959717Y-138928277D01*
X116045394Y-138862535D01*
X116227535Y-138680394D01*
X116297328Y-138589438D01*
X116384340Y-138476043D01*
X116426680Y-138402709D01*
X116513136Y-138252962D01*
X116611710Y-138014984D01*
X116678378Y-137766175D01*
X116712000Y-137510793D01*
X116712000Y-137295318D01*
X119145600Y-137295318D01*
X119145600Y-137468682D01*
X119172720Y-137639912D01*
X119172721Y-137639917D01*
X119189738Y-137692289D01*
X119226292Y-137804791D01*
X119226293Y-137804792D01*
X119305000Y-137959263D01*
X119406900Y-138099516D01*
X119529483Y-138222099D01*
X119529486Y-138222101D01*
X119669740Y-138324002D01*
X119824209Y-138402708D01*
X119989082Y-138456278D01*
X119989083Y-138456278D01*
X119989088Y-138456280D01*
X120160318Y-138483400D01*
X120160321Y-138483400D01*
X120333679Y-138483400D01*
X120333682Y-138483400D01*
X120504912Y-138456280D01*
X120669791Y-138402708D01*
X120824260Y-138324002D01*
X120964514Y-138222101D01*
X121087101Y-138099514D01*
X121189002Y-137959260D01*
X121267708Y-137804791D01*
X121321280Y-137639912D01*
X121348400Y-137468682D01*
X121348400Y-137295318D01*
X121321280Y-137124088D01*
X121267708Y-136959209D01*
X121189002Y-136804740D01*
X121087101Y-136664486D01*
X121087099Y-136664483D01*
X120964516Y-136541900D01*
X120824263Y-136440000D01*
X120824262Y-136439999D01*
X120824260Y-136439998D01*
X120669791Y-136361292D01*
X120669788Y-136361291D01*
X120669786Y-136361290D01*
X120504915Y-136307721D01*
X120504919Y-136307721D01*
X120473041Y-136302672D01*
X120333682Y-136280600D01*
X120160318Y-136280600D01*
X119989088Y-136307720D01*
X119989082Y-136307721D01*
X119824213Y-136361290D01*
X119824207Y-136361293D01*
X119669736Y-136440000D01*
X119529483Y-136541900D01*
X119406900Y-136664483D01*
X119305000Y-136804736D01*
X119226293Y-136959207D01*
X119226290Y-136959213D01*
X119172721Y-137124082D01*
X119172720Y-137124087D01*
X119172720Y-137124088D01*
X119145600Y-137295318D01*
X116712000Y-137295318D01*
X116712000Y-137253207D01*
X116678378Y-136997825D01*
X116611710Y-136749016D01*
X116513136Y-136511038D01*
X116513130Y-136511029D01*
X116513129Y-136511025D01*
X116384340Y-136287956D01*
X116227539Y-136083611D01*
X116227537Y-136083609D01*
X116227535Y-136083606D01*
X116227529Y-136083600D01*
X116227520Y-136083590D01*
X116045409Y-135901479D01*
X116045388Y-135901460D01*
X115841043Y-135744659D01*
X115617974Y-135615870D01*
X115617966Y-135615866D01*
X115617962Y-135615864D01*
X115379984Y-135517290D01*
X115131175Y-135450622D01*
X115131173Y-135450621D01*
X115131167Y-135450620D01*
X114875795Y-135417000D01*
X114875793Y-135417000D01*
X114618207Y-135417000D01*
X114618204Y-135417000D01*
X114362832Y-135450620D01*
X114114016Y-135517290D01*
X113876036Y-135615865D01*
X113876025Y-135615870D01*
X113652956Y-135744659D01*
X113448611Y-135901460D01*
X113448590Y-135901479D01*
X113266479Y-136083590D01*
X113266460Y-136083611D01*
X113109659Y-136287956D01*
X112980870Y-136511025D01*
X112980865Y-136511036D01*
X112882290Y-136749016D01*
X112815620Y-136997832D01*
X112782000Y-137253204D01*
X110341730Y-137253204D01*
X110321280Y-137124088D01*
X110267708Y-136959209D01*
X110189002Y-136804740D01*
X110087101Y-136664486D01*
X110087099Y-136664483D01*
X109964516Y-136541900D01*
X109824263Y-136440000D01*
X109824262Y-136439999D01*
X109824260Y-136439998D01*
X109669791Y-136361292D01*
X109669788Y-136361291D01*
X109669786Y-136361290D01*
X109504915Y-136307721D01*
X109504919Y-136307721D01*
X109473041Y-136302672D01*
X109333682Y-136280600D01*
X109160318Y-136280600D01*
X108989088Y-136307720D01*
X108989082Y-136307721D01*
X108824213Y-136361290D01*
X108824207Y-136361293D01*
X108669736Y-136440000D01*
X108529483Y-136541900D01*
X108406900Y-136664483D01*
X108305000Y-136804736D01*
X108226293Y-136959207D01*
X108226290Y-136959213D01*
X108172721Y-137124082D01*
X108172720Y-137124087D01*
X108172720Y-137124088D01*
X108145600Y-137295318D01*
X106925500Y-137295318D01*
X106925500Y-134761654D01*
X106925500Y-133517263D01*
X117996500Y-133517263D01*
X117996500Y-133746736D01*
X118026450Y-133974231D01*
X118026452Y-133974238D01*
X118085842Y-134195887D01*
X118173656Y-134407888D01*
X118173657Y-134407889D01*
X118173662Y-134407900D01*
X118288386Y-134606608D01*
X118288391Y-134606615D01*
X118428073Y-134788652D01*
X118428092Y-134788673D01*
X118590326Y-134950907D01*
X118590347Y-134950926D01*
X118772384Y-135090608D01*
X118772391Y-135090613D01*
X118971099Y-135205337D01*
X118971103Y-135205338D01*
X118971112Y-135205344D01*
X119183113Y-135293158D01*
X119404762Y-135352548D01*
X119404766Y-135352548D01*
X119404768Y-135352549D01*
X119463398Y-135360267D01*
X119632266Y-135382500D01*
X119632273Y-135382500D01*
X119861727Y-135382500D01*
X119861734Y-135382500D01*
X120067345Y-135355430D01*
X120089231Y-135352549D01*
X120089231Y-135352548D01*
X120089238Y-135352548D01*
X120310887Y-135293158D01*
X120522888Y-135205344D01*
X120721612Y-135090611D01*
X120903661Y-134950919D01*
X121065919Y-134788661D01*
X121205611Y-134606612D01*
X121320344Y-134407888D01*
X121408158Y-134195887D01*
X121467548Y-133974238D01*
X121497500Y-133746734D01*
X121497500Y-133517266D01*
X121467548Y-133289762D01*
X121408158Y-133068113D01*
X121320344Y-132856112D01*
X121320338Y-132856103D01*
X121320337Y-132856099D01*
X121205613Y-132657391D01*
X121205608Y-132657384D01*
X121065926Y-132475347D01*
X121065907Y-132475326D01*
X120903673Y-132313092D01*
X120903652Y-132313073D01*
X120721615Y-132173391D01*
X120721608Y-132173386D01*
X120522900Y-132058662D01*
X120522892Y-132058658D01*
X120522888Y-132058656D01*
X120310887Y-131970842D01*
X120089238Y-131911452D01*
X120089231Y-131911450D01*
X119861736Y-131881500D01*
X119861734Y-131881500D01*
X119632266Y-131881500D01*
X119632263Y-131881500D01*
X119404768Y-131911450D01*
X119183113Y-131970842D01*
X118971110Y-132058657D01*
X118971099Y-132058662D01*
X118772391Y-132173386D01*
X118772384Y-132173391D01*
X118590347Y-132313073D01*
X118590326Y-132313092D01*
X118428092Y-132475326D01*
X118428073Y-132475347D01*
X118288391Y-132657384D01*
X118288386Y-132657391D01*
X118173662Y-132856099D01*
X118173657Y-132856110D01*
X118085842Y-133068113D01*
X118026450Y-133289768D01*
X117996500Y-133517263D01*
X106925500Y-133517263D01*
X106925500Y-131317263D01*
X112996500Y-131317263D01*
X112996500Y-131546736D01*
X113026450Y-131774231D01*
X113026452Y-131774238D01*
X113085842Y-131995887D01*
X113173656Y-132207888D01*
X113173657Y-132207889D01*
X113173662Y-132207900D01*
X113288386Y-132406608D01*
X113288391Y-132406615D01*
X113428073Y-132588652D01*
X113428092Y-132588673D01*
X113590326Y-132750907D01*
X113590347Y-132750926D01*
X113772384Y-132890608D01*
X113772391Y-132890613D01*
X113971099Y-133005337D01*
X113971103Y-133005338D01*
X113971112Y-133005344D01*
X114183113Y-133093158D01*
X114404762Y-133152548D01*
X114404766Y-133152548D01*
X114404768Y-133152549D01*
X114463398Y-133160267D01*
X114632266Y-133182500D01*
X114632273Y-133182500D01*
X114861727Y-133182500D01*
X114861734Y-133182500D01*
X115076888Y-133154174D01*
X115089231Y-133152549D01*
X115089231Y-133152548D01*
X115089238Y-133152548D01*
X115310887Y-133093158D01*
X115522888Y-133005344D01*
X115721612Y-132890611D01*
X115903661Y-132750919D01*
X116065919Y-132588661D01*
X116205611Y-132406612D01*
X116320344Y-132207888D01*
X116408158Y-131995887D01*
X116467548Y-131774238D01*
X116497500Y-131546734D01*
X116497500Y-131317266D01*
X116467548Y-131089762D01*
X116408158Y-130868113D01*
X116320344Y-130656112D01*
X116320338Y-130656103D01*
X116320337Y-130656099D01*
X116205613Y-130457391D01*
X116205608Y-130457384D01*
X116065926Y-130275347D01*
X116065907Y-130275326D01*
X115903673Y-130113092D01*
X115903652Y-130113073D01*
X115721615Y-129973391D01*
X115721608Y-129973386D01*
X115522900Y-129858662D01*
X115522892Y-129858658D01*
X115522888Y-129858656D01*
X115310887Y-129770842D01*
X115089238Y-129711452D01*
X115089231Y-129711450D01*
X114861736Y-129681500D01*
X114861734Y-129681500D01*
X114632266Y-129681500D01*
X114632263Y-129681500D01*
X114404768Y-129711450D01*
X114183113Y-129770842D01*
X113971110Y-129858657D01*
X113971099Y-129858662D01*
X113772391Y-129973386D01*
X113772384Y-129973391D01*
X113590347Y-130113073D01*
X113590326Y-130113092D01*
X113428092Y-130275326D01*
X113428073Y-130275347D01*
X113288391Y-130457384D01*
X113288386Y-130457391D01*
X113173662Y-130656099D01*
X113173657Y-130656110D01*
X113085842Y-130868113D01*
X113026450Y-131089768D01*
X112996500Y-131317263D01*
X106925500Y-131317263D01*
X106925500Y-127786051D01*
X108058139Y-127786051D01*
X108078948Y-127930785D01*
X108139691Y-128063794D01*
X108177911Y-128111223D01*
X108177916Y-128111228D01*
X108177925Y-128111238D01*
X109448761Y-129382074D01*
X109448770Y-129382082D01*
X109448777Y-129382089D01*
X109496206Y-129420309D01*
X109629215Y-129481052D01*
X109773949Y-129501861D01*
X109918683Y-129481052D01*
X110051692Y-129420309D01*
X110099121Y-129382089D01*
X111369987Y-128111223D01*
X111408207Y-128063794D01*
X111468950Y-127930785D01*
X111489759Y-127786051D01*
X111468950Y-127641317D01*
X111416670Y-127526841D01*
X111406568Y-127456568D01*
X111436061Y-127391987D01*
X111495787Y-127353604D01*
X111531285Y-127348500D01*
X111676913Y-127348500D01*
X111676916Y-127348500D01*
X111888116Y-127315049D01*
X112091483Y-127248972D01*
X112282009Y-127151894D01*
X112455004Y-127026206D01*
X112606206Y-126875004D01*
X112671278Y-126785438D01*
X112727500Y-126742085D01*
X112773214Y-126733500D01*
X114962393Y-126733500D01*
X114962394Y-126733500D01*
X115084785Y-126709155D01*
X115200075Y-126661400D01*
X115303833Y-126592071D01*
X116875500Y-125020405D01*
X116937812Y-124986379D01*
X116964595Y-124983500D01*
X118724000Y-124983500D01*
X118792121Y-125003502D01*
X118838614Y-125057158D01*
X118850000Y-125109500D01*
X118850000Y-125730000D01*
X119777297Y-125730000D01*
X119742075Y-125791007D01*
X119708000Y-125918174D01*
X119708000Y-126049826D01*
X119742075Y-126176993D01*
X119777297Y-126238000D01*
X118850000Y-126238000D01*
X118850000Y-126882597D01*
X118856505Y-126943093D01*
X118907555Y-127079964D01*
X118907555Y-127079965D01*
X118995095Y-127196904D01*
X119112034Y-127284444D01*
X119248906Y-127335494D01*
X119309402Y-127341999D01*
X119309415Y-127342000D01*
X119954000Y-127342000D01*
X119954000Y-126414702D01*
X120015007Y-126449925D01*
X120142174Y-126484000D01*
X120273826Y-126484000D01*
X120400993Y-126449925D01*
X120462000Y-126414702D01*
X120462000Y-127342000D01*
X121106585Y-127342000D01*
X121106597Y-127341999D01*
X121167093Y-127335494D01*
X121303964Y-127284444D01*
X121303965Y-127284444D01*
X121420904Y-127196904D01*
X121508444Y-127079965D01*
X121528400Y-127026459D01*
X121559093Y-126846496D01*
X121560896Y-126842804D01*
X121560677Y-126838705D01*
X121578637Y-126806498D01*
X121590263Y-126782707D01*
X121592744Y-126781202D01*
X121594205Y-126778583D01*
X122263841Y-126108947D01*
X122282075Y-126176993D01*
X122347901Y-126291007D01*
X122440993Y-126384099D01*
X122555007Y-126449925D01*
X122623051Y-126468157D01*
X121983831Y-127107378D01*
X122036249Y-127145463D01*
X122036251Y-127145464D01*
X122226707Y-127242506D01*
X122226713Y-127242509D01*
X122429996Y-127308559D01*
X122641126Y-127342000D01*
X122854874Y-127342000D01*
X123066003Y-127308559D01*
X123269286Y-127242509D01*
X123269292Y-127242506D01*
X123459750Y-127145463D01*
X123512167Y-127107378D01*
X123512167Y-127107376D01*
X122872948Y-126468157D01*
X122940993Y-126449925D01*
X123055007Y-126384099D01*
X123148099Y-126291007D01*
X123213925Y-126176993D01*
X123232158Y-126108947D01*
X123871377Y-126748167D01*
X123871378Y-126748167D01*
X123909463Y-126695750D01*
X123910562Y-126693958D01*
X123911158Y-126693418D01*
X123912377Y-126691741D01*
X123912729Y-126691996D01*
X123963206Y-126646322D01*
X124033246Y-126634710D01*
X124098446Y-126662808D01*
X124123559Y-126691788D01*
X124123624Y-126691742D01*
X124124165Y-126692487D01*
X124125433Y-126693950D01*
X124126535Y-126695749D01*
X124164620Y-126748167D01*
X124164621Y-126748168D01*
X124803841Y-126108947D01*
X124822075Y-126176993D01*
X124887901Y-126291007D01*
X124980993Y-126384099D01*
X125095007Y-126449925D01*
X125163051Y-126468157D01*
X124523831Y-127107378D01*
X124576249Y-127145463D01*
X124576251Y-127145464D01*
X124766707Y-127242506D01*
X124766713Y-127242509D01*
X124969996Y-127308559D01*
X125181126Y-127342000D01*
X125394874Y-127342000D01*
X125606003Y-127308559D01*
X125809286Y-127242509D01*
X125809292Y-127242506D01*
X125999750Y-127145463D01*
X126052167Y-127107378D01*
X126052167Y-127107376D01*
X125412948Y-126468157D01*
X125480993Y-126449925D01*
X125595007Y-126384099D01*
X125688099Y-126291007D01*
X125753925Y-126176993D01*
X125772158Y-126108947D01*
X126411377Y-126748167D01*
X126411378Y-126748167D01*
X126449463Y-126695750D01*
X126450562Y-126693958D01*
X126451158Y-126693418D01*
X126452377Y-126691741D01*
X126452729Y-126691996D01*
X126503206Y-126646322D01*
X126573246Y-126634710D01*
X126638446Y-126662808D01*
X126663559Y-126691788D01*
X126663624Y-126691742D01*
X126664165Y-126692487D01*
X126665433Y-126693950D01*
X126666535Y-126695749D01*
X126704620Y-126748167D01*
X126704621Y-126748168D01*
X127343841Y-126108947D01*
X127362075Y-126176993D01*
X127427901Y-126291007D01*
X127520993Y-126384099D01*
X127635007Y-126449925D01*
X127703051Y-126468157D01*
X127063830Y-127107378D01*
X127116249Y-127145463D01*
X127116251Y-127145464D01*
X127306707Y-127242506D01*
X127306713Y-127242509D01*
X127509996Y-127308559D01*
X127721126Y-127342000D01*
X127934874Y-127342000D01*
X128146003Y-127308559D01*
X128349286Y-127242509D01*
X128349292Y-127242506D01*
X128539750Y-127145463D01*
X128592167Y-127107378D01*
X128592167Y-127107376D01*
X127952948Y-126468157D01*
X128020993Y-126449925D01*
X128135007Y-126384099D01*
X128228099Y-126291007D01*
X128293925Y-126176993D01*
X128312158Y-126108947D01*
X128951377Y-126748167D01*
X128951378Y-126748167D01*
X128989463Y-126695750D01*
X129086506Y-126505292D01*
X129086509Y-126505286D01*
X129152559Y-126302003D01*
X129186000Y-126090873D01*
X129186000Y-125877126D01*
X129152559Y-125665996D01*
X129086509Y-125462713D01*
X129086506Y-125462707D01*
X128989463Y-125272249D01*
X128925027Y-125183561D01*
X128901169Y-125116694D01*
X128917249Y-125047542D01*
X128968162Y-124998062D01*
X129026963Y-124983500D01*
X131566405Y-124983500D01*
X131634526Y-125003502D01*
X131681019Y-125057158D01*
X131691123Y-125127432D01*
X131661629Y-125192012D01*
X131655500Y-125198595D01*
X129174501Y-127679595D01*
X129112189Y-127713620D01*
X129085406Y-127716500D01*
X125587600Y-127716500D01*
X125465217Y-127740844D01*
X125465209Y-127740846D01*
X125431447Y-127754830D01*
X125431447Y-127754831D01*
X125356076Y-127786051D01*
X125349925Y-127788599D01*
X125246167Y-127857927D01*
X125246161Y-127857932D01*
X122699501Y-130404595D01*
X122637189Y-130438620D01*
X122610406Y-130441500D01*
X122560518Y-130441500D01*
X122429771Y-130467507D01*
X122385000Y-130476413D01*
X122384999Y-130476413D01*
X122384996Y-130476414D01*
X122219662Y-130544899D01*
X122070869Y-130644319D01*
X122070862Y-130644324D01*
X121944324Y-130770862D01*
X121944319Y-130770869D01*
X121844899Y-130919662D01*
X121776414Y-131084996D01*
X121741500Y-131260518D01*
X121741500Y-131260521D01*
X121741500Y-131439479D01*
X121776413Y-131615000D01*
X121844898Y-131780336D01*
X121944322Y-131929135D01*
X122070865Y-132055678D01*
X122219664Y-132155102D01*
X122385000Y-132223587D01*
X122560521Y-132258500D01*
X122560522Y-132258500D01*
X122739478Y-132258500D01*
X122739479Y-132258500D01*
X122915000Y-132223587D01*
X123080336Y-132155102D01*
X123229135Y-132055678D01*
X123355678Y-131929135D01*
X123455102Y-131780336D01*
X123523587Y-131615000D01*
X123558500Y-131439479D01*
X123558500Y-131389594D01*
X123578502Y-131321473D01*
X123595405Y-131300499D01*
X125875500Y-129020405D01*
X125937812Y-128986379D01*
X125964595Y-128983500D01*
X129462393Y-128983500D01*
X129462394Y-128983500D01*
X129584785Y-128959155D01*
X129700075Y-128911400D01*
X129803833Y-128842071D01*
X132625500Y-126020405D01*
X132687812Y-125986379D01*
X132714595Y-125983500D01*
X145196497Y-125983500D01*
X145264618Y-126003502D01*
X145285592Y-126020405D01*
X145320865Y-126055678D01*
X145469664Y-126155102D01*
X145635000Y-126223587D01*
X145810521Y-126258500D01*
X145810522Y-126258500D01*
X145989478Y-126258500D01*
X145989479Y-126258500D01*
X146165000Y-126223587D01*
X146330336Y-126155102D01*
X146479135Y-126055678D01*
X146574905Y-125959908D01*
X146637217Y-125925882D01*
X146708032Y-125930947D01*
X146764868Y-125973494D01*
X146789679Y-126040014D01*
X146790000Y-126049003D01*
X146790000Y-126090873D01*
X146823440Y-126302003D01*
X146889490Y-126505286D01*
X146889493Y-126505292D01*
X146986535Y-126695748D01*
X146986536Y-126695750D01*
X147024620Y-126748167D01*
X147024621Y-126748168D01*
X147663841Y-126108947D01*
X147682075Y-126176993D01*
X147747901Y-126291007D01*
X147840993Y-126384099D01*
X147955007Y-126449925D01*
X148023051Y-126468157D01*
X147383831Y-127107378D01*
X147436249Y-127145463D01*
X147436251Y-127145464D01*
X147626707Y-127242506D01*
X147626713Y-127242509D01*
X147829996Y-127308559D01*
X148041126Y-127342000D01*
X148254874Y-127342000D01*
X148466003Y-127308559D01*
X148669286Y-127242509D01*
X148669292Y-127242506D01*
X148859750Y-127145463D01*
X148912167Y-127107378D01*
X148912167Y-127107376D01*
X148272948Y-126468157D01*
X148340993Y-126449925D01*
X148455007Y-126384099D01*
X148548099Y-126291007D01*
X148613925Y-126176993D01*
X148632157Y-126108948D01*
X149271376Y-126748167D01*
X149271378Y-126748167D01*
X149309463Y-126695750D01*
X149310562Y-126693958D01*
X149311158Y-126693418D01*
X149312377Y-126691741D01*
X149312729Y-126691996D01*
X149363206Y-126646322D01*
X149433246Y-126634710D01*
X149498446Y-126662808D01*
X149523559Y-126691788D01*
X149523624Y-126691742D01*
X149524165Y-126692487D01*
X149525433Y-126693950D01*
X149526535Y-126695749D01*
X149564620Y-126748167D01*
X149564621Y-126748168D01*
X150203841Y-126108947D01*
X150222075Y-126176993D01*
X150287901Y-126291007D01*
X150380993Y-126384099D01*
X150495007Y-126449925D01*
X150563051Y-126468157D01*
X149923830Y-127107378D01*
X149976249Y-127145463D01*
X149976251Y-127145464D01*
X150166707Y-127242506D01*
X150166713Y-127242509D01*
X150369996Y-127308559D01*
X150581126Y-127342000D01*
X150794874Y-127342000D01*
X151006003Y-127308559D01*
X151209286Y-127242509D01*
X151209292Y-127242506D01*
X151399750Y-127145463D01*
X151452167Y-127107378D01*
X151452167Y-127107376D01*
X150812948Y-126468157D01*
X150880993Y-126449925D01*
X150995007Y-126384099D01*
X151088099Y-126291007D01*
X151153925Y-126176993D01*
X151172157Y-126108948D01*
X151811376Y-126748167D01*
X151811378Y-126748167D01*
X151849463Y-126695750D01*
X151850562Y-126693958D01*
X151851158Y-126693418D01*
X151852377Y-126691741D01*
X151852729Y-126691996D01*
X151903206Y-126646322D01*
X151973246Y-126634710D01*
X152038446Y-126662808D01*
X152063559Y-126691788D01*
X152063624Y-126691742D01*
X152064165Y-126692487D01*
X152065433Y-126693950D01*
X152066535Y-126695749D01*
X152104620Y-126748167D01*
X152104621Y-126748168D01*
X152743841Y-126108947D01*
X152762075Y-126176993D01*
X152827901Y-126291007D01*
X152920993Y-126384099D01*
X153035007Y-126449925D01*
X153103051Y-126468157D01*
X152463830Y-127107378D01*
X152516249Y-127145463D01*
X152516251Y-127145464D01*
X152706707Y-127242506D01*
X152706713Y-127242509D01*
X152909996Y-127308559D01*
X153121126Y-127342000D01*
X153334874Y-127342000D01*
X153546003Y-127308559D01*
X153749286Y-127242509D01*
X153749292Y-127242506D01*
X153939750Y-127145463D01*
X153992167Y-127107378D01*
X153992167Y-127107376D01*
X153352948Y-126468157D01*
X153420993Y-126449925D01*
X153535007Y-126384099D01*
X153628099Y-126291007D01*
X153693925Y-126176993D01*
X153712157Y-126108948D01*
X154381794Y-126778585D01*
X154415820Y-126840897D01*
X154412030Y-126901471D01*
X154416505Y-126943093D01*
X154467555Y-127079964D01*
X154467555Y-127079965D01*
X154555095Y-127196904D01*
X154672034Y-127284444D01*
X154808906Y-127335494D01*
X154869402Y-127341999D01*
X154869415Y-127342000D01*
X155514000Y-127342000D01*
X155514000Y-126414702D01*
X155575007Y-126449925D01*
X155702174Y-126484000D01*
X155833826Y-126484000D01*
X155960993Y-126449925D01*
X156022000Y-126414702D01*
X156022000Y-127342000D01*
X156666585Y-127342000D01*
X156666597Y-127341999D01*
X156727093Y-127335494D01*
X156863964Y-127284444D01*
X156863965Y-127284444D01*
X156980904Y-127196904D01*
X157068444Y-127079965D01*
X157068444Y-127079964D01*
X157119494Y-126943093D01*
X157125999Y-126882597D01*
X157126000Y-126882585D01*
X157126000Y-126238000D01*
X156198703Y-126238000D01*
X156233925Y-126176993D01*
X156268000Y-126049826D01*
X156268000Y-125918174D01*
X156233925Y-125791007D01*
X156198703Y-125730000D01*
X157126000Y-125730000D01*
X157126000Y-125085414D01*
X157125999Y-125085402D01*
X157119494Y-125024906D01*
X157068444Y-124888035D01*
X157068444Y-124888034D01*
X156980904Y-124771095D01*
X156899782Y-124710368D01*
X156857235Y-124653532D01*
X156852171Y-124582716D01*
X156886196Y-124520404D01*
X156948508Y-124486379D01*
X156975291Y-124483500D01*
X157946497Y-124483500D01*
X158014618Y-124503502D01*
X158035591Y-124520404D01*
X158070865Y-124555678D01*
X158219664Y-124655102D01*
X158385000Y-124723587D01*
X158560521Y-124758500D01*
X158560522Y-124758500D01*
X158739478Y-124758500D01*
X158739479Y-124758500D01*
X158915000Y-124723587D01*
X159080336Y-124655102D01*
X159229135Y-124555678D01*
X159355678Y-124429135D01*
X159455102Y-124280336D01*
X159523587Y-124115000D01*
X159558500Y-123939479D01*
X159558500Y-123760521D01*
X159523587Y-123585000D01*
X159455102Y-123419664D01*
X159355678Y-123270865D01*
X159229135Y-123144322D01*
X159080336Y-123044898D01*
X158933539Y-122984092D01*
X158915003Y-122976414D01*
X158915001Y-122976413D01*
X158915000Y-122976413D01*
X158822426Y-122957999D01*
X158739481Y-122941500D01*
X158739479Y-122941500D01*
X158560521Y-122941500D01*
X158560518Y-122941500D01*
X158429771Y-122967507D01*
X158385000Y-122976413D01*
X158384999Y-122976413D01*
X158384996Y-122976414D01*
X158253902Y-123030716D01*
X158250670Y-123032055D01*
X158219662Y-123044899D01*
X158070869Y-123144319D01*
X158070862Y-123144324D01*
X158035592Y-123179595D01*
X157973280Y-123213621D01*
X157946497Y-123216500D01*
X157496286Y-123216500D01*
X157428165Y-123196498D01*
X157381672Y-123142842D01*
X157371568Y-123072568D01*
X157378230Y-123046467D01*
X157401494Y-122984092D01*
X157407999Y-122923597D01*
X157408000Y-122923585D01*
X157408000Y-121729000D01*
X155392000Y-121729000D01*
X155392000Y-122923597D01*
X155398505Y-122984092D01*
X155421770Y-123046467D01*
X155426835Y-123117283D01*
X155392810Y-123179595D01*
X155330498Y-123213620D01*
X155303714Y-123216500D01*
X153496820Y-123216500D01*
X153428699Y-123196498D01*
X153382206Y-123142842D01*
X153372102Y-123072568D01*
X153378765Y-123046467D01*
X153401988Y-122984204D01*
X153401990Y-122984196D01*
X153408499Y-122923649D01*
X153408500Y-122923632D01*
X153408500Y-120026402D01*
X155392000Y-120026402D01*
X155392000Y-121221000D01*
X156146000Y-121221000D01*
X156654000Y-121221000D01*
X157408000Y-121221000D01*
X157408000Y-120026414D01*
X157407999Y-120026402D01*
X157401494Y-119965906D01*
X157350444Y-119829035D01*
X157350444Y-119829034D01*
X157262904Y-119712095D01*
X157145965Y-119624555D01*
X157009093Y-119573505D01*
X156948597Y-119567000D01*
X156654000Y-119567000D01*
X156654000Y-121221000D01*
X156146000Y-121221000D01*
X156146000Y-119567000D01*
X155851402Y-119567000D01*
X155790906Y-119573505D01*
X155654035Y-119624555D01*
X155654034Y-119624555D01*
X155537095Y-119712095D01*
X155449555Y-119829034D01*
X155449555Y-119829035D01*
X155398505Y-119965906D01*
X155392000Y-120026402D01*
X153408500Y-120026402D01*
X153408500Y-120026367D01*
X153408499Y-120026350D01*
X153401990Y-119965803D01*
X153401988Y-119965795D01*
X153350978Y-119829035D01*
X153350889Y-119828796D01*
X153350888Y-119828794D01*
X153350887Y-119828792D01*
X153263261Y-119711738D01*
X153146207Y-119624112D01*
X153146204Y-119624111D01*
X153115466Y-119612646D01*
X153058631Y-119570099D01*
X153033821Y-119503578D01*
X153033500Y-119494591D01*
X153033500Y-118412002D01*
X153053502Y-118343881D01*
X153107158Y-118297388D01*
X153177432Y-118287284D01*
X153242012Y-118316778D01*
X153275909Y-118363783D01*
X153276412Y-118364999D01*
X153276413Y-118365000D01*
X153344898Y-118530336D01*
X153444322Y-118679135D01*
X153570865Y-118805678D01*
X153719664Y-118905102D01*
X153885000Y-118973587D01*
X154060521Y-119008500D01*
X154060522Y-119008500D01*
X154239478Y-119008500D01*
X154239479Y-119008500D01*
X154415000Y-118973587D01*
X154580336Y-118905102D01*
X154729135Y-118805678D01*
X154764408Y-118770405D01*
X154826720Y-118736379D01*
X154853503Y-118733500D01*
X160209504Y-118733500D01*
X160277625Y-118753502D01*
X160324118Y-118807158D01*
X160334222Y-118877432D01*
X160327864Y-118900610D01*
X160328369Y-118900774D01*
X160270515Y-119078828D01*
X160242000Y-119258866D01*
X160242000Y-119441133D01*
X160270515Y-119621171D01*
X160326837Y-119794513D01*
X160326840Y-119794519D01*
X160409588Y-119956923D01*
X160419804Y-119970985D01*
X161000000Y-119390789D01*
X161000000Y-119402661D01*
X161027259Y-119504394D01*
X161079920Y-119595606D01*
X161154394Y-119670080D01*
X161245606Y-119722741D01*
X161347339Y-119750000D01*
X161359210Y-119750000D01*
X160948556Y-120160652D01*
X160916665Y-120183822D01*
X160740401Y-120273634D01*
X160580139Y-120390071D01*
X160440071Y-120530139D01*
X160323636Y-120690398D01*
X160323634Y-120690402D01*
X160233702Y-120866903D01*
X160172488Y-121055300D01*
X160141500Y-121250954D01*
X160141500Y-121449046D01*
X160172488Y-121644700D01*
X160233702Y-121833097D01*
X160318794Y-122000099D01*
X160323636Y-122009601D01*
X160440071Y-122169860D01*
X160580139Y-122309928D01*
X160580142Y-122309930D01*
X160740402Y-122426366D01*
X160916903Y-122516298D01*
X161105300Y-122577512D01*
X161300954Y-122608500D01*
X161300957Y-122608500D01*
X161499043Y-122608500D01*
X161499046Y-122608500D01*
X161694700Y-122577512D01*
X161883097Y-122516298D01*
X162059598Y-122426366D01*
X162219858Y-122309930D01*
X162359930Y-122169858D01*
X162476366Y-122009598D01*
X162566298Y-121833097D01*
X162627512Y-121644700D01*
X162658500Y-121449046D01*
X162658500Y-121250954D01*
X162627512Y-121055300D01*
X162566298Y-120866903D01*
X162476366Y-120690402D01*
X162359930Y-120530142D01*
X162359928Y-120530139D01*
X162219860Y-120390071D01*
X162059601Y-120273636D01*
X162059600Y-120273635D01*
X162059598Y-120273634D01*
X161883330Y-120183821D01*
X161851439Y-120160650D01*
X161440790Y-119750000D01*
X161452661Y-119750000D01*
X161554394Y-119722741D01*
X161645606Y-119670080D01*
X161720080Y-119595606D01*
X161772741Y-119504394D01*
X161800000Y-119402661D01*
X161800000Y-119390791D01*
X162380193Y-119970984D01*
X162380195Y-119970984D01*
X162390408Y-119956928D01*
X162473159Y-119794519D01*
X162473162Y-119794513D01*
X162529484Y-119621171D01*
X162558000Y-119441133D01*
X162558000Y-119258866D01*
X162529484Y-119078828D01*
X162473162Y-118905486D01*
X162473159Y-118905480D01*
X162390412Y-118743078D01*
X162380194Y-118729014D01*
X161800000Y-119309208D01*
X161800000Y-119297339D01*
X161772741Y-119195606D01*
X161720080Y-119104394D01*
X161645606Y-119029920D01*
X161554394Y-118977259D01*
X161452661Y-118950000D01*
X161440790Y-118950000D01*
X162033216Y-118357573D01*
X162038211Y-118333791D01*
X162075165Y-118291447D01*
X162154712Y-118233654D01*
X162283654Y-118104712D01*
X162390838Y-117957186D01*
X162473624Y-117794710D01*
X162529974Y-117621283D01*
X162558500Y-117441176D01*
X162558500Y-117258824D01*
X162529974Y-117078717D01*
X162473624Y-116905290D01*
X162390838Y-116742814D01*
X162283654Y-116595288D01*
X162283651Y-116595285D01*
X162283649Y-116595282D01*
X162154718Y-116466351D01*
X162154714Y-116466348D01*
X162154712Y-116466346D01*
X162092344Y-116421033D01*
X162048992Y-116364811D01*
X162042917Y-116294075D01*
X162076049Y-116231283D01*
X162092339Y-116217167D01*
X162122139Y-116195517D01*
X162245517Y-116072139D01*
X162348074Y-115930981D01*
X162427288Y-115775516D01*
X162481205Y-115609574D01*
X162508500Y-115437241D01*
X162508500Y-115262759D01*
X162481205Y-115090426D01*
X162427288Y-114924484D01*
X162348074Y-114769019D01*
X162245517Y-114627861D01*
X162245514Y-114627858D01*
X162245512Y-114627855D01*
X162154894Y-114537237D01*
X162120868Y-114474925D01*
X162125933Y-114404110D01*
X162168480Y-114347274D01*
X162169928Y-114346206D01*
X162219858Y-114309930D01*
X162359930Y-114169858D01*
X162476366Y-114009598D01*
X162566298Y-113833097D01*
X162627512Y-113644700D01*
X162658500Y-113449046D01*
X162658500Y-113250954D01*
X162627512Y-113055300D01*
X162566298Y-112866903D01*
X162476366Y-112690402D01*
X162436414Y-112635413D01*
X162359928Y-112530139D01*
X162219860Y-112390071D01*
X162059601Y-112273636D01*
X162059600Y-112273635D01*
X162059598Y-112273634D01*
X161883097Y-112183702D01*
X161694700Y-112122488D01*
X161499046Y-112091500D01*
X161300954Y-112091500D01*
X161105300Y-112122488D01*
X161105297Y-112122488D01*
X161105296Y-112122489D01*
X160916903Y-112183702D01*
X160916901Y-112183703D01*
X160740398Y-112273636D01*
X160580139Y-112390071D01*
X160440071Y-112530139D01*
X160323636Y-112690398D01*
X160323634Y-112690402D01*
X160233702Y-112866903D01*
X160172488Y-113055300D01*
X160141500Y-113250954D01*
X160141500Y-113449046D01*
X160172488Y-113644700D01*
X160233702Y-113833097D01*
X160300729Y-113964644D01*
X160323636Y-114009601D01*
X160440071Y-114169860D01*
X160580135Y-114309924D01*
X160580138Y-114309926D01*
X160580142Y-114309930D01*
X160630072Y-114346206D01*
X160673425Y-114402429D01*
X160679500Y-114473165D01*
X160646368Y-114535957D01*
X160645106Y-114537237D01*
X160554483Y-114627860D01*
X160451928Y-114769015D01*
X160372713Y-114924482D01*
X160372710Y-114924488D01*
X160318796Y-115090422D01*
X160318795Y-115090426D01*
X160291500Y-115262759D01*
X160291500Y-115437241D01*
X160318795Y-115609574D01*
X160372712Y-115775516D01*
X160451926Y-115930981D01*
X160554483Y-116072139D01*
X160554485Y-116072141D01*
X160554487Y-116072144D01*
X160677855Y-116195512D01*
X160677858Y-116195514D01*
X160677861Y-116195517D01*
X160707653Y-116217162D01*
X160751007Y-116273384D01*
X160757082Y-116344120D01*
X160723951Y-116406912D01*
X160707654Y-116421033D01*
X160645288Y-116466345D01*
X160645282Y-116466350D01*
X160516350Y-116595282D01*
X160516348Y-116595285D01*
X160409164Y-116742810D01*
X160326374Y-116905293D01*
X160270027Y-117078711D01*
X160270026Y-117078716D01*
X160270026Y-117078717D01*
X160246634Y-117226414D01*
X160241500Y-117258827D01*
X160241500Y-117340500D01*
X160221498Y-117408621D01*
X160167842Y-117455114D01*
X160115500Y-117466500D01*
X157477637Y-117466500D01*
X157409516Y-117446498D01*
X157363023Y-117392842D01*
X157352919Y-117322568D01*
X157359581Y-117296467D01*
X157401494Y-117184092D01*
X157407999Y-117123597D01*
X157408000Y-117123585D01*
X157408000Y-115929000D01*
X155392000Y-115929000D01*
X155392000Y-117123597D01*
X155398505Y-117184092D01*
X155440419Y-117296467D01*
X155445484Y-117367283D01*
X155411459Y-117429595D01*
X155349146Y-117463620D01*
X155322363Y-117466500D01*
X154853503Y-117466500D01*
X154785382Y-117446498D01*
X154764408Y-117429595D01*
X154729137Y-117394324D01*
X154729135Y-117394322D01*
X154580336Y-117294898D01*
X154428510Y-117232009D01*
X154415003Y-117226414D01*
X154415001Y-117226413D01*
X154415000Y-117226413D01*
X154326645Y-117208838D01*
X154239481Y-117191500D01*
X154239479Y-117191500D01*
X154060521Y-117191500D01*
X154060518Y-117191500D01*
X153929771Y-117217507D01*
X153885000Y-117226413D01*
X153884999Y-117226413D01*
X153884996Y-117226414D01*
X153719663Y-117294898D01*
X153565947Y-117397607D01*
X153498194Y-117418821D01*
X153429727Y-117400037D01*
X153382284Y-117347220D01*
X153370928Y-117277137D01*
X153377889Y-117248814D01*
X153401989Y-117184201D01*
X153408500Y-117123638D01*
X153408500Y-114226402D01*
X155392000Y-114226402D01*
X155392000Y-115421000D01*
X156146000Y-115421000D01*
X156654000Y-115421000D01*
X157408000Y-115421000D01*
X157408000Y-114226414D01*
X157407999Y-114226402D01*
X157401494Y-114165906D01*
X157350444Y-114029035D01*
X157350444Y-114029034D01*
X157262904Y-113912095D01*
X157145965Y-113824555D01*
X157009093Y-113773505D01*
X156948597Y-113767000D01*
X156654000Y-113767000D01*
X156654000Y-115421000D01*
X156146000Y-115421000D01*
X156146000Y-113767000D01*
X155851402Y-113767000D01*
X155790906Y-113773505D01*
X155654035Y-113824555D01*
X155654034Y-113824555D01*
X155537095Y-113912095D01*
X155449555Y-114029034D01*
X155449555Y-114029035D01*
X155398505Y-114165906D01*
X155392000Y-114226402D01*
X153408500Y-114226402D01*
X153408500Y-114226362D01*
X153408499Y-114226350D01*
X153401990Y-114165803D01*
X153401988Y-114165795D01*
X153350978Y-114029035D01*
X153350889Y-114028796D01*
X153350888Y-114028794D01*
X153350887Y-114028792D01*
X153263261Y-113911738D01*
X153146207Y-113824112D01*
X153146202Y-113824110D01*
X153009204Y-113773011D01*
X153009196Y-113773009D01*
X152948649Y-113766500D01*
X152948638Y-113766500D01*
X151851362Y-113766500D01*
X151851350Y-113766500D01*
X151790803Y-113773009D01*
X151790795Y-113773011D01*
X151653797Y-113824110D01*
X151653793Y-113824112D01*
X151621797Y-113848064D01*
X151555276Y-113872874D01*
X151485902Y-113857782D01*
X151457194Y-113836290D01*
X150978835Y-113357931D01*
X150978833Y-113357929D01*
X150875075Y-113288600D01*
X150759785Y-113240845D01*
X150686086Y-113226185D01*
X150637396Y-113216500D01*
X150637394Y-113216500D01*
X145585579Y-113216500D01*
X145517458Y-113196498D01*
X145470965Y-113142842D01*
X145465593Y-113126206D01*
X145464874Y-113126425D01*
X145463082Y-113120519D01*
X145463080Y-113120509D01*
X145394595Y-112955173D01*
X145295171Y-112806374D01*
X145168628Y-112679831D01*
X145019829Y-112580407D01*
X144898472Y-112530139D01*
X144854496Y-112511923D01*
X144854494Y-112511922D01*
X144854493Y-112511922D01*
X144766138Y-112494347D01*
X144678974Y-112477009D01*
X144678972Y-112477009D01*
X144500014Y-112477009D01*
X144500011Y-112477009D01*
X144369264Y-112503016D01*
X144324493Y-112511922D01*
X144324492Y-112511922D01*
X144324489Y-112511923D01*
X144159155Y-112580408D01*
X144010362Y-112679828D01*
X144010355Y-112679833D01*
X143883817Y-112806371D01*
X143883812Y-112806378D01*
X143784392Y-112955171D01*
X143715907Y-113120505D01*
X143680993Y-113296027D01*
X143680993Y-113296030D01*
X143680993Y-113474988D01*
X143715906Y-113650509D01*
X143784391Y-113815845D01*
X143883815Y-113964644D01*
X144010358Y-114091187D01*
X144159157Y-114190611D01*
X144324493Y-114259096D01*
X144500014Y-114294009D01*
X144500015Y-114294009D01*
X144516000Y-114294009D01*
X144584121Y-114314011D01*
X144630614Y-114367667D01*
X144642000Y-114420009D01*
X144642000Y-115421000D01*
X146658000Y-115421000D01*
X146658000Y-114609500D01*
X146678002Y-114541379D01*
X146731658Y-114494886D01*
X146784000Y-114483500D01*
X148515500Y-114483500D01*
X148583621Y-114503502D01*
X148630114Y-114557158D01*
X148641500Y-114609500D01*
X148641500Y-117123649D01*
X148648009Y-117184196D01*
X148648011Y-117184204D01*
X148699109Y-117321201D01*
X148699110Y-117321202D01*
X148699111Y-117321204D01*
X148713556Y-117340500D01*
X148741368Y-117377652D01*
X148766179Y-117444172D01*
X148766500Y-117453161D01*
X148766500Y-119696838D01*
X148746498Y-119764959D01*
X148741368Y-119772347D01*
X148699112Y-119828792D01*
X148699110Y-119828797D01*
X148648011Y-119965795D01*
X148648009Y-119965803D01*
X148641500Y-120026350D01*
X148641500Y-122923649D01*
X148648009Y-122984196D01*
X148648011Y-122984204D01*
X148699110Y-123121202D01*
X148699112Y-123121207D01*
X148786738Y-123238261D01*
X148903792Y-123325887D01*
X148903794Y-123325888D01*
X148903796Y-123325889D01*
X148962875Y-123347924D01*
X149040795Y-123376988D01*
X149040803Y-123376990D01*
X149101350Y-123383499D01*
X149101355Y-123383499D01*
X149101362Y-123383500D01*
X149460406Y-123383500D01*
X149528527Y-123403502D01*
X149549501Y-123420405D01*
X150471167Y-124342071D01*
X150562537Y-124403122D01*
X150568069Y-124406819D01*
X150613597Y-124461296D01*
X150622445Y-124531739D01*
X150591803Y-124595783D01*
X150531402Y-124633094D01*
X150517778Y-124636033D01*
X150369996Y-124659440D01*
X150166713Y-124725490D01*
X150166707Y-124725493D01*
X149976253Y-124822534D01*
X149923831Y-124860621D01*
X149923831Y-124860622D01*
X150563051Y-125499842D01*
X150495007Y-125518075D01*
X150380993Y-125583901D01*
X150287901Y-125676993D01*
X150222075Y-125791007D01*
X150203842Y-125859051D01*
X149564622Y-125219831D01*
X149564621Y-125219831D01*
X149526522Y-125272269D01*
X149525422Y-125274065D01*
X149524827Y-125274603D01*
X149523624Y-125276259D01*
X149523275Y-125276006D01*
X149472768Y-125321689D01*
X149402725Y-125333286D01*
X149337531Y-125305174D01*
X149312440Y-125276211D01*
X149312376Y-125276258D01*
X149311830Y-125275506D01*
X149310563Y-125274044D01*
X149309462Y-125272248D01*
X149271378Y-125219831D01*
X148632157Y-125859051D01*
X148613925Y-125791007D01*
X148548099Y-125676993D01*
X148455007Y-125583901D01*
X148340993Y-125518075D01*
X148272947Y-125499841D01*
X148912168Y-124860621D01*
X148912167Y-124860620D01*
X148859750Y-124822536D01*
X148859748Y-124822535D01*
X148669292Y-124725493D01*
X148669286Y-124725490D01*
X148466004Y-124659440D01*
X148352303Y-124641431D01*
X148288150Y-124611018D01*
X148250624Y-124550749D01*
X148251638Y-124479760D01*
X148255607Y-124468763D01*
X148298584Y-124365007D01*
X148298583Y-124365007D01*
X148298587Y-124365000D01*
X148333500Y-124189479D01*
X148333500Y-124010521D01*
X148298587Y-123835000D01*
X148230102Y-123669664D01*
X148130678Y-123520865D01*
X148004135Y-123394322D01*
X147855336Y-123294898D01*
X147738429Y-123246473D01*
X147690003Y-123226414D01*
X147690001Y-123226413D01*
X147690000Y-123226413D01*
X147601645Y-123208838D01*
X147514481Y-123191500D01*
X147514479Y-123191500D01*
X147335521Y-123191500D01*
X147335518Y-123191500D01*
X147230946Y-123212301D01*
X147160000Y-123226413D01*
X147159999Y-123226413D01*
X147159996Y-123226414D01*
X146994662Y-123294899D01*
X146845869Y-123394319D01*
X146845862Y-123394324D01*
X146719324Y-123520862D01*
X146719319Y-123520868D01*
X146626020Y-123660502D01*
X146571544Y-123706029D01*
X146521255Y-123716500D01*
X125483594Y-123716500D01*
X125415473Y-123696498D01*
X125368980Y-123642842D01*
X125358876Y-123572568D01*
X125388370Y-123507988D01*
X125394499Y-123501405D01*
X127989499Y-120906405D01*
X128051811Y-120872379D01*
X128078594Y-120869500D01*
X128916000Y-120869500D01*
X128984121Y-120889502D01*
X129030614Y-120943158D01*
X129042000Y-120995500D01*
X129042000Y-121346000D01*
X129969297Y-121346000D01*
X129934075Y-121407007D01*
X129900000Y-121534174D01*
X129900000Y-121665826D01*
X129934075Y-121792993D01*
X129969297Y-121854000D01*
X129042000Y-121854000D01*
X129042000Y-122498597D01*
X129048505Y-122559093D01*
X129099555Y-122695964D01*
X129099555Y-122695965D01*
X129187095Y-122812904D01*
X129304034Y-122900444D01*
X129440906Y-122951494D01*
X129501402Y-122957999D01*
X129501415Y-122958000D01*
X130146000Y-122958000D01*
X130146000Y-122030702D01*
X130207007Y-122065925D01*
X130334174Y-122100000D01*
X130465826Y-122100000D01*
X130592993Y-122065925D01*
X130654000Y-122030702D01*
X130654000Y-122958000D01*
X131298585Y-122958000D01*
X131298597Y-122957999D01*
X131359093Y-122951494D01*
X131433888Y-122923597D01*
X144642000Y-122923597D01*
X144648505Y-122984093D01*
X144699555Y-123120964D01*
X144699555Y-123120965D01*
X144787095Y-123237904D01*
X144904034Y-123325444D01*
X145040906Y-123376494D01*
X145101402Y-123382999D01*
X145101415Y-123383000D01*
X145396000Y-123383000D01*
X145904000Y-123383000D01*
X146198585Y-123383000D01*
X146198597Y-123382999D01*
X146259093Y-123376494D01*
X146395964Y-123325444D01*
X146395965Y-123325444D01*
X146512904Y-123237904D01*
X146600444Y-123120965D01*
X146600444Y-123120964D01*
X146651494Y-122984093D01*
X146657999Y-122923597D01*
X146658000Y-122923585D01*
X146658000Y-121729000D01*
X145904000Y-121729000D01*
X145904000Y-123383000D01*
X145396000Y-123383000D01*
X145396000Y-121729000D01*
X144642000Y-121729000D01*
X144642000Y-122923597D01*
X131433888Y-122923597D01*
X131495964Y-122900444D01*
X131495965Y-122900444D01*
X131612904Y-122812904D01*
X131700444Y-122695965D01*
X131700444Y-122695964D01*
X131751494Y-122559093D01*
X131757999Y-122498597D01*
X131758000Y-122498585D01*
X131758000Y-121854000D01*
X130830703Y-121854000D01*
X130865925Y-121792993D01*
X130900000Y-121665826D01*
X130900000Y-121534174D01*
X130865925Y-121407007D01*
X130830703Y-121346000D01*
X131758000Y-121346000D01*
X131758000Y-120995500D01*
X131778002Y-120927379D01*
X131831658Y-120880886D01*
X131884000Y-120869500D01*
X132076393Y-120869500D01*
X132076394Y-120869500D01*
X132198785Y-120845155D01*
X132314075Y-120797400D01*
X132417833Y-120728071D01*
X133119501Y-120026402D01*
X144642000Y-120026402D01*
X144642000Y-121221000D01*
X145396000Y-121221000D01*
X145904000Y-121221000D01*
X146658000Y-121221000D01*
X146658000Y-120026414D01*
X146657999Y-120026402D01*
X146651494Y-119965906D01*
X146600444Y-119829035D01*
X146600444Y-119829034D01*
X146512904Y-119712095D01*
X146395965Y-119624555D01*
X146259093Y-119573505D01*
X146198597Y-119567000D01*
X145904000Y-119567000D01*
X145904000Y-121221000D01*
X145396000Y-121221000D01*
X145396000Y-119567000D01*
X145101402Y-119567000D01*
X145040906Y-119573505D01*
X144904035Y-119624555D01*
X144904034Y-119624555D01*
X144787095Y-119712095D01*
X144699555Y-119829034D01*
X144699555Y-119829035D01*
X144648505Y-119965906D01*
X144642000Y-120026402D01*
X133119501Y-120026402D01*
X133659771Y-119486131D01*
X133700640Y-119458823D01*
X133830336Y-119405102D01*
X133979135Y-119305678D01*
X134105678Y-119179135D01*
X134205102Y-119030336D01*
X134273587Y-118865000D01*
X134308500Y-118689479D01*
X134308500Y-118510521D01*
X134273587Y-118335000D01*
X134205102Y-118169664D01*
X134105678Y-118020865D01*
X133979135Y-117894322D01*
X133830336Y-117794898D01*
X133686245Y-117735213D01*
X133665003Y-117726414D01*
X133665001Y-117726413D01*
X133665000Y-117726413D01*
X133576645Y-117708838D01*
X133489481Y-117691500D01*
X133489479Y-117691500D01*
X133310521Y-117691500D01*
X133310518Y-117691500D01*
X133179771Y-117717507D01*
X133135000Y-117726413D01*
X133134999Y-117726413D01*
X133134996Y-117726414D01*
X132969662Y-117794899D01*
X132820869Y-117894319D01*
X132820862Y-117894324D01*
X132694324Y-118020862D01*
X132694319Y-118020869D01*
X132665810Y-118063537D01*
X132594898Y-118169664D01*
X132586690Y-118189479D01*
X132526414Y-118334996D01*
X132526413Y-118334999D01*
X132526413Y-118335000D01*
X132523830Y-118347987D01*
X132491500Y-118510518D01*
X132491500Y-118689484D01*
X132507082Y-118767819D01*
X132500754Y-118838533D01*
X132472599Y-118881495D01*
X131952034Y-119402061D01*
X131889721Y-119436086D01*
X131818906Y-119431022D01*
X131762070Y-119388475D01*
X131737259Y-119321955D01*
X131738488Y-119293261D01*
X131758500Y-119166916D01*
X131758500Y-118953084D01*
X131725049Y-118741884D01*
X131658972Y-118538517D01*
X131561894Y-118347991D01*
X131436206Y-118174996D01*
X131436203Y-118174993D01*
X131436201Y-118174990D01*
X131285009Y-118023798D01*
X131285006Y-118023796D01*
X131285004Y-118023794D01*
X131112009Y-117898106D01*
X131112007Y-117898105D01*
X131110920Y-117897439D01*
X131110591Y-117897075D01*
X131108004Y-117895196D01*
X131108398Y-117894652D01*
X131063283Y-117844796D01*
X131051670Y-117774756D01*
X131079766Y-117709555D01*
X131108130Y-117684978D01*
X131108004Y-117684804D01*
X131110030Y-117683331D01*
X131110920Y-117682561D01*
X131111997Y-117681899D01*
X131112009Y-117681894D01*
X131285004Y-117556206D01*
X131436206Y-117405004D01*
X131561894Y-117232009D01*
X131617133Y-117123597D01*
X144642000Y-117123597D01*
X144648505Y-117184093D01*
X144699555Y-117320964D01*
X144699555Y-117320965D01*
X144787095Y-117437904D01*
X144904034Y-117525444D01*
X145040906Y-117576494D01*
X145101402Y-117582999D01*
X145101415Y-117583000D01*
X145396000Y-117583000D01*
X145904000Y-117583000D01*
X146198585Y-117583000D01*
X146198597Y-117582999D01*
X146259093Y-117576494D01*
X146395964Y-117525444D01*
X146395965Y-117525444D01*
X146512904Y-117437904D01*
X146600444Y-117320965D01*
X146600444Y-117320964D01*
X146651494Y-117184093D01*
X146657999Y-117123597D01*
X146658000Y-117123585D01*
X146658000Y-115929000D01*
X145904000Y-115929000D01*
X145904000Y-117583000D01*
X145396000Y-117583000D01*
X145396000Y-115929000D01*
X144642000Y-115929000D01*
X144642000Y-117123597D01*
X131617133Y-117123597D01*
X131658972Y-117041483D01*
X131725049Y-116838116D01*
X131758500Y-116626916D01*
X131758500Y-116413084D01*
X131725049Y-116201884D01*
X131658972Y-115998517D01*
X131561894Y-115807991D01*
X131436206Y-115634996D01*
X131436203Y-115634993D01*
X131436201Y-115634990D01*
X131285009Y-115483798D01*
X131285006Y-115483796D01*
X131285004Y-115483794D01*
X131112009Y-115358106D01*
X130921483Y-115261028D01*
X130921480Y-115261027D01*
X130921478Y-115261026D01*
X130718120Y-115194952D01*
X130718123Y-115194952D01*
X130678801Y-115188724D01*
X130506916Y-115161500D01*
X130293084Y-115161500D01*
X130081884Y-115194951D01*
X130081878Y-115194952D01*
X129878521Y-115261026D01*
X129878515Y-115261029D01*
X129687987Y-115358108D01*
X129514993Y-115483796D01*
X129514990Y-115483798D01*
X129363798Y-115634990D01*
X129363796Y-115634993D01*
X129238108Y-115807987D01*
X129141029Y-115998515D01*
X129141026Y-115998521D01*
X129074952Y-116201878D01*
X129074951Y-116201883D01*
X129074951Y-116201884D01*
X129041500Y-116413084D01*
X129041500Y-116626916D01*
X129059856Y-116742810D01*
X129074952Y-116838121D01*
X129141026Y-117041478D01*
X129141028Y-117041483D01*
X129238106Y-117232009D01*
X129363794Y-117405004D01*
X129363796Y-117405006D01*
X129363798Y-117405009D01*
X129514990Y-117556201D01*
X129514993Y-117556203D01*
X129514996Y-117556206D01*
X129687991Y-117681894D01*
X129687996Y-117681896D01*
X129689088Y-117682566D01*
X129689418Y-117682931D01*
X129691996Y-117684804D01*
X129691602Y-117685345D01*
X129736721Y-117735213D01*
X129748328Y-117805255D01*
X129720226Y-117870453D01*
X129691870Y-117895023D01*
X129691996Y-117895196D01*
X129689982Y-117896658D01*
X129689088Y-117897434D01*
X129687987Y-117898108D01*
X129514993Y-118023796D01*
X129514990Y-118023798D01*
X129363798Y-118174990D01*
X129363796Y-118174993D01*
X129238108Y-118347987D01*
X129141029Y-118538515D01*
X129141026Y-118538521D01*
X129074952Y-118741878D01*
X129074951Y-118741883D01*
X129074951Y-118741884D01*
X129041500Y-118953084D01*
X129041500Y-119166916D01*
X129063478Y-119305678D01*
X129074952Y-119378123D01*
X129074953Y-119378124D01*
X129094266Y-119437565D01*
X129096293Y-119508532D01*
X129059630Y-119569330D01*
X128995918Y-119600655D01*
X128974433Y-119602500D01*
X127701603Y-119602500D01*
X127650598Y-119612646D01*
X127579215Y-119626845D01*
X127579213Y-119626845D01*
X127579212Y-119626846D01*
X127463923Y-119674601D01*
X127360171Y-119743926D01*
X127360164Y-119743931D01*
X123874501Y-123229595D01*
X123812189Y-123263621D01*
X123785406Y-123266500D01*
X116449821Y-123266500D01*
X116381700Y-123246498D01*
X116335207Y-123192842D01*
X116325103Y-123122568D01*
X116337552Y-123083302D01*
X116421075Y-122919380D01*
X116487152Y-122716013D01*
X116520603Y-122504813D01*
X116520603Y-122290981D01*
X116487152Y-122079781D01*
X116421075Y-121876414D01*
X116323997Y-121685888D01*
X116198309Y-121512893D01*
X116198306Y-121512890D01*
X116198304Y-121512887D01*
X116047112Y-121361695D01*
X116047109Y-121361693D01*
X116047107Y-121361691D01*
X115916884Y-121267079D01*
X115874115Y-121236005D01*
X115874114Y-121236004D01*
X115874112Y-121236003D01*
X115683586Y-121138925D01*
X115683583Y-121138924D01*
X115683581Y-121138923D01*
X115480223Y-121072849D01*
X115480226Y-121072849D01*
X115440904Y-121066621D01*
X115269019Y-121039397D01*
X115055187Y-121039397D01*
X114843987Y-121072848D01*
X114843981Y-121072849D01*
X114640624Y-121138923D01*
X114640618Y-121138926D01*
X114450090Y-121236005D01*
X114277096Y-121361693D01*
X114277093Y-121361695D01*
X114125901Y-121512887D01*
X114125899Y-121512890D01*
X114000211Y-121685884D01*
X113903132Y-121876412D01*
X113903129Y-121876418D01*
X113837055Y-122079775D01*
X113837054Y-122079780D01*
X113837054Y-122079781D01*
X113803603Y-122290981D01*
X113803603Y-122504813D01*
X113837054Y-122716013D01*
X113837057Y-122716031D01*
X113837359Y-122717288D01*
X113837334Y-122717779D01*
X113837829Y-122720902D01*
X113837172Y-122721005D01*
X113833801Y-122788195D01*
X113792472Y-122845922D01*
X113726494Y-122872141D01*
X113689089Y-122869465D01*
X113689056Y-122869675D01*
X113686620Y-122869289D01*
X113685442Y-122869205D01*
X113684185Y-122868903D01*
X113684167Y-122868900D01*
X113472967Y-122835449D01*
X113259135Y-122835449D01*
X113047935Y-122868900D01*
X113047929Y-122868901D01*
X112844572Y-122934975D01*
X112844566Y-122934978D01*
X112654038Y-123032057D01*
X112481044Y-123157745D01*
X112481041Y-123157747D01*
X112329849Y-123308939D01*
X112329847Y-123308942D01*
X112204159Y-123481936D01*
X112107080Y-123672464D01*
X112107077Y-123672470D01*
X112041003Y-123875827D01*
X112041002Y-123875832D01*
X112041002Y-123875833D01*
X112007551Y-124087033D01*
X112007551Y-124300865D01*
X112032457Y-124458117D01*
X112041004Y-124512079D01*
X112041306Y-124513334D01*
X112041281Y-124513824D01*
X112041777Y-124516954D01*
X112041119Y-124517058D01*
X112037751Y-124584242D01*
X111996424Y-124641970D01*
X111930447Y-124668192D01*
X111893038Y-124665516D01*
X111893005Y-124665726D01*
X111890563Y-124665339D01*
X111889385Y-124665255D01*
X111888130Y-124664953D01*
X111816020Y-124653532D01*
X111676916Y-124631500D01*
X111463084Y-124631500D01*
X111251884Y-124664951D01*
X111251878Y-124664952D01*
X111048521Y-124731026D01*
X111048515Y-124731029D01*
X110857987Y-124828108D01*
X110684993Y-124953796D01*
X110684990Y-124953798D01*
X110533798Y-125104990D01*
X110533796Y-125104993D01*
X110408108Y-125277987D01*
X110311029Y-125468515D01*
X110311026Y-125468521D01*
X110244952Y-125671878D01*
X110244951Y-125671883D01*
X110244951Y-125671884D01*
X110214181Y-125866162D01*
X110211500Y-125883087D01*
X110211500Y-126028715D01*
X110191498Y-126096836D01*
X110137842Y-126143329D01*
X110067568Y-126153433D01*
X110033158Y-126143329D01*
X109918683Y-126091050D01*
X109773949Y-126070241D01*
X109629214Y-126091050D01*
X109496205Y-126151793D01*
X109448780Y-126190010D01*
X109448761Y-126190027D01*
X108177925Y-127460863D01*
X108177908Y-127460882D01*
X108139691Y-127508307D01*
X108131227Y-127526842D01*
X108078948Y-127641317D01*
X108058139Y-127786051D01*
X106925500Y-127786051D01*
X106925500Y-126146730D01*
X106925556Y-126143056D01*
X106943601Y-125546154D01*
X106944058Y-125538614D01*
X106997951Y-124945819D01*
X106998862Y-124938314D01*
X107088468Y-124349846D01*
X107089828Y-124342428D01*
X107214819Y-123760440D01*
X107216627Y-123753110D01*
X107376543Y-123179745D01*
X107378797Y-123172515D01*
X107573045Y-122609893D01*
X107575731Y-122602810D01*
X107803627Y-122052911D01*
X107806731Y-122046019D01*
X108067418Y-121510909D01*
X108070930Y-121504221D01*
X108363483Y-120985804D01*
X108367382Y-120979359D01*
X108690711Y-120479570D01*
X108695006Y-120473353D01*
X109047917Y-119994033D01*
X109052594Y-119988066D01*
X109433822Y-119530933D01*
X109438828Y-119525286D01*
X109846979Y-119092009D01*
X109852345Y-119086648D01*
X109860659Y-119078828D01*
X110285919Y-118678822D01*
X110291569Y-118673821D01*
X110748970Y-118292945D01*
X110754961Y-118288256D01*
X111234534Y-117935706D01*
X111240766Y-117931408D01*
X111742222Y-117607526D01*
X111745351Y-117605572D01*
X115079415Y-115592270D01*
X115083631Y-115589835D01*
X115415046Y-115406977D01*
X115423719Y-115402621D01*
X115766064Y-115247013D01*
X115775086Y-115243327D01*
X116128418Y-115114726D01*
X116137690Y-115111752D01*
X116499951Y-115010910D01*
X116509444Y-115008660D01*
X116878412Y-114936193D01*
X116888029Y-114934688D01*
X117261514Y-114891027D01*
X117271246Y-114890271D01*
X117649219Y-114875594D01*
X117654108Y-114875499D01*
X129366650Y-114875499D01*
X129366654Y-114875500D01*
X129391715Y-114875500D01*
X129489718Y-114875500D01*
X129489720Y-114875500D01*
X129666433Y-114844340D01*
X129666438Y-114844338D01*
X129666439Y-114844338D01*
X129666440Y-114844338D01*
X129835043Y-114782972D01*
X129835045Y-114782970D01*
X129835050Y-114782969D01*
X129990449Y-114693249D01*
X130127908Y-114577908D01*
X130243249Y-114440449D01*
X130332969Y-114285050D01*
X130332972Y-114285043D01*
X130394338Y-114116440D01*
X130394338Y-114116439D01*
X130394338Y-114116438D01*
X130394340Y-114116433D01*
X130425500Y-113939720D01*
X130425500Y-113850000D01*
X130425500Y-113841715D01*
X130425500Y-97703084D01*
X131291500Y-97703084D01*
X131291500Y-97916916D01*
X131317821Y-98083097D01*
X131324952Y-98128121D01*
X131391026Y-98331478D01*
X131391028Y-98331483D01*
X131488106Y-98522009D01*
X131613794Y-98695004D01*
X131613796Y-98695006D01*
X131613798Y-98695009D01*
X131716770Y-98797981D01*
X131750796Y-98860293D01*
X131745731Y-98931108D01*
X131703184Y-98987944D01*
X131671708Y-99005131D01*
X131553797Y-99049110D01*
X131553792Y-99049112D01*
X131436738Y-99136738D01*
X131349112Y-99253792D01*
X131349110Y-99253797D01*
X131298011Y-99390795D01*
X131298009Y-99390803D01*
X131291500Y-99451350D01*
X131291500Y-101248649D01*
X131298009Y-101309196D01*
X131298011Y-101309204D01*
X131349110Y-101446202D01*
X131349112Y-101446207D01*
X131436738Y-101563261D01*
X131553792Y-101650887D01*
X131553794Y-101650888D01*
X131553796Y-101650889D01*
X131612875Y-101672924D01*
X131690795Y-101701988D01*
X131690803Y-101701990D01*
X131751350Y-101708499D01*
X131751355Y-101708499D01*
X131751362Y-101708500D01*
X131751368Y-101708500D01*
X133548632Y-101708500D01*
X133548638Y-101708500D01*
X133548645Y-101708499D01*
X133548649Y-101708499D01*
X133609196Y-101701990D01*
X133609199Y-101701989D01*
X133609201Y-101701989D01*
X133746204Y-101650889D01*
X133793814Y-101615249D01*
X133863261Y-101563261D01*
X133950887Y-101446207D01*
X133950887Y-101446206D01*
X133950889Y-101446204D01*
X134001989Y-101309201D01*
X134008500Y-101248638D01*
X134008500Y-99451362D01*
X134008499Y-99451350D01*
X134001990Y-99390803D01*
X134001988Y-99390795D01*
X133950889Y-99253797D01*
X133950887Y-99253792D01*
X133863261Y-99136738D01*
X133746207Y-99049112D01*
X133746203Y-99049110D01*
X133628291Y-99005131D01*
X133571455Y-98962585D01*
X133546645Y-98896064D01*
X133561737Y-98826690D01*
X133583226Y-98797983D01*
X133686206Y-98695004D01*
X133811894Y-98522009D01*
X133908972Y-98331483D01*
X133975049Y-98128116D01*
X134008500Y-97916916D01*
X134008500Y-97703084D01*
X133975049Y-97491884D01*
X133908972Y-97288517D01*
X133894706Y-97260518D01*
X137741500Y-97260518D01*
X137741500Y-97260521D01*
X137741500Y-97439479D01*
X137776413Y-97615000D01*
X137844898Y-97780336D01*
X137944322Y-97929135D01*
X138070865Y-98055678D01*
X138219664Y-98155102D01*
X138385000Y-98223587D01*
X138560521Y-98258500D01*
X138560522Y-98258500D01*
X138739478Y-98258500D01*
X138739479Y-98258500D01*
X138915000Y-98223587D01*
X139080336Y-98155102D01*
X139229135Y-98055678D01*
X139264408Y-98020405D01*
X139326720Y-97986379D01*
X139353503Y-97983500D01*
X148946497Y-97983500D01*
X149014618Y-98003502D01*
X149035592Y-98020405D01*
X149070865Y-98055678D01*
X149219664Y-98155102D01*
X149385000Y-98223587D01*
X149560521Y-98258500D01*
X149560522Y-98258500D01*
X149739478Y-98258500D01*
X149739479Y-98258500D01*
X149915000Y-98223587D01*
X150080336Y-98155102D01*
X150229135Y-98055678D01*
X150355678Y-97929135D01*
X150455102Y-97780336D01*
X150523587Y-97615000D01*
X150558500Y-97439479D01*
X150558500Y-97260521D01*
X150523587Y-97085000D01*
X150455102Y-96919664D01*
X150355678Y-96770865D01*
X150229135Y-96644322D01*
X150080336Y-96544898D01*
X149935615Y-96484952D01*
X149915003Y-96476414D01*
X149915001Y-96476413D01*
X149915000Y-96476413D01*
X149826645Y-96458838D01*
X149739481Y-96441500D01*
X149739479Y-96441500D01*
X149560521Y-96441500D01*
X149560518Y-96441500D01*
X149429771Y-96467507D01*
X149385000Y-96476413D01*
X149384999Y-96476413D01*
X149384996Y-96476414D01*
X149219662Y-96544899D01*
X149070869Y-96644319D01*
X149070862Y-96644324D01*
X149035592Y-96679595D01*
X148973280Y-96713621D01*
X148946497Y-96716500D01*
X139353503Y-96716500D01*
X139285382Y-96696498D01*
X139264408Y-96679595D01*
X139229137Y-96644324D01*
X139229135Y-96644322D01*
X139080336Y-96544898D01*
X138935615Y-96484952D01*
X138915003Y-96476414D01*
X138915001Y-96476413D01*
X138915000Y-96476413D01*
X138826645Y-96458838D01*
X138739481Y-96441500D01*
X138739479Y-96441500D01*
X138560521Y-96441500D01*
X138560518Y-96441500D01*
X138429771Y-96467507D01*
X138385000Y-96476413D01*
X138384999Y-96476413D01*
X138384996Y-96476414D01*
X138219662Y-96544899D01*
X138070869Y-96644319D01*
X138070862Y-96644324D01*
X137944324Y-96770862D01*
X137944319Y-96770869D01*
X137848286Y-96914594D01*
X137844898Y-96919664D01*
X137836310Y-96940398D01*
X137776414Y-97084996D01*
X137741500Y-97260518D01*
X133894706Y-97260518D01*
X133811894Y-97097991D01*
X133686206Y-96924996D01*
X133686203Y-96924993D01*
X133686201Y-96924990D01*
X133535009Y-96773798D01*
X133535006Y-96773796D01*
X133535004Y-96773794D01*
X133362009Y-96648106D01*
X133171483Y-96551028D01*
X133171480Y-96551027D01*
X133171478Y-96551026D01*
X132968120Y-96484952D01*
X132968123Y-96484952D01*
X132914216Y-96476414D01*
X132756916Y-96451500D01*
X132543084Y-96451500D01*
X132331884Y-96484951D01*
X132331878Y-96484952D01*
X132128521Y-96551026D01*
X132128515Y-96551029D01*
X131937987Y-96648108D01*
X131764993Y-96773796D01*
X131764990Y-96773798D01*
X131613798Y-96924990D01*
X131613796Y-96924993D01*
X131488108Y-97097987D01*
X131391029Y-97288515D01*
X131391026Y-97288521D01*
X131324952Y-97491878D01*
X131324951Y-97491883D01*
X131324951Y-97491884D01*
X131291500Y-97703084D01*
X130425500Y-97703084D01*
X130425500Y-89473597D01*
X144642000Y-89473597D01*
X144648505Y-89534093D01*
X144699555Y-89670964D01*
X144699555Y-89670965D01*
X144787095Y-89787904D01*
X144904034Y-89875444D01*
X145040906Y-89926494D01*
X145101402Y-89932999D01*
X145101415Y-89933000D01*
X145396000Y-89933000D01*
X145904000Y-89933000D01*
X146198585Y-89933000D01*
X146198597Y-89932999D01*
X146259093Y-89926494D01*
X146395964Y-89875444D01*
X146395965Y-89875444D01*
X146512904Y-89787904D01*
X146600444Y-89670965D01*
X146600444Y-89670964D01*
X146651494Y-89534093D01*
X146657999Y-89473597D01*
X146658000Y-89473585D01*
X146658000Y-88279000D01*
X145904000Y-88279000D01*
X145904000Y-89933000D01*
X145396000Y-89933000D01*
X145396000Y-88279000D01*
X144642000Y-88279000D01*
X144642000Y-89473597D01*
X130425500Y-89473597D01*
X130425500Y-89339438D01*
X130425500Y-89260280D01*
X130394340Y-89083567D01*
X130394338Y-89083562D01*
X130394338Y-89083560D01*
X130394338Y-89083559D01*
X130332972Y-88914956D01*
X130332966Y-88914945D01*
X130243251Y-88759553D01*
X130243249Y-88759551D01*
X130168174Y-88670080D01*
X130127908Y-88622092D01*
X129990449Y-88506751D01*
X129990448Y-88506750D01*
X129990446Y-88506748D01*
X129835054Y-88417033D01*
X129835043Y-88417027D01*
X129666440Y-88355662D01*
X129666437Y-88355661D01*
X129666433Y-88355660D01*
X129639405Y-88350894D01*
X129600774Y-88344082D01*
X129489720Y-88324500D01*
X129489718Y-88324500D01*
X117654282Y-88324500D01*
X117649397Y-88324405D01*
X117624180Y-88323426D01*
X117271246Y-88309728D01*
X117261505Y-88308971D01*
X116888045Y-88265319D01*
X116878391Y-88263809D01*
X116509445Y-88191350D01*
X116499938Y-88189097D01*
X116137711Y-88088266D01*
X116128407Y-88085283D01*
X115775077Y-87956686D01*
X115766031Y-87952990D01*
X115521610Y-87841891D01*
X115423743Y-87797406D01*
X115415015Y-87793023D01*
X115083993Y-87610381D01*
X115079731Y-87607920D01*
X115008661Y-87565004D01*
X111745602Y-85594577D01*
X111742375Y-85592562D01*
X111240789Y-85268597D01*
X111234520Y-85264274D01*
X110754965Y-84911737D01*
X110748969Y-84907043D01*
X110391732Y-84609574D01*
X110291593Y-84526189D01*
X110285899Y-84521149D01*
X110201221Y-84441500D01*
X110007731Y-84259500D01*
X109852350Y-84113346D01*
X109846964Y-84107964D01*
X109830443Y-84090426D01*
X109438848Y-83674724D01*
X109433813Y-83669044D01*
X109052611Y-83211941D01*
X109047913Y-83205948D01*
X108793180Y-82859973D01*
X108695023Y-82726657D01*
X108690701Y-82720400D01*
X108367398Y-82220651D01*
X108363481Y-82214176D01*
X108070943Y-81695788D01*
X108067417Y-81689072D01*
X107806743Y-81153989D01*
X107803628Y-81147073D01*
X107575743Y-80597197D01*
X107573045Y-80590084D01*
X107543254Y-80503796D01*
X107378807Y-80027492D01*
X107376544Y-80020232D01*
X107368178Y-79990235D01*
X107216636Y-79446894D01*
X107214825Y-79439549D01*
X107089836Y-78857576D01*
X107088474Y-78850146D01*
X106998870Y-78261688D01*
X106997957Y-78254175D01*
X106944065Y-77661386D01*
X106943608Y-77653842D01*
X106931488Y-77252904D01*
X106925559Y-77056764D01*
X106925501Y-77052961D01*
X106925500Y-77021745D01*
X106925500Y-75420000D01*
X108064190Y-75420000D01*
X108084999Y-75564734D01*
X108145742Y-75697743D01*
X108183962Y-75745172D01*
X108183967Y-75745177D01*
X108183976Y-75745187D01*
X109454812Y-77016023D01*
X109454821Y-77016031D01*
X109454828Y-77016038D01*
X109502257Y-77054258D01*
X109635266Y-77115001D01*
X109780000Y-77135810D01*
X109924734Y-77115001D01*
X110039210Y-77062721D01*
X110109482Y-77052617D01*
X110174063Y-77082110D01*
X110212447Y-77141836D01*
X110217551Y-77177335D01*
X110217551Y-77322967D01*
X110250976Y-77534003D01*
X110251003Y-77534172D01*
X110310082Y-77716000D01*
X110317079Y-77737534D01*
X110414157Y-77928060D01*
X110539845Y-78101055D01*
X110539847Y-78101057D01*
X110539849Y-78101060D01*
X110691041Y-78252252D01*
X110691044Y-78252254D01*
X110691047Y-78252257D01*
X110864042Y-78377945D01*
X111054568Y-78475023D01*
X111257929Y-78541098D01*
X111257930Y-78541098D01*
X111257935Y-78541100D01*
X111469135Y-78574551D01*
X111469138Y-78574551D01*
X111682964Y-78574551D01*
X111682967Y-78574551D01*
X111894167Y-78541100D01*
X111894187Y-78541093D01*
X111895417Y-78540799D01*
X111895908Y-78540823D01*
X111899056Y-78540325D01*
X111899160Y-78540986D01*
X111966325Y-78544344D01*
X112024060Y-78585662D01*
X112050292Y-78651635D01*
X112047618Y-78689063D01*
X112047828Y-78689097D01*
X112047442Y-78691533D01*
X112047358Y-78692711D01*
X112047056Y-78693967D01*
X112047053Y-78693986D01*
X112013602Y-78905186D01*
X112013602Y-79119018D01*
X112047053Y-79330218D01*
X112047054Y-79330223D01*
X112113128Y-79533580D01*
X112113130Y-79533585D01*
X112210208Y-79724111D01*
X112335896Y-79897106D01*
X112335898Y-79897108D01*
X112335900Y-79897111D01*
X112487092Y-80048303D01*
X112487095Y-80048305D01*
X112487098Y-80048308D01*
X112660093Y-80173996D01*
X112850619Y-80271074D01*
X113053980Y-80337149D01*
X113053981Y-80337149D01*
X113053986Y-80337151D01*
X113265186Y-80370602D01*
X113265189Y-80370602D01*
X113479015Y-80370602D01*
X113479018Y-80370602D01*
X113690218Y-80337151D01*
X113690235Y-80337145D01*
X113691474Y-80336849D01*
X113691965Y-80336873D01*
X113695107Y-80336376D01*
X113695211Y-80337036D01*
X113762382Y-80340397D01*
X113820115Y-80381716D01*
X113846345Y-80447690D01*
X113843671Y-80485115D01*
X113843880Y-80485149D01*
X113843495Y-80487577D01*
X113843411Y-80488758D01*
X113843108Y-80490017D01*
X113840926Y-80503796D01*
X113809654Y-80701238D01*
X113809654Y-80915070D01*
X113832307Y-81058094D01*
X113843106Y-81126275D01*
X113890986Y-81273636D01*
X113909182Y-81329637D01*
X114006260Y-81520163D01*
X114131948Y-81693158D01*
X114131950Y-81693160D01*
X114131952Y-81693163D01*
X114283144Y-81844355D01*
X114283147Y-81844357D01*
X114283150Y-81844360D01*
X114456145Y-81970048D01*
X114646671Y-82067126D01*
X114850032Y-82133201D01*
X114850033Y-82133201D01*
X114850038Y-82133203D01*
X115061238Y-82166654D01*
X115061241Y-82166654D01*
X115275067Y-82166654D01*
X115275070Y-82166654D01*
X115486270Y-82133203D01*
X115689637Y-82067126D01*
X115880163Y-81970048D01*
X116053158Y-81844360D01*
X116204360Y-81693158D01*
X116330048Y-81520163D01*
X116427126Y-81329637D01*
X116493203Y-81126270D01*
X116526654Y-80915070D01*
X116526654Y-80701238D01*
X116493203Y-80490038D01*
X116427126Y-80286671D01*
X116365998Y-80166702D01*
X116352895Y-80096926D01*
X116379595Y-80031141D01*
X116437623Y-79990235D01*
X116478266Y-79983500D01*
X123585406Y-79983500D01*
X123653527Y-80003502D01*
X123674501Y-80020405D01*
X129323593Y-85669497D01*
X129357619Y-85731809D01*
X129352554Y-85802624D01*
X129336434Y-85832653D01*
X129238108Y-85967987D01*
X129141029Y-86158515D01*
X129141026Y-86158521D01*
X129074952Y-86361878D01*
X129074951Y-86361883D01*
X129074951Y-86361884D01*
X129041500Y-86573084D01*
X129041500Y-86786916D01*
X129068469Y-86957189D01*
X129074952Y-86998121D01*
X129109586Y-87104714D01*
X129141028Y-87201483D01*
X129238106Y-87392009D01*
X129363794Y-87565004D01*
X129363796Y-87565006D01*
X129363798Y-87565009D01*
X129514990Y-87716201D01*
X129514993Y-87716203D01*
X129514996Y-87716206D01*
X129687991Y-87841894D01*
X129878517Y-87938972D01*
X130081878Y-88005047D01*
X130081879Y-88005047D01*
X130081884Y-88005049D01*
X130293084Y-88038500D01*
X130293087Y-88038500D01*
X130506913Y-88038500D01*
X130506916Y-88038500D01*
X130718116Y-88005049D01*
X130921483Y-87938972D01*
X131112009Y-87841894D01*
X131285004Y-87716206D01*
X131436206Y-87565004D01*
X131561894Y-87392009D01*
X131658972Y-87201483D01*
X131725049Y-86998116D01*
X131758500Y-86786916D01*
X131758500Y-86576402D01*
X144642000Y-86576402D01*
X144642000Y-87771000D01*
X145396000Y-87771000D01*
X145904000Y-87771000D01*
X146658000Y-87771000D01*
X146658000Y-86576414D01*
X146657999Y-86576402D01*
X146651494Y-86515906D01*
X146600444Y-86379035D01*
X146600444Y-86379034D01*
X146512904Y-86262095D01*
X146395965Y-86174555D01*
X146259093Y-86123505D01*
X146198597Y-86117000D01*
X145904000Y-86117000D01*
X145904000Y-87771000D01*
X145396000Y-87771000D01*
X145396000Y-86117000D01*
X145101402Y-86117000D01*
X145040906Y-86123505D01*
X144904035Y-86174555D01*
X144904034Y-86174555D01*
X144787095Y-86262095D01*
X144699555Y-86379034D01*
X144699555Y-86379035D01*
X144648505Y-86515906D01*
X144642000Y-86576402D01*
X131758500Y-86576402D01*
X131758500Y-86573084D01*
X131725049Y-86361884D01*
X131658972Y-86158517D01*
X131658970Y-86158513D01*
X131658637Y-86157708D01*
X131658601Y-86157377D01*
X131657442Y-86153809D01*
X131658191Y-86153565D01*
X131651054Y-86087117D01*
X131682839Y-86023633D01*
X131743900Y-85987411D01*
X131775050Y-85983500D01*
X135196497Y-85983500D01*
X135264618Y-86003502D01*
X135285592Y-86020405D01*
X135320865Y-86055678D01*
X135469664Y-86155102D01*
X135635000Y-86223587D01*
X135810521Y-86258500D01*
X135810522Y-86258500D01*
X135989478Y-86258500D01*
X135989479Y-86258500D01*
X136165000Y-86223587D01*
X136330336Y-86155102D01*
X136479135Y-86055678D01*
X136605678Y-85929135D01*
X136705102Y-85780336D01*
X136773587Y-85615000D01*
X136808500Y-85439479D01*
X136808500Y-85260521D01*
X136773587Y-85085000D01*
X136705102Y-84919664D01*
X136605678Y-84770865D01*
X136479135Y-84644322D01*
X136330336Y-84544898D01*
X136213429Y-84496473D01*
X136165003Y-84476414D01*
X136165001Y-84476413D01*
X136165000Y-84476413D01*
X136073014Y-84458116D01*
X135989481Y-84441500D01*
X135989479Y-84441500D01*
X135810521Y-84441500D01*
X135810518Y-84441500D01*
X135679771Y-84467507D01*
X135635000Y-84476413D01*
X135634999Y-84476413D01*
X135634996Y-84476414D01*
X135469662Y-84544899D01*
X135320869Y-84644319D01*
X135320862Y-84644324D01*
X135285592Y-84679595D01*
X135223280Y-84713621D01*
X135196497Y-84716500D01*
X131814519Y-84716500D01*
X131746398Y-84696498D01*
X131699905Y-84642842D01*
X131689801Y-84572568D01*
X131694686Y-84551564D01*
X131696852Y-84544898D01*
X131725049Y-84458116D01*
X131758500Y-84246916D01*
X131758500Y-84033084D01*
X131725049Y-83821884D01*
X131658972Y-83618517D01*
X131645819Y-83592702D01*
X131632715Y-83522925D01*
X131659416Y-83457140D01*
X131717444Y-83416235D01*
X131758086Y-83409500D01*
X134707505Y-83409500D01*
X134775626Y-83429502D01*
X134796600Y-83446405D01*
X134826369Y-83476174D01*
X134975168Y-83575598D01*
X135140504Y-83644083D01*
X135316025Y-83678996D01*
X135316026Y-83678996D01*
X135494982Y-83678996D01*
X135494983Y-83678996D01*
X135522126Y-83673597D01*
X144642000Y-83673597D01*
X144648505Y-83734093D01*
X144699555Y-83870964D01*
X144699555Y-83870965D01*
X144787095Y-83987904D01*
X144904034Y-84075444D01*
X145040906Y-84126494D01*
X145101402Y-84132999D01*
X145101415Y-84133000D01*
X145396000Y-84133000D01*
X145904000Y-84133000D01*
X146198585Y-84133000D01*
X146198597Y-84132999D01*
X146259093Y-84126494D01*
X146395964Y-84075444D01*
X146395965Y-84075444D01*
X146512904Y-83987904D01*
X146600444Y-83870965D01*
X146600444Y-83870964D01*
X146651494Y-83734093D01*
X146657999Y-83673597D01*
X146658000Y-83673585D01*
X146658000Y-82479000D01*
X145904000Y-82479000D01*
X145904000Y-84133000D01*
X145396000Y-84133000D01*
X145396000Y-82479000D01*
X144642000Y-82479000D01*
X144642000Y-83673597D01*
X135522126Y-83673597D01*
X135670504Y-83644083D01*
X135835840Y-83575598D01*
X135984639Y-83476174D01*
X136111182Y-83349631D01*
X136210606Y-83200832D01*
X136279091Y-83035496D01*
X136314004Y-82859975D01*
X136314004Y-82681017D01*
X136279091Y-82505496D01*
X136278138Y-82503195D01*
X136266471Y-82475027D01*
X136266471Y-82475026D01*
X136238591Y-82407719D01*
X136231001Y-82337129D01*
X136262780Y-82273642D01*
X136323837Y-82237414D01*
X136354999Y-82233500D01*
X142962393Y-82233500D01*
X142962394Y-82233500D01*
X143084785Y-82209155D01*
X143200075Y-82161400D01*
X143303833Y-82092071D01*
X144426906Y-80968998D01*
X144489217Y-80934973D01*
X144560032Y-80940038D01*
X144616868Y-80982585D01*
X144641679Y-81049105D01*
X144642000Y-81058094D01*
X144642000Y-81971000D01*
X146658000Y-81971000D01*
X146658000Y-80776414D01*
X146657999Y-80776402D01*
X146651494Y-80715907D01*
X146628230Y-80653533D01*
X146623165Y-80582717D01*
X146657190Y-80520405D01*
X146719502Y-80486380D01*
X146746286Y-80483500D01*
X148553180Y-80483500D01*
X148621301Y-80503502D01*
X148667794Y-80557158D01*
X148677898Y-80627432D01*
X148671235Y-80653533D01*
X148648011Y-80715795D01*
X148648009Y-80715803D01*
X148641500Y-80776350D01*
X148641500Y-83673649D01*
X148648009Y-83734196D01*
X148648011Y-83734204D01*
X148699109Y-83871201D01*
X148699110Y-83871202D01*
X148699111Y-83871204D01*
X148738995Y-83924482D01*
X148741368Y-83927652D01*
X148766179Y-83994172D01*
X148766500Y-84003161D01*
X148766500Y-86246838D01*
X148746498Y-86314959D01*
X148741368Y-86322347D01*
X148699112Y-86378792D01*
X148699110Y-86378797D01*
X148648011Y-86515795D01*
X148648009Y-86515803D01*
X148641500Y-86576350D01*
X148641500Y-89473649D01*
X148648009Y-89534196D01*
X148648011Y-89534204D01*
X148699109Y-89671201D01*
X148699110Y-89671202D01*
X148699111Y-89671204D01*
X148713480Y-89690398D01*
X148741368Y-89727652D01*
X148749231Y-89748735D01*
X148761396Y-89767663D01*
X148764598Y-89789933D01*
X148766179Y-89794172D01*
X148766500Y-89803161D01*
X148766500Y-89872426D01*
X148764079Y-89897007D01*
X148741500Y-90010515D01*
X148741500Y-90189481D01*
X148776414Y-90365003D01*
X148787024Y-90390618D01*
X148844898Y-90530336D01*
X148944322Y-90679135D01*
X149070865Y-90805678D01*
X149219664Y-90905102D01*
X149219666Y-90905103D01*
X149260638Y-90922074D01*
X149286597Y-90942992D01*
X149313288Y-90962972D01*
X149314103Y-90965158D01*
X149315920Y-90966622D01*
X149326449Y-90998257D01*
X149338100Y-91029492D01*
X149337604Y-91031771D01*
X149338341Y-91033985D01*
X149330097Y-91066283D01*
X149323010Y-91098866D01*
X149321145Y-91101357D01*
X149320783Y-91102776D01*
X149301518Y-91127577D01*
X149274502Y-91154594D01*
X149212191Y-91188620D01*
X149185405Y-91191500D01*
X146172006Y-91191500D01*
X146103885Y-91171498D01*
X146082911Y-91154595D01*
X146074111Y-91145795D01*
X146040085Y-91083483D01*
X146037206Y-91056700D01*
X146037206Y-91006816D01*
X146037205Y-91006812D01*
X146002293Y-90831294D01*
X145933808Y-90665958D01*
X145834384Y-90517159D01*
X145707841Y-90390616D01*
X145559042Y-90291192D01*
X145421269Y-90234124D01*
X145393709Y-90222708D01*
X145393707Y-90222707D01*
X145393706Y-90222707D01*
X145305351Y-90205132D01*
X145218187Y-90187794D01*
X145218185Y-90187794D01*
X145039227Y-90187794D01*
X145039224Y-90187794D01*
X144908477Y-90213801D01*
X144863706Y-90222707D01*
X144863705Y-90222707D01*
X144863702Y-90222708D01*
X144698368Y-90291193D01*
X144549575Y-90390613D01*
X144549568Y-90390618D01*
X144423030Y-90517156D01*
X144423025Y-90517163D01*
X144323603Y-90665958D01*
X144323602Y-90665960D01*
X144314177Y-90688717D01*
X144269630Y-90743998D01*
X144202267Y-90766420D01*
X144197768Y-90766500D01*
X143608802Y-90766500D01*
X143535767Y-90781028D01*
X143486414Y-90790845D01*
X143486412Y-90790845D01*
X143486411Y-90790846D01*
X143450611Y-90805675D01*
X143384410Y-90833097D01*
X143371122Y-90838601D01*
X143267370Y-90907926D01*
X143267363Y-90907931D01*
X142245700Y-91929595D01*
X142183388Y-91963621D01*
X142156605Y-91966500D01*
X134757488Y-91966500D01*
X134689367Y-91946498D01*
X134668393Y-91929596D01*
X134630723Y-91891926D01*
X134556127Y-91817330D01*
X134407328Y-91717906D01*
X134290421Y-91669481D01*
X134241995Y-91649422D01*
X134241993Y-91649421D01*
X134241992Y-91649421D01*
X134153637Y-91631846D01*
X134066473Y-91614508D01*
X134066471Y-91614508D01*
X133887513Y-91614508D01*
X133887510Y-91614508D01*
X133756763Y-91640515D01*
X133711992Y-91649421D01*
X133711991Y-91649421D01*
X133711988Y-91649422D01*
X133546654Y-91717907D01*
X133397861Y-91817327D01*
X133397854Y-91817332D01*
X133271316Y-91943870D01*
X133271311Y-91943877D01*
X133171891Y-92092670D01*
X133103406Y-92258004D01*
X133068492Y-92433526D01*
X133068492Y-92612489D01*
X133080865Y-92674690D01*
X133103370Y-92787833D01*
X133103406Y-92788011D01*
X133123465Y-92836437D01*
X133171890Y-92953344D01*
X133271314Y-93102143D01*
X133397857Y-93228686D01*
X133546656Y-93328110D01*
X133711992Y-93396595D01*
X133887513Y-93431508D01*
X133887514Y-93431508D01*
X134066470Y-93431508D01*
X134066471Y-93431508D01*
X134241992Y-93396595D01*
X134319070Y-93364667D01*
X134389659Y-93357078D01*
X134453146Y-93388856D01*
X134489375Y-93449914D01*
X134487122Y-93520012D01*
X134443721Y-93653587D01*
X134443720Y-93653590D01*
X134443720Y-93653592D01*
X134411500Y-93857019D01*
X134411500Y-94062981D01*
X134443720Y-94266408D01*
X134443721Y-94266412D01*
X134454255Y-94298833D01*
X134507366Y-94462290D01*
X134600871Y-94645803D01*
X134721932Y-94812430D01*
X134721934Y-94812432D01*
X134721936Y-94812435D01*
X134867564Y-94958063D01*
X134867567Y-94958065D01*
X134867570Y-94958068D01*
X135034197Y-95079129D01*
X135217710Y-95172634D01*
X135413592Y-95236280D01*
X135617019Y-95268500D01*
X135617022Y-95268500D01*
X135822978Y-95268500D01*
X135822981Y-95268500D01*
X136026408Y-95236280D01*
X136222290Y-95172634D01*
X136405803Y-95079129D01*
X136572430Y-94958068D01*
X136718068Y-94812430D01*
X136839129Y-94645803D01*
X136877734Y-94570034D01*
X136926481Y-94518422D01*
X136995396Y-94501356D01*
X137062598Y-94524257D01*
X137102264Y-94570034D01*
X137140871Y-94645803D01*
X137261932Y-94812430D01*
X137261934Y-94812432D01*
X137261936Y-94812435D01*
X137407564Y-94958063D01*
X137407567Y-94958065D01*
X137407570Y-94958068D01*
X137574197Y-95079129D01*
X137757710Y-95172634D01*
X137953592Y-95236280D01*
X138157019Y-95268500D01*
X138157022Y-95268500D01*
X138362978Y-95268500D01*
X138362981Y-95268500D01*
X138566408Y-95236280D01*
X138762290Y-95172634D01*
X138945803Y-95079129D01*
X139112430Y-94958068D01*
X139258068Y-94812430D01*
X139379129Y-94645803D01*
X139417734Y-94570034D01*
X139466481Y-94518422D01*
X139535396Y-94501356D01*
X139602598Y-94524257D01*
X139642264Y-94570034D01*
X139680871Y-94645803D01*
X139801932Y-94812430D01*
X139801934Y-94812432D01*
X139801936Y-94812435D01*
X139947564Y-94958063D01*
X139947567Y-94958065D01*
X139947570Y-94958068D01*
X140114197Y-95079129D01*
X140297710Y-95172634D01*
X140493592Y-95236280D01*
X140697019Y-95268500D01*
X140697022Y-95268500D01*
X140902978Y-95268500D01*
X140902981Y-95268500D01*
X141106408Y-95236280D01*
X141302290Y-95172634D01*
X141485803Y-95079129D01*
X141652430Y-94958068D01*
X141798068Y-94812430D01*
X141919129Y-94645803D01*
X141957734Y-94570034D01*
X142006481Y-94518422D01*
X142075396Y-94501356D01*
X142142598Y-94524257D01*
X142182264Y-94570034D01*
X142220871Y-94645803D01*
X142341932Y-94812430D01*
X142341934Y-94812432D01*
X142341936Y-94812435D01*
X142487564Y-94958063D01*
X142487567Y-94958065D01*
X142487570Y-94958068D01*
X142654197Y-95079129D01*
X142837710Y-95172634D01*
X143033592Y-95236280D01*
X143237019Y-95268500D01*
X143237022Y-95268500D01*
X143442978Y-95268500D01*
X143442981Y-95268500D01*
X143646408Y-95236280D01*
X143842290Y-95172634D01*
X144025803Y-95079129D01*
X144192430Y-94958068D01*
X144338068Y-94812430D01*
X144459129Y-94645803D01*
X144497734Y-94570034D01*
X144546481Y-94518422D01*
X144615396Y-94501356D01*
X144682598Y-94524257D01*
X144722264Y-94570034D01*
X144760871Y-94645803D01*
X144881932Y-94812430D01*
X144881934Y-94812432D01*
X144881936Y-94812435D01*
X145027564Y-94958063D01*
X145027567Y-94958065D01*
X145027570Y-94958068D01*
X145194197Y-95079129D01*
X145377710Y-95172634D01*
X145573592Y-95236280D01*
X145777019Y-95268500D01*
X145777022Y-95268500D01*
X145982978Y-95268500D01*
X145982981Y-95268500D01*
X146186408Y-95236280D01*
X146382290Y-95172634D01*
X146565803Y-95079129D01*
X146732430Y-94958068D01*
X146878068Y-94812430D01*
X146999129Y-94645803D01*
X147037734Y-94570034D01*
X147086481Y-94518422D01*
X147155396Y-94501356D01*
X147222598Y-94524257D01*
X147262264Y-94570034D01*
X147300871Y-94645803D01*
X147421932Y-94812430D01*
X147421934Y-94812432D01*
X147421936Y-94812435D01*
X147567564Y-94958063D01*
X147567567Y-94958065D01*
X147567570Y-94958068D01*
X147734197Y-95079129D01*
X147917710Y-95172634D01*
X148113592Y-95236280D01*
X148317019Y-95268500D01*
X148317022Y-95268500D01*
X148522978Y-95268500D01*
X148522981Y-95268500D01*
X148726408Y-95236280D01*
X148922290Y-95172634D01*
X149105803Y-95079129D01*
X149272430Y-94958068D01*
X149418068Y-94812430D01*
X149539129Y-94645803D01*
X149577734Y-94570034D01*
X149626481Y-94518422D01*
X149695396Y-94501356D01*
X149762598Y-94524257D01*
X149802264Y-94570034D01*
X149840871Y-94645803D01*
X149961932Y-94812430D01*
X149961934Y-94812432D01*
X149961936Y-94812435D01*
X150107564Y-94958063D01*
X150107567Y-94958065D01*
X150107570Y-94958068D01*
X150274197Y-95079129D01*
X150457710Y-95172634D01*
X150653592Y-95236280D01*
X150857019Y-95268500D01*
X150857022Y-95268500D01*
X151062978Y-95268500D01*
X151062981Y-95268500D01*
X151266408Y-95236280D01*
X151462290Y-95172634D01*
X151645803Y-95079129D01*
X151812430Y-94958068D01*
X151958068Y-94812430D01*
X152079129Y-94645803D01*
X152117734Y-94570034D01*
X152166481Y-94518422D01*
X152235396Y-94501356D01*
X152302598Y-94524257D01*
X152342264Y-94570034D01*
X152380871Y-94645803D01*
X152501932Y-94812430D01*
X152501934Y-94812432D01*
X152501936Y-94812435D01*
X152647564Y-94958063D01*
X152647567Y-94958065D01*
X152647570Y-94958068D01*
X152814197Y-95079129D01*
X152997710Y-95172634D01*
X153129540Y-95215468D01*
X153188146Y-95255542D01*
X153215783Y-95320938D01*
X153203676Y-95390895D01*
X153179700Y-95424396D01*
X152496167Y-96107929D01*
X152407931Y-96196164D01*
X152407929Y-96196167D01*
X152338600Y-96299925D01*
X152290845Y-96415215D01*
X152282105Y-96459153D01*
X152266500Y-96537603D01*
X152266500Y-99535406D01*
X152246498Y-99603527D01*
X152229595Y-99624501D01*
X151947509Y-99906587D01*
X151885197Y-99940613D01*
X151858414Y-99943492D01*
X150860608Y-99943492D01*
X150738225Y-99967836D01*
X150738217Y-99967838D01*
X150704455Y-99981822D01*
X150704455Y-99981823D01*
X150631612Y-100011996D01*
X150622933Y-100015591D01*
X150519175Y-100084919D01*
X150519169Y-100084924D01*
X147924501Y-102679595D01*
X147862189Y-102713620D01*
X147835406Y-102716500D01*
X133923569Y-102716500D01*
X133855448Y-102696498D01*
X133834474Y-102679596D01*
X133791725Y-102636847D01*
X133729135Y-102574257D01*
X133580336Y-102474833D01*
X133463429Y-102426408D01*
X133415003Y-102406349D01*
X133415001Y-102406348D01*
X133415000Y-102406348D01*
X133326645Y-102388773D01*
X133239481Y-102371435D01*
X133239479Y-102371435D01*
X133060521Y-102371435D01*
X133060518Y-102371435D01*
X132929771Y-102397442D01*
X132885000Y-102406348D01*
X132884999Y-102406348D01*
X132884996Y-102406349D01*
X132719662Y-102474834D01*
X132570869Y-102574254D01*
X132570862Y-102574259D01*
X132444324Y-102700797D01*
X132444319Y-102700804D01*
X132344899Y-102849597D01*
X132276414Y-103014931D01*
X132241500Y-103190453D01*
X132241500Y-103369416D01*
X132258838Y-103456580D01*
X132276413Y-103544935D01*
X132344898Y-103710271D01*
X132444322Y-103859070D01*
X132570865Y-103985613D01*
X132643021Y-104033826D01*
X132719662Y-104085036D01*
X132719663Y-104085036D01*
X132719664Y-104085037D01*
X132758888Y-104101284D01*
X132814168Y-104145829D01*
X132836590Y-104213192D01*
X132836670Y-104217692D01*
X132836670Y-104234447D01*
X132854008Y-104321611D01*
X132871583Y-104409966D01*
X132940068Y-104575302D01*
X133039492Y-104724101D01*
X133166035Y-104850644D01*
X133178667Y-104859084D01*
X133224195Y-104913559D01*
X133233044Y-104984002D01*
X133232245Y-104988431D01*
X133216500Y-105067585D01*
X133216500Y-105067591D01*
X133216500Y-105246549D01*
X133251413Y-105422070D01*
X133319898Y-105587406D01*
X133419322Y-105736205D01*
X133545865Y-105862748D01*
X133694664Y-105962172D01*
X133860000Y-106030657D01*
X134035521Y-106065570D01*
X134035522Y-106065570D01*
X134214478Y-106065570D01*
X134214479Y-106065570D01*
X134390000Y-106030657D01*
X134555336Y-105962172D01*
X134704135Y-105862748D01*
X134830678Y-105736205D01*
X134930102Y-105587406D01*
X134940924Y-105561279D01*
X134985472Y-105506001D01*
X135052835Y-105483580D01*
X135057332Y-105483500D01*
X135655722Y-105483500D01*
X135664547Y-105486091D01*
X135673654Y-105484782D01*
X135698079Y-105495937D01*
X135723843Y-105503502D01*
X135729867Y-105510455D01*
X135738234Y-105514276D01*
X135752748Y-105536861D01*
X135770336Y-105557158D01*
X135772660Y-105567844D01*
X135776618Y-105574002D01*
X135781722Y-105609500D01*
X135781722Y-105686205D01*
X135761720Y-105754326D01*
X135723552Y-105789574D01*
X135724811Y-105791459D01*
X135570869Y-105894319D01*
X135570862Y-105894324D01*
X135444324Y-106020862D01*
X135444319Y-106020869D01*
X135344899Y-106169662D01*
X135276414Y-106334996D01*
X135241500Y-106510518D01*
X135241500Y-106689481D01*
X135249044Y-106727405D01*
X135276413Y-106865000D01*
X135344898Y-107030336D01*
X135444322Y-107179135D01*
X135570865Y-107305678D01*
X135719664Y-107405102D01*
X135885000Y-107473587D01*
X135929783Y-107482494D01*
X135992692Y-107515401D01*
X135994297Y-107516978D01*
X136210242Y-107732923D01*
X136244268Y-107795235D01*
X136239203Y-107866050D01*
X136196656Y-107922886D01*
X136130136Y-107947697D01*
X136082211Y-107941851D01*
X136026412Y-107923721D01*
X136026410Y-107923720D01*
X136026408Y-107923720D01*
X135822981Y-107891500D01*
X135617019Y-107891500D01*
X135413592Y-107923720D01*
X135413590Y-107923720D01*
X135413587Y-107923721D01*
X135217714Y-107987364D01*
X135217708Y-107987367D01*
X135034193Y-108080873D01*
X134867567Y-108201934D01*
X134867564Y-108201936D01*
X134721936Y-108347564D01*
X134721934Y-108347567D01*
X134600873Y-108514193D01*
X134507367Y-108697708D01*
X134507364Y-108697714D01*
X134443721Y-108893587D01*
X134443720Y-108893590D01*
X134443720Y-108893592D01*
X134411500Y-109097019D01*
X134411500Y-109302981D01*
X134443720Y-109506408D01*
X134443721Y-109506412D01*
X134449999Y-109525735D01*
X134507366Y-109702290D01*
X134600871Y-109885803D01*
X134721932Y-110052430D01*
X134721934Y-110052432D01*
X134721936Y-110052435D01*
X134867564Y-110198063D01*
X134867567Y-110198065D01*
X134867570Y-110198068D01*
X135034197Y-110319129D01*
X135217710Y-110412634D01*
X135413592Y-110476280D01*
X135617019Y-110508500D01*
X135617022Y-110508500D01*
X135822978Y-110508500D01*
X135822981Y-110508500D01*
X136026408Y-110476280D01*
X136222290Y-110412634D01*
X136405803Y-110319129D01*
X136572430Y-110198068D01*
X136718068Y-110052430D01*
X136839129Y-109885803D01*
X136877734Y-109810034D01*
X136926481Y-109758422D01*
X136995396Y-109741356D01*
X137062598Y-109764257D01*
X137102264Y-109810034D01*
X137140871Y-109885803D01*
X137261932Y-110052430D01*
X137261934Y-110052432D01*
X137261936Y-110052435D01*
X137407564Y-110198063D01*
X137407567Y-110198065D01*
X137407570Y-110198068D01*
X137574197Y-110319129D01*
X137757710Y-110412634D01*
X137953592Y-110476280D01*
X138157019Y-110508500D01*
X138157022Y-110508500D01*
X138362978Y-110508500D01*
X138362981Y-110508500D01*
X138566408Y-110476280D01*
X138762290Y-110412634D01*
X138945803Y-110319129D01*
X139112430Y-110198068D01*
X139258068Y-110052430D01*
X139379129Y-109885803D01*
X139417734Y-109810034D01*
X139466481Y-109758422D01*
X139535396Y-109741356D01*
X139602598Y-109764257D01*
X139642264Y-109810034D01*
X139680871Y-109885803D01*
X139801932Y-110052430D01*
X139801934Y-110052432D01*
X139801936Y-110052435D01*
X139947564Y-110198063D01*
X139947567Y-110198065D01*
X139947570Y-110198068D01*
X140114197Y-110319129D01*
X140297710Y-110412634D01*
X140493592Y-110476280D01*
X140697019Y-110508500D01*
X140697022Y-110508500D01*
X140902978Y-110508500D01*
X140902981Y-110508500D01*
X141106408Y-110476280D01*
X141302290Y-110412634D01*
X141485803Y-110319129D01*
X141652430Y-110198068D01*
X141798068Y-110052430D01*
X141919129Y-109885803D01*
X141957734Y-109810034D01*
X142006481Y-109758422D01*
X142075396Y-109741356D01*
X142142598Y-109764257D01*
X142182264Y-109810034D01*
X142220871Y-109885803D01*
X142341932Y-110052430D01*
X142341934Y-110052432D01*
X142341936Y-110052435D01*
X142487564Y-110198063D01*
X142487567Y-110198065D01*
X142487570Y-110198068D01*
X142654197Y-110319129D01*
X142837710Y-110412634D01*
X143033592Y-110476280D01*
X143237019Y-110508500D01*
X143237022Y-110508500D01*
X143442978Y-110508500D01*
X143442981Y-110508500D01*
X143646408Y-110476280D01*
X143842290Y-110412634D01*
X144025803Y-110319129D01*
X144192430Y-110198068D01*
X144338068Y-110052430D01*
X144459129Y-109885803D01*
X144497734Y-109810034D01*
X144546481Y-109758422D01*
X144615396Y-109741356D01*
X144682598Y-109764257D01*
X144722264Y-109810034D01*
X144760871Y-109885803D01*
X144881932Y-110052430D01*
X144881934Y-110052432D01*
X144881936Y-110052435D01*
X145027564Y-110198063D01*
X145027567Y-110198065D01*
X145027570Y-110198068D01*
X145194197Y-110319129D01*
X145377710Y-110412634D01*
X145573592Y-110476280D01*
X145777019Y-110508500D01*
X145777022Y-110508500D01*
X145982978Y-110508500D01*
X145982981Y-110508500D01*
X146186408Y-110476280D01*
X146382290Y-110412634D01*
X146565803Y-110319129D01*
X146732430Y-110198068D01*
X146878068Y-110052430D01*
X146999129Y-109885803D01*
X147037734Y-109810034D01*
X147086481Y-109758422D01*
X147155396Y-109741356D01*
X147222598Y-109764257D01*
X147262264Y-109810034D01*
X147300871Y-109885803D01*
X147421932Y-110052430D01*
X147421934Y-110052432D01*
X147421936Y-110052435D01*
X147567564Y-110198063D01*
X147567567Y-110198065D01*
X147567570Y-110198068D01*
X147734197Y-110319129D01*
X147917710Y-110412634D01*
X148113592Y-110476280D01*
X148317019Y-110508500D01*
X148317022Y-110508500D01*
X148522978Y-110508500D01*
X148522981Y-110508500D01*
X148726408Y-110476280D01*
X148922290Y-110412634D01*
X149105803Y-110319129D01*
X149272430Y-110198068D01*
X149418068Y-110052430D01*
X149539129Y-109885803D01*
X149577734Y-109810034D01*
X149626481Y-109758422D01*
X149695396Y-109741356D01*
X149762598Y-109764257D01*
X149802264Y-109810034D01*
X149840871Y-109885803D01*
X149961932Y-110052430D01*
X149961934Y-110052432D01*
X149961936Y-110052435D01*
X150107564Y-110198063D01*
X150107567Y-110198065D01*
X150107570Y-110198068D01*
X150274197Y-110319129D01*
X150457710Y-110412634D01*
X150653592Y-110476280D01*
X150857019Y-110508500D01*
X150857022Y-110508500D01*
X151062978Y-110508500D01*
X151062981Y-110508500D01*
X151266408Y-110476280D01*
X151462290Y-110412634D01*
X151645803Y-110319129D01*
X151812430Y-110198068D01*
X151958068Y-110052430D01*
X152079129Y-109885803D01*
X152117734Y-109810034D01*
X152166481Y-109758422D01*
X152235396Y-109741356D01*
X152302598Y-109764257D01*
X152342264Y-109810034D01*
X152380871Y-109885803D01*
X152501932Y-110052430D01*
X152501934Y-110052432D01*
X152501936Y-110052435D01*
X152647564Y-110198063D01*
X152647567Y-110198065D01*
X152647570Y-110198068D01*
X152814197Y-110319129D01*
X152997710Y-110412634D01*
X153193592Y-110476280D01*
X153397019Y-110508500D01*
X153397022Y-110508500D01*
X153602978Y-110508500D01*
X153602981Y-110508500D01*
X153806408Y-110476280D01*
X154002290Y-110412634D01*
X154185803Y-110319129D01*
X154352430Y-110198068D01*
X154498068Y-110052430D01*
X154619129Y-109885803D01*
X154657734Y-109810034D01*
X154706481Y-109758422D01*
X154775396Y-109741356D01*
X154842598Y-109764257D01*
X154882264Y-109810034D01*
X154920871Y-109885803D01*
X155041932Y-110052430D01*
X155041934Y-110052432D01*
X155041936Y-110052435D01*
X155187564Y-110198063D01*
X155187567Y-110198065D01*
X155187570Y-110198068D01*
X155354197Y-110319129D01*
X155537710Y-110412634D01*
X155733592Y-110476280D01*
X155937019Y-110508500D01*
X155937022Y-110508500D01*
X156142978Y-110508500D01*
X156142981Y-110508500D01*
X156346408Y-110476280D01*
X156542290Y-110412634D01*
X156725803Y-110319129D01*
X156892430Y-110198068D01*
X157038068Y-110052430D01*
X157159129Y-109885803D01*
X157197734Y-109810034D01*
X157246481Y-109758422D01*
X157315396Y-109741356D01*
X157382598Y-109764257D01*
X157422264Y-109810034D01*
X157460871Y-109885803D01*
X157581932Y-110052430D01*
X157581934Y-110052432D01*
X157581936Y-110052435D01*
X157727564Y-110198063D01*
X157727567Y-110198065D01*
X157727570Y-110198068D01*
X157894197Y-110319129D01*
X158077710Y-110412634D01*
X158273592Y-110476280D01*
X158477019Y-110508500D01*
X158477022Y-110508500D01*
X158682978Y-110508500D01*
X158682981Y-110508500D01*
X158886408Y-110476280D01*
X159082290Y-110412634D01*
X159265803Y-110319129D01*
X159432430Y-110198068D01*
X159432435Y-110198063D01*
X159480033Y-110150466D01*
X159578063Y-110052435D01*
X159578068Y-110052430D01*
X159699129Y-109885803D01*
X159738014Y-109809486D01*
X159786759Y-109757874D01*
X159855674Y-109740807D01*
X159922876Y-109763707D01*
X159962545Y-109809487D01*
X160001294Y-109885535D01*
X160001298Y-109885541D01*
X160032416Y-109928372D01*
X160032417Y-109928372D01*
X160595017Y-109365772D01*
X160607482Y-109412292D01*
X160679890Y-109537708D01*
X160782292Y-109640110D01*
X160907708Y-109712518D01*
X160954226Y-109724982D01*
X160391626Y-110287582D01*
X160391626Y-110287583D01*
X160434454Y-110318699D01*
X160617900Y-110412170D01*
X160617906Y-110412173D01*
X160813705Y-110475791D01*
X160813701Y-110475791D01*
X161017061Y-110508000D01*
X161222939Y-110508000D01*
X161426296Y-110475791D01*
X161622093Y-110412173D01*
X161622099Y-110412170D01*
X161805541Y-110318701D01*
X161848372Y-110287582D01*
X161848372Y-110287581D01*
X161285773Y-109724982D01*
X161332292Y-109712518D01*
X161457708Y-109640110D01*
X161560110Y-109537708D01*
X161632518Y-109412292D01*
X161644983Y-109365772D01*
X162207582Y-109928372D01*
X162238701Y-109885541D01*
X162277453Y-109809488D01*
X162326201Y-109757873D01*
X162395116Y-109740807D01*
X162462318Y-109763708D01*
X162501985Y-109809486D01*
X162540871Y-109885803D01*
X162661932Y-110052430D01*
X162661934Y-110052432D01*
X162661936Y-110052435D01*
X162807564Y-110198063D01*
X162807567Y-110198065D01*
X162807570Y-110198068D01*
X162974197Y-110319129D01*
X163157710Y-110412634D01*
X163353592Y-110476280D01*
X163557019Y-110508500D01*
X163557022Y-110508500D01*
X163762978Y-110508500D01*
X163762981Y-110508500D01*
X163966408Y-110476280D01*
X164162290Y-110412634D01*
X164345803Y-110319129D01*
X164512430Y-110198068D01*
X164658068Y-110052430D01*
X164779129Y-109885803D01*
X164872634Y-109702290D01*
X164936280Y-109506408D01*
X164968500Y-109302981D01*
X164968500Y-109097019D01*
X164936280Y-108893592D01*
X164872634Y-108697710D01*
X164779129Y-108514197D01*
X164658068Y-108347570D01*
X164658065Y-108347567D01*
X164658063Y-108347564D01*
X164512435Y-108201936D01*
X164512432Y-108201934D01*
X164512430Y-108201932D01*
X164345803Y-108080871D01*
X164162290Y-107987366D01*
X164162287Y-107987365D01*
X164162285Y-107987364D01*
X163966412Y-107923721D01*
X163966410Y-107923720D01*
X163966408Y-107923720D01*
X163762981Y-107891500D01*
X163557019Y-107891500D01*
X163557018Y-107891500D01*
X163505748Y-107899619D01*
X163435338Y-107890518D01*
X163396946Y-107864265D01*
X162644519Y-107111838D01*
X162644515Y-107111834D01*
X162520284Y-107028826D01*
X162382247Y-106971649D01*
X162308976Y-106957074D01*
X162308975Y-106957073D01*
X162235711Y-106942500D01*
X162235706Y-106942500D01*
X160562108Y-106942500D01*
X160493987Y-106922498D01*
X160447494Y-106868842D01*
X160437390Y-106798568D01*
X160466884Y-106733988D01*
X160504902Y-106704234D01*
X160559598Y-106676366D01*
X160719858Y-106559930D01*
X160859930Y-106419858D01*
X160976366Y-106259598D01*
X161066298Y-106083097D01*
X161127512Y-105894700D01*
X161158500Y-105699046D01*
X161158500Y-105500954D01*
X161127512Y-105305300D01*
X161066298Y-105116903D01*
X160976366Y-104940402D01*
X160859930Y-104780142D01*
X160859928Y-104780139D01*
X160719863Y-104640074D01*
X160719859Y-104640071D01*
X160719858Y-104640070D01*
X160710881Y-104633548D01*
X160667529Y-104577328D01*
X160661452Y-104506592D01*
X160694583Y-104443800D01*
X160695777Y-104442588D01*
X160783654Y-104354712D01*
X160890838Y-104207186D01*
X160973624Y-104044710D01*
X161029974Y-103871283D01*
X161058500Y-103691176D01*
X161058500Y-103508824D01*
X161029974Y-103328717D01*
X160973624Y-103155290D01*
X160890838Y-102992814D01*
X160783654Y-102845288D01*
X160783651Y-102845285D01*
X160783649Y-102845282D01*
X160654718Y-102716351D01*
X160654714Y-102716348D01*
X160654712Y-102716346D01*
X160575167Y-102658553D01*
X160531815Y-102602331D01*
X160529859Y-102589068D01*
X159940791Y-102000000D01*
X159952661Y-102000000D01*
X160054394Y-101972741D01*
X160145606Y-101920080D01*
X160220080Y-101845606D01*
X160272741Y-101754394D01*
X160300000Y-101652661D01*
X160300000Y-101640791D01*
X160880193Y-102220984D01*
X160880195Y-102220984D01*
X160890408Y-102206928D01*
X160973159Y-102044519D01*
X160973162Y-102044513D01*
X161029484Y-101871171D01*
X161058000Y-101691133D01*
X161058000Y-101508866D01*
X161029484Y-101328828D01*
X160973162Y-101155486D01*
X160973159Y-101155480D01*
X160890412Y-100993078D01*
X160880194Y-100979014D01*
X160300000Y-101559208D01*
X160300000Y-101547339D01*
X160272741Y-101445606D01*
X160220080Y-101354394D01*
X160145606Y-101279920D01*
X160054394Y-101227259D01*
X159952661Y-101200000D01*
X159940790Y-101200000D01*
X160520985Y-100619803D01*
X160519018Y-100594809D01*
X160533612Y-100525329D01*
X160570567Y-100482986D01*
X160622139Y-100445517D01*
X160745517Y-100322139D01*
X160848074Y-100180981D01*
X160927288Y-100025516D01*
X160981205Y-99859574D01*
X161008500Y-99687241D01*
X161008500Y-99512759D01*
X160981205Y-99340426D01*
X160927288Y-99174484D01*
X160848074Y-99019019D01*
X160745517Y-98877861D01*
X160745514Y-98877858D01*
X160745512Y-98877855D01*
X160654894Y-98787237D01*
X160620868Y-98724925D01*
X160625933Y-98654110D01*
X160668480Y-98597274D01*
X160669928Y-98596206D01*
X160719858Y-98559930D01*
X160859930Y-98419858D01*
X160976366Y-98259598D01*
X161066298Y-98083097D01*
X161127512Y-97894700D01*
X161158500Y-97699046D01*
X161158500Y-97500954D01*
X161127512Y-97305300D01*
X161066298Y-97116903D01*
X160976366Y-96940402D01*
X160859930Y-96780142D01*
X160859928Y-96780139D01*
X160778384Y-96698595D01*
X160744358Y-96636283D01*
X160749423Y-96565468D01*
X160791970Y-96508632D01*
X160858490Y-96483821D01*
X160867479Y-96483500D01*
X161832393Y-96483500D01*
X161832394Y-96483500D01*
X161954785Y-96459155D01*
X162070075Y-96411400D01*
X162173833Y-96342071D01*
X163210500Y-95305405D01*
X163272812Y-95271379D01*
X163299595Y-95268500D01*
X164508632Y-95268500D01*
X164508638Y-95268500D01*
X164508645Y-95268499D01*
X164508649Y-95268499D01*
X164569196Y-95261990D01*
X164569199Y-95261989D01*
X164569201Y-95261989D01*
X164706204Y-95210889D01*
X164719877Y-95200654D01*
X164823261Y-95123261D01*
X164910887Y-95006207D01*
X164910887Y-95006206D01*
X164910889Y-95006204D01*
X164961989Y-94869201D01*
X164968093Y-94812430D01*
X164968499Y-94808649D01*
X164968500Y-94808632D01*
X164968500Y-93111367D01*
X164968499Y-93111350D01*
X164961990Y-93050803D01*
X164961988Y-93050795D01*
X164910889Y-92913797D01*
X164910887Y-92913792D01*
X164823261Y-92796738D01*
X164706207Y-92709112D01*
X164706202Y-92709110D01*
X164569204Y-92658011D01*
X164569196Y-92658009D01*
X164508649Y-92651500D01*
X164508638Y-92651500D01*
X162811362Y-92651500D01*
X162811350Y-92651500D01*
X162750803Y-92658009D01*
X162750795Y-92658011D01*
X162613797Y-92709110D01*
X162613792Y-92709112D01*
X162496738Y-92796738D01*
X162409112Y-92913792D01*
X162409110Y-92913797D01*
X162358011Y-93050795D01*
X162358010Y-93050801D01*
X162356727Y-93062735D01*
X162329555Y-93128326D01*
X162271236Y-93168815D01*
X162200285Y-93171347D01*
X162139228Y-93135118D01*
X162129513Y-93123323D01*
X162118068Y-93107570D01*
X162118065Y-93107567D01*
X162118063Y-93107564D01*
X161972435Y-92961936D01*
X161972432Y-92961934D01*
X161972430Y-92961932D01*
X161806391Y-92841298D01*
X161805806Y-92840873D01*
X161805805Y-92840872D01*
X161805803Y-92840871D01*
X161622290Y-92747366D01*
X161622287Y-92747365D01*
X161622285Y-92747364D01*
X161426412Y-92683721D01*
X161426410Y-92683720D01*
X161426408Y-92683720D01*
X161222981Y-92651500D01*
X161017019Y-92651500D01*
X160813592Y-92683720D01*
X160813590Y-92683720D01*
X160813587Y-92683721D01*
X160617714Y-92747364D01*
X160617708Y-92747367D01*
X160434193Y-92840873D01*
X160267567Y-92961934D01*
X160267564Y-92961936D01*
X160121936Y-93107564D01*
X160121934Y-93107567D01*
X160000872Y-93274193D01*
X159961987Y-93350511D01*
X159913238Y-93402126D01*
X159844323Y-93419192D01*
X159777122Y-93396291D01*
X159737453Y-93350511D01*
X159698699Y-93274454D01*
X159667583Y-93231626D01*
X159667582Y-93231626D01*
X159104982Y-93794226D01*
X159092518Y-93747708D01*
X159020110Y-93622292D01*
X158917708Y-93519890D01*
X158792292Y-93447482D01*
X158745772Y-93435016D01*
X159308372Y-92872416D01*
X159265541Y-92841298D01*
X159265540Y-92841297D01*
X159082099Y-92747829D01*
X159082093Y-92747826D01*
X158886294Y-92684208D01*
X158886298Y-92684208D01*
X158682939Y-92652000D01*
X158477061Y-92652000D01*
X158273703Y-92684208D01*
X158077906Y-92747826D01*
X158077900Y-92747829D01*
X157894452Y-92841301D01*
X157851625Y-92872416D01*
X158414226Y-93435017D01*
X158367708Y-93447482D01*
X158242292Y-93519890D01*
X158139890Y-93622292D01*
X158067482Y-93747708D01*
X158055017Y-93794226D01*
X157492416Y-93231625D01*
X157461301Y-93274453D01*
X157461299Y-93274455D01*
X157422266Y-93351062D01*
X157373518Y-93402677D01*
X157304603Y-93419742D01*
X157237401Y-93396841D01*
X157197733Y-93351061D01*
X157158699Y-93274454D01*
X157127583Y-93231626D01*
X157127582Y-93231626D01*
X156564982Y-93794226D01*
X156552518Y-93747708D01*
X156480110Y-93622292D01*
X156377708Y-93519890D01*
X156252292Y-93447482D01*
X156205772Y-93435016D01*
X156768372Y-92872416D01*
X156725541Y-92841298D01*
X156725540Y-92841297D01*
X156542099Y-92747829D01*
X156542093Y-92747826D01*
X156346294Y-92684208D01*
X156346298Y-92684208D01*
X156142939Y-92652000D01*
X155937061Y-92652000D01*
X155733703Y-92684208D01*
X155537906Y-92747826D01*
X155537900Y-92747829D01*
X155354452Y-92841301D01*
X155311625Y-92872416D01*
X155874226Y-93435017D01*
X155827708Y-93447482D01*
X155702292Y-93519890D01*
X155599890Y-93622292D01*
X155527482Y-93747708D01*
X155515017Y-93794226D01*
X154952416Y-93231625D01*
X154921301Y-93274453D01*
X154921299Y-93274456D01*
X154882546Y-93350512D01*
X154833798Y-93402127D01*
X154764883Y-93419192D01*
X154697681Y-93396291D01*
X154658013Y-93350511D01*
X154619127Y-93274193D01*
X154542565Y-93168815D01*
X154498068Y-93107570D01*
X154498065Y-93107567D01*
X154498063Y-93107564D01*
X154352435Y-92961936D01*
X154352432Y-92961934D01*
X154352430Y-92961932D01*
X154186391Y-92841298D01*
X154185806Y-92840873D01*
X154185805Y-92840872D01*
X154185803Y-92840871D01*
X154002290Y-92747366D01*
X154002287Y-92747365D01*
X154002285Y-92747364D01*
X153806412Y-92683721D01*
X153806410Y-92683720D01*
X153806408Y-92683720D01*
X153602981Y-92651500D01*
X153397019Y-92651500D01*
X153316149Y-92664308D01*
X153193147Y-92683790D01*
X153122736Y-92674690D01*
X153084342Y-92648437D01*
X152947002Y-92511097D01*
X152327833Y-91891929D01*
X152224075Y-91822600D01*
X152108785Y-91774845D01*
X152035086Y-91760185D01*
X151986396Y-91750500D01*
X151986394Y-91750500D01*
X150774594Y-91750500D01*
X150706473Y-91730498D01*
X150659980Y-91676842D01*
X150649876Y-91606568D01*
X150679370Y-91541988D01*
X150685499Y-91535405D01*
X152250499Y-89970405D01*
X152312811Y-89936379D01*
X152339594Y-89933500D01*
X152948632Y-89933500D01*
X152948638Y-89933500D01*
X152948645Y-89933499D01*
X152948649Y-89933499D01*
X153009196Y-89926990D01*
X153009199Y-89926989D01*
X153009201Y-89926989D01*
X153146204Y-89875889D01*
X153146799Y-89875444D01*
X153263261Y-89788261D01*
X153350887Y-89671207D01*
X153350887Y-89671206D01*
X153350889Y-89671204D01*
X153401989Y-89534201D01*
X153402426Y-89530142D01*
X153408499Y-89473649D01*
X153408500Y-89473632D01*
X153408500Y-89473597D01*
X155392000Y-89473597D01*
X155398505Y-89534093D01*
X155449555Y-89670964D01*
X155449555Y-89670965D01*
X155537095Y-89787904D01*
X155654034Y-89875444D01*
X155790906Y-89926494D01*
X155851402Y-89932999D01*
X155851415Y-89933000D01*
X156146000Y-89933000D01*
X156654000Y-89933000D01*
X156948585Y-89933000D01*
X156948597Y-89932999D01*
X157009093Y-89926494D01*
X157145964Y-89875444D01*
X157145965Y-89875444D01*
X157262904Y-89787904D01*
X157350444Y-89670965D01*
X157350444Y-89670964D01*
X157401494Y-89534093D01*
X157407999Y-89473597D01*
X157408000Y-89473585D01*
X157408000Y-88279000D01*
X156654000Y-88279000D01*
X156654000Y-89933000D01*
X156146000Y-89933000D01*
X156146000Y-88279000D01*
X155392000Y-88279000D01*
X155392000Y-89473597D01*
X153408500Y-89473597D01*
X153408500Y-86878013D01*
X153428502Y-86809892D01*
X153482158Y-86763399D01*
X153509916Y-86754434D01*
X153665000Y-86723587D01*
X153830336Y-86655102D01*
X153979135Y-86555678D01*
X154014408Y-86520405D01*
X154076720Y-86486379D01*
X154103503Y-86483500D01*
X155266000Y-86483500D01*
X155334121Y-86503502D01*
X155380614Y-86557158D01*
X155392000Y-86609500D01*
X155392000Y-87771000D01*
X157408000Y-87771000D01*
X157408000Y-86609500D01*
X157428002Y-86541379D01*
X157481658Y-86494886D01*
X157534000Y-86483500D01*
X160140589Y-86483500D01*
X160208710Y-86503502D01*
X160255203Y-86557158D01*
X160265038Y-86589788D01*
X160270027Y-86621288D01*
X160326374Y-86794706D01*
X160326375Y-86794709D01*
X160326376Y-86794710D01*
X160409162Y-86957186D01*
X160516346Y-87104712D01*
X160516348Y-87104714D01*
X160516350Y-87104717D01*
X160645282Y-87233649D01*
X160645285Y-87233651D01*
X160645288Y-87233654D01*
X160724828Y-87291443D01*
X160768182Y-87347665D01*
X160770137Y-87360928D01*
X161359209Y-87950000D01*
X161347339Y-87950000D01*
X161245606Y-87977259D01*
X161154394Y-88029920D01*
X161079920Y-88104394D01*
X161027259Y-88195606D01*
X161000000Y-88297339D01*
X161000000Y-88309209D01*
X160419804Y-87729013D01*
X160419803Y-87729014D01*
X160409591Y-87743072D01*
X160326840Y-87905480D01*
X160326837Y-87905486D01*
X160270515Y-88078828D01*
X160242000Y-88258866D01*
X160242000Y-88441133D01*
X160270515Y-88621171D01*
X160326837Y-88794513D01*
X160326840Y-88794519D01*
X160409588Y-88956923D01*
X160419803Y-88970984D01*
X161000000Y-88390788D01*
X161000000Y-88402661D01*
X161027259Y-88504394D01*
X161079920Y-88595606D01*
X161154394Y-88670080D01*
X161245606Y-88722741D01*
X161347339Y-88750000D01*
X161359210Y-88750000D01*
X160948556Y-89160652D01*
X160916665Y-89183822D01*
X160740401Y-89273634D01*
X160580139Y-89390071D01*
X160440071Y-89530139D01*
X160323636Y-89690398D01*
X160233703Y-89866901D01*
X160233702Y-89866903D01*
X160187038Y-90010521D01*
X160172488Y-90055300D01*
X160141500Y-90250954D01*
X160141500Y-90449046D01*
X160172488Y-90644700D01*
X160233702Y-90833097D01*
X160323634Y-91009598D01*
X160323636Y-91009601D01*
X160440071Y-91169860D01*
X160580139Y-91309928D01*
X160580142Y-91309930D01*
X160740402Y-91426366D01*
X160916903Y-91516298D01*
X161105300Y-91577512D01*
X161300954Y-91608500D01*
X161300957Y-91608500D01*
X161499043Y-91608500D01*
X161499046Y-91608500D01*
X161694700Y-91577512D01*
X161883097Y-91516298D01*
X162059598Y-91426366D01*
X162219858Y-91309930D01*
X162359930Y-91169858D01*
X162476366Y-91009598D01*
X162566298Y-90833097D01*
X162627512Y-90644700D01*
X162658500Y-90449046D01*
X162658500Y-90250954D01*
X162627512Y-90055300D01*
X162566298Y-89866903D01*
X162476366Y-89690402D01*
X162403074Y-89589525D01*
X162359928Y-89530139D01*
X162219860Y-89390071D01*
X162059601Y-89273636D01*
X162059600Y-89273635D01*
X162059598Y-89273634D01*
X161883330Y-89183821D01*
X161851439Y-89160650D01*
X161440790Y-88750000D01*
X161452661Y-88750000D01*
X161554394Y-88722741D01*
X161645606Y-88670080D01*
X161720080Y-88595606D01*
X161772741Y-88504394D01*
X161800000Y-88402661D01*
X161800000Y-88390791D01*
X162380193Y-88970984D01*
X162380195Y-88970984D01*
X162390408Y-88956928D01*
X162473159Y-88794519D01*
X162473162Y-88794513D01*
X162529484Y-88621171D01*
X162558000Y-88441133D01*
X162558000Y-88258866D01*
X162529484Y-88078828D01*
X162473162Y-87905486D01*
X162473159Y-87905480D01*
X162390412Y-87743078D01*
X162380194Y-87729014D01*
X161800000Y-88309208D01*
X161800000Y-88297339D01*
X161772741Y-88195606D01*
X161720080Y-88104394D01*
X161645606Y-88029920D01*
X161554394Y-87977259D01*
X161452661Y-87950000D01*
X161440790Y-87950000D01*
X162033216Y-87357572D01*
X162038211Y-87333791D01*
X162075165Y-87291447D01*
X162154712Y-87233654D01*
X162283654Y-87104712D01*
X162390838Y-86957186D01*
X162473624Y-86794710D01*
X162529974Y-86621283D01*
X162558500Y-86441176D01*
X162558500Y-86258824D01*
X162529974Y-86078717D01*
X162473624Y-85905290D01*
X162390838Y-85742814D01*
X162283654Y-85595288D01*
X162283651Y-85595285D01*
X162283649Y-85595282D01*
X162154718Y-85466351D01*
X162154714Y-85466348D01*
X162154712Y-85466346D01*
X162092344Y-85421033D01*
X162048992Y-85364811D01*
X162042917Y-85294075D01*
X162076049Y-85231283D01*
X162092339Y-85217167D01*
X162122139Y-85195517D01*
X162245517Y-85072139D01*
X162348074Y-84930981D01*
X162427288Y-84775516D01*
X162481205Y-84609574D01*
X162508500Y-84437241D01*
X162508500Y-84262759D01*
X162481205Y-84090426D01*
X162427288Y-83924484D01*
X162348074Y-83769019D01*
X162245517Y-83627861D01*
X162245514Y-83627858D01*
X162245512Y-83627855D01*
X162154894Y-83537237D01*
X162120868Y-83474925D01*
X162125933Y-83404110D01*
X162168480Y-83347274D01*
X162169928Y-83346206D01*
X162219858Y-83309930D01*
X162359930Y-83169858D01*
X162476366Y-83009598D01*
X162566298Y-82833097D01*
X162627512Y-82644700D01*
X162658500Y-82449046D01*
X162658500Y-82250954D01*
X162627512Y-82055300D01*
X162566298Y-81866903D01*
X162476366Y-81690402D01*
X162359930Y-81530142D01*
X162359928Y-81530139D01*
X162219860Y-81390071D01*
X162059601Y-81273636D01*
X162059600Y-81273635D01*
X162059598Y-81273634D01*
X161883097Y-81183702D01*
X161694700Y-81122488D01*
X161499046Y-81091500D01*
X161300954Y-81091500D01*
X161105300Y-81122488D01*
X161105297Y-81122488D01*
X161105296Y-81122489D01*
X160916903Y-81183702D01*
X160916901Y-81183703D01*
X160740398Y-81273636D01*
X160580139Y-81390071D01*
X160440071Y-81530139D01*
X160323636Y-81690398D01*
X160323634Y-81690402D01*
X160233702Y-81866903D01*
X160172488Y-82055300D01*
X160141500Y-82250954D01*
X160141500Y-82449046D01*
X160172488Y-82644700D01*
X160233702Y-82833097D01*
X160315933Y-82994484D01*
X160323636Y-83009601D01*
X160440071Y-83169860D01*
X160580135Y-83309924D01*
X160580138Y-83309926D01*
X160580142Y-83309930D01*
X160630072Y-83346206D01*
X160673425Y-83402429D01*
X160679500Y-83473165D01*
X160646368Y-83535957D01*
X160645106Y-83537237D01*
X160554483Y-83627860D01*
X160451928Y-83769015D01*
X160372713Y-83924482D01*
X160372710Y-83924488D01*
X160337426Y-84033084D01*
X160318795Y-84090426D01*
X160291500Y-84262759D01*
X160291500Y-84437241D01*
X160318795Y-84609574D01*
X160318796Y-84609577D01*
X160371200Y-84770865D01*
X160372712Y-84775516D01*
X160410570Y-84849815D01*
X160451927Y-84930983D01*
X160514015Y-85016439D01*
X160537873Y-85083307D01*
X160521793Y-85152458D01*
X160470879Y-85201938D01*
X160412079Y-85216500D01*
X154103503Y-85216500D01*
X154035382Y-85196498D01*
X154014408Y-85179595D01*
X153979137Y-85144324D01*
X153979135Y-85144322D01*
X153830336Y-85044898D01*
X153713429Y-84996473D01*
X153665003Y-84976414D01*
X153665001Y-84976413D01*
X153665000Y-84976413D01*
X153576645Y-84958838D01*
X153489481Y-84941500D01*
X153489479Y-84941500D01*
X153310521Y-84941500D01*
X153310515Y-84941500D01*
X153184081Y-84966650D01*
X153113367Y-84960322D01*
X153057300Y-84916768D01*
X153033681Y-84849815D01*
X153033500Y-84843071D01*
X153033500Y-84205409D01*
X153053502Y-84137288D01*
X153107158Y-84090795D01*
X153115469Y-84087353D01*
X153133808Y-84080512D01*
X153146204Y-84075889D01*
X153263261Y-83988261D01*
X153304939Y-83932586D01*
X153350887Y-83871207D01*
X153350887Y-83871206D01*
X153350889Y-83871204D01*
X153401989Y-83734201D01*
X153408500Y-83673638D01*
X153408500Y-83673597D01*
X155392000Y-83673597D01*
X155398505Y-83734093D01*
X155449555Y-83870964D01*
X155449555Y-83870965D01*
X155537095Y-83987904D01*
X155654034Y-84075444D01*
X155790906Y-84126494D01*
X155851402Y-84132999D01*
X155851415Y-84133000D01*
X156146000Y-84133000D01*
X156654000Y-84133000D01*
X156948585Y-84133000D01*
X156948597Y-84132999D01*
X157009093Y-84126494D01*
X157145964Y-84075444D01*
X157145965Y-84075444D01*
X157262904Y-83987904D01*
X157350444Y-83870965D01*
X157350444Y-83870964D01*
X157401494Y-83734093D01*
X157407999Y-83673597D01*
X157408000Y-83673585D01*
X157408000Y-82479000D01*
X156654000Y-82479000D01*
X156654000Y-84133000D01*
X156146000Y-84133000D01*
X156146000Y-82479000D01*
X155392000Y-82479000D01*
X155392000Y-83673597D01*
X153408500Y-83673597D01*
X153408500Y-80776362D01*
X153406580Y-80758499D01*
X153401990Y-80715803D01*
X153401988Y-80715795D01*
X153378765Y-80653533D01*
X153373699Y-80582718D01*
X153407724Y-80520405D01*
X153470036Y-80486380D01*
X153496820Y-80483500D01*
X155303714Y-80483500D01*
X155371835Y-80503502D01*
X155418328Y-80557158D01*
X155428432Y-80627432D01*
X155421770Y-80653533D01*
X155398505Y-80715907D01*
X155392000Y-80776402D01*
X155392000Y-81971000D01*
X157408000Y-81971000D01*
X157408000Y-80776414D01*
X157407999Y-80776402D01*
X157401494Y-80715907D01*
X157378230Y-80653533D01*
X157373165Y-80582717D01*
X157407190Y-80520405D01*
X157469502Y-80486380D01*
X157496286Y-80483500D01*
X164446497Y-80483500D01*
X164514618Y-80503502D01*
X164535592Y-80520405D01*
X164570865Y-80555678D01*
X164719664Y-80655102D01*
X164885000Y-80723587D01*
X165060521Y-80758500D01*
X165060522Y-80758500D01*
X165239478Y-80758500D01*
X165239479Y-80758500D01*
X165415000Y-80723587D01*
X165580336Y-80655102D01*
X165729135Y-80555678D01*
X165855678Y-80429135D01*
X165955102Y-80280336D01*
X166023587Y-80115000D01*
X166058500Y-79939479D01*
X166058500Y-79760521D01*
X166023587Y-79585000D01*
X165955102Y-79419664D01*
X165855678Y-79270865D01*
X165729135Y-79144322D01*
X165580336Y-79044898D01*
X165463429Y-78996473D01*
X165415003Y-78976414D01*
X165415001Y-78976413D01*
X165415000Y-78976413D01*
X165326645Y-78958838D01*
X165239481Y-78941500D01*
X165239479Y-78941500D01*
X165060521Y-78941500D01*
X165060518Y-78941500D01*
X164929771Y-78967507D01*
X164885000Y-78976413D01*
X164884999Y-78976413D01*
X164884996Y-78976414D01*
X164719662Y-79044899D01*
X164570869Y-79144319D01*
X164570862Y-79144324D01*
X164535592Y-79179595D01*
X164473280Y-79213621D01*
X164446497Y-79216500D01*
X144587603Y-79216500D01*
X144465214Y-79240845D01*
X144465209Y-79240847D01*
X144433859Y-79253833D01*
X144392740Y-79270865D01*
X144349923Y-79288600D01*
X144246167Y-79357927D01*
X143879984Y-79724111D01*
X142674499Y-80929596D01*
X142612189Y-80963620D01*
X142585406Y-80966500D01*
X131884500Y-80966500D01*
X131816379Y-80946498D01*
X131769886Y-80892842D01*
X131758500Y-80840500D01*
X131758500Y-80701367D01*
X131758499Y-80701350D01*
X131751990Y-80640803D01*
X131751988Y-80640795D01*
X131700889Y-80503797D01*
X131700887Y-80503792D01*
X131613261Y-80386738D01*
X131496207Y-80299112D01*
X131496202Y-80299110D01*
X131359204Y-80248011D01*
X131359196Y-80248009D01*
X131298649Y-80241500D01*
X131298638Y-80241500D01*
X129501362Y-80241500D01*
X129501350Y-80241500D01*
X129440803Y-80248009D01*
X129440795Y-80248011D01*
X129303797Y-80299110D01*
X129303792Y-80299112D01*
X129186738Y-80386738D01*
X129099112Y-80503792D01*
X129099110Y-80503797D01*
X129048011Y-80640795D01*
X129048009Y-80640803D01*
X129041500Y-80701350D01*
X129041500Y-82016500D01*
X129021498Y-82084621D01*
X128967842Y-82131114D01*
X128915500Y-82142500D01*
X128276990Y-82142500D01*
X128208869Y-82122498D01*
X128187895Y-82105595D01*
X124826889Y-78744589D01*
X124792863Y-78682277D01*
X124797928Y-78611462D01*
X124840475Y-78554626D01*
X124906995Y-78529815D01*
X124954921Y-78535661D01*
X124969998Y-78540560D01*
X125181126Y-78574000D01*
X125394874Y-78574000D01*
X125606003Y-78540559D01*
X125809286Y-78474509D01*
X125809292Y-78474506D01*
X125999750Y-78377463D01*
X126052167Y-78339378D01*
X126052167Y-78339376D01*
X125412948Y-77700157D01*
X125480993Y-77681925D01*
X125595007Y-77616099D01*
X125688099Y-77523007D01*
X125753925Y-77408993D01*
X125772157Y-77340948D01*
X126411376Y-77980167D01*
X126411378Y-77980167D01*
X126449463Y-77927750D01*
X126450562Y-77925958D01*
X126451158Y-77925418D01*
X126452377Y-77923741D01*
X126452729Y-77923996D01*
X126503206Y-77878322D01*
X126573246Y-77866710D01*
X126638446Y-77894808D01*
X126663559Y-77923788D01*
X126663624Y-77923742D01*
X126664165Y-77924487D01*
X126665433Y-77925950D01*
X126666535Y-77927749D01*
X126704620Y-77980167D01*
X126704621Y-77980168D01*
X127343841Y-77340947D01*
X127362075Y-77408993D01*
X127427901Y-77523007D01*
X127520993Y-77616099D01*
X127635007Y-77681925D01*
X127703051Y-77700157D01*
X127063831Y-78339378D01*
X127116249Y-78377463D01*
X127116251Y-78377464D01*
X127306707Y-78474506D01*
X127306713Y-78474509D01*
X127509996Y-78540559D01*
X127721126Y-78574000D01*
X127934874Y-78574000D01*
X128146003Y-78540559D01*
X128349286Y-78474509D01*
X128349292Y-78474506D01*
X128539750Y-78377463D01*
X128592167Y-78339378D01*
X128592167Y-78339376D01*
X127952948Y-77700157D01*
X128020993Y-77681925D01*
X128135007Y-77616099D01*
X128228099Y-77523007D01*
X128293925Y-77408993D01*
X128312157Y-77340948D01*
X128951376Y-77980167D01*
X128951378Y-77980167D01*
X128989463Y-77927750D01*
X129086506Y-77737292D01*
X129086509Y-77737286D01*
X129152559Y-77534003D01*
X129186000Y-77322873D01*
X129186000Y-77109126D01*
X146790000Y-77109126D01*
X146790000Y-77322873D01*
X146823440Y-77534003D01*
X146889490Y-77737286D01*
X146889493Y-77737292D01*
X146986535Y-77927748D01*
X146986536Y-77927750D01*
X147024620Y-77980167D01*
X147024621Y-77980168D01*
X147663841Y-77340947D01*
X147682075Y-77408993D01*
X147747901Y-77523007D01*
X147840993Y-77616099D01*
X147955007Y-77681925D01*
X148023051Y-77700157D01*
X147383831Y-78339378D01*
X147436249Y-78377463D01*
X147436251Y-78377464D01*
X147626707Y-78474506D01*
X147626713Y-78474509D01*
X147829996Y-78540559D01*
X148041126Y-78574000D01*
X148254874Y-78574000D01*
X148466003Y-78540559D01*
X148669286Y-78474509D01*
X148669292Y-78474506D01*
X148859750Y-78377463D01*
X148912167Y-78339378D01*
X148912167Y-78339376D01*
X148272948Y-77700157D01*
X148340993Y-77681925D01*
X148455007Y-77616099D01*
X148548099Y-77523007D01*
X148613925Y-77408993D01*
X148632157Y-77340948D01*
X149271376Y-77980167D01*
X149271378Y-77980167D01*
X149309463Y-77927750D01*
X149310562Y-77925958D01*
X149311158Y-77925418D01*
X149312377Y-77923741D01*
X149312729Y-77923996D01*
X149363206Y-77878322D01*
X149433246Y-77866710D01*
X149498446Y-77894808D01*
X149523559Y-77923788D01*
X149523624Y-77923742D01*
X149524165Y-77924487D01*
X149525433Y-77925950D01*
X149526535Y-77927749D01*
X149564620Y-77980167D01*
X149564621Y-77980168D01*
X150203841Y-77340947D01*
X150222075Y-77408993D01*
X150287901Y-77523007D01*
X150380993Y-77616099D01*
X150495007Y-77681925D01*
X150563051Y-77700157D01*
X149923831Y-78339378D01*
X149976249Y-78377463D01*
X149976251Y-78377464D01*
X150166707Y-78474506D01*
X150166713Y-78474509D01*
X150369996Y-78540559D01*
X150581126Y-78574000D01*
X150794874Y-78574000D01*
X151006003Y-78540559D01*
X151209286Y-78474509D01*
X151209292Y-78474506D01*
X151399750Y-78377463D01*
X151452167Y-78339378D01*
X151452167Y-78339376D01*
X150812948Y-77700157D01*
X150880993Y-77681925D01*
X150995007Y-77616099D01*
X151088099Y-77523007D01*
X151153925Y-77408993D01*
X151172157Y-77340948D01*
X151811376Y-77980167D01*
X151811378Y-77980167D01*
X151849463Y-77927750D01*
X151850562Y-77925958D01*
X151851158Y-77925418D01*
X151852377Y-77923741D01*
X151852729Y-77923996D01*
X151903206Y-77878322D01*
X151973246Y-77866710D01*
X152038446Y-77894808D01*
X152063559Y-77923788D01*
X152063624Y-77923742D01*
X152064165Y-77924487D01*
X152065433Y-77925950D01*
X152066535Y-77927749D01*
X152104620Y-77980167D01*
X152104621Y-77980168D01*
X152743841Y-77340947D01*
X152762075Y-77408993D01*
X152827901Y-77523007D01*
X152920993Y-77616099D01*
X153035007Y-77681925D01*
X153103051Y-77700157D01*
X152463831Y-78339378D01*
X152516249Y-78377463D01*
X152516251Y-78377464D01*
X152706707Y-78474506D01*
X152706713Y-78474509D01*
X152909996Y-78540559D01*
X153121126Y-78574000D01*
X153334874Y-78574000D01*
X153546003Y-78540559D01*
X153749286Y-78474509D01*
X153749292Y-78474506D01*
X153939750Y-78377463D01*
X153992167Y-78339378D01*
X153992167Y-78339376D01*
X153352948Y-77700157D01*
X153420993Y-77681925D01*
X153535007Y-77616099D01*
X153628099Y-77523007D01*
X153693925Y-77408993D01*
X153712157Y-77340948D01*
X154381794Y-78010585D01*
X154415820Y-78072897D01*
X154412030Y-78133471D01*
X154416505Y-78175093D01*
X154467555Y-78311964D01*
X154467555Y-78311965D01*
X154555095Y-78428904D01*
X154672034Y-78516444D01*
X154808906Y-78567494D01*
X154869402Y-78573999D01*
X154869415Y-78574000D01*
X155514000Y-78574000D01*
X155514000Y-77646702D01*
X155575007Y-77681925D01*
X155702174Y-77716000D01*
X155833826Y-77716000D01*
X155960993Y-77681925D01*
X156022000Y-77646702D01*
X156022000Y-78574000D01*
X156666585Y-78574000D01*
X156666597Y-78573999D01*
X156727093Y-78567494D01*
X156863964Y-78516444D01*
X156863965Y-78516444D01*
X156980904Y-78428904D01*
X157068444Y-78311965D01*
X157068444Y-78311964D01*
X157119494Y-78175093D01*
X157125999Y-78114597D01*
X157126000Y-78114585D01*
X157126000Y-77470000D01*
X156198703Y-77470000D01*
X156233925Y-77408993D01*
X156268000Y-77281826D01*
X156268000Y-77150174D01*
X156233925Y-77023007D01*
X156198703Y-76962000D01*
X157126000Y-76962000D01*
X157126000Y-76317414D01*
X157125999Y-76317402D01*
X157119494Y-76256906D01*
X157068444Y-76120035D01*
X157068444Y-76120034D01*
X156980904Y-76003095D01*
X156863965Y-75915555D01*
X156727093Y-75864505D01*
X156666597Y-75858000D01*
X156022000Y-75858000D01*
X156022000Y-76785297D01*
X155960993Y-76750075D01*
X155833826Y-76716000D01*
X155702174Y-76716000D01*
X155575007Y-76750075D01*
X155514000Y-76785297D01*
X155514000Y-75858000D01*
X154869402Y-75858000D01*
X154808906Y-75864505D01*
X154672035Y-75915555D01*
X154672034Y-75915555D01*
X154555095Y-76003095D01*
X154467555Y-76120034D01*
X154467555Y-76120035D01*
X154416505Y-76256905D01*
X154411981Y-76298978D01*
X154415319Y-76361301D01*
X154381794Y-76421414D01*
X153712157Y-77091051D01*
X153693925Y-77023007D01*
X153628099Y-76908993D01*
X153535007Y-76815901D01*
X153420993Y-76750075D01*
X153352947Y-76731841D01*
X153992168Y-76092621D01*
X153992167Y-76092620D01*
X153939750Y-76054536D01*
X153939748Y-76054535D01*
X153749292Y-75957493D01*
X153749286Y-75957490D01*
X153546003Y-75891440D01*
X153334874Y-75858000D01*
X153121126Y-75858000D01*
X152909996Y-75891440D01*
X152706713Y-75957490D01*
X152706707Y-75957493D01*
X152516253Y-76054534D01*
X152463831Y-76092621D01*
X152463831Y-76092622D01*
X153103051Y-76731842D01*
X153035007Y-76750075D01*
X152920993Y-76815901D01*
X152827901Y-76908993D01*
X152762075Y-77023007D01*
X152743842Y-77091051D01*
X152104622Y-76451831D01*
X152104621Y-76451831D01*
X152066522Y-76504269D01*
X152065422Y-76506065D01*
X152064827Y-76506603D01*
X152063624Y-76508259D01*
X152063275Y-76508006D01*
X152012768Y-76553689D01*
X151942725Y-76565286D01*
X151877531Y-76537174D01*
X151852440Y-76508211D01*
X151852376Y-76508258D01*
X151851830Y-76507506D01*
X151850563Y-76506044D01*
X151849462Y-76504248D01*
X151811378Y-76451831D01*
X151172157Y-77091051D01*
X151153925Y-77023007D01*
X151088099Y-76908993D01*
X150995007Y-76815901D01*
X150880993Y-76750075D01*
X150812947Y-76731841D01*
X151452168Y-76092621D01*
X151452167Y-76092620D01*
X151399750Y-76054536D01*
X151399748Y-76054535D01*
X151209292Y-75957493D01*
X151209286Y-75957490D01*
X151006003Y-75891440D01*
X150794874Y-75858000D01*
X150581126Y-75858000D01*
X150369996Y-75891440D01*
X150166713Y-75957490D01*
X150166707Y-75957493D01*
X149976253Y-76054534D01*
X149923831Y-76092621D01*
X149923831Y-76092622D01*
X150563051Y-76731842D01*
X150495007Y-76750075D01*
X150380993Y-76815901D01*
X150287901Y-76908993D01*
X150222075Y-77023007D01*
X150203842Y-77091051D01*
X149564622Y-76451831D01*
X149564621Y-76451831D01*
X149526522Y-76504269D01*
X149525422Y-76506065D01*
X149524827Y-76506603D01*
X149523624Y-76508259D01*
X149523275Y-76508006D01*
X149472768Y-76553689D01*
X149402725Y-76565286D01*
X149337531Y-76537174D01*
X149312440Y-76508211D01*
X149312376Y-76508258D01*
X149311830Y-76507506D01*
X149310563Y-76506044D01*
X149309462Y-76504248D01*
X149271378Y-76451831D01*
X148632157Y-77091051D01*
X148613925Y-77023007D01*
X148548099Y-76908993D01*
X148455007Y-76815901D01*
X148340993Y-76750075D01*
X148272947Y-76731841D01*
X148912168Y-76092621D01*
X148912167Y-76092620D01*
X148859750Y-76054536D01*
X148859748Y-76054535D01*
X148669292Y-75957493D01*
X148669286Y-75957490D01*
X148466003Y-75891440D01*
X148254874Y-75858000D01*
X148041126Y-75858000D01*
X147829996Y-75891440D01*
X147626713Y-75957490D01*
X147626707Y-75957493D01*
X147436253Y-76054534D01*
X147383831Y-76092621D01*
X147383831Y-76092622D01*
X148023051Y-76731842D01*
X147955007Y-76750075D01*
X147840993Y-76815901D01*
X147747901Y-76908993D01*
X147682075Y-77023007D01*
X147663842Y-77091051D01*
X147024622Y-76451831D01*
X147024621Y-76451831D01*
X146986534Y-76504253D01*
X146889493Y-76694707D01*
X146889490Y-76694713D01*
X146823440Y-76897996D01*
X146790000Y-77109126D01*
X129186000Y-77109126D01*
X129152559Y-76897996D01*
X129086509Y-76694713D01*
X129086506Y-76694707D01*
X128989464Y-76504251D01*
X128989463Y-76504249D01*
X128951378Y-76451831D01*
X128312157Y-77091051D01*
X128293925Y-77023007D01*
X128228099Y-76908993D01*
X128135007Y-76815901D01*
X128020993Y-76750075D01*
X127952947Y-76731841D01*
X128592168Y-76092621D01*
X128592167Y-76092620D01*
X128539750Y-76054536D01*
X128539748Y-76054535D01*
X128349292Y-75957493D01*
X128349286Y-75957490D01*
X128146003Y-75891440D01*
X127934874Y-75858000D01*
X127721126Y-75858000D01*
X127509996Y-75891440D01*
X127306713Y-75957490D01*
X127306707Y-75957493D01*
X127116253Y-76054534D01*
X127063831Y-76092621D01*
X127063831Y-76092622D01*
X127703051Y-76731842D01*
X127635007Y-76750075D01*
X127520993Y-76815901D01*
X127427901Y-76908993D01*
X127362075Y-77023007D01*
X127343842Y-77091051D01*
X126704622Y-76451831D01*
X126704621Y-76451831D01*
X126666522Y-76504269D01*
X126665422Y-76506065D01*
X126664827Y-76506603D01*
X126663624Y-76508259D01*
X126663275Y-76508006D01*
X126612768Y-76553689D01*
X126542725Y-76565286D01*
X126477531Y-76537174D01*
X126452440Y-76508211D01*
X126452376Y-76508258D01*
X126451830Y-76507506D01*
X126450563Y-76506044D01*
X126449462Y-76504248D01*
X126411378Y-76451831D01*
X125772157Y-77091051D01*
X125753925Y-77023007D01*
X125688099Y-76908993D01*
X125595007Y-76815901D01*
X125480993Y-76750075D01*
X125412947Y-76731841D01*
X126052168Y-76092621D01*
X126052167Y-76092620D01*
X125999750Y-76054536D01*
X125999748Y-76054535D01*
X125809292Y-75957493D01*
X125809286Y-75957490D01*
X125606003Y-75891440D01*
X125394874Y-75858000D01*
X125181126Y-75858000D01*
X124969996Y-75891440D01*
X124766713Y-75957490D01*
X124766707Y-75957493D01*
X124576253Y-76054534D01*
X124523831Y-76092621D01*
X124523831Y-76092622D01*
X125163051Y-76731842D01*
X125095007Y-76750075D01*
X124980993Y-76815901D01*
X124887901Y-76908993D01*
X124822075Y-77023007D01*
X124803841Y-77091052D01*
X124164621Y-76451831D01*
X124126522Y-76504269D01*
X124125422Y-76506065D01*
X124124827Y-76506603D01*
X124123624Y-76508259D01*
X124123275Y-76508006D01*
X124072768Y-76553689D01*
X124002725Y-76565286D01*
X123937531Y-76537174D01*
X123912440Y-76508211D01*
X123912376Y-76508258D01*
X123911830Y-76507506D01*
X123910563Y-76506044D01*
X123909462Y-76504248D01*
X123871378Y-76451831D01*
X123871377Y-76451830D01*
X123232157Y-77091050D01*
X123213925Y-77023007D01*
X123148099Y-76908993D01*
X123055007Y-76815901D01*
X122940993Y-76750075D01*
X122872947Y-76731841D01*
X123512168Y-76092621D01*
X123512167Y-76092620D01*
X123459750Y-76054536D01*
X123459748Y-76054535D01*
X123269292Y-75957493D01*
X123269286Y-75957490D01*
X123066003Y-75891440D01*
X122854874Y-75858000D01*
X122641126Y-75858000D01*
X122429996Y-75891440D01*
X122226713Y-75957490D01*
X122226707Y-75957493D01*
X122036253Y-76054534D01*
X121983831Y-76092621D01*
X121983831Y-76092622D01*
X122623051Y-76731842D01*
X122555007Y-76750075D01*
X122440993Y-76815901D01*
X122347901Y-76908993D01*
X122282075Y-77023007D01*
X122263841Y-77091052D01*
X121594203Y-76421413D01*
X121560178Y-76359101D01*
X121559092Y-76353501D01*
X121528400Y-76173541D01*
X121508443Y-76120033D01*
X121420904Y-76003095D01*
X121303965Y-75915555D01*
X121167093Y-75864505D01*
X121106597Y-75858000D01*
X120462000Y-75858000D01*
X120462000Y-76785297D01*
X120400993Y-76750075D01*
X120273826Y-76716000D01*
X120142174Y-76716000D01*
X120015007Y-76750075D01*
X119954000Y-76785297D01*
X119954000Y-75858000D01*
X119309402Y-75858000D01*
X119248906Y-75864505D01*
X119112035Y-75915555D01*
X119112034Y-75915555D01*
X118995095Y-76003095D01*
X118907555Y-76120034D01*
X118907555Y-76120035D01*
X118856505Y-76256906D01*
X118850000Y-76317402D01*
X118850000Y-76962000D01*
X119777297Y-76962000D01*
X119742075Y-77023007D01*
X119708000Y-77150174D01*
X119708000Y-77281826D01*
X119742075Y-77408993D01*
X119777297Y-77470000D01*
X118850000Y-77470000D01*
X118850000Y-78090500D01*
X118829998Y-78158621D01*
X118776342Y-78205114D01*
X118724000Y-78216500D01*
X115876696Y-78216500D01*
X115808575Y-78196498D01*
X115787601Y-78179595D01*
X114331988Y-76723982D01*
X114331986Y-76723980D01*
X114228228Y-76654651D01*
X114112938Y-76606896D01*
X114039239Y-76592236D01*
X113990549Y-76582551D01*
X113990547Y-76582551D01*
X112855160Y-76582551D01*
X112848675Y-76580647D01*
X112842028Y-76581865D01*
X112815038Y-76570770D01*
X112787039Y-76562549D01*
X112781073Y-76556808D01*
X112776363Y-76554872D01*
X112766605Y-76542884D01*
X112751854Y-76528689D01*
X112746857Y-76521533D01*
X112737945Y-76504042D01*
X112612257Y-76331047D01*
X112612254Y-76331044D01*
X112612252Y-76331041D01*
X112461060Y-76179849D01*
X112461057Y-76179847D01*
X112461055Y-76179845D01*
X112288582Y-76054536D01*
X112288063Y-76054159D01*
X112288062Y-76054158D01*
X112288060Y-76054157D01*
X112097534Y-75957079D01*
X112097531Y-75957078D01*
X112097529Y-75957077D01*
X111894171Y-75891003D01*
X111894174Y-75891003D01*
X111854852Y-75884775D01*
X111682967Y-75857551D01*
X111537336Y-75857551D01*
X111469215Y-75837549D01*
X111422722Y-75783893D01*
X111412618Y-75713619D01*
X111422722Y-75679209D01*
X111424541Y-75675226D01*
X111475001Y-75564734D01*
X111495810Y-75420000D01*
X111475001Y-75275266D01*
X111414258Y-75142257D01*
X111376038Y-75094828D01*
X111376031Y-75094821D01*
X111376023Y-75094812D01*
X110105187Y-73823976D01*
X110105177Y-73823967D01*
X110105172Y-73823962D01*
X110057743Y-73785742D01*
X109924734Y-73724999D01*
X109780000Y-73704190D01*
X109635265Y-73724999D01*
X109502256Y-73785742D01*
X109454831Y-73823959D01*
X109454812Y-73823976D01*
X108183976Y-75094812D01*
X108183959Y-75094831D01*
X108145742Y-75142256D01*
X108106545Y-75228087D01*
X108084999Y-75275266D01*
X108064190Y-75420000D01*
X106925500Y-75420000D01*
X106925500Y-65763318D01*
X108198600Y-65763318D01*
X108198600Y-65936682D01*
X108225720Y-66107912D01*
X108225721Y-66107917D01*
X108266742Y-66234167D01*
X108279292Y-66272791D01*
X108279293Y-66272792D01*
X108358000Y-66427263D01*
X108459900Y-66567516D01*
X108582483Y-66690099D01*
X108603162Y-66705123D01*
X108722740Y-66792002D01*
X108877209Y-66870708D01*
X109042082Y-66924278D01*
X109042083Y-66924278D01*
X109042088Y-66924280D01*
X109213318Y-66951400D01*
X109213321Y-66951400D01*
X109386679Y-66951400D01*
X109386682Y-66951400D01*
X109557912Y-66924280D01*
X109722791Y-66870708D01*
X109877260Y-66792002D01*
X110017514Y-66690101D01*
X110140101Y-66567514D01*
X110242002Y-66427260D01*
X110320708Y-66272791D01*
X110374280Y-66107912D01*
X110401400Y-65936682D01*
X110401400Y-65763318D01*
X110394730Y-65721204D01*
X112835000Y-65721204D01*
X112835000Y-65978795D01*
X112868620Y-66234167D01*
X112868621Y-66234173D01*
X112868622Y-66234175D01*
X112935290Y-66482984D01*
X113033864Y-66720962D01*
X113033865Y-66720963D01*
X113033870Y-66720974D01*
X113162659Y-66944043D01*
X113319460Y-67148388D01*
X113319479Y-67148409D01*
X113501590Y-67330520D01*
X113501600Y-67330529D01*
X113501606Y-67330535D01*
X113501609Y-67330537D01*
X113501611Y-67330539D01*
X113705956Y-67487340D01*
X113929025Y-67616129D01*
X113929029Y-67616130D01*
X113929038Y-67616136D01*
X114167016Y-67714710D01*
X114415825Y-67781378D01*
X114415831Y-67781378D01*
X114415832Y-67781379D01*
X114445134Y-67785236D01*
X114671207Y-67815000D01*
X114671214Y-67815000D01*
X114928786Y-67815000D01*
X114928793Y-67815000D01*
X115184175Y-67781378D01*
X115432984Y-67714710D01*
X115670962Y-67616136D01*
X115894038Y-67487343D01*
X115894038Y-67487342D01*
X115894043Y-67487340D01*
X116012717Y-67396277D01*
X116098394Y-67330535D01*
X116280535Y-67148394D01*
X116404336Y-66987054D01*
X116437340Y-66944043D01*
X116479680Y-66870709D01*
X116566136Y-66720962D01*
X116664710Y-66482984D01*
X116731378Y-66234175D01*
X116765000Y-65978793D01*
X116765000Y-65763318D01*
X119198600Y-65763318D01*
X119198600Y-65936682D01*
X119225720Y-66107912D01*
X119225721Y-66107917D01*
X119266742Y-66234167D01*
X119279292Y-66272791D01*
X119279293Y-66272792D01*
X119358000Y-66427263D01*
X119459900Y-66567516D01*
X119582483Y-66690099D01*
X119603162Y-66705123D01*
X119722740Y-66792002D01*
X119877209Y-66870708D01*
X120042082Y-66924278D01*
X120042083Y-66924278D01*
X120042088Y-66924280D01*
X120213318Y-66951400D01*
X120213321Y-66951400D01*
X120386679Y-66951400D01*
X120386682Y-66951400D01*
X120557912Y-66924280D01*
X120722791Y-66870708D01*
X120877260Y-66792002D01*
X121017514Y-66690101D01*
X121140101Y-66567514D01*
X121242002Y-66427260D01*
X121320708Y-66272791D01*
X121374280Y-66107912D01*
X121401400Y-65936682D01*
X121401400Y-65763318D01*
X121374280Y-65592088D01*
X121320708Y-65427209D01*
X121242002Y-65272740D01*
X121140101Y-65132486D01*
X121140099Y-65132483D01*
X121017516Y-65009900D01*
X120877263Y-64908000D01*
X120877262Y-64907999D01*
X120877260Y-64907998D01*
X120722791Y-64829292D01*
X120722788Y-64829291D01*
X120722786Y-64829290D01*
X120557915Y-64775721D01*
X120557919Y-64775721D01*
X120526041Y-64770672D01*
X120386682Y-64748600D01*
X120213318Y-64748600D01*
X120042088Y-64775720D01*
X120042082Y-64775721D01*
X119877213Y-64829290D01*
X119877207Y-64829293D01*
X119722736Y-64908000D01*
X119582483Y-65009900D01*
X119459900Y-65132483D01*
X119358000Y-65272736D01*
X119279293Y-65427207D01*
X119279290Y-65427213D01*
X119225721Y-65592082D01*
X119225720Y-65592087D01*
X119225720Y-65592088D01*
X119198600Y-65763318D01*
X116765000Y-65763318D01*
X116765000Y-65721207D01*
X116731378Y-65465825D01*
X116664710Y-65217016D01*
X116566136Y-64979038D01*
X116566130Y-64979029D01*
X116566129Y-64979025D01*
X116437340Y-64755956D01*
X116280539Y-64551611D01*
X116280537Y-64551609D01*
X116280535Y-64551606D01*
X116280529Y-64551600D01*
X116280520Y-64551590D01*
X116098409Y-64369479D01*
X116098388Y-64369460D01*
X115894043Y-64212659D01*
X115670974Y-64083870D01*
X115670966Y-64083866D01*
X115670962Y-64083864D01*
X115432984Y-63985290D01*
X115184175Y-63918622D01*
X115184173Y-63918621D01*
X115184167Y-63918620D01*
X114928795Y-63885000D01*
X114928793Y-63885000D01*
X114671207Y-63885000D01*
X114671204Y-63885000D01*
X114415832Y-63918620D01*
X114167016Y-63985290D01*
X113929036Y-64083865D01*
X113929025Y-64083870D01*
X113705956Y-64212659D01*
X113501611Y-64369460D01*
X113501590Y-64369479D01*
X113319479Y-64551590D01*
X113319460Y-64551611D01*
X113162659Y-64755956D01*
X113033870Y-64979025D01*
X113033865Y-64979036D01*
X112935290Y-65217016D01*
X112868620Y-65465832D01*
X112835000Y-65721204D01*
X110394730Y-65721204D01*
X110374280Y-65592088D01*
X110320708Y-65427209D01*
X110242002Y-65272740D01*
X110140101Y-65132486D01*
X110140099Y-65132483D01*
X110017516Y-65009900D01*
X109877263Y-64908000D01*
X109877262Y-64907999D01*
X109877260Y-64907998D01*
X109722791Y-64829292D01*
X109722788Y-64829291D01*
X109722786Y-64829290D01*
X109557915Y-64775721D01*
X109557919Y-64775721D01*
X109526041Y-64770672D01*
X109386682Y-64748600D01*
X109213318Y-64748600D01*
X109042088Y-64775720D01*
X109042082Y-64775721D01*
X108877213Y-64829290D01*
X108877207Y-64829293D01*
X108722736Y-64908000D01*
X108582483Y-65009900D01*
X108459900Y-65132483D01*
X108358000Y-65272736D01*
X108279293Y-65427207D01*
X108279290Y-65427213D01*
X108225721Y-65592082D01*
X108225720Y-65592087D01*
X108225720Y-65592088D01*
X108198600Y-65763318D01*
X106925500Y-65763318D01*
X106925500Y-61985263D01*
X118049500Y-61985263D01*
X118049500Y-62214736D01*
X118079450Y-62442231D01*
X118079452Y-62442238D01*
X118138842Y-62663887D01*
X118226656Y-62875888D01*
X118226657Y-62875889D01*
X118226662Y-62875900D01*
X118341386Y-63074608D01*
X118341391Y-63074615D01*
X118481073Y-63256652D01*
X118481092Y-63256673D01*
X118643326Y-63418907D01*
X118643347Y-63418926D01*
X118825384Y-63558608D01*
X118825391Y-63558613D01*
X119024099Y-63673337D01*
X119024103Y-63673338D01*
X119024112Y-63673344D01*
X119236113Y-63761158D01*
X119457762Y-63820548D01*
X119457766Y-63820548D01*
X119457768Y-63820549D01*
X119516398Y-63828267D01*
X119685266Y-63850500D01*
X119685273Y-63850500D01*
X119914727Y-63850500D01*
X119914734Y-63850500D01*
X120120345Y-63823430D01*
X120142231Y-63820549D01*
X120142231Y-63820548D01*
X120142238Y-63820548D01*
X120363887Y-63761158D01*
X120575888Y-63673344D01*
X120774612Y-63558611D01*
X120956661Y-63418919D01*
X121118919Y-63256661D01*
X121258611Y-63074612D01*
X121373344Y-62875888D01*
X121461158Y-62663887D01*
X121520548Y-62442238D01*
X121550500Y-62214734D01*
X121550500Y-61985266D01*
X121520548Y-61757762D01*
X121461158Y-61536113D01*
X121373344Y-61324112D01*
X121373338Y-61324103D01*
X121373337Y-61324099D01*
X121258613Y-61125391D01*
X121258608Y-61125384D01*
X121118926Y-60943347D01*
X121118907Y-60943326D01*
X120956673Y-60781092D01*
X120956652Y-60781073D01*
X120774615Y-60641391D01*
X120774608Y-60641386D01*
X120575900Y-60526662D01*
X120575892Y-60526658D01*
X120575888Y-60526656D01*
X120363887Y-60438842D01*
X120142238Y-60379452D01*
X120142231Y-60379450D01*
X119914736Y-60349500D01*
X119914734Y-60349500D01*
X119685266Y-60349500D01*
X119685263Y-60349500D01*
X119457768Y-60379450D01*
X119236113Y-60438842D01*
X119024110Y-60526657D01*
X119024099Y-60526662D01*
X118825391Y-60641386D01*
X118825384Y-60641391D01*
X118643347Y-60781073D01*
X118643326Y-60781092D01*
X118481092Y-60943326D01*
X118481073Y-60943347D01*
X118341391Y-61125384D01*
X118341386Y-61125391D01*
X118226662Y-61324099D01*
X118226657Y-61324110D01*
X118138842Y-61536113D01*
X118079450Y-61757768D01*
X118049500Y-61985263D01*
X106925500Y-61985263D01*
X106925500Y-60104120D01*
X106925770Y-60095880D01*
X106931088Y-60014736D01*
X106941852Y-59850504D01*
X106944000Y-59834191D01*
X106991170Y-59597050D01*
X106995429Y-59581153D01*
X107073151Y-59352194D01*
X107079445Y-59336999D01*
X107186387Y-59120141D01*
X107194611Y-59105898D01*
X107328942Y-58904857D01*
X107338962Y-58891799D01*
X107498378Y-58710020D01*
X107510020Y-58698378D01*
X107691799Y-58538962D01*
X107704857Y-58528942D01*
X107905898Y-58394611D01*
X107920141Y-58386387D01*
X108136999Y-58279445D01*
X108152194Y-58273151D01*
X108381153Y-58195429D01*
X108397050Y-58191170D01*
X108634191Y-58144000D01*
X108650505Y-58141852D01*
X108869931Y-58127470D01*
X108895882Y-58125770D01*
X108904122Y-58125500D01*
X108908285Y-58125500D01*
X113902285Y-58125500D01*
X113970406Y-58145502D01*
G37*
G04 #@! TD.AperFunction*
M02*
