M48
; DRILL file {KiCad 9.0.2} date 2025-08-20T20:18:52-0400
; FORMAT={-:-/ absolute / metric / decimal}
; #@! TF.CreationDate,2025-08-20T20:18:52-04:00
; #@! TF.GenerationSoftware,Kicad,Pcbnew,9.0.2
; #@! TF.FileFunction,Plated,1,2,PTH
FMAT,2
METRIC
; #@! TA.AperFunction,Plated,PTH,ViaDrill
T1C0.400
; #@! TA.AperFunction,Plated,PTH,ComponentDrill
T2C0.750
; #@! TA.AperFunction,Plated,PTH,ComponentDrill
T3C0.800
; #@! TA.AperFunction,Plated,PTH,ComponentDrill
T4C1.000
; #@! TA.AperFunction,Plated,PTH,ComponentDrill
T5C1.100
%
G90
G05
T1
X109.8Y-139.0
X112.1Y-131.6
X118.8Y-122.1
X125.0Y-71.6
X125.3Y-121.7
X126.0Y-129.425
X126.7Y-117.5
X132.4Y-121.0
X132.97Y-114.65
X136.296Y-127.404
X136.3Y-104.4
X136.923Y-126.373
X137.6Y-99.3
X137.8Y-101.5
X137.85Y-97.04
X138.775Y-82.6
X138.8Y-78.4
X139.225Y-81.4
X139.6Y-80.0
X141.2Y-80.4
X141.6Y-95.425
X142.6Y-100.4
X142.9Y-92.6
X145.825Y-84.49
X146.4Y-117.4
X146.5Y-112.8
X146.85Y-83.4
X147.4Y-120.8
X148.15Y-86.7
X148.6Y-90.3
X149.0Y-96.5
X149.5Y-99.5
X150.0Y-109.9
X152.3Y-93.7
X153.0Y-120.3
X155.4Y-81.2
X156.0Y-122.8
T2
X157.118Y-88.932
T3
X157.635Y-90.864
X158.153Y-92.796
T4
X109.032Y-77.216
X109.032Y-125.984
X111.572Y-77.216
X111.572Y-125.984
X114.112Y-77.216
X114.112Y-125.984
X116.652Y-77.216
X116.652Y-125.984
X120.208Y-77.216
X120.208Y-125.984
X122.748Y-77.216
X122.748Y-125.984
X125.288Y-77.216
X125.288Y-125.984
X127.828Y-77.216
X127.828Y-125.984
X130.4Y-81.6
X130.4Y-84.14
X130.4Y-86.68
X130.4Y-116.52
X130.4Y-119.06
X130.4Y-121.6
X132.4Y-96.52
X132.4Y-99.06
X132.4Y-101.6
X132.4Y-104.14
X132.4Y-106.68
X136.2Y-120.26
X136.2Y-122.8
X148.148Y-77.216
X148.148Y-125.984
X150.688Y-77.216
X150.688Y-125.984
X153.228Y-77.216
X153.228Y-125.984
X155.768Y-77.216
X155.768Y-125.984
X156.301Y-97.79
X156.301Y-100.33
X156.301Y-102.87
X156.301Y-105.41
X156.6Y-87.0
X158.671Y-94.727
T5
X135.68Y-95.425
X136.121Y-97.927
X136.562Y-100.428
X137.003Y-102.93
X137.444Y-105.431
X137.885Y-107.932
X138.326Y-110.434
X138.767Y-112.935
X139.208Y-115.437
X139.649Y-117.938
X140.091Y-120.44
X140.532Y-122.941
X150.688Y-92.779
X151.129Y-95.28
X151.571Y-97.782
X152.012Y-100.283
X152.453Y-102.785
X152.894Y-105.286
X153.335Y-107.788
X153.776Y-110.289
X154.217Y-112.79
X154.658Y-115.292
X155.099Y-117.793
X155.54Y-120.295
M30
