G04 #@! TF.GenerationSoftware,KiCad,Pcbnew,9.0.2*
G04 #@! TF.CreationDate,2025-08-20T20:18:49-04:00*
G04 #@! TF.ProjectId,Trackball,54726163-6b62-4616-9c6c-2e6b69636164,rev?*
G04 #@! TF.SameCoordinates,Original*
G04 #@! TF.FileFunction,Soldermask,Bot*
G04 #@! TF.FilePolarity,Negative*
%FSLAX46Y46*%
G04 Gerber Fmt 4.6, Leading zero omitted, Abs format (unit mm)*
G04 Created by KiCad (PCBNEW 9.0.2) date 2025-08-20 20:18:49*
%MOMM*%
%LPD*%
G01*
G04 APERTURE LIST*
G04 APERTURE END LIST*
G36*
X115091432Y-133650424D02*
G01*
X115314501Y-133710195D01*
X115527861Y-133798571D01*
X115727859Y-133914040D01*
X115911075Y-134054627D01*
X116074373Y-134217925D01*
X116214960Y-134401141D01*
X116330429Y-134601139D01*
X116418805Y-134814499D01*
X116478576Y-135037568D01*
X116508720Y-135266531D01*
X116508720Y-135497469D01*
X116478576Y-135726432D01*
X116418805Y-135949501D01*
X116330429Y-136162861D01*
X116214960Y-136362859D01*
X116074373Y-136546075D01*
X115911075Y-136709373D01*
X115727859Y-136849960D01*
X115527861Y-136965429D01*
X115314501Y-137053805D01*
X115091432Y-137113576D01*
X114862469Y-137143720D01*
X114631531Y-137143720D01*
X114402568Y-137113576D01*
X114179499Y-137053805D01*
X113966139Y-136965429D01*
X113766141Y-136849960D01*
X113582925Y-136709373D01*
X113419627Y-136546075D01*
X113279040Y-136362859D01*
X113163571Y-136162861D01*
X113075195Y-135949501D01*
X113015424Y-135726432D01*
X112985280Y-135497469D01*
X112985280Y-135266531D01*
X113015424Y-135037568D01*
X113075195Y-134814499D01*
X113163571Y-134601139D01*
X113279040Y-134401141D01*
X113419627Y-134217925D01*
X113582925Y-134054627D01*
X113766141Y-133914040D01*
X113966139Y-133798571D01*
X114179499Y-133710195D01*
X114402568Y-133650424D01*
X114631531Y-133620280D01*
X114862469Y-133620280D01*
X115091432Y-133650424D01*
G37*
G36*
X109508808Y-134518936D02*
G01*
X109672153Y-134586595D01*
X109819159Y-134684822D01*
X109944178Y-134809841D01*
X110042405Y-134956847D01*
X110110064Y-135120192D01*
X110144557Y-135293598D01*
X110144557Y-135470402D01*
X110110064Y-135643808D01*
X110042405Y-135807153D01*
X109944178Y-135954159D01*
X109819159Y-136079178D01*
X109672153Y-136177405D01*
X109508808Y-136245064D01*
X109335402Y-136279557D01*
X109158598Y-136279557D01*
X108985192Y-136245064D01*
X108821847Y-136177405D01*
X108674841Y-136079178D01*
X108549822Y-135954159D01*
X108451595Y-135807153D01*
X108383936Y-135643808D01*
X108349443Y-135470402D01*
X108349443Y-135293598D01*
X108383936Y-135120192D01*
X108451595Y-134956847D01*
X108549822Y-134809841D01*
X108674841Y-134684822D01*
X108821847Y-134586595D01*
X108985192Y-134518936D01*
X109158598Y-134484443D01*
X109335402Y-134484443D01*
X109508808Y-134518936D01*
G37*
G36*
X120508808Y-134518936D02*
G01*
X120672153Y-134586595D01*
X120819159Y-134684822D01*
X120944178Y-134809841D01*
X121042405Y-134956847D01*
X121110064Y-135120192D01*
X121144557Y-135293598D01*
X121144557Y-135470402D01*
X121110064Y-135643808D01*
X121042405Y-135807153D01*
X120944178Y-135954159D01*
X120819159Y-136079178D01*
X120672153Y-136177405D01*
X120508808Y-136245064D01*
X120335402Y-136279557D01*
X120158598Y-136279557D01*
X119985192Y-136245064D01*
X119821847Y-136177405D01*
X119674841Y-136079178D01*
X119549822Y-135954159D01*
X119451595Y-135807153D01*
X119383936Y-135643808D01*
X119349443Y-135470402D01*
X119349443Y-135293598D01*
X119383936Y-135120192D01*
X119451595Y-134956847D01*
X119549822Y-134809841D01*
X119674841Y-134684822D01*
X119821847Y-134586595D01*
X119985192Y-134518936D01*
X120158598Y-134484443D01*
X120335402Y-134484443D01*
X120508808Y-134518936D01*
G37*
G36*
X119857482Y-130085781D02*
G01*
X119868690Y-130085781D01*
X119923888Y-130094523D01*
X120049534Y-130111065D01*
X120080189Y-130119279D01*
X120109074Y-130123854D01*
X120164620Y-130141902D01*
X120245467Y-130163565D01*
X120297050Y-130184931D01*
X120340542Y-130199063D01*
X120381286Y-130219823D01*
X120432870Y-130241190D01*
X120505353Y-130283038D01*
X120557395Y-130309555D01*
X120581055Y-130326745D01*
X120608539Y-130342613D01*
X120709074Y-130419756D01*
X120754294Y-130452610D01*
X120762219Y-130460535D01*
X120769466Y-130466096D01*
X120912903Y-130609533D01*
X120918463Y-130616779D01*
X120926390Y-130624706D01*
X120959247Y-130669930D01*
X121036386Y-130770460D01*
X121052252Y-130797941D01*
X121069445Y-130821605D01*
X121095964Y-130873652D01*
X121137809Y-130946129D01*
X121159173Y-130997706D01*
X121179937Y-131038458D01*
X121194070Y-131081955D01*
X121215434Y-131133532D01*
X121237093Y-131214366D01*
X121255146Y-131269926D01*
X121259721Y-131298816D01*
X121267934Y-131329465D01*
X121284474Y-131455099D01*
X121293219Y-131510310D01*
X121293219Y-131521518D01*
X121294412Y-131530580D01*
X121294412Y-131733419D01*
X121293219Y-131742480D01*
X121293219Y-131753690D01*
X121284473Y-131808905D01*
X121267934Y-131934534D01*
X121259722Y-131965180D01*
X121255146Y-131994074D01*
X121237091Y-132049638D01*
X121215434Y-132130467D01*
X121194071Y-132182039D01*
X121179937Y-132225542D01*
X121159171Y-132266297D01*
X121137809Y-132317870D01*
X121095968Y-132390338D01*
X121069445Y-132442395D01*
X121052249Y-132466062D01*
X121036386Y-132493539D01*
X120959261Y-132594050D01*
X120926390Y-132639294D01*
X120918459Y-132647224D01*
X120912903Y-132654466D01*
X120769466Y-132797903D01*
X120762224Y-132803459D01*
X120754294Y-132811390D01*
X120709050Y-132844261D01*
X120608539Y-132921386D01*
X120581062Y-132937249D01*
X120557395Y-132954445D01*
X120505338Y-132980968D01*
X120432870Y-133022809D01*
X120381297Y-133044171D01*
X120340542Y-133064937D01*
X120297039Y-133079071D01*
X120245467Y-133100434D01*
X120164638Y-133122091D01*
X120109074Y-133140146D01*
X120080180Y-133144722D01*
X120049534Y-133152934D01*
X119923902Y-133169474D01*
X119868690Y-133178219D01*
X119857481Y-133178219D01*
X119848420Y-133179412D01*
X119645580Y-133179412D01*
X119636519Y-133178219D01*
X119625310Y-133178219D01*
X119570099Y-133169474D01*
X119444465Y-133152934D01*
X119413816Y-133144721D01*
X119384926Y-133140146D01*
X119329366Y-133122093D01*
X119248532Y-133100434D01*
X119196955Y-133079070D01*
X119153458Y-133064937D01*
X119112706Y-133044173D01*
X119061129Y-133022809D01*
X118988652Y-132980964D01*
X118936605Y-132954445D01*
X118912941Y-132937252D01*
X118885460Y-132921386D01*
X118784930Y-132844247D01*
X118739706Y-132811390D01*
X118731779Y-132803463D01*
X118724533Y-132797903D01*
X118581096Y-132654466D01*
X118575535Y-132647219D01*
X118567610Y-132639294D01*
X118534756Y-132594074D01*
X118457613Y-132493539D01*
X118441745Y-132466055D01*
X118424555Y-132442395D01*
X118398038Y-132390353D01*
X118356190Y-132317870D01*
X118334823Y-132266286D01*
X118314063Y-132225542D01*
X118299931Y-132182050D01*
X118278565Y-132130467D01*
X118256902Y-132049620D01*
X118238854Y-131994074D01*
X118234279Y-131965189D01*
X118226065Y-131934534D01*
X118209524Y-131808891D01*
X118200781Y-131753690D01*
X118200781Y-131742480D01*
X118199588Y-131733419D01*
X118199588Y-131530580D01*
X118200781Y-131521518D01*
X118200781Y-131510310D01*
X118209523Y-131455113D01*
X118226065Y-131329465D01*
X118234279Y-131298807D01*
X118238854Y-131269926D01*
X118256900Y-131214383D01*
X118278565Y-131133532D01*
X118299933Y-131081944D01*
X118314063Y-131038458D01*
X118334821Y-130997717D01*
X118356190Y-130946129D01*
X118398042Y-130873637D01*
X118424555Y-130821605D01*
X118441742Y-130797948D01*
X118457613Y-130770460D01*
X118534770Y-130669906D01*
X118567610Y-130624706D01*
X118575532Y-130616783D01*
X118581096Y-130609533D01*
X118724533Y-130466096D01*
X118731783Y-130460532D01*
X118739706Y-130452610D01*
X118784906Y-130419770D01*
X118885460Y-130342613D01*
X118912948Y-130326742D01*
X118936605Y-130309555D01*
X118988637Y-130283042D01*
X119061129Y-130241190D01*
X119112717Y-130219821D01*
X119153458Y-130199063D01*
X119196944Y-130184933D01*
X119248532Y-130163565D01*
X119329383Y-130141900D01*
X119384926Y-130123854D01*
X119413807Y-130119279D01*
X119444465Y-130111065D01*
X119570113Y-130094523D01*
X119625310Y-130085781D01*
X119636518Y-130085781D01*
X119645580Y-130084588D01*
X119848420Y-130084588D01*
X119857482Y-130085781D01*
G37*
G36*
X124341517Y-130284882D02*
G01*
X124358062Y-130295938D01*
X124369118Y-130312483D01*
X124373000Y-130332000D01*
X124373000Y-132932000D01*
X124369118Y-132951517D01*
X124358062Y-132968062D01*
X124341517Y-132979118D01*
X124322000Y-132983000D01*
X121722000Y-132983000D01*
X121702483Y-132979118D01*
X121685938Y-132968062D01*
X121674882Y-132951517D01*
X121671000Y-132932000D01*
X121671000Y-130332000D01*
X121674882Y-130312483D01*
X121685938Y-130295938D01*
X121702483Y-130284882D01*
X121722000Y-130281000D01*
X124322000Y-130281000D01*
X124341517Y-130284882D01*
G37*
G36*
X114857482Y-127885781D02*
G01*
X114868690Y-127885781D01*
X114923888Y-127894523D01*
X115049534Y-127911065D01*
X115080189Y-127919279D01*
X115109074Y-127923854D01*
X115164620Y-127941902D01*
X115245467Y-127963565D01*
X115297050Y-127984931D01*
X115340542Y-127999063D01*
X115381286Y-128019823D01*
X115432870Y-128041190D01*
X115505353Y-128083038D01*
X115557395Y-128109555D01*
X115581055Y-128126745D01*
X115608539Y-128142613D01*
X115709074Y-128219756D01*
X115754294Y-128252610D01*
X115762219Y-128260535D01*
X115769466Y-128266096D01*
X115912903Y-128409533D01*
X115918463Y-128416779D01*
X115926390Y-128424706D01*
X115959247Y-128469930D01*
X116036386Y-128570460D01*
X116052252Y-128597941D01*
X116069445Y-128621605D01*
X116095964Y-128673652D01*
X116137809Y-128746129D01*
X116159173Y-128797706D01*
X116179937Y-128838458D01*
X116194070Y-128881955D01*
X116215434Y-128933532D01*
X116237093Y-129014366D01*
X116255146Y-129069926D01*
X116259721Y-129098816D01*
X116267934Y-129129465D01*
X116284474Y-129255099D01*
X116293219Y-129310310D01*
X116293219Y-129321518D01*
X116294412Y-129330580D01*
X116294412Y-129533419D01*
X116293219Y-129542480D01*
X116293219Y-129553690D01*
X116284473Y-129608905D01*
X116267934Y-129734534D01*
X116259722Y-129765180D01*
X116255146Y-129794074D01*
X116237091Y-129849638D01*
X116215434Y-129930467D01*
X116194071Y-129982039D01*
X116179937Y-130025542D01*
X116159171Y-130066297D01*
X116137809Y-130117870D01*
X116095968Y-130190338D01*
X116069445Y-130242395D01*
X116052249Y-130266062D01*
X116036386Y-130293539D01*
X115959261Y-130394050D01*
X115926390Y-130439294D01*
X115918459Y-130447224D01*
X115912903Y-130454466D01*
X115769466Y-130597903D01*
X115762224Y-130603459D01*
X115754294Y-130611390D01*
X115709050Y-130644261D01*
X115608539Y-130721386D01*
X115581062Y-130737249D01*
X115557395Y-130754445D01*
X115505338Y-130780968D01*
X115432870Y-130822809D01*
X115381297Y-130844171D01*
X115340542Y-130864937D01*
X115297039Y-130879071D01*
X115245467Y-130900434D01*
X115164638Y-130922091D01*
X115109074Y-130940146D01*
X115080180Y-130944722D01*
X115049534Y-130952934D01*
X114923902Y-130969474D01*
X114868690Y-130978219D01*
X114857481Y-130978219D01*
X114848420Y-130979412D01*
X114645580Y-130979412D01*
X114636519Y-130978219D01*
X114625310Y-130978219D01*
X114570099Y-130969474D01*
X114444465Y-130952934D01*
X114413816Y-130944721D01*
X114384926Y-130940146D01*
X114329366Y-130922093D01*
X114248532Y-130900434D01*
X114196955Y-130879070D01*
X114153458Y-130864937D01*
X114112706Y-130844173D01*
X114061129Y-130822809D01*
X113988652Y-130780964D01*
X113936605Y-130754445D01*
X113912941Y-130737252D01*
X113885460Y-130721386D01*
X113784930Y-130644247D01*
X113739706Y-130611390D01*
X113731779Y-130603463D01*
X113724533Y-130597903D01*
X113581096Y-130454466D01*
X113575535Y-130447219D01*
X113567610Y-130439294D01*
X113534756Y-130394074D01*
X113457613Y-130293539D01*
X113441745Y-130266055D01*
X113424555Y-130242395D01*
X113398038Y-130190353D01*
X113356190Y-130117870D01*
X113334823Y-130066286D01*
X113314063Y-130025542D01*
X113299931Y-129982050D01*
X113278565Y-129930467D01*
X113256902Y-129849620D01*
X113238854Y-129794074D01*
X113234279Y-129765189D01*
X113226065Y-129734534D01*
X113209524Y-129608891D01*
X113200781Y-129553690D01*
X113200781Y-129542480D01*
X113199588Y-129533419D01*
X113199588Y-129330580D01*
X113200781Y-129321518D01*
X113200781Y-129310310D01*
X113209523Y-129255113D01*
X113226065Y-129129465D01*
X113234279Y-129098807D01*
X113238854Y-129069926D01*
X113256900Y-129014383D01*
X113278565Y-128933532D01*
X113299933Y-128881944D01*
X113314063Y-128838458D01*
X113334821Y-128797717D01*
X113356190Y-128746129D01*
X113398042Y-128673637D01*
X113424555Y-128621605D01*
X113441742Y-128597948D01*
X113457613Y-128570460D01*
X113534770Y-128469906D01*
X113567610Y-128424706D01*
X113575532Y-128416783D01*
X113581096Y-128409533D01*
X113724533Y-128266096D01*
X113731783Y-128260532D01*
X113739706Y-128252610D01*
X113784906Y-128219770D01*
X113885460Y-128142613D01*
X113912948Y-128126742D01*
X113936605Y-128109555D01*
X113988637Y-128083042D01*
X114061129Y-128041190D01*
X114112717Y-128019821D01*
X114153458Y-127999063D01*
X114196944Y-127984933D01*
X114248532Y-127963565D01*
X114329383Y-127941900D01*
X114384926Y-127923854D01*
X114413807Y-127919279D01*
X114444465Y-127911065D01*
X114570113Y-127894523D01*
X114625310Y-127885781D01*
X114636518Y-127885781D01*
X114645580Y-127884588D01*
X114848420Y-127884588D01*
X114857482Y-127885781D01*
G37*
G36*
X112791517Y-128084882D02*
G01*
X112808062Y-128095938D01*
X112819118Y-128112483D01*
X112823000Y-128132000D01*
X112823000Y-130732000D01*
X112819118Y-130751517D01*
X112808062Y-130768062D01*
X112791517Y-130779118D01*
X112772000Y-130783000D01*
X110172000Y-130783000D01*
X110152483Y-130779118D01*
X110135938Y-130768062D01*
X110124882Y-130751517D01*
X110121000Y-130732000D01*
X110121000Y-128132000D01*
X110124882Y-128112483D01*
X110135938Y-128095938D01*
X110152483Y-128084882D01*
X110172000Y-128081000D01*
X112772000Y-128081000D01*
X112791517Y-128084882D01*
G37*
G36*
X109901517Y-125086882D02*
G01*
X109918062Y-125097938D01*
X109929118Y-125114483D01*
X109933000Y-125134000D01*
X109933000Y-126834000D01*
X109929118Y-126853517D01*
X109918062Y-126870062D01*
X109901517Y-126881118D01*
X109882000Y-126885000D01*
X108182000Y-126885000D01*
X108162483Y-126881118D01*
X108145938Y-126870062D01*
X108134882Y-126853517D01*
X108131000Y-126834000D01*
X108131000Y-125134000D01*
X108134882Y-125114483D01*
X108145938Y-125097938D01*
X108162483Y-125086882D01*
X108182000Y-125083000D01*
X109882000Y-125083000D01*
X109901517Y-125086882D01*
G37*
G36*
X121077517Y-125086882D02*
G01*
X121094062Y-125097938D01*
X121105118Y-125114483D01*
X121109000Y-125134000D01*
X121109000Y-126834000D01*
X121105118Y-126853517D01*
X121094062Y-126870062D01*
X121077517Y-126881118D01*
X121058000Y-126885000D01*
X119358000Y-126885000D01*
X119338483Y-126881118D01*
X119321938Y-126870062D01*
X119310882Y-126853517D01*
X119307000Y-126834000D01*
X119307000Y-125134000D01*
X119310882Y-125114483D01*
X119321938Y-125097938D01*
X119338483Y-125086882D01*
X119358000Y-125083000D01*
X121058000Y-125083000D01*
X121077517Y-125086882D01*
G37*
G36*
X156637517Y-125086882D02*
G01*
X156654062Y-125097938D01*
X156665118Y-125114483D01*
X156669000Y-125134000D01*
X156669000Y-126834000D01*
X156665118Y-126853517D01*
X156654062Y-126870062D01*
X156637517Y-126881118D01*
X156618000Y-126885000D01*
X154918000Y-126885000D01*
X154898483Y-126881118D01*
X154881938Y-126870062D01*
X154870882Y-126853517D01*
X154867000Y-126834000D01*
X154867000Y-125134000D01*
X154870882Y-125114483D01*
X154881938Y-125097938D01*
X154898483Y-125086882D01*
X154918000Y-125083000D01*
X156618000Y-125083000D01*
X156637517Y-125086882D01*
G37*
G36*
X111833546Y-125121797D02*
G01*
X111996728Y-125189389D01*
X112143588Y-125287518D01*
X112268482Y-125412412D01*
X112366611Y-125559272D01*
X112434203Y-125722454D01*
X112468661Y-125895687D01*
X112468661Y-126072313D01*
X112434203Y-126245546D01*
X112366611Y-126408728D01*
X112268482Y-126555588D01*
X112143588Y-126680482D01*
X111996728Y-126778611D01*
X111833546Y-126846203D01*
X111660313Y-126880661D01*
X111483687Y-126880661D01*
X111310454Y-126846203D01*
X111147272Y-126778611D01*
X111000412Y-126680482D01*
X110875518Y-126555588D01*
X110777389Y-126408728D01*
X110709797Y-126245546D01*
X110675339Y-126072313D01*
X110675339Y-125895687D01*
X110709797Y-125722454D01*
X110777389Y-125559272D01*
X110875518Y-125412412D01*
X111000412Y-125287518D01*
X111147272Y-125189389D01*
X111310454Y-125121797D01*
X111483687Y-125087339D01*
X111660313Y-125087339D01*
X111833546Y-125121797D01*
G37*
G36*
X114373546Y-125121797D02*
G01*
X114536728Y-125189389D01*
X114683588Y-125287518D01*
X114808482Y-125412412D01*
X114906611Y-125559272D01*
X114974203Y-125722454D01*
X115008661Y-125895687D01*
X115008661Y-126072313D01*
X114974203Y-126245546D01*
X114906611Y-126408728D01*
X114808482Y-126555588D01*
X114683588Y-126680482D01*
X114536728Y-126778611D01*
X114373546Y-126846203D01*
X114200313Y-126880661D01*
X114023687Y-126880661D01*
X113850454Y-126846203D01*
X113687272Y-126778611D01*
X113540412Y-126680482D01*
X113415518Y-126555588D01*
X113317389Y-126408728D01*
X113249797Y-126245546D01*
X113215339Y-126072313D01*
X113215339Y-125895687D01*
X113249797Y-125722454D01*
X113317389Y-125559272D01*
X113415518Y-125412412D01*
X113540412Y-125287518D01*
X113687272Y-125189389D01*
X113850454Y-125121797D01*
X114023687Y-125087339D01*
X114200313Y-125087339D01*
X114373546Y-125121797D01*
G37*
G36*
X116913546Y-125121797D02*
G01*
X117076728Y-125189389D01*
X117223588Y-125287518D01*
X117348482Y-125412412D01*
X117446611Y-125559272D01*
X117514203Y-125722454D01*
X117548661Y-125895687D01*
X117548661Y-126072313D01*
X117514203Y-126245546D01*
X117446611Y-126408728D01*
X117348482Y-126555588D01*
X117223588Y-126680482D01*
X117076728Y-126778611D01*
X116913546Y-126846203D01*
X116740313Y-126880661D01*
X116563687Y-126880661D01*
X116390454Y-126846203D01*
X116227272Y-126778611D01*
X116080412Y-126680482D01*
X115955518Y-126555588D01*
X115857389Y-126408728D01*
X115789797Y-126245546D01*
X115755339Y-126072313D01*
X115755339Y-125895687D01*
X115789797Y-125722454D01*
X115857389Y-125559272D01*
X115955518Y-125412412D01*
X116080412Y-125287518D01*
X116227272Y-125189389D01*
X116390454Y-125121797D01*
X116563687Y-125087339D01*
X116740313Y-125087339D01*
X116913546Y-125121797D01*
G37*
G36*
X123009546Y-125121797D02*
G01*
X123172728Y-125189389D01*
X123319588Y-125287518D01*
X123444482Y-125412412D01*
X123542611Y-125559272D01*
X123610203Y-125722454D01*
X123644661Y-125895687D01*
X123644661Y-126072313D01*
X123610203Y-126245546D01*
X123542611Y-126408728D01*
X123444482Y-126555588D01*
X123319588Y-126680482D01*
X123172728Y-126778611D01*
X123009546Y-126846203D01*
X122836313Y-126880661D01*
X122659687Y-126880661D01*
X122486454Y-126846203D01*
X122323272Y-126778611D01*
X122176412Y-126680482D01*
X122051518Y-126555588D01*
X121953389Y-126408728D01*
X121885797Y-126245546D01*
X121851339Y-126072313D01*
X121851339Y-125895687D01*
X121885797Y-125722454D01*
X121953389Y-125559272D01*
X122051518Y-125412412D01*
X122176412Y-125287518D01*
X122323272Y-125189389D01*
X122486454Y-125121797D01*
X122659687Y-125087339D01*
X122836313Y-125087339D01*
X123009546Y-125121797D01*
G37*
G36*
X125549546Y-125121797D02*
G01*
X125712728Y-125189389D01*
X125859588Y-125287518D01*
X125984482Y-125412412D01*
X126082611Y-125559272D01*
X126150203Y-125722454D01*
X126184661Y-125895687D01*
X126184661Y-126072313D01*
X126150203Y-126245546D01*
X126082611Y-126408728D01*
X125984482Y-126555588D01*
X125859588Y-126680482D01*
X125712728Y-126778611D01*
X125549546Y-126846203D01*
X125376313Y-126880661D01*
X125199687Y-126880661D01*
X125026454Y-126846203D01*
X124863272Y-126778611D01*
X124716412Y-126680482D01*
X124591518Y-126555588D01*
X124493389Y-126408728D01*
X124425797Y-126245546D01*
X124391339Y-126072313D01*
X124391339Y-125895687D01*
X124425797Y-125722454D01*
X124493389Y-125559272D01*
X124591518Y-125412412D01*
X124716412Y-125287518D01*
X124863272Y-125189389D01*
X125026454Y-125121797D01*
X125199687Y-125087339D01*
X125376313Y-125087339D01*
X125549546Y-125121797D01*
G37*
G36*
X128089546Y-125121797D02*
G01*
X128252728Y-125189389D01*
X128399588Y-125287518D01*
X128524482Y-125412412D01*
X128622611Y-125559272D01*
X128690203Y-125722454D01*
X128724661Y-125895687D01*
X128724661Y-126072313D01*
X128690203Y-126245546D01*
X128622611Y-126408728D01*
X128524482Y-126555588D01*
X128399588Y-126680482D01*
X128252728Y-126778611D01*
X128089546Y-126846203D01*
X127916313Y-126880661D01*
X127739687Y-126880661D01*
X127566454Y-126846203D01*
X127403272Y-126778611D01*
X127256412Y-126680482D01*
X127131518Y-126555588D01*
X127033389Y-126408728D01*
X126965797Y-126245546D01*
X126931339Y-126072313D01*
X126931339Y-125895687D01*
X126965797Y-125722454D01*
X127033389Y-125559272D01*
X127131518Y-125412412D01*
X127256412Y-125287518D01*
X127403272Y-125189389D01*
X127566454Y-125121797D01*
X127739687Y-125087339D01*
X127916313Y-125087339D01*
X128089546Y-125121797D01*
G37*
G36*
X148409546Y-125121797D02*
G01*
X148572728Y-125189389D01*
X148719588Y-125287518D01*
X148844482Y-125412412D01*
X148942611Y-125559272D01*
X149010203Y-125722454D01*
X149044661Y-125895687D01*
X149044661Y-126072313D01*
X149010203Y-126245546D01*
X148942611Y-126408728D01*
X148844482Y-126555588D01*
X148719588Y-126680482D01*
X148572728Y-126778611D01*
X148409546Y-126846203D01*
X148236313Y-126880661D01*
X148059687Y-126880661D01*
X147886454Y-126846203D01*
X147723272Y-126778611D01*
X147576412Y-126680482D01*
X147451518Y-126555588D01*
X147353389Y-126408728D01*
X147285797Y-126245546D01*
X147251339Y-126072313D01*
X147251339Y-125895687D01*
X147285797Y-125722454D01*
X147353389Y-125559272D01*
X147451518Y-125412412D01*
X147576412Y-125287518D01*
X147723272Y-125189389D01*
X147886454Y-125121797D01*
X148059687Y-125087339D01*
X148236313Y-125087339D01*
X148409546Y-125121797D01*
G37*
G36*
X150949546Y-125121797D02*
G01*
X151112728Y-125189389D01*
X151259588Y-125287518D01*
X151384482Y-125412412D01*
X151482611Y-125559272D01*
X151550203Y-125722454D01*
X151584661Y-125895687D01*
X151584661Y-126072313D01*
X151550203Y-126245546D01*
X151482611Y-126408728D01*
X151384482Y-126555588D01*
X151259588Y-126680482D01*
X151112728Y-126778611D01*
X150949546Y-126846203D01*
X150776313Y-126880661D01*
X150599687Y-126880661D01*
X150426454Y-126846203D01*
X150263272Y-126778611D01*
X150116412Y-126680482D01*
X149991518Y-126555588D01*
X149893389Y-126408728D01*
X149825797Y-126245546D01*
X149791339Y-126072313D01*
X149791339Y-125895687D01*
X149825797Y-125722454D01*
X149893389Y-125559272D01*
X149991518Y-125412412D01*
X150116412Y-125287518D01*
X150263272Y-125189389D01*
X150426454Y-125121797D01*
X150599687Y-125087339D01*
X150776313Y-125087339D01*
X150949546Y-125121797D01*
G37*
G36*
X153489546Y-125121797D02*
G01*
X153652728Y-125189389D01*
X153799588Y-125287518D01*
X153924482Y-125412412D01*
X154022611Y-125559272D01*
X154090203Y-125722454D01*
X154124661Y-125895687D01*
X154124661Y-126072313D01*
X154090203Y-126245546D01*
X154022611Y-126408728D01*
X153924482Y-126555588D01*
X153799588Y-126680482D01*
X153652728Y-126778611D01*
X153489546Y-126846203D01*
X153316313Y-126880661D01*
X153139687Y-126880661D01*
X152966454Y-126846203D01*
X152803272Y-126778611D01*
X152656412Y-126680482D01*
X152531518Y-126555588D01*
X152433389Y-126408728D01*
X152365797Y-126245546D01*
X152331339Y-126072313D01*
X152331339Y-125895687D01*
X152365797Y-125722454D01*
X152433389Y-125559272D01*
X152531518Y-125412412D01*
X152656412Y-125287518D01*
X152803272Y-125189389D01*
X152966454Y-125121797D01*
X153139687Y-125087339D01*
X153316313Y-125087339D01*
X153489546Y-125121797D01*
G37*
G36*
X140778662Y-122126606D02*
G01*
X140932789Y-122190447D01*
X141071499Y-122283130D01*
X141189462Y-122401093D01*
X141282145Y-122539803D01*
X141345986Y-122693930D01*
X141378532Y-122857549D01*
X141378532Y-123024375D01*
X141345986Y-123187994D01*
X141282145Y-123342121D01*
X141189462Y-123480831D01*
X141071499Y-123598794D01*
X140932789Y-123691477D01*
X140778662Y-123755318D01*
X140615043Y-123787864D01*
X140448217Y-123787864D01*
X140284598Y-123755318D01*
X140130471Y-123691477D01*
X139991761Y-123598794D01*
X139873798Y-123480831D01*
X139781115Y-123342121D01*
X139717274Y-123187994D01*
X139684728Y-123024375D01*
X139684728Y-122857549D01*
X139717274Y-122693930D01*
X139781115Y-122539803D01*
X139873798Y-122401093D01*
X139991761Y-122283130D01*
X140130471Y-122190447D01*
X140284598Y-122126606D01*
X140448217Y-122094060D01*
X140615043Y-122094060D01*
X140778662Y-122126606D01*
G37*
G36*
X136461546Y-121937797D02*
G01*
X136624728Y-122005389D01*
X136771588Y-122103518D01*
X136896482Y-122228412D01*
X136994611Y-122375272D01*
X137062203Y-122538454D01*
X137096661Y-122711687D01*
X137096661Y-122888313D01*
X137062203Y-123061546D01*
X136994611Y-123224728D01*
X136896482Y-123371588D01*
X136771588Y-123496482D01*
X136624728Y-123594611D01*
X136461546Y-123662203D01*
X136288313Y-123696661D01*
X136111687Y-123696661D01*
X135938454Y-123662203D01*
X135775272Y-123594611D01*
X135628412Y-123496482D01*
X135503518Y-123371588D01*
X135405389Y-123224728D01*
X135337797Y-123061546D01*
X135303339Y-122888313D01*
X135303339Y-122711687D01*
X135337797Y-122538454D01*
X135405389Y-122375272D01*
X135503518Y-122228412D01*
X135628412Y-122103518D01*
X135775272Y-122005389D01*
X135938454Y-121937797D01*
X136111687Y-121903339D01*
X136288313Y-121903339D01*
X136461546Y-121937797D01*
G37*
G36*
X131269517Y-120702882D02*
G01*
X131286062Y-120713938D01*
X131297118Y-120730483D01*
X131301000Y-120750000D01*
X131301000Y-122450000D01*
X131297118Y-122469517D01*
X131286062Y-122486062D01*
X131269517Y-122497118D01*
X131250000Y-122501000D01*
X129550000Y-122501000D01*
X129530483Y-122497118D01*
X129513938Y-122486062D01*
X129502882Y-122469517D01*
X129499000Y-122450000D01*
X129499000Y-120750000D01*
X129502882Y-120730483D01*
X129513938Y-120713938D01*
X129530483Y-120702882D01*
X129550000Y-120699000D01*
X131250000Y-120699000D01*
X131269517Y-120702882D01*
G37*
G36*
X140337596Y-119625195D02*
G01*
X140491723Y-119689036D01*
X140630433Y-119781719D01*
X140748396Y-119899682D01*
X140841079Y-120038392D01*
X140904920Y-120192519D01*
X140937466Y-120356138D01*
X140937466Y-120522964D01*
X140904920Y-120686583D01*
X140841079Y-120840710D01*
X140748396Y-120979420D01*
X140630433Y-121097383D01*
X140491723Y-121190066D01*
X140337596Y-121253907D01*
X140173977Y-121286453D01*
X140007151Y-121286453D01*
X139843532Y-121253907D01*
X139689405Y-121190066D01*
X139550695Y-121097383D01*
X139432732Y-120979420D01*
X139340049Y-120840710D01*
X139276208Y-120686583D01*
X139243662Y-120522964D01*
X139243662Y-120356138D01*
X139276208Y-120192519D01*
X139340049Y-120038392D01*
X139432732Y-119899682D01*
X139550695Y-119781719D01*
X139689405Y-119689036D01*
X139843532Y-119625195D01*
X140007151Y-119592649D01*
X140173977Y-119592649D01*
X140337596Y-119625195D01*
G37*
G36*
X137069517Y-119362882D02*
G01*
X137086062Y-119373938D01*
X137097118Y-119390483D01*
X137101000Y-119410000D01*
X137101000Y-121110000D01*
X137097118Y-121129517D01*
X137086062Y-121146062D01*
X137069517Y-121157118D01*
X137050000Y-121161000D01*
X135350000Y-121161000D01*
X135330483Y-121157118D01*
X135313938Y-121146062D01*
X135302882Y-121129517D01*
X135299000Y-121110000D01*
X135299000Y-119410000D01*
X135302882Y-119390483D01*
X135313938Y-119373938D01*
X135330483Y-119362882D01*
X135350000Y-119359000D01*
X137050000Y-119359000D01*
X137069517Y-119362882D01*
G37*
G36*
X155787131Y-119480210D02*
G01*
X155941258Y-119544051D01*
X156079968Y-119636734D01*
X156197931Y-119754697D01*
X156290614Y-119893407D01*
X156354455Y-120047534D01*
X156387001Y-120211153D01*
X156387001Y-120377979D01*
X156354455Y-120541598D01*
X156290614Y-120695725D01*
X156197931Y-120834435D01*
X156079968Y-120952398D01*
X155941258Y-121045081D01*
X155787131Y-121108922D01*
X155623512Y-121141468D01*
X155456686Y-121141468D01*
X155293067Y-121108922D01*
X155138940Y-121045081D01*
X155000230Y-120952398D01*
X154882267Y-120834435D01*
X154789584Y-120695725D01*
X154725743Y-120541598D01*
X154693197Y-120377979D01*
X154693197Y-120211153D01*
X154725743Y-120047534D01*
X154789584Y-119893407D01*
X154882267Y-119754697D01*
X155000230Y-119636734D01*
X155138940Y-119544051D01*
X155293067Y-119480210D01*
X155456686Y-119447664D01*
X155623512Y-119447664D01*
X155787131Y-119480210D01*
G37*
G36*
X130661546Y-118197797D02*
G01*
X130824728Y-118265389D01*
X130971588Y-118363518D01*
X131096482Y-118488412D01*
X131194611Y-118635272D01*
X131262203Y-118798454D01*
X131296661Y-118971687D01*
X131296661Y-119148313D01*
X131262203Y-119321546D01*
X131194611Y-119484728D01*
X131096482Y-119631588D01*
X130971588Y-119756482D01*
X130824728Y-119854611D01*
X130661546Y-119922203D01*
X130488313Y-119956661D01*
X130311687Y-119956661D01*
X130138454Y-119922203D01*
X129975272Y-119854611D01*
X129828412Y-119756482D01*
X129703518Y-119631588D01*
X129605389Y-119484728D01*
X129537797Y-119321546D01*
X129503339Y-119148313D01*
X129503339Y-118971687D01*
X129537797Y-118798454D01*
X129605389Y-118635272D01*
X129703518Y-118488412D01*
X129828412Y-118363518D01*
X129975272Y-118265389D01*
X130138454Y-118197797D01*
X130311687Y-118163339D01*
X130488313Y-118163339D01*
X130661546Y-118197797D01*
G37*
G36*
X113756460Y-117263105D02*
G01*
X113796227Y-117292185D01*
X113826822Y-117312054D01*
X113831793Y-117318193D01*
X113845751Y-117328400D01*
X113887132Y-117384083D01*
X114537132Y-118509917D01*
X114564665Y-118573595D01*
X114566525Y-118590784D01*
X114569356Y-118598159D01*
X114571264Y-118634583D01*
X114576566Y-118683571D01*
X114547936Y-118790418D01*
X114518848Y-118830195D01*
X114498986Y-118860781D01*
X114492849Y-118865750D01*
X114482642Y-118879709D01*
X114426958Y-118921090D01*
X113864042Y-119246090D01*
X113800363Y-119273623D01*
X113783172Y-119275483D01*
X113775798Y-119278314D01*
X113739375Y-119280222D01*
X113690388Y-119285524D01*
X113583540Y-119256895D01*
X113543767Y-119227811D01*
X113513177Y-119207945D01*
X113508205Y-119201806D01*
X113494249Y-119191600D01*
X113452868Y-119135917D01*
X112802868Y-118010083D01*
X112775335Y-117946405D01*
X112773475Y-117929217D01*
X112770643Y-117921840D01*
X112768733Y-117885399D01*
X112763434Y-117836429D01*
X112792064Y-117729582D01*
X112821136Y-117689824D01*
X112841013Y-117659218D01*
X112847153Y-117654245D01*
X112857358Y-117640291D01*
X112913042Y-117598910D01*
X113475958Y-117273910D01*
X113539637Y-117246377D01*
X113556822Y-117244517D01*
X113564201Y-117241685D01*
X113600643Y-117239775D01*
X113649612Y-117234476D01*
X113756460Y-117263105D01*
G37*
G36*
X139896530Y-117123784D02*
G01*
X140050657Y-117187625D01*
X140189367Y-117280308D01*
X140307330Y-117398271D01*
X140400013Y-117536981D01*
X140463854Y-117691108D01*
X140496400Y-117854727D01*
X140496400Y-118021553D01*
X140463854Y-118185172D01*
X140400013Y-118339299D01*
X140307330Y-118478009D01*
X140189367Y-118595972D01*
X140050657Y-118688655D01*
X139896530Y-118752496D01*
X139732911Y-118785042D01*
X139566085Y-118785042D01*
X139402466Y-118752496D01*
X139248339Y-118688655D01*
X139109629Y-118595972D01*
X138991666Y-118478009D01*
X138898983Y-118339299D01*
X138835142Y-118185172D01*
X138802596Y-118021553D01*
X138802596Y-117854727D01*
X138835142Y-117691108D01*
X138898983Y-117536981D01*
X138991666Y-117398271D01*
X139109629Y-117280308D01*
X139248339Y-117187625D01*
X139402466Y-117123784D01*
X139566085Y-117091238D01*
X139732911Y-117091238D01*
X139896530Y-117123784D01*
G37*
G36*
X155346066Y-116978798D02*
G01*
X155500193Y-117042639D01*
X155638903Y-117135322D01*
X155756866Y-117253285D01*
X155849549Y-117391995D01*
X155913390Y-117546122D01*
X155945936Y-117709741D01*
X155945936Y-117876567D01*
X155913390Y-118040186D01*
X155849549Y-118194313D01*
X155756866Y-118333023D01*
X155638903Y-118450986D01*
X155500193Y-118543669D01*
X155346066Y-118607510D01*
X155182447Y-118640056D01*
X155015621Y-118640056D01*
X154852002Y-118607510D01*
X154697875Y-118543669D01*
X154559165Y-118450986D01*
X154441202Y-118333023D01*
X154348519Y-118194313D01*
X154284678Y-118040186D01*
X154252132Y-117876567D01*
X154252132Y-117709741D01*
X154284678Y-117546122D01*
X154348519Y-117391995D01*
X154441202Y-117253285D01*
X154559165Y-117135322D01*
X154697875Y-117042639D01*
X154852002Y-116978798D01*
X155015621Y-116946252D01*
X155182447Y-116946252D01*
X155346066Y-116978798D01*
G37*
G36*
X116311234Y-115788105D02*
G01*
X116351001Y-115817185D01*
X116381596Y-115837054D01*
X116386567Y-115843193D01*
X116400525Y-115853400D01*
X116441906Y-115909083D01*
X117091906Y-117034917D01*
X117119439Y-117098595D01*
X117121299Y-117115784D01*
X117124130Y-117123159D01*
X117126038Y-117159583D01*
X117131340Y-117208571D01*
X117102710Y-117315418D01*
X117073622Y-117355195D01*
X117053760Y-117385781D01*
X117047623Y-117390750D01*
X117037416Y-117404709D01*
X116981732Y-117446090D01*
X116418816Y-117771090D01*
X116355137Y-117798623D01*
X116337946Y-117800483D01*
X116330572Y-117803314D01*
X116294149Y-117805222D01*
X116245162Y-117810524D01*
X116138314Y-117781895D01*
X116098541Y-117752811D01*
X116067951Y-117732945D01*
X116062979Y-117726806D01*
X116049023Y-117716600D01*
X116007642Y-117660917D01*
X115357642Y-116535083D01*
X115330109Y-116471405D01*
X115328249Y-116454217D01*
X115325417Y-116446840D01*
X115323507Y-116410399D01*
X115318208Y-116361429D01*
X115346838Y-116254582D01*
X115375910Y-116214824D01*
X115395787Y-116184218D01*
X115401927Y-116179245D01*
X115412132Y-116165291D01*
X115467816Y-116123910D01*
X115936353Y-115853400D01*
X116022210Y-115803830D01*
X116022210Y-115803829D01*
X116030732Y-115798910D01*
X116094411Y-115771377D01*
X116111596Y-115769517D01*
X116118975Y-115766685D01*
X116155417Y-115764775D01*
X116204386Y-115759476D01*
X116311234Y-115788105D01*
G37*
G36*
X130661546Y-115657797D02*
G01*
X130824728Y-115725389D01*
X130971588Y-115823518D01*
X131096482Y-115948412D01*
X131194611Y-116095272D01*
X131262203Y-116258454D01*
X131296661Y-116431687D01*
X131296661Y-116608313D01*
X131262203Y-116781546D01*
X131194611Y-116944728D01*
X131096482Y-117091588D01*
X130971588Y-117216482D01*
X130824728Y-117314611D01*
X130661546Y-117382203D01*
X130488313Y-117416661D01*
X130311687Y-117416661D01*
X130138454Y-117382203D01*
X129975272Y-117314611D01*
X129828412Y-117216482D01*
X129703518Y-117091588D01*
X129605389Y-116944728D01*
X129537797Y-116781546D01*
X129503339Y-116608313D01*
X129503339Y-116431687D01*
X129537797Y-116258454D01*
X129605389Y-116095272D01*
X129703518Y-115948412D01*
X129828412Y-115823518D01*
X129975272Y-115725389D01*
X130138454Y-115657797D01*
X130311687Y-115623339D01*
X130488313Y-115623339D01*
X130661546Y-115657797D01*
G37*
G36*
X139455464Y-114622371D02*
G01*
X139609591Y-114686212D01*
X139748301Y-114778895D01*
X139866264Y-114896858D01*
X139958947Y-115035568D01*
X140022788Y-115189695D01*
X140055334Y-115353314D01*
X140055334Y-115520140D01*
X140022788Y-115683759D01*
X139958947Y-115837886D01*
X139866264Y-115976596D01*
X139748301Y-116094559D01*
X139609591Y-116187242D01*
X139455464Y-116251083D01*
X139291845Y-116283629D01*
X139125019Y-116283629D01*
X138961400Y-116251083D01*
X138807273Y-116187242D01*
X138668563Y-116094559D01*
X138550600Y-115976596D01*
X138457917Y-115837886D01*
X138394076Y-115683759D01*
X138361530Y-115520140D01*
X138361530Y-115353314D01*
X138394076Y-115189695D01*
X138457917Y-115035568D01*
X138550600Y-114896858D01*
X138668563Y-114778895D01*
X138807273Y-114686212D01*
X138961400Y-114622371D01*
X139125019Y-114589825D01*
X139291845Y-114589825D01*
X139455464Y-114622371D01*
G37*
G36*
X154904998Y-114477386D02*
G01*
X155059125Y-114541227D01*
X155197835Y-114633910D01*
X155315798Y-114751873D01*
X155408481Y-114890583D01*
X155472322Y-115044710D01*
X155504868Y-115208329D01*
X155504868Y-115375155D01*
X155472322Y-115538774D01*
X155408481Y-115692901D01*
X155315798Y-115831611D01*
X155197835Y-115949574D01*
X155059125Y-116042257D01*
X154904998Y-116106098D01*
X154741379Y-116138644D01*
X154574553Y-116138644D01*
X154410934Y-116106098D01*
X154256807Y-116042257D01*
X154118097Y-115949574D01*
X154000134Y-115831611D01*
X153907451Y-115692901D01*
X153843610Y-115538774D01*
X153811064Y-115375155D01*
X153811064Y-115208329D01*
X153843610Y-115044710D01*
X153907451Y-114890583D01*
X154000134Y-114751873D01*
X154118097Y-114633910D01*
X154256807Y-114541227D01*
X154410934Y-114477386D01*
X154574553Y-114444840D01*
X154741379Y-114444840D01*
X154904998Y-114477386D01*
G37*
G36*
X139014396Y-112120960D02*
G01*
X139168523Y-112184801D01*
X139307233Y-112277484D01*
X139425196Y-112395447D01*
X139517879Y-112534157D01*
X139581720Y-112688284D01*
X139614266Y-112851903D01*
X139614266Y-113018729D01*
X139581720Y-113182348D01*
X139517879Y-113336475D01*
X139425196Y-113475185D01*
X139307233Y-113593148D01*
X139168523Y-113685831D01*
X139014396Y-113749672D01*
X138850777Y-113782218D01*
X138683951Y-113782218D01*
X138520332Y-113749672D01*
X138366205Y-113685831D01*
X138227495Y-113593148D01*
X138109532Y-113475185D01*
X138016849Y-113336475D01*
X137953008Y-113182348D01*
X137920462Y-113018729D01*
X137920462Y-112851903D01*
X137953008Y-112688284D01*
X138016849Y-112534157D01*
X138109532Y-112395447D01*
X138227495Y-112277484D01*
X138366205Y-112184801D01*
X138520332Y-112120960D01*
X138683951Y-112088414D01*
X138850777Y-112088414D01*
X139014396Y-112120960D01*
G37*
G36*
X154463932Y-111975973D02*
G01*
X154618059Y-112039814D01*
X154756769Y-112132497D01*
X154874732Y-112250460D01*
X154967415Y-112389170D01*
X155031256Y-112543297D01*
X155063802Y-112706916D01*
X155063802Y-112873742D01*
X155031256Y-113037361D01*
X154967415Y-113191488D01*
X154874732Y-113330198D01*
X154756769Y-113448161D01*
X154618059Y-113540844D01*
X154463932Y-113604685D01*
X154300313Y-113637231D01*
X154133487Y-113637231D01*
X153969868Y-113604685D01*
X153815741Y-113540844D01*
X153677031Y-113448161D01*
X153559068Y-113330198D01*
X153466385Y-113191488D01*
X153402544Y-113037361D01*
X153369998Y-112873742D01*
X153369998Y-112706916D01*
X153402544Y-112543297D01*
X153466385Y-112389170D01*
X153559068Y-112250460D01*
X153677031Y-112132497D01*
X153815741Y-112039814D01*
X153969868Y-111975973D01*
X154133487Y-111943427D01*
X154300313Y-111943427D01*
X154463932Y-111975973D01*
G37*
G36*
X138573331Y-109619549D02*
G01*
X138727458Y-109683390D01*
X138866168Y-109776073D01*
X138984131Y-109894036D01*
X139076814Y-110032746D01*
X139140655Y-110186873D01*
X139173201Y-110350492D01*
X139173201Y-110517318D01*
X139140655Y-110680937D01*
X139076814Y-110835064D01*
X138984131Y-110973774D01*
X138866168Y-111091737D01*
X138727458Y-111184420D01*
X138573331Y-111248261D01*
X138409712Y-111280807D01*
X138242886Y-111280807D01*
X138079267Y-111248261D01*
X137925140Y-111184420D01*
X137786430Y-111091737D01*
X137668467Y-110973774D01*
X137575784Y-110835064D01*
X137511943Y-110680937D01*
X137479397Y-110517318D01*
X137479397Y-110350492D01*
X137511943Y-110186873D01*
X137575784Y-110032746D01*
X137668467Y-109894036D01*
X137786430Y-109776073D01*
X137925140Y-109683390D01*
X138079267Y-109619549D01*
X138242886Y-109587003D01*
X138409712Y-109587003D01*
X138573331Y-109619549D01*
G37*
G36*
X154022866Y-109474560D02*
G01*
X154176993Y-109538401D01*
X154315703Y-109631084D01*
X154433666Y-109749047D01*
X154526349Y-109887757D01*
X154590190Y-110041884D01*
X154622736Y-110205503D01*
X154622736Y-110372329D01*
X154590190Y-110535948D01*
X154526349Y-110690075D01*
X154433666Y-110828785D01*
X154315703Y-110946748D01*
X154176993Y-111039431D01*
X154022866Y-111103272D01*
X153859247Y-111135818D01*
X153692421Y-111135818D01*
X153528802Y-111103272D01*
X153374675Y-111039431D01*
X153235965Y-110946748D01*
X153118002Y-110828785D01*
X153025319Y-110690075D01*
X152961478Y-110535948D01*
X152928932Y-110372329D01*
X152928932Y-110205503D01*
X152961478Y-110041884D01*
X153025319Y-109887757D01*
X153118002Y-109749047D01*
X153235965Y-109631084D01*
X153374675Y-109538401D01*
X153528802Y-109474560D01*
X153692421Y-109442014D01*
X153859247Y-109442014D01*
X154022866Y-109474560D01*
G37*
G36*
X138132264Y-107118137D02*
G01*
X138286391Y-107181978D01*
X138425101Y-107274661D01*
X138543064Y-107392624D01*
X138635747Y-107531334D01*
X138699588Y-107685461D01*
X138732134Y-107849080D01*
X138732134Y-108015906D01*
X138699588Y-108179525D01*
X138635747Y-108333652D01*
X138543064Y-108472362D01*
X138425101Y-108590325D01*
X138286391Y-108683008D01*
X138132264Y-108746849D01*
X137968645Y-108779395D01*
X137801819Y-108779395D01*
X137638200Y-108746849D01*
X137484073Y-108683008D01*
X137345363Y-108590325D01*
X137227400Y-108472362D01*
X137134717Y-108333652D01*
X137070876Y-108179525D01*
X137038330Y-108015906D01*
X137038330Y-107849080D01*
X137070876Y-107685461D01*
X137134717Y-107531334D01*
X137227400Y-107392624D01*
X137345363Y-107274661D01*
X137484073Y-107181978D01*
X137638200Y-107118137D01*
X137801819Y-107085591D01*
X137968645Y-107085591D01*
X138132264Y-107118137D01*
G37*
G36*
X153581800Y-106973151D02*
G01*
X153735927Y-107036992D01*
X153874637Y-107129675D01*
X153992600Y-107247638D01*
X154085283Y-107386348D01*
X154149124Y-107540475D01*
X154181670Y-107704094D01*
X154181670Y-107870920D01*
X154149124Y-108034539D01*
X154085283Y-108188666D01*
X153992600Y-108327376D01*
X153874637Y-108445339D01*
X153735927Y-108538022D01*
X153581800Y-108601863D01*
X153418181Y-108634409D01*
X153251355Y-108634409D01*
X153087736Y-108601863D01*
X152933609Y-108538022D01*
X152794899Y-108445339D01*
X152676936Y-108327376D01*
X152584253Y-108188666D01*
X152520412Y-108034539D01*
X152487866Y-107870920D01*
X152487866Y-107704094D01*
X152520412Y-107540475D01*
X152584253Y-107386348D01*
X152676936Y-107247638D01*
X152794899Y-107129675D01*
X152933609Y-107036992D01*
X153087736Y-106973151D01*
X153251355Y-106940605D01*
X153418181Y-106940605D01*
X153581800Y-106973151D01*
G37*
G36*
X132661546Y-105817797D02*
G01*
X132824728Y-105885389D01*
X132971588Y-105983518D01*
X133096482Y-106108412D01*
X133194611Y-106255272D01*
X133262203Y-106418454D01*
X133296661Y-106591687D01*
X133296661Y-106768313D01*
X133262203Y-106941546D01*
X133194611Y-107104728D01*
X133096482Y-107251588D01*
X132971588Y-107376482D01*
X132824728Y-107474611D01*
X132661546Y-107542203D01*
X132488313Y-107576661D01*
X132311687Y-107576661D01*
X132138454Y-107542203D01*
X131975272Y-107474611D01*
X131828412Y-107376482D01*
X131703518Y-107251588D01*
X131605389Y-107104728D01*
X131537797Y-106941546D01*
X131503339Y-106768313D01*
X131503339Y-106591687D01*
X131537797Y-106418454D01*
X131605389Y-106255272D01*
X131703518Y-106108412D01*
X131828412Y-105983518D01*
X131975272Y-105885389D01*
X132138454Y-105817797D01*
X132311687Y-105783339D01*
X132488313Y-105783339D01*
X132661546Y-105817797D01*
G37*
G36*
X156562546Y-104547797D02*
G01*
X156725728Y-104615389D01*
X156872588Y-104713518D01*
X156997482Y-104838412D01*
X157095611Y-104985272D01*
X157163203Y-105148454D01*
X157197661Y-105321687D01*
X157197661Y-105498313D01*
X157163203Y-105671546D01*
X157095611Y-105834728D01*
X156997482Y-105981588D01*
X156872588Y-106106482D01*
X156725728Y-106204611D01*
X156562546Y-106272203D01*
X156389313Y-106306661D01*
X156212687Y-106306661D01*
X156039454Y-106272203D01*
X155876272Y-106204611D01*
X155729412Y-106106482D01*
X155604518Y-105981588D01*
X155506389Y-105834728D01*
X155438797Y-105671546D01*
X155404339Y-105498313D01*
X155404339Y-105321687D01*
X155438797Y-105148454D01*
X155506389Y-104985272D01*
X155604518Y-104838412D01*
X155729412Y-104713518D01*
X155876272Y-104615389D01*
X156039454Y-104547797D01*
X156212687Y-104513339D01*
X156389313Y-104513339D01*
X156562546Y-104547797D01*
G37*
G36*
X137691198Y-104616728D02*
G01*
X137845325Y-104680569D01*
X137984035Y-104773252D01*
X138101998Y-104891215D01*
X138194681Y-105029925D01*
X138258522Y-105184052D01*
X138291068Y-105347671D01*
X138291068Y-105514497D01*
X138258522Y-105678116D01*
X138194681Y-105832243D01*
X138101998Y-105970953D01*
X137984035Y-106088916D01*
X137845325Y-106181599D01*
X137691198Y-106245440D01*
X137527579Y-106277986D01*
X137360753Y-106277986D01*
X137197134Y-106245440D01*
X137043007Y-106181599D01*
X136904297Y-106088916D01*
X136786334Y-105970953D01*
X136693651Y-105832243D01*
X136629810Y-105678116D01*
X136597264Y-105514497D01*
X136597264Y-105347671D01*
X136629810Y-105184052D01*
X136693651Y-105029925D01*
X136786334Y-104891215D01*
X136904297Y-104773252D01*
X137043007Y-104680569D01*
X137197134Y-104616728D01*
X137360753Y-104584182D01*
X137527579Y-104584182D01*
X137691198Y-104616728D01*
G37*
G36*
X153140733Y-104471739D02*
G01*
X153294860Y-104535580D01*
X153433570Y-104628263D01*
X153551533Y-104746226D01*
X153644216Y-104884936D01*
X153708057Y-105039063D01*
X153740603Y-105202682D01*
X153740603Y-105369508D01*
X153708057Y-105533127D01*
X153644216Y-105687254D01*
X153551533Y-105825964D01*
X153433570Y-105943927D01*
X153294860Y-106036610D01*
X153140733Y-106100451D01*
X152977114Y-106132997D01*
X152810288Y-106132997D01*
X152646669Y-106100451D01*
X152492542Y-106036610D01*
X152353832Y-105943927D01*
X152235869Y-105825964D01*
X152143186Y-105687254D01*
X152079345Y-105533127D01*
X152046799Y-105369508D01*
X152046799Y-105202682D01*
X152079345Y-105039063D01*
X152143186Y-104884936D01*
X152235869Y-104746226D01*
X152353832Y-104628263D01*
X152492542Y-104535580D01*
X152646669Y-104471739D01*
X152810288Y-104439193D01*
X152977114Y-104439193D01*
X153140733Y-104471739D01*
G37*
G36*
X132661546Y-103277797D02*
G01*
X132824728Y-103345389D01*
X132971588Y-103443518D01*
X133096482Y-103568412D01*
X133194611Y-103715272D01*
X133262203Y-103878454D01*
X133296661Y-104051687D01*
X133296661Y-104228313D01*
X133262203Y-104401546D01*
X133194611Y-104564728D01*
X133096482Y-104711588D01*
X132971588Y-104836482D01*
X132824728Y-104934611D01*
X132661546Y-105002203D01*
X132488313Y-105036661D01*
X132311687Y-105036661D01*
X132138454Y-105002203D01*
X131975272Y-104934611D01*
X131828412Y-104836482D01*
X131703518Y-104711588D01*
X131605389Y-104564728D01*
X131537797Y-104401546D01*
X131503339Y-104228313D01*
X131503339Y-104051687D01*
X131537797Y-103878454D01*
X131605389Y-103715272D01*
X131703518Y-103568412D01*
X131828412Y-103443518D01*
X131975272Y-103345389D01*
X132138454Y-103277797D01*
X132311687Y-103243339D01*
X132488313Y-103243339D01*
X132661546Y-103277797D01*
G37*
G36*
X137250132Y-102115315D02*
G01*
X137404259Y-102179156D01*
X137542969Y-102271839D01*
X137660932Y-102389802D01*
X137753615Y-102528512D01*
X137817456Y-102682639D01*
X137850002Y-102846258D01*
X137850002Y-103013084D01*
X137817456Y-103176703D01*
X137753615Y-103330830D01*
X137660932Y-103469540D01*
X137542969Y-103587503D01*
X137404259Y-103680186D01*
X137250132Y-103744027D01*
X137086513Y-103776573D01*
X136919687Y-103776573D01*
X136756068Y-103744027D01*
X136601941Y-103680186D01*
X136463231Y-103587503D01*
X136345268Y-103469540D01*
X136252585Y-103330830D01*
X136188744Y-103176703D01*
X136156198Y-103013084D01*
X136156198Y-102846258D01*
X136188744Y-102682639D01*
X136252585Y-102528512D01*
X136345268Y-102389802D01*
X136463231Y-102271839D01*
X136601941Y-102179156D01*
X136756068Y-102115315D01*
X136919687Y-102082769D01*
X137086513Y-102082769D01*
X137250132Y-102115315D01*
G37*
G36*
X156562546Y-102007797D02*
G01*
X156725728Y-102075389D01*
X156872588Y-102173518D01*
X156997482Y-102298412D01*
X157095611Y-102445272D01*
X157163203Y-102608454D01*
X157197661Y-102781687D01*
X157197661Y-102958313D01*
X157163203Y-103131546D01*
X157095611Y-103294728D01*
X156997482Y-103441588D01*
X156872588Y-103566482D01*
X156725728Y-103664611D01*
X156562546Y-103732203D01*
X156389313Y-103766661D01*
X156212687Y-103766661D01*
X156039454Y-103732203D01*
X155876272Y-103664611D01*
X155729412Y-103566482D01*
X155604518Y-103441588D01*
X155506389Y-103294728D01*
X155438797Y-103131546D01*
X155404339Y-102958313D01*
X155404339Y-102781687D01*
X155438797Y-102608454D01*
X155506389Y-102445272D01*
X155604518Y-102298412D01*
X155729412Y-102173518D01*
X155876272Y-102075389D01*
X156039454Y-102007797D01*
X156212687Y-101973339D01*
X156389313Y-101973339D01*
X156562546Y-102007797D01*
G37*
G36*
X152699668Y-101970328D02*
G01*
X152853795Y-102034169D01*
X152992505Y-102126852D01*
X153110468Y-102244815D01*
X153203151Y-102383525D01*
X153266992Y-102537652D01*
X153299538Y-102701271D01*
X153299538Y-102868097D01*
X153266992Y-103031716D01*
X153203151Y-103185843D01*
X153110468Y-103324553D01*
X152992505Y-103442516D01*
X152853795Y-103535199D01*
X152699668Y-103599040D01*
X152536049Y-103631586D01*
X152369223Y-103631586D01*
X152205604Y-103599040D01*
X152051477Y-103535199D01*
X151912767Y-103442516D01*
X151794804Y-103324553D01*
X151702121Y-103185843D01*
X151638280Y-103031716D01*
X151605734Y-102868097D01*
X151605734Y-102701271D01*
X151638280Y-102537652D01*
X151702121Y-102383525D01*
X151794804Y-102244815D01*
X151912767Y-102126852D01*
X152051477Y-102034169D01*
X152205604Y-101970328D01*
X152369223Y-101937782D01*
X152536049Y-101937782D01*
X152699668Y-101970328D01*
G37*
G36*
X132661546Y-100737797D02*
G01*
X132824728Y-100805389D01*
X132971588Y-100903518D01*
X133096482Y-101028412D01*
X133194611Y-101175272D01*
X133262203Y-101338454D01*
X133296661Y-101511687D01*
X133296661Y-101688313D01*
X133262203Y-101861546D01*
X133194611Y-102024728D01*
X133096482Y-102171588D01*
X132971588Y-102296482D01*
X132824728Y-102394611D01*
X132661546Y-102462203D01*
X132488313Y-102496661D01*
X132311687Y-102496661D01*
X132138454Y-102462203D01*
X131975272Y-102394611D01*
X131828412Y-102296482D01*
X131703518Y-102171588D01*
X131605389Y-102024728D01*
X131537797Y-101861546D01*
X131503339Y-101688313D01*
X131503339Y-101511687D01*
X131537797Y-101338454D01*
X131605389Y-101175272D01*
X131703518Y-101028412D01*
X131828412Y-100903518D01*
X131975272Y-100805389D01*
X132138454Y-100737797D01*
X132311687Y-100703339D01*
X132488313Y-100703339D01*
X132661546Y-100737797D01*
G37*
G36*
X136809066Y-99613902D02*
G01*
X136963193Y-99677743D01*
X137101903Y-99770426D01*
X137219866Y-99888389D01*
X137312549Y-100027099D01*
X137376390Y-100181226D01*
X137408936Y-100344845D01*
X137408936Y-100511671D01*
X137376390Y-100675290D01*
X137312549Y-100829417D01*
X137219866Y-100968127D01*
X137101903Y-101086090D01*
X136963193Y-101178773D01*
X136809066Y-101242614D01*
X136645447Y-101275160D01*
X136478621Y-101275160D01*
X136315002Y-101242614D01*
X136160875Y-101178773D01*
X136022165Y-101086090D01*
X135904202Y-100968127D01*
X135811519Y-100829417D01*
X135747678Y-100675290D01*
X135715132Y-100511671D01*
X135715132Y-100344845D01*
X135747678Y-100181226D01*
X135811519Y-100027099D01*
X135904202Y-99888389D01*
X136022165Y-99770426D01*
X136160875Y-99677743D01*
X136315002Y-99613902D01*
X136478621Y-99581356D01*
X136645447Y-99581356D01*
X136809066Y-99613902D01*
G37*
G36*
X156562546Y-99467797D02*
G01*
X156725728Y-99535389D01*
X156872588Y-99633518D01*
X156997482Y-99758412D01*
X157095611Y-99905272D01*
X157163203Y-100068454D01*
X157197661Y-100241687D01*
X157197661Y-100418313D01*
X157163203Y-100591546D01*
X157095611Y-100754728D01*
X156997482Y-100901588D01*
X156872588Y-101026482D01*
X156725728Y-101124611D01*
X156562546Y-101192203D01*
X156389313Y-101226661D01*
X156212687Y-101226661D01*
X156039454Y-101192203D01*
X155876272Y-101124611D01*
X155729412Y-101026482D01*
X155604518Y-100901588D01*
X155506389Y-100754728D01*
X155438797Y-100591546D01*
X155404339Y-100418313D01*
X155404339Y-100241687D01*
X155438797Y-100068454D01*
X155506389Y-99905272D01*
X155604518Y-99758412D01*
X155729412Y-99633518D01*
X155876272Y-99535389D01*
X156039454Y-99467797D01*
X156212687Y-99433339D01*
X156389313Y-99433339D01*
X156562546Y-99467797D01*
G37*
G36*
X152258600Y-99468917D02*
G01*
X152412727Y-99532758D01*
X152551437Y-99625441D01*
X152669400Y-99743404D01*
X152762083Y-99882114D01*
X152825924Y-100036241D01*
X152858470Y-100199860D01*
X152858470Y-100366686D01*
X152825924Y-100530305D01*
X152762083Y-100684432D01*
X152669400Y-100823142D01*
X152551437Y-100941105D01*
X152412727Y-101033788D01*
X152258600Y-101097629D01*
X152094981Y-101130175D01*
X151928155Y-101130175D01*
X151764536Y-101097629D01*
X151610409Y-101033788D01*
X151471699Y-100941105D01*
X151353736Y-100823142D01*
X151261053Y-100684432D01*
X151197212Y-100530305D01*
X151164666Y-100366686D01*
X151164666Y-100199860D01*
X151197212Y-100036241D01*
X151261053Y-99882114D01*
X151353736Y-99743404D01*
X151471699Y-99625441D01*
X151610409Y-99532758D01*
X151764536Y-99468917D01*
X151928155Y-99436371D01*
X152094981Y-99436371D01*
X152258600Y-99468917D01*
G37*
G36*
X132661546Y-98197797D02*
G01*
X132824728Y-98265389D01*
X132971588Y-98363518D01*
X133096482Y-98488412D01*
X133194611Y-98635272D01*
X133262203Y-98798454D01*
X133296661Y-98971687D01*
X133296661Y-99148313D01*
X133262203Y-99321546D01*
X133194611Y-99484728D01*
X133096482Y-99631588D01*
X132971588Y-99756482D01*
X132824728Y-99854611D01*
X132661546Y-99922203D01*
X132488313Y-99956661D01*
X132311687Y-99956661D01*
X132138454Y-99922203D01*
X131975272Y-99854611D01*
X131828412Y-99756482D01*
X131703518Y-99631588D01*
X131605389Y-99484728D01*
X131537797Y-99321546D01*
X131503339Y-99148313D01*
X131503339Y-98971687D01*
X131537797Y-98798454D01*
X131605389Y-98635272D01*
X131703518Y-98488412D01*
X131828412Y-98363518D01*
X131975272Y-98265389D01*
X132138454Y-98197797D01*
X132311687Y-98163339D01*
X132488313Y-98163339D01*
X132661546Y-98197797D01*
G37*
G36*
X136367998Y-97112490D02*
G01*
X136522125Y-97176331D01*
X136660835Y-97269014D01*
X136778798Y-97386977D01*
X136871481Y-97525687D01*
X136935322Y-97679814D01*
X136967868Y-97843433D01*
X136967868Y-98010259D01*
X136935322Y-98173878D01*
X136871481Y-98328005D01*
X136778798Y-98466715D01*
X136660835Y-98584678D01*
X136522125Y-98677361D01*
X136367998Y-98741202D01*
X136204379Y-98773748D01*
X136037553Y-98773748D01*
X135873934Y-98741202D01*
X135719807Y-98677361D01*
X135581097Y-98584678D01*
X135463134Y-98466715D01*
X135370451Y-98328005D01*
X135306610Y-98173878D01*
X135274064Y-98010259D01*
X135274064Y-97843433D01*
X135306610Y-97679814D01*
X135370451Y-97525687D01*
X135463134Y-97386977D01*
X135581097Y-97269014D01*
X135719807Y-97176331D01*
X135873934Y-97112490D01*
X136037553Y-97079944D01*
X136204379Y-97079944D01*
X136367998Y-97112490D01*
G37*
G36*
X157170517Y-96892882D02*
G01*
X157187062Y-96903938D01*
X157198118Y-96920483D01*
X157202000Y-96940000D01*
X157202000Y-98640000D01*
X157198118Y-98659517D01*
X157187062Y-98676062D01*
X157170517Y-98687118D01*
X157151000Y-98691000D01*
X155451000Y-98691000D01*
X155431483Y-98687118D01*
X155414938Y-98676062D01*
X155403882Y-98659517D01*
X155400000Y-98640000D01*
X155400000Y-96940000D01*
X155403882Y-96920483D01*
X155414938Y-96903938D01*
X155431483Y-96892882D01*
X155451000Y-96889000D01*
X157151000Y-96889000D01*
X157170517Y-96892882D01*
G37*
G36*
X151817534Y-96967504D02*
G01*
X151971661Y-97031345D01*
X152110371Y-97124028D01*
X152228334Y-97241991D01*
X152321017Y-97380701D01*
X152384858Y-97534828D01*
X152417404Y-97698447D01*
X152417404Y-97865273D01*
X152384858Y-98028892D01*
X152321017Y-98183019D01*
X152228334Y-98321729D01*
X152110371Y-98439692D01*
X151971661Y-98532375D01*
X151817534Y-98596216D01*
X151653915Y-98628762D01*
X151487089Y-98628762D01*
X151323470Y-98596216D01*
X151169343Y-98532375D01*
X151030633Y-98439692D01*
X150912670Y-98321729D01*
X150819987Y-98183019D01*
X150756146Y-98028892D01*
X150723600Y-97865273D01*
X150723600Y-97698447D01*
X150756146Y-97534828D01*
X150819987Y-97380701D01*
X150912670Y-97241991D01*
X151030633Y-97124028D01*
X151169343Y-97031345D01*
X151323470Y-96967504D01*
X151487089Y-96934958D01*
X151653915Y-96934958D01*
X151817534Y-96967504D01*
G37*
G36*
X133269517Y-95622882D02*
G01*
X133286062Y-95633938D01*
X133297118Y-95650483D01*
X133301000Y-95670000D01*
X133301000Y-97370000D01*
X133297118Y-97389517D01*
X133286062Y-97406062D01*
X133269517Y-97417118D01*
X133250000Y-97421000D01*
X131550000Y-97421000D01*
X131530483Y-97417118D01*
X131513938Y-97406062D01*
X131502882Y-97389517D01*
X131499000Y-97370000D01*
X131499000Y-95670000D01*
X131502882Y-95650483D01*
X131513938Y-95633938D01*
X131530483Y-95622882D01*
X131550000Y-95619000D01*
X133250000Y-95619000D01*
X133269517Y-95622882D01*
G37*
G36*
X136339867Y-94448878D02*
G01*
X136358081Y-94456893D01*
X136371842Y-94471267D01*
X136379054Y-94489813D01*
X136656891Y-96065506D01*
X136656457Y-96085400D01*
X136648442Y-96103614D01*
X136634068Y-96117375D01*
X136615522Y-96124587D01*
X135039829Y-96402424D01*
X135019935Y-96401990D01*
X135001721Y-96393975D01*
X134987960Y-96379601D01*
X134980748Y-96361055D01*
X134759221Y-95104712D01*
X134705048Y-94797484D01*
X134705048Y-94797481D01*
X134702911Y-94785362D01*
X134703345Y-94765468D01*
X134711360Y-94747254D01*
X134725734Y-94733493D01*
X134744280Y-94726281D01*
X135630010Y-94570102D01*
X136307850Y-94450581D01*
X136307853Y-94450581D01*
X136319973Y-94448444D01*
X136339867Y-94448878D01*
G37*
G36*
X151376468Y-94466093D02*
G01*
X151530595Y-94529934D01*
X151669305Y-94622617D01*
X151787268Y-94740580D01*
X151879951Y-94879290D01*
X151943792Y-95033417D01*
X151976338Y-95197036D01*
X151976338Y-95363862D01*
X151943792Y-95527481D01*
X151879951Y-95681608D01*
X151787268Y-95820318D01*
X151669305Y-95938281D01*
X151530595Y-96030964D01*
X151376468Y-96094805D01*
X151212849Y-96127351D01*
X151046023Y-96127351D01*
X150882404Y-96094805D01*
X150728277Y-96030964D01*
X150589567Y-95938281D01*
X150471604Y-95820318D01*
X150378921Y-95681608D01*
X150315080Y-95527481D01*
X150282534Y-95363862D01*
X150282534Y-95197036D01*
X150315080Y-95033417D01*
X150378921Y-94879290D01*
X150471604Y-94740580D01*
X150589567Y-94622617D01*
X150728277Y-94529934D01*
X150882404Y-94466093D01*
X151046023Y-94433547D01*
X151212849Y-94433547D01*
X151376468Y-94466093D01*
G37*
G36*
X158903070Y-93960898D02*
G01*
X159048141Y-94020988D01*
X159178701Y-94108226D01*
X159289733Y-94219258D01*
X159376971Y-94349818D01*
X159437061Y-94494889D01*
X159467695Y-94648895D01*
X159467695Y-94805919D01*
X159437061Y-94959925D01*
X159376971Y-95104996D01*
X159289733Y-95235556D01*
X159178701Y-95346588D01*
X159048141Y-95433826D01*
X158903070Y-95493916D01*
X158749064Y-95524550D01*
X158592040Y-95524550D01*
X158438034Y-95493916D01*
X158292963Y-95433826D01*
X158162403Y-95346588D01*
X158051371Y-95235556D01*
X157964133Y-95104996D01*
X157904043Y-94959925D01*
X157873409Y-94805919D01*
X157873409Y-94648895D01*
X157904043Y-94494889D01*
X157964133Y-94349818D01*
X158051371Y-94219258D01*
X158162403Y-94108226D01*
X158292963Y-94020988D01*
X158438034Y-93960898D01*
X158592040Y-93930264D01*
X158749064Y-93930264D01*
X158903070Y-93960898D01*
G37*
G36*
X150935402Y-91964682D02*
G01*
X151089529Y-92028523D01*
X151228239Y-92121206D01*
X151346202Y-92239169D01*
X151438885Y-92377879D01*
X151502726Y-92532006D01*
X151535272Y-92695625D01*
X151535272Y-92862451D01*
X151502726Y-93026070D01*
X151438885Y-93180197D01*
X151346202Y-93318907D01*
X151228239Y-93436870D01*
X151089529Y-93529553D01*
X150935402Y-93593394D01*
X150771783Y-93625940D01*
X150604957Y-93625940D01*
X150441338Y-93593394D01*
X150287211Y-93529553D01*
X150148501Y-93436870D01*
X150030538Y-93318907D01*
X149937855Y-93180197D01*
X149874014Y-93026070D01*
X149841468Y-92862451D01*
X149841468Y-92695625D01*
X149874014Y-92532006D01*
X149937855Y-92377879D01*
X150030538Y-92239169D01*
X150148501Y-92121206D01*
X150287211Y-92028523D01*
X150441338Y-91964682D01*
X150604957Y-91932136D01*
X150771783Y-91932136D01*
X150935402Y-91964682D01*
G37*
G36*
X158356404Y-92124740D02*
G01*
X158483363Y-92177328D01*
X158597624Y-92253675D01*
X158694794Y-92350845D01*
X158771141Y-92465106D01*
X158823729Y-92592065D01*
X158850538Y-92726845D01*
X158850538Y-92864265D01*
X158823729Y-92999045D01*
X158771141Y-93126004D01*
X158694794Y-93240265D01*
X158597624Y-93337435D01*
X158483363Y-93413782D01*
X158356404Y-93466370D01*
X158221624Y-93493179D01*
X158084204Y-93493179D01*
X157949424Y-93466370D01*
X157822465Y-93413782D01*
X157708204Y-93337435D01*
X157611034Y-93240265D01*
X157534687Y-93126004D01*
X157482099Y-92999045D01*
X157455290Y-92864265D01*
X157455290Y-92726845D01*
X157482099Y-92592065D01*
X157534687Y-92465106D01*
X157611034Y-92350845D01*
X157708204Y-92253675D01*
X157822465Y-92177328D01*
X157949424Y-92124740D01*
X158084204Y-92097931D01*
X158221624Y-92097931D01*
X158356404Y-92124740D01*
G37*
G36*
X157838766Y-90192888D02*
G01*
X157965725Y-90245476D01*
X158079986Y-90321823D01*
X158177156Y-90418993D01*
X158253503Y-90533254D01*
X158306091Y-90660213D01*
X158332900Y-90794993D01*
X158332900Y-90932413D01*
X158306091Y-91067193D01*
X158253503Y-91194152D01*
X158177156Y-91308413D01*
X158079986Y-91405583D01*
X157965725Y-91481930D01*
X157838766Y-91534518D01*
X157703986Y-91561327D01*
X157566566Y-91561327D01*
X157431786Y-91534518D01*
X157304827Y-91481930D01*
X157190566Y-91405583D01*
X157093396Y-91308413D01*
X157017049Y-91194152D01*
X156964461Y-91067193D01*
X156937652Y-90932413D01*
X156937652Y-90794993D01*
X156964461Y-90660213D01*
X157017049Y-90533254D01*
X157093396Y-90418993D01*
X157190566Y-90321823D01*
X157304827Y-90245476D01*
X157431786Y-90192888D01*
X157566566Y-90166079D01*
X157703986Y-90166079D01*
X157838766Y-90192888D01*
G37*
G36*
X157306613Y-88308884D02*
G01*
X157424517Y-88357721D01*
X157530628Y-88428622D01*
X157620868Y-88518862D01*
X157691769Y-88624973D01*
X157740606Y-88742877D01*
X157765503Y-88868043D01*
X157765503Y-88995661D01*
X157740606Y-89120827D01*
X157691769Y-89238731D01*
X157620868Y-89344842D01*
X157530628Y-89435082D01*
X157424517Y-89505983D01*
X157306613Y-89554820D01*
X157181447Y-89579717D01*
X157053829Y-89579717D01*
X156928663Y-89554820D01*
X156810759Y-89505983D01*
X156704648Y-89435082D01*
X156614408Y-89344842D01*
X156543507Y-89238731D01*
X156494670Y-89120827D01*
X156469773Y-88995661D01*
X156469773Y-88868043D01*
X156494670Y-88742877D01*
X156543507Y-88624973D01*
X156614408Y-88518862D01*
X156704648Y-88428622D01*
X156810759Y-88357721D01*
X156928663Y-88308884D01*
X157053829Y-88283987D01*
X157181447Y-88283987D01*
X157306613Y-88308884D01*
G37*
G36*
X156832518Y-86233491D02*
G01*
X156977589Y-86293581D01*
X157108149Y-86380819D01*
X157219181Y-86491851D01*
X157306419Y-86622411D01*
X157366509Y-86767482D01*
X157397143Y-86921488D01*
X157397143Y-87078512D01*
X157366509Y-87232518D01*
X157306419Y-87377589D01*
X157219181Y-87508149D01*
X157108149Y-87619181D01*
X156977589Y-87706419D01*
X156832518Y-87766509D01*
X156678512Y-87797143D01*
X156521488Y-87797143D01*
X156367482Y-87766509D01*
X156222411Y-87706419D01*
X156091851Y-87619181D01*
X155980819Y-87508149D01*
X155893581Y-87377589D01*
X155833491Y-87232518D01*
X155802857Y-87078512D01*
X155802857Y-86921488D01*
X155833491Y-86767482D01*
X155893581Y-86622411D01*
X155980819Y-86491851D01*
X156091851Y-86380819D01*
X156222411Y-86293581D01*
X156367482Y-86233491D01*
X156521488Y-86202857D01*
X156678512Y-86202857D01*
X156832518Y-86233491D01*
G37*
G36*
X130661546Y-85817797D02*
G01*
X130824728Y-85885389D01*
X130971588Y-85983518D01*
X131096482Y-86108412D01*
X131194611Y-86255272D01*
X131262203Y-86418454D01*
X131296661Y-86591687D01*
X131296661Y-86768313D01*
X131262203Y-86941546D01*
X131194611Y-87104728D01*
X131096482Y-87251588D01*
X130971588Y-87376482D01*
X130824728Y-87474611D01*
X130661546Y-87542203D01*
X130488313Y-87576661D01*
X130311687Y-87576661D01*
X130138454Y-87542203D01*
X129975272Y-87474611D01*
X129828412Y-87376482D01*
X129703518Y-87251588D01*
X129605389Y-87104728D01*
X129537797Y-86941546D01*
X129503339Y-86768313D01*
X129503339Y-86591687D01*
X129537797Y-86418454D01*
X129605389Y-86255272D01*
X129703518Y-86108412D01*
X129828412Y-85983518D01*
X129975272Y-85885389D01*
X130138454Y-85817797D01*
X130311687Y-85783339D01*
X130488313Y-85783339D01*
X130661546Y-85817797D01*
G37*
G36*
X116259356Y-85479775D02*
G01*
X116295801Y-85481685D01*
X116303179Y-85484517D01*
X116320363Y-85486377D01*
X116384042Y-85513910D01*
X116392561Y-85518828D01*
X116392562Y-85518829D01*
X116938436Y-85833989D01*
X116938439Y-85833991D01*
X116946958Y-85838910D01*
X117002642Y-85880291D01*
X117012846Y-85894246D01*
X117018985Y-85899217D01*
X117038852Y-85929810D01*
X117067936Y-85969582D01*
X117096566Y-86076429D01*
X117091264Y-86125416D01*
X117089356Y-86161842D01*
X117086525Y-86169216D01*
X117084665Y-86186405D01*
X117057132Y-86250083D01*
X116407132Y-87375917D01*
X116365751Y-87431600D01*
X116351794Y-87441806D01*
X116346823Y-87447945D01*
X116316235Y-87467809D01*
X116276460Y-87496895D01*
X116169612Y-87525524D01*
X116120626Y-87520223D01*
X116084198Y-87518314D01*
X116076822Y-87515482D01*
X116059637Y-87513623D01*
X115995958Y-87486090D01*
X115589122Y-87251203D01*
X115441563Y-87166010D01*
X115441561Y-87166008D01*
X115433042Y-87161090D01*
X115377358Y-87119709D01*
X115367152Y-87105753D01*
X115361014Y-87100782D01*
X115341144Y-87070185D01*
X115312064Y-87030418D01*
X115283434Y-86923571D01*
X115288733Y-86874602D01*
X115290643Y-86838157D01*
X115293475Y-86830778D01*
X115295335Y-86813595D01*
X115322868Y-86749917D01*
X115327786Y-86741397D01*
X115327788Y-86741394D01*
X115967947Y-85632605D01*
X115967949Y-85632601D01*
X115972868Y-85624083D01*
X116014249Y-85568400D01*
X116028201Y-85558197D01*
X116033176Y-85552054D01*
X116063785Y-85532176D01*
X116103540Y-85503105D01*
X116210388Y-85474476D01*
X116259356Y-85479775D01*
G37*
G36*
X113704582Y-84004775D02*
G01*
X113741027Y-84006685D01*
X113748405Y-84009517D01*
X113765589Y-84011377D01*
X113829268Y-84038910D01*
X113837787Y-84043828D01*
X113837788Y-84043829D01*
X114383662Y-84358989D01*
X114383665Y-84358991D01*
X114392184Y-84363910D01*
X114447868Y-84405291D01*
X114458072Y-84419246D01*
X114464211Y-84424217D01*
X114484078Y-84454810D01*
X114513162Y-84494582D01*
X114541792Y-84601429D01*
X114536490Y-84650416D01*
X114534582Y-84686842D01*
X114531751Y-84694216D01*
X114529891Y-84711405D01*
X114502358Y-84775083D01*
X113852358Y-85900917D01*
X113810977Y-85956600D01*
X113797020Y-85966806D01*
X113792049Y-85972945D01*
X113761461Y-85992809D01*
X113721686Y-86021895D01*
X113614838Y-86050524D01*
X113565852Y-86045223D01*
X113529424Y-86043314D01*
X113522048Y-86040482D01*
X113504863Y-86038623D01*
X113441184Y-86011090D01*
X113046708Y-85783339D01*
X112886789Y-85691010D01*
X112886787Y-85691008D01*
X112878268Y-85686090D01*
X112822584Y-85644709D01*
X112812378Y-85630753D01*
X112806240Y-85625782D01*
X112786370Y-85595185D01*
X112757290Y-85555418D01*
X112728660Y-85448571D01*
X112733959Y-85399602D01*
X112735869Y-85363157D01*
X112738701Y-85355778D01*
X112740561Y-85338595D01*
X112768094Y-85274917D01*
X112773012Y-85266397D01*
X112773014Y-85266394D01*
X113413173Y-84157605D01*
X113413175Y-84157601D01*
X113418094Y-84149083D01*
X113459475Y-84093400D01*
X113473427Y-84083197D01*
X113478402Y-84077054D01*
X113509011Y-84057176D01*
X113548766Y-84028105D01*
X113655614Y-83999476D01*
X113704582Y-84004775D01*
G37*
G36*
X130661546Y-83277797D02*
G01*
X130824728Y-83345389D01*
X130971588Y-83443518D01*
X131096482Y-83568412D01*
X131194611Y-83715272D01*
X131262203Y-83878454D01*
X131296661Y-84051687D01*
X131296661Y-84228313D01*
X131262203Y-84401546D01*
X131194611Y-84564728D01*
X131096482Y-84711588D01*
X130971588Y-84836482D01*
X130824728Y-84934611D01*
X130661546Y-85002203D01*
X130488313Y-85036661D01*
X130311687Y-85036661D01*
X130138454Y-85002203D01*
X129975272Y-84934611D01*
X129828412Y-84836482D01*
X129703518Y-84711588D01*
X129605389Y-84564728D01*
X129537797Y-84401546D01*
X129503339Y-84228313D01*
X129503339Y-84051687D01*
X129537797Y-83878454D01*
X129605389Y-83715272D01*
X129703518Y-83568412D01*
X129828412Y-83443518D01*
X129975272Y-83345389D01*
X130138454Y-83277797D01*
X130311687Y-83243339D01*
X130488313Y-83243339D01*
X130661546Y-83277797D01*
G37*
G36*
X131269517Y-80702882D02*
G01*
X131286062Y-80713938D01*
X131297118Y-80730483D01*
X131301000Y-80750000D01*
X131301000Y-82450000D01*
X131297118Y-82469517D01*
X131286062Y-82486062D01*
X131269517Y-82497118D01*
X131250000Y-82501000D01*
X129550000Y-82501000D01*
X129530483Y-82497118D01*
X129513938Y-82486062D01*
X129502882Y-82469517D01*
X129499000Y-82450000D01*
X129499000Y-80750000D01*
X129502882Y-80730483D01*
X129513938Y-80713938D01*
X129530483Y-80702882D01*
X129550000Y-80699000D01*
X131250000Y-80699000D01*
X131269517Y-80702882D01*
G37*
G36*
X109901517Y-76318882D02*
G01*
X109918062Y-76329938D01*
X109929118Y-76346483D01*
X109933000Y-76366000D01*
X109933000Y-78066000D01*
X109929118Y-78085517D01*
X109918062Y-78102062D01*
X109901517Y-78113118D01*
X109882000Y-78117000D01*
X108182000Y-78117000D01*
X108162483Y-78113118D01*
X108145938Y-78102062D01*
X108134882Y-78085517D01*
X108131000Y-78066000D01*
X108131000Y-76366000D01*
X108134882Y-76346483D01*
X108145938Y-76329938D01*
X108162483Y-76318882D01*
X108182000Y-76315000D01*
X109882000Y-76315000D01*
X109901517Y-76318882D01*
G37*
G36*
X121077517Y-76318882D02*
G01*
X121094062Y-76329938D01*
X121105118Y-76346483D01*
X121109000Y-76366000D01*
X121109000Y-78066000D01*
X121105118Y-78085517D01*
X121094062Y-78102062D01*
X121077517Y-78113118D01*
X121058000Y-78117000D01*
X119358000Y-78117000D01*
X119338483Y-78113118D01*
X119321938Y-78102062D01*
X119310882Y-78085517D01*
X119307000Y-78066000D01*
X119307000Y-76366000D01*
X119310882Y-76346483D01*
X119321938Y-76329938D01*
X119338483Y-76318882D01*
X119358000Y-76315000D01*
X121058000Y-76315000D01*
X121077517Y-76318882D01*
G37*
G36*
X156637517Y-76318882D02*
G01*
X156654062Y-76329938D01*
X156665118Y-76346483D01*
X156669000Y-76366000D01*
X156669000Y-78066000D01*
X156665118Y-78085517D01*
X156654062Y-78102062D01*
X156637517Y-78113118D01*
X156618000Y-78117000D01*
X154918000Y-78117000D01*
X154898483Y-78113118D01*
X154881938Y-78102062D01*
X154870882Y-78085517D01*
X154867000Y-78066000D01*
X154867000Y-76366000D01*
X154870882Y-76346483D01*
X154881938Y-76329938D01*
X154898483Y-76318882D01*
X154918000Y-76315000D01*
X156618000Y-76315000D01*
X156637517Y-76318882D01*
G37*
G36*
X111833546Y-76353797D02*
G01*
X111996728Y-76421389D01*
X112143588Y-76519518D01*
X112268482Y-76644412D01*
X112366611Y-76791272D01*
X112434203Y-76954454D01*
X112468661Y-77127687D01*
X112468661Y-77304313D01*
X112434203Y-77477546D01*
X112366611Y-77640728D01*
X112268482Y-77787588D01*
X112143588Y-77912482D01*
X111996728Y-78010611D01*
X111833546Y-78078203D01*
X111660313Y-78112661D01*
X111483687Y-78112661D01*
X111310454Y-78078203D01*
X111147272Y-78010611D01*
X111000412Y-77912482D01*
X110875518Y-77787588D01*
X110777389Y-77640728D01*
X110709797Y-77477546D01*
X110675339Y-77304313D01*
X110675339Y-77127687D01*
X110709797Y-76954454D01*
X110777389Y-76791272D01*
X110875518Y-76644412D01*
X111000412Y-76519518D01*
X111147272Y-76421389D01*
X111310454Y-76353797D01*
X111483687Y-76319339D01*
X111660313Y-76319339D01*
X111833546Y-76353797D01*
G37*
G36*
X114373546Y-76353797D02*
G01*
X114536728Y-76421389D01*
X114683588Y-76519518D01*
X114808482Y-76644412D01*
X114906611Y-76791272D01*
X114974203Y-76954454D01*
X115008661Y-77127687D01*
X115008661Y-77304313D01*
X114974203Y-77477546D01*
X114906611Y-77640728D01*
X114808482Y-77787588D01*
X114683588Y-77912482D01*
X114536728Y-78010611D01*
X114373546Y-78078203D01*
X114200313Y-78112661D01*
X114023687Y-78112661D01*
X113850454Y-78078203D01*
X113687272Y-78010611D01*
X113540412Y-77912482D01*
X113415518Y-77787588D01*
X113317389Y-77640728D01*
X113249797Y-77477546D01*
X113215339Y-77304313D01*
X113215339Y-77127687D01*
X113249797Y-76954454D01*
X113317389Y-76791272D01*
X113415518Y-76644412D01*
X113540412Y-76519518D01*
X113687272Y-76421389D01*
X113850454Y-76353797D01*
X114023687Y-76319339D01*
X114200313Y-76319339D01*
X114373546Y-76353797D01*
G37*
G36*
X116913546Y-76353797D02*
G01*
X117076728Y-76421389D01*
X117223588Y-76519518D01*
X117348482Y-76644412D01*
X117446611Y-76791272D01*
X117514203Y-76954454D01*
X117548661Y-77127687D01*
X117548661Y-77304313D01*
X117514203Y-77477546D01*
X117446611Y-77640728D01*
X117348482Y-77787588D01*
X117223588Y-77912482D01*
X117076728Y-78010611D01*
X116913546Y-78078203D01*
X116740313Y-78112661D01*
X116563687Y-78112661D01*
X116390454Y-78078203D01*
X116227272Y-78010611D01*
X116080412Y-77912482D01*
X115955518Y-77787588D01*
X115857389Y-77640728D01*
X115789797Y-77477546D01*
X115755339Y-77304313D01*
X115755339Y-77127687D01*
X115789797Y-76954454D01*
X115857389Y-76791272D01*
X115955518Y-76644412D01*
X116080412Y-76519518D01*
X116227272Y-76421389D01*
X116390454Y-76353797D01*
X116563687Y-76319339D01*
X116740313Y-76319339D01*
X116913546Y-76353797D01*
G37*
G36*
X123009546Y-76353797D02*
G01*
X123172728Y-76421389D01*
X123319588Y-76519518D01*
X123444482Y-76644412D01*
X123542611Y-76791272D01*
X123610203Y-76954454D01*
X123644661Y-77127687D01*
X123644661Y-77304313D01*
X123610203Y-77477546D01*
X123542611Y-77640728D01*
X123444482Y-77787588D01*
X123319588Y-77912482D01*
X123172728Y-78010611D01*
X123009546Y-78078203D01*
X122836313Y-78112661D01*
X122659687Y-78112661D01*
X122486454Y-78078203D01*
X122323272Y-78010611D01*
X122176412Y-77912482D01*
X122051518Y-77787588D01*
X121953389Y-77640728D01*
X121885797Y-77477546D01*
X121851339Y-77304313D01*
X121851339Y-77127687D01*
X121885797Y-76954454D01*
X121953389Y-76791272D01*
X122051518Y-76644412D01*
X122176412Y-76519518D01*
X122323272Y-76421389D01*
X122486454Y-76353797D01*
X122659687Y-76319339D01*
X122836313Y-76319339D01*
X123009546Y-76353797D01*
G37*
G36*
X125549546Y-76353797D02*
G01*
X125712728Y-76421389D01*
X125859588Y-76519518D01*
X125984482Y-76644412D01*
X126082611Y-76791272D01*
X126150203Y-76954454D01*
X126184661Y-77127687D01*
X126184661Y-77304313D01*
X126150203Y-77477546D01*
X126082611Y-77640728D01*
X125984482Y-77787588D01*
X125859588Y-77912482D01*
X125712728Y-78010611D01*
X125549546Y-78078203D01*
X125376313Y-78112661D01*
X125199687Y-78112661D01*
X125026454Y-78078203D01*
X124863272Y-78010611D01*
X124716412Y-77912482D01*
X124591518Y-77787588D01*
X124493389Y-77640728D01*
X124425797Y-77477546D01*
X124391339Y-77304313D01*
X124391339Y-77127687D01*
X124425797Y-76954454D01*
X124493389Y-76791272D01*
X124591518Y-76644412D01*
X124716412Y-76519518D01*
X124863272Y-76421389D01*
X125026454Y-76353797D01*
X125199687Y-76319339D01*
X125376313Y-76319339D01*
X125549546Y-76353797D01*
G37*
G36*
X128089546Y-76353797D02*
G01*
X128252728Y-76421389D01*
X128399588Y-76519518D01*
X128524482Y-76644412D01*
X128622611Y-76791272D01*
X128690203Y-76954454D01*
X128724661Y-77127687D01*
X128724661Y-77304313D01*
X128690203Y-77477546D01*
X128622611Y-77640728D01*
X128524482Y-77787588D01*
X128399588Y-77912482D01*
X128252728Y-78010611D01*
X128089546Y-78078203D01*
X127916313Y-78112661D01*
X127739687Y-78112661D01*
X127566454Y-78078203D01*
X127403272Y-78010611D01*
X127256412Y-77912482D01*
X127131518Y-77787588D01*
X127033389Y-77640728D01*
X126965797Y-77477546D01*
X126931339Y-77304313D01*
X126931339Y-77127687D01*
X126965797Y-76954454D01*
X127033389Y-76791272D01*
X127131518Y-76644412D01*
X127256412Y-76519518D01*
X127403272Y-76421389D01*
X127566454Y-76353797D01*
X127739687Y-76319339D01*
X127916313Y-76319339D01*
X128089546Y-76353797D01*
G37*
G36*
X148409546Y-76353797D02*
G01*
X148572728Y-76421389D01*
X148719588Y-76519518D01*
X148844482Y-76644412D01*
X148942611Y-76791272D01*
X149010203Y-76954454D01*
X149044661Y-77127687D01*
X149044661Y-77304313D01*
X149010203Y-77477546D01*
X148942611Y-77640728D01*
X148844482Y-77787588D01*
X148719588Y-77912482D01*
X148572728Y-78010611D01*
X148409546Y-78078203D01*
X148236313Y-78112661D01*
X148059687Y-78112661D01*
X147886454Y-78078203D01*
X147723272Y-78010611D01*
X147576412Y-77912482D01*
X147451518Y-77787588D01*
X147353389Y-77640728D01*
X147285797Y-77477546D01*
X147251339Y-77304313D01*
X147251339Y-77127687D01*
X147285797Y-76954454D01*
X147353389Y-76791272D01*
X147451518Y-76644412D01*
X147576412Y-76519518D01*
X147723272Y-76421389D01*
X147886454Y-76353797D01*
X148059687Y-76319339D01*
X148236313Y-76319339D01*
X148409546Y-76353797D01*
G37*
G36*
X150949546Y-76353797D02*
G01*
X151112728Y-76421389D01*
X151259588Y-76519518D01*
X151384482Y-76644412D01*
X151482611Y-76791272D01*
X151550203Y-76954454D01*
X151584661Y-77127687D01*
X151584661Y-77304313D01*
X151550203Y-77477546D01*
X151482611Y-77640728D01*
X151384482Y-77787588D01*
X151259588Y-77912482D01*
X151112728Y-78010611D01*
X150949546Y-78078203D01*
X150776313Y-78112661D01*
X150599687Y-78112661D01*
X150426454Y-78078203D01*
X150263272Y-78010611D01*
X150116412Y-77912482D01*
X149991518Y-77787588D01*
X149893389Y-77640728D01*
X149825797Y-77477546D01*
X149791339Y-77304313D01*
X149791339Y-77127687D01*
X149825797Y-76954454D01*
X149893389Y-76791272D01*
X149991518Y-76644412D01*
X150116412Y-76519518D01*
X150263272Y-76421389D01*
X150426454Y-76353797D01*
X150599687Y-76319339D01*
X150776313Y-76319339D01*
X150949546Y-76353797D01*
G37*
G36*
X153489546Y-76353797D02*
G01*
X153652728Y-76421389D01*
X153799588Y-76519518D01*
X153924482Y-76644412D01*
X154022611Y-76791272D01*
X154090203Y-76954454D01*
X154124661Y-77127687D01*
X154124661Y-77304313D01*
X154090203Y-77477546D01*
X154022611Y-77640728D01*
X153924482Y-77787588D01*
X153799588Y-77912482D01*
X153652728Y-78010611D01*
X153489546Y-78078203D01*
X153316313Y-78112661D01*
X153139687Y-78112661D01*
X152966454Y-78078203D01*
X152803272Y-78010611D01*
X152656412Y-77912482D01*
X152531518Y-77787588D01*
X152433389Y-77640728D01*
X152365797Y-77477546D01*
X152331339Y-77304313D01*
X152331339Y-77127687D01*
X152365797Y-76954454D01*
X152433389Y-76791272D01*
X152531518Y-76644412D01*
X152656412Y-76519518D01*
X152803272Y-76421389D01*
X152966454Y-76353797D01*
X153139687Y-76319339D01*
X153316313Y-76319339D01*
X153489546Y-76353797D01*
G37*
G36*
X115091432Y-66213424D02*
G01*
X115314501Y-66273195D01*
X115527861Y-66361571D01*
X115727859Y-66477040D01*
X115911075Y-66617627D01*
X116074373Y-66780925D01*
X116214960Y-66964141D01*
X116330429Y-67164139D01*
X116418805Y-67377499D01*
X116478576Y-67600568D01*
X116508720Y-67829531D01*
X116508720Y-68060469D01*
X116478576Y-68289432D01*
X116418805Y-68512501D01*
X116330429Y-68725861D01*
X116214960Y-68925859D01*
X116074373Y-69109075D01*
X115911075Y-69272373D01*
X115727859Y-69412960D01*
X115527861Y-69528429D01*
X115314501Y-69616805D01*
X115091432Y-69676576D01*
X114862469Y-69706720D01*
X114631531Y-69706720D01*
X114402568Y-69676576D01*
X114179499Y-69616805D01*
X113966139Y-69528429D01*
X113766141Y-69412960D01*
X113582925Y-69272373D01*
X113419627Y-69109075D01*
X113279040Y-68925859D01*
X113163571Y-68725861D01*
X113075195Y-68512501D01*
X113015424Y-68289432D01*
X112985280Y-68060469D01*
X112985280Y-67829531D01*
X113015424Y-67600568D01*
X113075195Y-67377499D01*
X113163571Y-67164139D01*
X113279040Y-66964141D01*
X113419627Y-66780925D01*
X113582925Y-66617627D01*
X113766141Y-66477040D01*
X113966139Y-66361571D01*
X114179499Y-66273195D01*
X114402568Y-66213424D01*
X114631531Y-66183280D01*
X114862469Y-66183280D01*
X115091432Y-66213424D01*
G37*
G36*
X109508808Y-67081936D02*
G01*
X109672153Y-67149595D01*
X109819159Y-67247822D01*
X109944178Y-67372841D01*
X110042405Y-67519847D01*
X110110064Y-67683192D01*
X110144557Y-67856598D01*
X110144557Y-68033402D01*
X110110064Y-68206808D01*
X110042405Y-68370153D01*
X109944178Y-68517159D01*
X109819159Y-68642178D01*
X109672153Y-68740405D01*
X109508808Y-68808064D01*
X109335402Y-68842557D01*
X109158598Y-68842557D01*
X108985192Y-68808064D01*
X108821847Y-68740405D01*
X108674841Y-68642178D01*
X108549822Y-68517159D01*
X108451595Y-68370153D01*
X108383936Y-68206808D01*
X108349443Y-68033402D01*
X108349443Y-67856598D01*
X108383936Y-67683192D01*
X108451595Y-67519847D01*
X108549822Y-67372841D01*
X108674841Y-67247822D01*
X108821847Y-67149595D01*
X108985192Y-67081936D01*
X109158598Y-67047443D01*
X109335402Y-67047443D01*
X109508808Y-67081936D01*
G37*
G36*
X120508808Y-67081936D02*
G01*
X120672153Y-67149595D01*
X120819159Y-67247822D01*
X120944178Y-67372841D01*
X121042405Y-67519847D01*
X121110064Y-67683192D01*
X121144557Y-67856598D01*
X121144557Y-68033402D01*
X121110064Y-68206808D01*
X121042405Y-68370153D01*
X120944178Y-68517159D01*
X120819159Y-68642178D01*
X120672153Y-68740405D01*
X120508808Y-68808064D01*
X120335402Y-68842557D01*
X120158598Y-68842557D01*
X119985192Y-68808064D01*
X119821847Y-68740405D01*
X119674841Y-68642178D01*
X119549822Y-68517159D01*
X119451595Y-68370153D01*
X119383936Y-68206808D01*
X119349443Y-68033402D01*
X119349443Y-67856598D01*
X119383936Y-67683192D01*
X119451595Y-67519847D01*
X119549822Y-67372841D01*
X119674841Y-67247822D01*
X119821847Y-67149595D01*
X119985192Y-67081936D01*
X120158598Y-67047443D01*
X120335402Y-67047443D01*
X120508808Y-67081936D01*
G37*
G36*
X119857482Y-62648781D02*
G01*
X119868690Y-62648781D01*
X119923888Y-62657523D01*
X120049534Y-62674065D01*
X120080189Y-62682279D01*
X120109074Y-62686854D01*
X120164620Y-62704902D01*
X120245467Y-62726565D01*
X120297050Y-62747931D01*
X120340542Y-62762063D01*
X120381286Y-62782823D01*
X120432870Y-62804190D01*
X120505353Y-62846038D01*
X120557395Y-62872555D01*
X120581055Y-62889745D01*
X120608539Y-62905613D01*
X120709074Y-62982756D01*
X120754294Y-63015610D01*
X120762219Y-63023535D01*
X120769466Y-63029096D01*
X120912903Y-63172533D01*
X120918463Y-63179779D01*
X120926390Y-63187706D01*
X120959247Y-63232930D01*
X121036386Y-63333460D01*
X121052252Y-63360941D01*
X121069445Y-63384605D01*
X121095964Y-63436652D01*
X121137809Y-63509129D01*
X121159173Y-63560706D01*
X121179937Y-63601458D01*
X121194070Y-63644955D01*
X121215434Y-63696532D01*
X121237093Y-63777366D01*
X121255146Y-63832926D01*
X121259721Y-63861816D01*
X121267934Y-63892465D01*
X121284474Y-64018099D01*
X121293219Y-64073310D01*
X121293219Y-64084518D01*
X121294412Y-64093580D01*
X121294412Y-64296419D01*
X121293219Y-64305480D01*
X121293219Y-64316690D01*
X121284473Y-64371905D01*
X121267934Y-64497534D01*
X121259722Y-64528180D01*
X121255146Y-64557074D01*
X121237091Y-64612638D01*
X121215434Y-64693467D01*
X121194071Y-64745039D01*
X121179937Y-64788542D01*
X121159171Y-64829297D01*
X121137809Y-64880870D01*
X121095968Y-64953338D01*
X121069445Y-65005395D01*
X121052249Y-65029062D01*
X121036386Y-65056539D01*
X120959261Y-65157050D01*
X120926390Y-65202294D01*
X120918459Y-65210224D01*
X120912903Y-65217466D01*
X120769466Y-65360903D01*
X120762224Y-65366459D01*
X120754294Y-65374390D01*
X120709050Y-65407261D01*
X120608539Y-65484386D01*
X120581062Y-65500249D01*
X120557395Y-65517445D01*
X120505338Y-65543968D01*
X120432870Y-65585809D01*
X120381297Y-65607171D01*
X120340542Y-65627937D01*
X120297039Y-65642071D01*
X120245467Y-65663434D01*
X120164638Y-65685091D01*
X120109074Y-65703146D01*
X120080180Y-65707722D01*
X120049534Y-65715934D01*
X119923902Y-65732474D01*
X119868690Y-65741219D01*
X119857481Y-65741219D01*
X119848420Y-65742412D01*
X119645580Y-65742412D01*
X119636519Y-65741219D01*
X119625310Y-65741219D01*
X119570099Y-65732474D01*
X119444465Y-65715934D01*
X119413816Y-65707721D01*
X119384926Y-65703146D01*
X119329366Y-65685093D01*
X119248532Y-65663434D01*
X119196955Y-65642070D01*
X119153458Y-65627937D01*
X119112706Y-65607173D01*
X119061129Y-65585809D01*
X118988652Y-65543964D01*
X118936605Y-65517445D01*
X118912941Y-65500252D01*
X118885460Y-65484386D01*
X118784930Y-65407247D01*
X118739706Y-65374390D01*
X118731779Y-65366463D01*
X118724533Y-65360903D01*
X118581096Y-65217466D01*
X118575535Y-65210219D01*
X118567610Y-65202294D01*
X118534756Y-65157074D01*
X118457613Y-65056539D01*
X118441745Y-65029055D01*
X118424555Y-65005395D01*
X118398038Y-64953353D01*
X118356190Y-64880870D01*
X118334823Y-64829286D01*
X118314063Y-64788542D01*
X118299931Y-64745050D01*
X118278565Y-64693467D01*
X118256902Y-64612620D01*
X118238854Y-64557074D01*
X118234279Y-64528189D01*
X118226065Y-64497534D01*
X118209524Y-64371891D01*
X118200781Y-64316690D01*
X118200781Y-64305480D01*
X118199588Y-64296419D01*
X118199588Y-64093580D01*
X118200781Y-64084518D01*
X118200781Y-64073310D01*
X118209523Y-64018113D01*
X118226065Y-63892465D01*
X118234279Y-63861807D01*
X118238854Y-63832926D01*
X118256900Y-63777383D01*
X118278565Y-63696532D01*
X118299933Y-63644944D01*
X118314063Y-63601458D01*
X118334821Y-63560717D01*
X118356190Y-63509129D01*
X118398042Y-63436637D01*
X118424555Y-63384605D01*
X118441742Y-63360948D01*
X118457613Y-63333460D01*
X118534770Y-63232906D01*
X118567610Y-63187706D01*
X118575532Y-63179783D01*
X118581096Y-63172533D01*
X118724533Y-63029096D01*
X118731783Y-63023532D01*
X118739706Y-63015610D01*
X118784906Y-62982770D01*
X118885460Y-62905613D01*
X118912948Y-62889742D01*
X118936605Y-62872555D01*
X118988637Y-62846042D01*
X119061129Y-62804190D01*
X119112717Y-62782821D01*
X119153458Y-62762063D01*
X119196944Y-62747933D01*
X119248532Y-62726565D01*
X119329383Y-62704900D01*
X119384926Y-62686854D01*
X119413807Y-62682279D01*
X119444465Y-62674065D01*
X119570113Y-62657523D01*
X119625310Y-62648781D01*
X119636518Y-62648781D01*
X119645580Y-62647588D01*
X119848420Y-62647588D01*
X119857482Y-62648781D01*
G37*
G36*
X124341517Y-62847882D02*
G01*
X124358062Y-62858938D01*
X124369118Y-62875483D01*
X124373000Y-62895000D01*
X124373000Y-65495000D01*
X124369118Y-65514517D01*
X124358062Y-65531062D01*
X124341517Y-65542118D01*
X124322000Y-65546000D01*
X121722000Y-65546000D01*
X121702483Y-65542118D01*
X121685938Y-65531062D01*
X121674882Y-65514517D01*
X121671000Y-65495000D01*
X121671000Y-62895000D01*
X121674882Y-62875483D01*
X121685938Y-62858938D01*
X121702483Y-62847882D01*
X121722000Y-62844000D01*
X124322000Y-62844000D01*
X124341517Y-62847882D01*
G37*
G36*
X114857482Y-60448781D02*
G01*
X114868690Y-60448781D01*
X114923888Y-60457523D01*
X115049534Y-60474065D01*
X115080189Y-60482279D01*
X115109074Y-60486854D01*
X115164620Y-60504902D01*
X115245467Y-60526565D01*
X115297050Y-60547931D01*
X115340542Y-60562063D01*
X115381286Y-60582823D01*
X115432870Y-60604190D01*
X115505353Y-60646038D01*
X115557395Y-60672555D01*
X115581055Y-60689745D01*
X115608539Y-60705613D01*
X115709074Y-60782756D01*
X115754294Y-60815610D01*
X115762219Y-60823535D01*
X115769466Y-60829096D01*
X115912903Y-60972533D01*
X115918463Y-60979779D01*
X115926390Y-60987706D01*
X115959247Y-61032930D01*
X116036386Y-61133460D01*
X116052252Y-61160941D01*
X116069445Y-61184605D01*
X116095964Y-61236652D01*
X116137809Y-61309129D01*
X116159173Y-61360706D01*
X116179937Y-61401458D01*
X116194070Y-61444955D01*
X116215434Y-61496532D01*
X116237093Y-61577366D01*
X116255146Y-61632926D01*
X116259721Y-61661816D01*
X116267934Y-61692465D01*
X116284474Y-61818099D01*
X116293219Y-61873310D01*
X116293219Y-61884518D01*
X116294412Y-61893580D01*
X116294412Y-62096419D01*
X116293219Y-62105480D01*
X116293219Y-62116690D01*
X116284473Y-62171905D01*
X116267934Y-62297534D01*
X116259722Y-62328180D01*
X116255146Y-62357074D01*
X116237091Y-62412638D01*
X116215434Y-62493467D01*
X116194071Y-62545039D01*
X116179937Y-62588542D01*
X116159171Y-62629297D01*
X116137809Y-62680870D01*
X116095968Y-62753338D01*
X116069445Y-62805395D01*
X116052249Y-62829062D01*
X116036386Y-62856539D01*
X115959261Y-62957050D01*
X115926390Y-63002294D01*
X115918459Y-63010224D01*
X115912903Y-63017466D01*
X115769466Y-63160903D01*
X115762224Y-63166459D01*
X115754294Y-63174390D01*
X115709050Y-63207261D01*
X115608539Y-63284386D01*
X115581062Y-63300249D01*
X115557395Y-63317445D01*
X115505338Y-63343968D01*
X115432870Y-63385809D01*
X115381297Y-63407171D01*
X115340542Y-63427937D01*
X115297039Y-63442071D01*
X115245467Y-63463434D01*
X115164638Y-63485091D01*
X115109074Y-63503146D01*
X115080180Y-63507722D01*
X115049534Y-63515934D01*
X114923902Y-63532474D01*
X114868690Y-63541219D01*
X114857481Y-63541219D01*
X114848420Y-63542412D01*
X114645580Y-63542412D01*
X114636519Y-63541219D01*
X114625310Y-63541219D01*
X114570099Y-63532474D01*
X114444465Y-63515934D01*
X114413816Y-63507721D01*
X114384926Y-63503146D01*
X114329366Y-63485093D01*
X114248532Y-63463434D01*
X114196955Y-63442070D01*
X114153458Y-63427937D01*
X114112706Y-63407173D01*
X114061129Y-63385809D01*
X113988652Y-63343964D01*
X113936605Y-63317445D01*
X113912941Y-63300252D01*
X113885460Y-63284386D01*
X113784930Y-63207247D01*
X113739706Y-63174390D01*
X113731779Y-63166463D01*
X113724533Y-63160903D01*
X113581096Y-63017466D01*
X113575535Y-63010219D01*
X113567610Y-63002294D01*
X113534756Y-62957074D01*
X113457613Y-62856539D01*
X113441745Y-62829055D01*
X113424555Y-62805395D01*
X113398038Y-62753353D01*
X113356190Y-62680870D01*
X113334823Y-62629286D01*
X113314063Y-62588542D01*
X113299931Y-62545050D01*
X113278565Y-62493467D01*
X113256902Y-62412620D01*
X113238854Y-62357074D01*
X113234279Y-62328189D01*
X113226065Y-62297534D01*
X113209524Y-62171891D01*
X113200781Y-62116690D01*
X113200781Y-62105480D01*
X113199588Y-62096419D01*
X113199588Y-61893580D01*
X113200781Y-61884518D01*
X113200781Y-61873310D01*
X113209523Y-61818113D01*
X113226065Y-61692465D01*
X113234279Y-61661807D01*
X113238854Y-61632926D01*
X113256900Y-61577383D01*
X113278565Y-61496532D01*
X113299933Y-61444944D01*
X113314063Y-61401458D01*
X113334821Y-61360717D01*
X113356190Y-61309129D01*
X113398042Y-61236637D01*
X113424555Y-61184605D01*
X113441742Y-61160948D01*
X113457613Y-61133460D01*
X113534770Y-61032906D01*
X113567610Y-60987706D01*
X113575532Y-60979783D01*
X113581096Y-60972533D01*
X113724533Y-60829096D01*
X113731783Y-60823532D01*
X113739706Y-60815610D01*
X113784906Y-60782770D01*
X113885460Y-60705613D01*
X113912948Y-60689742D01*
X113936605Y-60672555D01*
X113988637Y-60646042D01*
X114061129Y-60604190D01*
X114112717Y-60582821D01*
X114153458Y-60562063D01*
X114196944Y-60547933D01*
X114248532Y-60526565D01*
X114329383Y-60504900D01*
X114384926Y-60486854D01*
X114413807Y-60482279D01*
X114444465Y-60474065D01*
X114570113Y-60457523D01*
X114625310Y-60448781D01*
X114636518Y-60448781D01*
X114645580Y-60447588D01*
X114848420Y-60447588D01*
X114857482Y-60448781D01*
G37*
G36*
X112791517Y-60647882D02*
G01*
X112808062Y-60658938D01*
X112819118Y-60675483D01*
X112823000Y-60695000D01*
X112823000Y-63295000D01*
X112819118Y-63314517D01*
X112808062Y-63331062D01*
X112791517Y-63342118D01*
X112772000Y-63346000D01*
X110172000Y-63346000D01*
X110152483Y-63342118D01*
X110135938Y-63331062D01*
X110124882Y-63314517D01*
X110121000Y-63295000D01*
X110121000Y-60695000D01*
X110124882Y-60675483D01*
X110135938Y-60658938D01*
X110152483Y-60647882D01*
X110172000Y-60644000D01*
X112772000Y-60644000D01*
X112791517Y-60647882D01*
G37*
M02*
