M48
; DRILL file {KiCad 9.0.2} date 2025-10-01T13:15:12-0400
; FORMAT={-:-/ absolute / metric / decimal}
; #@! TF.CreationDate,2025-10-01T13:15:12-04:00
; #@! TF.GenerationSoftware,Kicad,Pcbnew,9.0.2
; #@! TF.FileFunction,Plated,1,2,PTH
FMAT,2
METRIC
; #@! TA.AperFunction,Plated,PTH,ViaDrill
T1C0.400
; #@! TA.AperFunction,Plated,PTH,ComponentDrill
T2C0.750
; #@! TA.AperFunction,Plated,PTH,ComponentDrill
T3C0.800
; #@! TA.AperFunction,Plated,PTH,ComponentDrill
T4C1.000
; #@! TA.AperFunction,Plated,PTH,ComponentDrill
T5C1.100
; #@! TA.AperFunction,Plated,PTH,ComponentDrill
T6C2.500
; #@! TA.AperFunction,Plated,PTH,ComponentDrill
T7C3.500
%
G90
G05
T1
X112.4Y-141.6
X117.4Y-141.6
X122.4Y-71.6
X122.4Y-136.6
X122.4Y-141.6
X122.65Y-131.35
X131.4Y-89.85
X131.4Y-93.85
X131.4Y-102.35
X131.4Y-113.35
X132.4Y-76.6
X132.4Y-126.6
X133.15Y-103.28
X133.198Y-83.6
X133.4Y-118.6
X133.745Y-104.145
X133.977Y-92.523
X134.125Y-105.157
X135.406Y-82.77
X135.9Y-85.35
X136.15Y-99.1
X136.15Y-106.6
X136.69Y-105.7
X137.4Y-76.6
X137.4Y-126.6
X137.871Y-105.625
X138.65Y-97.35
X139.9Y-95.85
X139.9Y-101.6
X142.4Y-76.6
X142.4Y-126.6
X143.65Y-95.85
X143.65Y-101.6
X144.589Y-113.386
X145.129Y-91.096
X145.4Y-111.6
X145.9Y-125.35
X146.4Y-95.85
X146.4Y-101.6
X147.425Y-124.1
X149.4Y-111.35
X149.65Y-90.1
X149.65Y-97.35
X149.65Y-104.6
X150.9Y-103.6
X151.15Y-101.6
X153.4Y-85.85
X153.9Y-105.6
X154.15Y-118.1
X156.15Y-111.6
X158.65Y-123.85
X165.15Y-79.85
X167.4Y-81.6
X167.4Y-86.6
X167.4Y-91.6
X167.4Y-116.6
X167.4Y-121.6
X169.825Y-111.6
X169.9Y-94.1
X169.9Y-99.1
X169.9Y-104.1
X169.9Y-109.1
T2
X159.9Y-99.6
X161.4Y-84.35
X161.4Y-115.35
T3
X159.9Y-101.6
X159.9Y-103.6
X161.4Y-86.35
X161.4Y-88.35
X161.4Y-117.35
X161.4Y-119.35
T4
X109.774Y-127.786
X109.78Y-75.42
X111.57Y-125.99
X111.576Y-77.216
X113.366Y-124.194
X113.372Y-79.012
X115.162Y-122.398
X115.168Y-80.808
X120.208Y-77.216
X120.208Y-125.984
X122.748Y-77.216
X122.748Y-125.984
X125.288Y-77.216
X125.288Y-125.984
X127.828Y-77.216
X127.828Y-125.984
X130.4Y-81.6
X130.4Y-84.14
X130.4Y-86.68
X130.4Y-116.52
X130.4Y-119.06
X130.4Y-121.6
X132.65Y-97.81
X132.65Y-100.35
X148.148Y-77.216
X148.148Y-125.984
X150.688Y-77.216
X150.688Y-125.984
X153.228Y-77.216
X153.228Y-125.984
X155.768Y-77.216
X155.768Y-125.984
X155.901Y-97.79
X155.901Y-100.33
X155.901Y-102.87
X155.901Y-105.41
X159.9Y-97.6
X159.9Y-105.6
X161.4Y-82.35
X161.4Y-90.35
X161.4Y-113.35
X161.4Y-121.35
T5
X135.72Y-93.96
X135.72Y-109.2
X138.26Y-93.96
X138.26Y-109.2
X140.8Y-93.96
X140.8Y-109.2
X143.34Y-93.96
X143.34Y-109.2
X145.88Y-93.96
X145.88Y-109.2
X148.42Y-93.96
X148.42Y-109.2
X150.96Y-93.96
X150.96Y-109.2
X153.5Y-93.96
X153.5Y-109.2
X156.04Y-93.96
X156.04Y-109.2
X158.58Y-93.96
X158.58Y-109.2
X161.12Y-93.96
X161.12Y-109.2
X163.66Y-93.96
X163.66Y-109.2
T6
X114.64Y-117.02
X114.66Y-86.16
T7
X121.4Y-83.6
X121.4Y-119.6
X140.4Y-88.6
X140.4Y-114.6
M30
