G04 #@! TF.GenerationSoftware,KiCad,Pcbnew,9.0.2*
G04 #@! TF.CreationDate,2025-08-20T20:18:49-04:00*
G04 #@! TF.ProjectId,Trackball,54726163-6b62-4616-9c6c-2e6b69636164,rev?*
G04 #@! TF.SameCoordinates,Original*
G04 #@! TF.FileFunction,Copper,L2,Bot*
G04 #@! TF.FilePolarity,Positive*
%FSLAX46Y46*%
G04 Gerber Fmt 4.6, Leading zero omitted, Abs format (unit mm)*
G04 Created by KiCad (PCBNEW 9.0.2) date 2025-08-20 20:18:49*
%MOMM*%
%LPD*%
G01*
G04 APERTURE LIST*
G04 Aperture macros list*
%AMRoundRect*
0 Rectangle with rounded corners*
0 $1 Rounding radius*
0 $2 $3 $4 $5 $6 $7 $8 $9 X,Y pos of 4 corners*
0 Add a 4 corners polygon primitive as box body*
4,1,4,$2,$3,$4,$5,$6,$7,$8,$9,$2,$3,0*
0 Add four circle primitives for the rounded corners*
1,1,$1+$1,$2,$3*
1,1,$1+$1,$4,$5*
1,1,$1+$1,$6,$7*
1,1,$1+$1,$8,$9*
0 Add four rect primitives between the rounded corners*
20,1,$1+$1,$2,$3,$4,$5,0*
20,1,$1+$1,$4,$5,$6,$7,0*
20,1,$1+$1,$6,$7,$8,$9,0*
20,1,$1+$1,$8,$9,$2,$3,0*%
%AMRotRect*
0 Rectangle, with rotation*
0 The origin of the aperture is its center*
0 $1 length*
0 $2 width*
0 $3 Rotation angle, in degrees counterclockwise*
0 Add horizontal line*
21,1,$1,$2,0,0,$3*%
G04 Aperture macros list end*
G04 #@! TA.AperFunction,SMDPad,CuDef*
%ADD10R,2.600000X2.600000*%
G04 #@! TD*
G04 #@! TA.AperFunction,ComponentPad*
%ADD11RotRect,1.600000X1.600000X280.000000*%
G04 #@! TD*
G04 #@! TA.AperFunction,ComponentPad*
%ADD12C,1.600000*%
G04 #@! TD*
G04 #@! TA.AperFunction,ComponentPad*
%ADD13R,1.700000X1.700000*%
G04 #@! TD*
G04 #@! TA.AperFunction,ComponentPad*
%ADD14C,1.700000*%
G04 #@! TD*
G04 #@! TA.AperFunction,ComponentPad*
%ADD15C,1.300000*%
G04 #@! TD*
G04 #@! TA.AperFunction,ComponentPad*
%ADD16C,1.200000*%
G04 #@! TD*
G04 #@! TA.AperFunction,ComponentPad*
%ADD17C,1.500000*%
G04 #@! TD*
G04 #@! TA.AperFunction,SMDPad,CuDef*
%ADD18RoundRect,0.250000X0.043542X-0.725417X0.606458X-0.400417X-0.043542X0.725417X-0.606458X0.400417X0*%
G04 #@! TD*
G04 #@! TA.AperFunction,SMDPad,CuDef*
%ADD19RoundRect,0.250000X0.606458X0.400417X0.043542X0.725417X-0.606458X-0.400417X-0.043542X-0.725417X0*%
G04 #@! TD*
G04 #@! TA.AperFunction,ViaPad*
%ADD20C,0.800000*%
G04 #@! TD*
G04 #@! TA.AperFunction,Conductor*
%ADD21C,0.500000*%
G04 #@! TD*
G04 #@! TA.AperFunction,Conductor*
%ADD22C,0.250000*%
G04 #@! TD*
G04 APERTURE END LIST*
D10*
X111472000Y-129432000D03*
X123022000Y-131632000D03*
X111472000Y-61995000D03*
X123022000Y-64195000D03*
D11*
X135679901Y-95425434D03*
D12*
X136120966Y-97926846D03*
X136562034Y-100428258D03*
X137003100Y-102929671D03*
X137444166Y-105431084D03*
X137885232Y-107932493D03*
X138326299Y-110433905D03*
X138767364Y-112935316D03*
X139208432Y-115436727D03*
X139649498Y-117938140D03*
X140090564Y-120439551D03*
X140531630Y-122940962D03*
X155540099Y-120294566D03*
X155099034Y-117793154D03*
X154657966Y-115291742D03*
X154216900Y-112790329D03*
X153775834Y-110288916D03*
X153334768Y-107787507D03*
X152893701Y-105286095D03*
X152452636Y-102784684D03*
X152011568Y-100283273D03*
X151570502Y-97781860D03*
X151129436Y-95280449D03*
X150688370Y-92779038D03*
D13*
X120208000Y-77216000D03*
D14*
X122748000Y-77216000D03*
X125288000Y-77216000D03*
X127828000Y-77216000D03*
D13*
X120208000Y-125984000D03*
D14*
X122748000Y-125984000D03*
X125288000Y-125984000D03*
X127828000Y-125984000D03*
D13*
X156301000Y-97790000D03*
D14*
X156301000Y-100330000D03*
X156301000Y-102870000D03*
X156301000Y-105410000D03*
D13*
X130400000Y-121600000D03*
D14*
X130400000Y-119060000D03*
X130400000Y-116520000D03*
D13*
X130400000Y-81600000D03*
D14*
X130400000Y-84140000D03*
X130400000Y-86680000D03*
D13*
X109032000Y-125984000D03*
D14*
X111572000Y-125984000D03*
X114112000Y-125984000D03*
X116652000Y-125984000D03*
D13*
X109032000Y-77216000D03*
D14*
X111572000Y-77216000D03*
X114112000Y-77216000D03*
X116652000Y-77216000D03*
D13*
X155768000Y-125984000D03*
D14*
X153228000Y-125984000D03*
X150688000Y-125984000D03*
X148148000Y-125984000D03*
D13*
X155768000Y-77216000D03*
D14*
X153228000Y-77216000D03*
X150688000Y-77216000D03*
X148148000Y-77216000D03*
D13*
X132400000Y-96520000D03*
D14*
X132400000Y-99060000D03*
X132400000Y-101600000D03*
X132400000Y-104140000D03*
X132400000Y-106680000D03*
D15*
X158152914Y-92795555D03*
X157635276Y-90863703D03*
D16*
X157117638Y-88931852D03*
D17*
X158670552Y-94727407D03*
X156600000Y-87000000D03*
D18*
X113670000Y-118260000D03*
X116224774Y-116785000D03*
D13*
X136200000Y-120260000D03*
D14*
X136200000Y-122800000D03*
D19*
X116190000Y-86500000D03*
X113635226Y-85025000D03*
D20*
X152300000Y-93700000D03*
X153000000Y-120300000D03*
X155400000Y-81200000D03*
X125000000Y-71600000D03*
X109800000Y-139000000D03*
X112100000Y-131600000D03*
X149500000Y-99500000D03*
X149000000Y-96500000D03*
X136300000Y-104400000D03*
X126700000Y-117500000D03*
X137800000Y-101500000D03*
X137600000Y-99300000D03*
X150000000Y-109900000D03*
X132400000Y-121000000D03*
X142900000Y-92600000D03*
X148600000Y-90300000D03*
X125300000Y-121700000D03*
X142600000Y-100400000D03*
X148150000Y-86700000D03*
X146850000Y-83400000D03*
X146500000Y-112800000D03*
X132970000Y-114650000D03*
X126000000Y-129425000D03*
X138800000Y-78400000D03*
X136923008Y-126373008D03*
X139225000Y-81400000D03*
X139600000Y-80000000D03*
X136295505Y-127404495D03*
X141200000Y-80400000D03*
X156000000Y-122800000D03*
X141600000Y-95425434D03*
X147400000Y-120800000D03*
X138775000Y-82600000D03*
X118800000Y-122100000D03*
X137850000Y-97040000D03*
X145825000Y-84490000D03*
X146400000Y-117400000D03*
D21*
X112100000Y-131000000D02*
X112100000Y-131600000D01*
X111300000Y-130200000D02*
X112100000Y-131000000D01*
X148010000Y-86680000D02*
X148130000Y-86680000D01*
X130400000Y-86680000D02*
X148010000Y-86680000D01*
X148130000Y-86680000D02*
X148150000Y-86700000D01*
D22*
X137760000Y-111700000D02*
X152364751Y-111700000D01*
X130400000Y-119060000D02*
X137760000Y-111700000D01*
X152364751Y-111700000D02*
X153775834Y-110288917D01*
X146650000Y-83600000D02*
X146850000Y-83400000D01*
X146509671Y-112790329D02*
X146500000Y-112800000D01*
X132400000Y-83600000D02*
X146650000Y-83600000D01*
X154216900Y-112790329D02*
X146509671Y-112790329D01*
X130400000Y-81600000D02*
X132400000Y-83600000D01*
X132970000Y-114650000D02*
X131100000Y-116520000D01*
X131100000Y-116520000D02*
X130400000Y-116520000D01*
X124572000Y-131632000D02*
X126000000Y-130204000D01*
X126000000Y-130204000D02*
X126000000Y-129425000D01*
X123022000Y-131632000D02*
X124572000Y-131632000D01*
X111472000Y-69472000D02*
X115700000Y-73700000D01*
X133845584Y-73700000D02*
X138545584Y-78400000D01*
X138545584Y-78400000D02*
X138800000Y-78400000D01*
X111472000Y-61995000D02*
X111472000Y-69472000D01*
X115700000Y-73700000D02*
X133845584Y-73700000D01*
X138930000Y-81400000D02*
X139225000Y-81400000D01*
X114112000Y-125984000D02*
X116328000Y-128200000D01*
X116328000Y-128200000D02*
X134403984Y-128200000D01*
X136682190Y-79152190D02*
X138930000Y-81400000D01*
X116278000Y-75050000D02*
X133286396Y-75050000D01*
X136230976Y-126373008D02*
X136923008Y-126373008D01*
X133286396Y-75050000D02*
X136682190Y-78445794D01*
X134403984Y-128200000D02*
X136230976Y-126373008D01*
X114112000Y-77216000D02*
X116278000Y-75050000D01*
X136682190Y-78445794D02*
X136682190Y-79152190D01*
X134700000Y-126600000D02*
X134700000Y-122100000D01*
X133800000Y-119084000D02*
X133816000Y-119084000D01*
X133800000Y-121200000D02*
X133800000Y-119084000D01*
X134700000Y-122100000D02*
X133800000Y-121200000D01*
X137132190Y-78459398D02*
X138672792Y-80000000D01*
X114188000Y-74600000D02*
X133472792Y-74600000D01*
X138672792Y-80000000D02*
X139600000Y-80000000D01*
X135000000Y-117900000D02*
X137551013Y-117900000D01*
X133800000Y-127500000D02*
X134700000Y-126600000D01*
X133816000Y-119084000D02*
X135000000Y-117900000D01*
X111572000Y-125984000D02*
X113856000Y-123700000D01*
X133472792Y-74600000D02*
X137132190Y-78259398D01*
X137132190Y-78259398D02*
X137132190Y-78459398D01*
X131300000Y-127500000D02*
X133800000Y-127500000D01*
X113856000Y-123700000D02*
X127500000Y-123700000D01*
X127500000Y-123700000D02*
X131300000Y-127500000D01*
X137551013Y-117900000D02*
X140090564Y-120439551D01*
X111572000Y-77216000D02*
X114188000Y-74600000D01*
X115513604Y-74150000D02*
X133659188Y-74150000D01*
X115400000Y-132600000D02*
X119350000Y-128650000D01*
X109032000Y-130244000D02*
X111388000Y-132600000D01*
X135050000Y-128650000D02*
X136295505Y-127404495D01*
X109032000Y-77216000D02*
X109032000Y-76116000D01*
X109032000Y-125984000D02*
X109032000Y-130244000D01*
X137582190Y-78273002D02*
X138509188Y-79200000D01*
X138509188Y-79200000D02*
X140000000Y-79200000D01*
X109032000Y-76116000D02*
X111298000Y-73850000D01*
X111298000Y-73850000D02*
X115213604Y-73850000D01*
X137582190Y-78073002D02*
X137582190Y-78273002D01*
X115213604Y-73850000D02*
X115513604Y-74150000D01*
X133659188Y-74150000D02*
X137582190Y-78073002D01*
X111388000Y-132600000D02*
X115400000Y-132600000D01*
X140000000Y-79200000D02*
X141200000Y-80400000D01*
X119350000Y-128650000D02*
X135050000Y-128650000D01*
D21*
X137397919Y-125200000D02*
X142900000Y-125200000D01*
X142900000Y-125200000D02*
X145300000Y-122800000D01*
X136200000Y-122800000D02*
X136200000Y-124002081D01*
X145300000Y-122800000D02*
X156000000Y-122800000D01*
X136200000Y-124002081D02*
X137397919Y-125200000D01*
D22*
X135679901Y-95425434D02*
X141600000Y-95425434D01*
X133691083Y-105431083D02*
X137444166Y-105431083D01*
X132400000Y-104140000D02*
X133691083Y-105431083D01*
D21*
X138400000Y-124500000D02*
X142500000Y-124500000D01*
X136200000Y-120260000D02*
X137732793Y-120260000D01*
X137732793Y-120260000D02*
X138300000Y-120827207D01*
X146200000Y-120800000D02*
X147400000Y-120800000D01*
X138300000Y-124400000D02*
X138400000Y-124500000D01*
X142500000Y-124500000D02*
X146200000Y-120800000D01*
X138300000Y-120827207D02*
X138300000Y-124400000D01*
D22*
X131466680Y-120236000D02*
X120664000Y-120236000D01*
X138632190Y-82600000D02*
X138775000Y-82600000D01*
X133100000Y-75500000D02*
X136232190Y-78632190D01*
X138767364Y-112935316D02*
X131466680Y-120236000D01*
X136232190Y-78632190D02*
X136232190Y-80200000D01*
X120664000Y-120236000D02*
X118800000Y-122100000D01*
X116652000Y-77216000D02*
X118368000Y-75500000D01*
X118368000Y-75500000D02*
X133100000Y-75500000D01*
X136232190Y-80200000D02*
X138632190Y-82600000D01*
X151570502Y-97781860D02*
X138591860Y-97781860D01*
X138591860Y-97781860D02*
X137850000Y-97040000D01*
X136153905Y-110433905D02*
X138326299Y-110433905D01*
X132400000Y-106680000D02*
X136153905Y-110433905D01*
X130400000Y-84140000D02*
X145475000Y-84140000D01*
X155099034Y-117793153D02*
X146793153Y-117793153D01*
X145475000Y-84140000D02*
X145825000Y-84490000D01*
X146793153Y-117793153D02*
X146400000Y-117400000D01*
G04 #@! TA.AperFunction,Conductor*
G36*
X112922445Y-126663766D02*
G01*
X112947021Y-126692130D01*
X112947196Y-126692004D01*
X112948668Y-126694030D01*
X112949439Y-126694920D01*
X112950105Y-126696007D01*
X112950106Y-126696009D01*
X113075794Y-126869004D01*
X113075796Y-126869006D01*
X113075798Y-126869009D01*
X113226990Y-127020201D01*
X113226993Y-127020203D01*
X113226996Y-127020206D01*
X113399991Y-127145894D01*
X113590517Y-127242972D01*
X113793878Y-127309047D01*
X113793879Y-127309047D01*
X113793884Y-127309049D01*
X114005084Y-127342500D01*
X114005087Y-127342500D01*
X114218913Y-127342500D01*
X114218916Y-127342500D01*
X114430116Y-127309049D01*
X114440475Y-127305682D01*
X114455935Y-127305240D01*
X114470430Y-127299834D01*
X114490703Y-127304244D01*
X114511442Y-127303650D01*
X114525757Y-127311869D01*
X114539804Y-127314925D01*
X114568514Y-127336418D01*
X114700200Y-127468104D01*
X114734226Y-127530416D01*
X114729161Y-127601231D01*
X114686614Y-127658067D01*
X114627551Y-127682120D01*
X114589723Y-127687100D01*
X114404768Y-127711450D01*
X114258833Y-127750553D01*
X114183113Y-127770842D01*
X114028631Y-127834831D01*
X113971110Y-127858657D01*
X113971099Y-127858662D01*
X113772391Y-127973386D01*
X113772384Y-127973391D01*
X113590347Y-128113073D01*
X113590326Y-128113092D01*
X113495095Y-128208324D01*
X113432783Y-128242350D01*
X113361968Y-128237285D01*
X113305132Y-128194738D01*
X113280321Y-128128218D01*
X113280000Y-128119229D01*
X113280000Y-128083414D01*
X113279999Y-128083402D01*
X113273494Y-128022906D01*
X113222444Y-127886035D01*
X113222444Y-127886034D01*
X113134904Y-127769095D01*
X113017965Y-127681555D01*
X112881093Y-127630505D01*
X112820597Y-127624000D01*
X111726000Y-127624000D01*
X111726000Y-131240000D01*
X112820585Y-131240000D01*
X112820597Y-131239999D01*
X112881093Y-131233494D01*
X113017964Y-131182444D01*
X113017965Y-131182444D01*
X113134904Y-131094904D01*
X113222444Y-130977965D01*
X113222444Y-130977964D01*
X113273494Y-130841093D01*
X113279999Y-130780597D01*
X113280000Y-130780585D01*
X113280000Y-130744771D01*
X113300002Y-130676650D01*
X113353658Y-130630157D01*
X113423932Y-130620053D01*
X113488512Y-130649547D01*
X113495095Y-130655676D01*
X113590326Y-130750907D01*
X113590347Y-130750926D01*
X113772384Y-130890608D01*
X113772391Y-130890613D01*
X113971099Y-131005337D01*
X113971103Y-131005338D01*
X113971112Y-131005344D01*
X114183113Y-131093158D01*
X114404762Y-131152548D01*
X114404766Y-131152548D01*
X114404768Y-131152549D01*
X114463398Y-131160267D01*
X114632266Y-131182500D01*
X114632273Y-131182500D01*
X114861727Y-131182500D01*
X114861734Y-131182500D01*
X115067345Y-131155430D01*
X115089231Y-131152549D01*
X115089231Y-131152548D01*
X115089238Y-131152548D01*
X115310887Y-131093158D01*
X115522888Y-131005344D01*
X115721612Y-130890611D01*
X115903661Y-130750919D01*
X116065919Y-130588661D01*
X116205611Y-130406612D01*
X116320344Y-130207888D01*
X116408158Y-129995887D01*
X116467548Y-129774238D01*
X116497500Y-129546734D01*
X116497500Y-129317266D01*
X116467548Y-129089762D01*
X116441382Y-128992108D01*
X116443072Y-128921135D01*
X116482866Y-128862339D01*
X116548130Y-128834391D01*
X116563089Y-128833500D01*
X117966405Y-128833500D01*
X118034526Y-128853502D01*
X118081019Y-128907158D01*
X118091123Y-128977432D01*
X118061629Y-129042012D01*
X118055500Y-129048595D01*
X115174501Y-131929595D01*
X115112189Y-131963621D01*
X115085406Y-131966500D01*
X111702594Y-131966500D01*
X111634473Y-131946498D01*
X111613499Y-131929595D01*
X111138999Y-131455095D01*
X111104973Y-131392783D01*
X111110038Y-131321968D01*
X111152585Y-131265132D01*
X111216832Y-131241168D01*
X111218000Y-131240001D01*
X111218000Y-127624000D01*
X110123402Y-127624000D01*
X110062906Y-127630505D01*
X109926035Y-127681555D01*
X109926034Y-127681555D01*
X109867009Y-127725742D01*
X109854186Y-127730524D01*
X109843842Y-127739488D01*
X109821569Y-127742690D01*
X109800489Y-127750553D01*
X109787116Y-127747644D01*
X109773568Y-127749592D01*
X109753101Y-127740244D01*
X109731115Y-127735462D01*
X109721436Y-127725783D01*
X109708988Y-127720098D01*
X109696823Y-127701169D01*
X109680913Y-127685259D01*
X109677167Y-127670584D01*
X109670604Y-127660372D01*
X109665500Y-127624874D01*
X109665500Y-127468500D01*
X109685502Y-127400379D01*
X109739158Y-127353886D01*
X109791500Y-127342500D01*
X109930632Y-127342500D01*
X109930638Y-127342500D01*
X109930645Y-127342499D01*
X109930649Y-127342499D01*
X109991196Y-127335990D01*
X109991199Y-127335989D01*
X109991201Y-127335989D01*
X110128204Y-127284889D01*
X110184199Y-127242972D01*
X110245261Y-127197261D01*
X110332887Y-127080207D01*
X110332887Y-127080206D01*
X110332889Y-127080204D01*
X110376869Y-126962288D01*
X110419414Y-126905456D01*
X110485934Y-126880645D01*
X110555308Y-126895736D01*
X110584018Y-126917229D01*
X110686990Y-127020201D01*
X110686993Y-127020203D01*
X110686996Y-127020206D01*
X110859991Y-127145894D01*
X111050517Y-127242972D01*
X111253878Y-127309047D01*
X111253879Y-127309047D01*
X111253884Y-127309049D01*
X111465084Y-127342500D01*
X111465087Y-127342500D01*
X111678913Y-127342500D01*
X111678916Y-127342500D01*
X111890116Y-127309049D01*
X112093483Y-127242972D01*
X112284009Y-127145894D01*
X112457004Y-127020206D01*
X112608206Y-126869004D01*
X112733894Y-126696009D01*
X112733899Y-126695997D01*
X112734561Y-126694920D01*
X112734924Y-126694591D01*
X112736804Y-126692004D01*
X112737347Y-126692398D01*
X112787204Y-126647283D01*
X112857244Y-126635670D01*
X112922445Y-126663766D01*
G37*
G04 #@! TD.AperFunction*
G04 #@! TA.AperFunction,Conductor*
G36*
X127253527Y-124353502D02*
G01*
X127274501Y-124370405D01*
X127405016Y-124500920D01*
X127439042Y-124563232D01*
X127433977Y-124634047D01*
X127391430Y-124690883D01*
X127354857Y-124709848D01*
X127306713Y-124725490D01*
X127306707Y-124725493D01*
X127116253Y-124822534D01*
X127063831Y-124860621D01*
X127063831Y-124860622D01*
X127703051Y-125499842D01*
X127635007Y-125518075D01*
X127520993Y-125583901D01*
X127427901Y-125676993D01*
X127362075Y-125791007D01*
X127343842Y-125859051D01*
X126704622Y-125219831D01*
X126704621Y-125219831D01*
X126666522Y-125272269D01*
X126665422Y-125274065D01*
X126664827Y-125274603D01*
X126663624Y-125276259D01*
X126663275Y-125276006D01*
X126612768Y-125321689D01*
X126542725Y-125333286D01*
X126477531Y-125305174D01*
X126452440Y-125276211D01*
X126452376Y-125276258D01*
X126451830Y-125275506D01*
X126450563Y-125274044D01*
X126449462Y-125272248D01*
X126411378Y-125219831D01*
X125772157Y-125859051D01*
X125753925Y-125791007D01*
X125688099Y-125676993D01*
X125595007Y-125583901D01*
X125480993Y-125518075D01*
X125412947Y-125499841D01*
X126052168Y-124860621D01*
X126052167Y-124860620D01*
X125999750Y-124822536D01*
X125999748Y-124822535D01*
X125809292Y-124725493D01*
X125809286Y-124725490D01*
X125606003Y-124659440D01*
X125394874Y-124626000D01*
X125181126Y-124626000D01*
X124969996Y-124659440D01*
X124766713Y-124725490D01*
X124766707Y-124725493D01*
X124576253Y-124822534D01*
X124523831Y-124860621D01*
X124523831Y-124860622D01*
X125163051Y-125499842D01*
X125095007Y-125518075D01*
X124980993Y-125583901D01*
X124887901Y-125676993D01*
X124822075Y-125791007D01*
X124803842Y-125859051D01*
X124164622Y-125219831D01*
X124164621Y-125219831D01*
X124126522Y-125272269D01*
X124125422Y-125274065D01*
X124124827Y-125274603D01*
X124123624Y-125276259D01*
X124123275Y-125276006D01*
X124072768Y-125321689D01*
X124002725Y-125333286D01*
X123937531Y-125305174D01*
X123912440Y-125276211D01*
X123912376Y-125276258D01*
X123911830Y-125275506D01*
X123910563Y-125274044D01*
X123909462Y-125272248D01*
X123871378Y-125219831D01*
X123232157Y-125859051D01*
X123213925Y-125791007D01*
X123148099Y-125676993D01*
X123055007Y-125583901D01*
X122940993Y-125518075D01*
X122872947Y-125499841D01*
X123512168Y-124860621D01*
X123512167Y-124860620D01*
X123459750Y-124822536D01*
X123459748Y-124822535D01*
X123269292Y-124725493D01*
X123269286Y-124725490D01*
X123066003Y-124659440D01*
X122854874Y-124626000D01*
X122641126Y-124626000D01*
X122429996Y-124659440D01*
X122226713Y-124725490D01*
X122226707Y-124725493D01*
X122036253Y-124822534D01*
X121983831Y-124860621D01*
X121983831Y-124860622D01*
X122623051Y-125499842D01*
X122555007Y-125518075D01*
X122440993Y-125583901D01*
X122347901Y-125676993D01*
X122282075Y-125791007D01*
X122263842Y-125859051D01*
X121594204Y-125189413D01*
X121560178Y-125127101D01*
X121559092Y-125121501D01*
X121528400Y-124941541D01*
X121508443Y-124888033D01*
X121420904Y-124771095D01*
X121303965Y-124683555D01*
X121167093Y-124632505D01*
X121106597Y-124626000D01*
X120462000Y-124626000D01*
X120462000Y-125553297D01*
X120400993Y-125518075D01*
X120273826Y-125484000D01*
X120142174Y-125484000D01*
X120015007Y-125518075D01*
X119954000Y-125553297D01*
X119954000Y-124626000D01*
X119309402Y-124626000D01*
X119248906Y-124632505D01*
X119112035Y-124683555D01*
X119112034Y-124683555D01*
X118995095Y-124771095D01*
X118907555Y-124888034D01*
X118907555Y-124888035D01*
X118856505Y-125024906D01*
X118850000Y-125085402D01*
X118850000Y-125730000D01*
X119777297Y-125730000D01*
X119742075Y-125791007D01*
X119708000Y-125918174D01*
X119708000Y-126049826D01*
X119742075Y-126176993D01*
X119777297Y-126238000D01*
X118850000Y-126238000D01*
X118850000Y-126882597D01*
X118856505Y-126943093D01*
X118907555Y-127079964D01*
X118907555Y-127079965D01*
X118995095Y-127196904D01*
X119112033Y-127284443D01*
X119213917Y-127322444D01*
X119270752Y-127364991D01*
X119295563Y-127431511D01*
X119280472Y-127500885D01*
X119230269Y-127551088D01*
X119169884Y-127566500D01*
X116945614Y-127566500D01*
X116877493Y-127546498D01*
X116831000Y-127492842D01*
X116820896Y-127422568D01*
X116850390Y-127357988D01*
X116910116Y-127319604D01*
X116925892Y-127316053D01*
X116970116Y-127309049D01*
X117173483Y-127242972D01*
X117364009Y-127145894D01*
X117537004Y-127020206D01*
X117688206Y-126869004D01*
X117813894Y-126696009D01*
X117910972Y-126505483D01*
X117977049Y-126302116D01*
X118010500Y-126090916D01*
X118010500Y-125877084D01*
X117977049Y-125665884D01*
X117910972Y-125462517D01*
X117813894Y-125271991D01*
X117688206Y-125098996D01*
X117688203Y-125098993D01*
X117688201Y-125098990D01*
X117537009Y-124947798D01*
X117537006Y-124947796D01*
X117537004Y-124947794D01*
X117364601Y-124822536D01*
X117364012Y-124822108D01*
X117364011Y-124822107D01*
X117364009Y-124822106D01*
X117173483Y-124725028D01*
X117173480Y-124725027D01*
X117173478Y-124725026D01*
X116970120Y-124658952D01*
X116970123Y-124658952D01*
X116930801Y-124652724D01*
X116758916Y-124625500D01*
X116545084Y-124625500D01*
X116333884Y-124658951D01*
X116333878Y-124658952D01*
X116130521Y-124725026D01*
X116130515Y-124725029D01*
X115939987Y-124822108D01*
X115766993Y-124947796D01*
X115766990Y-124947798D01*
X115615798Y-125098990D01*
X115615796Y-125098993D01*
X115490108Y-125271987D01*
X115489434Y-125273088D01*
X115489068Y-125273418D01*
X115487196Y-125275996D01*
X115486654Y-125275602D01*
X115436787Y-125320721D01*
X115366745Y-125332328D01*
X115301547Y-125304226D01*
X115276976Y-125275870D01*
X115276804Y-125275996D01*
X115275341Y-125273982D01*
X115274566Y-125273088D01*
X115273896Y-125271996D01*
X115273894Y-125271991D01*
X115148206Y-125098996D01*
X115148203Y-125098993D01*
X115148201Y-125098990D01*
X114997009Y-124947798D01*
X114997006Y-124947796D01*
X114997004Y-124947794D01*
X114824601Y-124822536D01*
X114824012Y-124822108D01*
X114824011Y-124822107D01*
X114824009Y-124822106D01*
X114633483Y-124725028D01*
X114633480Y-124725027D01*
X114633478Y-124725026D01*
X114430120Y-124658952D01*
X114430123Y-124658952D01*
X114390801Y-124652724D01*
X114218916Y-124625500D01*
X114130596Y-124625500D01*
X114109008Y-124619161D01*
X114086564Y-124617556D01*
X114075607Y-124609354D01*
X114062475Y-124605498D01*
X114047739Y-124588492D01*
X114029728Y-124575009D01*
X114024945Y-124562186D01*
X114015982Y-124551842D01*
X114012779Y-124529569D01*
X114004917Y-124508489D01*
X114007825Y-124495116D01*
X114005878Y-124481568D01*
X114015225Y-124461101D01*
X114020008Y-124439115D01*
X114033493Y-124421101D01*
X114035372Y-124416988D01*
X114041501Y-124410405D01*
X114081501Y-124370405D01*
X114143813Y-124336379D01*
X114170596Y-124333500D01*
X127185406Y-124333500D01*
X127253527Y-124353502D01*
G37*
G04 #@! TD.AperFunction*
G04 #@! TA.AperFunction,Conductor*
G36*
X122282075Y-126176993D02*
G01*
X122347901Y-126291007D01*
X122440993Y-126384099D01*
X122555007Y-126449925D01*
X122623051Y-126468157D01*
X121983831Y-127107378D01*
X122036249Y-127145463D01*
X122036251Y-127145464D01*
X122226707Y-127242506D01*
X122226713Y-127242509D01*
X122429996Y-127308559D01*
X122477293Y-127316051D01*
X122541446Y-127346464D01*
X122578973Y-127406732D01*
X122577959Y-127477721D01*
X122538726Y-127536893D01*
X122473731Y-127565461D01*
X122457582Y-127566500D01*
X121246116Y-127566500D01*
X121177995Y-127546498D01*
X121131502Y-127492842D01*
X121121398Y-127422568D01*
X121150892Y-127357988D01*
X121202083Y-127322444D01*
X121303966Y-127284443D01*
X121420904Y-127196904D01*
X121508444Y-127079965D01*
X121508444Y-127079964D01*
X121559494Y-126943094D01*
X121559496Y-126943087D01*
X121564017Y-126901019D01*
X121560677Y-126838705D01*
X121594205Y-126778583D01*
X122263841Y-126108947D01*
X122282075Y-126176993D01*
G37*
G04 #@! TD.AperFunction*
G04 #@! TA.AperFunction,Conductor*
G36*
X124822075Y-126176993D02*
G01*
X124887901Y-126291007D01*
X124980993Y-126384099D01*
X125095007Y-126449925D01*
X125163051Y-126468157D01*
X124523831Y-127107378D01*
X124576249Y-127145463D01*
X124576251Y-127145464D01*
X124766707Y-127242506D01*
X124766713Y-127242509D01*
X124969996Y-127308559D01*
X125017293Y-127316051D01*
X125081446Y-127346464D01*
X125118973Y-127406732D01*
X125117959Y-127477721D01*
X125078726Y-127536893D01*
X125013731Y-127565461D01*
X124997582Y-127566500D01*
X123038418Y-127566500D01*
X122970297Y-127546498D01*
X122923804Y-127492842D01*
X122913700Y-127422568D01*
X122943194Y-127357988D01*
X123002920Y-127319604D01*
X123018707Y-127316051D01*
X123066003Y-127308559D01*
X123269286Y-127242509D01*
X123269292Y-127242506D01*
X123459750Y-127145463D01*
X123512167Y-127107378D01*
X123512167Y-127107376D01*
X122872948Y-126468157D01*
X122940993Y-126449925D01*
X123055007Y-126384099D01*
X123148099Y-126291007D01*
X123213925Y-126176993D01*
X123232157Y-126108948D01*
X123871376Y-126748167D01*
X123871378Y-126748167D01*
X123909463Y-126695750D01*
X123910562Y-126693958D01*
X123911158Y-126693418D01*
X123912377Y-126691741D01*
X123912729Y-126691996D01*
X123963206Y-126646322D01*
X124033246Y-126634710D01*
X124098446Y-126662808D01*
X124123559Y-126691788D01*
X124123624Y-126691742D01*
X124124165Y-126692487D01*
X124125433Y-126693950D01*
X124126535Y-126695749D01*
X124164620Y-126748167D01*
X124164621Y-126748168D01*
X124803841Y-126108947D01*
X124822075Y-126176993D01*
G37*
G04 #@! TD.AperFunction*
G04 #@! TA.AperFunction,Conductor*
G36*
X127362075Y-126176993D02*
G01*
X127427901Y-126291007D01*
X127520993Y-126384099D01*
X127635007Y-126449925D01*
X127703051Y-126468157D01*
X127063831Y-127107378D01*
X127116249Y-127145463D01*
X127116251Y-127145464D01*
X127306707Y-127242506D01*
X127306713Y-127242509D01*
X127509996Y-127308559D01*
X127557293Y-127316051D01*
X127621446Y-127346464D01*
X127658973Y-127406732D01*
X127657959Y-127477721D01*
X127618726Y-127536893D01*
X127553731Y-127565461D01*
X127537582Y-127566500D01*
X125578418Y-127566500D01*
X125510297Y-127546498D01*
X125463804Y-127492842D01*
X125453700Y-127422568D01*
X125483194Y-127357988D01*
X125542920Y-127319604D01*
X125558707Y-127316051D01*
X125606003Y-127308559D01*
X125809286Y-127242509D01*
X125809292Y-127242506D01*
X125999750Y-127145463D01*
X126052167Y-127107378D01*
X126052167Y-127107376D01*
X125412948Y-126468157D01*
X125480993Y-126449925D01*
X125595007Y-126384099D01*
X125688099Y-126291007D01*
X125753925Y-126176993D01*
X125772157Y-126108948D01*
X126411376Y-126748167D01*
X126411378Y-126748167D01*
X126449463Y-126695750D01*
X126450562Y-126693958D01*
X126451158Y-126693418D01*
X126452377Y-126691741D01*
X126452729Y-126691996D01*
X126503206Y-126646322D01*
X126573246Y-126634710D01*
X126638446Y-126662808D01*
X126663559Y-126691788D01*
X126663624Y-126691742D01*
X126664165Y-126692487D01*
X126665433Y-126693950D01*
X126666535Y-126695749D01*
X126704620Y-126748167D01*
X126704621Y-126748168D01*
X127343841Y-126108947D01*
X127362075Y-126176993D01*
G37*
G04 #@! TD.AperFunction*
G04 #@! TA.AperFunction,Conductor*
G36*
X128951376Y-126748167D02*
G01*
X128951378Y-126748167D01*
X128989463Y-126695750D01*
X129086506Y-126505292D01*
X129086507Y-126505291D01*
X129102150Y-126457145D01*
X129142223Y-126398538D01*
X129207619Y-126370901D01*
X129277576Y-126383006D01*
X129311079Y-126406984D01*
X130255500Y-127351405D01*
X130289526Y-127413717D01*
X130284461Y-127484532D01*
X130241914Y-127541368D01*
X130175394Y-127566179D01*
X130166405Y-127566500D01*
X128118418Y-127566500D01*
X128050297Y-127546498D01*
X128003804Y-127492842D01*
X127993700Y-127422568D01*
X128023194Y-127357988D01*
X128082920Y-127319604D01*
X128098707Y-127316051D01*
X128146003Y-127308559D01*
X128349286Y-127242509D01*
X128349292Y-127242506D01*
X128539750Y-127145463D01*
X128592167Y-127107378D01*
X128592167Y-127107376D01*
X127952948Y-126468157D01*
X128020993Y-126449925D01*
X128135007Y-126384099D01*
X128228099Y-126291007D01*
X128293925Y-126176993D01*
X128312157Y-126108948D01*
X128951376Y-126748167D01*
G37*
G04 #@! TD.AperFunction*
G04 #@! TA.AperFunction,Conductor*
G36*
X133084532Y-119618218D02*
G01*
X133141368Y-119660765D01*
X133166179Y-119727285D01*
X133166500Y-119736274D01*
X133166500Y-121262396D01*
X133176185Y-121311086D01*
X133190845Y-121384785D01*
X133238600Y-121500075D01*
X133307929Y-121603833D01*
X133307931Y-121603835D01*
X134029595Y-122325499D01*
X134063621Y-122387811D01*
X134066500Y-122414594D01*
X134066500Y-123996807D01*
X134046498Y-124064928D01*
X133992842Y-124111421D01*
X133922568Y-124121525D01*
X133857988Y-124092031D01*
X133820668Y-124035745D01*
X133813736Y-124014411D01*
X133704724Y-123800464D01*
X133563586Y-123606204D01*
X133563583Y-123606201D01*
X133563581Y-123606198D01*
X133393801Y-123436418D01*
X133393798Y-123436416D01*
X133393796Y-123436414D01*
X133199536Y-123295276D01*
X132985589Y-123186264D01*
X132985586Y-123186263D01*
X132985584Y-123186262D01*
X132757227Y-123112064D01*
X132757223Y-123112063D01*
X132757222Y-123112063D01*
X132520059Y-123074500D01*
X132279941Y-123074500D01*
X132042778Y-123112063D01*
X132042772Y-123112064D01*
X131814415Y-123186262D01*
X131814409Y-123186265D01*
X131600460Y-123295278D01*
X131406201Y-123436416D01*
X131406198Y-123436418D01*
X131236418Y-123606198D01*
X131236416Y-123606201D01*
X131095278Y-123800460D01*
X130986265Y-124014409D01*
X130986262Y-124014415D01*
X130912064Y-124242772D01*
X130912063Y-124242777D01*
X130912063Y-124242778D01*
X130874500Y-124479941D01*
X130874500Y-124484312D01*
X130874500Y-124720059D01*
X130912063Y-124957222D01*
X130912064Y-124957227D01*
X130979336Y-125164267D01*
X130986264Y-125185589D01*
X131095276Y-125399536D01*
X131236414Y-125593796D01*
X131236416Y-125593798D01*
X131236418Y-125593801D01*
X131406198Y-125763581D01*
X131406201Y-125763583D01*
X131406204Y-125763586D01*
X131600464Y-125904724D01*
X131814411Y-126013736D01*
X132042778Y-126087937D01*
X132279941Y-126125500D01*
X132279944Y-126125500D01*
X132520056Y-126125500D01*
X132520059Y-126125500D01*
X132757222Y-126087937D01*
X132985589Y-126013736D01*
X133199536Y-125904724D01*
X133393796Y-125763586D01*
X133563586Y-125593796D01*
X133704724Y-125399536D01*
X133813736Y-125185589D01*
X133820667Y-125164256D01*
X133860740Y-125105651D01*
X133926136Y-125078013D01*
X133996093Y-125090119D01*
X134048399Y-125138125D01*
X134066500Y-125203192D01*
X134066500Y-126285406D01*
X134046498Y-126353527D01*
X134029595Y-126374501D01*
X133574501Y-126829595D01*
X133512189Y-126863621D01*
X133485406Y-126866500D01*
X131614595Y-126866500D01*
X131546474Y-126846498D01*
X131525500Y-126829595D01*
X127903835Y-123207931D01*
X127903834Y-123207930D01*
X127903833Y-123207929D01*
X127800075Y-123138600D01*
X127684785Y-123090845D01*
X127602613Y-123074500D01*
X127562396Y-123066500D01*
X127562394Y-123066500D01*
X119404153Y-123066500D01*
X119336032Y-123046498D01*
X119289539Y-122992842D01*
X119279435Y-122922568D01*
X119308929Y-122857988D01*
X119334149Y-122835736D01*
X119379135Y-122805678D01*
X119505678Y-122679135D01*
X119605102Y-122530336D01*
X119673587Y-122365000D01*
X119708500Y-122189479D01*
X119708500Y-122139594D01*
X119728502Y-122071473D01*
X119745405Y-122050499D01*
X120889499Y-120906405D01*
X120951811Y-120872379D01*
X120978594Y-120869500D01*
X128916000Y-120869500D01*
X128984121Y-120889502D01*
X129030614Y-120943158D01*
X129042000Y-120995500D01*
X129042000Y-121346000D01*
X129969297Y-121346000D01*
X129934075Y-121407007D01*
X129900000Y-121534174D01*
X129900000Y-121665826D01*
X129934075Y-121792993D01*
X129969297Y-121854000D01*
X129042000Y-121854000D01*
X129042000Y-122498597D01*
X129048505Y-122559093D01*
X129099555Y-122695964D01*
X129099555Y-122695965D01*
X129187095Y-122812904D01*
X129304034Y-122900444D01*
X129440906Y-122951494D01*
X129501402Y-122957999D01*
X129501415Y-122958000D01*
X130146000Y-122958000D01*
X130146000Y-122030702D01*
X130207007Y-122065925D01*
X130334174Y-122100000D01*
X130465826Y-122100000D01*
X130592993Y-122065925D01*
X130654000Y-122030702D01*
X130654000Y-122958000D01*
X131298585Y-122958000D01*
X131298597Y-122957999D01*
X131359093Y-122951494D01*
X131495964Y-122900444D01*
X131495965Y-122900444D01*
X131612904Y-122812904D01*
X131700444Y-122695965D01*
X131700444Y-122695964D01*
X131751494Y-122559093D01*
X131757999Y-122498597D01*
X131758000Y-122498585D01*
X131758000Y-121854000D01*
X130830703Y-121854000D01*
X130865925Y-121792993D01*
X130900000Y-121665826D01*
X130900000Y-121534174D01*
X130865925Y-121407007D01*
X130830703Y-121346000D01*
X131758000Y-121346000D01*
X131758000Y-120870598D01*
X131778002Y-120802477D01*
X131813998Y-120765833D01*
X131870513Y-120728071D01*
X132951405Y-119647179D01*
X133013717Y-119613153D01*
X133084532Y-119618218D01*
G37*
G04 #@! TD.AperFunction*
G04 #@! TA.AperFunction,Conductor*
G36*
X137584994Y-97913584D02*
G01*
X137585000Y-97913587D01*
X137760521Y-97948500D01*
X137810406Y-97948500D01*
X137878527Y-97968502D01*
X137899501Y-97985405D01*
X138099789Y-98185693D01*
X138188027Y-98273931D01*
X138291785Y-98343260D01*
X138407075Y-98391015D01*
X138529466Y-98415360D01*
X150349172Y-98415360D01*
X150417293Y-98435362D01*
X150451108Y-98467299D01*
X150451375Y-98467666D01*
X150572434Y-98634290D01*
X150572436Y-98634292D01*
X150572438Y-98634295D01*
X150718066Y-98779923D01*
X150718069Y-98779925D01*
X150718072Y-98779928D01*
X150884699Y-98900989D01*
X151068212Y-98994494D01*
X151172337Y-99028326D01*
X151230943Y-99068399D01*
X151258580Y-99133796D01*
X151246473Y-99203753D01*
X151207463Y-99250094D01*
X151159137Y-99285204D01*
X151013504Y-99430837D01*
X151013502Y-99430840D01*
X150892441Y-99597466D01*
X150798935Y-99780981D01*
X150798932Y-99780987D01*
X150735289Y-99976860D01*
X150735288Y-99976863D01*
X150735288Y-99976865D01*
X150703068Y-100180292D01*
X150703068Y-100386254D01*
X150724726Y-100522993D01*
X150735289Y-100589685D01*
X150797779Y-100782010D01*
X150798934Y-100785563D01*
X150892439Y-100969076D01*
X151013500Y-101135703D01*
X151013502Y-101135705D01*
X151013504Y-101135708D01*
X151159132Y-101281336D01*
X151159135Y-101281338D01*
X151159138Y-101281341D01*
X151325765Y-101402402D01*
X151509278Y-101495907D01*
X151607197Y-101527722D01*
X151613402Y-101529739D01*
X151672008Y-101569813D01*
X151699645Y-101635209D01*
X151687538Y-101705166D01*
X151648528Y-101751507D01*
X151600206Y-101786615D01*
X151600200Y-101786620D01*
X151454572Y-101932248D01*
X151454570Y-101932251D01*
X151333509Y-102098877D01*
X151240003Y-102282392D01*
X151240000Y-102282398D01*
X151176357Y-102478271D01*
X151176356Y-102478274D01*
X151176356Y-102478276D01*
X151144136Y-102681703D01*
X151144136Y-102887665D01*
X151171906Y-103062993D01*
X151176357Y-103091096D01*
X151229611Y-103254996D01*
X151240002Y-103286974D01*
X151333507Y-103470487D01*
X151333509Y-103470490D01*
X151363438Y-103511683D01*
X151454568Y-103637114D01*
X151454570Y-103637116D01*
X151454572Y-103637119D01*
X151600200Y-103782747D01*
X151600203Y-103782749D01*
X151600206Y-103782752D01*
X151766833Y-103903813D01*
X151950346Y-103997318D01*
X152054468Y-104031149D01*
X152113074Y-104071222D01*
X152140711Y-104136619D01*
X152128604Y-104206576D01*
X152089594Y-104252917D01*
X152041271Y-104288026D01*
X152041265Y-104288031D01*
X151895637Y-104433659D01*
X151895635Y-104433662D01*
X151774574Y-104600288D01*
X151681068Y-104783803D01*
X151681065Y-104783809D01*
X151617422Y-104979682D01*
X151617421Y-104979685D01*
X151617421Y-104979687D01*
X151585201Y-105183114D01*
X151585201Y-105389076D01*
X151617421Y-105592503D01*
X151617422Y-105592507D01*
X151674836Y-105769210D01*
X151681067Y-105788385D01*
X151774572Y-105971898D01*
X151895633Y-106138525D01*
X151895635Y-106138527D01*
X151895637Y-106138530D01*
X152041265Y-106284158D01*
X152041268Y-106284160D01*
X152041271Y-106284163D01*
X152207898Y-106405224D01*
X152391411Y-106498729D01*
X152495536Y-106532561D01*
X152554142Y-106572634D01*
X152581779Y-106638031D01*
X152569672Y-106707988D01*
X152530662Y-106754329D01*
X152494095Y-106780896D01*
X152482331Y-106789444D01*
X152336704Y-106935071D01*
X152336702Y-106935074D01*
X152215641Y-107101700D01*
X152122135Y-107285215D01*
X152122132Y-107285221D01*
X152058489Y-107481094D01*
X152058488Y-107481097D01*
X152058488Y-107481099D01*
X152026268Y-107684526D01*
X152026268Y-107890488D01*
X152058488Y-108093915D01*
X152122134Y-108289797D01*
X152215639Y-108473310D01*
X152336700Y-108639937D01*
X152336702Y-108639939D01*
X152336704Y-108639942D01*
X152482332Y-108785570D01*
X152482335Y-108785572D01*
X152482338Y-108785575D01*
X152648965Y-108906636D01*
X152832478Y-109000141D01*
X152870934Y-109012636D01*
X152936599Y-109033972D01*
X152995205Y-109074046D01*
X153022842Y-109139442D01*
X153010735Y-109209399D01*
X152971725Y-109255741D01*
X152923397Y-109290853D01*
X152777770Y-109436480D01*
X152777768Y-109436483D01*
X152656707Y-109603109D01*
X152563201Y-109786624D01*
X152563198Y-109786630D01*
X152499555Y-109982503D01*
X152499554Y-109982506D01*
X152499554Y-109982508D01*
X152467334Y-110185935D01*
X152467334Y-110391897D01*
X152480694Y-110476249D01*
X152499624Y-110595767D01*
X152490524Y-110666179D01*
X152464271Y-110704573D01*
X152139252Y-111029595D01*
X152076940Y-111063620D01*
X152050156Y-111066500D01*
X139670018Y-111066500D01*
X139601897Y-111046498D01*
X139555404Y-110992842D01*
X139545300Y-110922568D01*
X139550183Y-110901569D01*
X139602579Y-110740313D01*
X139634799Y-110536886D01*
X139634799Y-110330924D01*
X139602579Y-110127497D01*
X139538933Y-109931615D01*
X139445428Y-109748102D01*
X139324367Y-109581475D01*
X139324364Y-109581472D01*
X139324362Y-109581469D01*
X139178734Y-109435841D01*
X139178731Y-109435839D01*
X139178729Y-109435837D01*
X139012102Y-109314776D01*
X138828589Y-109221271D01*
X138724462Y-109187438D01*
X138665857Y-109147364D01*
X138638220Y-109081967D01*
X138650327Y-109012010D01*
X138689338Y-108965670D01*
X138737662Y-108930561D01*
X138883300Y-108784923D01*
X139004361Y-108618296D01*
X139097866Y-108434783D01*
X139161512Y-108238901D01*
X139193732Y-108035474D01*
X139193732Y-107829512D01*
X139161512Y-107626085D01*
X139097866Y-107430203D01*
X139004361Y-107246690D01*
X138883300Y-107080063D01*
X138883297Y-107080060D01*
X138883295Y-107080057D01*
X138737667Y-106934429D01*
X138737664Y-106934427D01*
X138737662Y-106934425D01*
X138571035Y-106813364D01*
X138387522Y-106719859D01*
X138319432Y-106697735D01*
X138283399Y-106686027D01*
X138224794Y-106645953D01*
X138197157Y-106580556D01*
X138209264Y-106510599D01*
X138248273Y-106464260D01*
X138296596Y-106429152D01*
X138442234Y-106283514D01*
X138563295Y-106116887D01*
X138656800Y-105933374D01*
X138720446Y-105737492D01*
X138752666Y-105534065D01*
X138752666Y-105328103D01*
X138720446Y-105124676D01*
X138656800Y-104928794D01*
X138563295Y-104745281D01*
X138442234Y-104578654D01*
X138442231Y-104578651D01*
X138442229Y-104578648D01*
X138296601Y-104433020D01*
X138296598Y-104433018D01*
X138296596Y-104433016D01*
X138129969Y-104311955D01*
X137946456Y-104218450D01*
X137873626Y-104194786D01*
X137841742Y-104184426D01*
X137783137Y-104144352D01*
X137755500Y-104078955D01*
X137767607Y-104008998D01*
X137806620Y-103962656D01*
X137855197Y-103927363D01*
X137855210Y-103927352D01*
X137908704Y-103873858D01*
X137257498Y-103417879D01*
X137340808Y-103369781D01*
X137443210Y-103267379D01*
X137515618Y-103141963D01*
X137552507Y-103004292D01*
X138201528Y-103458741D01*
X138215271Y-103431770D01*
X138215273Y-103431765D01*
X138278891Y-103235967D01*
X138311100Y-103032609D01*
X138311100Y-102826732D01*
X138278891Y-102623374D01*
X138215273Y-102427577D01*
X138215270Y-102427571D01*
X138121799Y-102244125D01*
X138000784Y-102077563D01*
X138000782Y-102077560D01*
X137947288Y-102024066D01*
X137947286Y-102024066D01*
X137491306Y-102675270D01*
X137443210Y-102591963D01*
X137340808Y-102489561D01*
X137215392Y-102417153D01*
X137077720Y-102380263D01*
X137532170Y-101731241D01*
X137505198Y-101717498D01*
X137505195Y-101717497D01*
X137400179Y-101683376D01*
X137341573Y-101643303D01*
X137313936Y-101577906D01*
X137326043Y-101507950D01*
X137365054Y-101461607D01*
X137414134Y-101425948D01*
X137414144Y-101425939D01*
X137467638Y-101372445D01*
X136816432Y-100916466D01*
X136899742Y-100868368D01*
X137002144Y-100765966D01*
X137074552Y-100640550D01*
X137111441Y-100502879D01*
X137760462Y-100957328D01*
X137774205Y-100930357D01*
X137774207Y-100930352D01*
X137837825Y-100734554D01*
X137870034Y-100531196D01*
X137870034Y-100325319D01*
X137837825Y-100121961D01*
X137774207Y-99926164D01*
X137774204Y-99926158D01*
X137680733Y-99742712D01*
X137559718Y-99576150D01*
X137559716Y-99576147D01*
X137506222Y-99522653D01*
X137506220Y-99522653D01*
X137050240Y-100173857D01*
X137002144Y-100090550D01*
X136899742Y-99988148D01*
X136774326Y-99915740D01*
X136636654Y-99878850D01*
X137091104Y-99229828D01*
X137064132Y-99216085D01*
X137064129Y-99216084D01*
X136959699Y-99182153D01*
X136901093Y-99142080D01*
X136873456Y-99076683D01*
X136885563Y-99006726D01*
X136924572Y-98960386D01*
X136973396Y-98924914D01*
X137119034Y-98779276D01*
X137240095Y-98612649D01*
X137333600Y-98429136D01*
X137397246Y-98233254D01*
X137429466Y-98029827D01*
X137429466Y-98029813D01*
X137429745Y-98026275D01*
X137430229Y-98025004D01*
X137430240Y-98024937D01*
X137430254Y-98024939D01*
X137455029Y-97959933D01*
X137512166Y-97917792D01*
X137579939Y-97912579D01*
X137584994Y-97913584D01*
G37*
G04 #@! TD.AperFunction*
G04 #@! TA.AperFunction,Conductor*
G36*
X109779532Y-60145502D02*
G01*
X109826025Y-60199158D01*
X109836129Y-60269432D01*
X109812279Y-60327009D01*
X109721112Y-60448792D01*
X109721110Y-60448797D01*
X109670011Y-60585795D01*
X109670009Y-60585803D01*
X109663500Y-60646350D01*
X109663500Y-63343649D01*
X109670009Y-63404196D01*
X109670011Y-63404204D01*
X109721110Y-63541202D01*
X109721112Y-63541207D01*
X109808738Y-63658261D01*
X109925792Y-63745887D01*
X109925794Y-63745888D01*
X109925796Y-63745889D01*
X109984875Y-63767924D01*
X110062795Y-63796988D01*
X110062803Y-63796990D01*
X110123350Y-63803499D01*
X110123355Y-63803499D01*
X110123362Y-63803500D01*
X110712500Y-63803500D01*
X110780621Y-63823502D01*
X110827114Y-63877158D01*
X110838500Y-63929500D01*
X110838500Y-69409606D01*
X110838500Y-69534394D01*
X110862845Y-69656785D01*
X110910600Y-69772075D01*
X110979929Y-69875833D01*
X110979931Y-69875835D01*
X114105501Y-73001405D01*
X114139527Y-73063717D01*
X114134462Y-73134532D01*
X114091915Y-73191368D01*
X114025395Y-73216179D01*
X114016406Y-73216500D01*
X111235603Y-73216500D01*
X111162568Y-73231028D01*
X111113215Y-73240845D01*
X111113213Y-73240845D01*
X111113212Y-73240846D01*
X110997923Y-73288601D01*
X110894171Y-73357926D01*
X110894164Y-73357931D01*
X108539931Y-75712164D01*
X108539926Y-75712171D01*
X108480237Y-75801502D01*
X108425760Y-75847030D01*
X108375472Y-75857500D01*
X108133350Y-75857500D01*
X108072803Y-75864009D01*
X108072795Y-75864011D01*
X107935797Y-75915110D01*
X107935792Y-75915112D01*
X107818738Y-76002738D01*
X107731112Y-76119792D01*
X107731110Y-76119797D01*
X107680011Y-76256795D01*
X107680009Y-76256803D01*
X107673500Y-76317350D01*
X107673500Y-78114649D01*
X107680009Y-78175196D01*
X107680011Y-78175204D01*
X107731110Y-78312202D01*
X107731112Y-78312207D01*
X107818738Y-78429261D01*
X107935792Y-78516887D01*
X107935794Y-78516888D01*
X107935796Y-78516889D01*
X107994875Y-78538924D01*
X108072795Y-78567988D01*
X108072803Y-78567990D01*
X108133350Y-78574499D01*
X108133355Y-78574499D01*
X108133362Y-78574500D01*
X108133368Y-78574500D01*
X109930632Y-78574500D01*
X109930638Y-78574500D01*
X109930645Y-78574499D01*
X109930649Y-78574499D01*
X109991196Y-78567990D01*
X109991199Y-78567989D01*
X109991201Y-78567989D01*
X110128204Y-78516889D01*
X110128799Y-78516444D01*
X110245261Y-78429261D01*
X110332887Y-78312207D01*
X110332887Y-78312206D01*
X110332889Y-78312204D01*
X110376869Y-78194288D01*
X110419414Y-78137456D01*
X110485934Y-78112645D01*
X110555308Y-78127736D01*
X110584018Y-78149229D01*
X110686990Y-78252201D01*
X110686993Y-78252203D01*
X110686996Y-78252206D01*
X110859991Y-78377894D01*
X111050517Y-78474972D01*
X111253878Y-78541047D01*
X111253879Y-78541047D01*
X111253884Y-78541049D01*
X111465084Y-78574500D01*
X111465087Y-78574500D01*
X111678913Y-78574500D01*
X111678916Y-78574500D01*
X111890116Y-78541049D01*
X112093483Y-78474972D01*
X112284009Y-78377894D01*
X112457004Y-78252206D01*
X112608206Y-78101004D01*
X112733894Y-77928009D01*
X112733899Y-77927997D01*
X112734561Y-77926920D01*
X112734924Y-77926591D01*
X112736804Y-77924004D01*
X112737347Y-77924398D01*
X112787204Y-77879283D01*
X112857244Y-77867670D01*
X112922445Y-77895766D01*
X112947021Y-77924130D01*
X112947196Y-77924004D01*
X112948668Y-77926030D01*
X112949439Y-77926920D01*
X112950105Y-77928007D01*
X112950106Y-77928009D01*
X113075794Y-78101004D01*
X113075796Y-78101006D01*
X113075798Y-78101009D01*
X113226990Y-78252201D01*
X113226993Y-78252203D01*
X113226996Y-78252206D01*
X113399991Y-78377894D01*
X113590517Y-78474972D01*
X113793878Y-78541047D01*
X113793879Y-78541047D01*
X113793884Y-78541049D01*
X114005084Y-78574500D01*
X114005087Y-78574500D01*
X114218913Y-78574500D01*
X114218916Y-78574500D01*
X114430116Y-78541049D01*
X114633483Y-78474972D01*
X114824009Y-78377894D01*
X114997004Y-78252206D01*
X115148206Y-78101004D01*
X115273894Y-77928009D01*
X115273899Y-77927997D01*
X115274561Y-77926920D01*
X115274924Y-77926591D01*
X115276804Y-77924004D01*
X115277347Y-77924398D01*
X115327204Y-77879283D01*
X115397244Y-77867670D01*
X115462445Y-77895766D01*
X115487021Y-77924130D01*
X115487196Y-77924004D01*
X115488668Y-77926030D01*
X115489439Y-77926920D01*
X115490105Y-77928007D01*
X115490106Y-77928009D01*
X115615794Y-78101004D01*
X115615796Y-78101006D01*
X115615798Y-78101009D01*
X115766990Y-78252201D01*
X115766993Y-78252203D01*
X115766996Y-78252206D01*
X115939991Y-78377894D01*
X116130517Y-78474972D01*
X116333878Y-78541047D01*
X116333879Y-78541047D01*
X116333884Y-78541049D01*
X116545084Y-78574500D01*
X116545087Y-78574500D01*
X116758913Y-78574500D01*
X116758916Y-78574500D01*
X116970116Y-78541049D01*
X117173483Y-78474972D01*
X117364009Y-78377894D01*
X117537004Y-78252206D01*
X117688206Y-78101004D01*
X117813894Y-77928009D01*
X117910972Y-77737483D01*
X117977049Y-77534116D01*
X118010500Y-77322916D01*
X118010500Y-77109084D01*
X117977049Y-76897884D01*
X117973680Y-76887518D01*
X117971652Y-76816552D01*
X118004416Y-76759486D01*
X118593500Y-76170404D01*
X118620874Y-76155456D01*
X118647097Y-76138604D01*
X118653395Y-76137698D01*
X118655812Y-76136379D01*
X118682595Y-76133500D01*
X118729500Y-76133500D01*
X118797621Y-76153502D01*
X118844114Y-76207158D01*
X118854778Y-76272970D01*
X118850000Y-76317402D01*
X118850000Y-76962000D01*
X119777297Y-76962000D01*
X119742075Y-77023007D01*
X119708000Y-77150174D01*
X119708000Y-77281826D01*
X119742075Y-77408993D01*
X119777297Y-77470000D01*
X118850000Y-77470000D01*
X118850000Y-78114597D01*
X118856505Y-78175093D01*
X118907555Y-78311964D01*
X118907555Y-78311965D01*
X118995095Y-78428904D01*
X119112034Y-78516444D01*
X119248906Y-78567494D01*
X119309402Y-78573999D01*
X119309415Y-78574000D01*
X119954000Y-78574000D01*
X119954000Y-77646702D01*
X120015007Y-77681925D01*
X120142174Y-77716000D01*
X120273826Y-77716000D01*
X120400993Y-77681925D01*
X120462000Y-77646702D01*
X120462000Y-78574000D01*
X121106585Y-78574000D01*
X121106597Y-78573999D01*
X121167093Y-78567494D01*
X121303964Y-78516444D01*
X121303965Y-78516444D01*
X121420904Y-78428904D01*
X121508444Y-78311965D01*
X121528400Y-78258459D01*
X121559093Y-78078496D01*
X121560896Y-78074804D01*
X121560677Y-78070705D01*
X121578637Y-78038498D01*
X121590263Y-78014707D01*
X121592744Y-78013202D01*
X121594205Y-78010583D01*
X122263841Y-77340946D01*
X122282075Y-77408993D01*
X122347901Y-77523007D01*
X122440993Y-77616099D01*
X122555007Y-77681925D01*
X122623051Y-77700157D01*
X121983831Y-78339378D01*
X122036249Y-78377463D01*
X122036251Y-78377464D01*
X122226707Y-78474506D01*
X122226713Y-78474509D01*
X122429996Y-78540559D01*
X122641126Y-78574000D01*
X122854874Y-78574000D01*
X123066003Y-78540559D01*
X123269286Y-78474509D01*
X123269292Y-78474506D01*
X123459750Y-78377463D01*
X123512167Y-78339378D01*
X123512167Y-78339376D01*
X122872948Y-77700157D01*
X122940993Y-77681925D01*
X123055007Y-77616099D01*
X123148099Y-77523007D01*
X123213925Y-77408993D01*
X123232157Y-77340948D01*
X123871376Y-77980167D01*
X123871378Y-77980167D01*
X123909463Y-77927750D01*
X123910562Y-77925958D01*
X123911158Y-77925418D01*
X123912377Y-77923741D01*
X123912729Y-77923996D01*
X123963206Y-77878322D01*
X124033246Y-77866710D01*
X124098446Y-77894808D01*
X124123559Y-77923788D01*
X124123624Y-77923742D01*
X124124165Y-77924487D01*
X124125433Y-77925950D01*
X124126535Y-77927749D01*
X124164620Y-77980167D01*
X124164621Y-77980168D01*
X124803841Y-77340947D01*
X124822075Y-77408993D01*
X124887901Y-77523007D01*
X124980993Y-77616099D01*
X125095007Y-77681925D01*
X125163051Y-77700157D01*
X124523831Y-78339378D01*
X124576249Y-78377463D01*
X124576251Y-78377464D01*
X124766707Y-78474506D01*
X124766713Y-78474509D01*
X124969996Y-78540559D01*
X125181126Y-78574000D01*
X125394874Y-78574000D01*
X125606003Y-78540559D01*
X125809286Y-78474509D01*
X125809292Y-78474506D01*
X125999750Y-78377463D01*
X126052167Y-78339378D01*
X126052167Y-78339376D01*
X125412948Y-77700157D01*
X125480993Y-77681925D01*
X125595007Y-77616099D01*
X125688099Y-77523007D01*
X125753925Y-77408993D01*
X125772157Y-77340948D01*
X126411376Y-77980167D01*
X126411378Y-77980167D01*
X126449463Y-77927750D01*
X126450562Y-77925958D01*
X126451158Y-77925418D01*
X126452377Y-77923741D01*
X126452729Y-77923996D01*
X126503206Y-77878322D01*
X126573246Y-77866710D01*
X126638446Y-77894808D01*
X126663559Y-77923788D01*
X126663624Y-77923742D01*
X126664165Y-77924487D01*
X126665433Y-77925950D01*
X126666535Y-77927749D01*
X126704620Y-77980167D01*
X126704621Y-77980168D01*
X127343841Y-77340947D01*
X127362075Y-77408993D01*
X127427901Y-77523007D01*
X127520993Y-77616099D01*
X127635007Y-77681925D01*
X127703051Y-77700157D01*
X127063831Y-78339378D01*
X127116249Y-78377463D01*
X127116251Y-78377464D01*
X127306707Y-78474506D01*
X127306713Y-78474509D01*
X127509996Y-78540559D01*
X127721126Y-78574000D01*
X127934874Y-78574000D01*
X128146003Y-78540559D01*
X128332568Y-78479941D01*
X130874500Y-78479941D01*
X130874500Y-78484312D01*
X130874500Y-78720059D01*
X130902144Y-78894594D01*
X130912064Y-78957227D01*
X130979336Y-79164267D01*
X130986264Y-79185589D01*
X131095276Y-79399536D01*
X131236414Y-79593796D01*
X131236416Y-79593798D01*
X131236418Y-79593801D01*
X131406198Y-79763581D01*
X131406201Y-79763583D01*
X131406204Y-79763586D01*
X131600464Y-79904724D01*
X131814411Y-80013736D01*
X132042778Y-80087937D01*
X132279941Y-80125500D01*
X132279944Y-80125500D01*
X132520056Y-80125500D01*
X132520059Y-80125500D01*
X132757222Y-80087937D01*
X132985589Y-80013736D01*
X133199536Y-79904724D01*
X133393796Y-79763586D01*
X133563586Y-79593796D01*
X133704724Y-79399536D01*
X133813736Y-79185589D01*
X133887937Y-78957222D01*
X133925500Y-78720059D01*
X133925500Y-78479941D01*
X133887937Y-78242778D01*
X133813736Y-78014411D01*
X133704724Y-77800464D01*
X133563586Y-77606204D01*
X133563583Y-77606201D01*
X133563581Y-77606198D01*
X133393801Y-77436418D01*
X133393798Y-77436416D01*
X133393796Y-77436414D01*
X133199536Y-77295276D01*
X132985589Y-77186264D01*
X132985586Y-77186263D01*
X132985584Y-77186262D01*
X132757227Y-77112064D01*
X132757223Y-77112063D01*
X132757222Y-77112063D01*
X132520059Y-77074500D01*
X132279941Y-77074500D01*
X132042778Y-77112063D01*
X132042772Y-77112064D01*
X131814415Y-77186262D01*
X131814409Y-77186265D01*
X131600460Y-77295278D01*
X131406201Y-77436416D01*
X131406198Y-77436418D01*
X131236418Y-77606198D01*
X131236416Y-77606201D01*
X131095278Y-77800460D01*
X130986265Y-78014409D01*
X130986262Y-78014415D01*
X130912064Y-78242772D01*
X130912063Y-78242777D01*
X130912063Y-78242778D01*
X130874500Y-78479941D01*
X128332568Y-78479941D01*
X128349286Y-78474509D01*
X128349292Y-78474506D01*
X128539754Y-78377461D01*
X128545813Y-78373059D01*
X128545817Y-78373056D01*
X128592167Y-78339378D01*
X128592167Y-78339376D01*
X127952948Y-77700157D01*
X128020993Y-77681925D01*
X128135007Y-77616099D01*
X128228099Y-77523007D01*
X128293925Y-77408993D01*
X128312157Y-77340948D01*
X128951376Y-77980167D01*
X128951378Y-77980167D01*
X128989463Y-77927750D01*
X129086506Y-77737292D01*
X129086509Y-77737286D01*
X129152559Y-77534003D01*
X129186000Y-77322873D01*
X129186000Y-77109126D01*
X129152559Y-76897996D01*
X129086509Y-76694713D01*
X129086506Y-76694707D01*
X128989464Y-76504251D01*
X128989463Y-76504249D01*
X128951378Y-76451831D01*
X128312157Y-77091051D01*
X128293925Y-77023007D01*
X128228099Y-76908993D01*
X128135007Y-76815901D01*
X128020993Y-76750075D01*
X127952947Y-76731841D01*
X128514384Y-76170405D01*
X128576697Y-76136380D01*
X128603480Y-76133500D01*
X132785406Y-76133500D01*
X132853527Y-76153502D01*
X132874501Y-76170405D01*
X135561785Y-78857689D01*
X135595811Y-78920001D01*
X135598690Y-78946784D01*
X135598690Y-80137606D01*
X135598690Y-80262394D01*
X135623035Y-80384785D01*
X135670790Y-80500075D01*
X135740119Y-80603833D01*
X135740121Y-80603835D01*
X137849586Y-82713301D01*
X137858793Y-82730163D01*
X137872138Y-82743992D01*
X137882713Y-82773966D01*
X137883612Y-82775613D01*
X137884070Y-82777813D01*
X137891121Y-82813261D01*
X137891650Y-82815917D01*
X137885323Y-82886631D01*
X137841769Y-82942699D01*
X137774817Y-82966319D01*
X137768071Y-82966500D01*
X132714594Y-82966500D01*
X132646473Y-82946498D01*
X132625499Y-82929595D01*
X131795405Y-82099501D01*
X131761379Y-82037189D01*
X131758500Y-82010406D01*
X131758500Y-80701367D01*
X131758499Y-80701350D01*
X131751990Y-80640803D01*
X131751988Y-80640795D01*
X131700889Y-80503797D01*
X131700887Y-80503792D01*
X131613261Y-80386738D01*
X131496207Y-80299112D01*
X131496202Y-80299110D01*
X131359204Y-80248011D01*
X131359196Y-80248009D01*
X131298649Y-80241500D01*
X131298638Y-80241500D01*
X129501362Y-80241500D01*
X129501350Y-80241500D01*
X129440803Y-80248009D01*
X129440795Y-80248011D01*
X129303797Y-80299110D01*
X129303792Y-80299112D01*
X129186738Y-80386738D01*
X129099112Y-80503792D01*
X129099110Y-80503797D01*
X129048011Y-80640795D01*
X129048009Y-80640803D01*
X129041500Y-80701350D01*
X129041500Y-82498649D01*
X129048009Y-82559196D01*
X129048011Y-82559204D01*
X129099110Y-82696202D01*
X129099112Y-82696207D01*
X129186738Y-82813261D01*
X129303791Y-82900886D01*
X129303792Y-82900886D01*
X129303796Y-82900889D01*
X129421711Y-82944869D01*
X129478543Y-82987414D01*
X129503354Y-83053934D01*
X129488263Y-83123308D01*
X129466771Y-83152018D01*
X129363794Y-83254995D01*
X129238108Y-83427987D01*
X129141029Y-83618515D01*
X129141026Y-83618521D01*
X129074952Y-83821878D01*
X129074951Y-83821883D01*
X129074951Y-83821884D01*
X129041500Y-84033084D01*
X129041500Y-84246916D01*
X129065829Y-84400521D01*
X129074952Y-84458121D01*
X129133499Y-84638311D01*
X129141028Y-84661483D01*
X129235788Y-84847459D01*
X129238108Y-84852012D01*
X129257891Y-84879241D01*
X129363794Y-85025004D01*
X129363796Y-85025006D01*
X129363798Y-85025009D01*
X129514990Y-85176201D01*
X129514993Y-85176203D01*
X129514996Y-85176206D01*
X129687991Y-85301894D01*
X129687996Y-85301896D01*
X129689088Y-85302566D01*
X129689418Y-85302931D01*
X129691996Y-85304804D01*
X129691602Y-85305345D01*
X129736721Y-85355213D01*
X129748328Y-85425255D01*
X129720226Y-85490453D01*
X129691870Y-85515023D01*
X129691996Y-85515196D01*
X129689982Y-85516658D01*
X129689088Y-85517434D01*
X129687987Y-85518108D01*
X129514993Y-85643796D01*
X129514990Y-85643798D01*
X129363798Y-85794990D01*
X129363796Y-85794993D01*
X129238108Y-85967987D01*
X129141029Y-86158515D01*
X129141026Y-86158521D01*
X129074952Y-86361878D01*
X129074951Y-86361883D01*
X129074951Y-86361884D01*
X129041500Y-86573084D01*
X129041500Y-86786916D01*
X129074951Y-86998116D01*
X129074952Y-86998121D01*
X129141026Y-87201478D01*
X129141028Y-87201483D01*
X129238106Y-87392009D01*
X129238108Y-87392012D01*
X129269182Y-87434781D01*
X129363794Y-87565004D01*
X129363796Y-87565006D01*
X129363798Y-87565009D01*
X129514990Y-87716201D01*
X129514993Y-87716203D01*
X129514996Y-87716206D01*
X129687991Y-87841894D01*
X129878517Y-87938972D01*
X130081878Y-88005047D01*
X130081879Y-88005047D01*
X130081884Y-88005049D01*
X130293084Y-88038500D01*
X130293087Y-88038500D01*
X130506913Y-88038500D01*
X130506916Y-88038500D01*
X130718116Y-88005049D01*
X130921483Y-87938972D01*
X131112009Y-87841894D01*
X131285004Y-87716206D01*
X131436206Y-87565004D01*
X131490380Y-87490438D01*
X131546602Y-87447085D01*
X131592316Y-87438500D01*
X147581765Y-87438500D01*
X147649886Y-87458502D01*
X147651766Y-87459735D01*
X147719659Y-87505099D01*
X147719660Y-87505100D01*
X147719662Y-87505101D01*
X147719664Y-87505102D01*
X147885000Y-87573587D01*
X148060521Y-87608500D01*
X148060522Y-87608500D01*
X148239478Y-87608500D01*
X148239479Y-87608500D01*
X148415000Y-87573587D01*
X148580336Y-87505102D01*
X148729135Y-87405678D01*
X148855678Y-87279135D01*
X148955102Y-87130336D01*
X149023587Y-86965000D01*
X149036326Y-86900954D01*
X155341500Y-86900954D01*
X155341500Y-87099046D01*
X155372488Y-87294700D01*
X155433702Y-87483097D01*
X155523634Y-87659598D01*
X155523636Y-87659601D01*
X155640071Y-87819860D01*
X155780139Y-87959928D01*
X155780142Y-87959930D01*
X155940402Y-88076366D01*
X156116903Y-88166298D01*
X156116905Y-88166298D01*
X156121314Y-88168545D01*
X156120265Y-88170602D01*
X156168108Y-88209172D01*
X156190517Y-88276539D01*
X156172946Y-88345327D01*
X156172034Y-88346839D01*
X156169568Y-88350862D01*
X156090351Y-88506334D01*
X156090348Y-88506340D01*
X156058783Y-88603490D01*
X156036433Y-88672278D01*
X156009138Y-88844611D01*
X156009138Y-89019093D01*
X156036433Y-89191426D01*
X156090350Y-89357368D01*
X156169564Y-89512833D01*
X156272121Y-89653991D01*
X156272123Y-89653993D01*
X156272125Y-89653996D01*
X156395493Y-89777364D01*
X156395496Y-89777366D01*
X156395499Y-89777369D01*
X156536657Y-89879926D01*
X156692122Y-89959140D01*
X156695036Y-89960086D01*
X156695999Y-89960745D01*
X156696694Y-89961033D01*
X156696633Y-89961178D01*
X156753642Y-90000158D01*
X156781024Y-90063474D01*
X156782980Y-90078337D01*
X157492346Y-90487890D01*
X157480882Y-90490962D01*
X157389670Y-90543623D01*
X157315196Y-90618097D01*
X157262535Y-90709309D01*
X157235276Y-90811042D01*
X157235276Y-90916364D01*
X157238348Y-90927829D01*
X157124415Y-90862050D01*
X156529770Y-90518731D01*
X156529769Y-90518732D01*
X156505791Y-90592531D01*
X156477276Y-90772569D01*
X156477276Y-90954836D01*
X156505791Y-91134874D01*
X156562113Y-91308216D01*
X156562116Y-91308222D01*
X156644867Y-91470630D01*
X156752003Y-91618090D01*
X156849910Y-91715996D01*
X157259462Y-91006630D01*
X157262535Y-91018097D01*
X157315196Y-91109309D01*
X157389670Y-91183783D01*
X157480882Y-91236444D01*
X157582615Y-91263703D01*
X157687937Y-91263703D01*
X157699401Y-91260631D01*
X157280760Y-91985739D01*
X157282243Y-92004023D01*
X157260809Y-92052472D01*
X157162079Y-92188362D01*
X157079288Y-92350848D01*
X157022941Y-92524266D01*
X157022940Y-92524271D01*
X157022940Y-92524272D01*
X156994414Y-92704379D01*
X156994414Y-92886731D01*
X157018214Y-93036997D01*
X157022941Y-93066843D01*
X157079288Y-93240261D01*
X157079289Y-93240264D01*
X157079290Y-93240265D01*
X157162071Y-93402732D01*
X157162078Y-93402744D01*
X157165281Y-93407152D01*
X157269260Y-93550267D01*
X157269262Y-93550269D01*
X157269264Y-93550272D01*
X157398196Y-93679204D01*
X157398199Y-93679206D01*
X157398202Y-93679209D01*
X157519225Y-93767137D01*
X157532945Y-93777106D01*
X157545728Y-93786393D01*
X157598866Y-93813468D01*
X157650481Y-93862217D01*
X157667547Y-93931132D01*
X157644646Y-93998333D01*
X157643600Y-93999795D01*
X157594187Y-94067806D01*
X157504255Y-94244308D01*
X157504254Y-94244310D01*
X157444459Y-94428341D01*
X157443040Y-94432707D01*
X157412052Y-94628361D01*
X157412052Y-94826453D01*
X157443040Y-95022107D01*
X157504254Y-95210504D01*
X157592343Y-95383387D01*
X157594188Y-95387008D01*
X157710623Y-95547267D01*
X157850691Y-95687335D01*
X157918307Y-95736461D01*
X158010954Y-95803773D01*
X158187455Y-95893705D01*
X158375852Y-95954919D01*
X158571506Y-95985907D01*
X158571509Y-95985907D01*
X158769595Y-95985907D01*
X158769598Y-95985907D01*
X158965252Y-95954919D01*
X159153649Y-95893705D01*
X159330150Y-95803773D01*
X159490410Y-95687337D01*
X159630482Y-95547265D01*
X159746918Y-95387005D01*
X159836850Y-95210504D01*
X159898064Y-95022107D01*
X159929052Y-94826453D01*
X159929052Y-94628361D01*
X159898064Y-94432707D01*
X159836850Y-94244310D01*
X159746918Y-94067809D01*
X159630482Y-93907549D01*
X159630480Y-93907546D01*
X159490412Y-93767478D01*
X159330153Y-93651043D01*
X159330152Y-93651042D01*
X159330150Y-93651041D01*
X159193598Y-93581464D01*
X159141984Y-93532717D01*
X159124918Y-93463802D01*
X159142121Y-93407466D01*
X159141504Y-93407152D01*
X159143286Y-93403653D01*
X159143381Y-93403344D01*
X159143736Y-93402762D01*
X159143752Y-93402741D01*
X159226538Y-93240265D01*
X159282888Y-93066838D01*
X159311414Y-92886731D01*
X159311414Y-92704379D01*
X159282888Y-92524272D01*
X159226538Y-92350845D01*
X159143752Y-92188369D01*
X159036568Y-92040843D01*
X159036565Y-92040840D01*
X159036563Y-92040837D01*
X158907631Y-91911905D01*
X158907628Y-91911903D01*
X158907626Y-91911901D01*
X158760100Y-91804717D01*
X158597624Y-91721931D01*
X158568278Y-91712396D01*
X158509675Y-91672322D01*
X158503628Y-91658338D01*
X157778206Y-91239515D01*
X157789670Y-91236444D01*
X157880882Y-91183783D01*
X157955356Y-91109309D01*
X158008017Y-91018097D01*
X158035276Y-90916364D01*
X158035276Y-90811042D01*
X158032203Y-90799575D01*
X158740780Y-91208673D01*
X158764760Y-91134873D01*
X158793276Y-90954836D01*
X158793276Y-90772569D01*
X158764760Y-90592531D01*
X158708438Y-90419189D01*
X158708435Y-90419183D01*
X158625684Y-90256775D01*
X158518548Y-90109315D01*
X158420640Y-90011408D01*
X158011088Y-90720771D01*
X158008017Y-90709309D01*
X157955356Y-90618097D01*
X157880882Y-90543623D01*
X157789670Y-90490962D01*
X157687937Y-90463703D01*
X157582615Y-90463703D01*
X157571147Y-90466775D01*
X157980245Y-89758198D01*
X157972681Y-89738493D01*
X157966942Y-89667729D01*
X157988374Y-89619278D01*
X158065712Y-89512833D01*
X158144926Y-89357368D01*
X158198843Y-89191426D01*
X158226138Y-89019093D01*
X158226138Y-88844611D01*
X158198843Y-88672278D01*
X158144926Y-88506336D01*
X158065712Y-88350871D01*
X157963155Y-88209713D01*
X157963152Y-88209710D01*
X157963150Y-88209707D01*
X157839782Y-88086339D01*
X157839779Y-88086337D01*
X157839777Y-88086335D01*
X157698619Y-87983778D01*
X157651815Y-87959930D01*
X157641928Y-87954892D01*
X157590314Y-87906144D01*
X157573248Y-87837229D01*
X157596149Y-87770028D01*
X157597110Y-87768684D01*
X157676366Y-87659598D01*
X157766298Y-87483097D01*
X157827512Y-87294700D01*
X157858500Y-87099046D01*
X157858500Y-86900954D01*
X157827512Y-86705300D01*
X157766298Y-86516903D01*
X157676366Y-86340402D01*
X157559930Y-86180142D01*
X157559928Y-86180139D01*
X157419860Y-86040071D01*
X157259601Y-85923636D01*
X157259600Y-85923635D01*
X157259598Y-85923634D01*
X157083097Y-85833702D01*
X156894700Y-85772488D01*
X156699046Y-85741500D01*
X156500954Y-85741500D01*
X156305300Y-85772488D01*
X156305297Y-85772488D01*
X156305296Y-85772489D01*
X156116903Y-85833702D01*
X156116901Y-85833703D01*
X155940398Y-85923636D01*
X155780139Y-86040071D01*
X155640071Y-86180139D01*
X155523636Y-86340398D01*
X155433703Y-86516901D01*
X155433702Y-86516903D01*
X155385122Y-86666418D01*
X155372488Y-86705300D01*
X155341500Y-86900954D01*
X149036326Y-86900954D01*
X149058500Y-86789479D01*
X149058500Y-86610521D01*
X149023587Y-86435000D01*
X148955102Y-86269664D01*
X148855678Y-86120865D01*
X148729135Y-85994322D01*
X148580336Y-85894898D01*
X148463429Y-85846473D01*
X148415003Y-85826414D01*
X148415001Y-85826413D01*
X148415000Y-85826413D01*
X148326645Y-85808838D01*
X148239481Y-85791500D01*
X148239479Y-85791500D01*
X148060521Y-85791500D01*
X148060518Y-85791500D01*
X147929771Y-85817507D01*
X147885000Y-85826413D01*
X147884999Y-85826413D01*
X147884996Y-85826414D01*
X147719662Y-85894899D01*
X147711632Y-85900265D01*
X147643879Y-85921480D01*
X147641630Y-85921500D01*
X131592316Y-85921500D01*
X131524195Y-85901498D01*
X131490380Y-85869561D01*
X131459032Y-85826414D01*
X131436206Y-85794996D01*
X131436203Y-85794993D01*
X131436201Y-85794990D01*
X131285009Y-85643798D01*
X131285006Y-85643796D01*
X131285004Y-85643794D01*
X131140972Y-85539149D01*
X131112012Y-85518108D01*
X131110920Y-85517439D01*
X131110591Y-85517075D01*
X131108004Y-85515196D01*
X131108398Y-85514652D01*
X131063283Y-85464796D01*
X131051670Y-85394756D01*
X131079766Y-85329555D01*
X131108130Y-85304978D01*
X131108004Y-85304804D01*
X131110030Y-85303331D01*
X131110920Y-85302561D01*
X131111997Y-85301899D01*
X131112009Y-85301894D01*
X131285004Y-85176206D01*
X131436206Y-85025004D01*
X131561894Y-84852009D01*
X131566844Y-84842294D01*
X131615593Y-84790680D01*
X131679109Y-84773500D01*
X144874886Y-84773500D01*
X144943007Y-84793502D01*
X144989500Y-84847158D01*
X144991287Y-84851265D01*
X145019898Y-84920336D01*
X145119322Y-85069135D01*
X145245865Y-85195678D01*
X145394664Y-85295102D01*
X145560000Y-85363587D01*
X145735521Y-85398500D01*
X145735522Y-85398500D01*
X145914478Y-85398500D01*
X145914479Y-85398500D01*
X146090000Y-85363587D01*
X146255336Y-85295102D01*
X146404135Y-85195678D01*
X146530678Y-85069135D01*
X146630102Y-84920336D01*
X146698587Y-84755000D01*
X146733500Y-84579479D01*
X146733500Y-84434500D01*
X146753502Y-84366379D01*
X146807158Y-84319886D01*
X146859500Y-84308500D01*
X146939478Y-84308500D01*
X146939479Y-84308500D01*
X147115000Y-84273587D01*
X147280336Y-84205102D01*
X147429135Y-84105678D01*
X147555678Y-83979135D01*
X147655102Y-83830336D01*
X147723587Y-83665000D01*
X147758500Y-83489479D01*
X147758500Y-83310521D01*
X147723587Y-83135000D01*
X147655102Y-82969664D01*
X147555678Y-82820865D01*
X147429135Y-82694322D01*
X147280336Y-82594898D01*
X147163429Y-82546473D01*
X147115003Y-82526414D01*
X147115001Y-82526413D01*
X147115000Y-82526413D01*
X147026645Y-82508838D01*
X146939481Y-82491500D01*
X146939479Y-82491500D01*
X146760521Y-82491500D01*
X146760518Y-82491500D01*
X146629771Y-82517507D01*
X146585000Y-82526413D01*
X146584999Y-82526413D01*
X146584996Y-82526414D01*
X146419662Y-82594899D01*
X146270869Y-82694319D01*
X146270862Y-82694324D01*
X146144324Y-82820862D01*
X146144315Y-82820873D01*
X146084429Y-82910501D01*
X146029953Y-82956029D01*
X145979664Y-82966500D01*
X139781929Y-82966500D01*
X139713808Y-82946498D01*
X139667315Y-82892842D01*
X139657211Y-82822568D01*
X139658350Y-82815919D01*
X139683499Y-82689484D01*
X139683500Y-82689477D01*
X139683500Y-82510522D01*
X139683499Y-82510518D01*
X139648587Y-82335000D01*
X139647484Y-82332337D01*
X139647321Y-82330824D01*
X139646788Y-82329066D01*
X139647121Y-82328964D01*
X139639888Y-82261748D01*
X139671661Y-82198258D01*
X139693880Y-82179347D01*
X139804135Y-82105678D01*
X139930678Y-81979135D01*
X140030102Y-81830336D01*
X140098587Y-81665000D01*
X140133500Y-81489479D01*
X140133500Y-81310521D01*
X140098587Y-81135000D01*
X140030102Y-80969664D01*
X140024156Y-80960766D01*
X140021408Y-80951987D01*
X140015262Y-80945145D01*
X140010966Y-80918640D01*
X140002943Y-80893014D01*
X140005376Y-80884143D01*
X140003905Y-80875063D01*
X140014623Y-80850439D01*
X140021727Y-80824547D01*
X140029318Y-80816679D01*
X140032241Y-80809966D01*
X140058915Y-80786005D01*
X140179135Y-80705678D01*
X140179137Y-80705675D01*
X140180027Y-80705081D01*
X140247780Y-80683866D01*
X140316247Y-80702649D01*
X140363690Y-80755467D01*
X140366431Y-80761613D01*
X140394898Y-80830336D01*
X140494322Y-80979135D01*
X140620865Y-81105678D01*
X140769664Y-81205102D01*
X140935000Y-81273587D01*
X141110521Y-81308500D01*
X141110522Y-81308500D01*
X141289478Y-81308500D01*
X141289479Y-81308500D01*
X141465000Y-81273587D01*
X141630336Y-81205102D01*
X141779135Y-81105678D01*
X141905678Y-80979135D01*
X142005102Y-80830336D01*
X142073587Y-80665000D01*
X142108500Y-80489479D01*
X142108500Y-80310521D01*
X142073587Y-80135000D01*
X142005102Y-79969664D01*
X141905678Y-79820865D01*
X141779135Y-79694322D01*
X141630336Y-79594898D01*
X141513429Y-79546473D01*
X141465003Y-79526414D01*
X141465001Y-79526413D01*
X141465000Y-79526413D01*
X141376645Y-79508838D01*
X141289481Y-79491500D01*
X141289479Y-79491500D01*
X141239594Y-79491500D01*
X141171473Y-79471498D01*
X141150499Y-79454595D01*
X140403835Y-78707931D01*
X140403833Y-78707929D01*
X140300075Y-78638600D01*
X140184785Y-78590845D01*
X140102608Y-78574499D01*
X140062396Y-78566500D01*
X140062394Y-78566500D01*
X139834500Y-78566500D01*
X139766379Y-78546498D01*
X139719886Y-78492842D01*
X139708500Y-78440500D01*
X139708500Y-78310522D01*
X139708499Y-78310518D01*
X139697612Y-78255785D01*
X139673587Y-78135000D01*
X139605102Y-77969664D01*
X139505678Y-77820865D01*
X139379135Y-77694322D01*
X139230336Y-77594898D01*
X139083324Y-77534003D01*
X139065003Y-77526414D01*
X139065001Y-77526413D01*
X139065000Y-77526413D01*
X138971501Y-77507815D01*
X138889481Y-77491500D01*
X138889479Y-77491500D01*
X138710521Y-77491500D01*
X138710515Y-77491500D01*
X138628496Y-77507815D01*
X138557782Y-77501487D01*
X138514820Y-77473331D01*
X138234717Y-77193228D01*
X138150573Y-77109084D01*
X146789500Y-77109084D01*
X146789500Y-77322916D01*
X146821731Y-77526413D01*
X146822952Y-77534121D01*
X146888964Y-77737286D01*
X146889028Y-77737483D01*
X146986106Y-77928009D01*
X147111794Y-78101004D01*
X147111796Y-78101006D01*
X147111798Y-78101009D01*
X147262990Y-78252201D01*
X147262993Y-78252203D01*
X147262996Y-78252206D01*
X147435991Y-78377894D01*
X147626517Y-78474972D01*
X147829878Y-78541047D01*
X147829879Y-78541047D01*
X147829884Y-78541049D01*
X148041084Y-78574500D01*
X148041087Y-78574500D01*
X148254913Y-78574500D01*
X148254916Y-78574500D01*
X148466116Y-78541049D01*
X148669483Y-78474972D01*
X148860009Y-78377894D01*
X149033004Y-78252206D01*
X149184206Y-78101004D01*
X149309894Y-77928009D01*
X149309899Y-77927997D01*
X149310561Y-77926920D01*
X149310924Y-77926591D01*
X149312804Y-77924004D01*
X149313347Y-77924398D01*
X149363204Y-77879283D01*
X149433244Y-77867670D01*
X149498445Y-77895766D01*
X149523021Y-77924130D01*
X149523196Y-77924004D01*
X149524668Y-77926030D01*
X149525439Y-77926920D01*
X149526105Y-77928007D01*
X149526106Y-77928009D01*
X149651794Y-78101004D01*
X149651796Y-78101006D01*
X149651798Y-78101009D01*
X149802990Y-78252201D01*
X149802993Y-78252203D01*
X149802996Y-78252206D01*
X149975991Y-78377894D01*
X150166517Y-78474972D01*
X150369878Y-78541047D01*
X150369879Y-78541047D01*
X150369884Y-78541049D01*
X150581084Y-78574500D01*
X150581087Y-78574500D01*
X150794913Y-78574500D01*
X150794916Y-78574500D01*
X151006116Y-78541049D01*
X151209483Y-78474972D01*
X151400009Y-78377894D01*
X151573004Y-78252206D01*
X151724206Y-78101004D01*
X151849894Y-77928009D01*
X151849899Y-77927997D01*
X151850561Y-77926920D01*
X151850924Y-77926591D01*
X151852804Y-77924004D01*
X151853347Y-77924398D01*
X151903204Y-77879283D01*
X151973244Y-77867670D01*
X152038445Y-77895766D01*
X152063021Y-77924130D01*
X152063196Y-77924004D01*
X152064668Y-77926030D01*
X152065439Y-77926920D01*
X152066105Y-77928007D01*
X152066106Y-77928009D01*
X152191794Y-78101004D01*
X152191796Y-78101006D01*
X152191798Y-78101009D01*
X152342990Y-78252201D01*
X152342993Y-78252203D01*
X152342996Y-78252206D01*
X152515991Y-78377894D01*
X152706517Y-78474972D01*
X152909878Y-78541047D01*
X152909879Y-78541047D01*
X152909884Y-78541049D01*
X153121084Y-78574500D01*
X153121087Y-78574500D01*
X153334913Y-78574500D01*
X153334916Y-78574500D01*
X153546116Y-78541049D01*
X153749483Y-78474972D01*
X153940009Y-78377894D01*
X154113004Y-78252206D01*
X154215982Y-78149227D01*
X154278292Y-78115204D01*
X154349108Y-78120268D01*
X154405944Y-78162815D01*
X154423131Y-78194291D01*
X154467110Y-78312203D01*
X154467112Y-78312207D01*
X154554738Y-78429261D01*
X154671792Y-78516887D01*
X154671794Y-78516888D01*
X154671796Y-78516889D01*
X154730875Y-78538924D01*
X154808795Y-78567988D01*
X154808803Y-78567990D01*
X154869350Y-78574499D01*
X154869355Y-78574499D01*
X154869362Y-78574500D01*
X154869368Y-78574500D01*
X156666632Y-78574500D01*
X156666638Y-78574500D01*
X156666645Y-78574499D01*
X156666649Y-78574499D01*
X156727196Y-78567990D01*
X156727199Y-78567989D01*
X156727201Y-78567989D01*
X156864204Y-78516889D01*
X156864799Y-78516444D01*
X156981261Y-78429261D01*
X157068887Y-78312207D01*
X157068887Y-78312206D01*
X157068889Y-78312204D01*
X157119989Y-78175201D01*
X157122782Y-78149229D01*
X157126499Y-78114649D01*
X157126500Y-78114632D01*
X157126500Y-76317367D01*
X157126499Y-76317350D01*
X157119990Y-76256803D01*
X157119988Y-76256795D01*
X157085043Y-76163107D01*
X157068889Y-76119796D01*
X157068888Y-76119794D01*
X157068887Y-76119792D01*
X156981261Y-76002738D01*
X156864207Y-75915112D01*
X156864202Y-75915110D01*
X156727204Y-75864011D01*
X156727196Y-75864009D01*
X156666649Y-75857500D01*
X156666638Y-75857500D01*
X154869362Y-75857500D01*
X154869350Y-75857500D01*
X154808803Y-75864009D01*
X154808795Y-75864011D01*
X154671797Y-75915110D01*
X154671792Y-75915112D01*
X154554738Y-76002738D01*
X154467112Y-76119792D01*
X154467110Y-76119797D01*
X154423131Y-76237708D01*
X154380584Y-76294544D01*
X154314064Y-76319354D01*
X154244690Y-76304262D01*
X154215981Y-76282770D01*
X154113009Y-76179798D01*
X154113006Y-76179796D01*
X154113004Y-76179794D01*
X153940009Y-76054106D01*
X153749483Y-75957028D01*
X153749480Y-75957027D01*
X153749478Y-75957026D01*
X153546120Y-75890952D01*
X153546123Y-75890952D01*
X153506801Y-75884724D01*
X153334916Y-75857500D01*
X153121084Y-75857500D01*
X152909884Y-75890951D01*
X152909878Y-75890952D01*
X152706521Y-75957026D01*
X152706515Y-75957029D01*
X152515987Y-76054108D01*
X152342993Y-76179796D01*
X152342990Y-76179798D01*
X152191798Y-76330990D01*
X152191796Y-76330993D01*
X152066108Y-76503987D01*
X152065434Y-76505088D01*
X152065068Y-76505418D01*
X152063196Y-76507996D01*
X152062654Y-76507602D01*
X152012787Y-76552721D01*
X151942745Y-76564328D01*
X151877547Y-76536226D01*
X151852976Y-76507870D01*
X151852804Y-76507996D01*
X151851341Y-76505982D01*
X151850566Y-76505088D01*
X151849896Y-76503996D01*
X151849894Y-76503991D01*
X151724206Y-76330996D01*
X151724203Y-76330993D01*
X151724201Y-76330990D01*
X151573009Y-76179798D01*
X151573006Y-76179796D01*
X151573004Y-76179794D01*
X151400009Y-76054106D01*
X151209483Y-75957028D01*
X151209480Y-75957027D01*
X151209478Y-75957026D01*
X151006120Y-75890952D01*
X151006123Y-75890952D01*
X150966801Y-75884724D01*
X150794916Y-75857500D01*
X150581084Y-75857500D01*
X150369884Y-75890951D01*
X150369878Y-75890952D01*
X150166521Y-75957026D01*
X150166515Y-75957029D01*
X149975987Y-76054108D01*
X149802993Y-76179796D01*
X149802990Y-76179798D01*
X149651798Y-76330990D01*
X149651796Y-76330993D01*
X149526108Y-76503987D01*
X149525434Y-76505088D01*
X149525068Y-76505418D01*
X149523196Y-76507996D01*
X149522654Y-76507602D01*
X149472787Y-76552721D01*
X149402745Y-76564328D01*
X149337547Y-76536226D01*
X149312976Y-76507870D01*
X149312804Y-76507996D01*
X149311341Y-76505982D01*
X149310566Y-76505088D01*
X149309896Y-76503996D01*
X149309894Y-76503991D01*
X149184206Y-76330996D01*
X149184203Y-76330993D01*
X149184201Y-76330990D01*
X149033009Y-76179798D01*
X149033006Y-76179796D01*
X149033004Y-76179794D01*
X148860009Y-76054106D01*
X148669483Y-75957028D01*
X148669480Y-75957027D01*
X148669478Y-75957026D01*
X148466120Y-75890952D01*
X148466123Y-75890952D01*
X148426801Y-75884724D01*
X148254916Y-75857500D01*
X148041084Y-75857500D01*
X147829884Y-75890951D01*
X147829878Y-75890952D01*
X147626521Y-75957026D01*
X147626515Y-75957029D01*
X147435987Y-76054108D01*
X147262993Y-76179796D01*
X147262990Y-76179798D01*
X147111798Y-76330990D01*
X147111796Y-76330993D01*
X146986108Y-76503987D01*
X146889029Y-76694515D01*
X146889026Y-76694521D01*
X146822952Y-76897878D01*
X146822951Y-76897883D01*
X146822951Y-76897884D01*
X146789500Y-77109084D01*
X138150573Y-77109084D01*
X134249419Y-73207931D01*
X134249417Y-73207929D01*
X134145659Y-73138600D01*
X134030369Y-73090845D01*
X133956670Y-73076185D01*
X133907980Y-73066500D01*
X133907978Y-73066500D01*
X116014594Y-73066500D01*
X115946473Y-73046498D01*
X115925499Y-73029595D01*
X112142405Y-69246501D01*
X112108379Y-69184189D01*
X112105500Y-69157406D01*
X112105500Y-67816204D01*
X112782000Y-67816204D01*
X112782000Y-68073795D01*
X112815620Y-68329167D01*
X112815621Y-68329173D01*
X112815622Y-68329175D01*
X112882290Y-68577984D01*
X112980864Y-68815962D01*
X112980865Y-68815963D01*
X112980870Y-68815974D01*
X113109659Y-69039043D01*
X113266460Y-69243388D01*
X113266479Y-69243409D01*
X113448590Y-69425520D01*
X113448600Y-69425529D01*
X113448606Y-69425535D01*
X113448609Y-69425537D01*
X113448611Y-69425539D01*
X113652956Y-69582340D01*
X113876025Y-69711129D01*
X113876029Y-69711130D01*
X113876038Y-69711136D01*
X114114016Y-69809710D01*
X114362825Y-69876378D01*
X114362831Y-69876378D01*
X114362832Y-69876379D01*
X114392134Y-69880236D01*
X114618207Y-69910000D01*
X114618214Y-69910000D01*
X114875786Y-69910000D01*
X114875793Y-69910000D01*
X115131175Y-69876378D01*
X115379984Y-69809710D01*
X115617962Y-69711136D01*
X115841038Y-69582343D01*
X115841038Y-69582342D01*
X115841043Y-69582340D01*
X115979921Y-69475774D01*
X116045394Y-69425535D01*
X116227535Y-69243394D01*
X116305688Y-69141543D01*
X116384340Y-69039043D01*
X116426680Y-68965709D01*
X116513136Y-68815962D01*
X116611710Y-68577984D01*
X116678378Y-68329175D01*
X116712000Y-68073793D01*
X116712000Y-67858318D01*
X119145600Y-67858318D01*
X119145600Y-68031682D01*
X119172720Y-68202912D01*
X119172721Y-68202917D01*
X119213742Y-68329167D01*
X119226292Y-68367791D01*
X119226293Y-68367792D01*
X119305000Y-68522263D01*
X119406900Y-68662516D01*
X119529483Y-68785099D01*
X119529486Y-68785101D01*
X119669740Y-68887002D01*
X119824209Y-68965708D01*
X119989082Y-69019278D01*
X119989083Y-69019278D01*
X119989088Y-69019280D01*
X120160318Y-69046400D01*
X120160321Y-69046400D01*
X120333679Y-69046400D01*
X120333682Y-69046400D01*
X120504912Y-69019280D01*
X120669791Y-68965708D01*
X120824260Y-68887002D01*
X120964514Y-68785101D01*
X121087101Y-68662514D01*
X121189002Y-68522260D01*
X121267708Y-68367791D01*
X121321280Y-68202912D01*
X121348400Y-68031682D01*
X121348400Y-67858318D01*
X121321280Y-67687088D01*
X121267708Y-67522209D01*
X121189002Y-67367740D01*
X121087101Y-67227486D01*
X121087099Y-67227483D01*
X120964516Y-67104900D01*
X120824263Y-67003000D01*
X120824262Y-67002999D01*
X120824260Y-67002998D01*
X120669791Y-66924292D01*
X120669788Y-66924291D01*
X120669786Y-66924290D01*
X120504915Y-66870721D01*
X120504919Y-66870721D01*
X120473041Y-66865672D01*
X120333682Y-66843600D01*
X120160318Y-66843600D01*
X119989088Y-66870720D01*
X119989082Y-66870721D01*
X119824213Y-66924290D01*
X119824207Y-66924293D01*
X119669736Y-67003000D01*
X119529483Y-67104900D01*
X119406900Y-67227483D01*
X119305000Y-67367736D01*
X119226293Y-67522207D01*
X119226290Y-67522213D01*
X119172721Y-67687082D01*
X119172720Y-67687087D01*
X119172720Y-67687088D01*
X119145600Y-67858318D01*
X116712000Y-67858318D01*
X116712000Y-67816207D01*
X116678378Y-67560825D01*
X116611710Y-67312016D01*
X116513136Y-67074038D01*
X116513130Y-67074029D01*
X116513129Y-67074025D01*
X116384340Y-66850956D01*
X116227539Y-66646611D01*
X116227537Y-66646609D01*
X116227535Y-66646606D01*
X116227529Y-66646600D01*
X116227520Y-66646590D01*
X116045409Y-66464479D01*
X116045388Y-66464460D01*
X115841043Y-66307659D01*
X115617974Y-66178870D01*
X115617966Y-66178866D01*
X115617962Y-66178864D01*
X115379984Y-66080290D01*
X115131175Y-66013622D01*
X115131173Y-66013621D01*
X115131167Y-66013620D01*
X114875795Y-65980000D01*
X114875793Y-65980000D01*
X114618207Y-65980000D01*
X114618204Y-65980000D01*
X114362832Y-66013620D01*
X114114016Y-66080290D01*
X113876036Y-66178865D01*
X113876025Y-66178870D01*
X113652956Y-66307659D01*
X113448611Y-66464460D01*
X113448590Y-66464479D01*
X113266479Y-66646590D01*
X113266460Y-66646611D01*
X113109659Y-66850956D01*
X112980870Y-67074025D01*
X112980865Y-67074036D01*
X112882290Y-67312016D01*
X112815620Y-67560832D01*
X112782000Y-67816204D01*
X112105500Y-67816204D01*
X112105500Y-64080263D01*
X117996500Y-64080263D01*
X117996500Y-64309736D01*
X118026450Y-64537231D01*
X118026452Y-64537238D01*
X118085842Y-64758887D01*
X118173656Y-64970888D01*
X118173657Y-64970889D01*
X118173662Y-64970900D01*
X118288386Y-65169608D01*
X118288391Y-65169615D01*
X118428073Y-65351652D01*
X118428092Y-65351673D01*
X118590326Y-65513907D01*
X118590347Y-65513926D01*
X118772384Y-65653608D01*
X118772391Y-65653613D01*
X118971099Y-65768337D01*
X118971103Y-65768338D01*
X118971112Y-65768344D01*
X119183113Y-65856158D01*
X119404762Y-65915548D01*
X119404766Y-65915548D01*
X119404768Y-65915549D01*
X119463398Y-65923267D01*
X119632266Y-65945500D01*
X119632273Y-65945500D01*
X119861727Y-65945500D01*
X119861734Y-65945500D01*
X120067345Y-65918430D01*
X120089231Y-65915549D01*
X120089231Y-65915548D01*
X120089238Y-65915548D01*
X120310887Y-65856158D01*
X120522888Y-65768344D01*
X120721612Y-65653611D01*
X120903661Y-65513919D01*
X120918798Y-65498782D01*
X120998905Y-65418676D01*
X121061217Y-65384650D01*
X121132032Y-65389715D01*
X121188868Y-65432262D01*
X121213679Y-65498782D01*
X121214000Y-65507771D01*
X121214000Y-65543597D01*
X121220505Y-65604093D01*
X121271555Y-65740964D01*
X121271555Y-65740965D01*
X121359095Y-65857904D01*
X121476034Y-65945444D01*
X121612906Y-65996494D01*
X121673402Y-66002999D01*
X121673415Y-66003000D01*
X122768000Y-66003000D01*
X123276000Y-66003000D01*
X124370585Y-66003000D01*
X124370597Y-66002999D01*
X124431093Y-65996494D01*
X124567964Y-65945444D01*
X124567965Y-65945444D01*
X124684904Y-65857904D01*
X124772444Y-65740965D01*
X124772444Y-65740964D01*
X124823494Y-65604093D01*
X124829999Y-65543597D01*
X124830000Y-65543585D01*
X124830000Y-64449000D01*
X123276000Y-64449000D01*
X123276000Y-66003000D01*
X122768000Y-66003000D01*
X122768000Y-62387000D01*
X121673402Y-62387000D01*
X121612906Y-62393505D01*
X121476035Y-62444555D01*
X121476034Y-62444555D01*
X121359095Y-62532095D01*
X121271555Y-62649034D01*
X121271555Y-62649035D01*
X121220505Y-62785906D01*
X121214000Y-62846402D01*
X121214000Y-62882229D01*
X121193998Y-62950350D01*
X121140342Y-62996843D01*
X121070068Y-63006947D01*
X121005488Y-62977453D01*
X120998905Y-62971324D01*
X120903673Y-62876092D01*
X120903652Y-62876073D01*
X120721615Y-62736391D01*
X120721608Y-62736386D01*
X120522900Y-62621662D01*
X120522892Y-62621658D01*
X120522888Y-62621656D01*
X120310887Y-62533842D01*
X120089238Y-62474452D01*
X120089231Y-62474450D01*
X119861736Y-62444500D01*
X119861734Y-62444500D01*
X119632266Y-62444500D01*
X119632263Y-62444500D01*
X119404768Y-62474450D01*
X119183113Y-62533842D01*
X118971110Y-62621657D01*
X118971099Y-62621662D01*
X118772391Y-62736386D01*
X118772384Y-62736391D01*
X118590347Y-62876073D01*
X118590326Y-62876092D01*
X118428092Y-63038326D01*
X118428073Y-63038347D01*
X118288391Y-63220384D01*
X118288386Y-63220391D01*
X118173662Y-63419099D01*
X118173657Y-63419110D01*
X118173656Y-63419112D01*
X118123084Y-63541204D01*
X118085842Y-63631113D01*
X118026450Y-63852768D01*
X117996500Y-64080263D01*
X112105500Y-64080263D01*
X112105500Y-63929500D01*
X112125502Y-63861379D01*
X112179158Y-63814886D01*
X112231500Y-63803500D01*
X112820632Y-63803500D01*
X112820638Y-63803500D01*
X112820645Y-63803499D01*
X112820649Y-63803499D01*
X112881196Y-63796990D01*
X112881199Y-63796989D01*
X112881201Y-63796989D01*
X113018204Y-63745889D01*
X113058734Y-63715549D01*
X113135261Y-63658261D01*
X113222887Y-63541207D01*
X113222887Y-63541206D01*
X113222889Y-63541204D01*
X113273989Y-63404201D01*
X113280500Y-63343638D01*
X113280500Y-63308271D01*
X113300502Y-63240150D01*
X113354158Y-63193657D01*
X113424432Y-63183553D01*
X113489012Y-63213047D01*
X113495595Y-63219176D01*
X113590326Y-63313907D01*
X113590347Y-63313926D01*
X113772384Y-63453608D01*
X113772391Y-63453613D01*
X113971099Y-63568337D01*
X113971103Y-63568338D01*
X113971112Y-63568344D01*
X114183113Y-63656158D01*
X114404762Y-63715548D01*
X114404766Y-63715548D01*
X114404768Y-63715549D01*
X114463398Y-63723267D01*
X114632266Y-63745500D01*
X114632273Y-63745500D01*
X114861727Y-63745500D01*
X114861734Y-63745500D01*
X115067345Y-63718430D01*
X115089231Y-63715549D01*
X115089231Y-63715548D01*
X115089238Y-63715548D01*
X115310887Y-63656158D01*
X115522888Y-63568344D01*
X115721612Y-63453611D01*
X115903661Y-63313919D01*
X116065919Y-63151661D01*
X116205611Y-62969612D01*
X116320344Y-62770888D01*
X116408158Y-62558887D01*
X116467548Y-62337238D01*
X116497500Y-62109734D01*
X116497500Y-61880266D01*
X116467548Y-61652762D01*
X116408158Y-61431113D01*
X116320344Y-61219112D01*
X116320338Y-61219103D01*
X116320337Y-61219099D01*
X116205613Y-61020391D01*
X116205608Y-61020384D01*
X116065926Y-60838347D01*
X116065907Y-60838326D01*
X115903673Y-60676092D01*
X115903652Y-60676073D01*
X115721615Y-60536391D01*
X115721608Y-60536386D01*
X115522900Y-60421662D01*
X115522892Y-60421658D01*
X115522888Y-60421656D01*
X115393128Y-60367907D01*
X115337849Y-60323361D01*
X115315428Y-60255997D01*
X115332986Y-60187206D01*
X115384948Y-60138828D01*
X115441348Y-60125500D01*
X121566181Y-60125500D01*
X121571258Y-60125500D01*
X121577679Y-60125664D01*
X121612946Y-60127463D01*
X121870906Y-60140627D01*
X121883657Y-60141931D01*
X122170706Y-60186190D01*
X122183241Y-60188784D01*
X122441110Y-60255997D01*
X122464252Y-60262029D01*
X122476501Y-60265898D01*
X122748586Y-60367371D01*
X122760377Y-60372467D01*
X123020726Y-60501120D01*
X123031918Y-60507380D01*
X123277816Y-60661875D01*
X123288322Y-60669248D01*
X123504871Y-60838339D01*
X123517204Y-60847969D01*
X123526913Y-60856381D01*
X123736411Y-61057481D01*
X123745205Y-61066829D01*
X123860140Y-61202222D01*
X123933132Y-61288206D01*
X123940935Y-61298410D01*
X124105352Y-61537781D01*
X124112075Y-61548726D01*
X124251256Y-61803575D01*
X124256830Y-61815146D01*
X124364556Y-62071462D01*
X124366120Y-62075182D01*
X124367546Y-62078725D01*
X124374127Y-62095818D01*
X124374049Y-62096157D01*
X124376501Y-62101982D01*
X124377203Y-62103804D01*
X124377214Y-62103944D01*
X124378115Y-62106247D01*
X124385658Y-62127114D01*
X124389822Y-62133624D01*
X124422867Y-62212103D01*
X124430868Y-62282648D01*
X124399460Y-62346319D01*
X124338615Y-62382902D01*
X124306742Y-62387000D01*
X123276000Y-62387000D01*
X123276000Y-63941000D01*
X124830000Y-63941000D01*
X124830000Y-63637608D01*
X124850002Y-63569487D01*
X124903658Y-63522994D01*
X124973932Y-63512890D01*
X125038512Y-63542384D01*
X125067625Y-63579164D01*
X125210872Y-63852768D01*
X125318794Y-64058902D01*
X125753455Y-64810703D01*
X126219246Y-65543676D01*
X126715298Y-66256452D01*
X126715306Y-66256463D01*
X126873394Y-66464465D01*
X127240792Y-66947863D01*
X127794771Y-67616644D01*
X128054738Y-67904992D01*
X128376278Y-68261637D01*
X128376285Y-68261644D01*
X128889557Y-68785101D01*
X128984287Y-68881710D01*
X129617733Y-69475774D01*
X130121464Y-69910000D01*
X130275510Y-70042791D01*
X130956446Y-70581751D01*
X131659363Y-71091724D01*
X132383023Y-71571810D01*
X133126155Y-72021166D01*
X133887454Y-72439003D01*
X134665586Y-72824588D01*
X135203708Y-73063717D01*
X135372220Y-73138600D01*
X135459185Y-73177245D01*
X136266857Y-73496354D01*
X136266866Y-73496357D01*
X137087173Y-73781353D01*
X137087184Y-73781356D01*
X137087186Y-73781357D01*
X137918731Y-74031751D01*
X138760034Y-74247099D01*
X139609618Y-74427022D01*
X139945069Y-74483500D01*
X140465998Y-74571206D01*
X140602765Y-74588378D01*
X140888149Y-74624211D01*
X140889438Y-74625500D01*
X140898408Y-74625500D01*
X140905044Y-74626333D01*
X140905044Y-74626332D01*
X140906233Y-74626482D01*
X140908284Y-74626739D01*
X140921349Y-74625500D01*
X153977350Y-74625500D01*
X153982922Y-74625500D01*
X153988349Y-74625617D01*
X154000426Y-74626137D01*
X154408333Y-74643724D01*
X154419104Y-74644655D01*
X154833288Y-74698490D01*
X154843967Y-74700349D01*
X155251979Y-74789628D01*
X155262446Y-74792397D01*
X155661247Y-74916452D01*
X155671455Y-74920116D01*
X156058103Y-75078033D01*
X156067950Y-75082559D01*
X156439573Y-75273165D01*
X156448987Y-75278517D01*
X156802843Y-75500405D01*
X156811769Y-75506553D01*
X157145197Y-75758057D01*
X157153557Y-75764947D01*
X157259003Y-75859770D01*
X157464117Y-76044223D01*
X157471864Y-76051818D01*
X157757227Y-76356771D01*
X157764285Y-76364997D01*
X158022337Y-76693367D01*
X158028670Y-76702181D01*
X158257517Y-77051557D01*
X158263067Y-77060884D01*
X158358249Y-77237740D01*
X158444551Y-77398098D01*
X158460991Y-77428644D01*
X158465718Y-77438414D01*
X158631257Y-77821838D01*
X158635126Y-77831978D01*
X158767643Y-78229996D01*
X158769238Y-78235155D01*
X158770359Y-78239077D01*
X158770360Y-78239083D01*
X158770361Y-78239083D01*
X162867932Y-92580587D01*
X162868122Y-92582071D01*
X162875233Y-92606171D01*
X162875816Y-92608210D01*
X163161124Y-93638858D01*
X163162189Y-93642976D01*
X163412303Y-94681650D01*
X163413229Y-94685802D01*
X163628134Y-95732281D01*
X163628919Y-95736461D01*
X163808381Y-96789585D01*
X163809025Y-96793789D01*
X163952846Y-97852414D01*
X163953347Y-97856637D01*
X164061353Y-98919471D01*
X164061712Y-98923710D01*
X164133787Y-99989623D01*
X164134001Y-99993869D01*
X164165979Y-100940776D01*
X164170059Y-101061576D01*
X164170131Y-101065829D01*
X164170131Y-102134170D01*
X164170059Y-102138423D01*
X164134002Y-103206129D01*
X164133787Y-103210376D01*
X164061712Y-104276289D01*
X164061353Y-104280528D01*
X163953347Y-105343362D01*
X163952846Y-105347585D01*
X163809025Y-106406210D01*
X163808381Y-106410414D01*
X163628919Y-107463538D01*
X163628134Y-107467718D01*
X163413229Y-108514197D01*
X163412303Y-108518349D01*
X163162189Y-109557023D01*
X163161124Y-109561141D01*
X162875802Y-110591841D01*
X162875529Y-110592814D01*
X162875390Y-110593299D01*
X162873198Y-110600730D01*
X162873237Y-110600841D01*
X162867893Y-110619562D01*
X162867890Y-110619565D01*
X162867890Y-110619570D01*
X158771958Y-124963302D01*
X158770355Y-124968489D01*
X158637623Y-125367365D01*
X158633756Y-125377507D01*
X158468247Y-125761017D01*
X158463520Y-125770789D01*
X158265627Y-126138614D01*
X158260077Y-126147943D01*
X158031254Y-126497377D01*
X158024922Y-126506193D01*
X157766879Y-126834627D01*
X157759812Y-126842865D01*
X157474447Y-127147886D01*
X157466696Y-127155487D01*
X157156142Y-127434808D01*
X157147766Y-127441712D01*
X156814330Y-127693263D01*
X156805391Y-127699421D01*
X156451538Y-127921342D01*
X156442102Y-127926708D01*
X156070464Y-128117348D01*
X156060602Y-128121882D01*
X155673921Y-128279833D01*
X155663704Y-128283501D01*
X155264876Y-128407581D01*
X155254382Y-128410356D01*
X154846357Y-128499648D01*
X154835664Y-128501510D01*
X154421455Y-128555355D01*
X154410640Y-128556289D01*
X154037278Y-128572387D01*
X154007608Y-128573667D01*
X153991002Y-128574383D01*
X153985574Y-128574500D01*
X140906557Y-128574500D01*
X140905044Y-128573667D01*
X140898408Y-128574500D01*
X140882802Y-128574500D01*
X140868695Y-128578233D01*
X140466096Y-128628782D01*
X139609951Y-128772917D01*
X138760559Y-128952781D01*
X137919435Y-129168055D01*
X137088117Y-129418343D01*
X136267946Y-129703244D01*
X135460473Y-130022217D01*
X134667034Y-130374735D01*
X133889072Y-130760157D01*
X133889064Y-130760161D01*
X133127913Y-131177825D01*
X133120180Y-131182500D01*
X132384920Y-131626991D01*
X131661361Y-132106892D01*
X130958576Y-132616637D01*
X130277735Y-133155373D01*
X129620028Y-133722165D01*
X128986663Y-134315969D01*
X128378683Y-134935807D01*
X127797222Y-135580526D01*
X127243244Y-136249052D01*
X126717759Y-136940170D01*
X126221666Y-137652694D01*
X125755847Y-138385360D01*
X125321110Y-139136897D01*
X124918222Y-139905982D01*
X124547892Y-140691254D01*
X124391906Y-141061456D01*
X124391906Y-141061457D01*
X124383139Y-141082260D01*
X124382454Y-141082582D01*
X124379091Y-141091865D01*
X124377834Y-141094850D01*
X124377833Y-141094856D01*
X124369819Y-141113884D01*
X124368082Y-141120933D01*
X124256455Y-141386170D01*
X124250877Y-141397736D01*
X124111642Y-141652413D01*
X124104917Y-141663351D01*
X123940480Y-141902544D01*
X123932676Y-141912741D01*
X123744748Y-142133957D01*
X123735946Y-142143307D01*
X123526487Y-142344239D01*
X123516781Y-142352644D01*
X123287949Y-142531225D01*
X123277436Y-142538599D01*
X123031621Y-142692959D01*
X123020413Y-142699224D01*
X122760177Y-142827759D01*
X122748390Y-142832852D01*
X122476402Y-142934242D01*
X122464157Y-142938108D01*
X122183276Y-143011285D01*
X122170702Y-143013885D01*
X121883821Y-143058098D01*
X121871047Y-143059404D01*
X121578297Y-143074336D01*
X121571879Y-143074500D01*
X108904122Y-143074500D01*
X108895881Y-143074230D01*
X108650517Y-143058148D01*
X108634177Y-143055997D01*
X108397062Y-143008832D01*
X108381141Y-143004566D01*
X108275744Y-142968788D01*
X108152208Y-142926853D01*
X108136984Y-142920547D01*
X107920153Y-142813618D01*
X107905887Y-142805381D01*
X107704867Y-142671063D01*
X107691795Y-142661033D01*
X107510027Y-142501627D01*
X107498372Y-142489972D01*
X107338966Y-142308204D01*
X107328937Y-142295135D01*
X107194615Y-142094108D01*
X107186384Y-142079851D01*
X107079448Y-141863005D01*
X107073149Y-141847799D01*
X106995430Y-141618850D01*
X106991169Y-141602945D01*
X106944000Y-141365810D01*
X106941852Y-141349492D01*
X106925770Y-141104118D01*
X106925500Y-141095878D01*
X106925500Y-135295318D01*
X108145600Y-135295318D01*
X108145600Y-135468682D01*
X108172720Y-135639912D01*
X108172721Y-135639917D01*
X108213742Y-135766167D01*
X108226292Y-135804791D01*
X108226293Y-135804792D01*
X108305000Y-135959263D01*
X108406900Y-136099516D01*
X108529483Y-136222099D01*
X108529486Y-136222101D01*
X108669740Y-136324002D01*
X108824209Y-136402708D01*
X108989082Y-136456278D01*
X108989083Y-136456278D01*
X108989088Y-136456280D01*
X109160318Y-136483400D01*
X109160321Y-136483400D01*
X109333679Y-136483400D01*
X109333682Y-136483400D01*
X109504912Y-136456280D01*
X109669791Y-136402708D01*
X109824260Y-136324002D01*
X109964514Y-136222101D01*
X110087101Y-136099514D01*
X110189002Y-135959260D01*
X110267708Y-135804791D01*
X110321280Y-135639912D01*
X110348400Y-135468682D01*
X110348400Y-135295318D01*
X110321280Y-135124088D01*
X110267708Y-134959209D01*
X110189002Y-134804740D01*
X110087101Y-134664486D01*
X110087099Y-134664483D01*
X109964516Y-134541900D01*
X109824263Y-134440000D01*
X109824262Y-134439999D01*
X109824260Y-134439998D01*
X109669791Y-134361292D01*
X109669788Y-134361291D01*
X109669786Y-134361290D01*
X109504915Y-134307721D01*
X109504919Y-134307721D01*
X109473041Y-134302672D01*
X109333682Y-134280600D01*
X109160318Y-134280600D01*
X108989088Y-134307720D01*
X108989082Y-134307721D01*
X108824213Y-134361290D01*
X108824207Y-134361293D01*
X108669736Y-134440000D01*
X108529483Y-134541900D01*
X108406900Y-134664483D01*
X108305000Y-134804736D01*
X108226293Y-134959207D01*
X108226290Y-134959213D01*
X108172721Y-135124082D01*
X108172720Y-135124087D01*
X108172720Y-135124088D01*
X108145600Y-135295318D01*
X106925500Y-135295318D01*
X106925500Y-126601425D01*
X106925609Y-126596184D01*
X106930798Y-126471541D01*
X106942494Y-126190572D01*
X106943362Y-126180165D01*
X106993576Y-125779951D01*
X106995307Y-125769642D01*
X107078613Y-125374975D01*
X107081196Y-125364849D01*
X107164978Y-125085350D01*
X107673500Y-125085350D01*
X107673500Y-126882649D01*
X107680009Y-126943196D01*
X107680011Y-126943204D01*
X107731110Y-127080202D01*
X107731112Y-127080207D01*
X107818738Y-127197261D01*
X107935792Y-127284887D01*
X107935794Y-127284888D01*
X107935796Y-127284889D01*
X107975865Y-127299834D01*
X108072795Y-127335988D01*
X108072803Y-127335990D01*
X108133350Y-127342499D01*
X108133355Y-127342499D01*
X108133362Y-127342500D01*
X108272500Y-127342500D01*
X108340621Y-127362502D01*
X108387114Y-127416158D01*
X108398500Y-127468500D01*
X108398500Y-130306396D01*
X108408185Y-130355086D01*
X108422845Y-130428785D01*
X108470600Y-130544075D01*
X108539929Y-130647833D01*
X110895929Y-133003833D01*
X110984167Y-133092071D01*
X111087925Y-133161400D01*
X111203215Y-133209155D01*
X111325606Y-133233500D01*
X111325607Y-133233500D01*
X114216071Y-133233500D01*
X114284192Y-133253502D01*
X114330685Y-133307158D01*
X114340789Y-133377432D01*
X114311295Y-133442012D01*
X114251569Y-133480396D01*
X114248724Y-133481195D01*
X114114016Y-133517290D01*
X113876036Y-133615865D01*
X113876025Y-133615870D01*
X113652956Y-133744659D01*
X113448611Y-133901460D01*
X113448590Y-133901479D01*
X113266479Y-134083590D01*
X113266460Y-134083611D01*
X113109659Y-134287956D01*
X112980870Y-134511025D01*
X112980865Y-134511036D01*
X112882290Y-134749016D01*
X112815620Y-134997832D01*
X112782000Y-135253204D01*
X112782000Y-135510795D01*
X112815620Y-135766167D01*
X112815621Y-135766173D01*
X112815622Y-135766175D01*
X112882290Y-136014984D01*
X112980864Y-136252962D01*
X112980865Y-136252963D01*
X112980870Y-136252974D01*
X113109659Y-136476043D01*
X113266460Y-136680388D01*
X113266479Y-136680409D01*
X113448590Y-136862520D01*
X113448600Y-136862529D01*
X113448606Y-136862535D01*
X113448609Y-136862537D01*
X113448611Y-136862539D01*
X113652956Y-137019340D01*
X113876025Y-137148129D01*
X113876029Y-137148130D01*
X113876038Y-137148136D01*
X114114016Y-137246710D01*
X114362825Y-137313378D01*
X114362831Y-137313378D01*
X114362832Y-137313379D01*
X114392134Y-137317236D01*
X114618207Y-137347000D01*
X114618214Y-137347000D01*
X114875786Y-137347000D01*
X114875793Y-137347000D01*
X115131175Y-137313378D01*
X115379984Y-137246710D01*
X115617962Y-137148136D01*
X115841038Y-137019343D01*
X115841038Y-137019342D01*
X115841043Y-137019340D01*
X115959717Y-136928277D01*
X116045394Y-136862535D01*
X116227535Y-136680394D01*
X116293277Y-136594717D01*
X116384340Y-136476043D01*
X116426680Y-136402709D01*
X116513136Y-136252962D01*
X116611710Y-136014984D01*
X116678378Y-135766175D01*
X116712000Y-135510793D01*
X116712000Y-135295318D01*
X119145600Y-135295318D01*
X119145600Y-135468682D01*
X119172720Y-135639912D01*
X119172721Y-135639917D01*
X119213742Y-135766167D01*
X119226292Y-135804791D01*
X119226293Y-135804792D01*
X119305000Y-135959263D01*
X119406900Y-136099516D01*
X119529483Y-136222099D01*
X119529486Y-136222101D01*
X119669740Y-136324002D01*
X119824209Y-136402708D01*
X119989082Y-136456278D01*
X119989083Y-136456278D01*
X119989088Y-136456280D01*
X120160318Y-136483400D01*
X120160321Y-136483400D01*
X120333679Y-136483400D01*
X120333682Y-136483400D01*
X120504912Y-136456280D01*
X120669791Y-136402708D01*
X120824260Y-136324002D01*
X120964514Y-136222101D01*
X121087101Y-136099514D01*
X121189002Y-135959260D01*
X121267708Y-135804791D01*
X121321280Y-135639912D01*
X121348400Y-135468682D01*
X121348400Y-135295318D01*
X121321280Y-135124088D01*
X121267708Y-134959209D01*
X121189002Y-134804740D01*
X121087101Y-134664486D01*
X121087099Y-134664483D01*
X120964516Y-134541900D01*
X120824263Y-134440000D01*
X120824262Y-134439999D01*
X120824260Y-134439998D01*
X120669791Y-134361292D01*
X120669788Y-134361291D01*
X120669786Y-134361290D01*
X120504915Y-134307721D01*
X120504919Y-134307721D01*
X120473041Y-134302672D01*
X120333682Y-134280600D01*
X120160318Y-134280600D01*
X119989088Y-134307720D01*
X119989082Y-134307721D01*
X119824213Y-134361290D01*
X119824207Y-134361293D01*
X119669736Y-134440000D01*
X119529483Y-134541900D01*
X119406900Y-134664483D01*
X119305000Y-134804736D01*
X119226293Y-134959207D01*
X119226290Y-134959213D01*
X119172721Y-135124082D01*
X119172720Y-135124087D01*
X119172720Y-135124088D01*
X119145600Y-135295318D01*
X116712000Y-135295318D01*
X116712000Y-135253207D01*
X116678378Y-134997825D01*
X116611710Y-134749016D01*
X116513136Y-134511038D01*
X116513130Y-134511029D01*
X116513129Y-134511025D01*
X116384340Y-134287956D01*
X116227539Y-134083611D01*
X116227537Y-134083609D01*
X116227535Y-134083606D01*
X116227529Y-134083600D01*
X116227520Y-134083590D01*
X116045409Y-133901479D01*
X116045388Y-133901460D01*
X115841043Y-133744659D01*
X115617974Y-133615870D01*
X115617966Y-133615866D01*
X115617962Y-133615864D01*
X115379984Y-133517290D01*
X115245316Y-133481206D01*
X115184695Y-133444255D01*
X115153674Y-133380395D01*
X115162102Y-133309900D01*
X115207305Y-133255153D01*
X115274930Y-133233536D01*
X115277929Y-133233500D01*
X115462393Y-133233500D01*
X115462394Y-133233500D01*
X115584785Y-133209155D01*
X115700075Y-133161400D01*
X115803833Y-133092071D01*
X117847790Y-131048114D01*
X117910099Y-131014091D01*
X117980914Y-131019155D01*
X118037750Y-131061702D01*
X118062561Y-131128222D01*
X118058589Y-131169821D01*
X118026450Y-131289766D01*
X117996500Y-131517263D01*
X117996500Y-131746736D01*
X118026450Y-131974231D01*
X118026452Y-131974238D01*
X118085842Y-132195887D01*
X118173656Y-132407888D01*
X118173657Y-132407889D01*
X118173662Y-132407900D01*
X118288386Y-132606608D01*
X118288391Y-132606615D01*
X118428073Y-132788652D01*
X118428092Y-132788673D01*
X118590326Y-132950907D01*
X118590347Y-132950926D01*
X118772384Y-133090608D01*
X118772391Y-133090613D01*
X118971099Y-133205337D01*
X118971103Y-133205338D01*
X118971112Y-133205344D01*
X119183113Y-133293158D01*
X119404762Y-133352548D01*
X119404766Y-133352548D01*
X119404768Y-133352549D01*
X119463398Y-133360267D01*
X119632266Y-133382500D01*
X119632273Y-133382500D01*
X119861727Y-133382500D01*
X119861734Y-133382500D01*
X120067345Y-133355430D01*
X120089231Y-133352549D01*
X120089231Y-133352548D01*
X120089238Y-133352548D01*
X120310887Y-133293158D01*
X120522888Y-133205344D01*
X120721612Y-133090611D01*
X120903661Y-132950919D01*
X120928575Y-132926005D01*
X120998405Y-132856176D01*
X121060717Y-132822150D01*
X121131532Y-132827215D01*
X121188368Y-132869762D01*
X121213179Y-132936282D01*
X121213500Y-132945271D01*
X121213500Y-132980649D01*
X121220009Y-133041196D01*
X121220011Y-133041204D01*
X121271110Y-133178202D01*
X121271112Y-133178207D01*
X121358738Y-133295261D01*
X121475792Y-133382887D01*
X121475794Y-133382888D01*
X121475796Y-133382889D01*
X121534875Y-133404924D01*
X121612795Y-133433988D01*
X121612803Y-133433990D01*
X121673350Y-133440499D01*
X121673355Y-133440499D01*
X121673362Y-133440500D01*
X121673368Y-133440500D01*
X124370632Y-133440500D01*
X124370638Y-133440500D01*
X124370645Y-133440499D01*
X124370649Y-133440499D01*
X124431196Y-133433990D01*
X124431199Y-133433989D01*
X124431201Y-133433989D01*
X124568204Y-133382889D01*
X124608734Y-133352549D01*
X124685261Y-133295261D01*
X124772887Y-133178207D01*
X124772887Y-133178206D01*
X124772889Y-133178204D01*
X124823989Y-133041201D01*
X124828007Y-133003833D01*
X124830499Y-132980649D01*
X124830500Y-132980632D01*
X124830500Y-132288527D01*
X124850502Y-132220406D01*
X124886495Y-132183764D01*
X124975833Y-132124071D01*
X126492071Y-130607833D01*
X126561400Y-130504075D01*
X126609155Y-130388785D01*
X126633500Y-130266394D01*
X126633500Y-130141606D01*
X126633500Y-130128503D01*
X126653502Y-130060382D01*
X126670405Y-130039408D01*
X126687596Y-130022217D01*
X126705678Y-130004135D01*
X126805102Y-129855336D01*
X126873587Y-129690000D01*
X126908500Y-129514479D01*
X126908500Y-129409500D01*
X126928502Y-129341379D01*
X126982158Y-129294886D01*
X127034500Y-129283500D01*
X135112393Y-129283500D01*
X135112394Y-129283500D01*
X135234785Y-129259155D01*
X135350075Y-129211400D01*
X135453833Y-129142071D01*
X136246004Y-128349900D01*
X136308316Y-128315874D01*
X136335099Y-128312995D01*
X136384983Y-128312995D01*
X136384984Y-128312995D01*
X136560505Y-128278082D01*
X136725841Y-128209597D01*
X136874640Y-128110173D01*
X137001183Y-127983630D01*
X137100607Y-127834831D01*
X137169092Y-127669495D01*
X137204005Y-127493974D01*
X137204005Y-127324158D01*
X137224007Y-127256037D01*
X137277663Y-127209544D01*
X137281767Y-127207758D01*
X137353344Y-127178110D01*
X137502143Y-127078686D01*
X137628686Y-126952143D01*
X137728110Y-126803344D01*
X137796595Y-126638008D01*
X137831508Y-126462487D01*
X137831508Y-126283529D01*
X137796808Y-126109079D01*
X137803136Y-126038368D01*
X137846690Y-125982300D01*
X137913643Y-125958681D01*
X137920387Y-125958500D01*
X142974706Y-125958500D01*
X143054278Y-125942672D01*
X143121247Y-125929351D01*
X143247430Y-125877084D01*
X146789500Y-125877084D01*
X146789500Y-126090916D01*
X146822951Y-126302116D01*
X146822952Y-126302121D01*
X146888966Y-126505292D01*
X146889028Y-126505483D01*
X146986106Y-126696009D01*
X147111794Y-126869004D01*
X147111796Y-126869006D01*
X147111798Y-126869009D01*
X147262990Y-127020201D01*
X147262993Y-127020203D01*
X147262996Y-127020206D01*
X147435991Y-127145894D01*
X147626517Y-127242972D01*
X147829878Y-127309047D01*
X147829879Y-127309047D01*
X147829884Y-127309049D01*
X148041084Y-127342500D01*
X148041087Y-127342500D01*
X148254913Y-127342500D01*
X148254916Y-127342500D01*
X148466116Y-127309049D01*
X148669483Y-127242972D01*
X148860009Y-127145894D01*
X149033004Y-127020206D01*
X149184206Y-126869004D01*
X149309894Y-126696009D01*
X149309899Y-126695997D01*
X149310561Y-126694920D01*
X149310924Y-126694591D01*
X149312804Y-126692004D01*
X149313347Y-126692398D01*
X149363204Y-126647283D01*
X149433244Y-126635670D01*
X149498445Y-126663766D01*
X149523021Y-126692130D01*
X149523196Y-126692004D01*
X149524668Y-126694030D01*
X149525439Y-126694920D01*
X149526105Y-126696007D01*
X149526106Y-126696009D01*
X149651794Y-126869004D01*
X149651796Y-126869006D01*
X149651798Y-126869009D01*
X149802990Y-127020201D01*
X149802993Y-127020203D01*
X149802996Y-127020206D01*
X149975991Y-127145894D01*
X150166517Y-127242972D01*
X150369878Y-127309047D01*
X150369879Y-127309047D01*
X150369884Y-127309049D01*
X150581084Y-127342500D01*
X150581087Y-127342500D01*
X150794913Y-127342500D01*
X150794916Y-127342500D01*
X151006116Y-127309049D01*
X151209483Y-127242972D01*
X151400009Y-127145894D01*
X151573004Y-127020206D01*
X151724206Y-126869004D01*
X151849894Y-126696009D01*
X151849899Y-126695997D01*
X151850561Y-126694920D01*
X151850924Y-126694591D01*
X151852804Y-126692004D01*
X151853347Y-126692398D01*
X151903204Y-126647283D01*
X151973244Y-126635670D01*
X152038445Y-126663766D01*
X152063021Y-126692130D01*
X152063196Y-126692004D01*
X152064668Y-126694030D01*
X152065439Y-126694920D01*
X152066105Y-126696007D01*
X152066106Y-126696009D01*
X152191794Y-126869004D01*
X152191796Y-126869006D01*
X152191798Y-126869009D01*
X152342990Y-127020201D01*
X152342993Y-127020203D01*
X152342996Y-127020206D01*
X152515991Y-127145894D01*
X152706517Y-127242972D01*
X152909878Y-127309047D01*
X152909879Y-127309047D01*
X152909884Y-127309049D01*
X153121084Y-127342500D01*
X153121087Y-127342500D01*
X153334913Y-127342500D01*
X153334916Y-127342500D01*
X153546116Y-127309049D01*
X153749483Y-127242972D01*
X153940009Y-127145894D01*
X154113004Y-127020206D01*
X154215982Y-126917227D01*
X154278292Y-126883204D01*
X154349108Y-126888268D01*
X154405944Y-126930815D01*
X154423131Y-126962291D01*
X154467110Y-127080203D01*
X154467112Y-127080207D01*
X154554738Y-127197261D01*
X154671792Y-127284887D01*
X154671794Y-127284888D01*
X154671796Y-127284889D01*
X154711865Y-127299834D01*
X154808795Y-127335988D01*
X154808803Y-127335990D01*
X154869350Y-127342499D01*
X154869355Y-127342499D01*
X154869362Y-127342500D01*
X154869368Y-127342500D01*
X156666632Y-127342500D01*
X156666638Y-127342500D01*
X156666645Y-127342499D01*
X156666649Y-127342499D01*
X156727196Y-127335990D01*
X156727199Y-127335989D01*
X156727201Y-127335989D01*
X156864204Y-127284889D01*
X156920199Y-127242972D01*
X156981261Y-127197261D01*
X157068887Y-127080207D01*
X157068887Y-127080206D01*
X157068889Y-127080204D01*
X157119989Y-126943201D01*
X157120002Y-126943087D01*
X157126499Y-126882649D01*
X157126500Y-126882632D01*
X157126500Y-125085367D01*
X157126499Y-125085350D01*
X157119990Y-125024803D01*
X157119988Y-125024795D01*
X157068978Y-124888035D01*
X157068889Y-124887796D01*
X157068888Y-124887794D01*
X157068887Y-124887792D01*
X156981261Y-124770738D01*
X156864207Y-124683112D01*
X156864202Y-124683110D01*
X156727204Y-124632011D01*
X156727196Y-124632009D01*
X156666649Y-124625500D01*
X156666638Y-124625500D01*
X154869362Y-124625500D01*
X154869350Y-124625500D01*
X154808803Y-124632009D01*
X154808795Y-124632011D01*
X154671797Y-124683110D01*
X154671792Y-124683112D01*
X154554738Y-124770738D01*
X154467112Y-124887792D01*
X154467110Y-124887797D01*
X154423131Y-125005708D01*
X154380584Y-125062544D01*
X154314064Y-125087354D01*
X154244690Y-125072262D01*
X154215981Y-125050770D01*
X154113009Y-124947798D01*
X154113006Y-124947796D01*
X154113004Y-124947794D01*
X153940601Y-124822536D01*
X153940012Y-124822108D01*
X153940011Y-124822107D01*
X153940009Y-124822106D01*
X153749483Y-124725028D01*
X153749480Y-124725027D01*
X153749478Y-124725026D01*
X153546120Y-124658952D01*
X153546123Y-124658952D01*
X153506801Y-124652724D01*
X153334916Y-124625500D01*
X153121084Y-124625500D01*
X152909884Y-124658951D01*
X152909878Y-124658952D01*
X152706521Y-124725026D01*
X152706515Y-124725029D01*
X152515987Y-124822108D01*
X152342993Y-124947796D01*
X152342990Y-124947798D01*
X152191798Y-125098990D01*
X152191796Y-125098993D01*
X152066108Y-125271987D01*
X152065434Y-125273088D01*
X152065068Y-125273418D01*
X152063196Y-125275996D01*
X152062654Y-125275602D01*
X152012787Y-125320721D01*
X151942745Y-125332328D01*
X151877547Y-125304226D01*
X151852976Y-125275870D01*
X151852804Y-125275996D01*
X151851341Y-125273982D01*
X151850566Y-125273088D01*
X151849896Y-125271996D01*
X151849894Y-125271991D01*
X151724206Y-125098996D01*
X151724203Y-125098993D01*
X151724201Y-125098990D01*
X151573009Y-124947798D01*
X151573006Y-124947796D01*
X151573004Y-124947794D01*
X151400601Y-124822536D01*
X151400012Y-124822108D01*
X151400011Y-124822107D01*
X151400009Y-124822106D01*
X151209483Y-124725028D01*
X151209480Y-124725027D01*
X151209478Y-124725026D01*
X151006120Y-124658952D01*
X151006123Y-124658952D01*
X150966801Y-124652724D01*
X150794916Y-124625500D01*
X150581084Y-124625500D01*
X150369884Y-124658951D01*
X150369878Y-124658952D01*
X150166521Y-124725026D01*
X150166515Y-124725029D01*
X149975987Y-124822108D01*
X149802993Y-124947796D01*
X149802990Y-124947798D01*
X149651798Y-125098990D01*
X149651796Y-125098993D01*
X149526108Y-125271987D01*
X149525434Y-125273088D01*
X149525068Y-125273418D01*
X149523196Y-125275996D01*
X149522654Y-125275602D01*
X149472787Y-125320721D01*
X149402745Y-125332328D01*
X149337547Y-125304226D01*
X149312976Y-125275870D01*
X149312804Y-125275996D01*
X149311341Y-125273982D01*
X149310566Y-125273088D01*
X149309896Y-125271996D01*
X149309894Y-125271991D01*
X149184206Y-125098996D01*
X149184203Y-125098993D01*
X149184201Y-125098990D01*
X149033009Y-124947798D01*
X149033006Y-124947796D01*
X149033004Y-124947794D01*
X148860601Y-124822536D01*
X148860012Y-124822108D01*
X148860011Y-124822107D01*
X148860009Y-124822106D01*
X148669483Y-124725028D01*
X148669480Y-124725027D01*
X148669478Y-124725026D01*
X148466120Y-124658952D01*
X148466123Y-124658952D01*
X148426801Y-124652724D01*
X148254916Y-124625500D01*
X148041084Y-124625500D01*
X147829884Y-124658951D01*
X147829878Y-124658952D01*
X147626521Y-124725026D01*
X147626515Y-124725029D01*
X147435987Y-124822108D01*
X147262993Y-124947796D01*
X147262990Y-124947798D01*
X147111798Y-125098990D01*
X147111796Y-125098993D01*
X146986108Y-125271987D01*
X146889029Y-125462515D01*
X146889026Y-125462521D01*
X146822952Y-125665878D01*
X146822951Y-125665883D01*
X146822951Y-125665884D01*
X146789500Y-125877084D01*
X143247430Y-125877084D01*
X143259284Y-125872174D01*
X143383515Y-125789166D01*
X145577276Y-123595405D01*
X145639588Y-123561379D01*
X145666371Y-123558500D01*
X155461698Y-123558500D01*
X155529819Y-123578502D01*
X155531673Y-123579717D01*
X155569664Y-123605102D01*
X155735000Y-123673587D01*
X155910521Y-123708500D01*
X155910522Y-123708500D01*
X156089478Y-123708500D01*
X156089479Y-123708500D01*
X156265000Y-123673587D01*
X156430336Y-123605102D01*
X156579135Y-123505678D01*
X156705678Y-123379135D01*
X156805102Y-123230336D01*
X156873587Y-123065000D01*
X156908500Y-122889479D01*
X156908500Y-122710521D01*
X156873587Y-122535000D01*
X156805102Y-122369664D01*
X156705678Y-122220865D01*
X156579135Y-122094322D01*
X156430336Y-121994898D01*
X156304786Y-121942893D01*
X156265003Y-121926414D01*
X156265001Y-121926413D01*
X156265000Y-121926413D01*
X156167439Y-121907007D01*
X156089481Y-121891500D01*
X156089479Y-121891500D01*
X155910521Y-121891500D01*
X155910518Y-121891500D01*
X155779771Y-121917507D01*
X155735000Y-121926413D01*
X155734999Y-121926413D01*
X155734996Y-121926414D01*
X155569662Y-121994899D01*
X155561880Y-122000099D01*
X155546283Y-122010521D01*
X155531700Y-122020265D01*
X155463947Y-122041480D01*
X155461698Y-122041500D01*
X146335371Y-122041500D01*
X146267250Y-122021498D01*
X146220757Y-121967842D01*
X146210653Y-121897568D01*
X146240147Y-121832988D01*
X146246276Y-121826405D01*
X146477276Y-121595405D01*
X146539588Y-121561379D01*
X146566371Y-121558500D01*
X146861698Y-121558500D01*
X146929819Y-121578502D01*
X146931673Y-121579717D01*
X146969664Y-121605102D01*
X147135000Y-121673587D01*
X147310521Y-121708500D01*
X147310522Y-121708500D01*
X147489478Y-121708500D01*
X147489479Y-121708500D01*
X147665000Y-121673587D01*
X147830336Y-121605102D01*
X147979135Y-121505678D01*
X148105678Y-121379135D01*
X148205102Y-121230336D01*
X148273587Y-121065000D01*
X148308500Y-120889479D01*
X148308500Y-120710521D01*
X148273587Y-120535000D01*
X148205102Y-120369664D01*
X148105678Y-120220865D01*
X147979135Y-120094322D01*
X147830336Y-119994898D01*
X147691189Y-119937261D01*
X147665003Y-119926414D01*
X147665001Y-119926413D01*
X147665000Y-119926413D01*
X147576645Y-119908838D01*
X147489481Y-119891500D01*
X147489479Y-119891500D01*
X147310521Y-119891500D01*
X147310518Y-119891500D01*
X147179771Y-119917507D01*
X147135000Y-119926413D01*
X147134999Y-119926413D01*
X147134996Y-119926414D01*
X146969662Y-119994899D01*
X146931700Y-120020265D01*
X146863947Y-120041480D01*
X146861698Y-120041500D01*
X146125292Y-120041500D01*
X146092734Y-120047976D01*
X146076454Y-120051215D01*
X145978753Y-120070649D01*
X145978748Y-120070650D01*
X145928414Y-120091499D01*
X145928415Y-120091500D01*
X145840714Y-120127827D01*
X145745295Y-120191584D01*
X145745294Y-120191585D01*
X145716483Y-120210835D01*
X145716479Y-120210838D01*
X142222724Y-123704595D01*
X142160412Y-123738621D01*
X142133629Y-123741500D01*
X141797912Y-123741500D01*
X141729791Y-123721498D01*
X141683298Y-123667842D01*
X141673194Y-123597568D01*
X141685645Y-123558297D01*
X141691251Y-123547295D01*
X141744264Y-123443252D01*
X141807910Y-123247370D01*
X141840130Y-123043943D01*
X141840130Y-122837981D01*
X141807910Y-122634554D01*
X141744264Y-122438672D01*
X141650759Y-122255159D01*
X141529698Y-122088532D01*
X141529695Y-122088529D01*
X141529693Y-122088526D01*
X141384065Y-121942898D01*
X141384062Y-121942896D01*
X141384060Y-121942894D01*
X141235556Y-121835000D01*
X141217436Y-121821835D01*
X141217435Y-121821834D01*
X141217433Y-121821833D01*
X141033920Y-121728328D01*
X141033917Y-121728327D01*
X141033915Y-121728326D01*
X140929796Y-121694496D01*
X140871190Y-121654422D01*
X140843553Y-121589026D01*
X140855660Y-121519069D01*
X140894670Y-121472728D01*
X140942994Y-121437619D01*
X141088632Y-121291981D01*
X141209693Y-121125354D01*
X141303198Y-120941841D01*
X141366844Y-120745959D01*
X141399064Y-120542532D01*
X141399064Y-120336570D01*
X141366844Y-120133143D01*
X141303198Y-119937261D01*
X141209693Y-119753748D01*
X141088632Y-119587121D01*
X141088629Y-119587118D01*
X141088627Y-119587115D01*
X140942999Y-119441487D01*
X140942996Y-119441485D01*
X140942994Y-119441483D01*
X140776367Y-119320422D01*
X140592854Y-119226917D01*
X140592851Y-119226916D01*
X140592849Y-119226915D01*
X140488730Y-119193085D01*
X140430124Y-119153011D01*
X140402487Y-119087615D01*
X140414594Y-119017658D01*
X140453604Y-118971317D01*
X140501928Y-118936208D01*
X140647566Y-118790570D01*
X140768627Y-118623943D01*
X140862132Y-118440430D01*
X140925778Y-118244548D01*
X140957998Y-118041121D01*
X140957998Y-117835159D01*
X140925778Y-117631732D01*
X140862132Y-117435850D01*
X140768627Y-117252337D01*
X140647566Y-117085710D01*
X140647563Y-117085707D01*
X140647561Y-117085704D01*
X140501933Y-116940076D01*
X140501930Y-116940074D01*
X140501928Y-116940072D01*
X140350611Y-116830134D01*
X140335304Y-116819013D01*
X140335303Y-116819012D01*
X140335301Y-116819011D01*
X140151788Y-116725506D01*
X140047661Y-116691673D01*
X139989056Y-116651599D01*
X139961419Y-116586202D01*
X139973526Y-116516245D01*
X140012535Y-116469906D01*
X140060862Y-116434795D01*
X140206500Y-116289157D01*
X140327561Y-116122530D01*
X140421066Y-115939017D01*
X140484712Y-115743135D01*
X140516932Y-115539708D01*
X140516932Y-115333746D01*
X140484712Y-115130319D01*
X140421066Y-114934437D01*
X140327561Y-114750924D01*
X140206500Y-114584297D01*
X140206497Y-114584294D01*
X140206495Y-114584291D01*
X140060867Y-114438663D01*
X140060864Y-114438661D01*
X140060862Y-114438659D01*
X139894235Y-114317598D01*
X139710722Y-114224093D01*
X139644317Y-114202516D01*
X139606596Y-114190260D01*
X139547990Y-114150186D01*
X139520354Y-114084789D01*
X139532461Y-114014832D01*
X139571470Y-113968492D01*
X139619794Y-113933384D01*
X139765432Y-113787746D01*
X139886493Y-113621119D01*
X139979998Y-113437606D01*
X140043644Y-113241724D01*
X140075864Y-113038297D01*
X140075864Y-112832335D01*
X140043644Y-112628908D01*
X140001250Y-112498435D01*
X139999223Y-112427469D01*
X140035886Y-112366671D01*
X140099598Y-112335345D01*
X140121084Y-112333500D01*
X145521304Y-112333500D01*
X145589425Y-112353502D01*
X145635918Y-112407158D01*
X145646022Y-112477432D01*
X145637713Y-112507718D01*
X145626414Y-112534994D01*
X145591500Y-112710518D01*
X145591500Y-112710521D01*
X145591500Y-112889479D01*
X145626413Y-113065000D01*
X145694898Y-113230336D01*
X145794322Y-113379135D01*
X145920865Y-113505678D01*
X146069664Y-113605102D01*
X146235000Y-113673587D01*
X146410521Y-113708500D01*
X146410522Y-113708500D01*
X146589478Y-113708500D01*
X146589479Y-113708500D01*
X146765000Y-113673587D01*
X146930336Y-113605102D01*
X147079135Y-113505678D01*
X147124079Y-113460734D01*
X147186391Y-113426708D01*
X147213174Y-113423829D01*
X152995570Y-113423829D01*
X153063691Y-113443831D01*
X153097506Y-113475768D01*
X153157774Y-113558719D01*
X153218832Y-113642759D01*
X153218834Y-113642761D01*
X153218836Y-113642764D01*
X153364464Y-113788392D01*
X153364467Y-113788394D01*
X153364470Y-113788397D01*
X153531097Y-113909458D01*
X153714610Y-114002963D01*
X153818735Y-114036795D01*
X153877341Y-114076868D01*
X153904978Y-114142265D01*
X153892871Y-114212222D01*
X153853861Y-114258563D01*
X153805535Y-114293673D01*
X153659902Y-114439306D01*
X153659900Y-114439309D01*
X153538839Y-114605935D01*
X153445333Y-114789450D01*
X153445330Y-114789456D01*
X153381687Y-114985329D01*
X153381686Y-114985332D01*
X153381686Y-114985334D01*
X153349466Y-115188761D01*
X153349466Y-115394723D01*
X153372429Y-115539704D01*
X153381687Y-115598154D01*
X153428795Y-115743139D01*
X153445332Y-115794032D01*
X153538837Y-115977545D01*
X153538839Y-115977548D01*
X153554074Y-115998517D01*
X153659898Y-116144172D01*
X153659900Y-116144174D01*
X153659902Y-116144177D01*
X153805530Y-116289805D01*
X153805533Y-116289807D01*
X153805536Y-116289810D01*
X153972163Y-116410871D01*
X154155676Y-116504376D01*
X154259801Y-116538208D01*
X154318407Y-116578281D01*
X154346044Y-116643678D01*
X154333937Y-116713635D01*
X154294927Y-116759976D01*
X154246604Y-116795085D01*
X154246598Y-116795090D01*
X154100970Y-116940718D01*
X154100968Y-116940721D01*
X153979641Y-117107714D01*
X153923419Y-117151068D01*
X153877705Y-117159653D01*
X147367989Y-117159653D01*
X147299868Y-117139651D01*
X147253375Y-117085995D01*
X147251580Y-117081871D01*
X147241687Y-117057988D01*
X147205102Y-116969664D01*
X147105678Y-116820865D01*
X146979135Y-116694322D01*
X146830336Y-116594898D01*
X146713429Y-116546473D01*
X146665003Y-116526414D01*
X146665001Y-116526413D01*
X146665000Y-116526413D01*
X146554202Y-116504374D01*
X146489481Y-116491500D01*
X146489479Y-116491500D01*
X146310521Y-116491500D01*
X146310518Y-116491500D01*
X146186118Y-116516245D01*
X146135000Y-116526413D01*
X146134999Y-116526413D01*
X146134996Y-116526414D01*
X145969662Y-116594899D01*
X145820869Y-116694319D01*
X145820862Y-116694324D01*
X145694324Y-116820862D01*
X145694319Y-116820869D01*
X145606618Y-116952124D01*
X145594898Y-116969664D01*
X145580716Y-117003902D01*
X145526414Y-117134996D01*
X145526413Y-117134999D01*
X145526413Y-117135000D01*
X145521509Y-117159653D01*
X145491500Y-117310518D01*
X145491500Y-117489481D01*
X145526414Y-117665003D01*
X145533411Y-117681894D01*
X145594898Y-117830336D01*
X145694322Y-117979135D01*
X145820865Y-118105678D01*
X145969664Y-118205102D01*
X146135000Y-118273587D01*
X146310521Y-118308500D01*
X146385933Y-118308500D01*
X146454054Y-118328502D01*
X146455934Y-118329735D01*
X146493073Y-118354550D01*
X146493074Y-118354551D01*
X146493076Y-118354552D01*
X146493078Y-118354553D01*
X146608368Y-118402308D01*
X146730759Y-118426653D01*
X146855546Y-118426653D01*
X153877704Y-118426653D01*
X153945825Y-118446655D01*
X153979640Y-118478592D01*
X153979904Y-118478956D01*
X153979905Y-118478957D01*
X154100966Y-118645584D01*
X154100968Y-118645586D01*
X154100970Y-118645589D01*
X154246598Y-118791217D01*
X154246601Y-118791219D01*
X154246604Y-118791222D01*
X154413231Y-118912283D01*
X154596744Y-119005788D01*
X154700868Y-119039620D01*
X154759473Y-119079692D01*
X154787110Y-119145089D01*
X154775003Y-119215046D01*
X154735994Y-119261387D01*
X154687663Y-119296502D01*
X154542035Y-119442130D01*
X154542033Y-119442133D01*
X154420972Y-119608759D01*
X154327466Y-119792274D01*
X154327463Y-119792280D01*
X154263820Y-119988153D01*
X154263819Y-119988156D01*
X154263819Y-119988158D01*
X154231599Y-120191585D01*
X154231599Y-120397547D01*
X154253369Y-120534996D01*
X154263820Y-120600978D01*
X154310928Y-120745963D01*
X154327465Y-120796856D01*
X154420970Y-120980369D01*
X154542031Y-121146996D01*
X154542033Y-121146998D01*
X154542035Y-121147001D01*
X154687663Y-121292629D01*
X154687666Y-121292631D01*
X154687669Y-121292634D01*
X154854296Y-121413695D01*
X155037809Y-121507200D01*
X155233691Y-121570846D01*
X155437118Y-121603066D01*
X155437121Y-121603066D01*
X155643077Y-121603066D01*
X155643080Y-121603066D01*
X155846507Y-121570846D01*
X156042389Y-121507200D01*
X156225902Y-121413695D01*
X156392529Y-121292634D01*
X156538167Y-121146996D01*
X156659228Y-120980369D01*
X156752733Y-120796856D01*
X156816379Y-120600974D01*
X156848599Y-120397547D01*
X156848599Y-120191585D01*
X156816379Y-119988158D01*
X156752733Y-119792276D01*
X156659228Y-119608763D01*
X156538167Y-119442136D01*
X156538164Y-119442133D01*
X156538162Y-119442130D01*
X156392534Y-119296502D01*
X156392531Y-119296500D01*
X156392529Y-119296498D01*
X156225902Y-119175437D01*
X156042389Y-119081932D01*
X156042386Y-119081931D01*
X156042384Y-119081930D01*
X155938265Y-119048100D01*
X155879659Y-119008026D01*
X155852022Y-118942630D01*
X155864129Y-118872673D01*
X155903140Y-118826331D01*
X155906006Y-118824249D01*
X155951464Y-118791222D01*
X156097102Y-118645584D01*
X156218163Y-118478957D01*
X156311668Y-118295444D01*
X156375314Y-118099562D01*
X156407534Y-117896135D01*
X156407534Y-117690173D01*
X156375314Y-117486746D01*
X156311668Y-117290864D01*
X156218163Y-117107351D01*
X156097102Y-116940724D01*
X156097099Y-116940721D01*
X156097097Y-116940718D01*
X155951469Y-116795090D01*
X155951466Y-116795088D01*
X155951464Y-116795086D01*
X155812774Y-116694322D01*
X155784840Y-116674027D01*
X155784839Y-116674026D01*
X155784837Y-116674025D01*
X155601324Y-116580520D01*
X155497197Y-116546687D01*
X155438592Y-116506613D01*
X155410955Y-116441216D01*
X155423062Y-116371259D01*
X155462072Y-116324919D01*
X155510396Y-116289810D01*
X155656034Y-116144172D01*
X155777095Y-115977545D01*
X155870600Y-115794032D01*
X155934246Y-115598150D01*
X155966466Y-115394723D01*
X155966466Y-115188761D01*
X155934246Y-114985334D01*
X155870600Y-114789452D01*
X155777095Y-114605939D01*
X155656034Y-114439312D01*
X155656031Y-114439309D01*
X155656029Y-114439306D01*
X155510401Y-114293678D01*
X155510398Y-114293676D01*
X155510396Y-114293674D01*
X155343769Y-114172613D01*
X155160256Y-114079108D01*
X155056129Y-114045275D01*
X154997524Y-114005201D01*
X154969887Y-113939804D01*
X154981994Y-113869847D01*
X155021003Y-113823508D01*
X155069330Y-113788397D01*
X155214968Y-113642759D01*
X155336029Y-113476132D01*
X155429534Y-113292619D01*
X155493180Y-113096737D01*
X155525400Y-112893310D01*
X155525400Y-112687348D01*
X155493180Y-112483921D01*
X155429534Y-112288039D01*
X155336029Y-112104526D01*
X155214968Y-111937899D01*
X155214965Y-111937896D01*
X155214963Y-111937893D01*
X155069335Y-111792265D01*
X155069332Y-111792263D01*
X155069330Y-111792261D01*
X154902703Y-111671200D01*
X154719190Y-111577695D01*
X154615063Y-111543862D01*
X154556458Y-111503788D01*
X154528821Y-111438391D01*
X154540928Y-111368434D01*
X154579937Y-111322095D01*
X154628264Y-111286984D01*
X154773902Y-111141346D01*
X154894963Y-110974719D01*
X154988468Y-110791206D01*
X155052114Y-110595324D01*
X155084334Y-110391897D01*
X155084334Y-110185935D01*
X155052114Y-109982508D01*
X154988468Y-109786626D01*
X154894963Y-109603113D01*
X154773902Y-109436486D01*
X154773899Y-109436483D01*
X154773897Y-109436480D01*
X154628269Y-109290852D01*
X154628266Y-109290850D01*
X154628264Y-109290848D01*
X154461637Y-109169787D01*
X154278124Y-109076282D01*
X154210034Y-109054158D01*
X154174001Y-109042450D01*
X154115396Y-109002376D01*
X154087759Y-108936979D01*
X154099866Y-108867022D01*
X154138875Y-108820683D01*
X154187198Y-108785575D01*
X154332836Y-108639937D01*
X154453897Y-108473310D01*
X154547402Y-108289797D01*
X154611048Y-108093915D01*
X154643268Y-107890488D01*
X154643268Y-107684526D01*
X154611048Y-107481099D01*
X154547402Y-107285217D01*
X154453897Y-107101704D01*
X154332836Y-106935077D01*
X154332833Y-106935074D01*
X154332831Y-106935071D01*
X154187203Y-106789443D01*
X154187200Y-106789441D01*
X154187198Y-106789439D01*
X154033194Y-106677549D01*
X154020574Y-106668380D01*
X154020573Y-106668379D01*
X154020571Y-106668378D01*
X153837058Y-106574873D01*
X153729777Y-106540015D01*
X153726696Y-106538832D01*
X153701006Y-106519210D01*
X153674326Y-106500966D01*
X153672993Y-106497813D01*
X153670275Y-106495737D01*
X153659272Y-106465345D01*
X153646689Y-106435569D01*
X153647272Y-106432197D01*
X153646108Y-106428981D01*
X153653283Y-106397466D01*
X153658796Y-106365612D01*
X153661180Y-106362779D01*
X153661869Y-106359756D01*
X153672524Y-106349304D01*
X153697807Y-106319272D01*
X153746131Y-106284163D01*
X153891769Y-106138525D01*
X154012830Y-105971898D01*
X154106335Y-105788385D01*
X154169981Y-105592503D01*
X154202201Y-105389076D01*
X154202201Y-105183114D01*
X154169981Y-104979687D01*
X154106335Y-104783805D01*
X154012830Y-104600292D01*
X153891769Y-104433665D01*
X153891766Y-104433662D01*
X153891764Y-104433659D01*
X153746136Y-104288031D01*
X153746133Y-104288029D01*
X153746131Y-104288027D01*
X153579504Y-104166966D01*
X153395991Y-104073461D01*
X153291867Y-104039629D01*
X153233262Y-103999555D01*
X153205625Y-103934158D01*
X153217732Y-103864201D01*
X153256742Y-103817861D01*
X153305066Y-103782752D01*
X153450704Y-103637114D01*
X153571765Y-103470487D01*
X153665270Y-103286974D01*
X153728916Y-103091092D01*
X153761136Y-102887665D01*
X153761136Y-102681703D01*
X153728916Y-102478276D01*
X153665270Y-102282394D01*
X153571765Y-102098881D01*
X153450704Y-101932254D01*
X153450701Y-101932251D01*
X153450699Y-101932248D01*
X153305071Y-101786620D01*
X153305068Y-101786618D01*
X153305066Y-101786616D01*
X153158938Y-101680448D01*
X153138442Y-101665557D01*
X153138441Y-101665556D01*
X153138439Y-101665555D01*
X152954926Y-101572050D01*
X152872315Y-101545208D01*
X152850800Y-101538217D01*
X152840238Y-101530994D01*
X152827777Y-101528097D01*
X152811489Y-101511336D01*
X152792194Y-101498143D01*
X152787213Y-101486356D01*
X152778298Y-101477183D01*
X152773656Y-101454277D01*
X152764558Y-101432746D01*
X152766739Y-101420139D01*
X152764199Y-101407600D01*
X152772679Y-101385819D01*
X152776665Y-101362789D01*
X152785932Y-101351780D01*
X152789958Y-101341441D01*
X152815672Y-101316451D01*
X152863998Y-101281341D01*
X153009636Y-101135703D01*
X153130697Y-100969076D01*
X153224202Y-100785563D01*
X153287848Y-100589681D01*
X153320068Y-100386254D01*
X153320068Y-100180292D01*
X153287848Y-99976865D01*
X153224202Y-99780983D01*
X153130697Y-99597470D01*
X153009636Y-99430843D01*
X153009633Y-99430840D01*
X153009631Y-99430837D01*
X152864003Y-99285209D01*
X152864000Y-99285207D01*
X152863998Y-99285205D01*
X152710253Y-99173503D01*
X152697374Y-99164146D01*
X152697373Y-99164145D01*
X152697371Y-99164144D01*
X152513858Y-99070639D01*
X152409731Y-99036806D01*
X152351126Y-98996732D01*
X152323489Y-98931335D01*
X152335596Y-98861378D01*
X152374605Y-98815039D01*
X152422932Y-98779928D01*
X152568570Y-98634290D01*
X152689631Y-98467663D01*
X152783136Y-98284150D01*
X152846782Y-98088268D01*
X152879002Y-97884841D01*
X152879002Y-97678879D01*
X152846782Y-97475452D01*
X152783136Y-97279570D01*
X152689631Y-97096057D01*
X152568570Y-96929430D01*
X152568567Y-96929427D01*
X152568565Y-96929424D01*
X152530543Y-96891402D01*
X154943000Y-96891402D01*
X154943000Y-97536000D01*
X155870297Y-97536000D01*
X155835075Y-97597007D01*
X155801000Y-97724174D01*
X155801000Y-97855826D01*
X155835075Y-97982993D01*
X155870297Y-98044000D01*
X154943000Y-98044000D01*
X154943000Y-98688597D01*
X154949505Y-98749093D01*
X155000555Y-98885964D01*
X155000555Y-98885965D01*
X155088095Y-99002904D01*
X155205034Y-99090444D01*
X155341909Y-99141495D01*
X155383980Y-99146018D01*
X155446286Y-99142674D01*
X155506413Y-99176204D01*
X156176051Y-99845842D01*
X156108007Y-99864075D01*
X155993993Y-99929901D01*
X155900901Y-100022993D01*
X155835075Y-100137007D01*
X155816842Y-100205051D01*
X155177622Y-99565831D01*
X155177621Y-99565831D01*
X155139534Y-99618253D01*
X155042493Y-99808707D01*
X155042490Y-99808713D01*
X154976440Y-100011996D01*
X154943000Y-100223126D01*
X154943000Y-100436873D01*
X154976440Y-100648003D01*
X155042490Y-100851286D01*
X155042493Y-100851292D01*
X155139535Y-101041748D01*
X155139536Y-101041750D01*
X155177620Y-101094167D01*
X155177621Y-101094168D01*
X155816841Y-100454947D01*
X155835075Y-100522993D01*
X155900901Y-100637007D01*
X155993993Y-100730099D01*
X156108007Y-100795925D01*
X156176051Y-100814157D01*
X155536831Y-101453378D01*
X155589248Y-101491462D01*
X155591044Y-101492563D01*
X155591583Y-101493159D01*
X155593258Y-101494376D01*
X155593002Y-101494727D01*
X155638678Y-101545208D01*
X155650289Y-101615249D01*
X155622189Y-101680448D01*
X155593212Y-101705560D01*
X155593259Y-101705624D01*
X155592520Y-101706160D01*
X155591065Y-101707422D01*
X155589269Y-101708522D01*
X155536831Y-101746621D01*
X155536831Y-101746622D01*
X156176051Y-102385842D01*
X156108007Y-102404075D01*
X155993993Y-102469901D01*
X155900901Y-102562993D01*
X155835075Y-102677007D01*
X155816842Y-102745051D01*
X155177622Y-102105831D01*
X155177621Y-102105831D01*
X155139534Y-102158253D01*
X155042493Y-102348707D01*
X155042490Y-102348713D01*
X154976440Y-102551996D01*
X154943000Y-102763126D01*
X154943000Y-102976873D01*
X154976440Y-103188003D01*
X155042490Y-103391286D01*
X155042493Y-103391292D01*
X155139535Y-103581748D01*
X155139536Y-103581750D01*
X155177620Y-103634167D01*
X155177621Y-103634168D01*
X155816841Y-102994947D01*
X155835075Y-103062993D01*
X155900901Y-103177007D01*
X155993993Y-103270099D01*
X156108007Y-103335925D01*
X156176051Y-103354157D01*
X155536831Y-103993378D01*
X155589248Y-104031462D01*
X155591044Y-104032563D01*
X155591583Y-104033159D01*
X155593258Y-104034376D01*
X155593002Y-104034727D01*
X155638678Y-104085208D01*
X155650289Y-104155249D01*
X155622189Y-104220448D01*
X155593212Y-104245560D01*
X155593259Y-104245624D01*
X155592520Y-104246160D01*
X155591065Y-104247422D01*
X155589269Y-104248522D01*
X155536831Y-104286621D01*
X155536831Y-104286622D01*
X156176051Y-104925842D01*
X156108007Y-104944075D01*
X155993993Y-105009901D01*
X155900901Y-105102993D01*
X155835075Y-105217007D01*
X155816842Y-105285051D01*
X155177622Y-104645831D01*
X155177621Y-104645831D01*
X155139534Y-104698253D01*
X155042493Y-104888707D01*
X155042490Y-104888713D01*
X154976440Y-105091996D01*
X154943000Y-105303126D01*
X154943000Y-105516873D01*
X154976440Y-105728003D01*
X155042490Y-105931286D01*
X155042493Y-105931292D01*
X155139535Y-106121748D01*
X155139536Y-106121750D01*
X155177620Y-106174167D01*
X155177621Y-106174168D01*
X155816841Y-105534947D01*
X155835075Y-105602993D01*
X155900901Y-105717007D01*
X155993993Y-105810099D01*
X156108007Y-105875925D01*
X156176051Y-105894157D01*
X155536831Y-106533378D01*
X155589249Y-106571463D01*
X155589251Y-106571464D01*
X155779707Y-106668506D01*
X155779713Y-106668509D01*
X155982996Y-106734559D01*
X156194126Y-106768000D01*
X156407874Y-106768000D01*
X156619003Y-106734559D01*
X156822286Y-106668509D01*
X156822292Y-106668506D01*
X157012750Y-106571463D01*
X157065167Y-106533378D01*
X157065167Y-106533376D01*
X156425948Y-105894157D01*
X156493993Y-105875925D01*
X156608007Y-105810099D01*
X156701099Y-105717007D01*
X156766925Y-105602993D01*
X156785157Y-105534948D01*
X157424376Y-106174167D01*
X157424378Y-106174167D01*
X157462463Y-106121750D01*
X157559506Y-105931292D01*
X157559509Y-105931286D01*
X157625559Y-105728003D01*
X157659000Y-105516873D01*
X157659000Y-105303126D01*
X157625559Y-105091996D01*
X157559509Y-104888713D01*
X157559506Y-104888707D01*
X157462464Y-104698251D01*
X157462463Y-104698249D01*
X157424378Y-104645831D01*
X156785157Y-105285051D01*
X156766925Y-105217007D01*
X156701099Y-105102993D01*
X156608007Y-105009901D01*
X156493993Y-104944075D01*
X156425947Y-104925841D01*
X157065168Y-104286621D01*
X157065167Y-104286620D01*
X157012749Y-104248535D01*
X157010950Y-104247433D01*
X157010409Y-104246835D01*
X157008742Y-104245624D01*
X157008996Y-104245273D01*
X156963318Y-104194786D01*
X156951711Y-104124745D01*
X156979814Y-104059547D01*
X157008788Y-104034442D01*
X157008741Y-104034377D01*
X157009498Y-104033826D01*
X157010958Y-104032562D01*
X157012750Y-104031463D01*
X157065167Y-103993378D01*
X157065167Y-103993376D01*
X156425948Y-103354157D01*
X156493993Y-103335925D01*
X156608007Y-103270099D01*
X156701099Y-103177007D01*
X156766925Y-103062993D01*
X156785157Y-102994948D01*
X157424376Y-103634167D01*
X157424378Y-103634167D01*
X157462463Y-103581750D01*
X157559506Y-103391292D01*
X157559509Y-103391286D01*
X157625559Y-103188003D01*
X157659000Y-102976873D01*
X157659000Y-102763126D01*
X157625559Y-102551996D01*
X157559509Y-102348713D01*
X157559506Y-102348707D01*
X157462464Y-102158251D01*
X157462463Y-102158249D01*
X157424378Y-102105831D01*
X156785157Y-102745051D01*
X156766925Y-102677007D01*
X156701099Y-102562993D01*
X156608007Y-102469901D01*
X156493993Y-102404075D01*
X156425947Y-102385841D01*
X157065168Y-101746621D01*
X157065167Y-101746620D01*
X157012749Y-101708535D01*
X157010950Y-101707433D01*
X157010409Y-101706835D01*
X157008742Y-101705624D01*
X157008996Y-101705273D01*
X156963318Y-101654786D01*
X156951711Y-101584745D01*
X156979814Y-101519547D01*
X157008788Y-101494442D01*
X157008741Y-101494377D01*
X157009498Y-101493826D01*
X157010958Y-101492562D01*
X157012750Y-101491463D01*
X157065167Y-101453378D01*
X157065167Y-101453376D01*
X156425948Y-100814157D01*
X156493993Y-100795925D01*
X156608007Y-100730099D01*
X156701099Y-100637007D01*
X156766925Y-100522993D01*
X156785157Y-100454948D01*
X157424376Y-101094167D01*
X157424378Y-101094167D01*
X157462463Y-101041750D01*
X157559506Y-100851292D01*
X157559509Y-100851286D01*
X157625559Y-100648003D01*
X157659000Y-100436873D01*
X157659000Y-100223126D01*
X157625559Y-100011996D01*
X157559509Y-99808713D01*
X157559506Y-99808707D01*
X157462464Y-99618251D01*
X157462463Y-99618249D01*
X157424378Y-99565831D01*
X156785157Y-100205051D01*
X156766925Y-100137007D01*
X156701099Y-100022993D01*
X156608007Y-99929901D01*
X156493993Y-99864075D01*
X156425947Y-99845841D01*
X157095583Y-99176205D01*
X157157896Y-99142180D01*
X157218470Y-99145969D01*
X157260087Y-99141496D01*
X157260094Y-99141494D01*
X157396964Y-99090444D01*
X157396965Y-99090444D01*
X157513904Y-99002904D01*
X157601444Y-98885965D01*
X157601444Y-98885964D01*
X157652494Y-98749093D01*
X157658999Y-98688597D01*
X157659000Y-98688585D01*
X157659000Y-98044000D01*
X156731703Y-98044000D01*
X156766925Y-97982993D01*
X156801000Y-97855826D01*
X156801000Y-97724174D01*
X156766925Y-97597007D01*
X156731703Y-97536000D01*
X157659000Y-97536000D01*
X157659000Y-96891414D01*
X157658999Y-96891402D01*
X157652494Y-96830906D01*
X157601444Y-96694035D01*
X157601444Y-96694034D01*
X157513904Y-96577095D01*
X157396965Y-96489555D01*
X157260093Y-96438505D01*
X157199597Y-96432000D01*
X156555000Y-96432000D01*
X156555000Y-97359297D01*
X156493993Y-97324075D01*
X156366826Y-97290000D01*
X156235174Y-97290000D01*
X156108007Y-97324075D01*
X156047000Y-97359297D01*
X156047000Y-96432000D01*
X155402402Y-96432000D01*
X155341906Y-96438505D01*
X155205035Y-96489555D01*
X155205034Y-96489555D01*
X155088095Y-96577095D01*
X155000555Y-96694034D01*
X155000555Y-96694035D01*
X154949505Y-96830906D01*
X154943000Y-96891402D01*
X152530543Y-96891402D01*
X152422937Y-96783796D01*
X152422934Y-96783794D01*
X152422932Y-96783792D01*
X152256305Y-96662731D01*
X152072792Y-96569226D01*
X151968079Y-96535202D01*
X151909475Y-96495129D01*
X151881838Y-96429732D01*
X151893945Y-96359776D01*
X151932957Y-96313433D01*
X151981539Y-96278136D01*
X151981546Y-96278130D01*
X152035040Y-96224636D01*
X151383834Y-95768657D01*
X151467144Y-95720559D01*
X151569546Y-95618157D01*
X151641954Y-95492741D01*
X151678843Y-95355070D01*
X152327864Y-95809519D01*
X152341607Y-95782548D01*
X152341609Y-95782543D01*
X152405227Y-95586745D01*
X152437436Y-95383387D01*
X152437436Y-95177510D01*
X152405227Y-94974152D01*
X152341609Y-94778355D01*
X152341606Y-94778349D01*
X152248135Y-94594903D01*
X152127120Y-94428341D01*
X152127118Y-94428338D01*
X152073624Y-94374844D01*
X152073622Y-94374844D01*
X151617642Y-95026048D01*
X151569546Y-94942741D01*
X151467144Y-94840339D01*
X151341728Y-94767931D01*
X151204056Y-94731041D01*
X151658506Y-94082019D01*
X151631534Y-94068276D01*
X151631531Y-94068275D01*
X151527103Y-94034345D01*
X151468497Y-93994272D01*
X151440860Y-93928875D01*
X151452967Y-93858919D01*
X151491976Y-93812578D01*
X151540800Y-93777106D01*
X151686438Y-93631468D01*
X151807499Y-93464841D01*
X151901004Y-93281328D01*
X151964650Y-93085446D01*
X151996870Y-92882019D01*
X151996870Y-92676057D01*
X151964650Y-92472630D01*
X151901004Y-92276748D01*
X151807499Y-92093235D01*
X151686438Y-91926608D01*
X151686435Y-91926605D01*
X151686433Y-91926602D01*
X151540805Y-91780974D01*
X151540802Y-91780972D01*
X151540800Y-91780970D01*
X151374173Y-91659909D01*
X151190660Y-91566404D01*
X151190657Y-91566403D01*
X151190655Y-91566402D01*
X150994782Y-91502759D01*
X150994780Y-91502758D01*
X150994778Y-91502758D01*
X150791351Y-91470538D01*
X150585389Y-91470538D01*
X150381962Y-91502758D01*
X150381960Y-91502758D01*
X150381957Y-91502759D01*
X150186084Y-91566402D01*
X150186078Y-91566405D01*
X150002563Y-91659911D01*
X149835937Y-91780972D01*
X149835934Y-91780974D01*
X149690306Y-91926602D01*
X149690304Y-91926605D01*
X149569243Y-92093231D01*
X149475737Y-92276746D01*
X149475734Y-92276752D01*
X149412091Y-92472625D01*
X149412090Y-92472628D01*
X149412090Y-92472630D01*
X149379870Y-92676057D01*
X149379870Y-92882019D01*
X149412090Y-93085446D01*
X149412091Y-93085450D01*
X149462393Y-93240265D01*
X149475736Y-93281328D01*
X149569241Y-93464841D01*
X149690302Y-93631468D01*
X149690304Y-93631470D01*
X149690306Y-93631473D01*
X149835934Y-93777101D01*
X149835937Y-93777103D01*
X149835940Y-93777106D01*
X150002567Y-93898167D01*
X150186080Y-93991672D01*
X150290791Y-94025694D01*
X150349396Y-94065767D01*
X150377033Y-94131164D01*
X150364926Y-94201121D01*
X150325916Y-94247462D01*
X150277331Y-94282761D01*
X150277330Y-94282761D01*
X150223831Y-94336260D01*
X150223831Y-94336261D01*
X150875036Y-94792241D01*
X150791728Y-94840339D01*
X150689326Y-94942741D01*
X150616918Y-95068157D01*
X150580029Y-95205826D01*
X149931007Y-94751377D01*
X149917261Y-94778357D01*
X149853644Y-94974152D01*
X149821436Y-95177510D01*
X149821436Y-95383387D01*
X149853644Y-95586745D01*
X149917262Y-95782542D01*
X149917265Y-95782548D01*
X150010736Y-95965994D01*
X150131751Y-96132556D01*
X150131753Y-96132559D01*
X150185246Y-96186052D01*
X150185248Y-96186052D01*
X150641227Y-95534846D01*
X150689326Y-95618157D01*
X150791728Y-95720559D01*
X150917144Y-95792967D01*
X151054812Y-95829855D01*
X150600363Y-96478876D01*
X150627330Y-96492617D01*
X150627342Y-96492622D01*
X150731768Y-96526552D01*
X150790374Y-96566625D01*
X150818011Y-96632022D01*
X150805904Y-96701979D01*
X150766894Y-96748321D01*
X150718065Y-96783797D01*
X150572438Y-96929424D01*
X150572436Y-96929427D01*
X150451108Y-97096421D01*
X150394886Y-97139775D01*
X150349172Y-97148360D01*
X138906454Y-97148360D01*
X138876538Y-97139576D01*
X138846069Y-97132948D01*
X138840973Y-97129133D01*
X138838333Y-97128358D01*
X138817359Y-97111455D01*
X138795405Y-97089501D01*
X138761379Y-97027189D01*
X138758500Y-97000406D01*
X138758500Y-96950522D01*
X138758499Y-96950518D01*
X138754544Y-96930633D01*
X138723587Y-96775000D01*
X138655102Y-96609664D01*
X138555678Y-96460865D01*
X138429135Y-96334322D01*
X138362352Y-96289699D01*
X138316824Y-96235222D01*
X138307976Y-96164779D01*
X138338617Y-96100735D01*
X138399019Y-96063424D01*
X138432354Y-96058934D01*
X140896497Y-96058934D01*
X140964618Y-96078936D01*
X140985592Y-96095839D01*
X141020865Y-96131112D01*
X141169664Y-96230536D01*
X141335000Y-96299021D01*
X141510521Y-96333934D01*
X141510522Y-96333934D01*
X141689478Y-96333934D01*
X141689479Y-96333934D01*
X141865000Y-96299021D01*
X142030336Y-96230536D01*
X142179135Y-96131112D01*
X142305678Y-96004569D01*
X142405102Y-95855770D01*
X142473587Y-95690434D01*
X142508500Y-95514913D01*
X142508500Y-95335955D01*
X142473587Y-95160434D01*
X142405102Y-94995098D01*
X142305678Y-94846299D01*
X142179135Y-94719756D01*
X142030336Y-94620332D01*
X141913429Y-94571907D01*
X141865003Y-94551848D01*
X141865001Y-94551847D01*
X141865000Y-94551847D01*
X141776645Y-94534272D01*
X141689481Y-94516934D01*
X141689479Y-94516934D01*
X141510521Y-94516934D01*
X141510518Y-94516934D01*
X141379771Y-94542941D01*
X141335000Y-94551847D01*
X141334999Y-94551847D01*
X141334996Y-94551848D01*
X141169662Y-94620333D01*
X141020869Y-94719753D01*
X141020862Y-94719758D01*
X140985592Y-94755029D01*
X140923280Y-94789055D01*
X140896497Y-94791934D01*
X137002611Y-94791934D01*
X136934490Y-94771932D01*
X136887997Y-94718276D01*
X136878525Y-94687814D01*
X136842207Y-94481844D01*
X136821158Y-94362470D01*
X136804229Y-94303958D01*
X136730115Y-94177910D01*
X136623491Y-94077847D01*
X136492996Y-94011877D01*
X136492994Y-94011876D01*
X136349204Y-93985344D01*
X136349196Y-93985343D01*
X136288434Y-93989448D01*
X136288427Y-93989449D01*
X134616939Y-94284176D01*
X134587681Y-94292641D01*
X134558425Y-94301106D01*
X134558423Y-94301106D01*
X134558423Y-94301107D01*
X134432376Y-94375220D01*
X134332313Y-94481845D01*
X134266343Y-94612341D01*
X134239811Y-94756130D01*
X134239810Y-94756138D01*
X134243915Y-94816900D01*
X134243916Y-94816907D01*
X134536395Y-96475648D01*
X134538644Y-96488398D01*
X134555573Y-96546910D01*
X134629687Y-96672958D01*
X134736311Y-96773021D01*
X134866806Y-96838991D01*
X135010601Y-96865524D01*
X135010603Y-96865523D01*
X135010604Y-96865524D01*
X135020304Y-96864869D01*
X135089618Y-96880233D01*
X135139622Y-96930633D01*
X135154440Y-97000066D01*
X135129367Y-97066488D01*
X135124619Y-97072400D01*
X135122901Y-97074411D01*
X135001839Y-97241039D01*
X134908333Y-97424554D01*
X134908330Y-97424560D01*
X134844687Y-97620433D01*
X134844686Y-97620436D01*
X134844686Y-97620438D01*
X134812466Y-97823865D01*
X134812466Y-98029827D01*
X134835459Y-98174995D01*
X134844687Y-98233258D01*
X134903855Y-98415359D01*
X134908332Y-98429136D01*
X135001837Y-98612649D01*
X135122898Y-98779276D01*
X135122900Y-98779278D01*
X135122902Y-98779281D01*
X135268530Y-98924909D01*
X135268533Y-98924911D01*
X135268536Y-98924914D01*
X135435163Y-99045975D01*
X135618676Y-99139480D01*
X135694584Y-99164144D01*
X135723388Y-99173503D01*
X135781994Y-99213577D01*
X135809631Y-99278973D01*
X135797524Y-99348930D01*
X135758514Y-99395271D01*
X135709929Y-99430570D01*
X135709928Y-99430570D01*
X135656429Y-99484069D01*
X135656429Y-99484070D01*
X136307634Y-99940050D01*
X136224326Y-99988148D01*
X136121924Y-100090550D01*
X136049516Y-100215966D01*
X136012627Y-100353635D01*
X135363605Y-99899186D01*
X135349859Y-99926166D01*
X135286242Y-100121961D01*
X135254034Y-100325319D01*
X135254034Y-100531196D01*
X135286242Y-100734554D01*
X135349860Y-100930351D01*
X135349863Y-100930357D01*
X135443334Y-101113803D01*
X135564349Y-101280365D01*
X135564351Y-101280368D01*
X135617844Y-101333861D01*
X135617846Y-101333861D01*
X136073825Y-100682655D01*
X136121924Y-100765966D01*
X136224326Y-100868368D01*
X136349742Y-100940776D01*
X136487410Y-100977664D01*
X136032961Y-101626685D01*
X136059928Y-101640426D01*
X136059940Y-101640431D01*
X136164955Y-101674552D01*
X136223561Y-101714625D01*
X136251198Y-101780022D01*
X136239091Y-101849978D01*
X136200081Y-101896320D01*
X136150995Y-101931983D01*
X136150994Y-101931983D01*
X136097495Y-101985482D01*
X136097495Y-101985483D01*
X136748700Y-102441463D01*
X136665392Y-102489561D01*
X136562990Y-102591963D01*
X136490582Y-102717379D01*
X136453693Y-102855048D01*
X135804671Y-102400599D01*
X135790925Y-102427579D01*
X135727308Y-102623374D01*
X135695100Y-102826732D01*
X135695100Y-103032609D01*
X135727308Y-103235967D01*
X135790926Y-103431764D01*
X135790929Y-103431770D01*
X135884400Y-103615216D01*
X136005415Y-103781778D01*
X136005417Y-103781781D01*
X136058910Y-103835274D01*
X136058912Y-103835274D01*
X136514891Y-103184068D01*
X136562990Y-103267379D01*
X136665392Y-103369781D01*
X136790808Y-103442189D01*
X136928476Y-103479077D01*
X136474027Y-104128098D01*
X136500994Y-104141839D01*
X136501009Y-104141845D01*
X136605433Y-104175774D01*
X136664039Y-104215847D01*
X136691677Y-104281243D01*
X136679571Y-104351200D01*
X136640560Y-104397542D01*
X136591736Y-104433015D01*
X136591730Y-104433020D01*
X136446102Y-104578648D01*
X136446100Y-104578651D01*
X136324773Y-104745644D01*
X136268551Y-104788998D01*
X136222837Y-104797583D01*
X134005677Y-104797583D01*
X133975761Y-104788799D01*
X133945292Y-104782171D01*
X133940196Y-104778356D01*
X133937556Y-104777581D01*
X133916582Y-104760678D01*
X133752418Y-104596514D01*
X133718392Y-104534202D01*
X133721683Y-104468475D01*
X133725047Y-104458122D01*
X133725047Y-104458121D01*
X133725049Y-104458116D01*
X133758500Y-104246916D01*
X133758500Y-104033084D01*
X133725049Y-103821884D01*
X133658972Y-103618517D01*
X133561894Y-103427991D01*
X133436206Y-103254996D01*
X133436203Y-103254993D01*
X133436201Y-103254990D01*
X133285009Y-103103798D01*
X133285006Y-103103796D01*
X133285004Y-103103794D01*
X133187026Y-103032609D01*
X133112006Y-102978103D01*
X133110427Y-102977136D01*
X133109952Y-102976611D01*
X133108004Y-102975196D01*
X133108301Y-102974786D01*
X133087804Y-102952129D01*
X133064464Y-102927814D01*
X133064092Y-102925919D01*
X133062797Y-102924488D01*
X133057286Y-102891229D01*
X133050795Y-102858146D01*
X133051506Y-102856351D01*
X133051191Y-102854446D01*
X133064539Y-102823480D01*
X133076963Y-102792147D01*
X133078724Y-102790574D01*
X133079296Y-102789249D01*
X133102836Y-102767312D01*
X133164140Y-102723349D01*
X132524948Y-102084157D01*
X132592993Y-102065925D01*
X132707007Y-102000099D01*
X132800099Y-101907007D01*
X132865925Y-101792993D01*
X132884157Y-101724948D01*
X133523376Y-102364167D01*
X133523378Y-102364167D01*
X133561463Y-102311750D01*
X133658506Y-102121292D01*
X133658509Y-102121286D01*
X133724559Y-101918003D01*
X133758000Y-101706873D01*
X133758000Y-101493126D01*
X133724559Y-101281996D01*
X133658509Y-101078713D01*
X133658506Y-101078707D01*
X133561464Y-100888251D01*
X133561463Y-100888249D01*
X133523378Y-100835831D01*
X132884157Y-101475051D01*
X132865925Y-101407007D01*
X132800099Y-101292993D01*
X132707007Y-101199901D01*
X132592993Y-101134075D01*
X132524947Y-101115841D01*
X133164168Y-100476621D01*
X133164167Y-100476620D01*
X133111750Y-100438536D01*
X133110428Y-100437726D01*
X133110030Y-100437286D01*
X133107742Y-100435624D01*
X133108091Y-100435143D01*
X133086855Y-100411671D01*
X133063095Y-100385691D01*
X133063035Y-100385341D01*
X133062797Y-100385078D01*
X133057055Y-100350425D01*
X133051110Y-100315714D01*
X133051249Y-100315386D01*
X133051191Y-100315036D01*
X133065118Y-100282727D01*
X133078861Y-100250365D01*
X133079192Y-100250075D01*
X133079295Y-100249839D01*
X133105325Y-100226161D01*
X133110339Y-100222744D01*
X133112009Y-100221894D01*
X133285004Y-100096206D01*
X133436206Y-99945004D01*
X133561894Y-99772009D01*
X133658972Y-99581483D01*
X133725049Y-99378116D01*
X133758500Y-99166916D01*
X133758500Y-98953084D01*
X133725049Y-98741884D01*
X133658972Y-98538517D01*
X133561894Y-98347991D01*
X133436206Y-98174996D01*
X133436203Y-98174993D01*
X133436201Y-98174990D01*
X133333229Y-98072018D01*
X133299203Y-98009706D01*
X133304268Y-97938891D01*
X133346815Y-97882055D01*
X133378284Y-97864871D01*
X133496204Y-97820889D01*
X133613261Y-97733261D01*
X133653971Y-97678879D01*
X133700887Y-97616207D01*
X133700887Y-97616206D01*
X133700889Y-97616204D01*
X133751989Y-97479201D01*
X133757864Y-97424560D01*
X133758499Y-97418649D01*
X133758500Y-97418632D01*
X133758500Y-95621367D01*
X133758499Y-95621350D01*
X133751990Y-95560803D01*
X133751988Y-95560795D01*
X133700889Y-95423797D01*
X133700887Y-95423792D01*
X133613261Y-95306738D01*
X133496207Y-95219112D01*
X133496202Y-95219110D01*
X133359204Y-95168011D01*
X133359196Y-95168009D01*
X133298649Y-95161500D01*
X133298638Y-95161500D01*
X131501362Y-95161500D01*
X131501350Y-95161500D01*
X131440803Y-95168009D01*
X131440795Y-95168011D01*
X131303797Y-95219110D01*
X131303792Y-95219112D01*
X131186738Y-95306738D01*
X131099112Y-95423792D01*
X131099110Y-95423797D01*
X131048011Y-95560795D01*
X131048009Y-95560803D01*
X131041500Y-95621350D01*
X131041500Y-97418649D01*
X131048009Y-97479196D01*
X131048011Y-97479204D01*
X131099110Y-97616202D01*
X131099112Y-97616207D01*
X131186738Y-97733261D01*
X131303791Y-97820886D01*
X131303792Y-97820886D01*
X131303796Y-97820889D01*
X131421711Y-97864869D01*
X131478543Y-97907414D01*
X131503354Y-97973934D01*
X131488263Y-98043308D01*
X131466771Y-98072018D01*
X131363794Y-98174995D01*
X131238108Y-98347987D01*
X131141029Y-98538515D01*
X131141026Y-98538521D01*
X131074952Y-98741878D01*
X131074951Y-98741883D01*
X131074951Y-98741884D01*
X131041500Y-98953084D01*
X131041500Y-99166916D01*
X131074951Y-99378116D01*
X131074952Y-99378121D01*
X131109377Y-99484070D01*
X131141028Y-99581483D01*
X131238106Y-99772009D01*
X131238108Y-99772012D01*
X131244626Y-99780983D01*
X131363794Y-99945004D01*
X131363796Y-99945006D01*
X131363798Y-99945009D01*
X131514990Y-100096201D01*
X131514993Y-100096203D01*
X131514996Y-100096206D01*
X131687991Y-100221894D01*
X131688001Y-100221899D01*
X131689567Y-100222859D01*
X131690042Y-100223384D01*
X131691996Y-100224804D01*
X131691697Y-100225214D01*
X131737200Y-100275505D01*
X131748808Y-100345546D01*
X131720707Y-100410745D01*
X131692157Y-100435484D01*
X131692259Y-100435624D01*
X131690639Y-100436800D01*
X131689574Y-100437724D01*
X131688261Y-100438528D01*
X131635831Y-100476621D01*
X131635831Y-100476622D01*
X132275051Y-101115842D01*
X132207007Y-101134075D01*
X132092993Y-101199901D01*
X131999901Y-101292993D01*
X131934075Y-101407007D01*
X131915842Y-101475051D01*
X131276622Y-100835831D01*
X131276621Y-100835831D01*
X131238534Y-100888253D01*
X131141493Y-101078707D01*
X131141490Y-101078713D01*
X131075440Y-101281996D01*
X131042000Y-101493126D01*
X131042000Y-101706873D01*
X131075440Y-101918003D01*
X131141490Y-102121286D01*
X131141493Y-102121292D01*
X131238535Y-102311748D01*
X131238536Y-102311750D01*
X131276620Y-102364167D01*
X131276621Y-102364168D01*
X131915841Y-101724947D01*
X131934075Y-101792993D01*
X131999901Y-101907007D01*
X132092993Y-102000099D01*
X132207007Y-102065925D01*
X132275051Y-102084157D01*
X131635831Y-102723378D01*
X131688247Y-102761461D01*
X131689566Y-102762270D01*
X131689962Y-102762708D01*
X131692258Y-102764376D01*
X131691907Y-102764858D01*
X131737199Y-102814915D01*
X131748809Y-102884956D01*
X131720708Y-102950155D01*
X131691925Y-102975098D01*
X131691996Y-102975196D01*
X131690862Y-102976019D01*
X131689580Y-102977131D01*
X131687998Y-102978100D01*
X131514993Y-103103796D01*
X131514990Y-103103798D01*
X131363798Y-103254990D01*
X131363796Y-103254993D01*
X131238108Y-103427987D01*
X131141029Y-103618515D01*
X131141026Y-103618521D01*
X131074952Y-103821878D01*
X131074951Y-103821883D01*
X131074951Y-103821884D01*
X131041500Y-104033084D01*
X131041500Y-104246916D01*
X131074951Y-104458116D01*
X131074952Y-104458121D01*
X131121146Y-104600292D01*
X131141028Y-104661483D01*
X131238106Y-104852009D01*
X131363794Y-105025004D01*
X131363796Y-105025006D01*
X131363798Y-105025009D01*
X131514990Y-105176201D01*
X131514993Y-105176203D01*
X131514996Y-105176206D01*
X131687991Y-105301894D01*
X131687996Y-105301896D01*
X131689088Y-105302566D01*
X131689418Y-105302931D01*
X131691996Y-105304804D01*
X131691602Y-105305345D01*
X131736721Y-105355213D01*
X131748328Y-105425255D01*
X131720226Y-105490453D01*
X131691870Y-105515023D01*
X131691996Y-105515196D01*
X131689982Y-105516658D01*
X131689088Y-105517434D01*
X131687987Y-105518108D01*
X131514993Y-105643796D01*
X131514990Y-105643798D01*
X131363798Y-105794990D01*
X131363796Y-105794993D01*
X131238108Y-105967987D01*
X131141029Y-106158515D01*
X131141026Y-106158521D01*
X131074952Y-106361878D01*
X131074951Y-106361883D01*
X131074951Y-106361884D01*
X131041500Y-106573084D01*
X131041500Y-106786916D01*
X131074951Y-106998116D01*
X131074952Y-106998121D01*
X131141026Y-107201478D01*
X131141028Y-107201483D01*
X131183692Y-107285215D01*
X131238108Y-107392012D01*
X131265858Y-107430207D01*
X131363794Y-107565004D01*
X131363796Y-107565006D01*
X131363798Y-107565009D01*
X131514990Y-107716201D01*
X131514993Y-107716203D01*
X131514996Y-107716206D01*
X131687991Y-107841894D01*
X131878517Y-107938972D01*
X132081878Y-108005047D01*
X132081879Y-108005047D01*
X132081884Y-108005049D01*
X132293084Y-108038500D01*
X132293087Y-108038500D01*
X132506913Y-108038500D01*
X132506916Y-108038500D01*
X132718116Y-108005049D01*
X132728475Y-108001682D01*
X132799442Y-107999650D01*
X132856514Y-108032418D01*
X135750072Y-110925976D01*
X135853830Y-110995305D01*
X135969120Y-111043060D01*
X136091511Y-111067405D01*
X136216298Y-111067405D01*
X137104970Y-111067405D01*
X137110304Y-111068971D01*
X137115755Y-111067867D01*
X137144005Y-111078866D01*
X137173091Y-111087407D01*
X137178107Y-111092144D01*
X137181914Y-111093627D01*
X137206908Y-111119346D01*
X137207167Y-111119703D01*
X137207170Y-111119708D01*
X137242398Y-111168196D01*
X137243740Y-111170043D01*
X137267597Y-111236911D01*
X137251515Y-111306063D01*
X137230897Y-111333197D01*
X134065936Y-114498159D01*
X134003624Y-114532185D01*
X133932809Y-114527120D01*
X133875973Y-114484573D01*
X133853263Y-114433647D01*
X133843587Y-114385000D01*
X133775102Y-114219664D01*
X133675678Y-114070865D01*
X133549135Y-113944322D01*
X133400336Y-113844898D01*
X133263932Y-113788397D01*
X133235003Y-113776414D01*
X133235001Y-113776413D01*
X133235000Y-113776413D01*
X133146645Y-113758838D01*
X133059481Y-113741500D01*
X133059479Y-113741500D01*
X132880521Y-113741500D01*
X132880518Y-113741500D01*
X132749771Y-113767507D01*
X132705000Y-113776413D01*
X132704999Y-113776413D01*
X132704996Y-113776414D01*
X132591311Y-113823505D01*
X132547349Y-113841715D01*
X132539662Y-113844899D01*
X132390869Y-113944319D01*
X132390862Y-113944324D01*
X132264324Y-114070862D01*
X132264319Y-114070869D01*
X132169871Y-114212222D01*
X132164898Y-114219664D01*
X132163063Y-114224094D01*
X132096414Y-114384996D01*
X132061500Y-114560518D01*
X132061500Y-114610404D01*
X132041498Y-114678525D01*
X132024595Y-114699500D01*
X131335206Y-115388888D01*
X131272894Y-115422913D01*
X131202078Y-115417848D01*
X131172050Y-115401728D01*
X131112012Y-115358108D01*
X131112011Y-115358107D01*
X131112009Y-115358106D01*
X130921483Y-115261028D01*
X130921480Y-115261027D01*
X130921478Y-115261026D01*
X130718120Y-115194952D01*
X130718123Y-115194952D01*
X130678801Y-115188724D01*
X130506916Y-115161500D01*
X130293084Y-115161500D01*
X130081884Y-115194951D01*
X130081878Y-115194952D01*
X129878521Y-115261026D01*
X129878515Y-115261029D01*
X129687987Y-115358108D01*
X129514993Y-115483796D01*
X129514990Y-115483798D01*
X129363798Y-115634990D01*
X129363796Y-115634993D01*
X129238108Y-115807987D01*
X129141029Y-115998515D01*
X129141026Y-115998521D01*
X129074952Y-116201878D01*
X129074951Y-116201883D01*
X129074951Y-116201884D01*
X129041500Y-116413084D01*
X129041500Y-116626916D01*
X129073687Y-116830134D01*
X129074952Y-116838121D01*
X129129157Y-117004948D01*
X129141028Y-117041483D01*
X129238106Y-117232009D01*
X129363794Y-117405004D01*
X129363796Y-117405006D01*
X129363798Y-117405009D01*
X129514990Y-117556201D01*
X129514993Y-117556203D01*
X129514996Y-117556206D01*
X129687991Y-117681894D01*
X129687996Y-117681896D01*
X129689088Y-117682566D01*
X129689418Y-117682931D01*
X129691996Y-117684804D01*
X129691602Y-117685345D01*
X129736721Y-117735213D01*
X129748328Y-117805255D01*
X129720226Y-117870453D01*
X129691870Y-117895023D01*
X129691996Y-117895196D01*
X129689982Y-117896658D01*
X129689088Y-117897434D01*
X129687987Y-117898108D01*
X129514993Y-118023796D01*
X129514990Y-118023798D01*
X129363798Y-118174990D01*
X129363796Y-118174993D01*
X129238108Y-118347987D01*
X129141029Y-118538515D01*
X129141026Y-118538521D01*
X129074952Y-118741878D01*
X129074951Y-118741883D01*
X129074951Y-118741884D01*
X129041500Y-118953084D01*
X129041500Y-119166916D01*
X129066617Y-119325499D01*
X129074952Y-119378123D01*
X129074953Y-119378124D01*
X129094266Y-119437565D01*
X129096293Y-119508532D01*
X129059630Y-119569330D01*
X128995918Y-119600655D01*
X128974433Y-119602500D01*
X120601603Y-119602500D01*
X120528568Y-119617028D01*
X120479215Y-119626845D01*
X120479213Y-119626845D01*
X120479212Y-119626846D01*
X120430125Y-119647179D01*
X120381979Y-119667122D01*
X120363923Y-119674601D01*
X120260171Y-119743926D01*
X120260164Y-119743931D01*
X118849501Y-121154595D01*
X118787189Y-121188621D01*
X118760406Y-121191500D01*
X118710518Y-121191500D01*
X118579771Y-121217507D01*
X118535000Y-121226413D01*
X118534999Y-121226413D01*
X118534996Y-121226414D01*
X118448130Y-121262396D01*
X118376702Y-121291983D01*
X118369662Y-121294899D01*
X118220869Y-121394319D01*
X118220862Y-121394324D01*
X118094324Y-121520862D01*
X118094319Y-121520869D01*
X117994899Y-121669662D01*
X117926414Y-121834996D01*
X117891500Y-122010518D01*
X117891500Y-122010521D01*
X117891500Y-122189479D01*
X117926413Y-122365000D01*
X117994898Y-122530336D01*
X118094322Y-122679135D01*
X118220865Y-122805678D01*
X118265849Y-122835735D01*
X118311376Y-122890211D01*
X118320225Y-122960654D01*
X118289584Y-123024698D01*
X118229183Y-123062010D01*
X118195847Y-123066500D01*
X113793603Y-123066500D01*
X113671214Y-123090845D01*
X113671209Y-123090847D01*
X113555924Y-123138599D01*
X113452171Y-123207925D01*
X113452164Y-123207930D01*
X112028513Y-124631581D01*
X111966201Y-124665607D01*
X111900481Y-124662319D01*
X111890116Y-124658951D01*
X111678916Y-124625500D01*
X111465084Y-124625500D01*
X111253884Y-124658951D01*
X111253878Y-124658952D01*
X111050521Y-124725026D01*
X111050515Y-124725029D01*
X110859987Y-124822108D01*
X110686995Y-124947794D01*
X110584018Y-125050771D01*
X110521706Y-125084796D01*
X110450890Y-125079730D01*
X110394054Y-125037184D01*
X110376871Y-125005715D01*
X110332889Y-124887796D01*
X110332886Y-124887792D01*
X110332886Y-124887791D01*
X110245261Y-124770738D01*
X110128207Y-124683112D01*
X110128202Y-124683110D01*
X109991204Y-124632011D01*
X109991196Y-124632009D01*
X109930649Y-124625500D01*
X109930638Y-124625500D01*
X108133362Y-124625500D01*
X108133350Y-124625500D01*
X108072803Y-124632009D01*
X108072795Y-124632011D01*
X107935797Y-124683110D01*
X107935792Y-124683112D01*
X107818738Y-124770738D01*
X107731112Y-124887792D01*
X107731110Y-124887797D01*
X107680011Y-125024795D01*
X107680009Y-125024803D01*
X107673500Y-125085350D01*
X107164978Y-125085350D01*
X107197008Y-124978496D01*
X107200419Y-124968626D01*
X107347961Y-124593189D01*
X107352174Y-124583657D01*
X107530396Y-124221809D01*
X107535400Y-124212633D01*
X107744402Y-123864649D01*
X107747181Y-123860234D01*
X107750332Y-123855452D01*
X107754155Y-123849649D01*
X108910405Y-122094324D01*
X110648454Y-119455760D01*
X110651052Y-119451971D01*
X110861544Y-119156877D01*
X110867234Y-119149496D01*
X110973735Y-119021470D01*
X112859092Y-119021470D01*
X113082350Y-119408162D01*
X113143439Y-119492760D01*
X113275808Y-119610558D01*
X113275812Y-119610561D01*
X113431774Y-119694656D01*
X113602936Y-119740518D01*
X113602934Y-119740518D01*
X113780056Y-119745671D01*
X113780059Y-119745671D01*
X113953589Y-119709841D01*
X114048792Y-119667122D01*
X114048804Y-119667115D01*
X114154029Y-119606362D01*
X114154030Y-119606361D01*
X113577029Y-118606969D01*
X113577028Y-118606968D01*
X112859093Y-119021469D01*
X112859092Y-119021470D01*
X110973735Y-119021470D01*
X111097509Y-118872681D01*
X111103730Y-118865744D01*
X111353927Y-118606764D01*
X111360646Y-118600308D01*
X111629345Y-118360635D01*
X111636549Y-118354675D01*
X111922301Y-118135595D01*
X111929903Y-118130204D01*
X112140967Y-117991978D01*
X112208911Y-117971391D01*
X112277201Y-117990805D01*
X112324154Y-118044058D01*
X112333393Y-118071906D01*
X112339118Y-118099633D01*
X112339119Y-118099637D01*
X112381833Y-118194827D01*
X112381845Y-118194851D01*
X112605093Y-118581529D01*
X112605094Y-118581530D01*
X113433880Y-118103030D01*
X113502875Y-118086292D01*
X113569967Y-118109512D01*
X113605999Y-118149149D01*
X113669999Y-118259999D01*
X113780849Y-118196000D01*
X113849845Y-118179262D01*
X113916937Y-118202482D01*
X113952969Y-118242119D01*
X114593970Y-119352363D01*
X114699194Y-119291613D01*
X114699202Y-119291608D01*
X114783801Y-119230518D01*
X114901601Y-119098147D01*
X114901602Y-119098145D01*
X114985697Y-118942181D01*
X115031560Y-118771023D01*
X115032384Y-118742703D01*
X115054358Y-118675193D01*
X115109343Y-118630279D01*
X115179881Y-118622222D01*
X115243577Y-118653580D01*
X115266334Y-118681471D01*
X115587049Y-119215230D01*
X115587088Y-119215383D01*
X115632598Y-119291097D01*
X115632599Y-119291098D01*
X115632601Y-119291101D01*
X115686520Y-119337959D01*
X115686521Y-119337959D01*
X115686522Y-119337960D01*
X115716519Y-119350689D01*
X115752279Y-119365864D01*
X115823443Y-119372085D01*
X115893046Y-119356012D01*
X115901904Y-119350689D01*
X115914608Y-119343056D01*
X116104149Y-119229169D01*
X116104149Y-119229168D01*
X116125521Y-119216327D01*
X116125682Y-119216191D01*
X116125686Y-119216189D01*
X116172557Y-119162290D01*
X116200475Y-119096543D01*
X116206706Y-119025387D01*
X116194371Y-118971956D01*
X116194904Y-118962887D01*
X115863233Y-118410893D01*
X115845293Y-118342200D01*
X115867340Y-118274713D01*
X115922372Y-118229859D01*
X115992919Y-118221878D01*
X116003847Y-118224291D01*
X116157711Y-118265518D01*
X116157708Y-118265518D01*
X116334830Y-118270671D01*
X116334833Y-118270671D01*
X116508363Y-118234841D01*
X116603566Y-118192122D01*
X116603578Y-118192115D01*
X116708803Y-118131362D01*
X116708804Y-118131361D01*
X116067804Y-117021119D01*
X116065635Y-117012180D01*
X116059948Y-117004948D01*
X116057395Y-116978214D01*
X116051066Y-116952124D01*
X116054074Y-116943431D01*
X116053200Y-116934273D01*
X116065503Y-116910407D01*
X116074286Y-116885032D01*
X116082054Y-116877970D01*
X116571742Y-116877970D01*
X117148744Y-117877363D01*
X117253968Y-117816613D01*
X117253976Y-117816608D01*
X117338575Y-117755518D01*
X117456375Y-117623147D01*
X117456376Y-117623145D01*
X117540471Y-117467181D01*
X117586334Y-117296023D01*
X117591487Y-117118900D01*
X117555655Y-116945365D01*
X117555654Y-116945362D01*
X117512940Y-116850172D01*
X117512928Y-116850148D01*
X117289679Y-116463469D01*
X117289678Y-116463468D01*
X116571743Y-116877969D01*
X116571742Y-116877970D01*
X116082054Y-116877970D01*
X116082378Y-116877675D01*
X116085733Y-116871169D01*
X116113923Y-116849000D01*
X116221914Y-116786652D01*
X116224773Y-116785000D01*
X116224774Y-116784999D01*
X116160774Y-116674149D01*
X116144036Y-116605154D01*
X116167256Y-116538062D01*
X116206893Y-116502030D01*
X117035679Y-116023529D01*
X117035680Y-116023528D01*
X116812423Y-115636837D01*
X116751336Y-115552242D01*
X116685017Y-115493224D01*
X116666564Y-115463659D01*
X116647813Y-115434351D01*
X116647814Y-115433617D01*
X116647426Y-115432995D01*
X116647886Y-115398192D01*
X116647957Y-115363355D01*
X116648355Y-115362737D01*
X116648365Y-115362005D01*
X116667578Y-115332958D01*
X116686462Y-115303706D01*
X116687271Y-115303188D01*
X116687534Y-115302791D01*
X116716667Y-115284380D01*
X116799932Y-115246558D01*
X116808955Y-115242875D01*
X117162099Y-115114426D01*
X117171366Y-115111456D01*
X117533423Y-115010734D01*
X117542884Y-115008492D01*
X117911668Y-114936109D01*
X117921269Y-114934608D01*
X118294540Y-114891002D01*
X118304253Y-114890247D01*
X118681999Y-114875593D01*
X118686883Y-114875499D01*
X129366650Y-114875499D01*
X129366654Y-114875500D01*
X129391715Y-114875500D01*
X129489718Y-114875500D01*
X129489720Y-114875500D01*
X129666433Y-114844340D01*
X129666438Y-114844338D01*
X129666439Y-114844338D01*
X129666440Y-114844338D01*
X129835043Y-114782972D01*
X129835045Y-114782970D01*
X129835050Y-114782969D01*
X129990449Y-114693249D01*
X130127908Y-114577908D01*
X130243249Y-114440449D01*
X130243906Y-114439312D01*
X130314177Y-114317598D01*
X130332969Y-114285050D01*
X130332972Y-114285043D01*
X130394338Y-114116440D01*
X130394338Y-114116439D01*
X130394338Y-114116438D01*
X130394340Y-114116433D01*
X130425500Y-113939720D01*
X130425500Y-113850000D01*
X130425500Y-113841715D01*
X130425500Y-111479679D01*
X130871170Y-111479679D01*
X130871170Y-111484051D01*
X130871170Y-111720321D01*
X130882565Y-111792263D01*
X130908816Y-111958007D01*
X130983176Y-112186863D01*
X130983177Y-112186866D01*
X130983178Y-112186867D01*
X131076318Y-112369664D01*
X131092430Y-112401284D01*
X131115492Y-112433026D01*
X131233874Y-112595966D01*
X131233876Y-112595968D01*
X131233878Y-112595971D01*
X131404028Y-112766121D01*
X131404031Y-112766123D01*
X131404034Y-112766126D01*
X131598719Y-112907572D01*
X131813133Y-113016822D01*
X132041998Y-113091185D01*
X132279679Y-113128830D01*
X132279682Y-113128830D01*
X132520318Y-113128830D01*
X132520321Y-113128830D01*
X132758002Y-113091185D01*
X132986867Y-113016822D01*
X133201281Y-112907572D01*
X133395966Y-112766126D01*
X133566126Y-112595966D01*
X133707572Y-112401281D01*
X133816822Y-112186867D01*
X133891185Y-111958002D01*
X133928830Y-111720321D01*
X133928830Y-111479679D01*
X133891185Y-111241998D01*
X133816822Y-111013133D01*
X133707572Y-110798719D01*
X133566126Y-110604034D01*
X133566123Y-110604031D01*
X133566121Y-110604028D01*
X133395971Y-110433878D01*
X133395968Y-110433876D01*
X133395966Y-110433874D01*
X133201281Y-110292428D01*
X132986867Y-110183178D01*
X132986866Y-110183177D01*
X132986863Y-110183176D01*
X132758007Y-110108816D01*
X132758003Y-110108815D01*
X132758002Y-110108815D01*
X132520321Y-110071170D01*
X132279679Y-110071170D01*
X132041998Y-110108815D01*
X132041992Y-110108816D01*
X131813136Y-110183176D01*
X131598715Y-110292430D01*
X131404031Y-110433876D01*
X131404028Y-110433878D01*
X131233878Y-110604028D01*
X131233876Y-110604031D01*
X131092430Y-110798715D01*
X130983176Y-111013136D01*
X130908816Y-111241992D01*
X130908815Y-111241997D01*
X130908815Y-111241998D01*
X130871170Y-111479679D01*
X130425500Y-111479679D01*
X130425500Y-91479679D01*
X130871170Y-91479679D01*
X130871170Y-91484051D01*
X130871170Y-91720321D01*
X130901514Y-91911903D01*
X130908816Y-91958007D01*
X130983176Y-92186863D01*
X130983177Y-92186866D01*
X130983178Y-92186867D01*
X131092428Y-92401281D01*
X131233874Y-92595966D01*
X131233875Y-92595967D01*
X131233876Y-92595968D01*
X131233878Y-92595971D01*
X131404028Y-92766121D01*
X131404031Y-92766123D01*
X131404034Y-92766126D01*
X131598719Y-92907572D01*
X131813133Y-93016822D01*
X132041998Y-93091185D01*
X132279679Y-93128830D01*
X132279682Y-93128830D01*
X132520318Y-93128830D01*
X132520321Y-93128830D01*
X132758002Y-93091185D01*
X132986867Y-93016822D01*
X133201281Y-92907572D01*
X133395966Y-92766126D01*
X133566126Y-92595966D01*
X133707572Y-92401281D01*
X133816822Y-92186867D01*
X133891185Y-91958002D01*
X133928830Y-91720321D01*
X133928830Y-91479679D01*
X133891185Y-91241998D01*
X133816822Y-91013133D01*
X133707572Y-90798719D01*
X133566126Y-90604034D01*
X133566123Y-90604031D01*
X133566121Y-90604028D01*
X133395971Y-90433878D01*
X133395968Y-90433876D01*
X133395966Y-90433874D01*
X133201281Y-90292428D01*
X132986867Y-90183178D01*
X132986866Y-90183177D01*
X132986863Y-90183176D01*
X132758007Y-90108816D01*
X132758003Y-90108815D01*
X132758002Y-90108815D01*
X132520321Y-90071170D01*
X132279679Y-90071170D01*
X132041998Y-90108815D01*
X132041992Y-90108816D01*
X131813136Y-90183176D01*
X131598715Y-90292430D01*
X131404031Y-90433876D01*
X131404028Y-90433878D01*
X131233878Y-90604028D01*
X131233876Y-90604031D01*
X131092430Y-90798715D01*
X130983176Y-91013136D01*
X130908816Y-91241992D01*
X130908815Y-91241997D01*
X130908815Y-91241998D01*
X130871170Y-91479679D01*
X130425500Y-91479679D01*
X130425500Y-89339438D01*
X130425500Y-89260280D01*
X130394340Y-89083567D01*
X130394338Y-89083562D01*
X130394338Y-89083560D01*
X130394338Y-89083559D01*
X130332972Y-88914956D01*
X130332966Y-88914945D01*
X130243251Y-88759553D01*
X130243249Y-88759551D01*
X130213085Y-88723603D01*
X130127908Y-88622092D01*
X129990449Y-88506751D01*
X129990448Y-88506750D01*
X129990446Y-88506748D01*
X129835054Y-88417033D01*
X129835043Y-88417027D01*
X129666439Y-88355661D01*
X129639223Y-88350862D01*
X129489720Y-88324500D01*
X129489718Y-88324500D01*
X118693294Y-88324500D01*
X118688410Y-88324405D01*
X118310518Y-88309747D01*
X118300783Y-88308991D01*
X117927572Y-88265396D01*
X117917924Y-88263888D01*
X117549226Y-88191525D01*
X117539724Y-88189275D01*
X117177708Y-88088569D01*
X117168410Y-88085589D01*
X116908598Y-87991093D01*
X116815301Y-87957160D01*
X116806270Y-87953473D01*
X116758217Y-87931646D01*
X116704467Y-87885264D01*
X116684326Y-87817184D01*
X116704189Y-87749023D01*
X116715851Y-87733742D01*
X116777649Y-87648162D01*
X117000906Y-87261470D01*
X117000905Y-87261469D01*
X116172119Y-86782969D01*
X116123126Y-86731587D01*
X116109690Y-86661873D01*
X116126000Y-86610849D01*
X116189999Y-86499999D01*
X116187138Y-86498347D01*
X116079149Y-86435999D01*
X116051526Y-86407028D01*
X116536968Y-86407028D01*
X116536969Y-86407029D01*
X117254904Y-86821530D01*
X117254905Y-86821529D01*
X117478154Y-86434851D01*
X117478166Y-86434827D01*
X117520880Y-86339637D01*
X117520881Y-86339634D01*
X117556713Y-86166099D01*
X117551560Y-85988976D01*
X117505697Y-85817818D01*
X117421602Y-85661854D01*
X117421601Y-85661852D01*
X117303802Y-85529481D01*
X117219206Y-85468395D01*
X117219186Y-85468383D01*
X117113970Y-85407635D01*
X117113969Y-85407636D01*
X116536968Y-86407028D01*
X116051526Y-86407028D01*
X116030156Y-86384616D01*
X116016720Y-86314902D01*
X116033030Y-86263880D01*
X116674030Y-85153636D01*
X116674030Y-85153635D01*
X116568810Y-85092887D01*
X116568786Y-85092875D01*
X116473588Y-85050158D01*
X116473590Y-85050158D01*
X116300057Y-85014328D01*
X116122935Y-85019481D01*
X115949909Y-85065843D01*
X115878932Y-85064153D01*
X115820137Y-85024358D01*
X115792189Y-84959094D01*
X115803963Y-84889080D01*
X115809286Y-84879256D01*
X116180539Y-84261389D01*
X116180538Y-84261387D01*
X116193475Y-84239858D01*
X116193485Y-84239831D01*
X116193489Y-84239826D01*
X116209557Y-84170227D01*
X116203332Y-84099069D01*
X116175423Y-84033317D01*
X116175223Y-84033087D01*
X116128564Y-83979409D01*
X116128558Y-83979404D01*
X116117122Y-83972532D01*
X116107002Y-83966451D01*
X116107002Y-83966450D01*
X115971078Y-83884778D01*
X115970989Y-83884681D01*
X115895911Y-83839580D01*
X115895908Y-83839579D01*
X115855849Y-83830336D01*
X115826305Y-83823519D01*
X115826304Y-83823519D01*
X115755142Y-83829750D01*
X115689391Y-83857666D01*
X115689389Y-83857667D01*
X115635478Y-83904537D01*
X115635477Y-83904538D01*
X115622524Y-83926097D01*
X115622523Y-83926099D01*
X115230817Y-84578005D01*
X115178587Y-84626094D01*
X115108650Y-84638311D01*
X115043209Y-84610778D01*
X115003043Y-84552236D01*
X114996867Y-84516764D01*
X114996786Y-84513975D01*
X114950923Y-84342818D01*
X114866828Y-84186854D01*
X114866827Y-84186852D01*
X114749028Y-84054481D01*
X114664432Y-83993395D01*
X114664412Y-83993383D01*
X114559196Y-83932635D01*
X114559195Y-83932636D01*
X113918195Y-85042880D01*
X113866812Y-85091873D01*
X113797099Y-85105309D01*
X113746076Y-85088999D01*
X113635226Y-85024999D01*
X113635225Y-85024999D01*
X113571225Y-85135851D01*
X113519842Y-85184844D01*
X113450128Y-85198279D01*
X113399106Y-85181969D01*
X112570320Y-84703468D01*
X112570319Y-84703468D01*
X112347071Y-85090148D01*
X112347059Y-85090172D01*
X112319613Y-85151339D01*
X112307253Y-85165794D01*
X112299213Y-85183033D01*
X112284660Y-85192220D01*
X112273477Y-85205301D01*
X112255261Y-85210780D01*
X112239179Y-85220934D01*
X112221970Y-85220795D01*
X112205490Y-85225753D01*
X112187205Y-85220515D01*
X112168185Y-85220362D01*
X112138766Y-85206639D01*
X112137238Y-85206202D01*
X112135684Y-85205202D01*
X111936325Y-85074801D01*
X111928684Y-85069387D01*
X111642633Y-84850305D01*
X111635416Y-84844339D01*
X111448799Y-84678029D01*
X111366430Y-84604623D01*
X111359681Y-84598144D01*
X111341635Y-84579479D01*
X111109219Y-84339089D01*
X111102990Y-84332148D01*
X111045869Y-84263528D01*
X112824318Y-84263528D01*
X112824319Y-84263529D01*
X113542254Y-84678030D01*
X113542255Y-84678029D01*
X114119256Y-83678636D01*
X114119256Y-83678635D01*
X114014036Y-83617887D01*
X114014012Y-83617875D01*
X113918814Y-83575158D01*
X113918816Y-83575158D01*
X113745283Y-83539328D01*
X113568161Y-83544481D01*
X113397000Y-83590343D01*
X113241038Y-83674438D01*
X113241034Y-83674441D01*
X113108665Y-83792239D01*
X113047576Y-83876837D01*
X112824318Y-84263528D01*
X111045869Y-84263528D01*
X110872469Y-84055220D01*
X110866751Y-84047807D01*
X110705503Y-83821878D01*
X110655767Y-83752191D01*
X110653146Y-83748370D01*
X107747879Y-79340161D01*
X107745092Y-79335734D01*
X107654865Y-79185589D01*
X107535903Y-78987625D01*
X107530881Y-78978420D01*
X107403563Y-78720055D01*
X107352526Y-78616485D01*
X107348295Y-78606916D01*
X107200652Y-78231396D01*
X107197226Y-78221491D01*
X107196595Y-78219388D01*
X107081318Y-77834990D01*
X107078728Y-77824833D01*
X107077890Y-77820865D01*
X106995362Y-77430043D01*
X106993629Y-77419735D01*
X106943376Y-77019356D01*
X106942507Y-77008937D01*
X106925608Y-76603072D01*
X106925500Y-76597849D01*
X106925500Y-67858318D01*
X108145600Y-67858318D01*
X108145600Y-68031682D01*
X108172720Y-68202912D01*
X108172721Y-68202917D01*
X108213742Y-68329167D01*
X108226292Y-68367791D01*
X108226293Y-68367792D01*
X108305000Y-68522263D01*
X108406900Y-68662516D01*
X108529483Y-68785099D01*
X108529486Y-68785101D01*
X108669740Y-68887002D01*
X108824209Y-68965708D01*
X108989082Y-69019278D01*
X108989083Y-69019278D01*
X108989088Y-69019280D01*
X109160318Y-69046400D01*
X109160321Y-69046400D01*
X109333679Y-69046400D01*
X109333682Y-69046400D01*
X109504912Y-69019280D01*
X109669791Y-68965708D01*
X109824260Y-68887002D01*
X109964514Y-68785101D01*
X110087101Y-68662514D01*
X110189002Y-68522260D01*
X110267708Y-68367791D01*
X110321280Y-68202912D01*
X110348400Y-68031682D01*
X110348400Y-67858318D01*
X110321280Y-67687088D01*
X110267708Y-67522209D01*
X110189002Y-67367740D01*
X110087101Y-67227486D01*
X110087099Y-67227483D01*
X109964516Y-67104900D01*
X109824263Y-67003000D01*
X109824262Y-67002999D01*
X109824260Y-67002998D01*
X109669791Y-66924292D01*
X109669788Y-66924291D01*
X109669786Y-66924290D01*
X109504915Y-66870721D01*
X109504919Y-66870721D01*
X109473041Y-66865672D01*
X109333682Y-66843600D01*
X109160318Y-66843600D01*
X108989088Y-66870720D01*
X108989082Y-66870721D01*
X108824213Y-66924290D01*
X108824207Y-66924293D01*
X108669736Y-67003000D01*
X108529483Y-67104900D01*
X108406900Y-67227483D01*
X108305000Y-67367736D01*
X108226293Y-67522207D01*
X108226290Y-67522213D01*
X108172721Y-67687082D01*
X108172720Y-67687087D01*
X108172720Y-67687088D01*
X108145600Y-67858318D01*
X106925500Y-67858318D01*
X106925500Y-62104121D01*
X106925770Y-62095881D01*
X106934201Y-61967242D01*
X106941852Y-61850505D01*
X106944000Y-61834191D01*
X106991170Y-61597050D01*
X106995429Y-61581153D01*
X107073151Y-61352194D01*
X107079445Y-61336999D01*
X107186387Y-61120141D01*
X107194611Y-61105898D01*
X107328942Y-60904857D01*
X107338962Y-60891799D01*
X107498378Y-60710020D01*
X107510020Y-60698378D01*
X107691799Y-60538962D01*
X107704857Y-60528942D01*
X107905898Y-60394611D01*
X107920141Y-60386387D01*
X108136999Y-60279445D01*
X108152194Y-60273151D01*
X108381153Y-60195429D01*
X108397050Y-60191170D01*
X108634191Y-60144000D01*
X108650505Y-60141852D01*
X108869931Y-60127470D01*
X108895882Y-60125770D01*
X108904122Y-60125500D01*
X108908285Y-60125500D01*
X109711411Y-60125500D01*
X109779532Y-60145502D01*
G37*
G04 #@! TD.AperFunction*
G04 #@! TA.AperFunction,Conductor*
G36*
X124580641Y-76153502D02*
G01*
X124601616Y-76170405D01*
X125163052Y-76731841D01*
X125095007Y-76750075D01*
X124980993Y-76815901D01*
X124887901Y-76908993D01*
X124822075Y-77023007D01*
X124803842Y-77091051D01*
X124164622Y-76451831D01*
X124164621Y-76451831D01*
X124126522Y-76504269D01*
X124125422Y-76506065D01*
X124124827Y-76506603D01*
X124123624Y-76508259D01*
X124123275Y-76508006D01*
X124072768Y-76553689D01*
X124002725Y-76565286D01*
X123937531Y-76537174D01*
X123912440Y-76508211D01*
X123912376Y-76508258D01*
X123911830Y-76507506D01*
X123910563Y-76506044D01*
X123909462Y-76504248D01*
X123871378Y-76451831D01*
X123232157Y-77091051D01*
X123213925Y-77023007D01*
X123148099Y-76908993D01*
X123055007Y-76815901D01*
X122940993Y-76750075D01*
X122872947Y-76731842D01*
X123434385Y-76170405D01*
X123496697Y-76136379D01*
X123523480Y-76133500D01*
X124512520Y-76133500D01*
X124580641Y-76153502D01*
G37*
G04 #@! TD.AperFunction*
G04 #@! TA.AperFunction,Conductor*
G36*
X127120641Y-76153502D02*
G01*
X127141616Y-76170405D01*
X127703052Y-76731841D01*
X127635007Y-76750075D01*
X127520993Y-76815901D01*
X127427901Y-76908993D01*
X127362075Y-77023007D01*
X127343842Y-77091051D01*
X126704622Y-76451831D01*
X126704621Y-76451831D01*
X126666522Y-76504269D01*
X126665422Y-76506065D01*
X126664827Y-76506603D01*
X126663624Y-76508259D01*
X126663275Y-76508006D01*
X126612768Y-76553689D01*
X126542725Y-76565286D01*
X126477531Y-76537174D01*
X126452440Y-76508211D01*
X126452376Y-76508258D01*
X126451830Y-76507506D01*
X126450563Y-76506044D01*
X126449462Y-76504248D01*
X126411378Y-76451831D01*
X125772157Y-77091051D01*
X125753925Y-77023007D01*
X125688099Y-76908993D01*
X125595007Y-76815901D01*
X125480993Y-76750075D01*
X125412947Y-76731841D01*
X125974384Y-76170405D01*
X126036697Y-76136380D01*
X126063480Y-76133500D01*
X127052520Y-76133500D01*
X127120641Y-76153502D01*
G37*
G04 #@! TD.AperFunction*
M02*
