G04 #@! TF.GenerationSoftware,KiCad,Pcbnew,9.0.2*
G04 #@! TF.CreationDate,2025-08-20T20:19:21-04:00*
G04 #@! TF.ProjectId,Trackball,54726163-6b62-4616-9c6c-2e6b69636164,rev?*
G04 #@! TF.SameCoordinates,Original*
G04 #@! TF.FileFunction,Legend,Bot*
G04 #@! TF.FilePolarity,Positive*
%FSLAX46Y46*%
G04 Gerber Fmt 4.6, Leading zero omitted, Abs format (unit mm)*
G04 Created by KiCad (PCBNEW 9.0.2) date 2025-08-20 20:19:21*
%MOMM*%
%LPD*%
G01*
G04 APERTURE LIST*
%ADD10C,0.150000*%
%ADD11C,0.120000*%
G04 APERTURE END LIST*
D10*
X49332819Y-76882666D02*
X50047104Y-76882666D01*
X50047104Y-76882666D02*
X50189961Y-76835047D01*
X50189961Y-76835047D02*
X50285200Y-76739809D01*
X50285200Y-76739809D02*
X50332819Y-76596952D01*
X50332819Y-76596952D02*
X50332819Y-76501714D01*
X49332819Y-77263619D02*
X49332819Y-77930285D01*
X49332819Y-77930285D02*
X50332819Y-77501714D01*
X49332819Y-125650666D02*
X50047104Y-125650666D01*
X50047104Y-125650666D02*
X50189961Y-125603047D01*
X50189961Y-125603047D02*
X50285200Y-125507809D01*
X50285200Y-125507809D02*
X50332819Y-125364952D01*
X50332819Y-125364952D02*
X50332819Y-125269714D01*
X49761390Y-126269714D02*
X49713771Y-126174476D01*
X49713771Y-126174476D02*
X49666152Y-126126857D01*
X49666152Y-126126857D02*
X49570914Y-126079238D01*
X49570914Y-126079238D02*
X49523295Y-126079238D01*
X49523295Y-126079238D02*
X49428057Y-126126857D01*
X49428057Y-126126857D02*
X49380438Y-126174476D01*
X49380438Y-126174476D02*
X49332819Y-126269714D01*
X49332819Y-126269714D02*
X49332819Y-126460190D01*
X49332819Y-126460190D02*
X49380438Y-126555428D01*
X49380438Y-126555428D02*
X49428057Y-126603047D01*
X49428057Y-126603047D02*
X49523295Y-126650666D01*
X49523295Y-126650666D02*
X49570914Y-126650666D01*
X49570914Y-126650666D02*
X49666152Y-126603047D01*
X49666152Y-126603047D02*
X49713771Y-126555428D01*
X49713771Y-126555428D02*
X49761390Y-126460190D01*
X49761390Y-126460190D02*
X49761390Y-126269714D01*
X49761390Y-126269714D02*
X49809009Y-126174476D01*
X49809009Y-126174476D02*
X49856628Y-126126857D01*
X49856628Y-126126857D02*
X49951866Y-126079238D01*
X49951866Y-126079238D02*
X50142342Y-126079238D01*
X50142342Y-126079238D02*
X50237580Y-126126857D01*
X50237580Y-126126857D02*
X50285200Y-126174476D01*
X50285200Y-126174476D02*
X50332819Y-126269714D01*
X50332819Y-126269714D02*
X50332819Y-126460190D01*
X50332819Y-126460190D02*
X50285200Y-126555428D01*
X50285200Y-126555428D02*
X50237580Y-126603047D01*
X50237580Y-126603047D02*
X50142342Y-126650666D01*
X50142342Y-126650666D02*
X49951866Y-126650666D01*
X49951866Y-126650666D02*
X49856628Y-126603047D01*
X49856628Y-126603047D02*
X49809009Y-126555428D01*
X49809009Y-126555428D02*
X49761390Y-126460190D01*
X88609333Y-94914819D02*
X88609333Y-95629104D01*
X88609333Y-95629104D02*
X88656952Y-95771961D01*
X88656952Y-95771961D02*
X88752190Y-95867200D01*
X88752190Y-95867200D02*
X88895047Y-95914819D01*
X88895047Y-95914819D02*
X88990285Y-95914819D01*
X88085523Y-95914819D02*
X87895047Y-95914819D01*
X87895047Y-95914819D02*
X87799809Y-95867200D01*
X87799809Y-95867200D02*
X87752190Y-95819580D01*
X87752190Y-95819580D02*
X87656952Y-95676723D01*
X87656952Y-95676723D02*
X87609333Y-95486247D01*
X87609333Y-95486247D02*
X87609333Y-95105295D01*
X87609333Y-95105295D02*
X87656952Y-95010057D01*
X87656952Y-95010057D02*
X87704571Y-94962438D01*
X87704571Y-94962438D02*
X87799809Y-94914819D01*
X87799809Y-94914819D02*
X87990285Y-94914819D01*
X87990285Y-94914819D02*
X88085523Y-94962438D01*
X88085523Y-94962438D02*
X88133142Y-95010057D01*
X88133142Y-95010057D02*
X88180761Y-95105295D01*
X88180761Y-95105295D02*
X88180761Y-95343390D01*
X88180761Y-95343390D02*
X88133142Y-95438628D01*
X88133142Y-95438628D02*
X88085523Y-95486247D01*
X88085523Y-95486247D02*
X87990285Y-95533866D01*
X87990285Y-95533866D02*
X87799809Y-95533866D01*
X87799809Y-95533866D02*
X87704571Y-95486247D01*
X87704571Y-95486247D02*
X87656952Y-95438628D01*
X87656952Y-95438628D02*
X87609333Y-95343390D01*
D11*
X50828000Y-75836000D02*
X50828000Y-77216000D01*
X52208000Y-75836000D02*
X50828000Y-75836000D01*
X53478000Y-75836000D02*
X53478000Y-78596000D01*
X53478000Y-75836000D02*
X61208000Y-75836000D01*
X53478000Y-78596000D02*
X61208000Y-78596000D01*
X61208000Y-75836000D02*
X61208000Y-78596000D01*
X50828000Y-124604000D02*
X50828000Y-125984000D01*
X52208000Y-124604000D02*
X50828000Y-124604000D01*
X53478000Y-124604000D02*
X53478000Y-127364000D01*
X53478000Y-124604000D02*
X61208000Y-124604000D01*
X53478000Y-127364000D02*
X61208000Y-127364000D01*
X61208000Y-124604000D02*
X61208000Y-127364000D01*
X86896000Y-99060000D02*
X86896000Y-106790000D01*
X89656000Y-96410000D02*
X88276000Y-96410000D01*
X89656000Y-97790000D02*
X89656000Y-96410000D01*
X89656000Y-99060000D02*
X86896000Y-99060000D01*
X89656000Y-99060000D02*
X89656000Y-106790000D01*
X89656000Y-106790000D02*
X86896000Y-106790000D01*
M02*
