G04 #@! TF.GenerationSoftware,KiCad,Pcbnew,9.0.2*
G04 #@! TF.CreationDate,2025-08-20T20:19:22-04:00*
G04 #@! TF.ProjectId,Trackball,54726163-6b62-4616-9c6c-2e6b69636164,rev?*
G04 #@! TF.SameCoordinates,Original*
G04 #@! TF.FileFunction,Soldermask,Bot*
G04 #@! TF.FilePolarity,Negative*
%FSLAX46Y46*%
G04 Gerber Fmt 4.6, Leading zero omitted, Abs format (unit mm)*
G04 Created by KiCad (PCBNEW 9.0.2) date 2025-08-20 20:19:22*
%MOMM*%
%LPD*%
G01*
G04 APERTURE LIST*
G04 APERTURE END LIST*
G36*
X53077517Y-125086882D02*
G01*
X53094062Y-125097938D01*
X53105118Y-125114483D01*
X53109000Y-125134000D01*
X53109000Y-126834000D01*
X53105118Y-126853517D01*
X53094062Y-126870062D01*
X53077517Y-126881118D01*
X53058000Y-126885000D01*
X51358000Y-126885000D01*
X51338483Y-126881118D01*
X51321938Y-126870062D01*
X51310882Y-126853517D01*
X51307000Y-126834000D01*
X51307000Y-125134000D01*
X51310882Y-125114483D01*
X51321938Y-125097938D01*
X51338483Y-125086882D01*
X51358000Y-125083000D01*
X53058000Y-125083000D01*
X53077517Y-125086882D01*
G37*
G36*
X55009546Y-125121797D02*
G01*
X55172728Y-125189389D01*
X55319588Y-125287518D01*
X55444482Y-125412412D01*
X55542611Y-125559272D01*
X55610203Y-125722454D01*
X55644661Y-125895687D01*
X55644661Y-126072313D01*
X55610203Y-126245546D01*
X55542611Y-126408728D01*
X55444482Y-126555588D01*
X55319588Y-126680482D01*
X55172728Y-126778611D01*
X55009546Y-126846203D01*
X54836313Y-126880661D01*
X54659687Y-126880661D01*
X54486454Y-126846203D01*
X54323272Y-126778611D01*
X54176412Y-126680482D01*
X54051518Y-126555588D01*
X53953389Y-126408728D01*
X53885797Y-126245546D01*
X53851339Y-126072313D01*
X53851339Y-125895687D01*
X53885797Y-125722454D01*
X53953389Y-125559272D01*
X54051518Y-125412412D01*
X54176412Y-125287518D01*
X54323272Y-125189389D01*
X54486454Y-125121797D01*
X54659687Y-125087339D01*
X54836313Y-125087339D01*
X55009546Y-125121797D01*
G37*
G36*
X57549546Y-125121797D02*
G01*
X57712728Y-125189389D01*
X57859588Y-125287518D01*
X57984482Y-125412412D01*
X58082611Y-125559272D01*
X58150203Y-125722454D01*
X58184661Y-125895687D01*
X58184661Y-126072313D01*
X58150203Y-126245546D01*
X58082611Y-126408728D01*
X57984482Y-126555588D01*
X57859588Y-126680482D01*
X57712728Y-126778611D01*
X57549546Y-126846203D01*
X57376313Y-126880661D01*
X57199687Y-126880661D01*
X57026454Y-126846203D01*
X56863272Y-126778611D01*
X56716412Y-126680482D01*
X56591518Y-126555588D01*
X56493389Y-126408728D01*
X56425797Y-126245546D01*
X56391339Y-126072313D01*
X56391339Y-125895687D01*
X56425797Y-125722454D01*
X56493389Y-125559272D01*
X56591518Y-125412412D01*
X56716412Y-125287518D01*
X56863272Y-125189389D01*
X57026454Y-125121797D01*
X57199687Y-125087339D01*
X57376313Y-125087339D01*
X57549546Y-125121797D01*
G37*
G36*
X60089546Y-125121797D02*
G01*
X60252728Y-125189389D01*
X60399588Y-125287518D01*
X60524482Y-125412412D01*
X60622611Y-125559272D01*
X60690203Y-125722454D01*
X60724661Y-125895687D01*
X60724661Y-126072313D01*
X60690203Y-126245546D01*
X60622611Y-126408728D01*
X60524482Y-126555588D01*
X60399588Y-126680482D01*
X60252728Y-126778611D01*
X60089546Y-126846203D01*
X59916313Y-126880661D01*
X59739687Y-126880661D01*
X59566454Y-126846203D01*
X59403272Y-126778611D01*
X59256412Y-126680482D01*
X59131518Y-126555588D01*
X59033389Y-126408728D01*
X58965797Y-126245546D01*
X58931339Y-126072313D01*
X58931339Y-125895687D01*
X58965797Y-125722454D01*
X59033389Y-125559272D01*
X59131518Y-125412412D01*
X59256412Y-125287518D01*
X59403272Y-125189389D01*
X59566454Y-125121797D01*
X59739687Y-125087339D01*
X59916313Y-125087339D01*
X60089546Y-125121797D01*
G37*
G36*
X88537546Y-104547797D02*
G01*
X88700728Y-104615389D01*
X88847588Y-104713518D01*
X88972482Y-104838412D01*
X89070611Y-104985272D01*
X89138203Y-105148454D01*
X89172661Y-105321687D01*
X89172661Y-105498313D01*
X89138203Y-105671546D01*
X89070611Y-105834728D01*
X88972482Y-105981588D01*
X88847588Y-106106482D01*
X88700728Y-106204611D01*
X88537546Y-106272203D01*
X88364313Y-106306661D01*
X88187687Y-106306661D01*
X88014454Y-106272203D01*
X87851272Y-106204611D01*
X87704412Y-106106482D01*
X87579518Y-105981588D01*
X87481389Y-105834728D01*
X87413797Y-105671546D01*
X87379339Y-105498313D01*
X87379339Y-105321687D01*
X87413797Y-105148454D01*
X87481389Y-104985272D01*
X87579518Y-104838412D01*
X87704412Y-104713518D01*
X87851272Y-104615389D01*
X88014454Y-104547797D01*
X88187687Y-104513339D01*
X88364313Y-104513339D01*
X88537546Y-104547797D01*
G37*
G36*
X88537546Y-102007797D02*
G01*
X88700728Y-102075389D01*
X88847588Y-102173518D01*
X88972482Y-102298412D01*
X89070611Y-102445272D01*
X89138203Y-102608454D01*
X89172661Y-102781687D01*
X89172661Y-102958313D01*
X89138203Y-103131546D01*
X89070611Y-103294728D01*
X88972482Y-103441588D01*
X88847588Y-103566482D01*
X88700728Y-103664611D01*
X88537546Y-103732203D01*
X88364313Y-103766661D01*
X88187687Y-103766661D01*
X88014454Y-103732203D01*
X87851272Y-103664611D01*
X87704412Y-103566482D01*
X87579518Y-103441588D01*
X87481389Y-103294728D01*
X87413797Y-103131546D01*
X87379339Y-102958313D01*
X87379339Y-102781687D01*
X87413797Y-102608454D01*
X87481389Y-102445272D01*
X87579518Y-102298412D01*
X87704412Y-102173518D01*
X87851272Y-102075389D01*
X88014454Y-102007797D01*
X88187687Y-101973339D01*
X88364313Y-101973339D01*
X88537546Y-102007797D01*
G37*
G36*
X88537546Y-99467797D02*
G01*
X88700728Y-99535389D01*
X88847588Y-99633518D01*
X88972482Y-99758412D01*
X89070611Y-99905272D01*
X89138203Y-100068454D01*
X89172661Y-100241687D01*
X89172661Y-100418313D01*
X89138203Y-100591546D01*
X89070611Y-100754728D01*
X88972482Y-100901588D01*
X88847588Y-101026482D01*
X88700728Y-101124611D01*
X88537546Y-101192203D01*
X88364313Y-101226661D01*
X88187687Y-101226661D01*
X88014454Y-101192203D01*
X87851272Y-101124611D01*
X87704412Y-101026482D01*
X87579518Y-100901588D01*
X87481389Y-100754728D01*
X87413797Y-100591546D01*
X87379339Y-100418313D01*
X87379339Y-100241687D01*
X87413797Y-100068454D01*
X87481389Y-99905272D01*
X87579518Y-99758412D01*
X87704412Y-99633518D01*
X87851272Y-99535389D01*
X88014454Y-99467797D01*
X88187687Y-99433339D01*
X88364313Y-99433339D01*
X88537546Y-99467797D01*
G37*
G36*
X89145517Y-96892882D02*
G01*
X89162062Y-96903938D01*
X89173118Y-96920483D01*
X89177000Y-96940000D01*
X89177000Y-98640000D01*
X89173118Y-98659517D01*
X89162062Y-98676062D01*
X89145517Y-98687118D01*
X89126000Y-98691000D01*
X87426000Y-98691000D01*
X87406483Y-98687118D01*
X87389938Y-98676062D01*
X87378882Y-98659517D01*
X87375000Y-98640000D01*
X87375000Y-96940000D01*
X87378882Y-96920483D01*
X87389938Y-96903938D01*
X87406483Y-96892882D01*
X87426000Y-96889000D01*
X89126000Y-96889000D01*
X89145517Y-96892882D01*
G37*
G36*
X53077517Y-76318882D02*
G01*
X53094062Y-76329938D01*
X53105118Y-76346483D01*
X53109000Y-76366000D01*
X53109000Y-78066000D01*
X53105118Y-78085517D01*
X53094062Y-78102062D01*
X53077517Y-78113118D01*
X53058000Y-78117000D01*
X51358000Y-78117000D01*
X51338483Y-78113118D01*
X51321938Y-78102062D01*
X51310882Y-78085517D01*
X51307000Y-78066000D01*
X51307000Y-76366000D01*
X51310882Y-76346483D01*
X51321938Y-76329938D01*
X51338483Y-76318882D01*
X51358000Y-76315000D01*
X53058000Y-76315000D01*
X53077517Y-76318882D01*
G37*
G36*
X55009546Y-76353797D02*
G01*
X55172728Y-76421389D01*
X55319588Y-76519518D01*
X55444482Y-76644412D01*
X55542611Y-76791272D01*
X55610203Y-76954454D01*
X55644661Y-77127687D01*
X55644661Y-77304313D01*
X55610203Y-77477546D01*
X55542611Y-77640728D01*
X55444482Y-77787588D01*
X55319588Y-77912482D01*
X55172728Y-78010611D01*
X55009546Y-78078203D01*
X54836313Y-78112661D01*
X54659687Y-78112661D01*
X54486454Y-78078203D01*
X54323272Y-78010611D01*
X54176412Y-77912482D01*
X54051518Y-77787588D01*
X53953389Y-77640728D01*
X53885797Y-77477546D01*
X53851339Y-77304313D01*
X53851339Y-77127687D01*
X53885797Y-76954454D01*
X53953389Y-76791272D01*
X54051518Y-76644412D01*
X54176412Y-76519518D01*
X54323272Y-76421389D01*
X54486454Y-76353797D01*
X54659687Y-76319339D01*
X54836313Y-76319339D01*
X55009546Y-76353797D01*
G37*
G36*
X57549546Y-76353797D02*
G01*
X57712728Y-76421389D01*
X57859588Y-76519518D01*
X57984482Y-76644412D01*
X58082611Y-76791272D01*
X58150203Y-76954454D01*
X58184661Y-77127687D01*
X58184661Y-77304313D01*
X58150203Y-77477546D01*
X58082611Y-77640728D01*
X57984482Y-77787588D01*
X57859588Y-77912482D01*
X57712728Y-78010611D01*
X57549546Y-78078203D01*
X57376313Y-78112661D01*
X57199687Y-78112661D01*
X57026454Y-78078203D01*
X56863272Y-78010611D01*
X56716412Y-77912482D01*
X56591518Y-77787588D01*
X56493389Y-77640728D01*
X56425797Y-77477546D01*
X56391339Y-77304313D01*
X56391339Y-77127687D01*
X56425797Y-76954454D01*
X56493389Y-76791272D01*
X56591518Y-76644412D01*
X56716412Y-76519518D01*
X56863272Y-76421389D01*
X57026454Y-76353797D01*
X57199687Y-76319339D01*
X57376313Y-76319339D01*
X57549546Y-76353797D01*
G37*
G36*
X60089546Y-76353797D02*
G01*
X60252728Y-76421389D01*
X60399588Y-76519518D01*
X60524482Y-76644412D01*
X60622611Y-76791272D01*
X60690203Y-76954454D01*
X60724661Y-77127687D01*
X60724661Y-77304313D01*
X60690203Y-77477546D01*
X60622611Y-77640728D01*
X60524482Y-77787588D01*
X60399588Y-77912482D01*
X60252728Y-78010611D01*
X60089546Y-78078203D01*
X59916313Y-78112661D01*
X59739687Y-78112661D01*
X59566454Y-78078203D01*
X59403272Y-78010611D01*
X59256412Y-77912482D01*
X59131518Y-77787588D01*
X59033389Y-77640728D01*
X58965797Y-77477546D01*
X58931339Y-77304313D01*
X58931339Y-77127687D01*
X58965797Y-76954454D01*
X59033389Y-76791272D01*
X59131518Y-76644412D01*
X59256412Y-76519518D01*
X59403272Y-76421389D01*
X59566454Y-76353797D01*
X59739687Y-76319339D01*
X59916313Y-76319339D01*
X60089546Y-76353797D01*
G37*
M02*
