G04 #@! TF.GenerationSoftware,KiCad,Pcbnew,9.0.2*
G04 #@! TF.CreationDate,2025-08-20T20:19:21-04:00*
G04 #@! TF.ProjectId,Trackball,54726163-6b62-4616-9c6c-2e6b69636164,rev?*
G04 #@! TF.SameCoordinates,Original*
G04 #@! TF.FileFunction,Copper,L1,Top*
G04 #@! TF.FilePolarity,Positive*
%FSLAX46Y46*%
G04 Gerber Fmt 4.6, Leading zero omitted, Abs format (unit mm)*
G04 Created by KiCad (PCBNEW 9.0.2) date 2025-08-20 20:19:21*
%MOMM*%
%LPD*%
G01*
G04 APERTURE LIST*
G04 #@! TA.AperFunction,ComponentPad*
%ADD10R,1.700000X1.700000*%
G04 #@! TD*
G04 #@! TA.AperFunction,ComponentPad*
%ADD11C,1.700000*%
G04 #@! TD*
G04 APERTURE END LIST*
D10*
X52208000Y-77216000D03*
D11*
X54748000Y-77216000D03*
X57288000Y-77216000D03*
X59828000Y-77216000D03*
D10*
X52208000Y-125984000D03*
D11*
X54748000Y-125984000D03*
X57288000Y-125984000D03*
X59828000Y-125984000D03*
D10*
X88276000Y-97790000D03*
D11*
X88276000Y-100330000D03*
X88276000Y-102870000D03*
X88276000Y-105410000D03*
G04 #@! TA.AperFunction,Conductor*
G36*
X51300807Y-75645185D02*
G01*
X51346562Y-75697989D01*
X51356506Y-75767147D01*
X51327481Y-75830703D01*
X51268703Y-75868477D01*
X51258157Y-75870574D01*
X51258168Y-75870620D01*
X51250620Y-75872403D01*
X51115913Y-75922645D01*
X51115906Y-75922649D01*
X51000812Y-76008809D01*
X51000809Y-76008812D01*
X50914649Y-76123906D01*
X50914645Y-76123913D01*
X50864403Y-76258620D01*
X50864401Y-76258627D01*
X50858000Y-76318155D01*
X50858000Y-76966000D01*
X51774988Y-76966000D01*
X51742075Y-77023007D01*
X51708000Y-77150174D01*
X51708000Y-77281826D01*
X51742075Y-77408993D01*
X51774988Y-77466000D01*
X50858000Y-77466000D01*
X50858000Y-78113844D01*
X50864401Y-78173372D01*
X50864403Y-78173379D01*
X50914645Y-78308086D01*
X50914649Y-78308093D01*
X51000809Y-78423187D01*
X51000812Y-78423190D01*
X51115906Y-78509350D01*
X51115913Y-78509354D01*
X51250620Y-78559596D01*
X51250627Y-78559598D01*
X51310155Y-78565999D01*
X51310172Y-78566000D01*
X51958000Y-78566000D01*
X51958000Y-77649012D01*
X52015007Y-77681925D01*
X52142174Y-77716000D01*
X52273826Y-77716000D01*
X52400993Y-77681925D01*
X52458000Y-77649012D01*
X52458000Y-78566000D01*
X53105828Y-78566000D01*
X53105844Y-78565999D01*
X53165372Y-78559598D01*
X53165379Y-78559596D01*
X53300086Y-78509354D01*
X53300093Y-78509350D01*
X53415187Y-78423190D01*
X53415190Y-78423187D01*
X53501350Y-78308093D01*
X53501354Y-78308086D01*
X53523529Y-78248632D01*
X53562319Y-78075390D01*
X53562682Y-78074734D01*
X53562642Y-78073984D01*
X53595642Y-78014802D01*
X54265037Y-77345408D01*
X54282075Y-77408993D01*
X54347901Y-77523007D01*
X54440993Y-77616099D01*
X54555007Y-77681925D01*
X54618590Y-77698962D01*
X53986282Y-78331269D01*
X53986282Y-78331270D01*
X54040449Y-78370624D01*
X54229782Y-78467095D01*
X54431870Y-78532757D01*
X54641754Y-78566000D01*
X54854246Y-78566000D01*
X55064127Y-78532757D01*
X55064130Y-78532757D01*
X55266217Y-78467095D01*
X55455554Y-78370622D01*
X55509716Y-78331270D01*
X55509717Y-78331270D01*
X54877408Y-77698962D01*
X54940993Y-77681925D01*
X55055007Y-77616099D01*
X55148099Y-77523007D01*
X55213925Y-77408993D01*
X55230962Y-77345408D01*
X55863270Y-77977717D01*
X55863270Y-77977716D01*
X55902622Y-77923554D01*
X55907514Y-77913954D01*
X55955488Y-77863157D01*
X56023308Y-77846361D01*
X56089444Y-77868897D01*
X56128486Y-77913954D01*
X56133375Y-77923550D01*
X56172728Y-77977716D01*
X56805037Y-77345408D01*
X56822075Y-77408993D01*
X56887901Y-77523007D01*
X56980993Y-77616099D01*
X57095007Y-77681925D01*
X57158590Y-77698962D01*
X56526282Y-78331269D01*
X56526282Y-78331270D01*
X56580449Y-78370624D01*
X56769782Y-78467095D01*
X56971870Y-78532757D01*
X57181754Y-78566000D01*
X57394246Y-78566000D01*
X57604127Y-78532757D01*
X57604130Y-78532757D01*
X57806217Y-78467095D01*
X57995554Y-78370622D01*
X58049716Y-78331270D01*
X58049717Y-78331270D01*
X57417408Y-77698962D01*
X57480993Y-77681925D01*
X57595007Y-77616099D01*
X57688099Y-77523007D01*
X57753925Y-77408993D01*
X57770962Y-77345409D01*
X58403270Y-77977717D01*
X58403270Y-77977716D01*
X58442622Y-77923554D01*
X58447514Y-77913954D01*
X58495488Y-77863157D01*
X58563308Y-77846361D01*
X58629444Y-77868897D01*
X58668486Y-77913954D01*
X58673375Y-77923550D01*
X58712728Y-77977716D01*
X59345037Y-77345408D01*
X59362075Y-77408993D01*
X59427901Y-77523007D01*
X59520993Y-77616099D01*
X59635007Y-77681925D01*
X59698590Y-77698962D01*
X59066282Y-78331269D01*
X59066282Y-78331270D01*
X59120449Y-78370624D01*
X59309782Y-78467095D01*
X59511870Y-78532757D01*
X59721754Y-78566000D01*
X59934246Y-78566000D01*
X60144127Y-78532757D01*
X60144130Y-78532757D01*
X60346217Y-78467095D01*
X60535554Y-78370622D01*
X60589716Y-78331270D01*
X60589717Y-78331270D01*
X59957408Y-77698962D01*
X60020993Y-77681925D01*
X60135007Y-77616099D01*
X60228099Y-77523007D01*
X60293925Y-77408993D01*
X60310962Y-77345408D01*
X60943270Y-77977717D01*
X60943270Y-77977716D01*
X60982622Y-77923554D01*
X61079095Y-77734217D01*
X61144757Y-77532130D01*
X61144757Y-77532127D01*
X61178000Y-77322246D01*
X61178000Y-77109753D01*
X61144757Y-76899872D01*
X61144757Y-76899869D01*
X61079095Y-76697782D01*
X60982624Y-76508449D01*
X60943270Y-76454282D01*
X60943269Y-76454282D01*
X60310962Y-77086590D01*
X60293925Y-77023007D01*
X60228099Y-76908993D01*
X60135007Y-76815901D01*
X60020993Y-76750075D01*
X59957409Y-76733037D01*
X60589716Y-76100728D01*
X60535550Y-76061375D01*
X60346217Y-75964904D01*
X60144129Y-75899242D01*
X59971958Y-75871973D01*
X59908823Y-75842044D01*
X59871892Y-75782732D01*
X59872890Y-75712870D01*
X59911500Y-75654637D01*
X59975463Y-75626523D01*
X59991356Y-75625500D01*
X64398781Y-75625500D01*
X64401185Y-75625523D01*
X64428543Y-75626053D01*
X65404810Y-75644988D01*
X65409553Y-75645172D01*
X66410413Y-75703466D01*
X66415197Y-75703837D01*
X67413085Y-75800899D01*
X67417852Y-75801457D01*
X68411182Y-75937134D01*
X68415896Y-75937872D01*
X69403249Y-76111968D01*
X69407953Y-76112892D01*
X70387808Y-76325142D01*
X70392425Y-76326236D01*
X71363338Y-76576327D01*
X71367904Y-76577598D01*
X72328447Y-76865165D01*
X72332941Y-76866607D01*
X73281508Y-77191169D01*
X73286027Y-77192813D01*
X74221311Y-77553918D01*
X74225763Y-77555737D01*
X75146317Y-77952825D01*
X75150695Y-77954815D01*
X76055184Y-78387311D01*
X76059481Y-78389470D01*
X76247567Y-78488543D01*
X76946480Y-78856692D01*
X76950669Y-78859003D01*
X77818948Y-79360303D01*
X77823034Y-79362770D01*
X78671204Y-79897350D01*
X78675163Y-79899953D01*
X79501985Y-80467033D01*
X79505887Y-80469822D01*
X80310063Y-81068509D01*
X80313864Y-81071455D01*
X81094211Y-81700866D01*
X81097895Y-81703957D01*
X81853282Y-82363181D01*
X81856807Y-82366380D01*
X82168084Y-82660055D01*
X82586045Y-83054381D01*
X82589478Y-83057748D01*
X83291485Y-83773502D01*
X83294785Y-83777000D01*
X83968488Y-84519412D01*
X83971651Y-84523035D01*
X84616093Y-85291052D01*
X84619112Y-85294795D01*
X85233290Y-86087222D01*
X85236161Y-86091080D01*
X85473597Y-86423271D01*
X85721090Y-86769533D01*
X85819111Y-86906671D01*
X85821827Y-86910630D01*
X86225061Y-87523718D01*
X86372752Y-87748271D01*
X86375316Y-87752339D01*
X86615373Y-88150112D01*
X86893342Y-88610703D01*
X86895738Y-88614854D01*
X87164958Y-89102770D01*
X87380086Y-89492653D01*
X87382327Y-89496908D01*
X87832261Y-90392799D01*
X87834336Y-90397137D01*
X88249207Y-91309833D01*
X88251112Y-91314249D01*
X88630281Y-92242346D01*
X88632013Y-92246832D01*
X88795890Y-92697081D01*
X88931605Y-93069955D01*
X88974898Y-93188900D01*
X88976455Y-93193451D01*
X89282568Y-94148152D01*
X89283947Y-94152759D01*
X89552797Y-95118563D01*
X89553997Y-95123220D01*
X89785203Y-96098759D01*
X89786221Y-96103459D01*
X89979425Y-97087217D01*
X89980260Y-97091953D01*
X90135172Y-98082456D01*
X90135823Y-98087220D01*
X90252214Y-99083009D01*
X90252679Y-99087796D01*
X90330367Y-100087309D01*
X90330647Y-100092110D01*
X90369523Y-101093923D01*
X90369616Y-101098731D01*
X90369616Y-102101268D01*
X90369523Y-102106076D01*
X90330647Y-103107889D01*
X90330367Y-103112690D01*
X90252679Y-104112203D01*
X90252214Y-104116990D01*
X90135823Y-105112779D01*
X90135172Y-105117543D01*
X89980260Y-106108046D01*
X89979425Y-106112782D01*
X89786221Y-107096540D01*
X89785203Y-107101240D01*
X89553997Y-108076779D01*
X89552797Y-108081436D01*
X89283947Y-109047240D01*
X89282568Y-109051847D01*
X88976455Y-110006548D01*
X88974898Y-110011099D01*
X88632013Y-110953167D01*
X88630281Y-110957653D01*
X88251112Y-111885750D01*
X88249207Y-111890166D01*
X87834336Y-112802862D01*
X87832261Y-112807200D01*
X87382327Y-113703091D01*
X87380086Y-113707346D01*
X86895746Y-114585131D01*
X86893342Y-114589296D01*
X86375316Y-115447660D01*
X86372752Y-115451728D01*
X85821832Y-116289362D01*
X85819111Y-116293328D01*
X85236161Y-117108919D01*
X85233290Y-117112777D01*
X84619112Y-117905204D01*
X84616093Y-117908947D01*
X83971651Y-118676964D01*
X83968488Y-118680587D01*
X83294785Y-119422999D01*
X83291485Y-119426497D01*
X82589478Y-120142251D01*
X82586045Y-120145618D01*
X81856825Y-120833602D01*
X81853264Y-120836834D01*
X81097895Y-121496042D01*
X81094211Y-121499133D01*
X80313864Y-122128544D01*
X80310063Y-122131490D01*
X79505898Y-122730169D01*
X79501985Y-122732966D01*
X78675192Y-123300026D01*
X78671174Y-123302668D01*
X77823049Y-123837220D01*
X77818932Y-123839705D01*
X76950680Y-124340990D01*
X76946469Y-124343313D01*
X76059481Y-124810529D01*
X76055184Y-124812688D01*
X75150695Y-125245184D01*
X75146317Y-125247174D01*
X74225763Y-125644262D01*
X74221311Y-125646081D01*
X73286027Y-126007186D01*
X73281508Y-126008830D01*
X72332984Y-126333378D01*
X72328405Y-126334847D01*
X71367937Y-126622392D01*
X71363304Y-126623681D01*
X70392456Y-126873755D01*
X70387776Y-126874864D01*
X69407960Y-127087105D01*
X69403241Y-127088032D01*
X68415915Y-127262124D01*
X68411164Y-127262867D01*
X67417857Y-127398541D01*
X67413081Y-127399100D01*
X66415203Y-127496161D01*
X66410408Y-127496533D01*
X65409585Y-127554825D01*
X65404780Y-127555012D01*
X64401214Y-127574476D01*
X64398720Y-127574499D01*
X60011254Y-127571334D01*
X59944228Y-127551601D01*
X59898512Y-127498764D01*
X59888618Y-127429598D01*
X59917689Y-127366064D01*
X59976494Y-127328332D01*
X59991945Y-127324861D01*
X60144127Y-127300757D01*
X60144130Y-127300757D01*
X60346217Y-127235095D01*
X60535554Y-127138622D01*
X60589716Y-127099270D01*
X60589717Y-127099270D01*
X59957408Y-126466962D01*
X60020993Y-126449925D01*
X60135007Y-126384099D01*
X60228099Y-126291007D01*
X60293925Y-126176993D01*
X60310962Y-126113408D01*
X60943270Y-126745717D01*
X60943270Y-126745716D01*
X60982622Y-126691554D01*
X61079095Y-126502217D01*
X61144757Y-126300130D01*
X61144757Y-126300127D01*
X61178000Y-126090246D01*
X61178000Y-125877753D01*
X61144757Y-125667872D01*
X61144757Y-125667869D01*
X61079095Y-125465782D01*
X60982624Y-125276449D01*
X60943270Y-125222282D01*
X60943269Y-125222282D01*
X60310962Y-125854590D01*
X60293925Y-125791007D01*
X60228099Y-125676993D01*
X60135007Y-125583901D01*
X60020993Y-125518075D01*
X59957409Y-125501037D01*
X60589716Y-124868728D01*
X60535550Y-124829375D01*
X60346217Y-124732904D01*
X60144129Y-124667242D01*
X59934246Y-124634000D01*
X59721754Y-124634000D01*
X59511872Y-124667242D01*
X59511869Y-124667242D01*
X59309782Y-124732904D01*
X59120439Y-124829380D01*
X59066282Y-124868727D01*
X59066282Y-124868728D01*
X59698591Y-125501037D01*
X59635007Y-125518075D01*
X59520993Y-125583901D01*
X59427901Y-125676993D01*
X59362075Y-125791007D01*
X59345037Y-125854591D01*
X58712728Y-125222282D01*
X58712727Y-125222282D01*
X58673380Y-125276440D01*
X58668483Y-125286051D01*
X58620506Y-125336845D01*
X58552684Y-125353638D01*
X58486550Y-125331098D01*
X58447516Y-125286048D01*
X58442626Y-125276452D01*
X58403270Y-125222282D01*
X58403269Y-125222282D01*
X57770962Y-125854590D01*
X57753925Y-125791007D01*
X57688099Y-125676993D01*
X57595007Y-125583901D01*
X57480993Y-125518075D01*
X57417409Y-125501037D01*
X58049716Y-124868728D01*
X57995550Y-124829375D01*
X57806217Y-124732904D01*
X57604129Y-124667242D01*
X57394246Y-124634000D01*
X57181754Y-124634000D01*
X56971872Y-124667242D01*
X56971869Y-124667242D01*
X56769782Y-124732904D01*
X56580439Y-124829380D01*
X56526282Y-124868727D01*
X56526282Y-124868728D01*
X57158591Y-125501037D01*
X57095007Y-125518075D01*
X56980993Y-125583901D01*
X56887901Y-125676993D01*
X56822075Y-125791007D01*
X56805037Y-125854591D01*
X56172728Y-125222282D01*
X56172727Y-125222282D01*
X56133380Y-125276440D01*
X56128483Y-125286051D01*
X56080506Y-125336845D01*
X56012684Y-125353638D01*
X55946550Y-125331098D01*
X55907516Y-125286048D01*
X55902626Y-125276452D01*
X55863270Y-125222282D01*
X55863269Y-125222282D01*
X55230962Y-125854590D01*
X55213925Y-125791007D01*
X55148099Y-125676993D01*
X55055007Y-125583901D01*
X54940993Y-125518075D01*
X54877409Y-125501037D01*
X55509716Y-124868728D01*
X55455550Y-124829375D01*
X55266217Y-124732904D01*
X55064129Y-124667242D01*
X54854246Y-124634000D01*
X54641754Y-124634000D01*
X54431872Y-124667242D01*
X54431869Y-124667242D01*
X54229782Y-124732904D01*
X54040439Y-124829380D01*
X53986282Y-124868727D01*
X53986282Y-124868728D01*
X54618591Y-125501037D01*
X54555007Y-125518075D01*
X54440993Y-125583901D01*
X54347901Y-125676993D01*
X54282075Y-125791007D01*
X54265037Y-125854591D01*
X53595642Y-125185196D01*
X53562319Y-125124609D01*
X53523527Y-124951364D01*
X53501354Y-124891913D01*
X53501350Y-124891906D01*
X53415190Y-124776812D01*
X53415187Y-124776809D01*
X53300093Y-124690649D01*
X53300086Y-124690645D01*
X53165379Y-124640403D01*
X53165372Y-124640401D01*
X53105844Y-124634000D01*
X52458000Y-124634000D01*
X52458000Y-125550988D01*
X52400993Y-125518075D01*
X52273826Y-125484000D01*
X52142174Y-125484000D01*
X52015007Y-125518075D01*
X51958000Y-125550988D01*
X51958000Y-124634000D01*
X51310155Y-124634000D01*
X51250627Y-124640401D01*
X51250620Y-124640403D01*
X51115913Y-124690645D01*
X51115906Y-124690649D01*
X51000812Y-124776809D01*
X51000809Y-124776812D01*
X50914649Y-124891906D01*
X50914645Y-124891913D01*
X50864403Y-125026620D01*
X50864401Y-125026627D01*
X50858000Y-125086155D01*
X50858000Y-125734000D01*
X51774988Y-125734000D01*
X51742075Y-125791007D01*
X51708000Y-125918174D01*
X51708000Y-126049826D01*
X51742075Y-126176993D01*
X51774988Y-126234000D01*
X50858000Y-126234000D01*
X50858000Y-126881844D01*
X50864401Y-126941372D01*
X50864403Y-126941379D01*
X50914645Y-127076086D01*
X50914649Y-127076093D01*
X51000809Y-127191187D01*
X51000812Y-127191190D01*
X51115906Y-127277350D01*
X51115913Y-127277354D01*
X51243109Y-127324795D01*
X51299043Y-127366666D01*
X51323460Y-127432130D01*
X51308609Y-127500403D01*
X51259203Y-127549809D01*
X51199686Y-127564977D01*
X50428059Y-127564420D01*
X50387697Y-127557636D01*
X43556316Y-125200067D01*
X32908760Y-121525503D01*
X32903352Y-121523495D01*
X32567870Y-121389951D01*
X32557363Y-121385191D01*
X32238310Y-121222361D01*
X32228289Y-121216644D01*
X31925759Y-121024875D01*
X31916314Y-121018253D01*
X31632914Y-120799200D01*
X31624125Y-120791729D01*
X31362296Y-120547279D01*
X31354240Y-120539023D01*
X31116273Y-120271313D01*
X31109019Y-120262344D01*
X30896951Y-119973670D01*
X30890565Y-119964072D01*
X30706234Y-119656927D01*
X30700774Y-119646788D01*
X30545782Y-119323840D01*
X30541289Y-119313240D01*
X30416984Y-118977298D01*
X30413489Y-118966308D01*
X30320941Y-118620274D01*
X30318482Y-118609004D01*
X30258489Y-118255857D01*
X30257089Y-118244406D01*
X30230175Y-117887237D01*
X30229844Y-117875707D01*
X30233059Y-117695574D01*
X30236237Y-117517551D01*
X30236976Y-117506078D01*
X30276626Y-117150054D01*
X30278435Y-117138668D01*
X30284589Y-117108919D01*
X30350993Y-116787893D01*
X30353845Y-116776746D01*
X30458695Y-116434203D01*
X30462569Y-116423373D01*
X30599789Y-116089641D01*
X30602092Y-116084392D01*
X30602525Y-116083464D01*
X30602528Y-116083457D01*
X30622903Y-116039797D01*
X30759643Y-115746782D01*
X30805829Y-115694360D01*
X30873028Y-115675227D01*
X30924879Y-115687060D01*
X31141764Y-115789305D01*
X31862857Y-116085922D01*
X32597947Y-116345920D01*
X33345175Y-116568643D01*
X34102654Y-116753527D01*
X34102664Y-116753529D01*
X34527499Y-116834843D01*
X34868468Y-116900105D01*
X35640681Y-117008007D01*
X36417342Y-117076959D01*
X37196486Y-117106788D01*
X37976145Y-117097417D01*
X38754348Y-117048871D01*
X39529127Y-116961273D01*
X40298524Y-116834843D01*
X41060594Y-116669902D01*
X41813410Y-116466866D01*
X42555070Y-116226248D01*
X43283698Y-115948657D01*
X43997454Y-115634795D01*
X44694532Y-115285455D01*
X45116288Y-115046849D01*
X45373134Y-114901541D01*
X45373148Y-114901532D01*
X45373170Y-114901520D01*
X46031653Y-114483961D01*
X46668317Y-114033832D01*
X47281551Y-113552273D01*
X47869806Y-113040500D01*
X48431596Y-112499806D01*
X48965498Y-111931560D01*
X49245858Y-111601371D01*
X49348963Y-111479941D01*
X62874500Y-111479941D01*
X62874500Y-111720058D01*
X62912063Y-111957222D01*
X62986265Y-112185593D01*
X63081070Y-112371656D01*
X63095276Y-112399536D01*
X63236414Y-112593796D01*
X63406204Y-112763586D01*
X63600464Y-112904724D01*
X63701543Y-112956226D01*
X63814406Y-113013734D01*
X63814408Y-113013734D01*
X63814411Y-113013736D01*
X64042778Y-113087937D01*
X64279941Y-113125500D01*
X64279942Y-113125500D01*
X64520058Y-113125500D01*
X64520059Y-113125500D01*
X64757222Y-113087937D01*
X64985589Y-113013736D01*
X65199536Y-112904724D01*
X65393796Y-112763586D01*
X65563586Y-112593796D01*
X65704724Y-112399536D01*
X65813736Y-112185589D01*
X65887937Y-111957222D01*
X65925500Y-111720059D01*
X65925500Y-111479941D01*
X65887937Y-111242778D01*
X65813736Y-111014411D01*
X65813734Y-111014408D01*
X65813734Y-111014406D01*
X65704723Y-110800463D01*
X65563586Y-110606204D01*
X65393796Y-110436414D01*
X65199536Y-110295276D01*
X64985593Y-110186265D01*
X64757222Y-110112063D01*
X64520059Y-110074500D01*
X64279941Y-110074500D01*
X64161359Y-110093281D01*
X64042777Y-110112063D01*
X63814406Y-110186265D01*
X63600463Y-110295276D01*
X63406201Y-110436416D01*
X63236416Y-110606201D01*
X63095276Y-110800463D01*
X62986265Y-111014406D01*
X62912063Y-111242777D01*
X62874500Y-111479941D01*
X49348963Y-111479941D01*
X49421246Y-111394811D01*
X49470158Y-111337205D01*
X49470165Y-111337197D01*
X49944320Y-110718219D01*
X50386764Y-110076192D01*
X50796380Y-109412738D01*
X51172132Y-108729535D01*
X51513069Y-108028309D01*
X51818331Y-107310833D01*
X52087145Y-106578921D01*
X52318832Y-105834423D01*
X52512806Y-105079221D01*
X52668577Y-104315224D01*
X52785751Y-103544363D01*
X52864032Y-102768588D01*
X52864471Y-102759860D01*
X52864835Y-102752645D01*
X52864835Y-102752644D01*
X52903222Y-101989871D01*
X52903222Y-101210129D01*
X52864032Y-100431411D01*
X52864030Y-100431384D01*
X52843843Y-100231330D01*
X52785754Y-99655664D01*
X52785751Y-99655638D01*
X52774686Y-99582842D01*
X52668577Y-98884776D01*
X52547308Y-98290000D01*
X52512811Y-98120803D01*
X52512810Y-98120799D01*
X52512806Y-98120779D01*
X52318832Y-97365577D01*
X52171503Y-96892155D01*
X86926000Y-96892155D01*
X86926000Y-97540000D01*
X87842988Y-97540000D01*
X87810075Y-97597007D01*
X87776000Y-97724174D01*
X87776000Y-97855826D01*
X87810075Y-97982993D01*
X87842988Y-98040000D01*
X86926000Y-98040000D01*
X86926000Y-98687844D01*
X86932401Y-98747372D01*
X86932403Y-98747379D01*
X86982645Y-98882086D01*
X86982649Y-98882093D01*
X87068809Y-98997187D01*
X87068812Y-98997190D01*
X87183906Y-99083350D01*
X87183913Y-99083354D01*
X87318620Y-99133596D01*
X87318619Y-99133596D01*
X87401444Y-99142501D01*
X87401116Y-99145550D01*
X87418014Y-99144642D01*
X87477196Y-99177642D01*
X88146591Y-99847037D01*
X88083007Y-99864075D01*
X87968993Y-99929901D01*
X87875901Y-100022993D01*
X87810075Y-100137007D01*
X87793037Y-100200591D01*
X87160728Y-99568282D01*
X87160727Y-99568282D01*
X87121380Y-99622439D01*
X87024904Y-99811782D01*
X86959242Y-100013869D01*
X86959242Y-100013872D01*
X86926000Y-100223753D01*
X86926000Y-100436246D01*
X86959242Y-100646127D01*
X86959242Y-100646130D01*
X87024904Y-100848217D01*
X87121375Y-101037550D01*
X87160728Y-101091716D01*
X87793037Y-100459408D01*
X87810075Y-100522993D01*
X87875901Y-100637007D01*
X87968993Y-100730099D01*
X88083007Y-100795925D01*
X88146591Y-100812962D01*
X87545971Y-101413581D01*
X87624711Y-101530895D01*
X87625920Y-101534729D01*
X87628844Y-101537491D01*
X87636343Y-101567778D01*
X87645727Y-101597529D01*
X87644671Y-101601408D01*
X87645638Y-101605312D01*
X87635573Y-101634844D01*
X87627383Y-101664947D01*
X87624397Y-101667640D01*
X87623100Y-101671447D01*
X87578051Y-101710483D01*
X87568440Y-101715380D01*
X87514282Y-101754727D01*
X87514282Y-101754728D01*
X88146591Y-102387037D01*
X88083007Y-102404075D01*
X87968993Y-102469901D01*
X87875901Y-102562993D01*
X87810075Y-102677007D01*
X87793037Y-102740591D01*
X87160728Y-102108282D01*
X87160727Y-102108282D01*
X87121380Y-102162439D01*
X87024904Y-102351782D01*
X86959242Y-102553869D01*
X86959242Y-102553872D01*
X86926000Y-102763753D01*
X86926000Y-102976246D01*
X86959242Y-103186127D01*
X86959242Y-103186130D01*
X87024904Y-103388217D01*
X87121375Y-103577550D01*
X87160728Y-103631716D01*
X87793037Y-102999408D01*
X87810075Y-103062993D01*
X87875901Y-103177007D01*
X87968993Y-103270099D01*
X88083007Y-103335925D01*
X88146591Y-103352962D01*
X87545971Y-103953581D01*
X87624711Y-104070895D01*
X87625920Y-104074729D01*
X87628844Y-104077491D01*
X87636343Y-104107778D01*
X87645727Y-104137529D01*
X87644671Y-104141408D01*
X87645638Y-104145312D01*
X87635573Y-104174844D01*
X87627383Y-104204947D01*
X87624397Y-104207640D01*
X87623100Y-104211447D01*
X87578051Y-104250483D01*
X87568440Y-104255380D01*
X87514282Y-104294727D01*
X87514282Y-104294728D01*
X88146591Y-104927037D01*
X88083007Y-104944075D01*
X87968993Y-105009901D01*
X87875901Y-105102993D01*
X87810075Y-105217007D01*
X87793037Y-105280591D01*
X87160728Y-104648282D01*
X87160727Y-104648282D01*
X87121380Y-104702439D01*
X87024904Y-104891782D01*
X86959242Y-105093869D01*
X86959242Y-105093872D01*
X86926000Y-105303753D01*
X86926000Y-105516246D01*
X86959242Y-105726127D01*
X86959242Y-105726130D01*
X87024904Y-105928217D01*
X87121375Y-106117550D01*
X87160728Y-106171716D01*
X87793037Y-105539408D01*
X87810075Y-105602993D01*
X87875901Y-105717007D01*
X87968993Y-105810099D01*
X88083007Y-105875925D01*
X88146590Y-105892962D01*
X87514282Y-106525269D01*
X87514282Y-106525270D01*
X87568449Y-106564624D01*
X87757782Y-106661095D01*
X87959870Y-106726757D01*
X88169754Y-106760000D01*
X88382246Y-106760000D01*
X88592127Y-106726757D01*
X88592130Y-106726757D01*
X88794217Y-106661095D01*
X88983554Y-106564622D01*
X89037716Y-106525270D01*
X89037717Y-106525270D01*
X88405408Y-105892962D01*
X88468993Y-105875925D01*
X88583007Y-105810099D01*
X88676099Y-105717007D01*
X88741925Y-105602993D01*
X88758962Y-105539408D01*
X89391270Y-106171717D01*
X89391270Y-106171716D01*
X89430622Y-106117554D01*
X89527095Y-105928217D01*
X89592757Y-105726130D01*
X89592757Y-105726127D01*
X89626000Y-105516246D01*
X89626000Y-105303753D01*
X89592757Y-105093872D01*
X89592757Y-105093869D01*
X89527095Y-104891782D01*
X89430624Y-104702449D01*
X89391270Y-104648282D01*
X89391269Y-104648282D01*
X88758962Y-105280590D01*
X88741925Y-105217007D01*
X88676099Y-105102993D01*
X88583007Y-105009901D01*
X88468993Y-104944075D01*
X88405409Y-104927037D01*
X89037716Y-104294728D01*
X88983550Y-104255375D01*
X88973954Y-104250486D01*
X88923157Y-104202512D01*
X88906361Y-104134692D01*
X88928897Y-104068556D01*
X88973954Y-104029514D01*
X88983554Y-104024622D01*
X89037716Y-103985270D01*
X89037717Y-103985270D01*
X88405408Y-103352962D01*
X88468993Y-103335925D01*
X88583007Y-103270099D01*
X88676099Y-103177007D01*
X88741925Y-103062993D01*
X88758962Y-102999408D01*
X89391270Y-103631717D01*
X89391270Y-103631716D01*
X89430622Y-103577554D01*
X89527095Y-103388217D01*
X89592757Y-103186130D01*
X89592757Y-103186127D01*
X89626000Y-102976246D01*
X89626000Y-102763753D01*
X89592757Y-102553872D01*
X89592757Y-102553869D01*
X89527095Y-102351782D01*
X89430624Y-102162449D01*
X89391270Y-102108282D01*
X89391269Y-102108282D01*
X88758962Y-102740590D01*
X88741925Y-102677007D01*
X88676099Y-102562993D01*
X88583007Y-102469901D01*
X88468993Y-102404075D01*
X88405409Y-102387037D01*
X89037716Y-101754728D01*
X88983550Y-101715375D01*
X88973954Y-101710486D01*
X88923157Y-101662512D01*
X88906361Y-101594692D01*
X88928897Y-101528556D01*
X88973954Y-101489514D01*
X88983554Y-101484622D01*
X89037716Y-101445270D01*
X89037717Y-101445270D01*
X88405408Y-100812962D01*
X88468993Y-100795925D01*
X88583007Y-100730099D01*
X88676099Y-100637007D01*
X88741925Y-100522993D01*
X88758962Y-100459408D01*
X89391270Y-101091717D01*
X89391270Y-101091716D01*
X89430622Y-101037554D01*
X89527095Y-100848217D01*
X89592757Y-100646130D01*
X89592757Y-100646127D01*
X89626000Y-100436246D01*
X89626000Y-100223753D01*
X89592757Y-100013872D01*
X89592757Y-100013869D01*
X89527095Y-99811782D01*
X89430624Y-99622449D01*
X89391270Y-99568282D01*
X89391269Y-99568282D01*
X88758962Y-100200590D01*
X88741925Y-100137007D01*
X88676099Y-100022993D01*
X88583007Y-99929901D01*
X88468993Y-99864075D01*
X88405409Y-99847037D01*
X89074802Y-99177642D01*
X89136125Y-99144157D01*
X89150833Y-99145078D01*
X89150556Y-99142501D01*
X89233375Y-99133598D01*
X89368086Y-99083354D01*
X89368093Y-99083350D01*
X89483187Y-98997190D01*
X89483190Y-98997187D01*
X89569350Y-98882093D01*
X89569354Y-98882086D01*
X89619596Y-98747379D01*
X89619598Y-98747372D01*
X89625999Y-98687844D01*
X89626000Y-98687827D01*
X89626000Y-98040000D01*
X88709012Y-98040000D01*
X88741925Y-97982993D01*
X88776000Y-97855826D01*
X88776000Y-97724174D01*
X88741925Y-97597007D01*
X88709012Y-97540000D01*
X89626000Y-97540000D01*
X89626000Y-96892172D01*
X89625999Y-96892155D01*
X89619598Y-96832627D01*
X89619596Y-96832620D01*
X89569354Y-96697913D01*
X89569350Y-96697906D01*
X89483190Y-96582812D01*
X89483187Y-96582809D01*
X89368093Y-96496649D01*
X89368086Y-96496645D01*
X89233379Y-96446403D01*
X89233372Y-96446401D01*
X89173844Y-96440000D01*
X88526000Y-96440000D01*
X88526000Y-97356988D01*
X88468993Y-97324075D01*
X88341826Y-97290000D01*
X88210174Y-97290000D01*
X88083007Y-97324075D01*
X88026000Y-97356988D01*
X88026000Y-96440000D01*
X87378155Y-96440000D01*
X87318627Y-96446401D01*
X87318620Y-96446403D01*
X87183913Y-96496645D01*
X87183906Y-96496649D01*
X87068812Y-96582809D01*
X87068809Y-96582812D01*
X86982649Y-96697906D01*
X86982645Y-96697913D01*
X86932403Y-96832620D01*
X86932401Y-96832627D01*
X86926000Y-96892155D01*
X52171503Y-96892155D01*
X52152976Y-96832620D01*
X52087147Y-96621085D01*
X52087145Y-96621079D01*
X51818331Y-95889167D01*
X51513069Y-95171691D01*
X51172132Y-94470465D01*
X51172130Y-94470462D01*
X51172126Y-94470453D01*
X51172120Y-94470442D01*
X50796379Y-93787261D01*
X50386765Y-93123809D01*
X49944340Y-92481809D01*
X49944332Y-92481799D01*
X49944320Y-92481781D01*
X49470165Y-91862803D01*
X49470163Y-91862801D01*
X49470158Y-91862794D01*
X49209091Y-91555327D01*
X49145082Y-91479941D01*
X62874500Y-91479941D01*
X62874500Y-91484312D01*
X62874500Y-91720059D01*
X62910003Y-91944215D01*
X62912063Y-91957222D01*
X62986265Y-92185593D01*
X63095276Y-92399536D01*
X63236414Y-92593796D01*
X63406204Y-92763586D01*
X63600464Y-92904724D01*
X63701543Y-92956226D01*
X63814406Y-93013734D01*
X63814408Y-93013734D01*
X63814411Y-93013736D01*
X64042778Y-93087937D01*
X64279941Y-93125500D01*
X64279942Y-93125500D01*
X64520058Y-93125500D01*
X64520059Y-93125500D01*
X64757222Y-93087937D01*
X64985589Y-93013736D01*
X65199536Y-92904724D01*
X65393796Y-92763586D01*
X65563586Y-92593796D01*
X65704724Y-92399536D01*
X65813736Y-92185589D01*
X65887937Y-91957222D01*
X65925500Y-91720059D01*
X65925500Y-91479941D01*
X65887937Y-91242778D01*
X65813736Y-91014411D01*
X65813734Y-91014408D01*
X65813734Y-91014406D01*
X65719557Y-90829576D01*
X65704724Y-90800464D01*
X65563586Y-90606204D01*
X65393796Y-90436414D01*
X65199536Y-90295276D01*
X64985593Y-90186265D01*
X64757222Y-90112063D01*
X64520059Y-90074500D01*
X64279941Y-90074500D01*
X64161359Y-90093281D01*
X64042777Y-90112063D01*
X63814406Y-90186265D01*
X63600463Y-90295276D01*
X63406201Y-90436416D01*
X63236416Y-90606201D01*
X63095276Y-90800463D01*
X62986265Y-91014406D01*
X62912063Y-91242777D01*
X62901095Y-91312026D01*
X62874500Y-91479941D01*
X49145082Y-91479941D01*
X48965507Y-91268450D01*
X48965498Y-91268440D01*
X48431596Y-90700194D01*
X47951099Y-90237740D01*
X47869817Y-90159510D01*
X47835949Y-90130045D01*
X47281551Y-89647727D01*
X47086749Y-89494753D01*
X46668324Y-89166173D01*
X46668314Y-89166166D01*
X46031656Y-88716041D01*
X46031644Y-88716033D01*
X45373198Y-88298497D01*
X45373134Y-88298458D01*
X44694539Y-87914549D01*
X44694514Y-87914535D01*
X43997453Y-87565204D01*
X43997434Y-87565196D01*
X43283705Y-87251345D01*
X42708373Y-87032157D01*
X42555070Y-86973752D01*
X42555063Y-86973749D01*
X42555048Y-86973744D01*
X41813409Y-86733133D01*
X41060600Y-86530099D01*
X41060597Y-86530098D01*
X40298532Y-86365158D01*
X39529131Y-86238727D01*
X39529121Y-86238726D01*
X38754344Y-86151128D01*
X37976150Y-86102583D01*
X37196484Y-86093211D01*
X36417369Y-86123039D01*
X36417333Y-86123041D01*
X35640680Y-86191993D01*
X35640663Y-86191995D01*
X34868463Y-86299895D01*
X34102664Y-86446470D01*
X33345176Y-86631356D01*
X32597933Y-86854084D01*
X31862867Y-87114074D01*
X31862850Y-87114080D01*
X31141763Y-87410695D01*
X30924879Y-87512937D01*
X30855846Y-87523718D01*
X30791944Y-87495465D01*
X30759638Y-87453213D01*
X30739796Y-87410695D01*
X30601376Y-87114078D01*
X30601385Y-87114073D01*
X30599034Y-87108743D01*
X30516757Y-86908644D01*
X30461743Y-86774851D01*
X30457872Y-86764030D01*
X30353041Y-86421592D01*
X30350186Y-86410437D01*
X30327313Y-86299895D01*
X30277623Y-86059751D01*
X30275818Y-86048387D01*
X30236149Y-85692478D01*
X30235407Y-85680975D01*
X30232210Y-85503028D01*
X30228974Y-85322926D01*
X30229302Y-85311431D01*
X30256162Y-84954313D01*
X30257561Y-84942875D01*
X30317478Y-84589815D01*
X30319926Y-84578583D01*
X30412390Y-84232600D01*
X30415882Y-84221613D01*
X30485621Y-84033015D01*
X30540081Y-83885736D01*
X30544564Y-83875153D01*
X30699438Y-83552246D01*
X30704891Y-83542113D01*
X30889101Y-83234983D01*
X30895458Y-83225422D01*
X31107414Y-82936719D01*
X31114620Y-82927804D01*
X31352472Y-82660049D01*
X31360514Y-82651804D01*
X31622185Y-82407331D01*
X31630943Y-82399879D01*
X31914234Y-82180742D01*
X31923631Y-82174149D01*
X32226025Y-81982298D01*
X32236019Y-81976591D01*
X32554937Y-81813658D01*
X32565426Y-81808902D01*
X32900717Y-81675259D01*
X32906025Y-81673284D01*
X32911262Y-81671474D01*
X32911265Y-81671474D01*
X32911265Y-81671473D01*
X45566803Y-77297440D01*
X50384603Y-75632302D01*
X50425109Y-75625500D01*
X51233768Y-75625500D01*
X51300807Y-75645185D01*
G37*
G04 #@! TD.AperFunction*
G04 #@! TA.AperFunction,Conductor*
G36*
X59362075Y-126176993D02*
G01*
X59427901Y-126291007D01*
X59520993Y-126384099D01*
X59635007Y-126449925D01*
X59698590Y-126466962D01*
X59066282Y-127099269D01*
X59066282Y-127099270D01*
X59120449Y-127138624D01*
X59309782Y-127235095D01*
X59511870Y-127300757D01*
X59662376Y-127324595D01*
X59725510Y-127354524D01*
X59762442Y-127413835D01*
X59761444Y-127483698D01*
X59722834Y-127541931D01*
X59658871Y-127570045D01*
X59642889Y-127571068D01*
X57482770Y-127569510D01*
X57415744Y-127549777D01*
X57370028Y-127496940D01*
X57360134Y-127427774D01*
X57389205Y-127364240D01*
X57448010Y-127326508D01*
X57463461Y-127323037D01*
X57604127Y-127300757D01*
X57604130Y-127300757D01*
X57806217Y-127235095D01*
X57995554Y-127138622D01*
X58049716Y-127099270D01*
X58049717Y-127099270D01*
X57417408Y-126466962D01*
X57480993Y-126449925D01*
X57595007Y-126384099D01*
X57688099Y-126291007D01*
X57753925Y-126176993D01*
X57770962Y-126113409D01*
X58403270Y-126745717D01*
X58403270Y-126745716D01*
X58442622Y-126691554D01*
X58447514Y-126681954D01*
X58495488Y-126631157D01*
X58563308Y-126614361D01*
X58629444Y-126636897D01*
X58668486Y-126681954D01*
X58673375Y-126691550D01*
X58712728Y-126745716D01*
X59345037Y-126113408D01*
X59362075Y-126176993D01*
G37*
G04 #@! TD.AperFunction*
G04 #@! TA.AperFunction,Conductor*
G36*
X56822075Y-126176993D02*
G01*
X56887901Y-126291007D01*
X56980993Y-126384099D01*
X57095007Y-126449925D01*
X57158590Y-126466962D01*
X56526282Y-127099269D01*
X56526282Y-127099270D01*
X56580449Y-127138624D01*
X56769782Y-127235095D01*
X56971869Y-127300757D01*
X56971874Y-127300758D01*
X57110753Y-127322754D01*
X57173888Y-127352683D01*
X57210820Y-127411994D01*
X57209822Y-127481857D01*
X57171213Y-127540090D01*
X57107249Y-127568204D01*
X57091267Y-127569227D01*
X54954287Y-127567686D01*
X54887261Y-127547953D01*
X54841545Y-127495116D01*
X54831651Y-127425950D01*
X54860722Y-127362416D01*
X54919527Y-127324684D01*
X54934978Y-127321213D01*
X55064127Y-127300757D01*
X55064130Y-127300757D01*
X55266217Y-127235095D01*
X55455554Y-127138622D01*
X55509716Y-127099270D01*
X55509717Y-127099270D01*
X54877408Y-126466962D01*
X54940993Y-126449925D01*
X55055007Y-126384099D01*
X55148099Y-126291007D01*
X55213925Y-126176993D01*
X55230962Y-126113408D01*
X55863270Y-126745717D01*
X55863270Y-126745716D01*
X55902622Y-126691554D01*
X55907514Y-126681954D01*
X55955488Y-126631157D01*
X56023308Y-126614361D01*
X56089444Y-126636897D01*
X56128486Y-126681954D01*
X56133375Y-126691550D01*
X56172728Y-126745716D01*
X56805037Y-126113408D01*
X56822075Y-126176993D01*
G37*
G04 #@! TD.AperFunction*
G04 #@! TA.AperFunction,Conductor*
G36*
X54282075Y-126176993D02*
G01*
X54347901Y-126291007D01*
X54440993Y-126384099D01*
X54555007Y-126449925D01*
X54618590Y-126466962D01*
X53986282Y-127099269D01*
X53986282Y-127099270D01*
X54040449Y-127138624D01*
X54229782Y-127235095D01*
X54431870Y-127300757D01*
X54559133Y-127320914D01*
X54622268Y-127350843D01*
X54659199Y-127410155D01*
X54658201Y-127480017D01*
X54619591Y-127538250D01*
X54555628Y-127566364D01*
X54539646Y-127567387D01*
X53212241Y-127566429D01*
X53145215Y-127546696D01*
X53099498Y-127493859D01*
X53089605Y-127424693D01*
X53118676Y-127361159D01*
X53168997Y-127326247D01*
X53300086Y-127277354D01*
X53300093Y-127277350D01*
X53415187Y-127191190D01*
X53415190Y-127191187D01*
X53501350Y-127076093D01*
X53501354Y-127076086D01*
X53551598Y-126941375D01*
X53560501Y-126858556D01*
X53563550Y-126858883D01*
X53562642Y-126841984D01*
X53595642Y-126782802D01*
X54265037Y-126113408D01*
X54282075Y-126176993D01*
G37*
G04 #@! TD.AperFunction*
G04 #@! TA.AperFunction,Conductor*
G36*
X54651683Y-75645185D02*
G01*
X54697438Y-75697989D01*
X54707382Y-75767147D01*
X54678357Y-75830703D01*
X54619579Y-75868477D01*
X54604042Y-75871973D01*
X54431872Y-75899242D01*
X54431869Y-75899242D01*
X54229782Y-75964904D01*
X54040439Y-76061380D01*
X53986282Y-76100727D01*
X53986282Y-76100728D01*
X54618591Y-76733037D01*
X54555007Y-76750075D01*
X54440993Y-76815901D01*
X54347901Y-76908993D01*
X54282075Y-77023007D01*
X54265037Y-77086591D01*
X53595642Y-76417196D01*
X53562157Y-76355873D01*
X53563077Y-76341166D01*
X53560501Y-76341444D01*
X53551596Y-76258619D01*
X53501354Y-76123913D01*
X53501350Y-76123906D01*
X53415190Y-76008812D01*
X53415187Y-76008809D01*
X53300093Y-75922649D01*
X53300086Y-75922645D01*
X53165379Y-75872403D01*
X53157832Y-75870620D01*
X53158358Y-75868391D01*
X53104425Y-75846051D01*
X53064577Y-75788659D01*
X53062084Y-75718833D01*
X53097737Y-75658745D01*
X53160216Y-75627470D01*
X53182232Y-75625500D01*
X54584644Y-75625500D01*
X54651683Y-75645185D01*
G37*
G04 #@! TD.AperFunction*
G04 #@! TA.AperFunction,Conductor*
G36*
X57191683Y-75645185D02*
G01*
X57237438Y-75697989D01*
X57247382Y-75767147D01*
X57218357Y-75830703D01*
X57159579Y-75868477D01*
X57144042Y-75871973D01*
X56971872Y-75899242D01*
X56971869Y-75899242D01*
X56769782Y-75964904D01*
X56580439Y-76061380D01*
X56526282Y-76100727D01*
X56526282Y-76100728D01*
X57158591Y-76733037D01*
X57095007Y-76750075D01*
X56980993Y-76815901D01*
X56887901Y-76908993D01*
X56822075Y-77023007D01*
X56805037Y-77086591D01*
X56172728Y-76454282D01*
X56172727Y-76454282D01*
X56133380Y-76508440D01*
X56128483Y-76518051D01*
X56080506Y-76568845D01*
X56012684Y-76585638D01*
X55946550Y-76563098D01*
X55907516Y-76518048D01*
X55902626Y-76508452D01*
X55863270Y-76454282D01*
X55863269Y-76454282D01*
X55230962Y-77086590D01*
X55213925Y-77023007D01*
X55148099Y-76908993D01*
X55055007Y-76815901D01*
X54940993Y-76750075D01*
X54877409Y-76733037D01*
X55509716Y-76100728D01*
X55455550Y-76061375D01*
X55266217Y-75964904D01*
X55064129Y-75899242D01*
X54891958Y-75871973D01*
X54828823Y-75842044D01*
X54791892Y-75782732D01*
X54792890Y-75712870D01*
X54831500Y-75654637D01*
X54895463Y-75626523D01*
X54911356Y-75625500D01*
X57124644Y-75625500D01*
X57191683Y-75645185D01*
G37*
G04 #@! TD.AperFunction*
G04 #@! TA.AperFunction,Conductor*
G36*
X59731683Y-75645185D02*
G01*
X59777438Y-75697989D01*
X59787382Y-75767147D01*
X59758357Y-75830703D01*
X59699579Y-75868477D01*
X59684042Y-75871973D01*
X59511872Y-75899242D01*
X59511869Y-75899242D01*
X59309782Y-75964904D01*
X59120439Y-76061380D01*
X59066282Y-76100727D01*
X59066282Y-76100728D01*
X59698591Y-76733037D01*
X59635007Y-76750075D01*
X59520993Y-76815901D01*
X59427901Y-76908993D01*
X59362075Y-77023007D01*
X59345037Y-77086591D01*
X58712728Y-76454282D01*
X58712727Y-76454282D01*
X58673380Y-76508440D01*
X58668483Y-76518051D01*
X58620506Y-76568845D01*
X58552684Y-76585638D01*
X58486550Y-76563098D01*
X58447516Y-76518048D01*
X58442626Y-76508452D01*
X58403270Y-76454282D01*
X58403269Y-76454282D01*
X57770962Y-77086590D01*
X57753925Y-77023007D01*
X57688099Y-76908993D01*
X57595007Y-76815901D01*
X57480993Y-76750075D01*
X57417409Y-76733037D01*
X58049716Y-76100728D01*
X57995550Y-76061375D01*
X57806217Y-75964904D01*
X57604129Y-75899242D01*
X57431958Y-75871973D01*
X57368823Y-75842044D01*
X57331892Y-75782732D01*
X57332890Y-75712870D01*
X57371500Y-75654637D01*
X57435463Y-75626523D01*
X57451356Y-75625500D01*
X59664644Y-75625500D01*
X59731683Y-75645185D01*
G37*
G04 #@! TD.AperFunction*
M02*
