M48
; DRILL file {KiCad 9.0.2} date 2025-09-19T14:43:53-0400
; FORMAT={-:-/ absolute / metric / decimal}
; #@! TF.CreationDate,2025-09-19T14:43:53-04:00
; #@! TF.GenerationSoftware,Kicad,Pcbnew,9.0.2
; #@! TF.FileFunction,Plated,1,2,PTH
FMAT,2
METRIC
; #@! TA.AperFunction,Plated,PTH,ViaDrill
T1C0.400
; #@! TA.AperFunction,Plated,PTH,ComponentDrill
T2C1.000
; #@! TA.AperFunction,Plated,PTH,ComponentDrill
T3C2.500
%
G90
G05
T1
X192.4Y-86.6
X192.4Y-116.6
X197.4Y-61.6
X197.4Y-66.6
X197.4Y-86.6
X197.4Y-116.6
X197.4Y-136.6
X197.4Y-141.6
X202.4Y-61.6
X202.4Y-66.6
X202.4Y-86.6
X202.4Y-91.6
X202.4Y-111.6
X202.4Y-116.6
X202.4Y-136.6
X202.4Y-141.6
X207.4Y-61.6
X207.4Y-66.6
X207.4Y-91.6
X207.4Y-96.6
X207.4Y-101.6
X207.4Y-106.6
X207.4Y-111.6
X207.4Y-136.6
X207.4Y-141.6
X212.15Y-61.1
X217.15Y-139.85
X229.15Y-69.35
X234.15Y-131.6
X242.4Y-86.6
X242.4Y-91.6
X242.4Y-111.6
X242.4Y-116.6
X247.4Y-86.6
X247.4Y-91.6
X247.4Y-111.6
X247.4Y-116.6
X252.4Y-86.6
X252.4Y-91.6
X252.4Y-111.6
X252.4Y-116.6
T2
X197.774Y-75.424
X197.774Y-127.786
X199.57Y-77.22
X199.57Y-125.99
X201.366Y-79.016
X201.366Y-124.194
X203.162Y-80.812
X203.162Y-122.398
X236.148Y-77.216
X236.148Y-125.984
X238.688Y-77.216
X238.688Y-125.984
X241.228Y-77.216
X241.228Y-125.984
X243.768Y-77.216
X243.768Y-125.984
T3
X184.7Y-101.6
M30
