M48
; DRILL file {KiCad 9.0.2} date 2025-08-20T20:15:01-0400
; FORMAT={-:-/ absolute / metric / decimal}
; #@! TF.CreationDate,2025-08-20T20:15:01-04:00
; #@! TF.GenerationSoftware,Kicad,Pcbnew,9.0.2
; #@! TF.FileFunction,NonPlated,1,2,NPTH
FMAT,2
METRIC
; #@! TA.AperFunction,NonPlated,NPTH,ComponentDrill
T1C1.702
; #@! TA.AperFunction,NonPlated,NPTH,ComponentDrill
T2C3.000
; #@! TA.AperFunction,NonPlated,NPTH,ComponentDrill
T3C3.429
%
G90
G05
T1
X193.959Y-97.875
X201.424Y-79.011
X201.737Y-90.097
X202.609Y-120.889
X209.203Y-71.232
X210.387Y-113.111
X220.289Y-71.545
X228.067Y-63.767
X243.303Y-80.195
X251.081Y-72.417
T2
X196.964Y-100.173
X202.055Y-98.193
X202.291Y-112.793
X204.43Y-81.309
X207.382Y-110.813
X209.521Y-79.329
X223.294Y-73.843
X228.385Y-71.863
X242.985Y-72.099
X248.076Y-70.119
T3
X197.848Y-93.986
X205.313Y-75.122
X206.498Y-117.0
X224.178Y-67.656
X247.192Y-76.306
M30
