M48
; DRILL file {KiCad 9.0.2} date 2025-10-01T13:07:51-0400
; FORMAT={-:-/ absolute / metric / decimal}
; #@! TF.CreationDate,2025-10-01T13:07:51-04:00
; #@! TF.GenerationSoftware,Kicad,Pcbnew,9.0.2
; #@! TF.FileFunction,NonPlated,1,2,NPTH
FMAT,2
METRIC
; #@! TA.AperFunction,NonPlated,NPTH,ComponentDrill
T1C1.702
; #@! TA.AperFunction,NonPlated,NPTH,ComponentDrill
T2C3.000
; #@! TA.AperFunction,NonPlated,NPTH,ComponentDrill
T3C3.429
%
G90
G05
T1
X189.239Y-117.801
X197.017Y-125.58
X209.462Y-123.882
X217.24Y-131.661
X254.293Y-52.748
X260.374Y-72.971
X262.071Y-60.526
X268.152Y-80.749
T2
X197.335Y-117.483
X199.315Y-122.574
X217.559Y-123.564
X219.538Y-128.655
X251.995Y-55.753
X253.975Y-60.844
X258.076Y-75.976
X260.056Y-81.067
T3
X193.128Y-121.69
X213.351Y-127.772
X258.182Y-56.637
X264.263Y-76.86
M30
