M48
; DRILL file {KiCad 9.0.2} date 2025-09-19T14:43:53-0400
; FORMAT={-:-/ absolute / metric / decimal}
; #@! TF.CreationDate,2025-09-19T14:43:53-04:00
; #@! TF.GenerationSoftware,Kicad,Pcbnew,9.0.2
; #@! TF.FileFunction,NonPlated,1,2,NPTH
FMAT,2
METRIC
; #@! TA.AperFunction,NonPlated,NPTH,ComponentDrill
T1C1.702
; #@! TA.AperFunction,NonPlated,NPTH,ComponentDrill
T2C3.000
; #@! TA.AperFunction,NonPlated,NPTH,ComponentDrill
T3C3.429
%
G90
G05
T1
X214.9Y-55.6
X214.9Y-147.6
X225.9Y-55.6
X225.9Y-147.6
X233.5Y-65.6
X233.5Y-137.6
X244.5Y-65.6
X244.5Y-137.6
T2
X215.4Y-59.35
X220.4Y-61.55
X220.4Y-141.65
X225.4Y-143.85
X234.0Y-69.35
X239.0Y-71.55
X239.0Y-131.65
X244.0Y-133.85
T3
X220.4Y-55.6
X220.4Y-147.6
X239.0Y-65.6
X239.0Y-137.6
M30
