M48
; DRILL file {KiCad 9.0.2} date 2025-08-20T20:15:01-0400
; FORMAT={-:-/ absolute / metric / decimal}
; #@! TF.CreationDate,2025-08-20T20:15:01-04:00
; #@! TF.GenerationSoftware,Kicad,Pcbnew,9.0.2
; #@! TF.FileFunction,Plated,1,2,PTH
FMAT,2
METRIC
; #@! TA.AperFunction,Plated,PTH,ViaDrill
T1C0.400
; #@! TA.AperFunction,Plated,PTH,ComponentDrill
T2C1.000
%
G90
G05
T1
X198.992Y-112.938
X213.374Y-78.374
X214.152Y-84.102
X228.507Y-78.516
X239.417Y-72.937
X258.983Y-129.074
T2
X201.953Y-104.809
X203.749Y-103.013
X205.545Y-101.217
X207.341Y-99.421
X229.612Y-77.15
X231.408Y-75.353
X232.145Y-101.917
X233.205Y-73.557
X233.941Y-103.713
X235.001Y-71.761
X235.737Y-105.509
X236.437Y-139.293
X237.533Y-107.306
X238.233Y-137.497
X239.329Y-109.102
X240.03Y-135.701
X241.826Y-133.905
X264.097Y-111.634
X265.893Y-109.838
X267.689Y-108.042
X269.485Y-106.246
M30
