M48
; DRILL file {KiCad 9.0.2} date 2025-10-01T13:07:51-0400
; FORMAT={-:-/ absolute / metric / decimal}
; #@! TF.CreationDate,2025-10-01T13:07:51-04:00
; #@! TF.GenerationSoftware,Kicad,Pcbnew,9.0.2
; #@! TF.FileFunction,Plated,1,2,PTH
FMAT,2
METRIC
; #@! TA.AperFunction,Plated,PTH,ViaDrill
T1C0.400
; #@! TA.AperFunction,Plated,PTH,ComponentDrill
T2C1.000
; #@! TA.AperFunction,Plated,PTH,ComponentDrill
T3C2.500
; #@! TA.AperFunction,Plated,PTH,ComponentDrill
T4C3.500
%
G90
G05
T1
X181.107Y-101.184
X184.643Y-97.649
X184.643Y-104.72
X188.178Y-101.184
X188.178Y-108.255
X191.714Y-104.72
X195.249Y-79.971
X196.31Y-113.912
X198.785Y-83.507
X202.32Y-87.042
X205.856Y-83.507
X209.391Y-87.042
X212.927Y-83.507
X214.164Y-120.099
X216.463Y-58.758
X216.463Y-79.971
X219.998Y-62.293
X219.998Y-69.365
X219.998Y-76.436
X223.534Y-65.829
X223.534Y-72.9
X230.605Y-115.326
X234.14Y-48.151
X234.14Y-111.791
X234.14Y-118.862
X237.676Y-44.616
X237.676Y-51.687
X237.676Y-115.326
X237.676Y-122.398
X241.211Y-48.151
X241.211Y-55.222
X241.211Y-118.862
X244.747Y-51.687
X248.282Y-97.649
X248.459Y-54.692
X251.818Y-94.113
X251.818Y-101.184
X254.646Y-72.547
X255.353Y-97.649
X255.353Y-104.72
X258.889Y-101.184
T2
X191.14Y-91.681
X193.68Y-91.681
X196.22Y-91.681
X198.76Y-91.681
X219.548Y-117.541
X221.344Y-119.337
X223.14Y-121.133
X224.936Y-122.929
X228.165Y-54.655
X228.165Y-57.195
X228.165Y-59.735
X228.165Y-62.275
X254.033Y-83.057
X255.829Y-84.853
X257.625Y-86.649
X259.421Y-88.445
T3
X200.411Y-63.92
T4
X205.149Y-94.113
X230.605Y-68.657
M30
