G04 #@! TF.GenerationSoftware,KiCad,Pcbnew,9.0.2*
G04 #@! TF.CreationDate,2025-10-01T13:07:48-04:00*
G04 #@! TF.ProjectId,Trackball,54726163-6b62-4616-9c6c-2e6b69636164,rev?*
G04 #@! TF.SameCoordinates,Original*
G04 #@! TF.FileFunction,Soldermask,Top*
G04 #@! TF.FilePolarity,Negative*
%FSLAX46Y46*%
G04 Gerber Fmt 4.6, Leading zero omitted, Abs format (unit mm)*
G04 Created by KiCad (PCBNEW 9.0.2) date 2025-10-01 13:07:48*
%MOMM*%
%LPD*%
G01*
G04 APERTURE LIST*
G04 APERTURE END LIST*
G36*
X217502140Y-130797595D02*
G01*
X217665485Y-130865254D01*
X217812491Y-130963481D01*
X217937510Y-131088500D01*
X218035737Y-131235506D01*
X218103396Y-131398851D01*
X218137889Y-131572257D01*
X218137889Y-131749061D01*
X218103396Y-131922467D01*
X218035737Y-132085812D01*
X217937510Y-132232818D01*
X217812491Y-132357837D01*
X217665485Y-132456064D01*
X217502140Y-132523723D01*
X217328734Y-132558216D01*
X217151930Y-132558216D01*
X216978524Y-132523723D01*
X216815179Y-132456064D01*
X216668173Y-132357837D01*
X216543154Y-132232818D01*
X216444927Y-132085812D01*
X216377268Y-131922467D01*
X216342775Y-131749061D01*
X216342775Y-131572257D01*
X216377268Y-131398851D01*
X216444927Y-131235506D01*
X216543154Y-131088500D01*
X216668173Y-130963481D01*
X216815179Y-130865254D01*
X216978524Y-130797595D01*
X217151930Y-130763102D01*
X217328734Y-130763102D01*
X217502140Y-130797595D01*
G37*
G36*
X219648911Y-127109236D02*
G01*
X219660119Y-127109236D01*
X219715317Y-127117978D01*
X219840963Y-127134520D01*
X219871618Y-127142734D01*
X219900503Y-127147309D01*
X219956049Y-127165357D01*
X220036896Y-127187020D01*
X220088479Y-127208386D01*
X220131971Y-127222518D01*
X220172715Y-127243278D01*
X220224299Y-127264645D01*
X220296782Y-127306493D01*
X220348824Y-127333010D01*
X220372484Y-127350200D01*
X220399968Y-127366068D01*
X220500503Y-127443211D01*
X220545723Y-127476065D01*
X220553648Y-127483990D01*
X220560895Y-127489551D01*
X220704332Y-127632988D01*
X220709892Y-127640234D01*
X220717819Y-127648161D01*
X220750676Y-127693385D01*
X220827815Y-127793915D01*
X220843681Y-127821396D01*
X220860874Y-127845060D01*
X220887393Y-127897107D01*
X220929238Y-127969584D01*
X220950602Y-128021161D01*
X220971366Y-128061913D01*
X220985499Y-128105410D01*
X221006863Y-128156987D01*
X221028522Y-128237821D01*
X221046575Y-128293381D01*
X221051150Y-128322271D01*
X221059363Y-128352920D01*
X221075903Y-128478554D01*
X221084648Y-128533765D01*
X221084648Y-128544973D01*
X221085841Y-128554035D01*
X221085841Y-128756874D01*
X221084648Y-128765935D01*
X221084648Y-128777145D01*
X221075902Y-128832360D01*
X221059363Y-128957989D01*
X221051151Y-128988635D01*
X221046575Y-129017529D01*
X221028520Y-129073093D01*
X221006863Y-129153922D01*
X220985500Y-129205494D01*
X220971366Y-129248997D01*
X220950600Y-129289752D01*
X220929238Y-129341325D01*
X220887397Y-129413793D01*
X220860874Y-129465850D01*
X220843678Y-129489517D01*
X220827815Y-129516994D01*
X220750690Y-129617505D01*
X220717819Y-129662749D01*
X220709888Y-129670679D01*
X220704332Y-129677921D01*
X220560895Y-129821358D01*
X220553653Y-129826914D01*
X220545723Y-129834845D01*
X220500479Y-129867716D01*
X220399968Y-129944841D01*
X220372491Y-129960704D01*
X220348824Y-129977900D01*
X220296767Y-130004423D01*
X220224299Y-130046264D01*
X220172726Y-130067626D01*
X220131971Y-130088392D01*
X220088468Y-130102526D01*
X220036896Y-130123889D01*
X219956067Y-130145546D01*
X219900503Y-130163601D01*
X219871609Y-130168177D01*
X219840963Y-130176389D01*
X219715331Y-130192929D01*
X219660119Y-130201674D01*
X219648910Y-130201674D01*
X219639849Y-130202867D01*
X219437009Y-130202867D01*
X219427948Y-130201674D01*
X219416739Y-130201674D01*
X219361528Y-130192929D01*
X219235894Y-130176389D01*
X219205245Y-130168176D01*
X219176355Y-130163601D01*
X219120795Y-130145548D01*
X219039961Y-130123889D01*
X218988384Y-130102525D01*
X218944887Y-130088392D01*
X218904135Y-130067628D01*
X218852558Y-130046264D01*
X218780081Y-130004419D01*
X218728034Y-129977900D01*
X218704370Y-129960707D01*
X218676889Y-129944841D01*
X218576359Y-129867702D01*
X218531135Y-129834845D01*
X218523208Y-129826918D01*
X218515962Y-129821358D01*
X218372525Y-129677921D01*
X218366964Y-129670674D01*
X218359039Y-129662749D01*
X218326185Y-129617529D01*
X218249042Y-129516994D01*
X218233174Y-129489510D01*
X218215984Y-129465850D01*
X218189467Y-129413808D01*
X218147619Y-129341325D01*
X218126252Y-129289741D01*
X218105492Y-129248997D01*
X218091360Y-129205505D01*
X218069994Y-129153922D01*
X218048331Y-129073075D01*
X218030283Y-129017529D01*
X218025708Y-128988644D01*
X218017494Y-128957989D01*
X218000953Y-128832346D01*
X217992210Y-128777145D01*
X217992210Y-128765935D01*
X217991017Y-128756874D01*
X217991017Y-128554035D01*
X217992210Y-128544973D01*
X217992210Y-128533765D01*
X218000952Y-128478568D01*
X218017494Y-128352920D01*
X218025708Y-128322262D01*
X218030283Y-128293381D01*
X218048329Y-128237838D01*
X218069994Y-128156987D01*
X218091362Y-128105399D01*
X218105492Y-128061913D01*
X218126250Y-128021172D01*
X218147619Y-127969584D01*
X218189471Y-127897092D01*
X218215984Y-127845060D01*
X218233171Y-127821403D01*
X218249042Y-127793915D01*
X218326199Y-127693361D01*
X218359039Y-127648161D01*
X218366961Y-127640238D01*
X218372525Y-127632988D01*
X218515962Y-127489551D01*
X218523212Y-127483987D01*
X218531135Y-127476065D01*
X218576335Y-127443225D01*
X218676889Y-127366068D01*
X218704377Y-127350197D01*
X218728034Y-127333010D01*
X218780066Y-127306497D01*
X218852558Y-127264645D01*
X218904146Y-127243276D01*
X218944887Y-127222518D01*
X218988373Y-127208388D01*
X219039961Y-127187020D01*
X219120812Y-127165355D01*
X219176355Y-127147309D01*
X219205236Y-127142734D01*
X219235894Y-127134520D01*
X219361542Y-127117978D01*
X219416739Y-127109236D01*
X219427947Y-127109236D01*
X219437009Y-127108043D01*
X219639849Y-127108043D01*
X219648911Y-127109236D01*
G37*
G36*
X213695677Y-126039996D02*
G01*
X213918746Y-126099767D01*
X214132106Y-126188143D01*
X214332104Y-126303612D01*
X214515320Y-126444199D01*
X214678618Y-126607497D01*
X214819205Y-126790713D01*
X214934674Y-126990711D01*
X215023050Y-127204071D01*
X215082821Y-127427140D01*
X215112965Y-127656103D01*
X215112965Y-127887041D01*
X215082821Y-128116004D01*
X215023050Y-128339073D01*
X214934674Y-128552433D01*
X214819205Y-128752431D01*
X214678618Y-128935647D01*
X214515320Y-129098945D01*
X214332104Y-129239532D01*
X214132106Y-129355001D01*
X213918746Y-129443377D01*
X213695677Y-129503148D01*
X213466714Y-129533292D01*
X213235776Y-129533292D01*
X213006813Y-129503148D01*
X212783744Y-129443377D01*
X212570384Y-129355001D01*
X212370386Y-129239532D01*
X212187170Y-129098945D01*
X212023872Y-128935647D01*
X211883285Y-128752431D01*
X211767816Y-128552433D01*
X211679440Y-128339073D01*
X211619669Y-128116004D01*
X211589525Y-127887041D01*
X211589525Y-127656103D01*
X211619669Y-127427140D01*
X211679440Y-127204071D01*
X211767816Y-126990711D01*
X211883285Y-126790713D01*
X212023872Y-126607497D01*
X212187170Y-126444199D01*
X212370386Y-126303612D01*
X212570384Y-126188143D01*
X212783744Y-126099767D01*
X213006813Y-126039996D01*
X213235776Y-126009852D01*
X213466714Y-126009852D01*
X213695677Y-126039996D01*
G37*
G36*
X197278886Y-124716477D02*
G01*
X197442231Y-124784136D01*
X197589237Y-124882363D01*
X197714256Y-125007382D01*
X197812483Y-125154388D01*
X197880142Y-125317733D01*
X197914635Y-125491139D01*
X197914635Y-125667943D01*
X197880142Y-125841349D01*
X197812483Y-126004694D01*
X197714256Y-126151700D01*
X197589237Y-126276719D01*
X197442231Y-126374946D01*
X197278886Y-126442605D01*
X197105480Y-126477098D01*
X196928676Y-126477098D01*
X196755270Y-126442605D01*
X196591925Y-126374946D01*
X196444919Y-126276719D01*
X196319900Y-126151700D01*
X196221673Y-126004694D01*
X196154014Y-125841349D01*
X196119521Y-125667943D01*
X196119521Y-125491139D01*
X196154014Y-125317733D01*
X196221673Y-125154388D01*
X196319900Y-125007382D01*
X196444919Y-124882363D01*
X196591925Y-124784136D01*
X196755270Y-124716477D01*
X196928676Y-124681984D01*
X197105480Y-124681984D01*
X197278886Y-124716477D01*
G37*
G36*
X217669012Y-122018068D02*
G01*
X217680220Y-122018068D01*
X217735418Y-122026810D01*
X217861064Y-122043352D01*
X217891719Y-122051566D01*
X217920604Y-122056141D01*
X217976150Y-122074189D01*
X218056997Y-122095852D01*
X218108580Y-122117218D01*
X218152072Y-122131350D01*
X218192816Y-122152110D01*
X218244400Y-122173477D01*
X218316883Y-122215325D01*
X218368925Y-122241842D01*
X218392585Y-122259032D01*
X218420069Y-122274900D01*
X218520604Y-122352043D01*
X218565824Y-122384897D01*
X218573749Y-122392822D01*
X218580996Y-122398383D01*
X218724433Y-122541820D01*
X218729993Y-122549066D01*
X218737920Y-122556993D01*
X218770777Y-122602217D01*
X218847916Y-122702747D01*
X218863782Y-122730228D01*
X218880975Y-122753892D01*
X218907494Y-122805939D01*
X218949339Y-122878416D01*
X218970703Y-122929993D01*
X218991467Y-122970745D01*
X219005600Y-123014242D01*
X219026964Y-123065819D01*
X219048623Y-123146653D01*
X219066676Y-123202213D01*
X219071251Y-123231103D01*
X219079464Y-123261752D01*
X219096004Y-123387386D01*
X219104749Y-123442597D01*
X219104749Y-123453805D01*
X219105942Y-123462867D01*
X219105942Y-123665706D01*
X219104749Y-123674767D01*
X219104749Y-123685977D01*
X219096003Y-123741192D01*
X219079464Y-123866821D01*
X219071252Y-123897467D01*
X219066676Y-123926361D01*
X219048621Y-123981925D01*
X219026964Y-124062754D01*
X219005601Y-124114326D01*
X218991467Y-124157829D01*
X218970701Y-124198584D01*
X218949339Y-124250157D01*
X218907498Y-124322625D01*
X218880975Y-124374682D01*
X218863779Y-124398349D01*
X218847916Y-124425826D01*
X218770791Y-124526337D01*
X218737920Y-124571581D01*
X218729989Y-124579511D01*
X218724433Y-124586753D01*
X218580996Y-124730190D01*
X218573754Y-124735746D01*
X218565824Y-124743677D01*
X218520580Y-124776548D01*
X218420069Y-124853673D01*
X218392592Y-124869536D01*
X218368925Y-124886732D01*
X218316868Y-124913255D01*
X218244400Y-124955096D01*
X218192827Y-124976458D01*
X218152072Y-124997224D01*
X218108569Y-125011358D01*
X218056997Y-125032721D01*
X217976168Y-125054378D01*
X217920604Y-125072433D01*
X217891710Y-125077009D01*
X217861064Y-125085221D01*
X217735432Y-125101761D01*
X217680220Y-125110506D01*
X217669011Y-125110506D01*
X217659950Y-125111699D01*
X217457110Y-125111699D01*
X217448049Y-125110506D01*
X217436840Y-125110506D01*
X217381629Y-125101761D01*
X217255995Y-125085221D01*
X217225346Y-125077008D01*
X217196456Y-125072433D01*
X217140896Y-125054380D01*
X217060062Y-125032721D01*
X217008485Y-125011357D01*
X216964988Y-124997224D01*
X216924236Y-124976460D01*
X216872659Y-124955096D01*
X216800182Y-124913251D01*
X216748135Y-124886732D01*
X216724471Y-124869539D01*
X216696990Y-124853673D01*
X216596460Y-124776534D01*
X216551236Y-124743677D01*
X216543309Y-124735750D01*
X216536063Y-124730190D01*
X216392626Y-124586753D01*
X216387065Y-124579506D01*
X216379140Y-124571581D01*
X216346286Y-124526361D01*
X216269143Y-124425826D01*
X216253275Y-124398342D01*
X216236085Y-124374682D01*
X216209568Y-124322640D01*
X216167720Y-124250157D01*
X216146353Y-124198573D01*
X216125593Y-124157829D01*
X216111461Y-124114337D01*
X216090095Y-124062754D01*
X216068432Y-123981907D01*
X216050384Y-123926361D01*
X216045809Y-123897476D01*
X216037595Y-123866821D01*
X216021054Y-123741178D01*
X216012311Y-123685977D01*
X216012311Y-123674767D01*
X216011118Y-123665706D01*
X216011118Y-123462867D01*
X216012311Y-123453805D01*
X216012311Y-123442597D01*
X216021053Y-123387400D01*
X216037595Y-123261752D01*
X216045809Y-123231094D01*
X216050384Y-123202213D01*
X216068430Y-123146670D01*
X216090095Y-123065819D01*
X216111463Y-123014231D01*
X216125593Y-122970745D01*
X216146351Y-122930004D01*
X216167720Y-122878416D01*
X216209572Y-122805924D01*
X216236085Y-122753892D01*
X216253272Y-122730235D01*
X216269143Y-122702747D01*
X216346300Y-122602193D01*
X216379140Y-122556993D01*
X216387062Y-122549070D01*
X216392626Y-122541820D01*
X216536063Y-122398383D01*
X216543313Y-122392819D01*
X216551236Y-122384897D01*
X216596436Y-122352057D01*
X216696990Y-122274900D01*
X216724478Y-122259029D01*
X216748135Y-122241842D01*
X216800167Y-122215329D01*
X216872659Y-122173477D01*
X216924247Y-122152108D01*
X216964988Y-122131350D01*
X217008474Y-122117220D01*
X217060062Y-122095852D01*
X217140913Y-122074187D01*
X217196456Y-122056141D01*
X217225337Y-122051566D01*
X217255995Y-122043352D01*
X217381643Y-122026810D01*
X217436840Y-122018068D01*
X217448048Y-122018068D01*
X217457110Y-122016875D01*
X217659950Y-122016875D01*
X217669012Y-122018068D01*
G37*
G36*
X209723966Y-123019421D02*
G01*
X209887311Y-123087080D01*
X210034317Y-123185307D01*
X210159336Y-123310326D01*
X210257563Y-123457332D01*
X210325222Y-123620677D01*
X210359715Y-123794083D01*
X210359715Y-123970887D01*
X210325222Y-124144293D01*
X210257563Y-124307638D01*
X210159336Y-124454644D01*
X210034317Y-124579663D01*
X209887311Y-124677890D01*
X209723966Y-124745549D01*
X209550560Y-124780042D01*
X209373756Y-124780042D01*
X209200350Y-124745549D01*
X209037005Y-124677890D01*
X208889999Y-124579663D01*
X208764980Y-124454644D01*
X208666753Y-124307638D01*
X208599094Y-124144293D01*
X208564601Y-123970887D01*
X208564601Y-123794083D01*
X208599094Y-123620677D01*
X208666753Y-123457332D01*
X208764980Y-123310326D01*
X208889999Y-123185307D01*
X209037005Y-123087080D01*
X209200350Y-123019421D01*
X209373756Y-122984928D01*
X209550560Y-122984928D01*
X209723966Y-123019421D01*
G37*
G36*
X224955999Y-121680105D02*
G01*
X224972544Y-121691161D01*
X226174626Y-122893243D01*
X226185682Y-122909788D01*
X226189563Y-122929305D01*
X226185682Y-122948822D01*
X226174626Y-122965367D01*
X224972544Y-124167449D01*
X224955999Y-124178505D01*
X224936482Y-124182386D01*
X224916965Y-124178505D01*
X224900420Y-124167449D01*
X223698338Y-122965367D01*
X223687282Y-122948822D01*
X223683401Y-122929305D01*
X223687282Y-122909788D01*
X223698338Y-122893243D01*
X224574706Y-122016875D01*
X224891715Y-121699865D01*
X224891718Y-121699862D01*
X224900420Y-121691161D01*
X224916965Y-121680105D01*
X224936482Y-121676224D01*
X224955999Y-121680105D01*
G37*
G36*
X199425657Y-121028118D02*
G01*
X199436865Y-121028118D01*
X199492063Y-121036860D01*
X199617709Y-121053402D01*
X199648364Y-121061616D01*
X199677249Y-121066191D01*
X199732795Y-121084239D01*
X199813642Y-121105902D01*
X199865225Y-121127268D01*
X199908717Y-121141400D01*
X199949461Y-121162160D01*
X200001045Y-121183527D01*
X200073528Y-121225375D01*
X200125570Y-121251892D01*
X200149230Y-121269082D01*
X200176714Y-121284950D01*
X200277249Y-121362093D01*
X200322469Y-121394947D01*
X200330394Y-121402872D01*
X200337641Y-121408433D01*
X200481078Y-121551870D01*
X200486638Y-121559116D01*
X200494565Y-121567043D01*
X200527422Y-121612267D01*
X200604561Y-121712797D01*
X200620427Y-121740278D01*
X200637620Y-121763942D01*
X200664139Y-121815989D01*
X200705984Y-121888466D01*
X200727348Y-121940043D01*
X200748112Y-121980795D01*
X200762245Y-122024292D01*
X200783609Y-122075869D01*
X200805268Y-122156703D01*
X200823321Y-122212263D01*
X200827896Y-122241153D01*
X200836109Y-122271802D01*
X200852649Y-122397436D01*
X200861394Y-122452647D01*
X200861394Y-122463855D01*
X200862587Y-122472917D01*
X200862587Y-122675756D01*
X200861394Y-122684817D01*
X200861394Y-122696027D01*
X200852648Y-122751242D01*
X200836109Y-122876871D01*
X200827897Y-122907517D01*
X200823321Y-122936411D01*
X200805266Y-122991975D01*
X200783609Y-123072804D01*
X200762246Y-123124376D01*
X200748112Y-123167879D01*
X200727346Y-123208634D01*
X200705984Y-123260207D01*
X200664143Y-123332675D01*
X200637620Y-123384732D01*
X200620424Y-123408399D01*
X200604561Y-123435876D01*
X200527436Y-123536387D01*
X200494565Y-123581631D01*
X200486634Y-123589561D01*
X200481078Y-123596803D01*
X200337641Y-123740240D01*
X200330399Y-123745796D01*
X200322469Y-123753727D01*
X200277225Y-123786598D01*
X200176714Y-123863723D01*
X200149237Y-123879586D01*
X200125570Y-123896782D01*
X200073513Y-123923305D01*
X200001045Y-123965146D01*
X199949472Y-123986508D01*
X199908717Y-124007274D01*
X199865214Y-124021408D01*
X199813642Y-124042771D01*
X199732813Y-124064428D01*
X199677249Y-124082483D01*
X199648355Y-124087059D01*
X199617709Y-124095271D01*
X199492077Y-124111811D01*
X199436865Y-124120556D01*
X199425656Y-124120556D01*
X199416595Y-124121749D01*
X199213755Y-124121749D01*
X199204694Y-124120556D01*
X199193485Y-124120556D01*
X199138274Y-124111811D01*
X199012640Y-124095271D01*
X198981991Y-124087058D01*
X198953101Y-124082483D01*
X198897541Y-124064430D01*
X198816707Y-124042771D01*
X198765130Y-124021407D01*
X198721633Y-124007274D01*
X198680881Y-123986510D01*
X198629304Y-123965146D01*
X198556827Y-123923301D01*
X198504780Y-123896782D01*
X198481116Y-123879589D01*
X198453635Y-123863723D01*
X198353105Y-123786584D01*
X198307881Y-123753727D01*
X198299954Y-123745800D01*
X198292708Y-123740240D01*
X198149271Y-123596803D01*
X198143710Y-123589556D01*
X198135785Y-123581631D01*
X198102931Y-123536411D01*
X198025788Y-123435876D01*
X198009920Y-123408392D01*
X197992730Y-123384732D01*
X197966213Y-123332690D01*
X197924365Y-123260207D01*
X197902998Y-123208623D01*
X197882238Y-123167879D01*
X197868106Y-123124387D01*
X197846740Y-123072804D01*
X197825077Y-122991957D01*
X197807029Y-122936411D01*
X197802454Y-122907526D01*
X197794240Y-122876871D01*
X197777699Y-122751228D01*
X197768956Y-122696027D01*
X197768956Y-122684817D01*
X197767763Y-122675756D01*
X197767763Y-122472917D01*
X197768956Y-122463855D01*
X197768956Y-122452647D01*
X197777698Y-122397450D01*
X197794240Y-122271802D01*
X197802454Y-122241144D01*
X197807029Y-122212263D01*
X197825075Y-122156720D01*
X197846740Y-122075869D01*
X197868108Y-122024281D01*
X197882238Y-121980795D01*
X197902996Y-121940054D01*
X197924365Y-121888466D01*
X197966217Y-121815974D01*
X197992730Y-121763942D01*
X198009917Y-121740285D01*
X198025788Y-121712797D01*
X198102945Y-121612243D01*
X198135785Y-121567043D01*
X198143707Y-121559120D01*
X198149271Y-121551870D01*
X198292708Y-121408433D01*
X198299958Y-121402869D01*
X198307881Y-121394947D01*
X198353081Y-121362107D01*
X198453635Y-121284950D01*
X198481123Y-121269079D01*
X198504780Y-121251892D01*
X198556812Y-121225379D01*
X198629304Y-121183527D01*
X198680892Y-121162158D01*
X198721633Y-121141400D01*
X198765119Y-121127270D01*
X198816707Y-121105902D01*
X198897558Y-121084237D01*
X198953101Y-121066191D01*
X198981982Y-121061616D01*
X199012640Y-121053402D01*
X199138288Y-121036860D01*
X199193485Y-121028118D01*
X199204693Y-121028118D01*
X199213755Y-121026925D01*
X199416595Y-121026925D01*
X199425657Y-121028118D01*
G37*
G36*
X193472423Y-119958878D02*
G01*
X193695492Y-120018649D01*
X193908852Y-120107025D01*
X194108850Y-120222494D01*
X194292066Y-120363081D01*
X194455364Y-120526379D01*
X194595951Y-120709595D01*
X194711420Y-120909593D01*
X194799796Y-121122953D01*
X194859567Y-121346022D01*
X194889711Y-121574985D01*
X194889711Y-121805923D01*
X194859567Y-122034886D01*
X194799796Y-122257955D01*
X194711420Y-122471315D01*
X194595951Y-122671313D01*
X194455364Y-122854529D01*
X194292066Y-123017827D01*
X194108850Y-123158414D01*
X193908852Y-123273883D01*
X193695492Y-123362259D01*
X193472423Y-123422030D01*
X193243460Y-123452174D01*
X193012522Y-123452174D01*
X192783559Y-123422030D01*
X192560490Y-123362259D01*
X192347130Y-123273883D01*
X192147132Y-123158414D01*
X191963916Y-123017827D01*
X191800618Y-122854529D01*
X191660031Y-122671313D01*
X191544562Y-122471315D01*
X191456186Y-122257955D01*
X191396415Y-122034886D01*
X191366271Y-121805923D01*
X191366271Y-121574985D01*
X191396415Y-121346022D01*
X191456186Y-121122953D01*
X191544562Y-120909593D01*
X191660031Y-120709595D01*
X191800618Y-120526379D01*
X191963916Y-120363081D01*
X192147132Y-120222494D01*
X192347130Y-120107025D01*
X192560490Y-120018649D01*
X192783559Y-119958878D01*
X193012522Y-119928734D01*
X193243460Y-119928734D01*
X193472423Y-119958878D01*
G37*
G36*
X223401977Y-120271051D02*
G01*
X223565159Y-120338643D01*
X223712019Y-120436772D01*
X223836913Y-120561666D01*
X223935042Y-120708526D01*
X224002634Y-120871708D01*
X224037092Y-121044941D01*
X224037092Y-121221567D01*
X224002634Y-121394800D01*
X223935042Y-121557982D01*
X223836913Y-121704842D01*
X223712019Y-121829736D01*
X223565159Y-121927865D01*
X223401977Y-121995457D01*
X223228744Y-122029915D01*
X223052118Y-122029915D01*
X222878885Y-121995457D01*
X222715703Y-121927865D01*
X222568843Y-121829736D01*
X222443949Y-121704842D01*
X222345820Y-121557982D01*
X222278228Y-121394800D01*
X222243770Y-121221567D01*
X222243770Y-121044941D01*
X222278228Y-120871708D01*
X222345820Y-120708526D01*
X222443949Y-120561666D01*
X222568843Y-120436772D01*
X222715703Y-120338643D01*
X222878885Y-120271051D01*
X223052118Y-120236593D01*
X223228744Y-120236593D01*
X223401977Y-120271051D01*
G37*
G36*
X221605926Y-118475000D02*
G01*
X221769108Y-118542592D01*
X221915968Y-118640721D01*
X222040862Y-118765615D01*
X222138991Y-118912475D01*
X222206583Y-119075657D01*
X222241041Y-119248890D01*
X222241041Y-119425516D01*
X222206583Y-119598749D01*
X222138991Y-119761931D01*
X222040862Y-119908791D01*
X221915968Y-120033685D01*
X221769108Y-120131814D01*
X221605926Y-120199406D01*
X221432693Y-120233864D01*
X221256067Y-120233864D01*
X221082834Y-120199406D01*
X220919652Y-120131814D01*
X220772792Y-120033685D01*
X220647898Y-119908791D01*
X220549769Y-119761931D01*
X220482177Y-119598749D01*
X220447719Y-119425516D01*
X220447719Y-119248890D01*
X220482177Y-119075657D01*
X220549769Y-118912475D01*
X220647898Y-118765615D01*
X220772792Y-118640721D01*
X220919652Y-118542592D01*
X221082834Y-118475000D01*
X221256067Y-118440542D01*
X221432693Y-118440542D01*
X221605926Y-118475000D01*
G37*
G36*
X197445758Y-115936950D02*
G01*
X197456966Y-115936950D01*
X197512164Y-115945692D01*
X197637810Y-115962234D01*
X197668465Y-115970448D01*
X197697350Y-115975023D01*
X197752896Y-115993071D01*
X197833743Y-116014734D01*
X197885326Y-116036100D01*
X197928818Y-116050232D01*
X197969562Y-116070992D01*
X198021146Y-116092359D01*
X198093629Y-116134207D01*
X198145671Y-116160724D01*
X198169331Y-116177914D01*
X198196815Y-116193782D01*
X198297350Y-116270925D01*
X198342570Y-116303779D01*
X198350495Y-116311704D01*
X198357742Y-116317265D01*
X198501179Y-116460702D01*
X198506739Y-116467948D01*
X198514666Y-116475875D01*
X198547523Y-116521099D01*
X198624662Y-116621629D01*
X198640528Y-116649110D01*
X198657721Y-116672774D01*
X198684240Y-116724821D01*
X198726085Y-116797298D01*
X198747449Y-116848875D01*
X198768213Y-116889627D01*
X198782346Y-116933124D01*
X198803710Y-116984701D01*
X198825369Y-117065535D01*
X198843422Y-117121095D01*
X198847997Y-117149985D01*
X198856210Y-117180634D01*
X198872750Y-117306268D01*
X198881495Y-117361479D01*
X198881495Y-117372687D01*
X198882688Y-117381749D01*
X198882688Y-117584588D01*
X198881495Y-117593649D01*
X198881495Y-117604859D01*
X198872749Y-117660074D01*
X198856210Y-117785703D01*
X198847998Y-117816349D01*
X198843422Y-117845243D01*
X198825367Y-117900807D01*
X198803710Y-117981636D01*
X198782347Y-118033208D01*
X198768213Y-118076711D01*
X198747447Y-118117466D01*
X198726085Y-118169039D01*
X198684244Y-118241507D01*
X198657721Y-118293564D01*
X198640525Y-118317231D01*
X198624662Y-118344708D01*
X198547537Y-118445219D01*
X198514666Y-118490463D01*
X198506735Y-118498393D01*
X198501179Y-118505635D01*
X198357742Y-118649072D01*
X198350500Y-118654628D01*
X198342570Y-118662559D01*
X198297326Y-118695430D01*
X198196815Y-118772555D01*
X198169338Y-118788418D01*
X198145671Y-118805614D01*
X198093614Y-118832137D01*
X198021146Y-118873978D01*
X197969573Y-118895340D01*
X197928818Y-118916106D01*
X197885315Y-118930240D01*
X197833743Y-118951603D01*
X197752914Y-118973260D01*
X197697350Y-118991315D01*
X197668456Y-118995891D01*
X197637810Y-119004103D01*
X197512178Y-119020643D01*
X197456966Y-119029388D01*
X197445757Y-119029388D01*
X197436696Y-119030581D01*
X197233856Y-119030581D01*
X197224795Y-119029388D01*
X197213586Y-119029388D01*
X197158375Y-119020643D01*
X197032741Y-119004103D01*
X197002092Y-118995890D01*
X196973202Y-118991315D01*
X196917642Y-118973262D01*
X196836808Y-118951603D01*
X196785231Y-118930239D01*
X196741734Y-118916106D01*
X196700982Y-118895342D01*
X196649405Y-118873978D01*
X196576928Y-118832133D01*
X196524881Y-118805614D01*
X196501217Y-118788421D01*
X196473736Y-118772555D01*
X196373206Y-118695416D01*
X196327982Y-118662559D01*
X196320055Y-118654632D01*
X196312809Y-118649072D01*
X196169372Y-118505635D01*
X196163811Y-118498388D01*
X196155886Y-118490463D01*
X196123032Y-118445243D01*
X196045889Y-118344708D01*
X196030021Y-118317224D01*
X196012831Y-118293564D01*
X195986314Y-118241522D01*
X195944466Y-118169039D01*
X195923099Y-118117455D01*
X195902339Y-118076711D01*
X195888207Y-118033219D01*
X195866841Y-117981636D01*
X195845178Y-117900789D01*
X195827130Y-117845243D01*
X195822555Y-117816358D01*
X195814341Y-117785703D01*
X195797800Y-117660060D01*
X195789057Y-117604859D01*
X195789057Y-117593649D01*
X195787864Y-117584588D01*
X195787864Y-117381749D01*
X195789057Y-117372687D01*
X195789057Y-117361479D01*
X195797799Y-117306282D01*
X195814341Y-117180634D01*
X195822555Y-117149976D01*
X195827130Y-117121095D01*
X195845176Y-117065552D01*
X195866841Y-116984701D01*
X195888209Y-116933113D01*
X195902339Y-116889627D01*
X195923097Y-116848886D01*
X195944466Y-116797298D01*
X195986318Y-116724806D01*
X196012831Y-116672774D01*
X196030018Y-116649117D01*
X196045889Y-116621629D01*
X196123046Y-116521075D01*
X196155886Y-116475875D01*
X196163808Y-116467952D01*
X196169372Y-116460702D01*
X196312809Y-116317265D01*
X196320059Y-116311701D01*
X196327982Y-116303779D01*
X196373182Y-116270939D01*
X196473736Y-116193782D01*
X196501224Y-116177911D01*
X196524881Y-116160724D01*
X196576913Y-116134211D01*
X196649405Y-116092359D01*
X196700993Y-116070990D01*
X196741734Y-116050232D01*
X196785220Y-116036102D01*
X196836808Y-116014734D01*
X196917659Y-115993069D01*
X196973202Y-115975023D01*
X197002083Y-115970448D01*
X197032741Y-115962234D01*
X197158389Y-115945692D01*
X197213586Y-115936950D01*
X197224794Y-115936950D01*
X197233856Y-115935757D01*
X197436696Y-115935757D01*
X197445758Y-115936950D01*
G37*
G36*
X189500712Y-116938303D02*
G01*
X189664057Y-117005962D01*
X189811063Y-117104189D01*
X189936082Y-117229208D01*
X190034309Y-117376214D01*
X190101968Y-117539559D01*
X190136461Y-117712965D01*
X190136461Y-117889769D01*
X190101968Y-118063175D01*
X190034309Y-118226520D01*
X189936082Y-118373526D01*
X189811063Y-118498545D01*
X189664057Y-118596772D01*
X189500712Y-118664431D01*
X189327306Y-118698924D01*
X189150502Y-118698924D01*
X188977096Y-118664431D01*
X188813751Y-118596772D01*
X188666745Y-118498545D01*
X188541726Y-118373526D01*
X188443499Y-118226520D01*
X188375840Y-118063175D01*
X188341347Y-117889769D01*
X188341347Y-117712965D01*
X188375840Y-117539559D01*
X188443499Y-117376214D01*
X188541726Y-117229208D01*
X188666745Y-117104189D01*
X188813751Y-117005962D01*
X188977096Y-116938303D01*
X189150502Y-116903810D01*
X189327306Y-116903810D01*
X189500712Y-116938303D01*
G37*
G36*
X219809874Y-116678948D02*
G01*
X219973056Y-116746540D01*
X220119916Y-116844669D01*
X220244810Y-116969563D01*
X220342939Y-117116423D01*
X220410531Y-117279605D01*
X220444989Y-117452838D01*
X220444989Y-117629464D01*
X220410531Y-117802697D01*
X220342939Y-117965879D01*
X220244810Y-118112739D01*
X220119916Y-118237633D01*
X219973056Y-118335762D01*
X219809874Y-118403354D01*
X219636641Y-118437812D01*
X219460015Y-118437812D01*
X219286782Y-118403354D01*
X219123600Y-118335762D01*
X218976740Y-118237633D01*
X218851846Y-118112739D01*
X218753717Y-117965879D01*
X218686125Y-117802697D01*
X218651667Y-117629464D01*
X218651667Y-117452838D01*
X218686125Y-117279605D01*
X218753717Y-117116423D01*
X218851846Y-116969563D01*
X218976740Y-116844669D01*
X219123600Y-116746540D01*
X219286782Y-116678948D01*
X219460015Y-116644490D01*
X219636641Y-116644490D01*
X219809874Y-116678948D01*
G37*
G36*
X205669846Y-90600724D02*
G01*
X206011629Y-90668709D01*
X206345102Y-90769867D01*
X206667054Y-90903224D01*
X206974385Y-91067496D01*
X207264134Y-91261100D01*
X207533512Y-91482173D01*
X207779923Y-91728584D01*
X208000996Y-91997962D01*
X208194600Y-92287711D01*
X208358872Y-92595042D01*
X208492229Y-92916994D01*
X208593387Y-93250467D01*
X208661372Y-93592250D01*
X208695529Y-93939051D01*
X208695529Y-94287529D01*
X208661372Y-94634330D01*
X208593387Y-94976113D01*
X208492229Y-95309586D01*
X208358872Y-95631538D01*
X208194600Y-95938869D01*
X208000996Y-96228618D01*
X207779923Y-96497996D01*
X207533512Y-96744407D01*
X207264134Y-96965480D01*
X206974385Y-97159084D01*
X206667054Y-97323356D01*
X206345102Y-97456713D01*
X206011629Y-97557871D01*
X205669846Y-97625856D01*
X205323045Y-97660013D01*
X204974567Y-97660013D01*
X204627766Y-97625856D01*
X204285983Y-97557871D01*
X203952510Y-97456713D01*
X203630558Y-97323356D01*
X203323227Y-97159084D01*
X203033478Y-96965480D01*
X202764100Y-96744407D01*
X202517689Y-96497996D01*
X202296616Y-96228618D01*
X202103012Y-95938869D01*
X201938740Y-95631538D01*
X201805383Y-95309586D01*
X201704225Y-94976113D01*
X201636240Y-94634330D01*
X201602083Y-94287529D01*
X201602083Y-93939051D01*
X201636240Y-93592250D01*
X201704225Y-93250467D01*
X201805383Y-92916994D01*
X201938740Y-92595042D01*
X202103012Y-92287711D01*
X202296616Y-91997962D01*
X202517689Y-91728584D01*
X202764100Y-91482173D01*
X203033478Y-91261100D01*
X203323227Y-91067496D01*
X203630558Y-90903224D01*
X203952510Y-90769867D01*
X204285983Y-90668709D01*
X204627766Y-90600724D01*
X204974567Y-90566567D01*
X205323045Y-90566567D01*
X205669846Y-90600724D01*
G37*
G36*
X192009052Y-90783724D02*
G01*
X192025597Y-90794780D01*
X192036653Y-90811325D01*
X192040535Y-90830842D01*
X192040535Y-92530842D01*
X192036653Y-92550359D01*
X192025597Y-92566904D01*
X192009052Y-92577960D01*
X191989535Y-92581842D01*
X190289535Y-92581842D01*
X190270018Y-92577960D01*
X190253473Y-92566904D01*
X190242417Y-92550359D01*
X190238535Y-92530842D01*
X190238535Y-90830842D01*
X190242417Y-90811325D01*
X190253473Y-90794780D01*
X190270018Y-90783724D01*
X190289535Y-90779842D01*
X191989535Y-90779842D01*
X192009052Y-90783724D01*
G37*
G36*
X193941081Y-90818639D02*
G01*
X194104263Y-90886231D01*
X194251123Y-90984360D01*
X194376017Y-91109254D01*
X194474146Y-91256114D01*
X194541738Y-91419296D01*
X194576196Y-91592529D01*
X194576196Y-91769155D01*
X194541738Y-91942388D01*
X194474146Y-92105570D01*
X194376017Y-92252430D01*
X194251123Y-92377324D01*
X194104263Y-92475453D01*
X193941081Y-92543045D01*
X193767848Y-92577503D01*
X193591222Y-92577503D01*
X193417989Y-92543045D01*
X193254807Y-92475453D01*
X193107947Y-92377324D01*
X192983053Y-92252430D01*
X192884924Y-92105570D01*
X192817332Y-91942388D01*
X192782874Y-91769155D01*
X192782874Y-91592529D01*
X192817332Y-91419296D01*
X192884924Y-91256114D01*
X192983053Y-91109254D01*
X193107947Y-90984360D01*
X193254807Y-90886231D01*
X193417989Y-90818639D01*
X193591222Y-90784181D01*
X193767848Y-90784181D01*
X193941081Y-90818639D01*
G37*
G36*
X196481080Y-90818639D02*
G01*
X196644262Y-90886231D01*
X196791122Y-90984360D01*
X196916016Y-91109254D01*
X197014145Y-91256114D01*
X197081737Y-91419296D01*
X197116195Y-91592529D01*
X197116195Y-91769155D01*
X197081737Y-91942388D01*
X197014145Y-92105570D01*
X196916016Y-92252430D01*
X196791122Y-92377324D01*
X196644262Y-92475453D01*
X196481080Y-92543045D01*
X196307847Y-92577503D01*
X196131221Y-92577503D01*
X195957988Y-92543045D01*
X195794806Y-92475453D01*
X195647946Y-92377324D01*
X195523052Y-92252430D01*
X195424923Y-92105570D01*
X195357331Y-91942388D01*
X195322873Y-91769155D01*
X195322873Y-91592529D01*
X195357331Y-91419296D01*
X195424923Y-91256114D01*
X195523052Y-91109254D01*
X195647946Y-90984360D01*
X195794806Y-90886231D01*
X195957988Y-90818639D01*
X196131221Y-90784181D01*
X196307847Y-90784181D01*
X196481080Y-90818639D01*
G37*
G36*
X199021081Y-90818639D02*
G01*
X199184263Y-90886231D01*
X199331123Y-90984360D01*
X199456017Y-91109254D01*
X199554146Y-91256114D01*
X199621738Y-91419296D01*
X199656196Y-91592529D01*
X199656196Y-91769155D01*
X199621738Y-91942388D01*
X199554146Y-92105570D01*
X199456017Y-92252430D01*
X199331123Y-92377324D01*
X199184263Y-92475453D01*
X199021081Y-92543045D01*
X198847848Y-92577503D01*
X198671222Y-92577503D01*
X198497989Y-92543045D01*
X198334807Y-92475453D01*
X198187947Y-92377324D01*
X198063053Y-92252430D01*
X197964924Y-92105570D01*
X197897332Y-91942388D01*
X197862874Y-91769155D01*
X197862874Y-91592529D01*
X197897332Y-91419296D01*
X197964924Y-91256114D01*
X198063053Y-91109254D01*
X198187947Y-90984360D01*
X198334807Y-90886231D01*
X198497989Y-90818639D01*
X198671222Y-90784181D01*
X198847848Y-90784181D01*
X199021081Y-90818639D01*
G37*
G36*
X259440183Y-87195922D02*
G01*
X259456728Y-87206978D01*
X260658810Y-88409060D01*
X260669866Y-88425605D01*
X260673747Y-88445122D01*
X260669866Y-88464639D01*
X260658810Y-88481184D01*
X259456728Y-89683266D01*
X259440183Y-89694322D01*
X259420666Y-89698203D01*
X259401149Y-89694322D01*
X259384604Y-89683266D01*
X258182522Y-88481184D01*
X258171466Y-88464639D01*
X258167585Y-88445122D01*
X258171466Y-88425605D01*
X258182522Y-88409060D01*
X259046451Y-87545131D01*
X259375899Y-87215682D01*
X259375902Y-87215679D01*
X259384604Y-87206978D01*
X259401149Y-87195922D01*
X259420666Y-87192041D01*
X259440183Y-87195922D01*
G37*
G36*
X257886161Y-85786868D02*
G01*
X258049343Y-85854460D01*
X258196203Y-85952589D01*
X258321097Y-86077483D01*
X258419226Y-86224343D01*
X258486818Y-86387525D01*
X258521276Y-86560758D01*
X258521276Y-86737384D01*
X258486818Y-86910617D01*
X258419226Y-87073799D01*
X258321097Y-87220659D01*
X258196203Y-87345553D01*
X258049343Y-87443682D01*
X257886161Y-87511274D01*
X257712928Y-87545732D01*
X257536302Y-87545732D01*
X257363069Y-87511274D01*
X257199887Y-87443682D01*
X257053027Y-87345553D01*
X256928133Y-87220659D01*
X256830004Y-87073799D01*
X256762412Y-86910617D01*
X256727954Y-86737384D01*
X256727954Y-86560758D01*
X256762412Y-86387525D01*
X256830004Y-86224343D01*
X256928133Y-86077483D01*
X257053027Y-85952589D01*
X257199887Y-85854460D01*
X257363069Y-85786868D01*
X257536302Y-85752410D01*
X257712928Y-85752410D01*
X257886161Y-85786868D01*
G37*
G36*
X256090110Y-83990817D02*
G01*
X256253292Y-84058409D01*
X256400152Y-84156538D01*
X256525046Y-84281432D01*
X256623175Y-84428292D01*
X256690767Y-84591474D01*
X256725225Y-84764707D01*
X256725225Y-84941333D01*
X256690767Y-85114566D01*
X256623175Y-85277748D01*
X256525046Y-85424608D01*
X256400152Y-85549502D01*
X256253292Y-85647631D01*
X256090110Y-85715223D01*
X255916877Y-85749681D01*
X255740251Y-85749681D01*
X255567018Y-85715223D01*
X255403836Y-85647631D01*
X255256976Y-85549502D01*
X255132082Y-85424608D01*
X255033953Y-85277748D01*
X254966361Y-85114566D01*
X254931903Y-84941333D01*
X254931903Y-84764707D01*
X254966361Y-84591474D01*
X255033953Y-84428292D01*
X255132082Y-84281432D01*
X255256976Y-84156538D01*
X255403836Y-84058409D01*
X255567018Y-83990817D01*
X255740251Y-83956359D01*
X255916877Y-83956359D01*
X256090110Y-83990817D01*
G37*
G36*
X254294058Y-82194765D02*
G01*
X254457240Y-82262357D01*
X254604100Y-82360486D01*
X254728994Y-82485380D01*
X254827123Y-82632240D01*
X254894715Y-82795422D01*
X254929173Y-82968655D01*
X254929173Y-83145281D01*
X254894715Y-83318514D01*
X254827123Y-83481696D01*
X254728994Y-83628556D01*
X254604100Y-83753450D01*
X254457240Y-83851579D01*
X254294058Y-83919171D01*
X254120825Y-83953629D01*
X253944199Y-83953629D01*
X253770966Y-83919171D01*
X253607784Y-83851579D01*
X253460924Y-83753450D01*
X253336030Y-83628556D01*
X253237901Y-83481696D01*
X253170309Y-83318514D01*
X253135851Y-83145281D01*
X253135851Y-82968655D01*
X253170309Y-82795422D01*
X253237901Y-82632240D01*
X253336030Y-82485380D01*
X253460924Y-82360486D01*
X253607784Y-82262357D01*
X253770966Y-82194765D01*
X253944199Y-82160307D01*
X254120825Y-82160307D01*
X254294058Y-82194765D01*
G37*
G36*
X260166130Y-79520950D02*
G01*
X260177338Y-79520950D01*
X260232536Y-79529692D01*
X260358182Y-79546234D01*
X260388837Y-79554448D01*
X260417722Y-79559023D01*
X260473268Y-79577071D01*
X260554115Y-79598734D01*
X260605698Y-79620100D01*
X260649190Y-79634232D01*
X260689934Y-79654992D01*
X260741518Y-79676359D01*
X260814001Y-79718207D01*
X260866043Y-79744724D01*
X260889703Y-79761914D01*
X260917187Y-79777782D01*
X261017722Y-79854925D01*
X261062942Y-79887779D01*
X261070867Y-79895704D01*
X261078114Y-79901265D01*
X261221551Y-80044702D01*
X261227111Y-80051948D01*
X261235038Y-80059875D01*
X261267895Y-80105099D01*
X261345034Y-80205629D01*
X261360900Y-80233110D01*
X261378093Y-80256774D01*
X261404612Y-80308821D01*
X261446457Y-80381298D01*
X261467821Y-80432875D01*
X261488585Y-80473627D01*
X261502718Y-80517124D01*
X261524082Y-80568701D01*
X261545741Y-80649535D01*
X261563794Y-80705095D01*
X261568369Y-80733985D01*
X261576582Y-80764634D01*
X261593122Y-80890268D01*
X261601867Y-80945479D01*
X261601867Y-80956687D01*
X261603060Y-80965749D01*
X261603060Y-81168588D01*
X261601867Y-81177649D01*
X261601867Y-81188859D01*
X261593121Y-81244074D01*
X261576582Y-81369703D01*
X261568370Y-81400349D01*
X261563794Y-81429243D01*
X261545739Y-81484807D01*
X261524082Y-81565636D01*
X261502719Y-81617208D01*
X261488585Y-81660711D01*
X261467819Y-81701466D01*
X261446457Y-81753039D01*
X261404616Y-81825507D01*
X261378093Y-81877564D01*
X261360897Y-81901231D01*
X261345034Y-81928708D01*
X261267909Y-82029219D01*
X261235038Y-82074463D01*
X261227107Y-82082393D01*
X261221551Y-82089635D01*
X261078114Y-82233072D01*
X261070872Y-82238628D01*
X261062942Y-82246559D01*
X261017698Y-82279430D01*
X260917187Y-82356555D01*
X260889710Y-82372418D01*
X260866043Y-82389614D01*
X260813986Y-82416137D01*
X260741518Y-82457978D01*
X260689945Y-82479340D01*
X260649190Y-82500106D01*
X260605687Y-82514240D01*
X260554115Y-82535603D01*
X260473286Y-82557260D01*
X260417722Y-82575315D01*
X260388828Y-82579891D01*
X260358182Y-82588103D01*
X260232550Y-82604643D01*
X260177338Y-82613388D01*
X260166129Y-82613388D01*
X260157068Y-82614581D01*
X259954228Y-82614581D01*
X259945167Y-82613388D01*
X259933958Y-82613388D01*
X259878747Y-82604643D01*
X259753113Y-82588103D01*
X259722464Y-82579890D01*
X259693574Y-82575315D01*
X259638014Y-82557262D01*
X259557180Y-82535603D01*
X259505603Y-82514239D01*
X259462106Y-82500106D01*
X259421354Y-82479342D01*
X259369777Y-82457978D01*
X259297300Y-82416133D01*
X259245253Y-82389614D01*
X259221589Y-82372421D01*
X259194108Y-82356555D01*
X259093578Y-82279416D01*
X259048354Y-82246559D01*
X259040427Y-82238632D01*
X259033181Y-82233072D01*
X258889744Y-82089635D01*
X258884183Y-82082388D01*
X258876258Y-82074463D01*
X258843404Y-82029243D01*
X258766261Y-81928708D01*
X258750393Y-81901224D01*
X258733203Y-81877564D01*
X258706686Y-81825522D01*
X258664838Y-81753039D01*
X258643471Y-81701455D01*
X258622711Y-81660711D01*
X258608579Y-81617219D01*
X258587213Y-81565636D01*
X258565550Y-81484789D01*
X258547502Y-81429243D01*
X258542927Y-81400358D01*
X258534713Y-81369703D01*
X258518172Y-81244060D01*
X258509429Y-81188859D01*
X258509429Y-81177649D01*
X258508236Y-81168588D01*
X258508236Y-80965749D01*
X258509429Y-80956687D01*
X258509429Y-80945479D01*
X258518171Y-80890282D01*
X258534713Y-80764634D01*
X258542927Y-80733976D01*
X258547502Y-80705095D01*
X258565548Y-80649552D01*
X258587213Y-80568701D01*
X258608581Y-80517113D01*
X258622711Y-80473627D01*
X258643469Y-80432886D01*
X258664838Y-80381298D01*
X258706690Y-80308806D01*
X258733203Y-80256774D01*
X258750390Y-80233117D01*
X258766261Y-80205629D01*
X258843418Y-80105075D01*
X258876258Y-80059875D01*
X258884180Y-80051952D01*
X258889744Y-80044702D01*
X259033181Y-79901265D01*
X259040431Y-79895701D01*
X259048354Y-79887779D01*
X259093554Y-79854939D01*
X259194108Y-79777782D01*
X259221596Y-79761911D01*
X259245253Y-79744724D01*
X259297285Y-79718211D01*
X259369777Y-79676359D01*
X259421365Y-79654990D01*
X259462106Y-79634232D01*
X259505592Y-79620102D01*
X259557180Y-79598734D01*
X259638031Y-79577069D01*
X259693574Y-79559023D01*
X259722455Y-79554448D01*
X259753113Y-79546234D01*
X259878761Y-79529692D01*
X259933958Y-79520950D01*
X259945166Y-79520950D01*
X259954228Y-79519757D01*
X260157068Y-79519757D01*
X260166130Y-79520950D01*
G37*
G36*
X268413828Y-79885907D02*
G01*
X268577173Y-79953566D01*
X268724179Y-80051793D01*
X268849198Y-80176812D01*
X268947425Y-80323818D01*
X269015084Y-80487163D01*
X269049577Y-80660569D01*
X269049577Y-80837373D01*
X269015084Y-81010779D01*
X268947425Y-81174124D01*
X268849198Y-81321130D01*
X268724179Y-81446149D01*
X268577173Y-81544376D01*
X268413828Y-81612035D01*
X268240422Y-81646528D01*
X268063618Y-81646528D01*
X267890212Y-81612035D01*
X267726867Y-81544376D01*
X267579861Y-81446149D01*
X267454842Y-81321130D01*
X267356615Y-81174124D01*
X267288956Y-81010779D01*
X267254463Y-80837373D01*
X267254463Y-80660569D01*
X267288956Y-80487163D01*
X267356615Y-80323818D01*
X267454842Y-80176812D01*
X267579861Y-80051793D01*
X267726867Y-79953566D01*
X267890212Y-79885907D01*
X268063618Y-79851414D01*
X268240422Y-79851414D01*
X268413828Y-79885907D01*
G37*
G36*
X264607365Y-75128308D02*
G01*
X264830434Y-75188079D01*
X265043794Y-75276455D01*
X265243792Y-75391924D01*
X265427008Y-75532511D01*
X265590306Y-75695809D01*
X265730893Y-75879025D01*
X265846362Y-76079023D01*
X265934738Y-76292383D01*
X265994509Y-76515452D01*
X266024653Y-76744415D01*
X266024653Y-76975353D01*
X265994509Y-77204316D01*
X265934738Y-77427385D01*
X265846362Y-77640745D01*
X265730893Y-77840743D01*
X265590306Y-78023959D01*
X265427008Y-78187257D01*
X265243792Y-78327844D01*
X265043794Y-78443313D01*
X264830434Y-78531689D01*
X264607365Y-78591460D01*
X264378402Y-78621604D01*
X264147464Y-78621604D01*
X263918501Y-78591460D01*
X263695432Y-78531689D01*
X263482072Y-78443313D01*
X263282074Y-78327844D01*
X263098858Y-78187257D01*
X262935560Y-78023959D01*
X262794973Y-77840743D01*
X262679504Y-77640745D01*
X262591128Y-77427385D01*
X262531357Y-77204316D01*
X262501213Y-76975353D01*
X262501213Y-76744415D01*
X262531357Y-76515452D01*
X262591128Y-76292383D01*
X262679504Y-76079023D01*
X262794973Y-75879025D01*
X262935560Y-75695809D01*
X263098858Y-75532511D01*
X263282074Y-75391924D01*
X263482072Y-75276455D01*
X263695432Y-75188079D01*
X263918501Y-75128308D01*
X264147464Y-75098164D01*
X264378402Y-75098164D01*
X264607365Y-75128308D01*
G37*
G36*
X258186231Y-74429782D02*
G01*
X258197439Y-74429782D01*
X258252637Y-74438524D01*
X258378283Y-74455066D01*
X258408938Y-74463280D01*
X258437823Y-74467855D01*
X258493369Y-74485903D01*
X258574216Y-74507566D01*
X258625799Y-74528932D01*
X258669291Y-74543064D01*
X258710035Y-74563824D01*
X258761619Y-74585191D01*
X258834102Y-74627039D01*
X258886144Y-74653556D01*
X258909804Y-74670746D01*
X258937288Y-74686614D01*
X259037823Y-74763757D01*
X259083043Y-74796611D01*
X259090968Y-74804536D01*
X259098215Y-74810097D01*
X259241652Y-74953534D01*
X259247212Y-74960780D01*
X259255139Y-74968707D01*
X259287996Y-75013931D01*
X259365135Y-75114461D01*
X259381001Y-75141942D01*
X259398194Y-75165606D01*
X259424713Y-75217653D01*
X259466558Y-75290130D01*
X259487922Y-75341707D01*
X259508686Y-75382459D01*
X259522819Y-75425956D01*
X259544183Y-75477533D01*
X259565842Y-75558367D01*
X259583895Y-75613927D01*
X259588470Y-75642817D01*
X259596683Y-75673466D01*
X259613223Y-75799100D01*
X259621968Y-75854311D01*
X259621968Y-75865519D01*
X259623161Y-75874581D01*
X259623161Y-76077420D01*
X259621968Y-76086481D01*
X259621968Y-76097691D01*
X259613222Y-76152906D01*
X259596683Y-76278535D01*
X259588471Y-76309181D01*
X259583895Y-76338075D01*
X259565840Y-76393639D01*
X259544183Y-76474468D01*
X259522820Y-76526040D01*
X259508686Y-76569543D01*
X259487920Y-76610298D01*
X259466558Y-76661871D01*
X259424717Y-76734339D01*
X259398194Y-76786396D01*
X259380998Y-76810063D01*
X259365135Y-76837540D01*
X259288010Y-76938051D01*
X259255139Y-76983295D01*
X259247208Y-76991225D01*
X259241652Y-76998467D01*
X259098215Y-77141904D01*
X259090973Y-77147460D01*
X259083043Y-77155391D01*
X259037799Y-77188262D01*
X258937288Y-77265387D01*
X258909811Y-77281250D01*
X258886144Y-77298446D01*
X258834087Y-77324969D01*
X258761619Y-77366810D01*
X258710046Y-77388172D01*
X258669291Y-77408938D01*
X258625788Y-77423072D01*
X258574216Y-77444435D01*
X258493387Y-77466092D01*
X258437823Y-77484147D01*
X258408929Y-77488723D01*
X258378283Y-77496935D01*
X258252651Y-77513475D01*
X258197439Y-77522220D01*
X258186230Y-77522220D01*
X258177169Y-77523413D01*
X257974329Y-77523413D01*
X257965268Y-77522220D01*
X257954059Y-77522220D01*
X257898848Y-77513475D01*
X257773214Y-77496935D01*
X257742565Y-77488722D01*
X257713675Y-77484147D01*
X257658115Y-77466094D01*
X257577281Y-77444435D01*
X257525704Y-77423071D01*
X257482207Y-77408938D01*
X257441455Y-77388174D01*
X257389878Y-77366810D01*
X257317401Y-77324965D01*
X257265354Y-77298446D01*
X257241690Y-77281253D01*
X257214209Y-77265387D01*
X257113679Y-77188248D01*
X257068455Y-77155391D01*
X257060528Y-77147464D01*
X257053282Y-77141904D01*
X256909845Y-76998467D01*
X256904284Y-76991220D01*
X256896359Y-76983295D01*
X256863505Y-76938075D01*
X256786362Y-76837540D01*
X256770494Y-76810056D01*
X256753304Y-76786396D01*
X256726787Y-76734354D01*
X256684939Y-76661871D01*
X256663572Y-76610287D01*
X256642812Y-76569543D01*
X256628680Y-76526051D01*
X256607314Y-76474468D01*
X256585651Y-76393621D01*
X256567603Y-76338075D01*
X256563028Y-76309190D01*
X256554814Y-76278535D01*
X256538273Y-76152892D01*
X256529530Y-76097691D01*
X256529530Y-76086481D01*
X256528337Y-76077420D01*
X256528337Y-75874581D01*
X256529530Y-75865519D01*
X256529530Y-75854311D01*
X256538272Y-75799114D01*
X256554814Y-75673466D01*
X256563028Y-75642808D01*
X256567603Y-75613927D01*
X256585649Y-75558384D01*
X256607314Y-75477533D01*
X256628682Y-75425945D01*
X256642812Y-75382459D01*
X256663570Y-75341718D01*
X256684939Y-75290130D01*
X256726791Y-75217638D01*
X256753304Y-75165606D01*
X256770491Y-75141949D01*
X256786362Y-75114461D01*
X256863519Y-75013907D01*
X256896359Y-74968707D01*
X256904281Y-74960784D01*
X256909845Y-74953534D01*
X257053282Y-74810097D01*
X257060532Y-74804533D01*
X257068455Y-74796611D01*
X257113655Y-74763771D01*
X257214209Y-74686614D01*
X257241697Y-74670743D01*
X257265354Y-74653556D01*
X257317386Y-74627043D01*
X257389878Y-74585191D01*
X257441466Y-74563822D01*
X257482207Y-74543064D01*
X257525693Y-74528934D01*
X257577281Y-74507566D01*
X257658132Y-74485901D01*
X257713675Y-74467855D01*
X257742556Y-74463280D01*
X257773214Y-74455066D01*
X257898862Y-74438524D01*
X257954059Y-74429782D01*
X257965267Y-74429782D01*
X257974329Y-74428589D01*
X258177169Y-74428589D01*
X258186231Y-74429782D01*
G37*
G36*
X260635654Y-72107733D02*
G01*
X260798999Y-72175392D01*
X260946005Y-72273619D01*
X261071024Y-72398638D01*
X261169251Y-72545644D01*
X261236910Y-72708989D01*
X261271403Y-72882395D01*
X261271403Y-73059199D01*
X261236910Y-73232605D01*
X261169251Y-73395950D01*
X261071024Y-73542956D01*
X260946005Y-73667975D01*
X260798999Y-73766202D01*
X260635654Y-73833861D01*
X260462248Y-73868354D01*
X260285444Y-73868354D01*
X260112038Y-73833861D01*
X259948693Y-73766202D01*
X259801687Y-73667975D01*
X259676668Y-73542956D01*
X259578441Y-73395950D01*
X259510782Y-73232605D01*
X259476289Y-73059199D01*
X259476289Y-72882395D01*
X259510782Y-72708989D01*
X259578441Y-72545644D01*
X259676668Y-72398638D01*
X259801687Y-72273619D01*
X259948693Y-72175392D01*
X260112038Y-72107733D01*
X260285444Y-72073240D01*
X260462248Y-72073240D01*
X260635654Y-72107733D01*
G37*
G36*
X231125690Y-65144880D02*
G01*
X231467473Y-65212865D01*
X231800946Y-65314023D01*
X232122898Y-65447380D01*
X232430229Y-65611652D01*
X232719978Y-65805256D01*
X232989356Y-66026329D01*
X233235767Y-66272740D01*
X233456840Y-66542118D01*
X233650444Y-66831867D01*
X233814716Y-67139198D01*
X233948073Y-67461150D01*
X234049231Y-67794623D01*
X234117216Y-68136406D01*
X234151373Y-68483207D01*
X234151373Y-68831685D01*
X234117216Y-69178486D01*
X234049231Y-69520269D01*
X233948073Y-69853742D01*
X233814716Y-70175694D01*
X233650444Y-70483025D01*
X233456840Y-70772774D01*
X233235767Y-71042152D01*
X232989356Y-71288563D01*
X232719978Y-71509636D01*
X232430229Y-71703240D01*
X232122898Y-71867512D01*
X231800946Y-72000869D01*
X231467473Y-72102027D01*
X231125690Y-72170012D01*
X230778889Y-72204169D01*
X230430411Y-72204169D01*
X230083610Y-72170012D01*
X229741827Y-72102027D01*
X229408354Y-72000869D01*
X229086402Y-71867512D01*
X228779071Y-71703240D01*
X228489322Y-71509636D01*
X228219944Y-71288563D01*
X227973533Y-71042152D01*
X227752460Y-70772774D01*
X227558856Y-70483025D01*
X227394584Y-70175694D01*
X227261227Y-69853742D01*
X227160069Y-69520269D01*
X227092084Y-69178486D01*
X227057927Y-68831685D01*
X227057927Y-68483207D01*
X227092084Y-68136406D01*
X227160069Y-67794623D01*
X227261227Y-67461150D01*
X227394584Y-67139198D01*
X227558856Y-66831867D01*
X227752460Y-66542118D01*
X227973533Y-66272740D01*
X228219944Y-66026329D01*
X228489322Y-65805256D01*
X228779071Y-65611652D01*
X229086402Y-65447380D01*
X229408354Y-65314023D01*
X229741827Y-65212865D01*
X230083610Y-65144880D01*
X230430411Y-65110723D01*
X230778889Y-65110723D01*
X231125690Y-65144880D01*
G37*
G36*
X200838499Y-61404873D02*
G01*
X201117398Y-61468530D01*
X201387416Y-61563013D01*
X201645158Y-61687135D01*
X201887381Y-61839334D01*
X202111041Y-62017697D01*
X202313324Y-62219980D01*
X202491687Y-62443640D01*
X202643886Y-62685863D01*
X202768008Y-62943605D01*
X202862491Y-63213623D01*
X202926148Y-63492522D01*
X202958178Y-63776794D01*
X202958178Y-64062866D01*
X202926148Y-64347138D01*
X202862491Y-64626037D01*
X202768008Y-64896055D01*
X202643886Y-65153797D01*
X202491687Y-65396020D01*
X202313324Y-65619680D01*
X202111041Y-65821963D01*
X201887381Y-66000326D01*
X201645158Y-66152525D01*
X201387416Y-66276647D01*
X201117398Y-66371130D01*
X200838499Y-66434787D01*
X200554227Y-66466817D01*
X200268155Y-66466817D01*
X199983883Y-66434787D01*
X199704984Y-66371130D01*
X199434966Y-66276647D01*
X199177224Y-66152525D01*
X198935001Y-66000326D01*
X198711341Y-65821963D01*
X198509058Y-65619680D01*
X198330695Y-65396020D01*
X198178496Y-65153797D01*
X198054374Y-64896055D01*
X197959891Y-64626037D01*
X197896234Y-64347138D01*
X197864204Y-64062866D01*
X197864204Y-63776794D01*
X197896234Y-63492522D01*
X197959891Y-63213623D01*
X198054374Y-62943605D01*
X198178496Y-62685863D01*
X198330695Y-62443640D01*
X198509058Y-62219980D01*
X198711341Y-62017697D01*
X198935001Y-61839334D01*
X199177224Y-61687135D01*
X199434966Y-61563013D01*
X199704984Y-61468530D01*
X199983883Y-61404873D01*
X200268155Y-61372843D01*
X200554227Y-61372843D01*
X200838499Y-61404873D01*
G37*
G36*
X228426678Y-61413042D02*
G01*
X228589860Y-61480634D01*
X228736720Y-61578763D01*
X228861614Y-61703657D01*
X228959743Y-61850517D01*
X229027335Y-62013699D01*
X229061793Y-62186932D01*
X229061793Y-62363558D01*
X229027335Y-62536791D01*
X228959743Y-62699973D01*
X228861614Y-62846833D01*
X228736720Y-62971727D01*
X228589860Y-63069856D01*
X228426678Y-63137448D01*
X228253445Y-63171906D01*
X228076819Y-63171906D01*
X227903586Y-63137448D01*
X227740404Y-63069856D01*
X227593544Y-62971727D01*
X227468650Y-62846833D01*
X227370521Y-62699973D01*
X227302929Y-62536791D01*
X227268471Y-62363558D01*
X227268471Y-62186932D01*
X227302929Y-62013699D01*
X227370521Y-61850517D01*
X227468650Y-61703657D01*
X227593544Y-61578763D01*
X227740404Y-61480634D01*
X227903586Y-61413042D01*
X228076819Y-61378584D01*
X228253445Y-61378584D01*
X228426678Y-61413042D01*
G37*
G36*
X254085012Y-59297696D02*
G01*
X254096220Y-59297696D01*
X254151418Y-59306438D01*
X254277064Y-59322980D01*
X254307719Y-59331194D01*
X254336604Y-59335769D01*
X254392150Y-59353817D01*
X254472997Y-59375480D01*
X254524580Y-59396846D01*
X254568072Y-59410978D01*
X254608816Y-59431738D01*
X254660400Y-59453105D01*
X254732883Y-59494953D01*
X254784925Y-59521470D01*
X254808585Y-59538660D01*
X254836069Y-59554528D01*
X254936604Y-59631671D01*
X254981824Y-59664525D01*
X254989749Y-59672450D01*
X254996996Y-59678011D01*
X255140433Y-59821448D01*
X255145993Y-59828694D01*
X255153920Y-59836621D01*
X255186777Y-59881845D01*
X255263916Y-59982375D01*
X255279782Y-60009856D01*
X255296975Y-60033520D01*
X255323494Y-60085567D01*
X255365339Y-60158044D01*
X255386703Y-60209621D01*
X255407467Y-60250373D01*
X255421600Y-60293870D01*
X255442964Y-60345447D01*
X255464623Y-60426281D01*
X255482676Y-60481841D01*
X255487251Y-60510731D01*
X255495464Y-60541380D01*
X255512004Y-60667014D01*
X255520749Y-60722225D01*
X255520749Y-60733433D01*
X255521942Y-60742495D01*
X255521942Y-60945334D01*
X255520749Y-60954395D01*
X255520749Y-60965605D01*
X255512003Y-61020820D01*
X255495464Y-61146449D01*
X255487252Y-61177095D01*
X255482676Y-61205989D01*
X255464621Y-61261553D01*
X255442964Y-61342382D01*
X255421601Y-61393954D01*
X255407467Y-61437457D01*
X255386701Y-61478212D01*
X255365339Y-61529785D01*
X255323498Y-61602253D01*
X255296975Y-61654310D01*
X255279779Y-61677977D01*
X255263916Y-61705454D01*
X255186791Y-61805965D01*
X255153920Y-61851209D01*
X255145989Y-61859139D01*
X255140433Y-61866381D01*
X254996996Y-62009818D01*
X254989754Y-62015374D01*
X254981824Y-62023305D01*
X254936580Y-62056176D01*
X254836069Y-62133301D01*
X254808592Y-62149164D01*
X254784925Y-62166360D01*
X254732868Y-62192883D01*
X254660400Y-62234724D01*
X254608827Y-62256086D01*
X254568072Y-62276852D01*
X254524569Y-62290986D01*
X254472997Y-62312349D01*
X254392168Y-62334006D01*
X254336604Y-62352061D01*
X254307710Y-62356637D01*
X254277064Y-62364849D01*
X254151432Y-62381389D01*
X254096220Y-62390134D01*
X254085011Y-62390134D01*
X254075950Y-62391327D01*
X253873110Y-62391327D01*
X253864049Y-62390134D01*
X253852840Y-62390134D01*
X253797629Y-62381389D01*
X253671995Y-62364849D01*
X253641346Y-62356636D01*
X253612456Y-62352061D01*
X253556896Y-62334008D01*
X253476062Y-62312349D01*
X253424485Y-62290985D01*
X253380988Y-62276852D01*
X253340236Y-62256088D01*
X253288659Y-62234724D01*
X253216182Y-62192879D01*
X253164135Y-62166360D01*
X253140471Y-62149167D01*
X253112990Y-62133301D01*
X253012460Y-62056162D01*
X252967236Y-62023305D01*
X252959309Y-62015378D01*
X252952063Y-62009818D01*
X252808626Y-61866381D01*
X252803065Y-61859134D01*
X252795140Y-61851209D01*
X252762286Y-61805989D01*
X252685143Y-61705454D01*
X252669275Y-61677970D01*
X252652085Y-61654310D01*
X252625568Y-61602268D01*
X252583720Y-61529785D01*
X252562353Y-61478201D01*
X252541593Y-61437457D01*
X252527461Y-61393965D01*
X252506095Y-61342382D01*
X252484432Y-61261535D01*
X252466384Y-61205989D01*
X252461809Y-61177104D01*
X252453595Y-61146449D01*
X252437054Y-61020806D01*
X252428311Y-60965605D01*
X252428311Y-60954395D01*
X252427118Y-60945334D01*
X252427118Y-60742495D01*
X252428311Y-60733433D01*
X252428311Y-60722225D01*
X252437053Y-60667028D01*
X252453595Y-60541380D01*
X252461809Y-60510722D01*
X252466384Y-60481841D01*
X252484430Y-60426298D01*
X252506095Y-60345447D01*
X252527463Y-60293859D01*
X252541593Y-60250373D01*
X252562351Y-60209632D01*
X252583720Y-60158044D01*
X252625572Y-60085552D01*
X252652085Y-60033520D01*
X252669272Y-60009863D01*
X252685143Y-59982375D01*
X252762300Y-59881821D01*
X252795140Y-59836621D01*
X252803062Y-59828698D01*
X252808626Y-59821448D01*
X252952063Y-59678011D01*
X252959313Y-59672447D01*
X252967236Y-59664525D01*
X253012436Y-59631685D01*
X253112990Y-59554528D01*
X253140478Y-59538657D01*
X253164135Y-59521470D01*
X253216167Y-59494957D01*
X253288659Y-59453105D01*
X253340247Y-59431736D01*
X253380988Y-59410978D01*
X253424474Y-59396848D01*
X253476062Y-59375480D01*
X253556913Y-59353815D01*
X253612456Y-59335769D01*
X253641337Y-59331194D01*
X253671995Y-59322980D01*
X253797643Y-59306438D01*
X253852840Y-59297696D01*
X253864048Y-59297696D01*
X253873110Y-59296503D01*
X254075950Y-59296503D01*
X254085012Y-59297696D01*
G37*
G36*
X262332710Y-59662653D02*
G01*
X262496055Y-59730312D01*
X262643061Y-59828539D01*
X262768080Y-59953558D01*
X262866307Y-60100564D01*
X262933966Y-60263909D01*
X262968459Y-60437315D01*
X262968459Y-60614119D01*
X262933966Y-60787525D01*
X262866307Y-60950870D01*
X262768080Y-61097876D01*
X262643061Y-61222895D01*
X262496055Y-61321122D01*
X262332710Y-61388781D01*
X262159304Y-61423274D01*
X261982500Y-61423274D01*
X261809094Y-61388781D01*
X261645749Y-61321122D01*
X261498743Y-61222895D01*
X261373724Y-61097876D01*
X261275497Y-60950870D01*
X261207838Y-60787525D01*
X261173345Y-60614119D01*
X261173345Y-60437315D01*
X261207838Y-60263909D01*
X261275497Y-60100564D01*
X261373724Y-59953558D01*
X261498743Y-59828539D01*
X261645749Y-59730312D01*
X261809094Y-59662653D01*
X261982500Y-59628160D01*
X262159304Y-59628160D01*
X262332710Y-59662653D01*
G37*
G36*
X228426678Y-58873041D02*
G01*
X228589860Y-58940633D01*
X228736720Y-59038762D01*
X228861614Y-59163656D01*
X228959743Y-59310516D01*
X229027335Y-59473698D01*
X229061793Y-59646931D01*
X229061793Y-59823557D01*
X229027335Y-59996790D01*
X228959743Y-60159972D01*
X228861614Y-60306832D01*
X228736720Y-60431726D01*
X228589860Y-60529855D01*
X228426678Y-60597447D01*
X228253445Y-60631905D01*
X228076819Y-60631905D01*
X227903586Y-60597447D01*
X227740404Y-60529855D01*
X227593544Y-60431726D01*
X227468650Y-60306832D01*
X227370521Y-60159972D01*
X227302929Y-59996790D01*
X227268471Y-59823557D01*
X227268471Y-59646931D01*
X227302929Y-59473698D01*
X227370521Y-59310516D01*
X227468650Y-59163656D01*
X227593544Y-59038762D01*
X227740404Y-58940633D01*
X227903586Y-58873041D01*
X228076819Y-58838583D01*
X228253445Y-58838583D01*
X228426678Y-58873041D01*
G37*
G36*
X258526247Y-54905054D02*
G01*
X258749316Y-54964825D01*
X258962676Y-55053201D01*
X259162674Y-55168670D01*
X259345890Y-55309257D01*
X259509188Y-55472555D01*
X259649775Y-55655771D01*
X259765244Y-55855769D01*
X259853620Y-56069129D01*
X259913391Y-56292198D01*
X259943535Y-56521161D01*
X259943535Y-56752099D01*
X259913391Y-56981062D01*
X259853620Y-57204131D01*
X259765244Y-57417491D01*
X259649775Y-57617489D01*
X259509188Y-57800705D01*
X259345890Y-57964003D01*
X259162674Y-58104590D01*
X258962676Y-58220059D01*
X258749316Y-58308435D01*
X258526247Y-58368206D01*
X258297284Y-58398350D01*
X258066346Y-58398350D01*
X257837383Y-58368206D01*
X257614314Y-58308435D01*
X257400954Y-58220059D01*
X257200956Y-58104590D01*
X257017740Y-57964003D01*
X256854442Y-57800705D01*
X256713855Y-57617489D01*
X256598386Y-57417491D01*
X256510010Y-57204131D01*
X256450239Y-56981062D01*
X256420095Y-56752099D01*
X256420095Y-56521161D01*
X256450239Y-56292198D01*
X256510010Y-56069129D01*
X256598386Y-55855769D01*
X256713855Y-55655771D01*
X256854442Y-55472555D01*
X257017740Y-55309257D01*
X257200956Y-55168670D01*
X257400954Y-55053201D01*
X257614314Y-54964825D01*
X257837383Y-54905054D01*
X258066346Y-54874910D01*
X258297284Y-54874910D01*
X258526247Y-54905054D01*
G37*
G36*
X228426678Y-56333042D02*
G01*
X228589860Y-56400634D01*
X228736720Y-56498763D01*
X228861614Y-56623657D01*
X228959743Y-56770517D01*
X229027335Y-56933699D01*
X229061793Y-57106932D01*
X229061793Y-57283558D01*
X229027335Y-57456791D01*
X228959743Y-57619973D01*
X228861614Y-57766833D01*
X228736720Y-57891727D01*
X228589860Y-57989856D01*
X228426678Y-58057448D01*
X228253445Y-58091906D01*
X228076819Y-58091906D01*
X227903586Y-58057448D01*
X227740404Y-57989856D01*
X227593544Y-57891727D01*
X227468650Y-57766833D01*
X227370521Y-57619973D01*
X227302929Y-57456791D01*
X227268471Y-57283558D01*
X227268471Y-57106932D01*
X227302929Y-56933699D01*
X227370521Y-56770517D01*
X227468650Y-56623657D01*
X227593544Y-56498763D01*
X227740404Y-56400634D01*
X227903586Y-56333042D01*
X228076819Y-56298584D01*
X228253445Y-56298584D01*
X228426678Y-56333042D01*
G37*
G36*
X252105113Y-54206528D02*
G01*
X252116321Y-54206528D01*
X252171519Y-54215270D01*
X252297165Y-54231812D01*
X252327820Y-54240026D01*
X252356705Y-54244601D01*
X252412251Y-54262649D01*
X252493098Y-54284312D01*
X252544681Y-54305678D01*
X252588173Y-54319810D01*
X252628917Y-54340570D01*
X252680501Y-54361937D01*
X252752984Y-54403785D01*
X252805026Y-54430302D01*
X252828686Y-54447492D01*
X252856170Y-54463360D01*
X252956705Y-54540503D01*
X253001925Y-54573357D01*
X253009850Y-54581282D01*
X253017097Y-54586843D01*
X253160534Y-54730280D01*
X253166094Y-54737526D01*
X253174021Y-54745453D01*
X253206878Y-54790677D01*
X253284017Y-54891207D01*
X253299883Y-54918688D01*
X253317076Y-54942352D01*
X253343595Y-54994399D01*
X253385440Y-55066876D01*
X253406804Y-55118453D01*
X253427568Y-55159205D01*
X253441701Y-55202702D01*
X253463065Y-55254279D01*
X253484724Y-55335113D01*
X253502777Y-55390673D01*
X253507352Y-55419563D01*
X253515565Y-55450212D01*
X253532105Y-55575846D01*
X253540850Y-55631057D01*
X253540850Y-55642265D01*
X253542043Y-55651327D01*
X253542043Y-55854166D01*
X253540850Y-55863227D01*
X253540850Y-55874437D01*
X253532104Y-55929652D01*
X253515565Y-56055281D01*
X253507353Y-56085927D01*
X253502777Y-56114821D01*
X253484722Y-56170385D01*
X253463065Y-56251214D01*
X253441702Y-56302786D01*
X253427568Y-56346289D01*
X253406802Y-56387044D01*
X253385440Y-56438617D01*
X253343599Y-56511085D01*
X253317076Y-56563142D01*
X253299880Y-56586809D01*
X253284017Y-56614286D01*
X253206892Y-56714797D01*
X253174021Y-56760041D01*
X253166090Y-56767971D01*
X253160534Y-56775213D01*
X253017097Y-56918650D01*
X253009855Y-56924206D01*
X253001925Y-56932137D01*
X252956681Y-56965008D01*
X252856170Y-57042133D01*
X252828693Y-57057996D01*
X252805026Y-57075192D01*
X252752969Y-57101715D01*
X252680501Y-57143556D01*
X252628928Y-57164918D01*
X252588173Y-57185684D01*
X252544670Y-57199818D01*
X252493098Y-57221181D01*
X252412269Y-57242838D01*
X252356705Y-57260893D01*
X252327811Y-57265469D01*
X252297165Y-57273681D01*
X252171533Y-57290221D01*
X252116321Y-57298966D01*
X252105112Y-57298966D01*
X252096051Y-57300159D01*
X251893211Y-57300159D01*
X251884150Y-57298966D01*
X251872941Y-57298966D01*
X251817730Y-57290221D01*
X251692096Y-57273681D01*
X251661447Y-57265468D01*
X251632557Y-57260893D01*
X251576997Y-57242840D01*
X251496163Y-57221181D01*
X251444586Y-57199817D01*
X251401089Y-57185684D01*
X251360337Y-57164920D01*
X251308760Y-57143556D01*
X251236283Y-57101711D01*
X251184236Y-57075192D01*
X251160572Y-57057999D01*
X251133091Y-57042133D01*
X251032561Y-56964994D01*
X250987337Y-56932137D01*
X250979410Y-56924210D01*
X250972164Y-56918650D01*
X250828727Y-56775213D01*
X250823166Y-56767966D01*
X250815241Y-56760041D01*
X250782387Y-56714821D01*
X250705244Y-56614286D01*
X250689376Y-56586802D01*
X250672186Y-56563142D01*
X250645669Y-56511100D01*
X250603821Y-56438617D01*
X250582454Y-56387033D01*
X250561694Y-56346289D01*
X250547562Y-56302797D01*
X250526196Y-56251214D01*
X250504533Y-56170367D01*
X250486485Y-56114821D01*
X250481910Y-56085936D01*
X250473696Y-56055281D01*
X250457155Y-55929638D01*
X250448412Y-55874437D01*
X250448412Y-55863227D01*
X250447219Y-55854166D01*
X250447219Y-55651327D01*
X250448412Y-55642265D01*
X250448412Y-55631057D01*
X250457154Y-55575860D01*
X250473696Y-55450212D01*
X250481910Y-55419554D01*
X250486485Y-55390673D01*
X250504531Y-55335130D01*
X250526196Y-55254279D01*
X250547564Y-55202691D01*
X250561694Y-55159205D01*
X250582452Y-55118464D01*
X250603821Y-55066876D01*
X250645673Y-54994384D01*
X250672186Y-54942352D01*
X250689373Y-54918695D01*
X250705244Y-54891207D01*
X250782401Y-54790653D01*
X250815241Y-54745453D01*
X250823163Y-54737530D01*
X250828727Y-54730280D01*
X250972164Y-54586843D01*
X250979414Y-54581279D01*
X250987337Y-54573357D01*
X251032537Y-54540517D01*
X251133091Y-54463360D01*
X251160579Y-54447489D01*
X251184236Y-54430302D01*
X251236268Y-54403789D01*
X251308760Y-54361937D01*
X251360348Y-54340568D01*
X251401089Y-54319810D01*
X251444575Y-54305680D01*
X251496163Y-54284312D01*
X251577014Y-54262647D01*
X251632557Y-54244601D01*
X251661438Y-54240026D01*
X251692096Y-54231812D01*
X251817744Y-54215270D01*
X251872941Y-54206528D01*
X251884149Y-54206528D01*
X251893211Y-54205335D01*
X252096051Y-54205335D01*
X252105113Y-54206528D01*
G37*
G36*
X229034649Y-53758127D02*
G01*
X229051194Y-53769183D01*
X229062250Y-53785728D01*
X229066132Y-53805245D01*
X229066132Y-55505245D01*
X229062250Y-55524762D01*
X229051194Y-55541307D01*
X229034649Y-55552363D01*
X229015132Y-55556245D01*
X227315132Y-55556245D01*
X227295615Y-55552363D01*
X227279070Y-55541307D01*
X227268014Y-55524762D01*
X227264132Y-55505245D01*
X227264132Y-53805245D01*
X227268014Y-53785728D01*
X227279070Y-53769183D01*
X227295615Y-53758127D01*
X227315132Y-53754245D01*
X229015132Y-53754245D01*
X229034649Y-53758127D01*
G37*
G36*
X254554536Y-51884479D02*
G01*
X254717881Y-51952138D01*
X254864887Y-52050365D01*
X254989906Y-52175384D01*
X255088133Y-52322390D01*
X255155792Y-52485735D01*
X255190285Y-52659141D01*
X255190285Y-52835945D01*
X255155792Y-53009351D01*
X255088133Y-53172696D01*
X254989906Y-53319702D01*
X254864887Y-53444721D01*
X254717881Y-53542948D01*
X254554536Y-53610607D01*
X254381130Y-53645100D01*
X254204326Y-53645100D01*
X254030920Y-53610607D01*
X253867575Y-53542948D01*
X253720569Y-53444721D01*
X253595550Y-53319702D01*
X253497323Y-53172696D01*
X253429664Y-53009351D01*
X253395171Y-52835945D01*
X253395171Y-52659141D01*
X253429664Y-52485735D01*
X253497323Y-52322390D01*
X253595550Y-52175384D01*
X253720569Y-52050365D01*
X253867575Y-51952138D01*
X254030920Y-51884479D01*
X254204326Y-51849986D01*
X254381130Y-51849986D01*
X254554536Y-51884479D01*
G37*
M02*
