G04 #@! TF.GenerationSoftware,KiCad,Pcbnew,9.0.2*
G04 #@! TF.CreationDate,2025-08-20T20:14:58-04:00*
G04 #@! TF.ProjectId,Trackball,54726163-6b62-4616-9c6c-2e6b69636164,rev?*
G04 #@! TF.SameCoordinates,Original*
G04 #@! TF.FileFunction,Soldermask,Bot*
G04 #@! TF.FilePolarity,Negative*
%FSLAX46Y46*%
G04 Gerber Fmt 4.6, Leading zero omitted, Abs format (unit mm)*
G04 Created by KiCad (PCBNEW 9.0.2) date 2025-08-20 20:14:58*
%MOMM*%
%LPD*%
G01*
G04 APERTURE LIST*
G04 APERTURE END LIST*
G36*
X236456952Y-138043716D02*
G01*
X236473497Y-138054772D01*
X237675579Y-139256854D01*
X237686635Y-139273399D01*
X237690516Y-139292916D01*
X237686635Y-139312433D01*
X237675579Y-139328978D01*
X236473497Y-140531060D01*
X236456952Y-140542116D01*
X236437435Y-140545997D01*
X236417918Y-140542116D01*
X236401373Y-140531060D01*
X235199291Y-139328978D01*
X235188235Y-139312433D01*
X235184354Y-139292916D01*
X235188235Y-139273399D01*
X235199291Y-139256854D01*
X236063220Y-138392925D01*
X236392668Y-138063476D01*
X236392671Y-138063473D01*
X236401373Y-138054772D01*
X236417918Y-138043716D01*
X236437435Y-138039835D01*
X236456952Y-138043716D01*
G37*
G36*
X238495032Y-136634662D02*
G01*
X238658214Y-136702254D01*
X238805074Y-136800383D01*
X238929968Y-136925277D01*
X239028097Y-137072137D01*
X239095689Y-137235319D01*
X239130147Y-137408552D01*
X239130147Y-137585178D01*
X239095689Y-137758411D01*
X239028097Y-137921593D01*
X238929968Y-138068453D01*
X238805074Y-138193347D01*
X238658214Y-138291476D01*
X238495032Y-138359068D01*
X238321799Y-138393526D01*
X238145173Y-138393526D01*
X237971940Y-138359068D01*
X237808758Y-138291476D01*
X237661898Y-138193347D01*
X237537004Y-138068453D01*
X237438875Y-137921593D01*
X237371283Y-137758411D01*
X237336825Y-137585178D01*
X237336825Y-137408552D01*
X237371283Y-137235319D01*
X237438875Y-137072137D01*
X237537004Y-136925277D01*
X237661898Y-136800383D01*
X237808758Y-136702254D01*
X237971940Y-136634662D01*
X238145173Y-136600204D01*
X238321799Y-136600204D01*
X238495032Y-136634662D01*
G37*
G36*
X240291083Y-134838611D02*
G01*
X240454265Y-134906203D01*
X240601125Y-135004332D01*
X240726019Y-135129226D01*
X240824148Y-135276086D01*
X240891740Y-135439268D01*
X240926198Y-135612501D01*
X240926198Y-135789127D01*
X240891740Y-135962360D01*
X240824148Y-136125542D01*
X240726019Y-136272402D01*
X240601125Y-136397296D01*
X240454265Y-136495425D01*
X240291083Y-136563017D01*
X240117850Y-136597475D01*
X239941224Y-136597475D01*
X239767991Y-136563017D01*
X239604809Y-136495425D01*
X239457949Y-136397296D01*
X239333055Y-136272402D01*
X239234926Y-136125542D01*
X239167334Y-135962360D01*
X239132876Y-135789127D01*
X239132876Y-135612501D01*
X239167334Y-135439268D01*
X239234926Y-135276086D01*
X239333055Y-135129226D01*
X239457949Y-135004332D01*
X239604809Y-134906203D01*
X239767991Y-134838611D01*
X239941224Y-134804153D01*
X240117850Y-134804153D01*
X240291083Y-134838611D01*
G37*
G36*
X242087135Y-133042559D02*
G01*
X242250317Y-133110151D01*
X242397177Y-133208280D01*
X242522071Y-133333174D01*
X242620200Y-133480034D01*
X242687792Y-133643216D01*
X242722250Y-133816449D01*
X242722250Y-133993075D01*
X242687792Y-134166308D01*
X242620200Y-134329490D01*
X242522071Y-134476350D01*
X242397177Y-134601244D01*
X242250317Y-134699373D01*
X242087135Y-134766965D01*
X241913902Y-134801423D01*
X241737276Y-134801423D01*
X241564043Y-134766965D01*
X241400861Y-134699373D01*
X241254001Y-134601244D01*
X241129107Y-134476350D01*
X241030978Y-134329490D01*
X240963386Y-134166308D01*
X240928928Y-133993075D01*
X240928928Y-133816449D01*
X240963386Y-133643216D01*
X241030978Y-133480034D01*
X241129107Y-133333174D01*
X241254001Y-133208280D01*
X241400861Y-133110151D01*
X241564043Y-133042559D01*
X241737276Y-133008101D01*
X241913902Y-133008101D01*
X242087135Y-133042559D01*
G37*
G36*
X211813976Y-130881691D02*
G01*
X211848682Y-130892968D01*
X211855077Y-130897614D01*
X211871196Y-130903859D01*
X211925579Y-130946935D01*
X212385198Y-131406554D01*
X212428274Y-131460937D01*
X212434518Y-131477056D01*
X212439164Y-131483450D01*
X212450439Y-131518152D01*
X212468234Y-131564085D01*
X212468234Y-131674702D01*
X212450437Y-131720640D01*
X212439164Y-131755336D01*
X212434519Y-131761728D01*
X212428274Y-131777850D01*
X212385198Y-131832232D01*
X211465959Y-132751471D01*
X211411577Y-132794547D01*
X211395455Y-132800792D01*
X211389063Y-132805437D01*
X211354367Y-132816710D01*
X211308429Y-132834507D01*
X211197812Y-132834507D01*
X211151877Y-132816711D01*
X211117177Y-132805437D01*
X211110783Y-132800791D01*
X211094664Y-132794547D01*
X211040281Y-132751471D01*
X210580662Y-132291852D01*
X210537586Y-132237469D01*
X210531341Y-132221350D01*
X210526695Y-132214955D01*
X210515418Y-132180249D01*
X210497626Y-132134321D01*
X210497626Y-132023704D01*
X210515416Y-131977780D01*
X210526695Y-131943069D01*
X210531342Y-131936672D01*
X210537586Y-131920556D01*
X210580662Y-131866174D01*
X211047239Y-131399597D01*
X211492947Y-130953888D01*
X211492950Y-130953885D01*
X211499901Y-130946935D01*
X211554283Y-130903859D01*
X211570399Y-130897615D01*
X211576796Y-130892968D01*
X211611505Y-130881690D01*
X211657431Y-130863899D01*
X211768048Y-130863899D01*
X211813976Y-130881691D01*
G37*
G36*
X209728010Y-128795725D02*
G01*
X209762716Y-128807002D01*
X209769111Y-128811648D01*
X209785230Y-128817893D01*
X209839613Y-128860969D01*
X210299232Y-129320588D01*
X210342308Y-129374971D01*
X210348552Y-129391090D01*
X210353198Y-129397484D01*
X210364473Y-129432186D01*
X210382268Y-129478119D01*
X210382268Y-129588736D01*
X210364471Y-129634674D01*
X210353198Y-129669370D01*
X210348553Y-129675762D01*
X210342308Y-129691884D01*
X210299232Y-129746266D01*
X209379993Y-130665505D01*
X209325611Y-130708581D01*
X209309489Y-130714826D01*
X209303097Y-130719471D01*
X209268401Y-130730744D01*
X209222463Y-130748541D01*
X209111846Y-130748541D01*
X209065911Y-130730745D01*
X209031211Y-130719471D01*
X209024817Y-130714825D01*
X209008698Y-130708581D01*
X208954315Y-130665505D01*
X208494696Y-130205886D01*
X208451620Y-130151503D01*
X208445375Y-130135384D01*
X208440729Y-130128989D01*
X208429452Y-130094283D01*
X208411660Y-130048355D01*
X208411660Y-129937738D01*
X208429450Y-129891814D01*
X208440729Y-129857103D01*
X208445376Y-129850706D01*
X208451620Y-129834590D01*
X208494696Y-129780208D01*
X208961273Y-129313631D01*
X209406981Y-128867922D01*
X209406984Y-128867919D01*
X209413935Y-128860969D01*
X209468317Y-128817893D01*
X209484433Y-128811649D01*
X209490830Y-128807002D01*
X209525539Y-128795724D01*
X209571465Y-128777933D01*
X209682082Y-128777933D01*
X209728010Y-128795725D01*
G37*
G36*
X202870548Y-120025983D02*
G01*
X203033893Y-120093642D01*
X203180899Y-120191869D01*
X203305918Y-120316888D01*
X203404145Y-120463894D01*
X203471804Y-120627239D01*
X203506297Y-120800645D01*
X203506297Y-120977449D01*
X203471804Y-121150855D01*
X203404145Y-121314200D01*
X203305918Y-121461206D01*
X203180899Y-121586225D01*
X203033893Y-121684452D01*
X202870548Y-121752111D01*
X202697142Y-121786604D01*
X202520338Y-121786604D01*
X202346932Y-121752111D01*
X202183587Y-121684452D01*
X202036581Y-121586225D01*
X201911562Y-121461206D01*
X201813335Y-121314200D01*
X201745676Y-121150855D01*
X201711183Y-120977449D01*
X201711183Y-120800645D01*
X201745676Y-120627239D01*
X201813335Y-120463894D01*
X201911562Y-120316888D01*
X202036581Y-120191869D01*
X202183587Y-120093642D01*
X202346932Y-120025983D01*
X202520338Y-119991490D01*
X202697142Y-119991490D01*
X202870548Y-120025983D01*
G37*
G36*
X206842259Y-115268384D02*
G01*
X207065328Y-115328155D01*
X207278688Y-115416531D01*
X207478686Y-115532000D01*
X207661902Y-115672587D01*
X207825200Y-115835885D01*
X207965787Y-116019101D01*
X208081256Y-116219099D01*
X208169632Y-116432459D01*
X208229403Y-116655528D01*
X208259547Y-116884491D01*
X208259547Y-117115429D01*
X208229403Y-117344392D01*
X208169632Y-117567461D01*
X208081256Y-117780821D01*
X207965787Y-117980819D01*
X207825200Y-118164035D01*
X207661902Y-118327333D01*
X207478686Y-118467920D01*
X207278688Y-118583389D01*
X207065328Y-118671765D01*
X206842259Y-118731536D01*
X206613296Y-118761680D01*
X206382358Y-118761680D01*
X206153395Y-118731536D01*
X205930326Y-118671765D01*
X205716966Y-118583389D01*
X205516968Y-118467920D01*
X205333752Y-118327333D01*
X205170454Y-118164035D01*
X205029867Y-117980819D01*
X204914398Y-117780821D01*
X204826022Y-117567461D01*
X204766251Y-117344392D01*
X204736107Y-117115429D01*
X204736107Y-116884491D01*
X204766251Y-116655528D01*
X204826022Y-116432459D01*
X204914398Y-116219099D01*
X205029867Y-116019101D01*
X205170454Y-115835885D01*
X205333752Y-115672587D01*
X205516968Y-115532000D01*
X205716966Y-115416531D01*
X205930326Y-115328155D01*
X206153395Y-115268384D01*
X206382358Y-115238240D01*
X206613296Y-115238240D01*
X206842259Y-115268384D01*
G37*
G36*
X199994284Y-113222853D02*
G01*
X200010829Y-113233909D01*
X201849307Y-115072387D01*
X201860363Y-115088932D01*
X201864244Y-115108449D01*
X201860363Y-115127966D01*
X201849307Y-115144511D01*
X200010829Y-116982989D01*
X199994284Y-116994045D01*
X199974767Y-116997926D01*
X199955250Y-116994045D01*
X199938705Y-116982989D01*
X198100227Y-115144511D01*
X198089171Y-115127966D01*
X198085290Y-115108449D01*
X198089171Y-115088932D01*
X198100227Y-115072387D01*
X199372645Y-113799969D01*
X199930000Y-113242613D01*
X199930003Y-113242610D01*
X199938705Y-113233909D01*
X199955250Y-113222853D01*
X199974767Y-113218972D01*
X199994284Y-113222853D01*
G37*
G36*
X202401024Y-111246456D02*
G01*
X202412232Y-111246456D01*
X202467430Y-111255198D01*
X202593076Y-111271740D01*
X202623731Y-111279954D01*
X202652616Y-111284529D01*
X202708162Y-111302577D01*
X202789009Y-111324240D01*
X202840592Y-111345606D01*
X202884084Y-111359738D01*
X202924828Y-111380498D01*
X202976412Y-111401865D01*
X203048895Y-111443713D01*
X203100937Y-111470230D01*
X203124597Y-111487420D01*
X203152081Y-111503288D01*
X203252616Y-111580431D01*
X203297836Y-111613285D01*
X203305761Y-111621210D01*
X203313008Y-111626771D01*
X203456445Y-111770208D01*
X203462005Y-111777454D01*
X203469932Y-111785381D01*
X203502789Y-111830605D01*
X203579928Y-111931135D01*
X203595794Y-111958616D01*
X203612987Y-111982280D01*
X203639506Y-112034327D01*
X203681351Y-112106804D01*
X203702715Y-112158381D01*
X203723479Y-112199133D01*
X203737612Y-112242630D01*
X203758976Y-112294207D01*
X203780635Y-112375041D01*
X203798688Y-112430601D01*
X203803263Y-112459491D01*
X203811476Y-112490140D01*
X203828016Y-112615774D01*
X203836761Y-112670985D01*
X203836761Y-112682193D01*
X203837954Y-112691255D01*
X203837954Y-112894094D01*
X203836761Y-112903155D01*
X203836761Y-112914365D01*
X203828015Y-112969580D01*
X203811476Y-113095209D01*
X203803264Y-113125855D01*
X203798688Y-113154749D01*
X203780633Y-113210313D01*
X203758976Y-113291142D01*
X203737613Y-113342714D01*
X203723479Y-113386217D01*
X203702713Y-113426972D01*
X203681351Y-113478545D01*
X203639510Y-113551013D01*
X203612987Y-113603070D01*
X203595791Y-113626737D01*
X203579928Y-113654214D01*
X203502803Y-113754725D01*
X203469932Y-113799969D01*
X203462001Y-113807899D01*
X203456445Y-113815141D01*
X203313008Y-113958578D01*
X203305766Y-113964134D01*
X203297836Y-113972065D01*
X203252592Y-114004936D01*
X203152081Y-114082061D01*
X203124604Y-114097924D01*
X203100937Y-114115120D01*
X203048880Y-114141643D01*
X202976412Y-114183484D01*
X202924839Y-114204846D01*
X202884084Y-114225612D01*
X202840581Y-114239746D01*
X202789009Y-114261109D01*
X202708180Y-114282766D01*
X202652616Y-114300821D01*
X202623722Y-114305397D01*
X202593076Y-114313609D01*
X202467444Y-114330149D01*
X202412232Y-114338894D01*
X202401023Y-114338894D01*
X202391962Y-114340087D01*
X202189122Y-114340087D01*
X202180061Y-114338894D01*
X202168852Y-114338894D01*
X202113641Y-114330149D01*
X201988007Y-114313609D01*
X201957358Y-114305396D01*
X201928468Y-114300821D01*
X201872908Y-114282768D01*
X201792074Y-114261109D01*
X201740497Y-114239745D01*
X201697000Y-114225612D01*
X201656248Y-114204848D01*
X201604671Y-114183484D01*
X201532194Y-114141639D01*
X201480147Y-114115120D01*
X201456483Y-114097927D01*
X201429002Y-114082061D01*
X201328472Y-114004922D01*
X201283248Y-113972065D01*
X201275321Y-113964138D01*
X201268075Y-113958578D01*
X201124638Y-113815141D01*
X201119077Y-113807894D01*
X201111152Y-113799969D01*
X201078298Y-113754749D01*
X201001155Y-113654214D01*
X200985287Y-113626730D01*
X200968097Y-113603070D01*
X200941580Y-113551028D01*
X200899732Y-113478545D01*
X200878365Y-113426961D01*
X200857605Y-113386217D01*
X200843473Y-113342725D01*
X200822107Y-113291142D01*
X200800444Y-113210295D01*
X200782396Y-113154749D01*
X200777821Y-113125864D01*
X200769607Y-113095209D01*
X200753066Y-112969566D01*
X200744323Y-112914365D01*
X200744323Y-112903155D01*
X200743130Y-112894094D01*
X200743130Y-112691255D01*
X200744323Y-112682193D01*
X200744323Y-112670985D01*
X200753065Y-112615788D01*
X200769607Y-112490140D01*
X200777821Y-112459482D01*
X200782396Y-112430601D01*
X200800442Y-112375058D01*
X200822107Y-112294207D01*
X200843475Y-112242619D01*
X200857605Y-112199133D01*
X200878363Y-112158392D01*
X200899732Y-112106804D01*
X200941584Y-112034312D01*
X200968097Y-111982280D01*
X200985284Y-111958623D01*
X201001155Y-111931135D01*
X201078312Y-111830581D01*
X201111152Y-111785381D01*
X201119074Y-111777458D01*
X201124638Y-111770208D01*
X201268075Y-111626771D01*
X201275325Y-111621207D01*
X201283248Y-111613285D01*
X201328448Y-111580445D01*
X201429002Y-111503288D01*
X201456490Y-111487417D01*
X201480147Y-111470230D01*
X201532179Y-111443717D01*
X201604671Y-111401865D01*
X201656259Y-111380496D01*
X201697000Y-111359738D01*
X201740486Y-111345608D01*
X201792074Y-111324240D01*
X201872925Y-111302575D01*
X201928468Y-111284529D01*
X201957349Y-111279954D01*
X201988007Y-111271740D01*
X202113655Y-111255198D01*
X202168852Y-111246456D01*
X202180060Y-111246456D01*
X202189122Y-111245263D01*
X202391962Y-111245263D01*
X202401024Y-111246456D01*
G37*
G36*
X210648722Y-112247809D02*
G01*
X210812067Y-112315468D01*
X210959073Y-112413695D01*
X211084092Y-112538714D01*
X211182319Y-112685720D01*
X211249978Y-112849065D01*
X211284471Y-113022471D01*
X211284471Y-113199275D01*
X211249978Y-113372681D01*
X211182319Y-113536026D01*
X211084092Y-113683032D01*
X210959073Y-113808051D01*
X210812067Y-113906278D01*
X210648722Y-113973937D01*
X210475316Y-114008430D01*
X210298512Y-114008430D01*
X210125106Y-113973937D01*
X209961761Y-113906278D01*
X209814755Y-113808051D01*
X209689736Y-113683032D01*
X209591509Y-113536026D01*
X209523850Y-113372681D01*
X209489357Y-113199275D01*
X209489357Y-113022471D01*
X209523850Y-112849065D01*
X209591509Y-112685720D01*
X209689736Y-112538714D01*
X209814755Y-112413695D01*
X209961761Y-112315468D01*
X210125106Y-112247809D01*
X210298512Y-112213316D01*
X210475316Y-112213316D01*
X210648722Y-112247809D01*
G37*
G36*
X264358170Y-110771524D02*
G01*
X264521352Y-110839116D01*
X264668212Y-110937245D01*
X264793106Y-111062139D01*
X264891235Y-111208999D01*
X264958827Y-111372181D01*
X264993285Y-111545414D01*
X264993285Y-111722040D01*
X264958827Y-111895273D01*
X264891235Y-112058455D01*
X264793106Y-112205315D01*
X264668212Y-112330209D01*
X264521352Y-112428338D01*
X264358170Y-112495930D01*
X264184937Y-112530388D01*
X264008311Y-112530388D01*
X263835078Y-112495930D01*
X263671896Y-112428338D01*
X263525036Y-112330209D01*
X263400142Y-112205315D01*
X263302013Y-112058455D01*
X263234421Y-111895273D01*
X263199963Y-111722040D01*
X263199963Y-111545414D01*
X263234421Y-111372181D01*
X263302013Y-111208999D01*
X263400142Y-111062139D01*
X263525036Y-110937245D01*
X263671896Y-110839116D01*
X263835078Y-110771524D01*
X264008311Y-110737066D01*
X264184937Y-110737066D01*
X264358170Y-110771524D01*
G37*
G36*
X207492192Y-109266557D02*
G01*
X207503400Y-109266557D01*
X207558598Y-109275299D01*
X207684244Y-109291841D01*
X207714899Y-109300055D01*
X207743784Y-109304630D01*
X207799330Y-109322678D01*
X207880177Y-109344341D01*
X207931760Y-109365707D01*
X207975252Y-109379839D01*
X208015996Y-109400599D01*
X208067580Y-109421966D01*
X208140063Y-109463814D01*
X208192105Y-109490331D01*
X208215765Y-109507521D01*
X208243249Y-109523389D01*
X208343784Y-109600532D01*
X208389004Y-109633386D01*
X208396929Y-109641311D01*
X208404176Y-109646872D01*
X208547613Y-109790309D01*
X208553173Y-109797555D01*
X208561100Y-109805482D01*
X208593957Y-109850706D01*
X208671096Y-109951236D01*
X208686962Y-109978717D01*
X208704155Y-110002381D01*
X208730674Y-110054428D01*
X208772519Y-110126905D01*
X208793883Y-110178482D01*
X208814647Y-110219234D01*
X208828780Y-110262731D01*
X208850144Y-110314308D01*
X208871803Y-110395142D01*
X208889856Y-110450702D01*
X208894431Y-110479592D01*
X208902644Y-110510241D01*
X208919184Y-110635875D01*
X208927929Y-110691086D01*
X208927929Y-110702294D01*
X208929122Y-110711356D01*
X208929122Y-110914195D01*
X208927929Y-110923256D01*
X208927929Y-110934466D01*
X208919183Y-110989681D01*
X208902644Y-111115310D01*
X208894432Y-111145956D01*
X208889856Y-111174850D01*
X208871801Y-111230414D01*
X208850144Y-111311243D01*
X208828781Y-111362815D01*
X208814647Y-111406318D01*
X208793881Y-111447073D01*
X208772519Y-111498646D01*
X208730678Y-111571114D01*
X208704155Y-111623171D01*
X208686959Y-111646838D01*
X208671096Y-111674315D01*
X208593971Y-111774826D01*
X208561100Y-111820070D01*
X208553169Y-111828000D01*
X208547613Y-111835242D01*
X208404176Y-111978679D01*
X208396934Y-111984235D01*
X208389004Y-111992166D01*
X208343760Y-112025037D01*
X208243249Y-112102162D01*
X208215772Y-112118025D01*
X208192105Y-112135221D01*
X208140048Y-112161744D01*
X208067580Y-112203585D01*
X208016007Y-112224947D01*
X207975252Y-112245713D01*
X207931749Y-112259847D01*
X207880177Y-112281210D01*
X207799348Y-112302867D01*
X207743784Y-112320922D01*
X207714890Y-112325498D01*
X207684244Y-112333710D01*
X207558612Y-112350250D01*
X207503400Y-112358995D01*
X207492191Y-112358995D01*
X207483130Y-112360188D01*
X207280290Y-112360188D01*
X207271229Y-112358995D01*
X207260020Y-112358995D01*
X207204809Y-112350250D01*
X207079175Y-112333710D01*
X207048526Y-112325497D01*
X207019636Y-112320922D01*
X206964076Y-112302869D01*
X206883242Y-112281210D01*
X206831665Y-112259846D01*
X206788168Y-112245713D01*
X206747416Y-112224949D01*
X206695839Y-112203585D01*
X206623362Y-112161740D01*
X206571315Y-112135221D01*
X206547651Y-112118028D01*
X206520170Y-112102162D01*
X206419640Y-112025023D01*
X206374416Y-111992166D01*
X206366489Y-111984239D01*
X206359243Y-111978679D01*
X206215806Y-111835242D01*
X206210245Y-111827995D01*
X206202320Y-111820070D01*
X206169466Y-111774850D01*
X206092323Y-111674315D01*
X206076455Y-111646831D01*
X206059265Y-111623171D01*
X206032748Y-111571129D01*
X205990900Y-111498646D01*
X205969533Y-111447062D01*
X205948773Y-111406318D01*
X205934641Y-111362826D01*
X205913275Y-111311243D01*
X205891612Y-111230396D01*
X205873564Y-111174850D01*
X205868989Y-111145965D01*
X205860775Y-111115310D01*
X205844234Y-110989667D01*
X205835491Y-110934466D01*
X205835491Y-110923256D01*
X205834298Y-110914195D01*
X205834298Y-110711356D01*
X205835491Y-110702294D01*
X205835491Y-110691086D01*
X205844233Y-110635889D01*
X205860775Y-110510241D01*
X205868989Y-110479583D01*
X205873564Y-110450702D01*
X205891610Y-110395159D01*
X205913275Y-110314308D01*
X205934643Y-110262720D01*
X205948773Y-110219234D01*
X205969531Y-110178493D01*
X205990900Y-110126905D01*
X206032752Y-110054413D01*
X206059265Y-110002381D01*
X206076452Y-109978724D01*
X206092323Y-109951236D01*
X206169480Y-109850682D01*
X206202320Y-109805482D01*
X206210242Y-109797559D01*
X206215806Y-109790309D01*
X206359243Y-109646872D01*
X206366493Y-109641308D01*
X206374416Y-109633386D01*
X206419616Y-109600546D01*
X206520170Y-109523389D01*
X206547658Y-109507518D01*
X206571315Y-109490331D01*
X206623347Y-109463818D01*
X206695839Y-109421966D01*
X206747427Y-109400597D01*
X206788168Y-109379839D01*
X206831654Y-109365709D01*
X206883242Y-109344341D01*
X206964093Y-109322676D01*
X207019636Y-109304630D01*
X207048517Y-109300055D01*
X207079175Y-109291841D01*
X207204823Y-109275299D01*
X207260020Y-109266557D01*
X207271228Y-109266557D01*
X207280290Y-109265364D01*
X207483130Y-109265364D01*
X207492192Y-109266557D01*
G37*
G36*
X266154222Y-108975472D02*
G01*
X266317404Y-109043064D01*
X266464264Y-109141193D01*
X266589158Y-109266087D01*
X266687287Y-109412947D01*
X266754879Y-109576129D01*
X266789337Y-109749362D01*
X266789337Y-109925988D01*
X266754879Y-110099221D01*
X266687287Y-110262403D01*
X266589158Y-110409263D01*
X266464264Y-110534157D01*
X266317404Y-110632286D01*
X266154222Y-110699878D01*
X265980989Y-110734336D01*
X265804363Y-110734336D01*
X265631130Y-110699878D01*
X265467948Y-110632286D01*
X265321088Y-110534157D01*
X265196194Y-110409263D01*
X265098065Y-110262403D01*
X265030473Y-110099221D01*
X264996015Y-109925988D01*
X264996015Y-109749362D01*
X265030473Y-109576129D01*
X265098065Y-109412947D01*
X265196194Y-109266087D01*
X265321088Y-109141193D01*
X265467948Y-109043064D01*
X265631130Y-108975472D01*
X265804363Y-108941014D01*
X265980989Y-108941014D01*
X266154222Y-108975472D01*
G37*
G36*
X209717002Y-106611405D02*
G01*
X209733547Y-106622461D01*
X211572025Y-108460939D01*
X211583081Y-108477484D01*
X211586962Y-108497001D01*
X211583081Y-108516518D01*
X211572025Y-108533063D01*
X209733547Y-110371541D01*
X209717002Y-110382597D01*
X209697485Y-110386478D01*
X209677968Y-110382597D01*
X209661423Y-110371541D01*
X207822945Y-108533063D01*
X207811889Y-108516518D01*
X207808008Y-108497001D01*
X207811889Y-108477484D01*
X207822945Y-108460939D01*
X209138921Y-107144963D01*
X209652718Y-106631165D01*
X209652721Y-106631162D01*
X209661423Y-106622461D01*
X209677968Y-106611405D01*
X209697485Y-106607524D01*
X209717002Y-106611405D01*
G37*
G36*
X239590341Y-108239375D02*
G01*
X239753523Y-108306967D01*
X239900383Y-108405096D01*
X240025277Y-108529990D01*
X240123406Y-108676850D01*
X240190998Y-108840032D01*
X240225456Y-109013265D01*
X240225456Y-109189891D01*
X240190998Y-109363124D01*
X240123406Y-109526306D01*
X240025277Y-109673166D01*
X239900383Y-109798060D01*
X239753523Y-109896189D01*
X239590341Y-109963781D01*
X239417108Y-109998239D01*
X239240482Y-109998239D01*
X239067249Y-109963781D01*
X238904067Y-109896189D01*
X238757207Y-109798060D01*
X238632313Y-109673166D01*
X238534184Y-109526306D01*
X238466592Y-109363124D01*
X238432134Y-109189891D01*
X238432134Y-109013265D01*
X238466592Y-108840032D01*
X238534184Y-108676850D01*
X238632313Y-108529990D01*
X238757207Y-108405096D01*
X238904067Y-108306967D01*
X239067249Y-108239375D01*
X239240482Y-108204917D01*
X239417108Y-108204917D01*
X239590341Y-108239375D01*
G37*
G36*
X267950273Y-107179421D02*
G01*
X268113455Y-107247013D01*
X268260315Y-107345142D01*
X268385209Y-107470036D01*
X268483338Y-107616896D01*
X268550930Y-107780078D01*
X268585388Y-107953311D01*
X268585388Y-108129937D01*
X268550930Y-108303170D01*
X268483338Y-108466352D01*
X268385209Y-108613212D01*
X268260315Y-108738106D01*
X268113455Y-108836235D01*
X267950273Y-108903827D01*
X267777040Y-108938285D01*
X267600414Y-108938285D01*
X267427181Y-108903827D01*
X267263999Y-108836235D01*
X267117139Y-108738106D01*
X266992245Y-108613212D01*
X266894116Y-108466352D01*
X266826524Y-108303170D01*
X266792066Y-108129937D01*
X266792066Y-107953311D01*
X266826524Y-107780078D01*
X266894116Y-107616896D01*
X266992245Y-107470036D01*
X267117139Y-107345142D01*
X267263999Y-107247013D01*
X267427181Y-107179421D01*
X267600414Y-107144963D01*
X267777040Y-107144963D01*
X267950273Y-107179421D01*
G37*
G36*
X237794290Y-106443324D02*
G01*
X237957472Y-106510916D01*
X238104332Y-106609045D01*
X238229226Y-106733939D01*
X238327355Y-106880799D01*
X238394947Y-107043981D01*
X238429405Y-107217214D01*
X238429405Y-107393840D01*
X238394947Y-107567073D01*
X238327355Y-107730255D01*
X238229226Y-107877115D01*
X238104332Y-108002009D01*
X237957472Y-108100138D01*
X237794290Y-108167730D01*
X237621057Y-108202188D01*
X237444431Y-108202188D01*
X237271198Y-108167730D01*
X237108016Y-108100138D01*
X236961156Y-108002009D01*
X236836262Y-107877115D01*
X236738133Y-107730255D01*
X236670541Y-107567073D01*
X236636083Y-107393840D01*
X236636083Y-107217214D01*
X236670541Y-107043981D01*
X236738133Y-106880799D01*
X236836262Y-106733939D01*
X236961156Y-106609045D01*
X237108016Y-106510916D01*
X237271198Y-106443324D01*
X237444431Y-106408866D01*
X237621057Y-106408866D01*
X237794290Y-106443324D01*
G37*
G36*
X269504295Y-104996373D02*
G01*
X269520840Y-105007429D01*
X270722922Y-106209511D01*
X270733978Y-106226056D01*
X270737859Y-106245573D01*
X270733978Y-106265090D01*
X270722922Y-106281635D01*
X269520840Y-107483717D01*
X269504295Y-107494773D01*
X269484778Y-107498654D01*
X269465261Y-107494773D01*
X269448716Y-107483717D01*
X268246634Y-106281635D01*
X268235578Y-106265090D01*
X268231697Y-106245573D01*
X268235578Y-106226056D01*
X268246634Y-106209511D01*
X269034983Y-105421162D01*
X269440011Y-105016133D01*
X269440014Y-105016130D01*
X269448716Y-105007429D01*
X269465261Y-104996373D01*
X269484778Y-104992492D01*
X269504295Y-104996373D01*
G37*
G36*
X235998238Y-104647272D02*
G01*
X236161420Y-104714864D01*
X236308280Y-104812993D01*
X236433174Y-104937887D01*
X236531303Y-105084747D01*
X236598895Y-105247929D01*
X236633353Y-105421162D01*
X236633353Y-105597788D01*
X236598895Y-105771021D01*
X236531303Y-105934203D01*
X236433174Y-106081063D01*
X236308280Y-106205957D01*
X236161420Y-106304086D01*
X235998238Y-106371678D01*
X235825005Y-106406136D01*
X235648379Y-106406136D01*
X235475146Y-106371678D01*
X235311964Y-106304086D01*
X235165104Y-106205957D01*
X235040210Y-106081063D01*
X234942081Y-105934203D01*
X234874489Y-105771021D01*
X234840031Y-105597788D01*
X234840031Y-105421162D01*
X234874489Y-105247929D01*
X234942081Y-105084747D01*
X235040210Y-104937887D01*
X235165104Y-104812993D01*
X235311964Y-104714864D01*
X235475146Y-104647272D01*
X235648379Y-104612814D01*
X235825005Y-104612814D01*
X235998238Y-104647272D01*
G37*
G36*
X201972769Y-103559532D02*
G01*
X201989314Y-103570588D01*
X203191396Y-104772670D01*
X203202452Y-104789215D01*
X203206333Y-104808732D01*
X203202452Y-104828249D01*
X203191396Y-104844794D01*
X201989314Y-106046876D01*
X201972769Y-106057932D01*
X201953252Y-106061813D01*
X201933735Y-106057932D01*
X201917190Y-106046876D01*
X200715108Y-104844794D01*
X200704052Y-104828249D01*
X200700171Y-104808732D01*
X200704052Y-104789215D01*
X200715108Y-104772670D01*
X201579037Y-103908741D01*
X201908485Y-103579292D01*
X201908488Y-103579289D01*
X201917190Y-103570588D01*
X201933735Y-103559532D01*
X201953252Y-103555651D01*
X201972769Y-103559532D01*
G37*
G36*
X234202187Y-102851221D02*
G01*
X234365369Y-102918813D01*
X234512229Y-103016942D01*
X234637123Y-103141836D01*
X234735252Y-103288696D01*
X234802844Y-103451878D01*
X234837302Y-103625111D01*
X234837302Y-103801737D01*
X234802844Y-103974970D01*
X234735252Y-104138152D01*
X234637123Y-104285012D01*
X234512229Y-104409906D01*
X234365369Y-104508035D01*
X234202187Y-104575627D01*
X234028954Y-104610085D01*
X233852328Y-104610085D01*
X233679095Y-104575627D01*
X233515913Y-104508035D01*
X233369053Y-104409906D01*
X233244159Y-104285012D01*
X233146030Y-104138152D01*
X233078438Y-103974970D01*
X233043980Y-103801737D01*
X233043980Y-103625111D01*
X233078438Y-103451878D01*
X233146030Y-103288696D01*
X233244159Y-103141836D01*
X233369053Y-103016942D01*
X233515913Y-102918813D01*
X233679095Y-102851221D01*
X233852328Y-102816763D01*
X234028954Y-102816763D01*
X234202187Y-102851221D01*
G37*
G36*
X194667649Y-100603119D02*
G01*
X194684194Y-100614175D01*
X196522672Y-102452653D01*
X196533728Y-102469198D01*
X196537609Y-102488715D01*
X196533728Y-102508232D01*
X196522672Y-102524777D01*
X194684194Y-104363255D01*
X194667649Y-104374311D01*
X194648132Y-104378192D01*
X194628615Y-104374311D01*
X194612070Y-104363255D01*
X192773592Y-102524777D01*
X192762536Y-102508232D01*
X192758655Y-102488715D01*
X192762536Y-102469198D01*
X192773592Y-102452653D01*
X194097928Y-101128317D01*
X194603365Y-100622879D01*
X194603368Y-100622876D01*
X194612070Y-100614175D01*
X194628615Y-100603119D01*
X194648132Y-100599238D01*
X194667649Y-100603119D01*
G37*
G36*
X204010849Y-102150478D02*
G01*
X204174031Y-102218070D01*
X204320891Y-102316199D01*
X204445785Y-102441093D01*
X204543914Y-102587953D01*
X204611506Y-102751135D01*
X204645964Y-102924368D01*
X204645964Y-103100994D01*
X204611506Y-103274227D01*
X204543914Y-103437409D01*
X204445785Y-103584269D01*
X204320891Y-103709163D01*
X204174031Y-103807292D01*
X204010849Y-103874884D01*
X203837616Y-103909342D01*
X203660990Y-103909342D01*
X203487757Y-103874884D01*
X203324575Y-103807292D01*
X203177715Y-103709163D01*
X203052821Y-103584269D01*
X202954692Y-103437409D01*
X202887100Y-103274227D01*
X202852642Y-103100994D01*
X202852642Y-102924368D01*
X202887100Y-102751135D01*
X202954692Y-102587953D01*
X203052821Y-102441093D01*
X203177715Y-102316199D01*
X203324575Y-102218070D01*
X203487757Y-102150478D01*
X203660990Y-102116020D01*
X203837616Y-102116020D01*
X204010849Y-102150478D01*
G37*
G36*
X232164107Y-100668173D02*
G01*
X232180652Y-100679229D01*
X233382734Y-101881311D01*
X233393790Y-101897856D01*
X233397671Y-101917373D01*
X233393790Y-101936890D01*
X233382734Y-101953435D01*
X232180652Y-103155517D01*
X232164107Y-103166573D01*
X232144590Y-103170454D01*
X232125073Y-103166573D01*
X232108528Y-103155517D01*
X230906446Y-101953435D01*
X230895390Y-101936890D01*
X230891509Y-101917373D01*
X230895390Y-101897856D01*
X230906446Y-101881311D01*
X231753278Y-101034479D01*
X232099823Y-100687933D01*
X232099826Y-100687930D01*
X232108528Y-100679229D01*
X232125073Y-100668173D01*
X232144590Y-100664292D01*
X232164107Y-100668173D01*
G37*
G36*
X205806900Y-100354427D02*
G01*
X205970082Y-100422019D01*
X206116942Y-100520148D01*
X206241836Y-100645042D01*
X206339965Y-100791902D01*
X206407557Y-100955084D01*
X206442015Y-101128317D01*
X206442015Y-101304943D01*
X206407557Y-101478176D01*
X206339965Y-101641358D01*
X206241836Y-101788218D01*
X206116942Y-101913112D01*
X205970082Y-102011241D01*
X205806900Y-102078833D01*
X205633667Y-102113291D01*
X205457041Y-102113291D01*
X205283808Y-102078833D01*
X205120626Y-102011241D01*
X204973766Y-101913112D01*
X204848872Y-101788218D01*
X204750743Y-101641358D01*
X204683151Y-101478176D01*
X204648693Y-101304943D01*
X204648693Y-101128317D01*
X204683151Y-100955084D01*
X204750743Y-100791902D01*
X204848872Y-100645042D01*
X204973766Y-100520148D01*
X205120626Y-100422019D01*
X205283808Y-100354427D01*
X205457041Y-100319969D01*
X205633667Y-100319969D01*
X205806900Y-100354427D01*
G37*
G36*
X197074389Y-98626721D02*
G01*
X197085597Y-98626721D01*
X197140795Y-98635463D01*
X197266441Y-98652005D01*
X197297096Y-98660219D01*
X197325981Y-98664794D01*
X197381527Y-98682842D01*
X197462374Y-98704505D01*
X197513957Y-98725871D01*
X197557449Y-98740003D01*
X197598193Y-98760763D01*
X197649777Y-98782130D01*
X197722260Y-98823978D01*
X197774302Y-98850495D01*
X197797962Y-98867685D01*
X197825446Y-98883553D01*
X197925981Y-98960696D01*
X197971201Y-98993550D01*
X197979126Y-99001475D01*
X197986373Y-99007036D01*
X198129810Y-99150473D01*
X198135370Y-99157719D01*
X198143297Y-99165646D01*
X198176154Y-99210870D01*
X198253293Y-99311400D01*
X198269159Y-99338881D01*
X198286352Y-99362545D01*
X198312871Y-99414592D01*
X198354716Y-99487069D01*
X198376080Y-99538646D01*
X198396844Y-99579398D01*
X198410977Y-99622895D01*
X198432341Y-99674472D01*
X198454000Y-99755306D01*
X198472053Y-99810866D01*
X198476628Y-99839756D01*
X198484841Y-99870405D01*
X198501381Y-99996039D01*
X198510126Y-100051250D01*
X198510126Y-100062458D01*
X198511319Y-100071520D01*
X198511319Y-100274359D01*
X198510126Y-100283420D01*
X198510126Y-100294630D01*
X198501380Y-100349845D01*
X198484841Y-100475474D01*
X198476629Y-100506120D01*
X198472053Y-100535014D01*
X198453998Y-100590578D01*
X198432341Y-100671407D01*
X198410978Y-100722979D01*
X198396844Y-100766482D01*
X198376078Y-100807237D01*
X198354716Y-100858810D01*
X198312875Y-100931278D01*
X198286352Y-100983335D01*
X198269156Y-101007002D01*
X198253293Y-101034479D01*
X198176168Y-101134990D01*
X198143297Y-101180234D01*
X198135366Y-101188164D01*
X198129810Y-101195406D01*
X197986373Y-101338843D01*
X197979131Y-101344399D01*
X197971201Y-101352330D01*
X197925957Y-101385201D01*
X197825446Y-101462326D01*
X197797969Y-101478189D01*
X197774302Y-101495385D01*
X197722245Y-101521908D01*
X197649777Y-101563749D01*
X197598204Y-101585111D01*
X197557449Y-101605877D01*
X197513946Y-101620011D01*
X197462374Y-101641374D01*
X197381545Y-101663031D01*
X197325981Y-101681086D01*
X197297087Y-101685662D01*
X197266441Y-101693874D01*
X197140809Y-101710414D01*
X197085597Y-101719159D01*
X197074388Y-101719159D01*
X197065327Y-101720352D01*
X196862487Y-101720352D01*
X196853426Y-101719159D01*
X196842217Y-101719159D01*
X196787006Y-101710414D01*
X196661372Y-101693874D01*
X196630723Y-101685661D01*
X196601833Y-101681086D01*
X196546273Y-101663033D01*
X196465439Y-101641374D01*
X196413862Y-101620010D01*
X196370365Y-101605877D01*
X196329613Y-101585113D01*
X196278036Y-101563749D01*
X196205559Y-101521904D01*
X196153512Y-101495385D01*
X196129848Y-101478192D01*
X196102367Y-101462326D01*
X196001837Y-101385187D01*
X195956613Y-101352330D01*
X195948686Y-101344403D01*
X195941440Y-101338843D01*
X195798003Y-101195406D01*
X195792442Y-101188159D01*
X195784517Y-101180234D01*
X195751663Y-101135014D01*
X195674520Y-101034479D01*
X195658652Y-101006995D01*
X195641462Y-100983335D01*
X195614945Y-100931293D01*
X195573097Y-100858810D01*
X195551730Y-100807226D01*
X195530970Y-100766482D01*
X195516838Y-100722990D01*
X195495472Y-100671407D01*
X195473809Y-100590560D01*
X195455761Y-100535014D01*
X195451186Y-100506129D01*
X195442972Y-100475474D01*
X195426431Y-100349831D01*
X195417688Y-100294630D01*
X195417688Y-100283420D01*
X195416495Y-100274359D01*
X195416495Y-100071520D01*
X195417688Y-100062458D01*
X195417688Y-100051250D01*
X195426430Y-99996053D01*
X195442972Y-99870405D01*
X195451186Y-99839747D01*
X195455761Y-99810866D01*
X195473807Y-99755323D01*
X195495472Y-99674472D01*
X195516840Y-99622884D01*
X195530970Y-99579398D01*
X195551728Y-99538657D01*
X195573097Y-99487069D01*
X195614949Y-99414577D01*
X195641462Y-99362545D01*
X195658649Y-99338888D01*
X195674520Y-99311400D01*
X195751677Y-99210846D01*
X195784517Y-99165646D01*
X195792439Y-99157723D01*
X195798003Y-99150473D01*
X195941440Y-99007036D01*
X195948690Y-99001472D01*
X195956613Y-98993550D01*
X196001813Y-98960710D01*
X196102367Y-98883553D01*
X196129855Y-98867682D01*
X196153512Y-98850495D01*
X196205544Y-98823982D01*
X196278036Y-98782130D01*
X196329624Y-98760761D01*
X196370365Y-98740003D01*
X196413851Y-98725873D01*
X196465439Y-98704505D01*
X196546290Y-98682840D01*
X196601833Y-98664794D01*
X196630714Y-98660219D01*
X196661372Y-98652005D01*
X196787020Y-98635463D01*
X196842217Y-98626721D01*
X196853425Y-98626721D01*
X196862487Y-98625528D01*
X197065327Y-98625528D01*
X197074389Y-98626721D01*
G37*
G36*
X207602952Y-98558375D02*
G01*
X207766134Y-98625967D01*
X207912994Y-98724096D01*
X208037888Y-98848990D01*
X208136017Y-98995850D01*
X208203609Y-99159032D01*
X208238067Y-99332265D01*
X208238067Y-99508891D01*
X208203609Y-99682124D01*
X208136017Y-99845306D01*
X208037888Y-99992166D01*
X207912994Y-100117060D01*
X207766134Y-100215189D01*
X207602952Y-100282781D01*
X207429719Y-100317239D01*
X207253093Y-100317239D01*
X207079860Y-100282781D01*
X206916678Y-100215189D01*
X206769818Y-100117060D01*
X206644924Y-99992166D01*
X206546795Y-99845306D01*
X206479203Y-99682124D01*
X206444745Y-99508891D01*
X206444745Y-99332265D01*
X206479203Y-99159032D01*
X206546795Y-98995850D01*
X206644924Y-98848990D01*
X206769818Y-98724096D01*
X206916678Y-98625967D01*
X207079860Y-98558375D01*
X207253093Y-98523917D01*
X207429719Y-98523917D01*
X207602952Y-98558375D01*
G37*
G36*
X202165557Y-96646822D02*
G01*
X202176765Y-96646822D01*
X202231963Y-96655564D01*
X202357609Y-96672106D01*
X202388264Y-96680320D01*
X202417149Y-96684895D01*
X202472695Y-96702943D01*
X202553542Y-96724606D01*
X202605125Y-96745972D01*
X202648617Y-96760104D01*
X202689361Y-96780864D01*
X202740945Y-96802231D01*
X202813428Y-96844079D01*
X202865470Y-96870596D01*
X202889130Y-96887786D01*
X202916614Y-96903654D01*
X203017149Y-96980797D01*
X203062369Y-97013651D01*
X203070294Y-97021576D01*
X203077541Y-97027137D01*
X203220978Y-97170574D01*
X203226538Y-97177820D01*
X203234465Y-97185747D01*
X203267322Y-97230971D01*
X203344461Y-97331501D01*
X203360327Y-97358982D01*
X203377520Y-97382646D01*
X203404039Y-97434693D01*
X203445884Y-97507170D01*
X203467248Y-97558747D01*
X203488012Y-97599499D01*
X203502145Y-97642996D01*
X203523509Y-97694573D01*
X203545168Y-97775407D01*
X203563221Y-97830967D01*
X203567796Y-97859857D01*
X203576009Y-97890506D01*
X203592549Y-98016140D01*
X203601294Y-98071351D01*
X203601294Y-98082559D01*
X203602487Y-98091621D01*
X203602487Y-98294460D01*
X203601294Y-98303521D01*
X203601294Y-98314731D01*
X203592548Y-98369946D01*
X203576009Y-98495575D01*
X203567797Y-98526221D01*
X203563221Y-98555115D01*
X203545166Y-98610679D01*
X203523509Y-98691508D01*
X203502146Y-98743080D01*
X203488012Y-98786583D01*
X203467246Y-98827338D01*
X203445884Y-98878911D01*
X203404043Y-98951379D01*
X203377520Y-99003436D01*
X203360324Y-99027103D01*
X203344461Y-99054580D01*
X203267336Y-99155091D01*
X203234465Y-99200335D01*
X203226534Y-99208265D01*
X203220978Y-99215507D01*
X203077541Y-99358944D01*
X203070299Y-99364500D01*
X203062369Y-99372431D01*
X203017125Y-99405302D01*
X202916614Y-99482427D01*
X202889137Y-99498290D01*
X202865470Y-99515486D01*
X202813413Y-99542009D01*
X202740945Y-99583850D01*
X202689372Y-99605212D01*
X202648617Y-99625978D01*
X202605114Y-99640112D01*
X202553542Y-99661475D01*
X202472713Y-99683132D01*
X202417149Y-99701187D01*
X202388255Y-99705763D01*
X202357609Y-99713975D01*
X202231977Y-99730515D01*
X202176765Y-99739260D01*
X202165556Y-99739260D01*
X202156495Y-99740453D01*
X201953655Y-99740453D01*
X201944594Y-99739260D01*
X201933385Y-99739260D01*
X201878174Y-99730515D01*
X201752540Y-99713975D01*
X201721891Y-99705762D01*
X201693001Y-99701187D01*
X201637441Y-99683134D01*
X201556607Y-99661475D01*
X201505030Y-99640111D01*
X201461533Y-99625978D01*
X201420781Y-99605214D01*
X201369204Y-99583850D01*
X201296727Y-99542005D01*
X201244680Y-99515486D01*
X201221016Y-99498293D01*
X201193535Y-99482427D01*
X201093005Y-99405288D01*
X201047781Y-99372431D01*
X201039854Y-99364504D01*
X201032608Y-99358944D01*
X200889171Y-99215507D01*
X200883610Y-99208260D01*
X200875685Y-99200335D01*
X200842831Y-99155115D01*
X200765688Y-99054580D01*
X200749820Y-99027096D01*
X200732630Y-99003436D01*
X200706113Y-98951394D01*
X200664265Y-98878911D01*
X200642898Y-98827327D01*
X200622138Y-98786583D01*
X200608006Y-98743091D01*
X200586640Y-98691508D01*
X200564977Y-98610661D01*
X200546929Y-98555115D01*
X200542354Y-98526230D01*
X200534140Y-98495575D01*
X200517599Y-98369932D01*
X200508856Y-98314731D01*
X200508856Y-98303521D01*
X200507663Y-98294460D01*
X200507663Y-98091621D01*
X200508856Y-98082559D01*
X200508856Y-98071351D01*
X200517598Y-98016154D01*
X200534140Y-97890506D01*
X200542354Y-97859848D01*
X200546929Y-97830967D01*
X200564975Y-97775424D01*
X200586640Y-97694573D01*
X200608008Y-97642985D01*
X200622138Y-97599499D01*
X200642896Y-97558758D01*
X200664265Y-97507170D01*
X200706117Y-97434678D01*
X200732630Y-97382646D01*
X200749817Y-97358989D01*
X200765688Y-97331501D01*
X200842845Y-97230947D01*
X200875685Y-97185747D01*
X200883607Y-97177824D01*
X200889171Y-97170574D01*
X201032608Y-97027137D01*
X201039858Y-97021573D01*
X201047781Y-97013651D01*
X201092981Y-96980811D01*
X201193535Y-96903654D01*
X201221023Y-96887783D01*
X201244680Y-96870596D01*
X201296712Y-96844083D01*
X201369204Y-96802231D01*
X201420792Y-96780862D01*
X201461533Y-96760104D01*
X201505019Y-96745974D01*
X201556607Y-96724606D01*
X201637458Y-96702941D01*
X201693001Y-96684895D01*
X201721882Y-96680320D01*
X201752540Y-96672106D01*
X201878188Y-96655564D01*
X201933385Y-96646822D01*
X201944593Y-96646822D01*
X201953655Y-96645629D01*
X202156495Y-96645629D01*
X202165557Y-96646822D01*
G37*
G36*
X194220511Y-97011779D02*
G01*
X194383856Y-97079438D01*
X194530862Y-97177665D01*
X194655881Y-97302684D01*
X194754108Y-97449690D01*
X194821767Y-97613035D01*
X194856260Y-97786441D01*
X194856260Y-97963245D01*
X194821767Y-98136651D01*
X194754108Y-98299996D01*
X194655881Y-98447002D01*
X194530862Y-98572021D01*
X194383856Y-98670248D01*
X194220511Y-98737907D01*
X194047105Y-98772400D01*
X193870301Y-98772400D01*
X193696895Y-98737907D01*
X193533550Y-98670248D01*
X193386544Y-98572021D01*
X193261525Y-98447002D01*
X193163298Y-98299996D01*
X193095639Y-98136651D01*
X193061146Y-97963245D01*
X193061146Y-97786441D01*
X193095639Y-97613035D01*
X193163298Y-97449690D01*
X193261525Y-97302684D01*
X193386544Y-97177665D01*
X193533550Y-97079438D01*
X193696895Y-97011779D01*
X193870301Y-96977286D01*
X194047105Y-96977286D01*
X194220511Y-97011779D01*
G37*
G36*
X204390367Y-93991671D02*
G01*
X204406912Y-94002727D01*
X206245390Y-95841205D01*
X206256446Y-95857750D01*
X206260327Y-95877267D01*
X206256446Y-95896784D01*
X206245390Y-95913329D01*
X204406912Y-97751807D01*
X204390367Y-97762863D01*
X204370850Y-97766744D01*
X204351333Y-97762863D01*
X204334788Y-97751807D01*
X202496310Y-95913329D01*
X202485254Y-95896784D01*
X202481373Y-95877267D01*
X202485254Y-95857750D01*
X202496310Y-95841205D01*
X203784341Y-94553174D01*
X204326083Y-94011431D01*
X204326086Y-94011428D01*
X204334788Y-94002727D01*
X204351333Y-93991671D01*
X204370850Y-93987790D01*
X204390367Y-93991671D01*
G37*
G36*
X198192222Y-92254180D02*
G01*
X198415291Y-92313951D01*
X198628651Y-92402327D01*
X198828649Y-92517796D01*
X199011865Y-92658383D01*
X199175163Y-92821681D01*
X199315750Y-93004897D01*
X199431219Y-93204895D01*
X199519595Y-93418255D01*
X199579366Y-93641324D01*
X199609510Y-93870287D01*
X199609510Y-94101225D01*
X199579366Y-94330188D01*
X199519595Y-94553257D01*
X199431219Y-94766617D01*
X199315750Y-94966615D01*
X199175163Y-95149831D01*
X199011865Y-95313129D01*
X198828649Y-95453716D01*
X198628651Y-95569185D01*
X198415291Y-95657561D01*
X198192222Y-95717332D01*
X197963259Y-95747476D01*
X197732321Y-95747476D01*
X197503358Y-95717332D01*
X197280289Y-95657561D01*
X197066929Y-95569185D01*
X196866931Y-95453716D01*
X196683715Y-95313129D01*
X196520417Y-95149831D01*
X196379830Y-94966615D01*
X196264361Y-94766617D01*
X196175985Y-94553257D01*
X196116214Y-94330188D01*
X196086070Y-94101225D01*
X196086070Y-93870287D01*
X196116214Y-93641324D01*
X196175985Y-93418255D01*
X196264361Y-93204895D01*
X196379830Y-93004897D01*
X196520417Y-92821681D01*
X196683715Y-92658383D01*
X196866931Y-92517796D01*
X197066929Y-92402327D01*
X197280289Y-92313951D01*
X197503358Y-92254180D01*
X197732321Y-92224036D01*
X197963259Y-92224036D01*
X198192222Y-92254180D01*
G37*
G36*
X201998685Y-89233605D02*
G01*
X202162030Y-89301264D01*
X202309036Y-89399491D01*
X202434055Y-89524510D01*
X202532282Y-89671516D01*
X202599941Y-89834861D01*
X202634434Y-90008267D01*
X202634434Y-90185071D01*
X202599941Y-90358477D01*
X202532282Y-90521822D01*
X202434055Y-90668828D01*
X202309036Y-90793847D01*
X202162030Y-90892074D01*
X201998685Y-90959733D01*
X201825279Y-90994226D01*
X201648475Y-90994226D01*
X201475069Y-90959733D01*
X201311724Y-90892074D01*
X201164718Y-90793847D01*
X201039699Y-90668828D01*
X200941472Y-90521822D01*
X200873813Y-90358477D01*
X200839320Y-90185071D01*
X200839320Y-90008267D01*
X200873813Y-89834861D01*
X200941472Y-89671516D01*
X201039699Y-89524510D01*
X201164718Y-89399491D01*
X201311724Y-89301264D01*
X201475069Y-89233605D01*
X201648475Y-89199112D01*
X201825279Y-89199112D01*
X201998685Y-89233605D01*
G37*
G36*
X202133282Y-81738924D02*
G01*
X202149827Y-81749980D01*
X203988305Y-83588458D01*
X203999361Y-83605003D01*
X204003242Y-83624520D01*
X203999361Y-83644037D01*
X203988305Y-83660582D01*
X202149827Y-85499060D01*
X202133282Y-85510116D01*
X202113765Y-85513997D01*
X202094248Y-85510116D01*
X202077703Y-85499060D01*
X200239225Y-83660582D01*
X200228169Y-83644037D01*
X200224288Y-83624520D01*
X200228169Y-83605003D01*
X200239225Y-83588458D01*
X201591271Y-82236412D01*
X202068998Y-81758684D01*
X202069001Y-81758681D01*
X202077703Y-81749980D01*
X202094248Y-81738924D01*
X202113765Y-81735043D01*
X202133282Y-81738924D01*
G37*
G36*
X204540022Y-79762526D02*
G01*
X204551230Y-79762526D01*
X204606428Y-79771268D01*
X204732074Y-79787810D01*
X204762729Y-79796024D01*
X204791614Y-79800599D01*
X204847160Y-79818647D01*
X204928007Y-79840310D01*
X204979590Y-79861676D01*
X205023082Y-79875808D01*
X205063826Y-79896568D01*
X205115410Y-79917935D01*
X205187893Y-79959783D01*
X205239935Y-79986300D01*
X205263595Y-80003490D01*
X205291079Y-80019358D01*
X205391614Y-80096501D01*
X205436834Y-80129355D01*
X205444759Y-80137280D01*
X205452006Y-80142841D01*
X205595443Y-80286278D01*
X205601003Y-80293524D01*
X205608930Y-80301451D01*
X205641787Y-80346675D01*
X205718926Y-80447205D01*
X205734792Y-80474686D01*
X205751985Y-80498350D01*
X205778504Y-80550397D01*
X205820349Y-80622874D01*
X205841713Y-80674451D01*
X205862477Y-80715203D01*
X205876610Y-80758700D01*
X205897974Y-80810277D01*
X205919633Y-80891111D01*
X205937686Y-80946671D01*
X205942261Y-80975561D01*
X205950474Y-81006210D01*
X205967014Y-81131844D01*
X205975759Y-81187055D01*
X205975759Y-81198263D01*
X205976952Y-81207325D01*
X205976952Y-81410164D01*
X205975759Y-81419225D01*
X205975759Y-81430435D01*
X205967013Y-81485650D01*
X205950474Y-81611279D01*
X205942262Y-81641925D01*
X205937686Y-81670819D01*
X205919631Y-81726383D01*
X205897974Y-81807212D01*
X205876611Y-81858784D01*
X205862477Y-81902287D01*
X205841711Y-81943042D01*
X205820349Y-81994615D01*
X205778508Y-82067083D01*
X205751985Y-82119140D01*
X205734789Y-82142807D01*
X205718926Y-82170284D01*
X205641801Y-82270795D01*
X205608930Y-82316039D01*
X205600999Y-82323969D01*
X205595443Y-82331211D01*
X205452006Y-82474648D01*
X205444764Y-82480204D01*
X205436834Y-82488135D01*
X205391590Y-82521006D01*
X205291079Y-82598131D01*
X205263602Y-82613994D01*
X205239935Y-82631190D01*
X205187878Y-82657713D01*
X205115410Y-82699554D01*
X205063837Y-82720916D01*
X205023082Y-82741682D01*
X204979579Y-82755816D01*
X204928007Y-82777179D01*
X204847178Y-82798836D01*
X204791614Y-82816891D01*
X204762720Y-82821467D01*
X204732074Y-82829679D01*
X204606442Y-82846219D01*
X204551230Y-82854964D01*
X204540021Y-82854964D01*
X204530960Y-82856157D01*
X204328120Y-82856157D01*
X204319059Y-82854964D01*
X204307850Y-82854964D01*
X204252639Y-82846219D01*
X204127005Y-82829679D01*
X204096356Y-82821466D01*
X204067466Y-82816891D01*
X204011906Y-82798838D01*
X203931072Y-82777179D01*
X203879495Y-82755815D01*
X203835998Y-82741682D01*
X203795246Y-82720918D01*
X203743669Y-82699554D01*
X203671192Y-82657709D01*
X203619145Y-82631190D01*
X203595481Y-82613997D01*
X203568000Y-82598131D01*
X203467470Y-82520992D01*
X203422246Y-82488135D01*
X203414319Y-82480208D01*
X203407073Y-82474648D01*
X203263636Y-82331211D01*
X203258075Y-82323964D01*
X203250150Y-82316039D01*
X203217296Y-82270819D01*
X203140153Y-82170284D01*
X203124285Y-82142800D01*
X203107095Y-82119140D01*
X203080578Y-82067098D01*
X203038730Y-81994615D01*
X203017363Y-81943031D01*
X202996603Y-81902287D01*
X202982471Y-81858795D01*
X202961105Y-81807212D01*
X202939442Y-81726365D01*
X202921394Y-81670819D01*
X202916819Y-81641934D01*
X202908605Y-81611279D01*
X202892064Y-81485636D01*
X202883321Y-81430435D01*
X202883321Y-81419225D01*
X202882128Y-81410164D01*
X202882128Y-81207325D01*
X202883321Y-81198263D01*
X202883321Y-81187055D01*
X202892063Y-81131858D01*
X202908605Y-81006210D01*
X202916819Y-80975552D01*
X202921394Y-80946671D01*
X202939440Y-80891128D01*
X202961105Y-80810277D01*
X202982473Y-80758689D01*
X202996603Y-80715203D01*
X203017361Y-80674462D01*
X203038730Y-80622874D01*
X203080582Y-80550382D01*
X203107095Y-80498350D01*
X203124282Y-80474693D01*
X203140153Y-80447205D01*
X203217310Y-80346651D01*
X203250150Y-80301451D01*
X203258072Y-80293528D01*
X203263636Y-80286278D01*
X203407073Y-80142841D01*
X203414323Y-80137277D01*
X203422246Y-80129355D01*
X203467446Y-80096515D01*
X203568000Y-80019358D01*
X203595488Y-80003487D01*
X203619145Y-79986300D01*
X203671177Y-79959787D01*
X203743669Y-79917935D01*
X203795257Y-79896566D01*
X203835998Y-79875808D01*
X203879484Y-79861678D01*
X203931072Y-79840310D01*
X204011923Y-79818645D01*
X204067466Y-79800599D01*
X204096347Y-79796024D01*
X204127005Y-79787810D01*
X204252653Y-79771268D01*
X204307850Y-79762526D01*
X204319058Y-79762526D01*
X204328120Y-79761333D01*
X204530960Y-79761333D01*
X204540022Y-79762526D01*
G37*
G36*
X262372111Y-80323556D02*
G01*
X262406817Y-80334833D01*
X262413212Y-80339479D01*
X262429331Y-80345724D01*
X262483714Y-80388800D01*
X262943333Y-80848419D01*
X262986409Y-80902802D01*
X262992653Y-80918921D01*
X262997299Y-80925315D01*
X263008574Y-80960017D01*
X263026369Y-81005950D01*
X263026369Y-81116567D01*
X263008572Y-81162505D01*
X262997299Y-81197201D01*
X262992654Y-81203593D01*
X262986409Y-81219715D01*
X262943333Y-81274097D01*
X262024094Y-82193336D01*
X261969712Y-82236412D01*
X261953590Y-82242657D01*
X261947198Y-82247302D01*
X261912502Y-82258575D01*
X261866564Y-82276372D01*
X261755947Y-82276372D01*
X261710012Y-82258576D01*
X261675312Y-82247302D01*
X261668918Y-82242656D01*
X261652799Y-82236412D01*
X261598416Y-82193336D01*
X261138797Y-81733717D01*
X261095721Y-81679334D01*
X261089476Y-81663215D01*
X261084830Y-81656820D01*
X261073553Y-81622114D01*
X261055761Y-81576186D01*
X261055761Y-81465569D01*
X261073551Y-81419645D01*
X261084830Y-81384934D01*
X261089477Y-81378537D01*
X261095721Y-81362421D01*
X261138797Y-81308039D01*
X261823962Y-80622874D01*
X262051082Y-80395753D01*
X262051085Y-80395750D01*
X262058036Y-80388800D01*
X262112418Y-80345724D01*
X262128534Y-80339480D01*
X262134931Y-80334833D01*
X262169640Y-80323555D01*
X262215566Y-80305764D01*
X262326183Y-80305764D01*
X262372111Y-80323556D01*
G37*
G36*
X243564543Y-79331988D02*
G01*
X243727888Y-79399647D01*
X243874894Y-79497874D01*
X243999913Y-79622893D01*
X244098140Y-79769899D01*
X244165799Y-79933244D01*
X244200292Y-80106650D01*
X244200292Y-80283454D01*
X244165799Y-80456860D01*
X244098140Y-80620205D01*
X243999913Y-80767211D01*
X243874894Y-80892230D01*
X243727888Y-80990457D01*
X243564543Y-81058116D01*
X243391137Y-81092609D01*
X243214333Y-81092609D01*
X243040927Y-81058116D01*
X242877582Y-80990457D01*
X242730576Y-80892230D01*
X242605557Y-80767211D01*
X242507330Y-80620205D01*
X242439671Y-80456860D01*
X242405178Y-80283454D01*
X242405178Y-80106650D01*
X242439671Y-79933244D01*
X242507330Y-79769899D01*
X242605557Y-79622893D01*
X242730576Y-79497874D01*
X242877582Y-79399647D01*
X243040927Y-79331988D01*
X243214333Y-79297495D01*
X243391137Y-79297495D01*
X243564543Y-79331988D01*
G37*
G36*
X209631190Y-77782627D02*
G01*
X209642398Y-77782627D01*
X209697596Y-77791369D01*
X209823242Y-77807911D01*
X209853897Y-77816125D01*
X209882782Y-77820700D01*
X209938328Y-77838748D01*
X210019175Y-77860411D01*
X210070758Y-77881777D01*
X210114250Y-77895909D01*
X210154994Y-77916669D01*
X210206578Y-77938036D01*
X210279061Y-77979884D01*
X210331103Y-78006401D01*
X210354763Y-78023591D01*
X210382247Y-78039459D01*
X210482782Y-78116602D01*
X210528002Y-78149456D01*
X210535927Y-78157381D01*
X210543174Y-78162942D01*
X210686611Y-78306379D01*
X210692171Y-78313625D01*
X210700098Y-78321552D01*
X210732955Y-78366776D01*
X210810094Y-78467306D01*
X210825960Y-78494787D01*
X210843153Y-78518451D01*
X210869672Y-78570498D01*
X210911517Y-78642975D01*
X210932881Y-78694552D01*
X210953645Y-78735304D01*
X210967778Y-78778801D01*
X210989142Y-78830378D01*
X211010801Y-78911212D01*
X211028854Y-78966772D01*
X211033429Y-78995662D01*
X211041642Y-79026311D01*
X211058182Y-79151945D01*
X211066927Y-79207156D01*
X211066927Y-79218364D01*
X211068120Y-79227426D01*
X211068120Y-79430265D01*
X211066927Y-79439326D01*
X211066927Y-79450536D01*
X211058181Y-79505751D01*
X211041642Y-79631380D01*
X211033430Y-79662026D01*
X211028854Y-79690920D01*
X211010799Y-79746484D01*
X210989142Y-79827313D01*
X210967779Y-79878885D01*
X210953645Y-79922388D01*
X210932879Y-79963143D01*
X210911517Y-80014716D01*
X210869676Y-80087184D01*
X210843153Y-80139241D01*
X210825957Y-80162908D01*
X210810094Y-80190385D01*
X210732969Y-80290896D01*
X210700098Y-80336140D01*
X210692167Y-80344070D01*
X210686611Y-80351312D01*
X210543174Y-80494749D01*
X210535932Y-80500305D01*
X210528002Y-80508236D01*
X210482758Y-80541107D01*
X210382247Y-80618232D01*
X210354770Y-80634095D01*
X210331103Y-80651291D01*
X210279046Y-80677814D01*
X210206578Y-80719655D01*
X210155005Y-80741017D01*
X210114250Y-80761783D01*
X210070747Y-80775917D01*
X210019175Y-80797280D01*
X209938346Y-80818937D01*
X209882782Y-80836992D01*
X209853888Y-80841568D01*
X209823242Y-80849780D01*
X209697610Y-80866320D01*
X209642398Y-80875065D01*
X209631189Y-80875065D01*
X209622128Y-80876258D01*
X209419288Y-80876258D01*
X209410227Y-80875065D01*
X209399018Y-80875065D01*
X209343807Y-80866320D01*
X209218173Y-80849780D01*
X209187524Y-80841567D01*
X209158634Y-80836992D01*
X209103074Y-80818939D01*
X209022240Y-80797280D01*
X208970663Y-80775916D01*
X208927166Y-80761783D01*
X208886414Y-80741019D01*
X208834837Y-80719655D01*
X208762360Y-80677810D01*
X208710313Y-80651291D01*
X208686649Y-80634098D01*
X208659168Y-80618232D01*
X208558638Y-80541093D01*
X208513414Y-80508236D01*
X208505487Y-80500309D01*
X208498241Y-80494749D01*
X208354804Y-80351312D01*
X208349243Y-80344065D01*
X208341318Y-80336140D01*
X208308464Y-80290920D01*
X208231321Y-80190385D01*
X208215453Y-80162901D01*
X208198263Y-80139241D01*
X208171746Y-80087199D01*
X208129898Y-80014716D01*
X208108531Y-79963132D01*
X208087771Y-79922388D01*
X208073639Y-79878896D01*
X208052273Y-79827313D01*
X208030610Y-79746466D01*
X208012562Y-79690920D01*
X208007987Y-79662035D01*
X207999773Y-79631380D01*
X207983232Y-79505737D01*
X207974489Y-79450536D01*
X207974489Y-79439326D01*
X207973296Y-79430265D01*
X207973296Y-79227426D01*
X207974489Y-79218364D01*
X207974489Y-79207156D01*
X207983231Y-79151959D01*
X207999773Y-79026311D01*
X208007987Y-78995653D01*
X208012562Y-78966772D01*
X208030608Y-78911229D01*
X208052273Y-78830378D01*
X208073641Y-78778790D01*
X208087771Y-78735304D01*
X208108529Y-78694563D01*
X208129898Y-78642975D01*
X208171750Y-78570483D01*
X208198263Y-78518451D01*
X208215450Y-78494794D01*
X208231321Y-78467306D01*
X208308478Y-78366752D01*
X208341318Y-78321552D01*
X208349240Y-78313629D01*
X208354804Y-78306379D01*
X208498241Y-78162942D01*
X208505491Y-78157378D01*
X208513414Y-78149456D01*
X208558614Y-78116616D01*
X208659168Y-78039459D01*
X208686656Y-78023588D01*
X208710313Y-78006401D01*
X208762345Y-77979888D01*
X208834837Y-77938036D01*
X208886425Y-77916667D01*
X208927166Y-77895909D01*
X208970652Y-77881779D01*
X209022240Y-77860411D01*
X209103091Y-77838746D01*
X209158634Y-77820700D01*
X209187515Y-77816125D01*
X209218173Y-77807911D01*
X209343821Y-77791369D01*
X209399018Y-77782627D01*
X209410226Y-77782627D01*
X209419288Y-77781434D01*
X209622128Y-77781434D01*
X209631190Y-77782627D01*
G37*
G36*
X260286145Y-78237590D02*
G01*
X260320851Y-78248867D01*
X260327246Y-78253513D01*
X260343365Y-78259758D01*
X260397748Y-78302834D01*
X260857367Y-78762453D01*
X260900443Y-78816836D01*
X260906687Y-78832955D01*
X260911333Y-78839349D01*
X260922608Y-78874051D01*
X260940403Y-78919984D01*
X260940403Y-79030601D01*
X260922606Y-79076539D01*
X260911333Y-79111235D01*
X260906688Y-79117627D01*
X260900443Y-79133749D01*
X260857367Y-79188131D01*
X259938128Y-80107370D01*
X259883746Y-80150446D01*
X259867624Y-80156691D01*
X259861232Y-80161336D01*
X259826536Y-80172609D01*
X259780598Y-80190406D01*
X259669981Y-80190406D01*
X259624046Y-80172610D01*
X259589346Y-80161336D01*
X259582952Y-80156690D01*
X259566833Y-80150446D01*
X259512450Y-80107370D01*
X259052831Y-79647751D01*
X259009755Y-79593368D01*
X259003510Y-79577249D01*
X258998864Y-79570854D01*
X258987587Y-79536148D01*
X258969795Y-79490220D01*
X258969795Y-79379603D01*
X258987585Y-79333679D01*
X258998864Y-79298968D01*
X259003511Y-79292571D01*
X259009755Y-79276455D01*
X259052831Y-79222073D01*
X259689409Y-78585495D01*
X259965116Y-78309787D01*
X259965119Y-78309784D01*
X259972070Y-78302834D01*
X260026452Y-78259758D01*
X260042568Y-78253514D01*
X260048965Y-78248867D01*
X260083674Y-78237589D01*
X260129600Y-78219798D01*
X260240217Y-78219798D01*
X260286145Y-78237590D01*
G37*
G36*
X201686144Y-78147584D02*
G01*
X201849489Y-78215243D01*
X201996495Y-78313470D01*
X202121514Y-78438489D01*
X202219741Y-78585495D01*
X202287400Y-78748840D01*
X202321893Y-78922246D01*
X202321893Y-79099050D01*
X202287400Y-79272456D01*
X202219741Y-79435801D01*
X202121514Y-79582807D01*
X201996495Y-79707826D01*
X201849489Y-79806053D01*
X201686144Y-79873712D01*
X201512738Y-79908205D01*
X201335934Y-79908205D01*
X201162528Y-79873712D01*
X200999183Y-79806053D01*
X200852177Y-79707826D01*
X200727158Y-79582807D01*
X200628931Y-79435801D01*
X200561272Y-79272456D01*
X200526779Y-79099050D01*
X200526779Y-78922246D01*
X200561272Y-78748840D01*
X200628931Y-78585495D01*
X200727158Y-78438489D01*
X200852177Y-78313470D01*
X200999183Y-78215243D01*
X201162528Y-78147584D01*
X201335934Y-78113091D01*
X201512738Y-78113091D01*
X201686144Y-78147584D01*
G37*
G36*
X211856000Y-75127476D02*
G01*
X211872545Y-75138532D01*
X213711023Y-76977010D01*
X213722079Y-76993555D01*
X213725960Y-77013072D01*
X213722079Y-77032589D01*
X213711023Y-77049134D01*
X211872545Y-78887612D01*
X211856000Y-78898668D01*
X211836483Y-78902549D01*
X211816966Y-78898668D01*
X211800421Y-78887612D01*
X209961943Y-77049134D01*
X209950887Y-77032589D01*
X209947006Y-77013072D01*
X209950887Y-76993555D01*
X209961943Y-76977010D01*
X211324091Y-75614862D01*
X211791716Y-75147236D01*
X211791719Y-75147233D01*
X211800421Y-75138532D01*
X211816966Y-75127476D01*
X211836483Y-75123595D01*
X211856000Y-75127476D01*
G37*
G36*
X247536254Y-74574389D02*
G01*
X247759323Y-74634160D01*
X247972683Y-74722536D01*
X248172681Y-74838005D01*
X248355897Y-74978592D01*
X248519195Y-75141890D01*
X248659782Y-75325106D01*
X248775251Y-75525104D01*
X248863627Y-75738464D01*
X248923398Y-75961533D01*
X248953542Y-76190496D01*
X248953542Y-76421434D01*
X248923398Y-76650397D01*
X248863627Y-76873466D01*
X248775251Y-77086826D01*
X248659782Y-77286824D01*
X248519195Y-77470040D01*
X248355897Y-77633338D01*
X248172681Y-77773925D01*
X247972683Y-77889394D01*
X247759323Y-77977770D01*
X247536254Y-78037541D01*
X247307291Y-78067685D01*
X247076353Y-78067685D01*
X246847390Y-78037541D01*
X246624321Y-77977770D01*
X246410961Y-77889394D01*
X246210963Y-77773925D01*
X246027747Y-77633338D01*
X245864449Y-77470040D01*
X245723862Y-77286824D01*
X245608393Y-77086826D01*
X245520017Y-76873466D01*
X245460246Y-76650397D01*
X245430102Y-76421434D01*
X245430102Y-76190496D01*
X245460246Y-75961533D01*
X245520017Y-75738464D01*
X245608393Y-75525104D01*
X245723862Y-75325106D01*
X245864449Y-75141890D01*
X246027747Y-74978592D01*
X246210963Y-74838005D01*
X246410961Y-74722536D01*
X246624321Y-74634160D01*
X246847390Y-74574389D01*
X247076353Y-74544245D01*
X247307291Y-74544245D01*
X247536254Y-74574389D01*
G37*
G36*
X220997477Y-74273291D02*
G01*
X221014022Y-74284347D01*
X222852500Y-76122825D01*
X222863556Y-76139370D01*
X222867437Y-76158887D01*
X222863556Y-76178404D01*
X222852500Y-76194949D01*
X221014022Y-78033427D01*
X220997477Y-78044483D01*
X220977960Y-78048364D01*
X220958443Y-78044483D01*
X220941898Y-78033427D01*
X219103420Y-76194949D01*
X219092364Y-76178404D01*
X219088483Y-76158887D01*
X219092364Y-76139370D01*
X219103420Y-76122825D01*
X220449116Y-74777129D01*
X220933193Y-74293051D01*
X220933196Y-74293048D01*
X220941898Y-74284347D01*
X220958443Y-74273291D01*
X220977960Y-74269410D01*
X220997477Y-74273291D01*
G37*
G36*
X229873986Y-76287341D02*
G01*
X230037168Y-76354933D01*
X230184028Y-76453062D01*
X230308922Y-76577956D01*
X230407051Y-76724816D01*
X230474643Y-76887998D01*
X230509101Y-77061231D01*
X230509101Y-77237857D01*
X230474643Y-77411090D01*
X230407051Y-77574272D01*
X230308922Y-77721132D01*
X230184028Y-77846026D01*
X230037168Y-77944155D01*
X229873986Y-78011747D01*
X229700753Y-78046205D01*
X229524127Y-78046205D01*
X229350894Y-78011747D01*
X229187712Y-77944155D01*
X229040852Y-77846026D01*
X228915958Y-77721132D01*
X228817829Y-77574272D01*
X228750237Y-77411090D01*
X228715779Y-77237857D01*
X228715779Y-77061231D01*
X228750237Y-76887998D01*
X228817829Y-76724816D01*
X228915958Y-76577956D01*
X229040852Y-76453062D01*
X229187712Y-76354933D01*
X229350894Y-76287341D01*
X229524127Y-76252883D01*
X229700753Y-76252883D01*
X229873986Y-76287341D01*
G37*
G36*
X205657855Y-73389985D02*
G01*
X205880924Y-73449756D01*
X206094284Y-73538132D01*
X206294282Y-73653601D01*
X206477498Y-73794188D01*
X206640796Y-73957486D01*
X206781383Y-74140702D01*
X206896852Y-74340700D01*
X206985228Y-74554060D01*
X207044999Y-74777129D01*
X207075143Y-75006092D01*
X207075143Y-75237030D01*
X207044999Y-75465993D01*
X206985228Y-75689062D01*
X206896852Y-75902422D01*
X206781383Y-76102420D01*
X206640796Y-76285636D01*
X206477498Y-76448934D01*
X206294282Y-76589521D01*
X206094284Y-76704990D01*
X205880924Y-76793366D01*
X205657855Y-76853137D01*
X205428892Y-76883281D01*
X205197954Y-76883281D01*
X204968991Y-76853137D01*
X204745922Y-76793366D01*
X204532562Y-76704990D01*
X204332564Y-76589521D01*
X204149348Y-76448934D01*
X203986050Y-76285636D01*
X203845463Y-76102420D01*
X203729994Y-75902422D01*
X203641618Y-75689062D01*
X203581847Y-75465993D01*
X203551703Y-75237030D01*
X203551703Y-75006092D01*
X203581847Y-74777129D01*
X203641618Y-74554060D01*
X203729994Y-74340700D01*
X203845463Y-74140702D01*
X203986050Y-73957486D01*
X204149348Y-73794188D01*
X204332564Y-73653601D01*
X204532562Y-73538132D01*
X204745922Y-73449756D01*
X204968991Y-73389985D01*
X205197954Y-73359841D01*
X205428892Y-73359841D01*
X205657855Y-73389985D01*
G37*
G36*
X240688279Y-72528858D02*
G01*
X240704824Y-72539914D01*
X242543302Y-74378392D01*
X242554358Y-74394937D01*
X242558239Y-74414454D01*
X242554358Y-74433971D01*
X242543302Y-74450516D01*
X240704824Y-76288994D01*
X240688279Y-76300050D01*
X240668762Y-76303931D01*
X240649245Y-76300050D01*
X240632700Y-76288994D01*
X238794222Y-74450516D01*
X238783166Y-74433971D01*
X238779285Y-74414454D01*
X238783166Y-74394937D01*
X238794222Y-74378392D01*
X240164288Y-73008326D01*
X240623995Y-72548618D01*
X240623998Y-72548615D01*
X240632700Y-72539914D01*
X240649245Y-72528858D01*
X240668762Y-72524977D01*
X240688279Y-72528858D01*
G37*
G36*
X231670038Y-74491289D02*
G01*
X231833220Y-74558881D01*
X231980080Y-74657010D01*
X232104974Y-74781904D01*
X232203103Y-74928764D01*
X232270695Y-75091946D01*
X232305153Y-75265179D01*
X232305153Y-75441805D01*
X232270695Y-75615038D01*
X232203103Y-75778220D01*
X232104974Y-75925080D01*
X231980080Y-76049974D01*
X231833220Y-76148103D01*
X231670038Y-76215695D01*
X231496805Y-76250153D01*
X231320179Y-76250153D01*
X231146946Y-76215695D01*
X230983764Y-76148103D01*
X230836904Y-76049974D01*
X230712010Y-75925080D01*
X230613881Y-75778220D01*
X230546289Y-75615038D01*
X230511831Y-75441805D01*
X230511831Y-75265179D01*
X230546289Y-75091946D01*
X230613881Y-74928764D01*
X230712010Y-74781904D01*
X230836904Y-74657010D01*
X230983764Y-74558881D01*
X231146946Y-74491289D01*
X231320179Y-74456831D01*
X231496805Y-74456831D01*
X231670038Y-74491289D01*
G37*
G36*
X223404217Y-72296893D02*
G01*
X223415425Y-72296893D01*
X223470623Y-72305635D01*
X223596269Y-72322177D01*
X223626924Y-72330391D01*
X223655809Y-72334966D01*
X223711355Y-72353014D01*
X223792202Y-72374677D01*
X223843785Y-72396043D01*
X223887277Y-72410175D01*
X223928021Y-72430935D01*
X223979605Y-72452302D01*
X224052088Y-72494150D01*
X224104130Y-72520667D01*
X224127790Y-72537857D01*
X224155274Y-72553725D01*
X224255809Y-72630868D01*
X224301029Y-72663722D01*
X224308954Y-72671647D01*
X224316201Y-72677208D01*
X224459638Y-72820645D01*
X224465198Y-72827891D01*
X224473125Y-72835818D01*
X224505982Y-72881042D01*
X224583121Y-72981572D01*
X224598987Y-73009053D01*
X224616180Y-73032717D01*
X224642699Y-73084764D01*
X224684544Y-73157241D01*
X224705908Y-73208818D01*
X224726672Y-73249570D01*
X224740805Y-73293067D01*
X224762169Y-73344644D01*
X224783828Y-73425478D01*
X224801881Y-73481038D01*
X224806456Y-73509928D01*
X224814669Y-73540577D01*
X224831209Y-73666211D01*
X224839954Y-73721422D01*
X224839954Y-73732630D01*
X224841147Y-73741692D01*
X224841147Y-73944531D01*
X224839954Y-73953592D01*
X224839954Y-73964802D01*
X224831208Y-74020017D01*
X224814669Y-74145646D01*
X224806457Y-74176292D01*
X224801881Y-74205186D01*
X224783826Y-74260750D01*
X224762169Y-74341579D01*
X224740806Y-74393151D01*
X224726672Y-74436654D01*
X224705906Y-74477409D01*
X224684544Y-74528982D01*
X224642703Y-74601450D01*
X224616180Y-74653507D01*
X224598984Y-74677174D01*
X224583121Y-74704651D01*
X224505996Y-74805162D01*
X224473125Y-74850406D01*
X224465194Y-74858336D01*
X224459638Y-74865578D01*
X224316201Y-75009015D01*
X224308959Y-75014571D01*
X224301029Y-75022502D01*
X224255785Y-75055373D01*
X224155274Y-75132498D01*
X224127797Y-75148361D01*
X224104130Y-75165557D01*
X224052073Y-75192080D01*
X223979605Y-75233921D01*
X223928032Y-75255283D01*
X223887277Y-75276049D01*
X223843774Y-75290183D01*
X223792202Y-75311546D01*
X223711373Y-75333203D01*
X223655809Y-75351258D01*
X223626915Y-75355834D01*
X223596269Y-75364046D01*
X223470637Y-75380586D01*
X223415425Y-75389331D01*
X223404216Y-75389331D01*
X223395155Y-75390524D01*
X223192315Y-75390524D01*
X223183254Y-75389331D01*
X223172045Y-75389331D01*
X223116834Y-75380586D01*
X222991200Y-75364046D01*
X222960551Y-75355833D01*
X222931661Y-75351258D01*
X222876101Y-75333205D01*
X222795267Y-75311546D01*
X222743690Y-75290182D01*
X222700193Y-75276049D01*
X222659441Y-75255285D01*
X222607864Y-75233921D01*
X222535387Y-75192076D01*
X222483340Y-75165557D01*
X222459676Y-75148364D01*
X222432195Y-75132498D01*
X222331665Y-75055359D01*
X222286441Y-75022502D01*
X222278514Y-75014575D01*
X222271268Y-75009015D01*
X222127831Y-74865578D01*
X222122270Y-74858331D01*
X222114345Y-74850406D01*
X222081491Y-74805186D01*
X222004348Y-74704651D01*
X221988480Y-74677167D01*
X221971290Y-74653507D01*
X221944773Y-74601465D01*
X221902925Y-74528982D01*
X221881558Y-74477398D01*
X221860798Y-74436654D01*
X221846666Y-74393162D01*
X221825300Y-74341579D01*
X221803637Y-74260732D01*
X221785589Y-74205186D01*
X221781014Y-74176301D01*
X221772800Y-74145646D01*
X221756259Y-74020003D01*
X221747516Y-73964802D01*
X221747516Y-73953592D01*
X221746323Y-73944531D01*
X221746323Y-73741692D01*
X221747516Y-73732630D01*
X221747516Y-73721422D01*
X221756258Y-73666225D01*
X221772800Y-73540577D01*
X221781014Y-73509919D01*
X221785589Y-73481038D01*
X221803635Y-73425495D01*
X221825300Y-73344644D01*
X221846668Y-73293056D01*
X221860798Y-73249570D01*
X221881556Y-73208829D01*
X221902925Y-73157241D01*
X221944777Y-73084749D01*
X221971290Y-73032717D01*
X221988477Y-73009060D01*
X222004348Y-72981572D01*
X222081505Y-72881018D01*
X222114345Y-72835818D01*
X222122267Y-72827895D01*
X222127831Y-72820645D01*
X222271268Y-72677208D01*
X222278518Y-72671644D01*
X222286441Y-72663722D01*
X222331641Y-72630882D01*
X222432195Y-72553725D01*
X222459683Y-72537854D01*
X222483340Y-72520667D01*
X222535372Y-72494154D01*
X222607864Y-72452302D01*
X222659452Y-72430933D01*
X222700193Y-72410175D01*
X222743679Y-72396045D01*
X222795267Y-72374677D01*
X222876118Y-72353012D01*
X222931661Y-72334966D01*
X222960542Y-72330391D01*
X222991200Y-72322177D01*
X223116848Y-72305635D01*
X223172045Y-72296893D01*
X223183253Y-72296893D01*
X223192315Y-72295700D01*
X223395155Y-72295700D01*
X223404217Y-72296893D01*
G37*
G36*
X233466089Y-72695238D02*
G01*
X233629271Y-72762830D01*
X233776131Y-72860959D01*
X233901025Y-72985853D01*
X233999154Y-73132713D01*
X234066746Y-73295895D01*
X234101204Y-73469128D01*
X234101204Y-73645754D01*
X234066746Y-73818987D01*
X233999154Y-73982169D01*
X233901025Y-74129029D01*
X233776131Y-74253923D01*
X233629271Y-74352052D01*
X233466089Y-74419644D01*
X233292856Y-74454102D01*
X233116230Y-74454102D01*
X232942997Y-74419644D01*
X232779815Y-74352052D01*
X232632955Y-74253923D01*
X232508061Y-74129029D01*
X232409932Y-73982169D01*
X232342340Y-73818987D01*
X232307882Y-73645754D01*
X232307882Y-73469128D01*
X232342340Y-73295895D01*
X232409932Y-73132713D01*
X232508061Y-72985853D01*
X232632955Y-72860959D01*
X232779815Y-72762830D01*
X232942997Y-72695238D01*
X233116230Y-72660780D01*
X233292856Y-72660780D01*
X233466089Y-72695238D01*
G37*
G36*
X243095019Y-70552461D02*
G01*
X243106227Y-70552461D01*
X243161425Y-70561203D01*
X243287071Y-70577745D01*
X243317726Y-70585959D01*
X243346611Y-70590534D01*
X243402157Y-70608582D01*
X243483004Y-70630245D01*
X243534587Y-70651611D01*
X243578079Y-70665743D01*
X243618823Y-70686503D01*
X243670407Y-70707870D01*
X243742890Y-70749718D01*
X243794932Y-70776235D01*
X243818592Y-70793425D01*
X243846076Y-70809293D01*
X243946611Y-70886436D01*
X243991831Y-70919290D01*
X243999756Y-70927215D01*
X244007003Y-70932776D01*
X244150440Y-71076213D01*
X244156000Y-71083459D01*
X244163927Y-71091386D01*
X244196784Y-71136610D01*
X244273923Y-71237140D01*
X244289789Y-71264621D01*
X244306982Y-71288285D01*
X244333501Y-71340332D01*
X244375346Y-71412809D01*
X244396710Y-71464386D01*
X244417474Y-71505138D01*
X244431607Y-71548635D01*
X244452971Y-71600212D01*
X244474630Y-71681046D01*
X244492683Y-71736606D01*
X244497258Y-71765496D01*
X244505471Y-71796145D01*
X244522011Y-71921779D01*
X244530756Y-71976990D01*
X244530756Y-71988198D01*
X244531949Y-71997260D01*
X244531949Y-72200099D01*
X244530756Y-72209160D01*
X244530756Y-72220370D01*
X244522010Y-72275585D01*
X244505471Y-72401214D01*
X244497259Y-72431860D01*
X244492683Y-72460754D01*
X244474628Y-72516318D01*
X244452971Y-72597147D01*
X244431608Y-72648719D01*
X244417474Y-72692222D01*
X244396708Y-72732977D01*
X244375346Y-72784550D01*
X244333505Y-72857018D01*
X244306982Y-72909075D01*
X244289786Y-72932742D01*
X244273923Y-72960219D01*
X244196798Y-73060730D01*
X244163927Y-73105974D01*
X244155996Y-73113904D01*
X244150440Y-73121146D01*
X244007003Y-73264583D01*
X243999761Y-73270139D01*
X243991831Y-73278070D01*
X243946587Y-73310941D01*
X243846076Y-73388066D01*
X243818599Y-73403929D01*
X243794932Y-73421125D01*
X243742875Y-73447648D01*
X243670407Y-73489489D01*
X243618834Y-73510851D01*
X243578079Y-73531617D01*
X243534576Y-73545751D01*
X243483004Y-73567114D01*
X243402175Y-73588771D01*
X243346611Y-73606826D01*
X243317717Y-73611402D01*
X243287071Y-73619614D01*
X243161439Y-73636154D01*
X243106227Y-73644899D01*
X243095018Y-73644899D01*
X243085957Y-73646092D01*
X242883117Y-73646092D01*
X242874056Y-73644899D01*
X242862847Y-73644899D01*
X242807636Y-73636154D01*
X242682002Y-73619614D01*
X242651353Y-73611401D01*
X242622463Y-73606826D01*
X242566903Y-73588773D01*
X242486069Y-73567114D01*
X242434492Y-73545750D01*
X242390995Y-73531617D01*
X242350243Y-73510853D01*
X242298666Y-73489489D01*
X242226189Y-73447644D01*
X242174142Y-73421125D01*
X242150478Y-73403932D01*
X242122997Y-73388066D01*
X242022467Y-73310927D01*
X241977243Y-73278070D01*
X241969316Y-73270143D01*
X241962070Y-73264583D01*
X241818633Y-73121146D01*
X241813072Y-73113899D01*
X241805147Y-73105974D01*
X241772293Y-73060754D01*
X241695150Y-72960219D01*
X241679282Y-72932735D01*
X241662092Y-72909075D01*
X241635575Y-72857033D01*
X241593727Y-72784550D01*
X241572360Y-72732966D01*
X241551600Y-72692222D01*
X241537468Y-72648730D01*
X241516102Y-72597147D01*
X241494439Y-72516300D01*
X241476391Y-72460754D01*
X241471816Y-72431869D01*
X241463602Y-72401214D01*
X241447061Y-72275571D01*
X241438318Y-72220370D01*
X241438318Y-72209160D01*
X241437125Y-72200099D01*
X241437125Y-71997260D01*
X241438318Y-71988198D01*
X241438318Y-71976990D01*
X241447060Y-71921793D01*
X241463602Y-71796145D01*
X241471816Y-71765487D01*
X241476391Y-71736606D01*
X241494437Y-71681063D01*
X241516102Y-71600212D01*
X241537470Y-71548624D01*
X241551600Y-71505138D01*
X241572358Y-71464397D01*
X241593727Y-71412809D01*
X241635579Y-71340317D01*
X241662092Y-71288285D01*
X241679279Y-71264628D01*
X241695150Y-71237140D01*
X241772307Y-71136586D01*
X241805147Y-71091386D01*
X241813069Y-71083463D01*
X241818633Y-71076213D01*
X241962070Y-70932776D01*
X241969320Y-70927212D01*
X241977243Y-70919290D01*
X242022443Y-70886450D01*
X242122997Y-70809293D01*
X242150485Y-70793422D01*
X242174142Y-70776235D01*
X242226174Y-70749722D01*
X242298666Y-70707870D01*
X242350254Y-70686501D01*
X242390995Y-70665743D01*
X242434481Y-70651613D01*
X242486069Y-70630245D01*
X242566920Y-70608580D01*
X242622463Y-70590534D01*
X242651344Y-70585959D01*
X242682002Y-70577745D01*
X242807650Y-70561203D01*
X242862847Y-70552461D01*
X242874055Y-70552461D01*
X242883117Y-70551268D01*
X243085957Y-70551268D01*
X243095019Y-70552461D01*
G37*
G36*
X228495385Y-70316994D02*
G01*
X228506593Y-70316994D01*
X228561791Y-70325736D01*
X228687437Y-70342278D01*
X228718092Y-70350492D01*
X228746977Y-70355067D01*
X228802523Y-70373115D01*
X228883370Y-70394778D01*
X228934953Y-70416144D01*
X228978445Y-70430276D01*
X229019189Y-70451036D01*
X229070773Y-70472403D01*
X229143256Y-70514251D01*
X229195298Y-70540768D01*
X229218958Y-70557958D01*
X229246442Y-70573826D01*
X229346977Y-70650969D01*
X229392197Y-70683823D01*
X229400122Y-70691748D01*
X229407369Y-70697309D01*
X229550806Y-70840746D01*
X229556366Y-70847992D01*
X229564293Y-70855919D01*
X229597150Y-70901143D01*
X229674289Y-71001673D01*
X229690155Y-71029154D01*
X229707348Y-71052818D01*
X229733867Y-71104865D01*
X229775712Y-71177342D01*
X229797076Y-71228919D01*
X229817840Y-71269671D01*
X229831973Y-71313168D01*
X229853337Y-71364745D01*
X229874996Y-71445579D01*
X229893049Y-71501139D01*
X229897624Y-71530029D01*
X229905837Y-71560678D01*
X229922377Y-71686312D01*
X229931122Y-71741523D01*
X229931122Y-71752731D01*
X229932315Y-71761793D01*
X229932315Y-71964632D01*
X229931122Y-71973693D01*
X229931122Y-71984903D01*
X229922376Y-72040118D01*
X229905837Y-72165747D01*
X229897625Y-72196393D01*
X229893049Y-72225287D01*
X229874994Y-72280851D01*
X229853337Y-72361680D01*
X229831974Y-72413252D01*
X229817840Y-72456755D01*
X229797074Y-72497510D01*
X229775712Y-72549083D01*
X229733871Y-72621551D01*
X229707348Y-72673608D01*
X229690152Y-72697275D01*
X229674289Y-72724752D01*
X229597164Y-72825263D01*
X229564293Y-72870507D01*
X229556362Y-72878437D01*
X229550806Y-72885679D01*
X229407369Y-73029116D01*
X229400127Y-73034672D01*
X229392197Y-73042603D01*
X229346953Y-73075474D01*
X229246442Y-73152599D01*
X229218965Y-73168462D01*
X229195298Y-73185658D01*
X229143241Y-73212181D01*
X229070773Y-73254022D01*
X229019200Y-73275384D01*
X228978445Y-73296150D01*
X228934942Y-73310284D01*
X228883370Y-73331647D01*
X228802541Y-73353304D01*
X228746977Y-73371359D01*
X228718083Y-73375935D01*
X228687437Y-73384147D01*
X228561805Y-73400687D01*
X228506593Y-73409432D01*
X228495384Y-73409432D01*
X228486323Y-73410625D01*
X228283483Y-73410625D01*
X228274422Y-73409432D01*
X228263213Y-73409432D01*
X228208002Y-73400687D01*
X228082368Y-73384147D01*
X228051719Y-73375934D01*
X228022829Y-73371359D01*
X227967269Y-73353306D01*
X227886435Y-73331647D01*
X227834858Y-73310283D01*
X227791361Y-73296150D01*
X227750609Y-73275386D01*
X227699032Y-73254022D01*
X227626555Y-73212177D01*
X227574508Y-73185658D01*
X227550844Y-73168465D01*
X227523363Y-73152599D01*
X227422833Y-73075460D01*
X227377609Y-73042603D01*
X227369682Y-73034676D01*
X227362436Y-73029116D01*
X227218999Y-72885679D01*
X227213438Y-72878432D01*
X227205513Y-72870507D01*
X227172659Y-72825287D01*
X227095516Y-72724752D01*
X227079648Y-72697268D01*
X227062458Y-72673608D01*
X227035941Y-72621566D01*
X226994093Y-72549083D01*
X226972726Y-72497499D01*
X226951966Y-72456755D01*
X226937834Y-72413263D01*
X226916468Y-72361680D01*
X226894805Y-72280833D01*
X226876757Y-72225287D01*
X226872182Y-72196402D01*
X226863968Y-72165747D01*
X226847427Y-72040104D01*
X226838684Y-71984903D01*
X226838684Y-71973693D01*
X226837491Y-71964632D01*
X226837491Y-71761793D01*
X226838684Y-71752731D01*
X226838684Y-71741523D01*
X226847426Y-71686326D01*
X226863968Y-71560678D01*
X226872182Y-71530020D01*
X226876757Y-71501139D01*
X226894803Y-71445596D01*
X226916468Y-71364745D01*
X226937836Y-71313157D01*
X226951966Y-71269671D01*
X226972724Y-71228930D01*
X226994093Y-71177342D01*
X227035945Y-71104850D01*
X227062458Y-71052818D01*
X227079645Y-71029161D01*
X227095516Y-71001673D01*
X227172673Y-70901119D01*
X227205513Y-70855919D01*
X227213435Y-70847996D01*
X227218999Y-70840746D01*
X227362436Y-70697309D01*
X227369686Y-70691745D01*
X227377609Y-70683823D01*
X227422809Y-70650983D01*
X227523363Y-70573826D01*
X227550851Y-70557955D01*
X227574508Y-70540768D01*
X227626540Y-70514255D01*
X227699032Y-70472403D01*
X227750620Y-70451034D01*
X227791361Y-70430276D01*
X227834847Y-70416146D01*
X227886435Y-70394778D01*
X227967286Y-70373113D01*
X228022829Y-70355067D01*
X228051710Y-70350492D01*
X228082368Y-70342278D01*
X228208016Y-70325736D01*
X228263213Y-70316994D01*
X228274421Y-70316994D01*
X228283483Y-70315801D01*
X228486323Y-70315801D01*
X228495385Y-70316994D01*
G37*
G36*
X251342717Y-71553814D02*
G01*
X251506062Y-71621473D01*
X251653068Y-71719700D01*
X251778087Y-71844719D01*
X251876314Y-71991725D01*
X251943973Y-72155070D01*
X251978466Y-72328476D01*
X251978466Y-72505280D01*
X251943973Y-72678686D01*
X251876314Y-72842031D01*
X251778087Y-72989037D01*
X251653068Y-73114056D01*
X251506062Y-73212283D01*
X251342717Y-73279942D01*
X251169311Y-73314435D01*
X250992507Y-73314435D01*
X250819101Y-73279942D01*
X250655756Y-73212283D01*
X250508750Y-73114056D01*
X250383731Y-72989037D01*
X250285504Y-72842031D01*
X250217845Y-72678686D01*
X250183352Y-72505280D01*
X250183352Y-72328476D01*
X250217845Y-72155070D01*
X250285504Y-71991725D01*
X250383731Y-71844719D01*
X250508750Y-71719700D01*
X250655756Y-71621473D01*
X250819101Y-71553814D01*
X250992507Y-71519321D01*
X251169311Y-71519321D01*
X251342717Y-71553814D01*
G37*
G36*
X235020111Y-70512190D02*
G01*
X235036656Y-70523246D01*
X236238738Y-71725328D01*
X236249794Y-71741873D01*
X236253675Y-71761390D01*
X236249794Y-71780907D01*
X236238738Y-71797452D01*
X235036656Y-72999534D01*
X235020111Y-73010590D01*
X235000594Y-73014471D01*
X234981077Y-73010590D01*
X234964532Y-72999534D01*
X233762450Y-71797452D01*
X233751394Y-71780907D01*
X233747513Y-71761390D01*
X233751394Y-71741873D01*
X233762450Y-71725328D01*
X234647032Y-70840746D01*
X234955827Y-70531950D01*
X234955830Y-70531947D01*
X234964532Y-70523246D01*
X234981077Y-70512190D01*
X235000594Y-70508309D01*
X235020111Y-70512190D01*
G37*
G36*
X220550339Y-70681951D02*
G01*
X220713684Y-70749610D01*
X220860690Y-70847837D01*
X220985709Y-70972856D01*
X221083936Y-71119862D01*
X221151595Y-71283207D01*
X221186088Y-71456613D01*
X221186088Y-71633417D01*
X221151595Y-71806823D01*
X221083936Y-71970168D01*
X220985709Y-72117174D01*
X220860690Y-72242193D01*
X220713684Y-72340420D01*
X220550339Y-72408079D01*
X220376933Y-72442572D01*
X220200129Y-72442572D01*
X220026723Y-72408079D01*
X219863378Y-72340420D01*
X219716372Y-72242193D01*
X219591353Y-72117174D01*
X219493126Y-71970168D01*
X219425467Y-71806823D01*
X219390974Y-71633417D01*
X219390974Y-71456613D01*
X219425467Y-71283207D01*
X219493126Y-71119862D01*
X219591353Y-70972856D01*
X219716372Y-70847837D01*
X219863378Y-70749610D01*
X220026723Y-70681951D01*
X220200129Y-70647458D01*
X220376933Y-70647458D01*
X220550339Y-70681951D01*
G37*
G36*
X209464318Y-70369410D02*
G01*
X209627663Y-70437069D01*
X209774669Y-70535296D01*
X209899688Y-70660315D01*
X209997915Y-70807321D01*
X210065574Y-70970666D01*
X210100067Y-71144072D01*
X210100067Y-71320876D01*
X210065574Y-71494282D01*
X209997915Y-71657627D01*
X209899688Y-71804633D01*
X209774669Y-71929652D01*
X209627663Y-72027879D01*
X209464318Y-72095538D01*
X209290912Y-72130031D01*
X209114108Y-72130031D01*
X208940702Y-72095538D01*
X208777357Y-72027879D01*
X208630351Y-71929652D01*
X208505332Y-71804633D01*
X208407105Y-71657627D01*
X208339446Y-71494282D01*
X208304953Y-71320876D01*
X208304953Y-71144072D01*
X208339446Y-70970666D01*
X208407105Y-70807321D01*
X208505332Y-70660315D01*
X208630351Y-70535296D01*
X208777357Y-70437069D01*
X208940702Y-70369410D01*
X209114108Y-70334917D01*
X209290912Y-70334917D01*
X209464318Y-70369410D01*
G37*
G36*
X248186187Y-68572562D02*
G01*
X248197395Y-68572562D01*
X248252593Y-68581304D01*
X248378239Y-68597846D01*
X248408894Y-68606060D01*
X248437779Y-68610635D01*
X248493325Y-68628683D01*
X248574172Y-68650346D01*
X248625755Y-68671712D01*
X248669247Y-68685844D01*
X248709991Y-68706604D01*
X248761575Y-68727971D01*
X248834058Y-68769819D01*
X248886100Y-68796336D01*
X248909760Y-68813526D01*
X248937244Y-68829394D01*
X249037779Y-68906537D01*
X249082999Y-68939391D01*
X249090924Y-68947316D01*
X249098171Y-68952877D01*
X249241608Y-69096314D01*
X249247168Y-69103560D01*
X249255095Y-69111487D01*
X249287952Y-69156711D01*
X249365091Y-69257241D01*
X249380957Y-69284722D01*
X249398150Y-69308386D01*
X249424669Y-69360433D01*
X249466514Y-69432910D01*
X249487878Y-69484487D01*
X249508642Y-69525239D01*
X249522775Y-69568736D01*
X249544139Y-69620313D01*
X249565798Y-69701147D01*
X249583851Y-69756707D01*
X249588426Y-69785597D01*
X249596639Y-69816246D01*
X249613179Y-69941880D01*
X249621924Y-69997091D01*
X249621924Y-70008299D01*
X249623117Y-70017361D01*
X249623117Y-70220200D01*
X249621924Y-70229261D01*
X249621924Y-70240471D01*
X249613178Y-70295686D01*
X249596639Y-70421315D01*
X249588427Y-70451961D01*
X249583851Y-70480855D01*
X249565796Y-70536419D01*
X249544139Y-70617248D01*
X249522776Y-70668820D01*
X249508642Y-70712323D01*
X249487876Y-70753078D01*
X249466514Y-70804651D01*
X249424673Y-70877119D01*
X249398150Y-70929176D01*
X249380954Y-70952843D01*
X249365091Y-70980320D01*
X249287966Y-71080831D01*
X249255095Y-71126075D01*
X249247164Y-71134005D01*
X249241608Y-71141247D01*
X249098171Y-71284684D01*
X249090929Y-71290240D01*
X249082999Y-71298171D01*
X249037755Y-71331042D01*
X248937244Y-71408167D01*
X248909767Y-71424030D01*
X248886100Y-71441226D01*
X248834043Y-71467749D01*
X248761575Y-71509590D01*
X248710002Y-71530952D01*
X248669247Y-71551718D01*
X248625744Y-71565852D01*
X248574172Y-71587215D01*
X248493343Y-71608872D01*
X248437779Y-71626927D01*
X248408885Y-71631503D01*
X248378239Y-71639715D01*
X248252607Y-71656255D01*
X248197395Y-71665000D01*
X248186186Y-71665000D01*
X248177125Y-71666193D01*
X247974285Y-71666193D01*
X247965224Y-71665000D01*
X247954015Y-71665000D01*
X247898804Y-71656255D01*
X247773170Y-71639715D01*
X247742521Y-71631502D01*
X247713631Y-71626927D01*
X247658071Y-71608874D01*
X247577237Y-71587215D01*
X247525660Y-71565851D01*
X247482163Y-71551718D01*
X247441411Y-71530954D01*
X247389834Y-71509590D01*
X247317357Y-71467745D01*
X247265310Y-71441226D01*
X247241646Y-71424033D01*
X247214165Y-71408167D01*
X247113635Y-71331028D01*
X247068411Y-71298171D01*
X247060484Y-71290244D01*
X247053238Y-71284684D01*
X246909801Y-71141247D01*
X246904240Y-71134000D01*
X246896315Y-71126075D01*
X246863461Y-71080855D01*
X246786318Y-70980320D01*
X246770450Y-70952836D01*
X246753260Y-70929176D01*
X246726743Y-70877134D01*
X246684895Y-70804651D01*
X246663528Y-70753067D01*
X246642768Y-70712323D01*
X246628636Y-70668831D01*
X246607270Y-70617248D01*
X246585607Y-70536401D01*
X246567559Y-70480855D01*
X246562984Y-70451970D01*
X246554770Y-70421315D01*
X246538229Y-70295672D01*
X246529486Y-70240471D01*
X246529486Y-70229261D01*
X246528293Y-70220200D01*
X246528293Y-70017361D01*
X246529486Y-70008299D01*
X246529486Y-69997091D01*
X246538228Y-69941894D01*
X246554770Y-69816246D01*
X246562984Y-69785588D01*
X246567559Y-69756707D01*
X246585605Y-69701164D01*
X246607270Y-69620313D01*
X246628638Y-69568725D01*
X246642768Y-69525239D01*
X246663526Y-69484498D01*
X246684895Y-69432910D01*
X246726747Y-69360418D01*
X246753260Y-69308386D01*
X246770447Y-69284729D01*
X246786318Y-69257241D01*
X246863475Y-69156687D01*
X246896315Y-69111487D01*
X246904237Y-69103564D01*
X246909801Y-69096314D01*
X247053238Y-68952877D01*
X247060488Y-68947313D01*
X247068411Y-68939391D01*
X247113611Y-68906551D01*
X247214165Y-68829394D01*
X247241653Y-68813523D01*
X247265310Y-68796336D01*
X247317342Y-68769823D01*
X247389834Y-68727971D01*
X247441422Y-68706602D01*
X247482163Y-68685844D01*
X247525649Y-68671714D01*
X247577237Y-68650346D01*
X247658088Y-68628681D01*
X247713631Y-68610635D01*
X247742512Y-68606060D01*
X247773170Y-68597846D01*
X247898818Y-68581304D01*
X247954015Y-68572562D01*
X247965223Y-68572562D01*
X247974285Y-68571369D01*
X248177125Y-68571369D01*
X248186187Y-68572562D01*
G37*
G36*
X230720195Y-67661843D02*
G01*
X230736740Y-67672899D01*
X232575218Y-69511377D01*
X232586274Y-69527922D01*
X232590155Y-69547439D01*
X232586274Y-69566956D01*
X232575218Y-69583501D01*
X230736740Y-71421979D01*
X230720195Y-71433035D01*
X230700678Y-71436916D01*
X230681161Y-71433035D01*
X230664616Y-71421979D01*
X228826138Y-69583501D01*
X228815082Y-69566956D01*
X228811201Y-69547439D01*
X228815082Y-69527922D01*
X228826138Y-69511377D01*
X230114169Y-68223346D01*
X230655911Y-67681603D01*
X230655914Y-67681600D01*
X230664616Y-67672899D01*
X230681161Y-67661843D01*
X230700678Y-67657962D01*
X230720195Y-67661843D01*
G37*
G36*
X250410997Y-65917410D02*
G01*
X250427542Y-65928466D01*
X252266020Y-67766944D01*
X252277076Y-67783489D01*
X252280957Y-67803006D01*
X252277076Y-67822523D01*
X252266020Y-67839068D01*
X250427542Y-69677546D01*
X250410997Y-69688602D01*
X250391480Y-69692483D01*
X250371963Y-69688602D01*
X250355418Y-69677546D01*
X248516940Y-67839068D01*
X248505884Y-67822523D01*
X248502003Y-67803006D01*
X248505884Y-67783489D01*
X248516940Y-67766944D01*
X249792031Y-66491853D01*
X250346713Y-65937170D01*
X250346716Y-65937167D01*
X250355418Y-65928466D01*
X250371963Y-65917410D01*
X250391480Y-65913529D01*
X250410997Y-65917410D01*
G37*
G36*
X224522050Y-65924352D02*
G01*
X224745119Y-65984123D01*
X224958479Y-66072499D01*
X225158477Y-66187968D01*
X225341693Y-66328555D01*
X225504991Y-66491853D01*
X225645578Y-66675069D01*
X225761047Y-66875067D01*
X225849423Y-67088427D01*
X225909194Y-67311496D01*
X225939338Y-67540459D01*
X225939338Y-67771397D01*
X225909194Y-68000360D01*
X225849423Y-68223429D01*
X225761047Y-68436789D01*
X225645578Y-68636787D01*
X225504991Y-68820003D01*
X225341693Y-68983301D01*
X225158477Y-69123888D01*
X224958479Y-69239357D01*
X224745119Y-69327733D01*
X224522050Y-69387504D01*
X224293087Y-69417648D01*
X224062149Y-69417648D01*
X223833186Y-69387504D01*
X223610117Y-69327733D01*
X223396757Y-69239357D01*
X223196759Y-69123888D01*
X223013543Y-68983301D01*
X222850245Y-68820003D01*
X222709658Y-68636787D01*
X222594189Y-68436789D01*
X222505813Y-68223429D01*
X222446042Y-68000360D01*
X222415898Y-67771397D01*
X222415898Y-67540459D01*
X222446042Y-67311496D01*
X222505813Y-67088427D01*
X222594189Y-66875067D01*
X222709658Y-66675069D01*
X222850245Y-66491853D01*
X223013543Y-66328555D01*
X223196759Y-66187968D01*
X223396757Y-66072499D01*
X223610117Y-65984123D01*
X223833186Y-65924352D01*
X224062149Y-65894208D01*
X224293087Y-65894208D01*
X224522050Y-65924352D01*
G37*
G36*
X228328513Y-62903777D02*
G01*
X228491858Y-62971436D01*
X228638864Y-63069663D01*
X228763883Y-63194682D01*
X228862110Y-63341688D01*
X228929769Y-63505033D01*
X228964262Y-63678439D01*
X228964262Y-63855243D01*
X228929769Y-64028649D01*
X228862110Y-64191994D01*
X228763883Y-64339000D01*
X228638864Y-64464019D01*
X228491858Y-64562246D01*
X228328513Y-64629905D01*
X228155107Y-64664398D01*
X227978303Y-64664398D01*
X227804897Y-64629905D01*
X227641552Y-64562246D01*
X227494546Y-64464019D01*
X227369527Y-64339000D01*
X227271300Y-64191994D01*
X227203641Y-64028649D01*
X227169148Y-63855243D01*
X227169148Y-63678439D01*
X227203641Y-63505033D01*
X227271300Y-63341688D01*
X227369527Y-63194682D01*
X227494546Y-63069663D01*
X227641552Y-62971436D01*
X227804897Y-62903777D01*
X227978303Y-62869284D01*
X228155107Y-62869284D01*
X228328513Y-62903777D01*
G37*
M02*
